<svg width="93" height="93" fill="none" xmlns="http://www.w3.org/2000/svg"><g clip-path="url(#a)"><path d="m44.1 69.677 1.207.29 10.035-42.593-1.207-.292L44.1 69.677z" fill="#37474F"/><path d="m53.349 29.681 1.534.37.621-2.637-1.534-.37-.621 2.637z" fill="#263238"/><path d="m60.925 28.721.287-1.22-12.377-2.987-.288 1.221 12.378 2.986z" fill="#37474F"/><path d="m48.925 20-.088 4.514L61.214 27.5l1.933-4.068-2.509-.607-.582 1.092.273-1.166-.466-.112-.587 1.758.26-1.838-5.818-1.402-.211.898-.044-.96-2.097-.505-.28 1.188-.182-1.3L48.925 20z" fill="#FF6F00"/><path d="m47.305 70.318 1.22-.227-7.818-43.067-1.22.226 7.818 43.068z" fill="#37474F"/><path d="m39.806 29.952 1.55-.289-.483-2.667-1.551.288.484 2.668z" fill="#263238"/><path d="M33.21 32.676c.714 1.66 1.675 4.055 2.79 5.09.328.302 1.578-.072 2.366-1.065l-.15-4.298c.02.314.067.732.154 1.251.124.913.19 1.833.2 2.755.06-.091.115-.187.162-.286.347-.724-.331-3.957-.081-6 .239-1.967 1.411-2.761 1.411-2.761s1.326.415 2.04-.372c0 0 .81-.887.552-1.97-.382-1.625-2.09-2.249-3.277-2.62-1.375-.43-5.277.957-6.166 3.51-.89 2.551-.712 5.103 0 6.766z" fill="#DBDBDB"/><path d="m34.874 37.603.244-.03c0-.017-.057-.47-.933-2.107-.853-1.598-1.438-5.04-1.307-6.213l-.245-.027c-.134 1.201.464 4.726 1.337 6.359.838 1.566.902 2 .904 2.018zM39.408 35.055l.228-.088c-.415-1.103-.965-4.527-.816-6.223.154-1.73.068-2.169.064-2.186l-.24.05s.08.443-.069 2.113c-.152 1.727.408 5.21.833 6.334z" fill="#DBDBDB"/><path d="M40.053 27.362c-.812.087-1.882.186-2.334.982-.38.803-.474 1.674-.608 2.54-.087.862-.25 1.742-.123 2.605.117.857.279 1.708.485 2.548-.087-.764-.24-1.815-.298-2.569-.077-.855.086-1.702.184-2.55.121-.833.217-1.715.533-2.488.163-.397.57-.575.94-.73a6.235 6.235 0 0 1 1.227-.338h-.006zM37.805 22.433c-1.209.595-2.586 1.302-3.238 2.574a10.417 10.417 0 0 0-.735 2.418c-.173 1.107-.392 2.254-.145 3.367a17.653 17.653 0 0 0 1.029 3.191 24.566 24.566 0 0 1-.844-3.227 5.504 5.504 0 0 1-.04-1.638c.103-1.104.315-2.195.632-3.257.423-1.674 1.948-2.617 3.341-3.434v.006z" fill="#C7C7C7"/><path d="M34.453 29.24c-.066 3.017 1.246 5.872 2.904 8.313-.171-.328-.344-.655-.504-.99-1.163-2.304-2.163-4.722-2.4-7.323zM42.654 25.015c-1.103-.997-2.785-1.6-4.203-.953-1.002.476-2.053 1.196-2.441 2.286a6.284 6.284 0 0 0-.269 1.098c.103-.36.23-.713.38-1.055.433-.997 1.488-1.652 2.425-2.102 1.37-.621 2.92-.082 4.108.726z" fill="#C7C7C7"/><path d="M39.526 35.488h20.49v-2.862h-20.49v2.862zM40.649 35.488h18.243l-.981 34.245H41.63l-.982-34.245z" fill="#FF6F00"/><path opacity=".2" d="m41.858 35.488.983 34.245h2.573l-.83-34.245h-2.726z" fill="#fff"/><path opacity=".1" d="m58.892 35.488-.04 1.427-18.183-.712-.02-.715h18.243zM41.63 69.733l-.038-1.35 16.339.632-.02.718H41.63z" fill="#000"/><path d="M39.834 40.443h19.709v-1.432H39.834v1.432z" fill="#FF6F00"/><path opacity=".3" d="M39.834 40.443h19.709v-1.432H39.834v1.432z" fill="#000"/><path d="M28.49 42.41h11.343v-1.433H28.49v1.432z" fill="#FF6F00"/><path opacity=".3" d="M28.49 42.41h11.343v-1.433H28.49v1.432z" fill="#000"/><path d="M28.49 55.089h11.343v-1.432H28.49v1.432z" fill="#FF6F00"/><path opacity=".3" d="M28.49 55.089h11.343v-1.432H28.49v1.432z" fill="#000"/><path d="M41.248 69.733v-30.72h-1.415v30.72h1.415z" fill="#FF6F00"/><path opacity=".3" d="M41.248 69.733v-30.72h-1.415v30.72h1.415z" fill="#000"/><path d="M28 71.66h32.326v-1.927H28v1.927z" fill="#FF6F00"/><path opacity=".3" d="M28 71.66h32.326v-1.927H28v1.927z" fill="#000"/><path d="M53.797 74.907c1.773 0 3.21-1.454 3.21-3.247 0-1.794-1.437-3.248-3.21-3.248-1.772 0-3.209 1.454-3.209 3.248 0 1.793 1.437 3.247 3.21 3.247z" fill="#FF6F00"/><path opacity=".4" d="M53.797 74.907c1.773 0 3.21-1.454 3.21-3.247 0-1.794-1.437-3.248-3.21-3.248-1.772 0-3.209 1.454-3.209 3.248 0 1.793 1.437 3.247 3.21 3.247z" fill="#000"/><path opacity=".4" d="M54.203 73.347a1.733 1.733 0 0 0 1.25-2.097 1.71 1.71 0 0 0-2.072-1.265 1.733 1.733 0 0 0-1.25 2.097 1.71 1.71 0 0 0 2.072 1.265z" fill="#000"/><path d="M32.352 74.907c1.773 0 3.21-1.454 3.21-3.247 0-1.794-1.438-3.248-3.21-3.248s-3.209 1.454-3.209 3.248c0 1.793 1.437 3.247 3.21 3.247z" fill="#FF6F00"/><path opacity=".4" d="M32.352 74.907c1.773 0 3.21-1.454 3.21-3.247 0-1.794-1.438-3.248-3.21-3.248s-3.209 1.454-3.209 3.248c0 1.793 1.437 3.247 3.21 3.247z" fill="#000"/><path opacity=".4" d="M33.562 72.886a1.746 1.746 0 0 0 0-2.45 1.697 1.697 0 0 0-2.42 0 1.746 1.746 0 0 0 0 2.45 1.697 1.697 0 0 0 2.42 0z" fill="#000"/><path d="M30.604 38.077a.196.196 0 0 0-.139.059.2.2 0 0 0-.057.14v1.955h.393v-1.955a.2.2 0 0 0-.058-.14.195.195 0 0 0-.139-.059zM31.075 38.077a.196.196 0 0 0-.14.059.2.2 0 0 0-.057.14v1.955h.393v-1.955a.2.2 0 0 0-.057-.14.196.196 0 0 0-.14-.059zM31.545 38.077a.196.196 0 0 0-.139.059.2.2 0 0 0-.057.14v1.955h.393v-1.955a.2.2 0 0 0-.058-.14.195.195 0 0 0-.139-.059zM32.014 38.077a.196.196 0 0 0-.139.059.2.2 0 0 0-.058.14v1.955h.394v-1.955a.2.2 0 0 0-.058-.14.195.195 0 0 0-.139-.059zM32.485 38.077a.196.196 0 0 0-.14.059.2.2 0 0 0-.057.14v1.955h.393v-1.955a.2.2 0 0 0-.057-.14.196.196 0 0 0-.14-.059zM32.955 38.077a.196.196 0 0 0-.139.059.2.2 0 0 0-.058.14v1.955h.394v-1.955a.2.2 0 0 0-.058-.14.195.195 0 0 0-.139-.059zM33.426 38.077a.196.196 0 0 0-.14.059.2.2 0 0 0-.057.14v1.955h.391v-1.955a.2.2 0 0 0-.056-.14.196.196 0 0 0-.138-.059zM33.894 38.077a.196.196 0 0 0-.139.059.2.2 0 0 0-.057.14v1.955h.393v-1.955a.2.2 0 0 0-.058-.14.196.196 0 0 0-.139-.059zM34.365 38.077a.196.196 0 0 0-.137.06.2.2 0 0 0-.056.14v1.954h.393v-1.955a.202.202 0 0 0-.124-.185.194.194 0 0 0-.076-.014zM34.835 38.077a.196.196 0 0 0-.139.059.2.2 0 0 0-.057.14v1.955h.393v-1.955a.2.2 0 0 0-.058-.14.196.196 0 0 0-.139-.059zM35.306 38.077a.193.193 0 0 0-.182.123.198.198 0 0 0-.015.076v1.955h.392v-1.955a.202.202 0 0 0-.057-.14.194.194 0 0 0-.138-.059zM35.775 38.077a.195.195 0 0 0-.14.059.2.2 0 0 0-.057.14v1.955h.393v-1.955a.2.2 0 0 0-.057-.14.196.196 0 0 0-.14-.059zM36.245 38.077a.196.196 0 0 0-.14.059.2.2 0 0 0-.057.14v1.955h.394v-1.955a.2.2 0 0 0-.058-.14.196.196 0 0 0-.139-.059z" fill="#EBEBEB"/><path d="M36.73 39.485h-6.565v1.492h6.565v-1.492zM35.82 45.251h1.818v-2.213h-1.817v2.213z" fill="#FF6F00"/><path d="M33.507 53.657h3.83a.791.791 0 0 0 .56-.237.81.81 0 0 0 .232-.569v-7.626a.814.814 0 0 0-.489-.744.714.714 0 0 0-.303-.063h-1.182a2.082 2.082 0 0 0-1.454.585c-.308.297-.52.682-.606 1.104l-1.37 6.577a.815.815 0 0 0 .438.895.79.79 0 0 0 .344.078zm2.021-6.324-.568 2.626a.573.573 0 0 1-.246.355.56.56 0 0 1-.62-.008.554.554 0 0 1-.23-.363.563.563 0 0 1 .005-.22l.575-2.632a.56.56 0 0 1 .192-.319.547.547 0 0 1 .816.137.56.56 0 0 1 .07.424h.006z" fill="#37474F"/><path d="M37.081 45.508h-.704a.432.432 0 0 0-.352.176.443.443 0 0 0-.069.391c.128.443.146.91.054 1.362-.235 1.358-.563 3.047-.671 3.268-.09.186-.52.53-1.184.346a.44.44 0 0 0-.551.32l-.149.621a.45.45 0 0 0 .234.503c.06.03.124.045.19.046h3.197a.437.437 0 0 0 .31-.13.448.448 0 0 0 .129-.315v-6.138a.448.448 0 0 0-.266-.414.437.437 0 0 0-.168-.036z" fill="#fff"/><path d="M33.262 53.657s1.112-3.032.67-4.5c-.297-.984-1.758-1.64-1.758-2.684v-1.138H30.91s-2.195 4.635-.368 8.322h2.72z" fill="#FF6F00"/><path d="M30.96 45.913h1.405c.048 0 .087-.039.087-.087v-.21a.087.087 0 0 0-.087-.087h-1.404a.087.087 0 0 0-.086.087v.21c0 .048.038.087.086.087zM30.96 46.297h1.405c.048 0 .087-.04.087-.088V46a.087.087 0 0 0-.087-.087h-1.404a.087.087 0 0 0-.086.087v.21c0 .049.038.088.086.088z" fill="#FF6F00"/><path d="M30.96 46.68h1.405c.048 0 .087-.04.087-.088v-.21a.087.087 0 0 0-.087-.087h-1.404a.087.087 0 0 0-.086.087v.21c0 .049.038.088.086.088z" fill="#FF6F00"/><path d="M33.07 43.676a.937.937 0 0 0-.185.575c.028.292.16.558.116.584a.891.891 0 0 1-.485-.616.941.941 0 0 1 .035-.543h.518z" fill="#263238"/><path d="M30.785 45.129v-.787a.425.425 0 0 0-.423-.363c-.467 0-1.035.558-1.06.372-.026-.186.29-1.614 1.394-1.614h2.61v.94h-.531c-.118 0-.504.073-.504.648v.805l-1.486-.001z" fill="#DBDBDB"/><path d="M30.718 45.495h1.62c.05 0 .09-.04.09-.091v-.67a.09.09 0 0 0-.09-.09h-1.62a.09.09 0 0 0-.09.09v.67c0 .05.04.091.09.091z" fill="#263238"/><path d="M33.306 42.605v1.201l.487-.106v-.99l-.487-.105z" fill="#FF6F00"/><path d="M31.523 47.312c-.794 0-1.262 1.144-1.262 2.697.003.777.094 1.552.27 2.309a.528.528 0 0 0 .509.407h1.693a.518.518 0 0 0 .505-.39c.212-.802.61-2.605.125-3.302-.649-.93-1.204-1.15-1.439-1.72h-.4z" fill="#fff"/><path d="m78.605 65.06.256-1.132.255 1.133 1.121.277-1.124.212-.252 1.2-.252-1.2-1.125-.21 1.121-.28zM35.413 51.67l1.125.21.252 1.202.25-1.202 1.125-.21-1.12-.277-.255-1.133-.257 1.133-1.12.277zm62.504 9.041 1.124.21.252 1.2.252-1.2 1.125-.21-1.121-.277-.256-1.134-.255 1.134-1.121.277zM57.248 85.24l1.125.21.25 1.202.252-1.202L60 85.24l-1.12-.277-.25-1.133-.255 1.133-1.127.277zm18.819-22.973.629.117.14.672.14-.672.63-.117-.627-.156-.144-.632-.143.632-.625.156zm-34.38-18.414.628.117.142.67.14-.67.628-.119-.627-.154-.142-.632-.143.632-.627.156zm23.115 41.928.629.117.14.672.141-.671.629-.118-.627-.156-.144-.632-.143.632-.625.156zm9.412-3.813.629.117.141.672.14-.672.629-.117-.625-.156-.144-.632-.143.632-.627.156zm27.834-30.002.629.118.141.671.14-.671.629-.117-.625-.155-.144-.634-.143.634-.627.155zm-22.56 8.785a.21.21 0 0 0 .136-.069.215.215 0 0 0-.137-.357.21.21 0 0 0-.136.07.215.215 0 0 0 .136.356zM99.616 70.84a.21.21 0 0 0 .136-.069.215.215 0 0 0 0-.288.21.21 0 0 0-.136-.069.21.21 0 0 0-.137.069.215.215 0 0 0 .137.357zM34.46 52.926a.21.21 0 0 0 .137-.069.215.215 0 0 0-.136-.357.21.21 0 0 0-.137.07.215.215 0 0 0 .136.356zm7.52-11.275a.21.21 0 0 0 .136-.069.215.215 0 0 0 0-.288.21.21 0 0 0-.136-.069.21.21 0 0 0-.137.069.215.215 0 0 0 0 .288.21.21 0 0 0 .136.069zM60.1 81.957c.04 0 .077-.016.105-.044a.152.152 0 0 0 0-.213.148.148 0 0 0-.21 0 .152.152 0 0 0 .105.257zm3.395 5.18c.039 0 .077-.016.105-.044a.151.151 0 0 0-.105-.257.151.151 0 0 0-.004.301h.004zm14.14-4.378c.04 0 .078-.016.106-.044a.152.152 0 0 0-.105-.258.148.148 0 0 0-.106.043.152.152 0 0 0 .102.259h.004zm-.797-9.349c.04 0 .077-.015.105-.044a.151.151 0 0 0-.105-.257.148.148 0 0 0-.106.043.152.152 0 0 0-.002.213.148.148 0 0 0 .104.046h.004zm24.491-22.98a.149.149 0 0 0 .148-.15.148.148 0 1 0-.297 0 .15.15 0 0 0 .149.15zm-62.064 2.807c.04 0 .077-.016.105-.044a.152.152 0 0 0 0-.213.148.148 0 0 0-.254.106c0 .04.016.078.044.107a.148.148 0 0 0 .105.044z" fill="#FF6F00"/><path opacity=".8" d="m78.605 65.06.256-1.132.255 1.133 1.121.277-1.124.212-.252 1.2-.252-1.2-1.125-.21 1.121-.28zM35.413 51.67l1.125.21.252 1.202.25-1.202 1.125-.21-1.12-.277-.255-1.133-.257 1.133-1.12.277zm62.504 9.041 1.124.21.252 1.2.252-1.2 1.125-.21-1.121-.277-.256-1.134-.255 1.134-1.121.277zM57.248 85.24l1.125.21.25 1.202.252-1.202L60 85.24l-1.12-.277-.25-1.133-.255 1.133-1.127.277zm18.819-22.973.629.117.14.672.14-.672.63-.117-.627-.156-.144-.632-.143.632-.625.156zm-34.38-18.414.628.117.142.67.14-.67.628-.119-.627-.154-.142-.632-.143.632-.627.156zm23.115 41.928.629.117.14.672.141-.671.629-.118-.627-.156-.144-.632-.143.632-.625.156zm9.412-3.813.629.117.141.672.14-.672.629-.117-.625-.156-.144-.632-.143.632-.627.156zm27.834-30.002.629.118.141.671.14-.671.629-.117-.625-.155-.144-.634-.143.634-.627.155zm-22.56 8.785a.21.21 0 0 0 .136-.069.215.215 0 0 0-.137-.357.21.21 0 0 0-.136.07.215.215 0 0 0 .136.356zM99.616 70.84a.21.21 0 0 0 .136-.069.215.215 0 0 0 0-.288.21.21 0 0 0-.136-.069.21.21 0 0 0-.137.069.215.215 0 0 0 .137.357zM34.46 52.926a.21.21 0 0 0 .137-.069.215.215 0 0 0-.136-.357.21.21 0 0 0-.137.07.215.215 0 0 0 .136.356zm7.52-11.275a.21.21 0 0 0 .136-.069.215.215 0 0 0 0-.288.21.21 0 0 0-.136-.069.21.21 0 0 0-.137.069.215.215 0 0 0 0 .288.21.21 0 0 0 .136.069zM60.1 81.957c.04 0 .077-.016.105-.044a.152.152 0 0 0 0-.213.148.148 0 0 0-.21 0 .152.152 0 0 0 .105.257zm3.395 5.18c.039 0 .077-.016.105-.044a.151.151 0 0 0-.105-.257.151.151 0 0 0-.004.301h.004zm14.14-4.378c.04 0 .078-.016.106-.044a.152.152 0 0 0-.105-.258.148.148 0 0 0-.106.043.152.152 0 0 0 .102.259h.004zm-.797-9.349c.04 0 .077-.015.105-.044a.151.151 0 0 0-.105-.257.148.148 0 0 0-.106.043.152.152 0 0 0-.002.213.148.148 0 0 0 .104.046h.004zm24.491-22.98a.149.149 0 0 0 .148-.15.148.148 0 1 0-.297 0 .15.15 0 0 0 .149.15zm-62.064 2.807c.04 0 .077-.016.105-.044a.152.152 0 0 0 0-.213.148.148 0 0 0-.254.106c0 .04.016.078.044.107a.148.148 0 0 0 .105.044z" fill="#fff"/></g><defs><clipPath id="a"><path fill="#fff" d="M0 0h93v93H0z"/></clipPath></defs></svg>