<svg width="95" height="95" fill="none" xmlns="http://www.w3.org/2000/svg"><path d="M73.574 56.732V16.625l-.897-.523-10.68 6.17-.44.26-8.444 15.147-29.372 16.97v29.49l.894.837 48.939-28.244z" fill="#F0F0F0"/><path d="m67.346 56.204 6.231-3.597.434.251v4.108l-6.23 3.596-.436-.248v-4.11z" fill="#FF6F00"/><path opacity=".1" d="m67.346 56.204 6.231-3.597.434.251v4.108l-6.23 3.596-.436-.248v-4.11z" fill="#000"/><path d="m74.01 56.966-6.23 3.596v-4.107l6.23-3.597v4.108z" fill="#FF6F00"/><path opacity=".25" d="m74.01 56.966-6.23 3.596v-4.107l6.23-3.597v4.108z" fill="#fff"/><path opacity=".1" d="m67.346 56.204.435.25v4.108l-.436-.248v-4.11z" fill="#000"/><path d="m60.23 60.314 6.23-3.599.433.25v4.11l-6.23 3.597-.433-.25v-4.108z" fill="#FF6F00"/><path opacity=".1" d="m60.23 60.314 6.23-3.599.433.25v4.11l-6.23 3.597-.433-.25v-4.108z" fill="#000"/><path d="m66.893 61.075-6.23 3.597v-4.11l6.23-3.596v4.11z" fill="#FF6F00"/><path opacity=".25" d="m66.893 61.075-6.23 3.597v-4.11l6.23-3.596v4.11z" fill="#fff"/><path opacity=".1" d="m60.23 60.314.433.248v4.11l-.433-.25v-4.108z" fill="#000"/><path d="m53.113 64.421 6.23-3.596.435.25v4.108l-6.23 3.599-.435-.25v-4.11z" fill="#FF6F00"/><path opacity=".1" d="m53.113 64.421 6.23-3.596.435.25v4.108l-6.23 3.599-.435-.25v-4.11z" fill="#000"/><path d="m59.778 65.183-6.23 3.599v-4.11l6.23-3.596v4.107z" fill="#FF6F00"/><path opacity=".25" d="m59.778 65.183-6.23 3.599v-4.11l6.23-3.596v4.107z" fill="#fff"/><path opacity=".1" d="m53.113 64.421.435.251v4.11l-.435-.25v-4.11z" fill="#000"/><path d="m45.995 68.531 6.23-3.599.435.251v4.11l-6.23 3.597-.435-.251V68.53z" fill="#FF6F00"/><path opacity=".1" d="m45.995 68.531 6.23-3.599.435.251v4.11l-6.23 3.597-.435-.251V68.53z" fill="#000"/><path d="m52.66 69.293-6.23 3.597v-4.108l6.23-3.599v4.11z" fill="#FF6F00"/><path opacity=".25" d="m52.66 69.293-6.23 3.597v-4.108l6.23-3.599v4.11z" fill="#fff"/><path opacity=".1" d="m45.995 68.531.435.25v4.109l-.435-.251V68.53z" fill="#000"/><path d="m38.88 72.639 6.23-3.597.433.251v4.108l-6.23 3.598-.433-.25v-4.11z" fill="#FF6F00"/><path opacity=".1" d="m38.88 72.639 6.23-3.597.433.251v4.108l-6.23 3.598-.433-.25v-4.11z" fill="#000"/><path d="m45.543 73.4-6.23 3.6v-4.11l6.23-3.597v4.108z" fill="#FF6F00"/><path opacity=".25" d="m45.543 73.4-6.23 3.6v-4.11l6.23-3.597v4.108z" fill="#fff"/><path opacity=".1" d="m38.88 72.639.433.25V77l-.433-.25v-4.11z" fill="#000"/><path d="m31.762 76.749 6.23-3.599.436.253v4.107l-6.23 3.597-.436-.25v-4.108z" fill="#FF6F00"/><path opacity=".1" d="m31.762 76.749 6.23-3.599.436.253v4.107l-6.23 3.597-.436-.25v-4.108z" fill="#000"/><path d="m38.428 77.51-6.23 3.597V77l6.23-3.598v4.11z" fill="#FF6F00"/><path opacity=".25" d="m38.428 77.51-6.23 3.597V77l6.23-3.598v4.11z" fill="#fff"/><path opacity=".1" d="m31.762 76.749.435.25v4.108l-.435-.25v-4.108z" fill="#000"/><path d="m24.645 80.856 6.23-3.596.435.25v4.11l-6.23 3.597-.435-.25v-4.11z" fill="#FF6F00"/><path opacity=".1" d="m24.645 80.856 6.23-3.596.435.25v4.11l-6.23 3.597-.435-.25v-4.11z" fill="#000"/><path d="m31.31 81.62-6.23 3.597v-4.11l6.23-3.597v4.11z" fill="#FF6F00"/><path opacity=".25" d="m31.31 81.62-6.23 3.597v-4.11l6.23-3.597v4.11z" fill="#fff"/><path opacity=".1" d="m24.645 80.856.435.251v4.11l-.435-.25v-4.11z" fill="#000"/><path d="M25.08 81.105v4.112l-1.775-1.03v-4.113l1.775 1.031z" fill="#FF6F00"/><path opacity=".2" d="M25.08 81.105v4.112l-1.775-1.03v-4.113l1.775 1.031z" fill="#000"/><path d="m23.74 79.823 1.773 1.033-.433.251-1.775-1.033.436-.251z" fill="#FF6F00"/><path opacity=".1" d="m23.74 79.823 1.773 1.033-.433.251-1.775-1.033.436-.251z" fill="#000"/><path d="m24.647 75.717 2.219-1.284.433.25v4.108l-2.219 1.286-.433-.25v-4.11z" fill="#FF6F00"/><path opacity=".1" d="m24.647 75.717 2.219-1.284.433.25v4.108l-2.219 1.286-.433-.25v-4.11z" fill="#000"/><path d="m27.3 78.791-2.22 1.286V75.97l2.22-1.287v4.108z" fill="#FF6F00"/><path opacity=".25" d="m27.3 78.791-2.22 1.286V75.97l2.22-1.287v4.108z" fill="#fff"/><path opacity=".1" d="m24.647 75.717.433.253v4.107l-.433-.25v-4.11z" fill="#000"/><path d="m63.337 53.386 6.23-3.597.435.251v4.11l-6.232 3.597-.434-.251v-4.11z" fill="#FF6F00"/><path opacity=".1" d="m63.337 53.386 6.23-3.597.435.251v4.11l-6.232 3.597-.434-.251v-4.11z" fill="#000"/><path d="m70.002 54.15-6.232 3.597v-4.11l6.232-3.597v4.11z" fill="#FF6F00"/><path opacity=".25" d="m70.002 54.15-6.232 3.597v-4.11l6.232-3.597v4.11z" fill="#fff"/><path opacity=".1" d="m63.337 53.386.433.251v4.11l-.434-.251v-4.11z" fill="#000"/><path d="m56.22 57.496 6.23-3.597.434.251v4.108l-6.23 3.598-.435-.252v-4.108z" fill="#FF6F00"/><path opacity=".1" d="m56.22 57.496 6.23-3.597.434.251v4.108l-6.23 3.598-.435-.252v-4.108z" fill="#000"/><path d="m62.884 58.258-6.23 3.598v-4.11l6.23-3.596v4.108z" fill="#FF6F00"/><path opacity=".25" d="m62.884 58.258-6.23 3.598v-4.11l6.23-3.596v4.108z" fill="#fff"/><path opacity=".1" d="m56.22 57.496.434.25v4.11l-.435-.252v-4.108z" fill="#000"/><path d="m49.102 61.604 6.232-3.597.433.25v4.11l-6.23 3.597-.435-.25v-4.11z" fill="#FF6F00"/><path opacity=".1" d="m49.102 61.604 6.232-3.597.433.25v4.11l-6.23 3.597-.435-.25v-4.11z" fill="#000"/><path d="m55.767 62.367-6.23 3.597v-4.108l6.23-3.598v4.11z" fill="#FF6F00"/><path opacity=".25" d="m55.767 62.367-6.23 3.597v-4.108l6.23-3.598v4.11z" fill="#fff"/><path opacity=".1" d="m49.102 61.604.435.252v4.108l-.435-.25v-4.11z" fill="#000"/><path d="m41.984 65.713 6.232-3.596.435.25v4.108l-6.232 3.599-.435-.25v-4.11z" fill="#FF6F00"/><path opacity=".1" d="m41.984 65.713 6.232-3.596.435.25v4.108l-6.232 3.599-.435-.25v-4.11z" fill="#000"/><path d="m48.651 66.475-6.232 3.599v-4.11l6.232-3.596v4.107z" fill="#FF6F00"/><path opacity=".25" d="m48.651 66.475-6.232 3.599v-4.11l6.232-3.596v4.107z" fill="#fff"/><path opacity=".1" d="m41.984 65.713.435.251v4.11l-.435-.25v-4.11z" fill="#000"/><path d="m34.869 69.823 6.23-3.598.435.25v4.11l-6.23 3.597-.435-.251v-4.108z" fill="#FF6F00"/><path opacity=".1" d="m34.869 69.823 6.23-3.598.435.25v4.11l-6.23 3.597-.435-.251v-4.108z" fill="#000"/><path d="m41.534 70.585-6.23 3.597v-4.108l6.23-3.599v4.11z" fill="#FF6F00"/><path opacity=".25" d="m41.534 70.585-6.23 3.597v-4.108l6.23-3.599v4.11z" fill="#fff"/><path opacity=".1" d="m34.869 69.823.435.25v4.109l-.435-.251v-4.108z" fill="#000"/><path d="m27.751 73.93 6.23-3.596.436.251v4.11l-6.23 3.596-.436-.25v-4.11z" fill="#FF6F00"/><path opacity=".1" d="m27.751 73.93 6.23-3.596.436.251v4.11l-6.23 3.596-.436-.25v-4.11z" fill="#000"/><path d="m34.417 74.695-6.23 3.596v-4.11l6.23-3.596v4.11z" fill="#FF6F00"/><path opacity=".25" d="m34.417 74.695-6.23 3.596v-4.11l6.23-3.596v4.11z" fill="#fff"/><path opacity=".1" d="m27.751 73.93.435.252v4.11l-.435-.251v-4.11z" fill="#000"/><path d="m70.452 49.278 3.116-1.799.435.25v4.11l-3.116 1.798-.435-.25v-4.109z" fill="#FF6F00"/><path opacity=".1" d="m70.452 49.278 3.116-1.799.435.25v4.11l-3.116 1.798-.435-.25v-4.109z" fill="#000"/><path d="m74.003 51.84-3.116 1.797v-4.108l3.116-1.8v4.11z" fill="#FF6F00"/><path opacity=".25" d="m74.003 51.84-3.116 1.797v-4.108l3.116-1.8v4.11z" fill="#fff"/><path opacity=".1" d="m70.452 49.278.435.251v4.108l-.435-.25v-4.109z" fill="#000"/><path d="M25.08 75.966v4.111l-1.773-1.03v-4.113l1.773 1.032z" fill="#FF6F00"/><path opacity=".2" d="M25.08 75.966v4.111l-1.773-1.03v-4.113l1.773 1.032z" fill="#000"/><path d="m23.74 74.683 1.775 1.034-.435.253-1.773-1.036.434-.25z" fill="#FF6F00"/><path opacity=".1" d="m23.74 74.683 1.775 1.034-.435.253-1.773-1.036.434-.25z" fill="#000"/><path d="m67.346 45.93 6.231-3.596.434.25v4.11l-6.23 3.597-.436-.25v-4.11z" fill="#FF6F00"/><path opacity=".1" d="m67.346 45.93 6.231-3.596.434.25v4.11l-6.23 3.597-.436-.25v-4.11z" fill="#000"/><path d="m74.01 46.694-6.23 3.597v-4.11l6.23-3.596v4.11z" fill="#FF6F00"/><path opacity=".25" d="m74.01 46.694-6.23 3.597v-4.11l6.23-3.596v4.11z" fill="#fff"/><path opacity=".1" d="m67.346 45.93.435.251v4.11l-.436-.25v-4.11z" fill="#000"/><path d="m60.23 50.04 6.23-3.596.433.25v4.108l-6.23 3.599-.433-.251v-4.11z" fill="#FF6F00"/><path opacity=".1" d="m60.23 50.04 6.23-3.596.433.25v4.108l-6.23 3.599-.433-.251v-4.11z" fill="#000"/><path d="m66.893 50.802-6.23 3.599v-4.11l6.23-3.597v4.108z" fill="#FF6F00"/><path opacity=".25" d="m66.893 50.802-6.23 3.599v-4.11l6.23-3.597v4.108z" fill="#fff"/><path opacity=".1" d="m60.23 50.04.433.251v4.11l-.433-.251v-4.11z" fill="#000"/><path d="m53.113 54.15 6.23-3.599.435.251v4.11l-6.23 3.597-.435-.251V54.15z" fill="#FF6F00"/><path opacity=".1" d="m53.113 54.15 6.23-3.599.435.251v4.11l-6.23 3.597-.435-.251V54.15z" fill="#000"/><path d="m59.778 54.912-6.23 3.597V54.4l6.23-3.599v4.11z" fill="#FF6F00"/><path opacity=".25" d="m59.778 54.912-6.23 3.597V54.4l6.23-3.599v4.11z" fill="#fff"/><path opacity=".1" d="m53.113 54.15.435.25v4.109l-.435-.251V54.15z" fill="#000"/><path d="m45.995 58.258 6.23-3.597.435.25v4.109l-6.23 3.598-.435-.25v-4.11z" fill="#FF6F00"/><path opacity=".1" d="m45.995 58.258 6.23-3.597.435.25v4.109l-6.23 3.598-.435-.25v-4.11z" fill="#000"/><path d="m52.66 59.02-6.23 3.598v-4.11l6.23-3.596v4.108z" fill="#FF6F00"/><path opacity=".25" d="m52.66 59.02-6.23 3.598v-4.11l6.23-3.596v4.108z" fill="#fff"/><path opacity=".1" d="m45.995 58.258.435.25v4.11l-.435-.25v-4.11z" fill="#000"/><path d="m38.88 62.367 6.23-3.598.433.25v4.11l-6.23 3.597-.433-.25v-4.108z" fill="#FF6F00"/><path opacity=".1" d="m38.88 62.367 6.23-3.598.433.25v4.11l-6.23 3.597-.433-.25v-4.108z" fill="#000"/><path d="m45.543 63.13-6.23 3.596v-4.108l6.23-3.598v4.11z" fill="#FF6F00"/><path opacity=".25" d="m45.543 63.13-6.23 3.596v-4.108l6.23-3.598v4.11z" fill="#fff"/><path opacity=".1" d="m38.88 62.367.433.251v4.108l-.433-.25v-4.108z" fill="#000"/><path d="m31.762 66.475 6.23-3.596.436.25v4.11l-6.23 3.597-.436-.251v-4.11z" fill="#FF6F00"/><path opacity=".1" d="m31.762 66.475 6.23-3.596.436.25v4.11l-6.23 3.597-.436-.251v-4.11z" fill="#000"/><path d="m38.428 67.24-6.23 3.596v-4.11l6.23-3.597v4.11z" fill="#FF6F00"/><path opacity=".25" d="m38.428 67.24-6.23 3.596v-4.11l6.23-3.597v4.11z" fill="#fff"/><path opacity=".1" d="m31.762 66.475.435.251v4.11l-.435-.251v-4.11z" fill="#000"/><path d="m24.645 70.585 6.23-3.599.435.253v4.108l-6.23 3.597-.435-.251v-4.108z" fill="#FF6F00"/><path opacity=".1" d="m24.645 70.585 6.23-3.599.435.253v4.108l-6.23 3.597-.435-.251v-4.108z" fill="#000"/><path d="m31.31 71.347-6.23 3.597v-4.108l6.23-3.597v4.108z" fill="#FF6F00"/><path opacity=".25" d="m31.31 71.347-6.23 3.597v-4.108l6.23-3.597v4.108z" fill="#fff"/><path opacity=".1" d="m24.645 70.585.435.25v4.109l-.435-.251v-4.108z" fill="#000"/><path d="M25.08 70.832v4.112l-1.775-1.03v-4.112l1.775 1.03z" fill="#FF6F00"/><path opacity=".2" d="M25.08 70.832v4.112l-1.775-1.03v-4.112l1.775 1.03z" fill="#000"/><path d="m23.74 69.551 1.775 1.034-.435.25-1.775-1.033.436-.25z" fill="#FF6F00"/><path opacity=".1" d="m23.74 69.551 1.775 1.034-.435.25-1.775-1.033.436-.25z" fill="#000"/><path d="m24.647 65.432 2.219-1.286.433.253v4.107l-2.219 1.287-.433-.251v-4.11z" fill="#FF6F00"/><path opacity=".1" d="m24.647 65.432 2.219-1.286.433.253v4.107l-2.219 1.287-.433-.251v-4.11z" fill="#000"/><path d="m27.3 68.506-2.22 1.287v-4.11l2.22-1.284v4.107z" fill="#FF6F00"/><path opacity=".25" d="m27.3 68.506-2.22 1.287v-4.11l2.22-1.284v4.107z" fill="#fff"/><path opacity=".1" d="m24.647 65.432.433.251v4.11l-.433-.251v-4.11z" fill="#000"/><path d="m63.337 43.102 6.23-3.597.435.25v4.11l-6.232 3.597-.434-.25v-4.11z" fill="#FF6F00"/><path opacity=".1" d="m63.337 43.102 6.23-3.597.435.25v4.11l-6.232 3.597-.434-.25v-4.11z" fill="#000"/><path d="m70.002 43.865-6.232 3.597v-4.11l6.232-3.596v4.11z" fill="#FF6F00"/><path opacity=".25" d="m70.002 43.865-6.232 3.597v-4.11l6.232-3.596v4.11z" fill="#fff"/><path opacity=".1" d="m63.337 43.102.433.25v4.11l-.434-.25v-4.11z" fill="#000"/><path d="m56.22 47.211 6.23-3.598.434.252v4.108l-6.23 3.597-.435-.251v-4.108z" fill="#FF6F00"/><path opacity=".1" d="m56.22 47.211 6.23-3.598.434.252v4.108l-6.23 3.597-.435-.251v-4.108z" fill="#000"/><path d="m62.884 47.973-6.23 3.597v-4.108l6.23-3.597v4.108z" fill="#FF6F00"/><path opacity=".25" d="m62.884 47.973-6.23 3.597v-4.108l6.23-3.597v4.108z" fill="#fff"/><path opacity=".1" d="m56.22 47.211.434.251v4.108l-.435-.251v-4.108z" fill="#000"/><path d="m49.102 51.319 6.232-3.597.433.251v4.11l-6.23 3.596-.435-.25v-4.11z" fill="#FF6F00"/><path opacity=".1" d="m49.102 51.319 6.232-3.597.433.251v4.11l-6.23 3.596-.435-.25v-4.11z" fill="#000"/><path d="m55.767 52.083-6.23 3.596v-4.11l6.23-3.596v4.11z" fill="#FF6F00"/><path opacity=".25" d="m55.767 52.083-6.23 3.596v-4.11l6.23-3.596v4.11z" fill="#fff"/><path opacity=".1" d="m49.102 51.319.435.25v4.11l-.435-.25v-4.11z" fill="#000"/><path d="m41.984 55.429 6.232-3.597.435.25v4.109l-6.232 3.598-.435-.25v-4.11z" fill="#FF6F00"/><path opacity=".1" d="m41.984 55.429 6.232-3.597.435.25v4.109l-6.232 3.598-.435-.25v-4.11z" fill="#000"/><path d="m48.651 56.19-6.232 3.6v-4.11l6.232-3.597v4.108z" fill="#FF6F00"/><path opacity=".25" d="m48.651 56.19-6.232 3.6v-4.11l6.232-3.597v4.108z" fill="#fff"/><path opacity=".1" d="m41.984 55.429.435.25v4.11l-.435-.25v-4.11z" fill="#000"/><path d="m34.869 59.538 6.23-3.598.435.25v4.11l-6.23 3.597-.435-.25v-4.109z" fill="#FF6F00"/><path opacity=".1" d="m34.869 59.538 6.23-3.598.435.25v4.11l-6.23 3.597-.435-.25v-4.109z" fill="#000"/><path d="m41.534 60.3-6.23 3.597v-4.108l6.23-3.598v4.11z" fill="#FF6F00"/><path opacity=".25" d="m41.534 60.3-6.23 3.597v-4.108l6.23-3.598v4.11z" fill="#fff"/><path opacity=".1" d="m34.869 59.538.435.251v4.108l-.435-.25v-4.109z" fill="#000"/><path d="m27.751 63.646 6.23-3.596.436.25v4.108l-6.23 3.599-.436-.251v-4.11z" fill="#FF6F00"/><path opacity=".1" d="m27.751 63.646 6.23-3.596.436.25v4.108l-6.23 3.599-.436-.251v-4.11z" fill="#000"/><path d="m34.417 64.408-6.23 3.599v-4.11l6.23-3.597v4.108z" fill="#FF6F00"/><path opacity=".25" d="m34.417 64.408-6.23 3.599v-4.11l6.23-3.597v4.108z" fill="#fff"/><path opacity=".1" d="m27.751 63.646.435.251v4.11l-.435-.251v-4.11z" fill="#000"/><path d="m70.452 38.994 3.116-1.8.435.251v4.11l-3.116 1.797-.435-.25v-4.108z" fill="#FF6F00"/><path opacity=".1" d="m70.452 38.994 3.116-1.8.435.251v4.11l-3.116 1.797-.435-.25v-4.108z" fill="#000"/><path d="m74.003 41.555-3.116 1.797v-4.107l3.116-1.8v4.11z" fill="#FF6F00"/><path opacity=".25" d="m74.003 41.555-3.116 1.797v-4.107l3.116-1.8v4.11z" fill="#fff"/><path opacity=".1" d="m70.452 38.994.435.25v4.108l-.435-.25v-4.108z" fill="#000"/><path d="M25.08 65.681v4.112l-1.773-1.03v-4.114l1.773 1.032z" fill="#FF6F00"/><path opacity=".2" d="M25.08 65.681v4.112l-1.773-1.03v-4.114l1.773 1.032z" fill="#000"/><path d="m23.74 64.399 1.775 1.033-.435.251-1.773-1.034.434-.25z" fill="#FF6F00"/><path opacity=".1" d="m23.74 64.399 1.775 1.033-.435.251-1.773-1.034.434-.25z" fill="#000"/><path d="m67.346 35.66 6.231-3.597.434.25v4.11l-6.23 3.597-.436-.251v-4.11z" fill="#FF6F00"/><path opacity=".1" d="m67.346 35.66 6.231-3.597.434.25v4.11l-6.23 3.597-.436-.251v-4.11z" fill="#000"/><path d="m74.01 36.423-6.23 3.597v-4.11l6.23-3.597v4.11z" fill="#FF6F00"/><path opacity=".25" d="m74.01 36.423-6.23 3.597v-4.11l6.23-3.597v4.11z" fill="#fff"/><path opacity=".1" d="m67.346 35.66.435.25v4.11l-.436-.251v-4.11z" fill="#000"/><path d="m60.23 39.769 6.23-3.597.433.251v4.108l-6.23 3.596-.433-.25v-4.108z" fill="#FF6F00"/><path opacity=".1" d="m60.23 39.769 6.23-3.597.433.251v4.108l-6.23 3.596-.433-.25v-4.108z" fill="#000"/><path d="m66.893 40.53-6.23 3.597V40.02l6.23-3.597v4.108z" fill="#FF6F00"/><path opacity=".25" d="m66.893 40.53-6.23 3.597V40.02l6.23-3.597v4.108z" fill="#fff"/><path opacity=".1" d="m60.23 39.769.433.25v4.108l-.433-.25v-4.108z" fill="#000"/><path d="m53.113 43.877 6.23-3.597.435.25v4.11l-6.23 3.597-.435-.25v-4.11z" fill="#FF6F00"/><path opacity=".1" d="m53.113 43.877 6.23-3.597.435.25v4.11l-6.23 3.597-.435-.25v-4.11z" fill="#000"/><path d="m59.778 44.64-6.23 3.597v-4.11l6.23-3.596v4.11z" fill="#FF6F00"/><path opacity=".25" d="m59.778 44.64-6.23 3.597v-4.11l6.23-3.596v4.11z" fill="#fff"/><path opacity=".1" d="m53.113 43.877.435.25v4.11l-.435-.25v-4.11z" fill="#000"/><path d="m45.995 47.986 6.23-3.596.435.25v4.108l-6.23 3.599-.435-.25v-4.11z" fill="#FF6F00"/><path opacity=".1" d="m45.995 47.986 6.23-3.596.435.25v4.108l-6.23 3.599-.435-.25v-4.11z" fill="#000"/><path d="m52.66 48.748-6.23 3.599v-4.11l6.23-3.596v4.107z" fill="#FF6F00"/><path opacity=".25" d="m52.66 48.748-6.23 3.599v-4.11l6.23-3.596v4.107z" fill="#fff"/><path opacity=".1" d="m45.995 47.986.435.251v4.11l-.435-.25v-4.11z" fill="#000"/><path d="m38.88 52.096 6.23-3.598.433.25v4.11l-6.23 3.597-.433-.251v-4.108z" fill="#FF6F00"/><path opacity=".1" d="m38.88 52.096 6.23-3.598.433.25v4.11l-6.23 3.597-.433-.251v-4.108z" fill="#000"/><path d="m45.543 52.858-6.23 3.597v-4.108l6.23-3.599v4.11z" fill="#FF6F00"/><path opacity=".25" d="m45.543 52.858-6.23 3.597v-4.108l6.23-3.599v4.11z" fill="#fff"/><path opacity=".1" d="m38.88 52.096.433.25v4.109l-.433-.251v-4.108z" fill="#000"/><path d="m31.762 56.204 6.23-3.597.436.251v4.108l-6.23 3.598-.436-.25v-4.11z" fill="#FF6F00"/><path opacity=".1" d="m31.762 56.204 6.23-3.597.436.251v4.108l-6.23 3.598-.436-.25v-4.11z" fill="#000"/><path d="m38.428 56.966-6.23 3.598v-4.11l6.23-3.596v4.108z" fill="#FF6F00"/><path opacity=".25" d="m38.428 56.971-6.23 3.597V56.46l6.23-3.596v4.108z" fill="#fff"/><path opacity=".1" d="m31.762 56.204.435.25v4.11l-.435-.25v-4.11z" fill="#000"/><path d="m24.645 60.314 6.23-3.599.435.253v4.107l-6.23 3.597-.435-.25v-4.108z" fill="#FF6F00"/><path opacity=".1" d="m24.645 60.314 6.23-3.599.435.253v4.107l-6.23 3.597-.435-.25v-4.108z" fill="#000"/><path d="m31.31 61.075-6.23 3.597v-4.108l6.23-3.598v4.11z" fill="#FF6F00"/><path opacity=".25" d="m31.31 61.075-6.23 3.597v-4.108l6.23-3.598v4.11z" fill="#fff"/><path opacity=".1" d="m24.645 60.314.435.25v4.108l-.435-.25v-4.108z" fill="#000"/><path d="M25.08 60.56v4.112l-1.775-1.03v-4.111l1.775 1.03z" fill="#FF6F00"/><path opacity=".2" d="M25.08 60.56v4.112l-1.775-1.03v-4.111l1.775 1.03z" fill="#000"/><path d="m23.74 59.28 1.775 1.034-.435.25-1.775-1.033.436-.251z" fill="#FF6F00"/><path opacity=".1" d="m23.74 59.28 1.775 1.034-.435.25-1.775-1.033.436-.251z" fill="#000"/><path d="m70.452 28.707 3.116-1.797.435.25v4.108l-3.116 1.8-.435-.251v-4.11z" fill="#FF6F00"/><path opacity=".1" d="m70.452 28.707 3.116-1.797.435.25v4.108l-3.116 1.8-.435-.251v-4.11z" fill="#000"/><path d="m74.003 31.27-3.116 1.798V28.96l3.116-1.8v4.11z" fill="#FF6F00"/><path opacity=".25" d="m74.003 31.27-3.116 1.798V28.96l3.116-1.8v4.11z" fill="#fff"/><path opacity=".1" d="m70.452 28.707.435.253v4.108l-.435-.251v-4.11z" fill="#000"/><path d="m63.337 32.817 6.23-3.597.435.25v4.11l-6.232 3.597-.434-.25v-4.11z" fill="#FF6F00"/><path opacity=".1" d="m63.337 32.817 6.23-3.597.435.25v4.11l-6.232 3.597-.434-.25v-4.11z" fill="#000"/><path d="m70.002 33.58-6.232 3.597v-4.11l6.232-3.596v4.11z" fill="#FF6F00"/><path opacity=".25" d="m70.002 33.58-6.232 3.597v-4.11l6.232-3.596v4.11z" fill="#fff"/><path opacity=".1" d="m63.337 32.817.433.25v4.11l-.434-.25v-4.11z" fill="#000"/><path d="m56.22 36.926 6.23-3.598.434.253v4.107l-6.23 3.597-.435-.25v-4.108z" fill="#FF6F00"/><path opacity=".1" d="m56.22 36.926 6.23-3.598.434.253v4.107l-6.23 3.597-.435-.25v-4.108z" fill="#000"/><path d="m62.884 37.688-6.23 3.597v-4.108l6.23-3.596v4.107z" fill="#FF6F00"/><path opacity=".25" d="m62.884 37.688-6.23 3.597v-4.108l6.23-3.596v4.107z" fill="#fff"/><path opacity=".1" d="m56.22 36.926.434.251v4.108l-.435-.25v-4.108z" fill="#000"/><path d="m49.102 41.034 6.232-3.596.433.25v4.11l-6.23 3.597-.435-.251v-4.11z" fill="#FF6F00"/><path opacity=".1" d="m49.102 41.034 6.232-3.596.433.25v4.11l-6.23 3.597-.435-.251v-4.11z" fill="#000"/><path d="m55.767 41.798-6.23 3.597v-4.11l6.23-3.597v4.11z" fill="#FF6F00"/><path opacity=".25" d="m55.767 41.798-6.23 3.597v-4.11l6.23-3.597v4.11z" fill="#fff"/><path opacity=".1" d="m49.102 41.034.435.251v4.11l-.435-.251v-4.11z" fill="#000"/><path d="m53.994 36.655 1.773 1.033-6.23 3.597-1.775-1.033 6.232-3.597z" fill="#FF6F00"/><path d="M49.537 41.285v.515l-1.775-1.03v-.519l1.775 1.034z" fill="#FF6F00"/><path opacity=".2" d="M49.537 41.285v.515l-1.775-1.03v-.519l1.775 1.034z" fill="#000"/><path d="m24.647 55.155 2.219-1.288.433.25v4.11l-2.219 1.287-.433-.251v-4.108z" fill="#FF6F00"/><path d="m25.526 53.084 1.773 1.034-2.219 1.288-1.773-1.034 2.22-1.288zM27.3 58.227l-2.22 1.287v-4.108l2.22-1.288v4.11z" fill="#FF6F00"/><path opacity=".25" d="m27.3 58.227-2.22 1.287v-4.108l2.22-1.288v4.11z" fill="#fff"/><path opacity=".1" d="m24.647 55.155.433.25v4.109l-.433-.251v-4.108z" fill="#000"/><path d="m41.984 45.15 6.232-3.597.435.25v4.109L42.42 49.51l-.435-.252V45.15z" fill="#FF6F00"/><path d="m46.877 40.77 1.774 1.034L42.42 45.4l-1.772-1.033 6.23-3.597zM48.651 45.912 42.42 49.51V45.4l6.232-3.596v4.108z" fill="#FF6F00"/><path opacity=".25" d="M48.651 45.912 42.42 49.51V45.4l6.232-3.596v4.108z" fill="#fff"/><path opacity=".1" d="m41.984 45.15.435.25v4.11l-.435-.252V45.15z" fill="#000"/><path opacity=".1" d="m41.984 45.15.435.25v4.11l-.435-.252V45.15z" fill="#000"/><path d="M42.42 45.4v.515l-1.773-1.03v-.518l1.772 1.034z" fill="#FF6F00"/><path opacity=".2" d="M42.42 45.4v.515l-1.773-1.03v-.518l1.772 1.034z" fill="#000"/><path d="M25.08 55.402v4.112l-1.773-1.03v-4.112l1.773 1.03z" fill="#FF6F00"/><path opacity=".2" d="M25.08 55.402v4.112l-1.773-1.03v-4.112l1.773 1.03z" fill="#000"/><path d="m23.74 54.12 1.775 1.035-.435.25-1.773-1.033.434-.252zM34.869 49.258l6.23-3.597.435.25v4.11l-6.23 3.597-.435-.25v-4.11z" fill="#FF6F00"/><path d="m39.76 44.878 1.774 1.034-6.23 3.598-1.775-1.035 6.23-3.597zM41.534 50.021l-6.23 3.597V49.51l6.23-3.598v4.11z" fill="#FF6F00"/><path opacity=".25" d="m41.534 50.021-6.23 3.597V49.51l6.23-3.598v4.11z" fill="#fff"/><path opacity=".1" d="m34.869 49.258.435.252v4.108l-.435-.25v-4.11z" fill="#000"/><path opacity=".1" d="m34.869 49.258.435.252v4.108l-.435-.25v-4.11z" fill="#000"/><path d="M35.304 49.51v.515l-1.775-1.03v-.52l1.775 1.035z" fill="#FF6F00"/><path opacity=".2" d="M35.304 49.51v.515l-1.775-1.03v-.52l1.775 1.035z" fill="#000"/><path d="m27.751 53.367 6.23-3.596.436.25v4.108l-6.23 3.599-.436-.251v-4.11z" fill="#FF6F00"/><path d="m32.642 48.988 1.775 1.033-6.23 3.597-1.775-1.034 6.23-3.596z" fill="#FF6F00"/><path d="m34.417 54.13-6.23 3.598v-4.11l6.23-3.597v4.108z" fill="#FF6F00"/><path opacity=".25" d="m34.417 54.13-6.23 3.598v-4.11l6.23-3.597v4.108z" fill="#fff"/><path opacity=".1" d="m27.751 53.367.435.251v4.11l-.435-.251v-4.11z" fill="#000"/><path opacity=".1" d="m27.751 53.367.435.251v4.11l-.435-.251v-4.11z" fill="#000"/><path d="M28.186 53.618v.515l-1.774-1.03v-.519l1.774 1.034z" fill="#FF6F00"/><path opacity=".2" d="M28.186 53.618v.515l-1.774-1.03v-.519l1.774 1.034z" fill="#000"/><path d="m67.346 25.35 6.231-3.599.434.253v4.108l-6.23 3.596-.436-.25V25.35z" fill="#FF6F00"/><path opacity=".1" d="m67.346 25.35 6.231-3.599.434.253v4.108l-6.23 3.596-.436-.25V25.35z" fill="#000"/><path d="m74.01 26.112-6.23 3.596v-4.107l6.23-3.597v4.108z" fill="#FF6F00"/><path opacity=".25" d="m74.01 26.112-6.23 3.596v-4.107l6.23-3.597v4.108z" fill="#fff"/><path opacity=".1" d="m67.346 25.35.435.25v4.108l-.436-.25V25.35z" fill="#000"/><path d="m60.23 29.458 6.23-3.597.433.25v4.11l-6.23 3.597-.433-.25v-4.11z" fill="#FF6F00"/><path opacity=".1" d="m60.23 29.458 6.23-3.597.433.25v4.11l-6.23 3.597-.433-.25v-4.11z" fill="#000"/><path d="m66.893 30.221-6.23 3.597v-4.11l6.23-3.596v4.11z" fill="#FF6F00"/><path opacity=".25" d="m66.893 30.221-6.23 3.597v-4.11l6.23-3.596v4.11z" fill="#fff"/><path opacity=".1" d="m60.23 29.458.433.25v4.11l-.433-.25v-4.11z" fill="#000"/><path d="m53.113 33.567 6.23-3.596.435.25v4.108l-6.23 3.599-.435-.253v-4.108z" fill="#FF6F00"/><path opacity=".1" d="m53.113 33.567 6.23-3.596.435.25v4.108l-6.23 3.599-.435-.253v-4.108z" fill="#000"/><path d="m59.778 34.33-6.23 3.598v-4.11l6.23-3.597v4.108z" fill="#FF6F00"/><path opacity=".25" d="m59.778 34.33-6.23 3.598v-4.11l6.23-3.597v4.108z" fill="#fff"/><path opacity=".1" d="m53.113 33.567.435.251v4.11l-.435-.253v-4.108z" fill="#000"/><path d="m53.113 33.567 6.23-3.596.435.25v4.108l-6.23 3.599-.435-.253v-4.108z" fill="#FF6F00"/><path opacity=".1" d="m53.113 33.567 6.23-3.596.435.25v4.108l-6.23 3.599-.435-.253v-4.108z" fill="#000"/><path d="m59.778 34.33-6.23 3.598v-4.11l6.23-3.597v4.108z" fill="#FF6F00"/><path opacity=".25" d="m59.778 34.33-6.23 3.598v-4.11l6.23-3.597v4.108z" fill="#fff"/><path opacity=".1" d="m53.113 33.567.435.251v4.11l-.435-.253v-4.108z" fill="#000"/><path d="M53.548 33.814v4.114l-1.775-1.032v-4.111l1.775 1.03z" fill="#FF6F00"/><path opacity=".2" d="M53.548 33.814v4.114l-1.775-1.032v-4.111l1.775 1.03z" fill="#000"/><path d="m52.208 32.534 1.773 1.033-.433.251-1.775-1.033.435-.251z" fill="#FF6F00"/><path opacity=".1" d="m52.208 32.534 1.773 1.033-.433.251-1.775-1.033.435-.251z" fill="#000"/><path d="m58.003 29.188 1.775 1.033-6.23 3.597-1.775-1.033 6.23-3.597z" fill="#FF6F00"/><path d="m53.548 37.928-1.775-1.032v.545l1.769 1.03 3.58-2.067v-.542l-3.574 2.066zM60.23 29.484l-3.576 2.064-1.774-1.032v-.545L56.654 31l3.576-2.064v.547z" fill="#F0F0F0"/><path d="m63.337 22.532 6.23-3.597.435.251v4.108l-6.232 3.599-.434-.251v-4.11z" fill="#FF6F00"/><path opacity=".1" d="m63.337 22.532 6.23-3.597.435.251v4.108l-6.232 3.599-.434-.251v-4.11z" fill="#000"/><path d="m70.002 23.294-6.232 3.599v-4.11l6.232-3.597v4.108z" fill="#FF6F00"/><path opacity=".25" d="m70.002 23.294-6.232 3.599v-4.11l6.232-3.597v4.108z" fill="#fff"/><path opacity=".1" d="m63.337 22.532.433.25v4.11l-.434-.25v-4.11z" fill="#000"/><path d="m62.43 21.498 1.775 1.034-.435.25-1.773-1.033.433-.25z" fill="#FF6F00"/><path opacity=".1" d="m62.43 21.498 1.775 1.034-.435.25-1.773-1.033.433-.25z" fill="#000"/><path d="m68.227 18.153 1.775 1.033-6.232 3.597-1.773-1.034 6.23-3.596zM63.77 22.783v.519l-1.773-1.03v-.519l1.773 1.03z" fill="#FF6F00"/><path opacity=".2" d="M63.77 22.783v.519l-1.773-1.03v-.519l1.773 1.03z" fill="#000"/><path d="m56.22 26.642 6.23-3.599.434.251v4.11L56.654 31l-.435-.25v-4.108z" fill="#FF6F00"/><path opacity=".1" d="m56.22 26.642 6.23-3.599.434.251v4.11L56.654 31l-.435-.25v-4.108z" fill="#000"/><path d="M62.884 27.404 56.654 31v-4.107l6.23-3.599v4.11z" fill="#FF6F00"/><path opacity=".25" d="M62.884 27.404 56.654 31v-4.107l6.23-3.599v4.11z" fill="#fff"/><path opacity=".1" d="m56.22 26.642.434.25V31l-.435-.25v-4.108z" fill="#000"/><path d="M56.654 26.889V31l-1.774-1.03V25.86l1.774 1.03z" fill="#FF6F00"/><path opacity=".2" d="M56.654 26.889V31l-1.774-1.03V25.86l1.774 1.03z" fill="#000"/><path d="m55.315 25.608 1.772 1.034-.433.25-1.774-1.033.435-.25z" fill="#FF6F00"/><path opacity=".1" d="m55.315 25.608 1.772 1.034-.433.25-1.774-1.033.435-.25z" fill="#000"/><path d="m61.11 22.26 1.774 1.034-6.23 3.599-1.774-1.034 6.23-3.599zM70.452 18.424l3.116-1.799.435.25v4.109l-3.116 1.799-.435-.25v-4.109z" fill="#FF6F00"/><path opacity=".1" d="m70.452 18.424 3.116-1.799.435.25v4.109l-3.116 1.799-.435-.25v-4.109z" fill="#000"/><path d="m74.003 20.984-3.116 1.799v-4.108l3.116-1.8v4.109z" fill="#FF6F00"/><path opacity=".25" d="m74.003 20.984-3.116 1.799v-4.108l3.116-1.8v4.109z" fill="#fff"/><path opacity=".1" d="m70.452 18.424.435.251v4.108l-.435-.25v-4.109z" fill="#000"/><path d="M70.887 18.671v.519l-1.775-1.032v-.518l1.775 1.031z" fill="#FF6F00"/><path opacity=".2" d="M70.887 18.671v.519l-1.775-1.032v-.518l1.775 1.031z" fill="#000"/><path d="m69.548 17.389 1.774 1.035-.435.25-1.775-1.034.436-.251z" fill="#FF6F00"/><path opacity=".1" d="m69.548 17.389 1.774 1.035-.435.25-1.775-1.034.436-.251z" fill="#000"/><path d="m72.228 15.842 1.775 1.034-3.116 1.8-1.775-1.036 3.117-1.798z" fill="#FF6F00"/><path d="M44.65 42.718a.29.29 0 0 0 .146.055.82.82 0 0 0 .51-.109.98.98 0 0 1 .425-.207c.075 0 .149.012.22.033a1.9 1.9 0 0 0 1.084-.033 1.082 1.082 0 0 0 .703-.779 1.33 1.33 0 0 0 1.478-.826c.324.015.647-.037.95-.154a.977.977 0 0 0 .596-.724c.294.032.591.013.878-.057a.886.886 0 0 0 .623-.57c.021-.08.035-.175.105-.215a.251.251 0 0 1 .135-.02c.232.02.467-.01.688-.086a.621.621 0 0 0 .402-.524c0-.28-.245-.502-.503-.61a1.52 1.52 0 0 0-.886-.086.855.855 0 0 0-1.42-.359 1.318 1.318 0 0 0-1.764-.53 1.379 1.379 0 0 0-.625.528c-.11.221-.17.464-.177.71a.235.235 0 0 1-.057.18.228.228 0 0 1-.1.041c-.31.073-.609.19-.886.346-.164.08-.305.201-.41.352-.154.25-.118.57-.095.864a.141.141 0 0 1 0 .074c-.02.042-.07.055-.116.069a1.35 1.35 0 0 0-.965 1.616c-.215.08-.418.189-.605.322-.163.123-.524.541-.334.699z" fill="#E0E0E0"/><path opacity=".1" d="M53.607 38.496c0-.28-.245-.502-.504-.61a1.52 1.52 0 0 0-.885-.086.873.873 0 0 0-.726-.602c.099.077.172.182.207.302a.745.745 0 0 1 0 .506c.247-.038.498-.01.732.078a.424.424 0 0 1 .292.267.355.355 0 0 1-.127.324c-.238.222-.599.226-.922.214.04.247.06.55-.146.692a.663.663 0 0 1-.399.08h-.616a1.406 1.406 0 0 1-.889 1.18 1.78 1.78 0 0 0 .545-.135.977.977 0 0 0 .597-.724c.294.031.59.012.878-.057a.887.887 0 0 0 .623-.57c.021-.08.034-.175.105-.215a.25.25 0 0 1 .135-.02c.232.02.467-.01.687-.086a.622.622 0 0 0 .413-.538z" fill="#000"/><path d="m79.576 54.906 6.23 3.597-3.559 2.054-6.23-3.597 3.559-2.054z" fill="#FF6F00"/><path opacity=".25" d="m79.576 54.906 6.23 3.597-3.559 2.054-6.23-3.597 3.559-2.054z" fill="#fff"/><path d="m82.245 60.559 3.56-2.056-.003 2.052-3.562 2.056.005-2.052z" fill="#FF6F00"/><path opacity=".2" d="m82.245 60.559 3.56-2.056-.003 2.052-3.562 2.056.005-2.052z" fill="#000"/><path d="m76.01 59.014.007-2.054 6.23 3.597-.007 2.054-6.23-3.597z" fill="#FF6F00"/><path d="m74.93 57.477 6.23 3.597-3.558 2.053-6.23-3.596 3.558-2.054z" fill="#FF6F00"/><path opacity=".25" d="m74.93 57.477 6.23 3.597-3.558 2.053-6.23-3.596 3.558-2.054z" fill="#fff"/><path d="m77.6 63.13 3.56-2.056-.003 2.052-3.563 2.055.006-2.052z" fill="#FF6F00"/><path opacity=".2" d="m77.6 63.13 3.56-2.056-.003 2.052-3.563 2.055.006-2.052z" fill="#000"/><path d="m71.364 61.585.008-2.054 6.23 3.596-.008 2.054-6.23-3.596zM76.471 53.878l6.23 3.599-3.556 2.054-6.233-3.597 3.56-2.056z" fill="#FF6F00"/><path opacity=".25" d="m76.471 53.878 6.23 3.599-3.556 2.054-6.233-3.597 3.56-2.056z" fill="#fff"/><path d="m79.14 59.533 3.561-2.056-.003 2.052-3.563 2.056.006-2.052z" fill="#FF6F00"/><path opacity=".2" d="m79.14 59.533 3.561-2.056-.003 2.052-3.563 2.056.006-2.052z" fill="#000"/><path d="m72.905 57.986.007-2.052 6.232 3.597-.009 2.054-6.23-3.599zM67.328 77.756l6.392-3.694a.872.872 0 0 1 .427-.102.887.887 0 0 1 .432.102l6.395 3.694a.303.303 0 0 1 .177.248v.466a.297.297 0 0 1-.177.247l-6.395 3.692a.867.867 0 0 1-.431.104.853.853 0 0 1-.428-.104l-6.4-3.692a.299.299 0 0 1-.176-.247v-.467a.307.307 0 0 1 .184-.247z" fill="#FF6F00"/><path opacity=".1" d="M67.152 78.004v.466a.3.3 0 0 0 .176.247l6.392 3.694c.13.071.278.107.427.104v-8.55a.873.873 0 0 0-.427.103l-6.4 3.693a.306.306 0 0 0-.168.243z" fill="#000"/><path opacity=".3" d="M74.155 73.96v8.55a.866.866 0 0 0 .431-.105l6.396-3.692a.296.296 0 0 0 .177-.247V78a.303.303 0 0 0-.177-.25l-6.396-3.687a.888.888 0 0 0-.43-.103z" fill="#000"/><path d="m74.585 81.947 6.399-3.694a.262.262 0 0 0 0-.496l-6.4-3.693a.94.94 0 0 0-.858 0l-6.398 3.694a.262.262 0 0 0 0 .495l6.392 3.694a.95.95 0 0 0 .865 0z" fill="#FF6F00"/><path opacity=".5" d="m74.585 81.947 6.399-3.694a.262.262 0 0 0 0-.496l-6.4-3.693a.94.94 0 0 0-.858 0l-6.398 3.694a.262.262 0 0 0 0 .495l6.392 3.694a.95.95 0 0 0 .865 0z" fill="#fff"/><path opacity=".05" d="M74.155 73.96a.856.856 0 0 1 .43.104l6.399 3.694a.262.262 0 0 1 0 .495l-6.4 3.694a.875.875 0 0 1-.429.103v-8.09z" fill="#000"/><path d="m70.025 77.446 2.962-9.652v-.015a.73.73 0 0 1 .32-.38 1.74 1.74 0 0 1 1.688 0c.148.085.262.22.323.38v.011l2.962 9.656c.274.838-.108 1.744-1.14 2.396-1.647 1.032-4.317 1.032-5.964 0-1.041-.652-1.423-1.562-1.151-2.396z" fill="#FF6F00"/><path d="M72.135 70.562v-.011l.42-1.372a.703.703 0 0 0 .19.69c.078.085.167.158.264.218a2.354 2.354 0 0 0 2.297 0c.098-.06.187-.134.265-.218a.7.7 0 0 0 .19-.692l.421 1.376a.85.85 0 0 1-.09.69c-.12.19-.282.348-.474.463-.16.096-.332.171-.511.226a3.132 3.132 0 0 1-1.887 0 2.302 2.302 0 0 1-.51-.226 1.416 1.416 0 0 1-.474-.464.837.837 0 0 1-.1-.68zM70.439 76.091v-.01l.431-1.373a1.348 1.348 0 0 0-.023.69c.06.257.183.496.357.695.17.194.368.362.588.498 1.31.82 3.433.82 4.75 0 .22-.135.418-.303.588-.498.174-.2.297-.438.358-.695a1.331 1.331 0 0 0-.025-.688l.422 1.37v.013c.068.224.084.46.045.692-.085.522-.448 1.03-1.086 1.43-1.479.928-3.874.928-5.353 0-.64-.4-1.001-.908-1.088-1.43-.043-.231-.03-.469.036-.694z" fill="#FAFAFA"/><path d="M71.288 73.327v-.01l.422-1.373a.994.994 0 0 0 .04.69c.133.288.351.53.625.693l.019.011c.973.61 2.548.61 3.519 0l.02-.011a1.58 1.58 0 0 0 .626-.694c.094-.218.108-.462.04-.69l.42 1.372v.012c.07.225.07.468 0 .693-.09.267-.25.505-.464.688a2.315 2.315 0 0 1-.338.257c-.346.21-.725.357-1.121.436-.623.13-1.265.13-1.887 0a3.477 3.477 0 0 1-1.123-.436 2.415 2.415 0 0 1-.338-.257 1.58 1.58 0 0 1-.464-.688 1.166 1.166 0 0 1 .004-.693z" fill="#FAFAFA"/><path opacity=".1" d="M74.155 67.186c.296-.005.588.07.844.218.148.086.262.22.323.38v.012l2.958 9.65c.274.838-.108 1.744-1.14 2.396a5.73 5.73 0 0 1-2.983.773h.027c1.33-.232 2.234-1.615 2.048-3.07L75 67.938l-.846-.752z" fill="#000"/><path d="M74.999 68.463c.465-.293.465-.76 0-1.059a1.74 1.74 0 0 0-1.688 0c-.465.293-.465.76 0 1.059a1.74 1.74 0 0 0 1.688 0z" fill="#FF6F00"/><path opacity=".5" d="M74.999 68.463c.465-.293.465-.76 0-1.059a1.74 1.74 0 0 0-1.688 0c-.465.293-.465.76 0 1.059a1.74 1.74 0 0 0 1.688 0z" fill="#fff"/><path d="m50.707 74.991 6.398-3.694a.95.95 0 0 1 .858 0l6.396 3.694a.303.303 0 0 1 .176.249v.466a.302.302 0 0 1-.176.248l-6.396 3.692a.934.934 0 0 1-.858 0l-6.398-3.692a.3.3 0 0 1-.176-.248v-.466a.302.302 0 0 1 .176-.249z" fill="#FF6F00"/><path opacity=".1" d="M50.54 75.24v.466a.302.302 0 0 0 .177.248l6.397 3.692c.132.072.28.108.43.105V71.2a.86.86 0 0 0-.43.102l-6.397 3.694a.303.303 0 0 0-.177.243z" fill="#000"/><path opacity=".3" d="M57.534 71.195v8.55a.861.861 0 0 0 .43-.105l6.395-3.691a.302.302 0 0 0 .176-.25v-.459a.303.303 0 0 0-.176-.249l-6.396-3.694a.862.862 0 0 0-.43-.102z" fill="#000"/><path d="m57.963 79.183 6.398-3.694c.237-.139.237-.361 0-.498l-6.398-3.694a.95.95 0 0 0-.86 0l-6.398 3.694c-.237.137-.237.36 0 .498l6.398 3.694a.95.95 0 0 0 .86 0z" fill="#FF6F00"/><path opacity=".5" d="m57.963 79.183 6.398-3.694c.237-.139.237-.361 0-.498l-6.398-3.694a.95.95 0 0 0-.86 0l-6.398 3.694c-.237.137-.237.36 0 .498l6.398 3.694a.95.95 0 0 0 .86 0z" fill="#fff"/><path opacity=".05" d="M57.534 71.195a.886.886 0 0 1 .43.103l6.397 3.693c.237.137.237.36 0 .498l-6.398 3.692a.866.866 0 0 1-.43.104v-8.09z" fill="#000"/><path d="m53.403 74.68 2.96-9.65v-.016a.726.726 0 0 1 .324-.38 1.74 1.74 0 0 1 1.687 0 .73.73 0 0 1 .32.38v.012l2.961 9.652c.272.84-.11 1.746-1.15 2.397-1.647 1.032-4.316 1.032-5.964 0-1.03-.65-1.411-1.556-1.138-2.395z" fill="#FF6F00"/><path d="M55.512 67.796v-.01l.42-1.371a.706.706 0 0 0 .19.69c.078.084.166.157.264.218a2.364 2.364 0 0 0 2.297 0 1.24 1.24 0 0 0 .264-.219.706.706 0 0 0 .19-.691l.422 1.375a.845.845 0 0 1-.093.69c-.119.19-.28.349-.473.464-.16.095-.332.17-.511.226a3.132 3.132 0 0 1-1.887 0 2.341 2.341 0 0 1-.51-.227 1.418 1.418 0 0 1-.474-.463.857.857 0 0 1-.099-.682zM53.816 73.327v-.01l.421-1.373a1.33 1.33 0 0 0-.024.69c.06.256.184.494.357.693.17.196.368.364.589.5 1.309.818 3.431.818 4.74 0 .221-.136.42-.304.59-.5a1.61 1.61 0 0 0 .357-.694 1.342 1.342 0 0 0-.023-.688l.42 1.37v.014c.069.223.084.459.045.69-.085.524-.446 1.031-1.086 1.432-1.479.927-3.875.927-5.353 0-.64-.401-1.001-.908-1.087-1.433a1.52 1.52 0 0 1 .054-.691z" fill="#FAFAFA"/><path d="M54.665 70.56v-.01l.422-1.371c-.069.227-.055.472.04.69.133.288.351.53.625.691l.019.014c.972.61 2.548.61 3.52 0l.02-.014c.273-.162.491-.403.624-.691a.994.994 0 0 0 .04-.69l.422 1.372v.011c.07.226.07.468 0 .694a1.593 1.593 0 0 1-.463.688 2.422 2.422 0 0 1-.339.256c-.346.21-.726.356-1.123.435a4.575 4.575 0 0 1-1.886 0 3.464 3.464 0 0 1-1.121-.435 2.446 2.446 0 0 1-.34-.257 1.593 1.593 0 0 1-.464-.687c-.069-.227-.068-.47.004-.696z" fill="#FAFAFA"/><path opacity=".1" d="M57.534 64.421c.296-.005.588.07.843.219a.73.73 0 0 1 .322.38v.011l2.96 9.652c.272.84-.11 1.746-1.15 2.398a5.719 5.719 0 0 1-2.98.773h.024c1.33-.233 2.236-1.617 2.05-3.07l-1.226-9.614-.843-.749z" fill="#000"/><path d="M58.377 65.696c.466-.29.466-.76 0-1.056a1.74 1.74 0 0 0-1.687 0c-.465.293-.465.76 0 1.056a1.731 1.731 0 0 0 1.688 0z" fill="#FF6F00"/><path opacity=".5" d="M58.377 65.696c.466-.29.466-.76 0-1.056a1.74 1.74 0 0 0-1.687 0c-.465.293-.465.76 0 1.056a1.731 1.731 0 0 0 1.688 0z" fill="#fff"/></svg>