<svg width="93" height="93" fill="none" xmlns="http://www.w3.org/2000/svg"><path d="M47.041 68.344v-6.106l-7.555-4.364.755 6.543 6.8 3.927z" fill="#263238"/><path d="M47.041 68.344 58.374 61.8l.755-6.543-12.088 6.98v6.107z" fill="#37474F"/><path d="M39.014 56.566a.34.34 0 0 1 .198-.279L51.09 49.43a1.068 1.068 0 0 1 .968 0l7.345 4.241a.339.339 0 0 1 .199.28v1.744a.338.338 0 0 1-.2.28l-11.877 6.857a1.068 1.068 0 0 1-.967 0l-7.346-4.241a.342.342 0 0 1-.199-.279v-1.745z" fill="#FF6F00"/><path opacity=".2" d="m39.212 56.287 7.83-4.52v11.181a.98.98 0 0 1-.484-.117l-7.346-4.241a.341.341 0 0 1-.199-.279v-1.746a.339.339 0 0 1 .2-.278z" fill="#000"/><path opacity=".1" d="m47.041 51.767 4.05-2.338a1.068 1.068 0 0 1 .967 0l7.345 4.241a.338.338 0 0 1 .199.28v1.744a.338.338 0 0 1-.2.28l-11.877 6.857a.98.98 0 0 1-.484.117v-11.18z" fill="#000"/><path d="m46.558 61.086-7.346-4.24c-.266-.155-.266-.404 0-.559L51.09 49.43a1.068 1.068 0 0 1 .968 0l7.345 4.241c.266.155.266.404 0 .558l-11.878 6.858a1.067 1.067 0 0 1-.967 0z" fill="#FF6F00"/><path opacity=".2" d="M57.242 54.167c.208.12.197.322-.026.45l-8.26 4.77a.863.863 0 0 1-.782.014c-.208-.12-.197-.322.026-.45l8.26-4.77a.863.863 0 0 1 .782-.014z" fill="#000"/><path opacity=".2" d="M48.955 59.388a.863.863 0 0 1-.781.013l-.04-.028a.46.46 0 0 1 .066-.046l8.26-4.77a.864.864 0 0 1 .782-.014l.04.03a.462.462 0 0 1-.067.044l-8.26 4.77zM51.197 50.678c.21.119.198.321-.025.45l-8.262 4.769a.86.86 0 0 1-.78.015c-.208-.121-.196-.322.025-.45l8.262-4.771a.86.86 0 0 1 .78-.013z" fill="#000"/><path opacity=".2" d="M42.91 55.897a.858.858 0 0 1-.78.015.235.235 0 0 1-.04-.03.59.59 0 0 1 .065-.045l8.262-4.769a.853.853 0 0 1 .78-.015.378.378 0 0 1 .04.028.445.445 0 0 1-.065.047l-8.262 4.769zM43.64 56.358c-.209.12-.198.322.025.45l2.976 1.715a.86.86 0 0 0 .78.015c.208-.121.197-.322-.024-.45l-2.977-1.715a.863.863 0 0 0-.78-.015z" fill="#000"/><path opacity=".2" d="M46.64 58.514a.858.858 0 0 0 .779.015.39.39 0 0 0 .04-.028.446.446 0 0 0-.064-.047l-2.976-1.715a.862.862 0 0 0-.782-.015.312.312 0 0 0-.039.03c.02.017.042.032.066.045l2.975 1.715zM42.13 57.221c-.208.12-.196.322.025.45l2.976 1.715a.864.864 0 0 0 .781.015c.209-.12.197-.324-.026-.452l-2.976-1.715a.86.86 0 0 0-.78-.013z" fill="#000"/><path opacity=".2" d="M45.13 59.386a.864.864 0 0 0 .78.015l.04-.03a.44.44 0 0 0-.066-.046l-2.976-1.715a.859.859 0 0 0-.779-.013.219.219 0 0 0-.04.028c.02.017.041.033.064.046l2.976 1.715zM52.707 51.115c-.209.12-.2.321.024.45l2.976 1.715a.86.86 0 0 0 .78.015c.21-.121.198-.322-.025-.45l-2.976-1.715a.858.858 0 0 0-.78-.015z" fill="#000"/><path opacity=".2" d="M55.705 53.28a.864.864 0 0 0 .781.015.306.306 0 0 0 .04-.03.438.438 0 0 0-.066-.045l-2.976-1.715a.859.859 0 0 0-.78-.015.388.388 0 0 0-.04.028.45.45 0 0 0 .065.047l2.976 1.715zM51.197 51.985c-.209.121-.198.324.024.452l2.976 1.715a.87.87 0 0 0 .78.015c.21-.121.198-.324-.025-.452L51.976 52a.87.87 0 0 0-.78-.015z" fill="#000"/><path opacity=".2" d="M54.195 54.152a.87.87 0 0 0 .781.015l.04-.03a.467.467 0 0 0-.066-.046l-2.976-1.715a.872.872 0 0 0-.781-.015l-.041.03c.02.017.042.032.065.046l2.978 1.715z" fill="#000"/><path d="M46.286 54.88v1.686l.755.437.755-.437v-1.28a.893.893 0 0 1 .402-.697l1.86-1.077.354-.203c.22-.128.401-.024.401.233v1.28l.755-.438v-1.687a.84.84 0 0 0 0-.1.468.468 0 0 0-.01-.076.575.575 0 0 0-.125-.266.35.35 0 0 0-.099-.078l-.024-.013-.727-.42a.559.559 0 0 0-.568.055l-2.922 1.687a1.777 1.777 0 0 0-.807 1.393z" fill="#455A64"/><path d="M50.062 53.512v.87l.755.438v-1.28c0-.257-.186-.36-.402-.232l-.353.204z" fill="#263238"/><path d="M47.041 55.315v1.688l.755-.437v-1.28a.893.893 0 0 1 .402-.697l1.86-1.075.354-.203c.22-.128.401-.024.401.233v1.28l.755-.436V52.7a.842.842 0 0 0 0-.1.467.467 0 0 0-.01-.076.573.573 0 0 0-.125-.266.344.344 0 0 0-.099-.078l-.024-.013a.58.58 0 0 0-.54.07l-2.922 1.687a1.783 1.783 0 0 0-.807 1.392z" fill="#37474F"/><path d="m50.819 62.673-.28-.16-.756.435.28.162.756-.437z" fill="#455A64"/><path d="m50.064 63.11-.28 3.651-.001-3.813.28.162z" fill="#263238"/><path d="m50.819 62.673-.28 3.65.092-.042.188-3.608z" fill="#37474F"/><path d="m44.495 63.385.279-.162.755.435-.279.162-.755-.435z" fill="#455A64"/><path d="m44.495 63.385.279 3.65-.091-.043-.188-3.607z" fill="#000"/><path d="m41.472 61.639.281-.16.755.435-.28.162-.756-.438z" fill="#455A64"/><path d="m45.53 67.472-.28-3.652.28-.162v3.814zM42.508 61.914v3.813l-.28-3.651.28-.162z" fill="#37474F"/><path d="m41.472 61.639.28 3.65-.092-.042-.188-3.608z" fill="#000"/><path d="m56.107 59.62-.28-.161-.754.435.279.162.755-.436z" fill="#455A64"/><path d="m55.352 60.056-.28 3.65v-3.812l.28.162z" fill="#263238"/><path d="m56.107 59.62-.28 3.652.094-.045.186-3.607zM49.377 62.053l.002-.872 1.51-.872.253.145-.001.872-1.512.872-.252-.145z" fill="#37474F"/><path d="m51.142 60.454-.001.872-1.512.872.003-.872 1.51-.872z" fill="#455A64"/><path d="m49.632 61.326-.253-.145-.002.872.252.145.003-.872z" fill="#263238"/><path d="m54.706 58.979.004-.873 1.51-.872.253.145-.003.873-1.51.872-.254-.145z" fill="#37474F"/><path d="m56.473 57.38-.003.871-1.51.873.001-.873 1.512-.872z" fill="#455A64"/><path d="m54.961 58.252-.251-.146-.004.873.253.145.002-.873z" fill="#263238"/><path d="M46.015 71.937c-.103.058-.294.056-.356.125v.251l1.168-.17.441.26-.167.35-1.18-.08v.252a.797.797 0 0 0 .079.052 1.994 1.994 0 0 0 1.8 0 .635.635 0 0 0 .372-.523v-.25l-.069.01v-.013l4.42-2.551c.449.1.919.04 1.33-.168a.745.745 0 0 0 .355-.372v-.253l-1.168.422-.441-.258.167-.352 1.18-.17v-.254s-1.379-.09-1.88.186a.81.81 0 0 0-.312.289l-.066-.025v.25c-.001.093.025.184.076.262l-4.42 2.552a1.99 1.99 0 0 0-1.33.178z" fill="#37474F"/><path d="M52.523 69.657v-.251l-4.42 2.552v.25l4.42-2.551z" fill="#37474F"/><path d="m51.764 68.967-4.42 2.552a2 2 0 0 0-1.33.165.744.744 0 0 0-.355.372l1.168-.169.441.259-.167.35-1.18.172a.797.797 0 0 0 .079.052 1.994 1.994 0 0 0 1.8 0c.372-.208.469-.513.303-.775l4.42-2.552c.45.099.919.04 1.33-.168a.744.744 0 0 0 .355-.371l-1.168.17-.441-.258.167-.352 1.18-.172-.078-.05a1.994 1.994 0 0 0-1.801 0c-.359.208-.469.513-.303.775z" fill="#455A64"/><path d="m52.692 68.827-.093-.053.167-.352 1.18-.173v.253l-1.18.171-.074.154zM47.175 72.347l.093-.196-.44-.26-1.169.171v.253l1.168-.171.348.203z" fill="#263238"/><path d="m48.719 75.65.93 1.6 3.117-1.8a.447.447 0 0 0 .209-.43 1.443 1.443 0 0 0-.655-1.133.457.457 0 0 0-.461-.045l-3.14 1.808z" fill="#FF6F00"/><path d="M48.533 75.981c-.013.244-.357.296-.357.296l.653 1.132s.217-.267.435-.161c.322.14.573-.034.573-.419a1.443 1.443 0 0 0-.655-1.13c-.335-.196-.61-.066-.649.282z" fill="#FF6F00"/><path opacity=".05" d="M48.533 75.981c-.013.244-.357.296-.357.296l.653 1.132s.217-.267.435-.161c.322.14.573-.034.573-.419a1.443 1.443 0 0 0-.655-1.13c-.335-.196-.61-.066-.649.282z" fill="#000"/><path opacity=".05" d="M48.33 76.228a.658.658 0 0 1-.156.049l.653 1.132a.729.729 0 0 1 .12-.11 1.466 1.466 0 0 0-.617-1.07z" fill="#000"/><path d="m47.493 76.357.054.095a.743.743 0 0 0-.028.202 1.448 1.448 0 0 0 .655 1.133c.058.035.12.06.186.076l.054.095.218-.124a.46.46 0 0 0 .186-.425 1.446 1.446 0 0 0-.653-1.132.459.459 0 0 0-.463-.045l-.209.125z" fill="#FF6F00"/><path d="M48.61 77.536a1.444 1.444 0 0 0-.654-1.133c-.36-.208-.654-.039-.654.372a1.452 1.452 0 0 0 .654 1.133c.361.212.653.045.653-.372z" fill="#FF6F00"/><path opacity=".15" d="M48.61 77.536a1.444 1.444 0 0 0-.654-1.133c-.36-.208-.654-.039-.654.372a1.452 1.452 0 0 0 .654 1.133c.361.212.653.045.653-.372z" fill="#000"/><path opacity=".15" d="M47.702 77.705a.982.982 0 0 0 .161.145l.153-.435-.186-.136-.128.426z" fill="#000"/><path opacity=".2" d="M52.435 74.571a.186.186 0 0 1-.067.246l-2.232 1.285a.186.186 0 0 1-.247-.065.186.186 0 0 1 .067-.246l2.232-1.285a.186.186 0 0 1 .247.065zM52.033 74.093a.104.104 0 0 1 0 .186l-2.269 1.302a.247.247 0 0 1-.262-.03.103.103 0 0 1-.042-.148.104.104 0 0 1 .042-.038l2.267-1.302a.249.249 0 0 1 .264.03zM52.65 75.159a.106.106 0 0 0-.164-.086l-2.27 1.302a.25.25 0 0 0-.106.242.107.107 0 0 0 .057.09.106.106 0 0 0 .107-.004l2.27-1.302a.252.252 0 0 0 .105-.242z" fill="#000"/><path d="M42.222 80.175v.436l1.09-.354c.108-.203.256-.382.435-.526l4.14-2.39.127-.363-.126-.073-4.14 2.39a.434.434 0 0 1-.436-.024l-1.09.904z" fill="#455A64"/><path d="M42.35 80.25v.435l1.09-.353c.107-.204.256-.383.436-.527l4.14-2.39v-.437l-4.14 2.39a.434.434 0 0 1-.436-.022l-1.09.904z" fill="#37474F"/><path d="m42.35 80.685-.126-.075v-.435l.126.075v.435z" fill="#263238"/><path d="m42.224 80.175.126.075 1.09-.904-.126-.075-1.09.904z" fill="#455A64"/><path d="m66.63 72.447-1.716-.584c-.147-1.644.065-5.628 2.738-7.966 2.714-2.374 4.484-.852 4.432.186-.056 1.132-2.49 2.194-3.72 3.72-1.343 1.659-1.761 2.793-1.733 4.644z" fill="#FF6F00"/><path opacity=".5" d="m66.63 72.447-1.716-.584c-.147-1.644.065-5.628 2.738-7.966 2.714-2.374 4.484-.852 4.432.186-.056 1.132-2.49 2.194-3.72 3.72-1.343 1.659-1.761 2.793-1.733 4.644z" fill="#fff"/><path d="M65.472 72.144a.093.093 0 0 1-.091-.093c.024-4.423 3.309-8.294 4.946-8.545a.093.093 0 0 1 .07.017.094.094 0 0 1-.043.169c-1.603.245-4.765 4.183-4.787 8.36a.094.094 0 0 1-.06.085.093.093 0 0 1-.035.007z" fill="#fff"/><path d="M70.71 68.481c-1.488-.489-4.725 1.139-5.351 3.535l1.272.43a7.037 7.037 0 0 1 3.588-1.535c2.096-.21 1.973-1.94.49-2.43z" fill="#FF6F00"/><path opacity=".65" d="M70.71 68.481c-1.488-.489-4.725 1.139-5.351 3.535l1.272.43a7.037 7.037 0 0 1 3.588-1.535c2.096-.21 1.973-1.94.49-2.43z" fill="#fff"/><path d="M65.939 72.34a.09.09 0 0 1-.043-.01.095.095 0 0 1-.039-.127c1.274-2.46 4.04-3.188 5.165-2.886a.09.09 0 0 1 .068.077.095.095 0 0 1-.116.103c-1.075-.288-3.72.418-4.951 2.79a.092.092 0 0 1-.084.052z" fill="#fff"/><path d="M64.503 44.878v27.506a.512.512 0 0 0 .305.424 1.616 1.616 0 0 0 1.471 0 .517.517 0 0 0 .305-.424V44.878h-2.081z" fill="#455A64"/><path d="m64.503 50.034 2.081-1.202v-3.954h-2.081v5.156z" fill="#37474F"/><path d="m61.596 49.591 14.355-8.288V15.611l-14.355 8.288v25.692z" fill="#FF6F00"/><path d="m75.951 15.611-6.46-3.73-14.355 8.289 6.46 3.73L75.95 15.61z" fill="#FF6F00"/><path opacity=".2" d="m75.951 15.611-6.46-3.73-14.355 8.289 6.46 3.73L75.95 15.61z" fill="#fff"/><path d="M55.136 20.17v25.692l6.46 3.73V23.898l-6.46-3.73z" fill="#FF6F00"/><path opacity=".2" d="M55.136 20.17v25.692l6.46 3.73V23.898l-6.46-3.73z" fill="#000"/><path d="m70.749 22.29-5.323 13.848 3.347-2.708-2.603 9.79 5.951-14.887-3.347 2.612 1.975-8.655z" fill="#FAFAFA"/><path d="M62.682 24.106c.197-.114.359-.02.359.208a.795.795 0 0 1-.359.621c-.199.116-.359.023-.359-.206a.797.797 0 0 1 .359-.623zM62.682 47.315c.197-.116.359-.023.359.206a.795.795 0 0 1-.359.621c-.199.116-.359.023-.359-.206a.79.79 0 0 1 .359-.621zM74.874 17.062c.2-.116.36-.023.36.206a.789.789 0 0 1-.36.622c-.197.115-.357.022-.357-.207a.793.793 0 0 1 .357-.621zM74.874 40.269c.2-.115.36-.022.36.206a.79.79 0 0 1-.36.622c-.197.115-.357.022-.357-.207a.793.793 0 0 1 .357-.621z" fill="#37474F"/><path d="M75.951 15.611v18.234l7.896-4.56V3.595l-14.355 8.288 6.46 3.729zM83.847 3.594l-14.355 8.288-.719-.415L83.13 3.179l.718.415z" fill="#FF6F00"/><path opacity=".2" d="m83.847 3.594-14.355 8.288-.719-.415L83.13 3.179l.718.415z" fill="#fff"/><path d="M68.773 12.296v-.83l.719.416-.719.415z" fill="#FF6F00"/><path opacity=".2" d="M68.773 12.296v-.83l.719.416-.719.415z" fill="#000"/><path opacity=".2" d="m69.492 11.882 9.244 2.537v17.818l-2.785 1.608V15.61l-6.46-3.73z" fill="#000"/></svg>