<svg width="95" height="95" fill="none" xmlns="http://www.w3.org/2000/svg"><path d="M82.94 72.426a1.674 1.674 0 0 1 .75 1.313.524.524 0 0 1-.23.49l-5.06 2.88-1.055-1.856 5.056-2.878a.522.522 0 0 1 .54.051z" fill="#FF6F00"/><path d="M78.147 75.023a1.927 1.927 0 0 1 .86 1.52.613.613 0 0 1-.263.57l-.32.18-1.214-2.135.316-.18a.602.602 0 0 1 .621.045z" fill="#FF6F00"/><path opacity=".2" d="M78.147 75.023a1.927 1.927 0 0 1 .86 1.52.613.613 0 0 1-.263.57l-.32.18-1.214-2.135.316-.18a.602.602 0 0 1 .621.045z" fill="#fff"/><path d="M78.68 76.72c0 .555-.392.777-.871.498a1.922 1.922 0 0 1-.86-1.52c0-.555.394-.777.871-.496a1.922 1.922 0 0 1 .86 1.518z" fill="#FF6F00"/><path d="M77.814 75.776a.843.843 0 0 1 .38.66.265.265 0 0 1-.115.248l-8.562 4.873-.53-.934 8.56-4.874a.269.269 0 0 1 .267.027z" fill="#455A64"/><path d="m69.35 81.253.173.304 8.561-4.873a.264.264 0 0 0 .116-.247.652.652 0 0 0-.034-.203l-8.816 5.02z" fill="#37474F"/><path d="M65.831 81.168c-.005.198.04.394.13.57.195.424.52.776.928 1.003.07.044.19.11.259.152l.95.56a.644.644 0 0 0 .28.077h.19c.097.004.192.03.279.076l.522.245a.209.209 0 0 0 .237-.027l.466-.463a.111.111 0 0 0 .04-.082v-1.387a.11.11 0 0 0-.059-.118l-.226-.133a.285.285 0 0 1-.13-.224v-.264a.293.293 0 0 0-.129-.226l-1.197-.702a.333.333 0 0 0-.265-.013c-.227.097-.684.268-.998.22a1.33 1.33 0 0 1-1.055-1.28 1.03 1.03 0 0 0-.226.635c.01.165.021 1.01.004 1.38z" fill="#455A64"/><path d="m70.063 81.782-.227-.133a.287.287 0 0 1-.129-.225v-.264a.292.292 0 0 0-.129-.226l-1.197-.7a.331.331 0 0 0-.266-.014c-.226.097-.684.268-.997.22a1.33 1.33 0 0 1-1.055-1.28 1.068 1.068 0 0 0-.097 1.176c.196.424.522.775.93 1.003l.258.154.95.559a.692.692 0 0 0 .279.077h.19a.662.662 0 0 1 .28.078l.52.245a.213.213 0 0 0 .24-.028l.465-.462a.107.107 0 0 0 .025-.145.107.107 0 0 0-.04-.035z" fill="#37474F"/><path d="M69.77 81.82a2.043 2.043 0 0 0-.931 1.59.642.642 0 0 0 .273.6l.91.534 1.315-2.248-.908-.532a.64.64 0 0 0-.66.056z" fill="#263238"/><path d="M69.758 83.948c0 .587.407.828.918.537a2.043 2.043 0 0 0 .931-1.59c0-.587-.408-.828-.918-.538a2.03 2.03 0 0 0-.93 1.59z" fill="#455A64"/><path d="M67.26 82.012a.532.532 0 0 1 .24.42.17.17 0 0 1-.073.157l-.241.137-.338-.593.241-.137a.168.168 0 0 1 .171.016z" fill="#263238"/><path d="M67.26 82.57c0 .154-.11.217-.243.139a.538.538 0 0 1-.24-.42c0-.154.11-.217.244-.139a.537.537 0 0 1 .239.42zM65.84 80.44c.094.382.275.736.529 1.036a1.411 1.411 0 0 1-.53-.644l.002-.392z" fill="#37474F"/><path opacity=".2" d="M83.115 73.196a.19.19 0 0 1-.074.271l-3.811 2.176a.2.2 0 0 1-.272-.076.19.19 0 0 1 .074-.272l3.808-2.174a.19.19 0 0 1 .275.075zM82.675 72.663a.118.118 0 0 1-.01.206l-3.866 2.2a.267.267 0 0 1-.29-.034.115.115 0 0 1-.055-.105.116.116 0 0 1 .065-.099l3.865-2.202a.28.28 0 0 1 .29.034zM83.35 73.847a.116.116 0 0 0-.181-.095l-3.867 2.2a.27.27 0 0 0-.12.267.116.116 0 0 0 .181.095l3.867-2.2a.272.272 0 0 0 .12-.267z" fill="#000"/><path d="m53.422 31.118 6.21 3.585v7.171l-6.21-3.585v-7.17z" fill="#AF6152"/><path d="m59.632 34.703 6.209-3.585v14.34l-6.21-3.584v-7.17z" fill="#C8856A"/><path d="m59.632 25.015-6.856 3.95v1.792l6.855 3.946 6.856-3.946v-1.792l-6.855-3.95z" fill="#455A64"/><path d="M59.632 25.79v6.347l-5.512-3.172 5.512-3.174z" fill="#37474F"/><path d="m59.632 25.79 5.511 3.175-5.511 3.172V25.79z" fill="#263238"/><path d="m52.776 30.757 6.855 3.946V32.91l-6.855-3.944v1.791z" fill="#37474F"/><path d="m66.487 30.757-6.855 3.946V32.91l6.855-3.944v1.791z" fill="#263238"/><path d="M82.94 58.022 65.705 44.356l-17.237 33.57v7.177L82.941 65.2v-7.178z" fill="#C8856A"/><path d="M48.467 85.103 9.532 62.618V55.44l38.935 22.487v7.176z" fill="#AF6152"/><path d="M68.21 43.759a42.603 42.603 0 0 0 4.797 2.82c-.226.298-2.397-.354-3.507-1.19-1.742-.57-2.91-.452-4.668-2.28l3.378.65z" fill="#37474F"/><path d="M68.21 43.759c.783.486 1.57.973 2.373 1.434.804.462 1.636.9 2.47 1.32a.09.09 0 0 1 .05.056.098.098 0 0 1-.038.103.215.215 0 0 1-.088.038.601.601 0 0 1-.148.015c-.088 0-.175-.006-.262-.017a4.742 4.742 0 0 1-.496-.093 8.436 8.436 0 0 1-.95-.287 7.175 7.175 0 0 1-1.699-.89l.036.018c-.425-.143-.866-.255-1.309-.38a8.45 8.45 0 0 1-1.307-.44 5.244 5.244 0 0 1-1.127-.685 7.903 7.903 0 0 1-.89-.85c.298.289.615.557.95.804.35.254.729.467 1.128.637.419.164.85.296 1.288.395.443.112.893.222 1.33.365.013.004.025.01.036.019a7.03 7.03 0 0 0 1.644.845c.297.112.601.207.91.283.155.036.311.069.465.09a1.89 1.89 0 0 0 .312.019h.011a.033.033 0 0 0 0 .02l.053.061a33.629 33.629 0 0 1-2.454-1.366 41.102 41.102 0 0 1-2.288-1.514z" fill="#263238"/><path d="M70.11 45.666a42.745 42.745 0 0 0 4.797 2.82c-.226.297-2.395-.353-3.507-1.19-1.742-.57-2.66-.845-4.41-2.66l3.12 1.03z" fill="#37474F"/><path d="M70.11 45.666c.785.487 1.57.973 2.375 1.435.806.462 1.634.899 2.47 1.32.023.012.04.032.05.056a.099.099 0 0 1-.04.102.215.215 0 0 1-.088.038.58.58 0 0 1-.146.015c-.088 0-.175-.005-.262-.017a5.196 5.196 0 0 1-.496-.093 8.302 8.302 0 0 1-.95-.287 7.114 7.114 0 0 1-1.699-.89l.036.018c-.435-.144-.872-.287-1.301-.456a6.945 6.945 0 0 1-1.209-.617 9.56 9.56 0 0 1-1.867-1.665c.594.596 1.25 1.126 1.957 1.583.739.456 1.615.728 2.487 1.01a.13.13 0 0 1 .036.02c.508.352 1.06.637 1.641.845.299.112.603.207.912.283.154.037.312.069.466.09a1.84 1.84 0 0 0 .311.019h.012s-.012.017 0 .02l.051.061a33.988 33.988 0 0 1-2.453-1.366 45.703 45.703 0 0 1-2.293-1.523z" fill="#263238"/><path d="M72.808 47.798a42.07 42.07 0 0 0 4.8 2.82c-.227.298-2.398-.352-3.51-1.188-1.742-.57-2.65-.847-4.41-2.66l3.12 1.028z" fill="#37474F"/><path d="M72.808 47.798c.785.489 1.571.973 2.375 1.437.804.463 1.636.897 2.47 1.32.023.01.04.03.05.053a.098.098 0 0 1-.039.103.242.242 0 0 1-.089.04.585.585 0 0 1-.146.015c-.088 0-.175-.007-.262-.019a4.66 4.66 0 0 1-.496-.091 8.325 8.325 0 0 1-.95-.289 7.104 7.104 0 0 1-1.699-.89l.036.02c-.433-.146-.872-.289-1.301-.458a6.733 6.733 0 0 1-1.207-.616 9.585 9.585 0 0 1-1.87-1.666c.594.596 1.25 1.127 1.958 1.583.739.456 1.615.73 2.487 1.01a.16.16 0 0 1 .036.02c.507.353 1.06.637 1.641.845.298.114.603.208.912.283.154.039.31.07.466.091a1.879 1.879 0 0 0 .311.017h.012c-.004 0-.01.018 0 .021l.051.06a34.715 34.715 0 0 1-2.453-1.365c-.788-.484-1.55-1-2.293-1.524z" fill="#263238"/><path d="M75.506 49.932a42.622 42.622 0 0 0 4.8 2.82c-.227.296-2.398-.354-3.51-1.19-1.74-.57-2.65-.845-4.41-2.66l3.12 1.03z" fill="#37474F"/><path d="M75.506 49.932c.785.486 1.571.973 2.375 1.434.804.462 1.636.9 2.47 1.321a.09.09 0 0 1 .05.055.101.101 0 0 1-.039.103.21.21 0 0 1-.089.038.58.58 0 0 1-.146.015c-.088 0-.175-.006-.262-.017a4.661 4.661 0 0 1-.496-.093 8.302 8.302 0 0 1-.95-.287 7.114 7.114 0 0 1-1.699-.891l.036.019c-.433-.145-.872-.287-1.301-.456a6.866 6.866 0 0 1-1.207-.618 9.513 9.513 0 0 1-1.87-1.664 11.8 11.8 0 0 0 1.958 1.583c.739.456 1.615.727 2.487 1.01.013.004.025.01.036.02.508.352 1.06.636 1.641.845.301.11.608.205.92.281.156.036.312.068.465.09a1.881 1.881 0 0 0 .312.018h.011a.029.029 0 0 0 0 .021l.052.061a33.988 33.988 0 0 1-2.453-1.366 45.91 45.91 0 0 1-2.301-1.522z" fill="#263238"/><path d="M78.206 52.06a42.127 42.127 0 0 0 4.797 2.822c-.226.296-2.397-.354-3.509-1.19-1.74-.57-2.65-.847-4.41-2.66l3.122 1.028z" fill="#37474F"/><path d="M78.206 52.06c.783.488 1.57.973 2.373 1.436.804.464 1.636.897 2.47 1.32a.088.088 0 0 1 .05.054.098.098 0 0 1-.039.103.22.22 0 0 1-.087.04.601.601 0 0 1-.148.015 1.95 1.95 0 0 1-.262-.02 4.74 4.74 0 0 1-.496-.09 8.325 8.325 0 0 1-.95-.29 7.104 7.104 0 0 1-1.699-.888l.036.019c-.433-.147-.872-.29-1.3-.458a6.743 6.743 0 0 1-1.208-.616 9.585 9.585 0 0 1-1.87-1.666c.594.596 1.25 1.127 1.958 1.583.739.456 1.615.73 2.487 1.01a.164.164 0 0 1 .036.02c.508.353 1.06.637 1.643.845.297.113.601.208.91.283.154.038.31.069.466.091a1.869 1.869 0 0 0 .312.017h.01a.028.028 0 0 0 0 .021l.054.059a34.34 34.34 0 0 1-2.455-1.364 40.274 40.274 0 0 1-2.291-1.524z" fill="#263238"/><path d="M80.904 54.197a42.573 42.573 0 0 0 4.797 2.82c-.226.296-2.397-.353-3.507-1.19-1.742-.57-2.66-.845-4.41-2.66l3.12 1.03z" fill="#37474F"/><path d="M80.904 54.197c.783.487 1.57.973 2.373 1.435.804.462 1.636.899 2.47 1.32a.09.09 0 0 1 .05.056.098.098 0 0 1-.039.102.213.213 0 0 1-.087.038.601.601 0 0 1-.148.015c-.088 0-.175-.005-.262-.017a4.742 4.742 0 0 1-.496-.093 8.436 8.436 0 0 1-.95-.287 7.175 7.175 0 0 1-1.699-.889l.036.017c-.433-.144-.872-.287-1.3-.456a6.876 6.876 0 0 1-1.208-.617 9.45 9.45 0 0 1-1.868-1.665 11.782 11.782 0 0 0 1.956 1.583c.739.456 1.615.728 2.487 1.01.013.005.025.011.036.02a7.03 7.03 0 0 0 1.643.845c.298.112.602.207.91.283.156.037.312.069.466.09a1.545 1.545 0 0 0 .311.019h.012a.033.033 0 0 0 0 .02l.053.061a33.629 33.629 0 0 1-2.455-1.366 44.793 44.793 0 0 1-2.291-1.523z" fill="#263238"/><path d="M83.6 56.33a42.29 42.29 0 0 0 4.797 2.82c-.226.297-2.397-.353-3.507-1.189-1.742-.57-2.65-.847-4.41-2.66l3.12 1.028z" fill="#37474F"/><path d="M83.6 56.33c.785.488 1.57.972 2.373 1.436.804.463 1.636.898 2.47 1.33a.09.09 0 0 1 .05.053.097.097 0 0 1-.038.102.221.221 0 0 1-.088.04.61.61 0 0 1-.148.016 1.98 1.98 0 0 1-.249-.027 4.767 4.767 0 0 1-.496-.091 8.454 8.454 0 0 1-.95-.289 7.142 7.142 0 0 1-1.698-.89l.036.02c-.434-.147-.872-.289-1.3-.458a6.753 6.753 0 0 1-1.208-.616 9.519 9.519 0 0 1-1.868-1.666 11.768 11.768 0 0 0 1.955 1.583c.74.456 1.617.73 2.487 1.012.013.004.025.01.036.018a6.99 6.99 0 0 0 1.644.845c.297.114.6.208.91.283.153.038.309.069.465.091a1.869 1.869 0 0 0 .312.017h.011a.029.029 0 0 0 0 .021l.053.06a34.34 34.34 0 0 1-2.454-1.365 43.583 43.583 0 0 1-2.305-1.526z" fill="#263238"/><path d="m68.72 46.098-44.966-25.97L6.517 53.7l44.965 25.969L68.72 46.098z" fill="#455A64"/><path d="M68.72 44.602 23.753 18.636 5.424 54.331 50.39 80.3l18.33-35.697z" fill="#263238"/><path d="M52.145 76.885 7.18 50.918l-.416.808 44.963 25.969.419-.81zM55.73 69.891 10.766 43.924l-.416.808 44.966 25.967.416-.808zM59.322 62.903 14.356 36.934l-.418.81L58.904 63.71l.418-.808zM62.91 55.91 17.946 29.94l-.416.808 44.964 25.969.418-.808zM66.51 48.898 21.544 22.93l-.418.808 44.965 25.969.419-.808z" fill="#AF6152"/><path d="m64.936 45.142-17.27 33.583.765.444 17.273-33.586-.768-.44zM59.236 41.847 41.963 75.433l.766.443L60.002 42.29l-.766-.443zM53.529 38.551 36.256 72.135l.766.443 17.272-33.584-.765-.443z" fill="#C8856A"/><path d="M68.72 46.098v-1.495L50.39 80.3l1.092-.631L68.72 46.098z" fill="#37474F"/><path d="M68.72 46.098v-1.495l18.329 14.53-1.093.631-17.237-13.666z" fill="#37474F"/><path d="m82.94 58.024 3.014 1.74L68.72 46.099l-.237.462L82.94 58.023z" fill="#263238"/><path d="m24.098 20.995 1.47-.847 43.636 24.496-1.469.848-43.637-24.497z" fill="#455A64"/><path opacity=".2" d="m4.509 54.372-.204.397 2.767 1.598c1.14-1.366 1.919-3.374 2.295-4.506-1.047 2.173-1.82 3.442-2.4 3.93L4.51 54.373z" fill="#000"/><path d="M6.604 50.266c-.822 1.617-1.64 3.306-2.397 3.931l2.76 1.595c.78-.618 1.593-2.38 2.4-3.931l-2.763-1.595z" fill="#37474F"/><path d="M6.604 50.266c-.317.694-.632 1.387-.99 2.068-.178.34-.366.678-.57 1.008a4.36 4.36 0 0 1-.76.926l-.009-.154 1.387.788 1.368.806-.13.011c.288-.252.537-.544.74-.868.216-.315.414-.646.604-.978.38-.667.74-1.344 1.125-2.012-.323.691-.637 1.387-.992 2.069-.177.34-.36.678-.57 1.008-.21.345-.473.656-.777.922l-.059.051-.07-.04-1.387-.788-1.374-.806-.112-.066.103-.09c.283-.255.531-.548.737-.87.216-.317.416-.646.608-.976l1.128-2.009z" fill="#263238"/><path opacity=".2" d="m7.273 55.966-.203.398 2.766 1.597c1.13-1.366 1.917-3.374 2.294-4.506-1.045 2.173-1.82 3.442-2.398 3.93l-2.459-1.419z" fill="#000"/><path d="M9.369 51.87c-.825 1.617-1.64 3.306-2.398 3.931l2.76 1.579c.78-.617 1.593-2.379 2.399-3.931L9.369 51.87z" fill="#37474F"/><path d="M9.369 51.87c-.317.694-.633 1.387-.992 2.067-.179.34-.365.678-.57 1.01a4.292 4.292 0 0 1-.76.924l-.017-.163 1.387.788 1.374.806-.13.011a3.96 3.96 0 0 0 .738-.868c.218-.315.416-.646.606-.978.38-.667.739-1.344 1.123-2.012-.321.691-.635 1.387-.99 2.069-.177.34-.363.678-.57 1.009a4.043 4.043 0 0 1-.77.925l-.059.051-.07-.04-1.387-.788-1.374-.806-.114-.066.105-.09a4.27 4.27 0 0 0 .735-.87c.219-.317.418-.646.61-.976L9.37 51.87z" fill="#263238"/><path opacity=".2" d="m10.038 57.57-.206.38 2.767 1.598c1.14-1.366 1.919-3.375 2.295-4.507-1.045 2.174-1.82 3.443-2.398 3.931l-2.458-1.402z" fill="#000"/><path d="M12.133 53.455c-.824 1.617-1.64 3.306-2.4 3.93l2.763 1.595c.777-.618 1.59-2.379 2.398-3.931l-2.76-1.594z" fill="#37474F"/><path d="M12.133 53.455c-.317.693-.632 1.387-.991 2.067-.179.34-.365.678-.57 1.009a4.36 4.36 0 0 1-.76.925l-.01-.154 1.387.789 1.368.809-.13.011c.287-.253.535-.545.738-.868.217-.315.414-.646.606-.978.38-.667.74-1.344 1.123-2.012-.323.691-.636 1.387-.99 2.069-.178.34-.363.678-.57 1.008-.21.345-.469.657-.77.926l-.06.051-.069-.04-1.386-.788-1.376-.806-.112-.066.104-.09a4.27 4.27 0 0 0 .736-.87c.218-.317.416-.646.608-.977l1.124-2.015z" fill="#263238"/><path opacity=".2" d="m12.8 59.155-.203.397 2.766 1.598c1.14-1.367 1.92-3.375 2.296-4.507-1.047 2.173-1.82 3.443-2.4 3.93L12.8 59.156z" fill="#000"/><path d="M14.896 55.049c-.823 1.617-1.64 3.306-2.398 3.93l2.76 1.595c.78-.618 1.593-2.379 2.4-3.931l-2.762-1.594z" fill="#37474F"/><path opacity=".15" d="M14.896 55.049c-.823 1.617-1.64 3.306-2.398 3.93l2.76 1.595c.78-.618 1.593-2.379 2.4-3.931l-2.762-1.594z" fill="#000"/><path d="M14.896 55.049c-.317.693-.633 1.387-.99 2.067-.179.34-.367.678-.57 1.009a4.36 4.36 0 0 1-.76.925l-.017-.15 1.387.788 1.374.806-.13.011c.287-.252.536-.544.74-.868.22-.319.41-.65.6-.982.38-.667.74-1.343 1.125-2.012-.323.691-.637 1.387-.992 2.069-.177.34-.361.678-.57 1.009a3.989 3.989 0 0 1-.76.925l-.059.051-.07-.04-1.391-.788-1.376-.806-.112-.066.103-.09c.283-.255.531-.548.737-.87.217-.317.416-.646.608-.976l1.123-2.012z" fill="#263238"/><path opacity=".2" d="m15.565 60.749-.204.397 2.767 1.598c1.14-1.366 1.917-3.375 2.293-4.507-1.041 2.183-1.82 3.443-2.398 3.931l-2.458-1.42z" fill="#000"/><path d="M17.67 56.643c-.825 1.617-1.64 3.306-2.398 3.93l2.76 1.595c.78-.617 1.593-2.379 2.399-3.931l-2.761-1.594z" fill="#37474F"/><path d="M17.67 56.643c-.317.693-.633 1.387-.992 2.067-.178.34-.365.678-.57 1.009a4.292 4.292 0 0 1-.76.925v-.154l1.387.789 1.374.805-.13.012c.287-.253.535-.545.738-.868.218-.316.416-.647.606-.979.38-.667.74-1.343 1.123-2.012-.321.691-.635 1.387-.99 2.069-.177.34-.363.678-.57 1.009a4.045 4.045 0 0 1-.76.925l-.059.051-.07-.04-1.387-.788-1.41-.806-.114-.066.104-.09c.283-.255.53-.548.736-.87.218-.317.418-.645.61-.976l1.134-2.012z" fill="#263238"/><path opacity=".2" d="m18.33 62.343-.204.397 2.774 1.598c1.14-1.366 1.917-3.375 2.293-4.507-1.045 2.174-1.82 3.443-2.398 3.931l-2.466-1.42z" fill="#000"/><path d="M20.425 58.237c-.825 1.615-1.64 3.306-2.4 3.931l2.763 1.594c.779-.617 1.59-2.379 2.398-3.931l-2.761-1.594z" fill="#37474F"/><path d="M20.425 58.237c-.317.693-.633 1.387-.992 2.067-.178.34-.365.678-.57 1.007a4.267 4.267 0 0 1-.76.927v-.154l1.387.789 1.376.806-.13.01c.286-.252.535-.544.738-.867.216-.316.414-.646.606-.979.38-.667.739-1.343 1.123-2.012-.323.692-.635 1.387-.99 2.067-.179.342-.363.68-.57 1.011a4.045 4.045 0 0 1-.76.925l-.06.052-.07-.04-1.386-.789-1.374-.805-.114-.067.104-.09c.283-.256.53-.548.736-.87.218-.317.416-.645.61-.976l1.096-2.012z" fill="#263238"/><path opacity=".2" d="m21.09 63.937-.203.397 2.768 1.596c1.14-1.366 1.919-3.374 2.295-4.507-1.047 2.176-1.82 3.445-2.39 3.937l-2.47-1.423z" fill="#000"/><path d="M23.18 59.831c-.823 1.615-1.64 3.304-2.398 3.931l2.778 1.598c.779-.617 1.592-2.379 2.4-3.931l-2.78-1.598z" fill="#37474F"/><path d="M23.18 59.831c-.317.694-.633 1.387-.99 2.067-.178.34-.365.678-.57 1.007a4.32 4.32 0 0 1-.76.927l-.01-.154 1.388.789 1.373.806-.129.011c.287-.252.536-.545.74-.868.216-.316.413-.646.603-.979.38-.667.741-1.343 1.125-2.012-.323.692-.636 1.387-.992 2.067-.176.342-.36.68-.57 1.011a3.99 3.99 0 0 1-.77.925l-.058.052-.07-.04-1.385-.789-1.376-.811-.112-.067.102-.089c.284-.256.531-.549.738-.87.216-.317.416-.646.608-.977l1.115-2.006z" fill="#263238"/><path opacity=".2" d="m23.856 65.531-.203.399 2.767 1.598c1.14-1.366 1.917-3.375 2.293-4.507-1.045 2.174-1.82 3.443-2.398 3.931l-2.459-1.421z" fill="#000"/><path d="M25.952 61.425c-.825 1.615-1.632 3.304-2.392 3.935l2.76 1.594c.78-.617 1.593-2.379 2.398-3.931l-2.766-1.598z" fill="#37474F"/><path d="M25.952 61.425c-.317.694-.633 1.387-.992 2.067-.178.34-.364.679-.57 1.007a4.254 4.254 0 0 1-.76.928v-.154l1.387.788 1.374.806-.13.01c.288-.252.536-.544.738-.867.219-.316.416-.646.606-.979.38-.667.74-1.343 1.123-2.012-.321.692-.635 1.387-.99 2.067-.177.342-.363.68-.57 1.011a4.045 4.045 0 0 1-.76.925l-.059.052-.07-.04-1.387-.789-1.374-.805-.114-.067.105-.089c.282-.256.53-.549.735-.87.218-.317.418-.646.61-.977l1.098-2.012z" fill="#263238"/><path opacity=".2" d="m26.62 67.123-.202.4 2.766 1.597c1.14-1.366 1.917-3.374 2.293-4.507-1.045 2.174-1.82 3.443-2.398 3.931l-2.458-1.42z" fill="#000"/><path d="M28.717 63.02c-.825 1.614-1.64 3.303-2.398 3.93l2.76 1.594c.78-.617 1.59-2.378 2.398-3.93l-2.76-1.595z" fill="#37474F"/><path d="M28.717 63.02c-.318.693-.633 1.386-.992 2.066-.179.34-.365.679-.57 1.007a4.267 4.267 0 0 1-.76.928v-.154l1.387.788 1.375.806-.129.01c.286-.252.535-.544.737-.867.217-.316.415-.646.607-.979.38-.666.739-1.345 1.122-2.012-.323.692-.634 1.387-.99 2.067-.178.342-.362.68-.57 1.011a4.047 4.047 0 0 1-.769.926l-.059.05-.07-.039-1.387-.788-1.374-.806-.114-.067.105-.089c.275-.258.515-.551.714-.872.218-.315.418-.644.61-.975l1.127-2.012z" fill="#263238"/><path opacity=".2" d="m29.384 68.717-.204.4 2.767 1.597c1.14-1.366 1.52-2.926 1.886-4.058-1.047 2.173-1.411 2.994-1.99 3.482l-2.46-1.42z" fill="#000"/><path d="M31.48 64.613c-.823 1.615-1.64 3.304-2.399 3.931l2.761 1.594c.78-.617 1.184-1.93 1.991-3.482l-2.354-2.043z" fill="#37474F"/><path d="M31.48 64.613c-.318.694-.634 1.387-.99 2.067-.18.34-.365.679-.57 1.007a4.323 4.323 0 0 1-.76.928l-.01-.154 1.387.788 1.373.806-.129.01c.254-.216.47-.473.639-.76.178-.282.334-.57.484-.875.298-.596.597-1.199.937-1.782-.28.608-.525 1.222-.8 1.832a10.3 10.3 0 0 1-.45.906 3.163 3.163 0 0 1-.671.817l-.06.05-.071-.038-1.389-.781-1.376-.806-.112-.067.103-.089c.284-.256.532-.55.737-.872.217-.315.416-.644.608-.976l1.12-2.01z" fill="#263238"/><path opacity=".2" d="m32.148 70.311-.203.4 2.766 1.597c1.14-1.366 1.509-2.926 1.885-4.058-1.045 2.174-1.412 2.994-1.99 3.483l-2.458-1.422z" fill="#000"/><path d="M33.835 66.656c-.824 1.617-1.231 2.85-1.99 3.482l2.762 1.595c.779-.618 1.183-1.93 1.989-3.483l-2.76-1.594z" fill="#37474F"/><path d="M33.835 66.656c-.273.608-.522 1.221-.8 1.83-.138.303-.283.608-.454.904-.176.307-.4.584-.665.819v-.154l1.387.788 1.374.806h-.13c.254-.216.47-.473.637-.76.178-.283.34-.574.487-.874.298-.597.594-1.199.934-1.782-.277.608-.524 1.221-.798 1.831a10.3 10.3 0 0 1-.45.907 3.128 3.128 0 0 1-.672.817l-.061.05-.069-.039-1.387-.788-1.373-.806-.114-.068.104-.088c.25-.218.465-.474.635-.76.178-.281.336-.57.49-.872.29-.576.59-1.176.925-1.761z" fill="#263238"/><path opacity=".2" d="m6.251 51.368-.205.398 1.577.925c1.14-1.366 1.917-3.375 2.293-4.507-1.045 2.174-1.82 3.443-2.398 3.931l-1.267-.747z" fill="#000"/><path d="M8.347 47.263c-.825 1.616-1.64 3.306-2.4 3.93l2.763 1.595c.777-.618 1.59-2.38 2.397-3.931l-2.76-1.594z" fill="#37474F"/><path d="M8.347 47.263c-.318.693-.633 1.387-.992 2.067-.179.34-.365.678-.57 1.009a4.301 4.301 0 0 1-.76.925l-.01-.154 1.387.788 1.376.806-.13.011c.287-.252.535-.545.738-.868.217-.315.414-.646.606-.978.38-.667.74-1.344 1.123-2.012-.323.693-.636 1.387-.99 2.069-.179.34-.363.678-.57 1.009a4.094 4.094 0 0 1-.76.925l-.06.051-.07-.04-1.386-.788-1.389-.806-.112-.066.104-.09a4.27 4.27 0 0 0 .736-.87c.218-.317.416-.646.608-.976l1.12-2.012z" fill="#263238"/><path opacity=".2" d="m18.7 58.562-.203.397 2.766 1.598c1.132-1.366 1.917-3.367 2.297-4.507-1.047 2.174-1.82 3.443-2.4 3.931l-2.46-1.42zM7.644 52.19l-.205.396 2.766 1.598c1.14-1.366 1.919-3.374 2.295-4.507-1.045 2.174-1.82 3.443-2.398 3.931L7.644 52.19z" fill="#000"/><path d="M9.74 48.083c-.825 1.615-1.64 3.304-2.4 3.931l2.762 1.594c.777-.617 1.59-2.378 2.398-3.93l-2.76-1.595z" fill="#37474F"/><path d="M9.74 48.083c-.318.694-.633 1.387-.992 2.068-.179.34-.365.678-.57 1.006a4.323 4.323 0 0 1-.76.928v-.154l1.387.788 1.375.806-.129.011c.286-.253.534-.545.737-.868.217-.315.414-.646.606-.978.38-.667.74-1.344 1.123-2.013-.323.692-.636 1.387-.99 2.068-.178.342-.363.68-.57 1.01a4.094 4.094 0 0 1-.76.926l-.06.051-.069-.04-1.387-.788-1.375-.806-.113-.066.105-.09c.282-.256.53-.549.735-.87.219-.317.416-.646.608-.977l1.098-2.012z" fill="#263238"/><path opacity=".2" d="m10.406 53.783-.203.397 2.766 1.598c1.14-1.366 1.92-3.374 2.296-4.506-1.047 2.173-1.82 3.442-2.4 3.93l-2.459-1.419z" fill="#000"/><path d="M12.502 49.677c-.823 1.615-1.64 3.304-2.398 3.931l2.76 1.595c.78-.618 1.593-2.38 2.4-3.931l-2.762-1.595z" fill="#37474F"/><path d="M12.502 49.677c-.317.694-.633 1.387-.99 2.068-.178.34-.367.678-.57 1.007a4.323 4.323 0 0 1-.76.927v-.154l1.387.788 1.351.806h-.13c.288-.251.537-.543.74-.866.216-.316.414-.646.604-.979.38-.667.74-1.345 1.125-2.012-.323.692-.637 1.387-.992 2.067-.177.342-.36.68-.57 1.011a3.991 3.991 0 0 1-.77.925l-.058.052-.07-.04-1.386-.789-1.375-.805-.112-.067.102-.09c.284-.256.532-.55.737-.871.217-.316.416-.644.608-.975l1.129-2.003z" fill="#263238"/><path opacity=".2" d="m13.17 55.376-.203.399 2.767 1.605c1.14-1.366 1.917-3.374 2.293-4.507-1.045 2.174-1.82 3.443-2.398 3.931l-2.458-1.428z" fill="#000"/><path d="M15.267 51.272c-.825 1.614-1.64 3.304-2.398 3.93l2.76 1.595c.78-.618 1.593-2.38 2.398-3.931l-2.76-1.594z" fill="#37474F"/><path d="M15.267 51.272c-.318.693-.633 1.386-.992 2.067-.179.34-.365.678-.57 1.007a4.256 4.256 0 0 1-.76.927v-.154l1.387.788 1.373.806-.129.01c.281-.252.524-.542.722-.863.219-.315.416-.646.606-.978.38-.667.74-1.346 1.123-2.013-.32.692-.634 1.387-.99 2.068-.176.342-.363.68-.57 1.01a4.045 4.045 0 0 1-.76.926l-.059.051-.07-.04-1.387-.788-1.383-.806-.114-.066.104-.09c.283-.256.53-.55.736-.872.218-.315.418-.644.61-.977l1.123-2.013z" fill="#263238"/><path opacity=".2" d="m15.935 56.97-.203.399 2.765 1.598c1.14-1.367 1.919-3.375 2.295-4.507-1.045 2.173-1.82 3.443-2.398 3.93l-2.459-1.42z" fill="#000"/><path d="M18.031 52.866c-.825 1.615-1.64 3.304-2.4 3.93l2.763 1.595c.779-.618 1.59-2.379 2.398-3.931l-2.761-1.594z" fill="#37474F"/><path d="M18.031 52.866c-.317.693-.633 1.387-.992 2.067-.178.34-.365.678-.57 1.007a4.267 4.267 0 0 1-.76.927v-.154l1.387.789 1.376.805-.13.01c.286-.252.535-.544.738-.867.216-.315.414-.646.606-.978.38-.667.739-1.345 1.123-2.012-.323.691-.635 1.387-.99 2.067-.179.342-.363.68-.57 1.01a4.094 4.094 0 0 1-.76.926l-.06.051-.07-.04-1.386-.788-1.393-.806-.114-.066.104-.09c.28-.254.525-.545.728-.864.219-.315.416-.644.61-.977l1.123-2.017z" fill="#263238"/><path d="M20.78 54.435c-.79 1.604-1.571 3.28-2.318 3.899l2.812 1.6c.76-.61 1.545-2.358 2.318-3.9l-2.812-1.599z" fill="#37474F"/><path d="M20.78 54.435c-.302.688-.602 1.376-.95 2.052-.17.336-.351.673-.553 1a4.12 4.12 0 0 1-.744.917l-.014-.154 1.412.792 1.4.808-.129.011c.281-.25.524-.539.722-.858.21-.314.401-.64.585-.971.363-.663.71-1.33 1.081-1.997-.307.688-.606 1.377-.95 2.052-.17.338-.347.674-.549 1.003a3.917 3.917 0 0 1-.76.916l-.059.051-.07-.04-1.412-.792-1.4-.81-.116-.066.103-.087c.278-.253.52-.543.718-.863.213-.313.405-.64.59-.969l1.095-1.995z" fill="#263238"/><path opacity=".2" d="m21.47 60.158-.203.399 2.766 1.598c1.14-1.366 1.917-3.375 2.293-4.507-1.045 2.173-1.82 3.443-2.397 3.931l-2.459-1.421z" fill="#000"/><path d="M23.56 56.05c-.825 1.615-1.64 3.304-2.398 3.931l2.76 1.594c.78-.617 1.593-2.379 2.399-3.93L23.56 56.05z" fill="#37474F"/><path opacity=".15" d="M23.56 56.05c-.825 1.615-1.64 3.304-2.398 3.931l2.76 1.594c.78-.617 1.593-2.379 2.399-3.93L23.56 56.05z" fill="#000"/><path d="M23.56 56.05c-.317.694-.633 1.387-.992 2.067-.178.34-.365.678-.57 1.007a4.256 4.256 0 0 1-.76.927v-.154l1.387.789 1.374.806h-.13c.287-.253.536-.544.74-.867.216-.315.414-.646.604-.978.38-.667.74-1.346 1.123-2.012-.321.691-.635 1.387-.99 2.067-.177.342-.363.68-.57 1.01a4.045 4.045 0 0 1-.76.926l-.059.051-.07-.04-1.387-.788-1.374-.806-.114-.066.105-.09c.282-.256.53-.55.735-.872.218-.315.418-.644.61-.976l1.098-2.001z" fill="#263238"/><path opacity=".2" d="m24.227 61.75-.203.399 2.766 1.6c1.13-1.366 1.917-3.375 2.293-4.507-1.045 2.174-1.82 3.443-2.397 3.931l-2.46-1.423z" fill="#000"/><path d="M26.323 57.648c-.825 1.615-1.64 3.304-2.398 3.931l2.76 1.594c.78-.617 1.59-2.379 2.398-3.931l-2.76-1.594z" fill="#37474F"/><path d="M26.323 57.648c-.318.693-.633 1.387-.992 2.067-.179.34-.365.678-.57 1.007a4.267 4.267 0 0 1-.76.927v-.154l1.387.789 1.375.806-.129.009c.286-.252.534-.544.737-.866.217-.316.415-.646.607-.979.38-.667.739-1.345 1.122-2.012-.323.692-.634 1.387-.99 2.067-.178.342-.362.68-.57 1.011a4.045 4.045 0 0 1-.769.925l-.059.052-.07-.04-1.387-.79-1.374-.806-.114-.065.105-.09c.282-.256.53-.55.735-.871.218-.316.416-.644.61-.977l1.106-2.01z" fill="#263238"/><path opacity=".2" d="m26.99 63.346-.2.399 2.766 1.598c1.14-1.366 1.92-3.375 2.296-4.507-1.047 2.174-1.82 3.443-2.4 3.931l-2.463-1.421z" fill="#000"/><path d="M29.085 59.242c-.823 1.615-1.64 3.304-2.398 3.931l2.763 1.594c.779-.617 1.592-2.379 2.4-3.93l-2.765-1.595z" fill="#37474F"/><path d="M29.085 59.242c-.317.694-.633 1.387-.99 2.067-.178.34-.364.678-.57 1.007a4.32 4.32 0 0 1-.76.927l-.01-.154 1.388.789 1.373.806-.129.01a3.96 3.96 0 0 0 .74-.867c.216-.316.414-.646.604-.979.38-.667.74-1.345 1.124-2.012-.323.692-.636 1.387-.991 2.067-.177.342-.361.68-.57 1.011a4.074 4.074 0 0 1-.76.925l-.061.05-.069-.038-1.387-.79-1.375-.806-.112-.065.102-.09a4.23 4.23 0 0 0 .737-.871c.217-.316.417-.644.608-.977l1.108-2.01z" fill="#263238"/><path opacity=".2" d="m29.754 64.94-.203.4 2.766 1.597c1.14-1.366 1.92-3.374 2.293-4.507-1.045 2.174-1.82 3.443-2.397 3.931l-2.459-1.42z" fill="#000"/><path d="M31.85 60.836c-.825 1.615-1.64 3.304-2.398 3.93l2.76 1.595c.78-.617 1.593-2.379 2.398-3.93l-2.76-1.595z" fill="#37474F"/><path d="M31.85 60.836c-.318.694-.633 1.387-.99 2.067-.18.34-.367.679-.57 1.007a4.254 4.254 0 0 1-.76.928v-.154l1.387.788 1.373.806-.129.01c.287-.253.535-.545.74-.867.216-.318.414-.646.604-.979.38-.667.739-1.345 1.122-2.012-.32.692-.634 1.387-.99 2.067-.176.342-.36.68-.57 1.011a4.036 4.036 0 0 1-.76.925l-.058.05-.07-.038-1.388-.79-1.373-.806-.114-.065.104-.089c.283-.257.53-.55.735-.872.219-.316.418-.644.61-.977l1.097-2.01z" fill="#263238"/><path opacity=".2" d="m32.519 66.534-.204.4 2.767 1.597c1.14-1.366 1.917-3.374 2.293-4.507-1.045 2.174-1.82 3.443-2.398 3.931l-2.458-1.42z" fill="#000"/><path d="M34.614 62.43c-.824 1.615-1.64 3.304-2.398 3.93l2.761 1.595c.78-.617 1.592-2.378 2.398-3.93l-2.76-1.595z" fill="#37474F"/><path d="M34.614 62.43c-.317.694-.633 1.387-.992 2.067-.178.34-.364.679-.57 1.007a4.267 4.267 0 0 1-.76.928v-.154l1.386.788 1.375.806h-.13c.287-.252.535-.544.738-.867.217-.317.414-.646.606-.978.38-.667.74-1.345 1.123-2.012-.323.691-.635 1.387-.99 2.067-.178.342-.363.68-.57 1.01-.21.346-.469.657-.77.926l-.058.05-.07-.038-1.388-.79-1.373-.806-.114-.067.104-.087c.283-.257.53-.55.736-.873.218-.315.418-.644.61-.976l1.107-2z" fill="#263238"/><path opacity=".2" d="m8.113 48.01-.205.398 2.766 1.598c1.14-1.366 1.92-3.374 2.295-4.507-1.046 2.174-1.82 3.443-2.397 3.931l-2.459-1.42z" fill="#000"/><path d="M10.209 43.905c-.825 1.615-1.64 3.304-2.4 3.931l2.763 1.594c.777-.617 1.59-2.378 2.397-3.93l-2.76-1.595z" fill="#37474F"/><path d="M10.209 43.905c-.318.694-.633 1.387-.992 2.067-.179.34-.365.679-.57 1.007a4.322 4.322 0 0 1-.76.928v-.154l1.387.788 1.366.806h-.13c.288-.251.537-.543.74-.867.216-.315.414-.646.604-.978.38-.667.741-1.345 1.125-2.012-.323.691-.637 1.387-.99 2.067-.179.342-.363.68-.57 1.01a4.094 4.094 0 0 1-.76.926l-.06.051-.07-.04-1.409-.779-1.376-.805-.112-.067.103-.089c.284-.256.532-.55.737-.872.217-.315.416-.644.608-.977l1.129-2.01z" fill="#263238"/><path opacity=".2" d="m10.876 49.603-.204.4L13.44 51.6c1.14-1.366 1.919-3.374 2.295-4.507-1.047 2.174-1.82 3.447-2.4 3.931l-2.458-1.42z" fill="#000"/><path d="M12.971 45.5c-.822 1.614-1.64 3.303-2.398 3.93l2.761 1.595c.78-.618 1.592-2.38 2.398-3.932l-2.76-1.594z" fill="#37474F"/><path d="M12.971 45.5c-.317.693-.632 1.386-.99 2.066-.19.34-.366.679-.57 1.008a4.323 4.323 0 0 1-.76.927l-.01-.154 1.388.788 1.374.806-.13.01c.287-.253.536-.544.74-.867.216-.315.414-.646.604-.979.38-.666.739-1.345 1.123-2.012-.322.692-.635 1.387-.99 2.068-.177.342-.361.68-.57 1.01a3.993 3.993 0 0 1-.76.926l-.06.051-.07-.04-1.386-.788-1.374-.806-.112-.067.102-.089c.283-.256.53-.55.736-.872.218-.315.418-.644.61-.976l1.105-2.01z" fill="#263238"/><path opacity=".2" d="m13.64 51.197-.203.4 2.766 1.603c1.14-1.366 1.917-3.374 2.294-4.507-1.046 2.174-1.82 3.443-2.398 3.931l-2.459-1.427z" fill="#000"/><path d="M15.736 47.093c-.825 1.615-1.64 3.304-2.398 3.931l2.76 1.595c.78-.618 1.593-2.38 2.399-3.931l-2.761-1.595z" fill="#37474F"/><path d="M15.736 47.093c-.318.694-.633 1.387-.992 2.068-.179.34-.365.678-.57 1.007a4.312 4.312 0 0 1-.76.927v-.154l1.385.788 1.376.806-.13.01a3.95 3.95 0 0 0 .722-.865c.219-.315.415-.646.607-.978.38-.667.739-1.346 1.123-2.013-.322.692-.635 1.387-.99 2.068-.177.342-.363.68-.57 1.01a4.045 4.045 0 0 1-.76.926l-.06.051-.07-.04-1.387-.788-1.383-.806-.114-.066.105-.09c.283-.256.53-.55.735-.872.219-.315.418-.644.61-.977l1.123-2.012z" fill="#263238"/><path opacity=".2" d="m16.405 52.791-.206.409 2.767 1.598c1.14-1.366 1.919-3.375 2.295-4.507-1.047 2.174-1.82 3.443-2.398 3.931l-2.458-1.43z" fill="#000"/><path d="M18.5 48.688c-.824 1.614-1.64 3.304-2.4 3.93l2.763 1.595c.777-.618 1.59-2.38 2.398-3.931l-2.76-1.594z" fill="#37474F"/><path d="M18.5 48.688c-.317.693-.632 1.386-.991 2.067-.18.34-.365.678-.57 1.007a4.32 4.32 0 0 1-.76.927v-.154l1.387.789 1.375.805-.13.01c.287-.253.535-.544.738-.867.217-.315.414-.646.606-.978.38-.667.74-1.345 1.123-2.012-.323.691-.636 1.387-.99 2.067-.178.342-.363.68-.57 1.01a4.094 4.094 0 0 1-.76.926l-.06.051-.069-.04-1.387-.788-1.376-.808-.112-.064.103-.09c.274-.256.513-.547.71-.866.219-.315.417-.644.608-.977l1.125-2.016z" fill="#263238"/><path opacity=".2" d="m19.167 54.386-.203.399 2.766 1.598c1.14-1.367 1.92-3.375 2.296-4.507-1.047 2.173-1.82 3.443-2.4 3.93l-2.459-1.42z" fill="#000"/><path d="M21.263 50.282c-.823 1.615-1.64 3.304-2.398 3.93l2.76 1.595c.78-.618 1.593-2.379 2.4-3.931l-2.762-1.594z" fill="#37474F"/><path d="M21.263 50.282c-.317.693-.633 1.387-.99 2.067-.179.34-.367.678-.57 1.007a4.318 4.318 0 0 1-.76.927v-.154l1.387.789 1.374.805-.13.01c.287-.252.536-.544.74-.867.216-.315.414-.646.604-.978.38-.667.739-1.345 1.125-2.012-.323.691-.637 1.387-.992 2.067-.177.342-.361.68-.57 1.01a4.036 4.036 0 0 1-.76.926l-.06.051-.07-.04-1.413-.79-1.368-.806-.112-.064.102-.09c.284-.256.532-.55.738-.872.216-.315.416-.644.608-.976l1.117-2.01z" fill="#263238"/><path opacity=".2" d="m21.932 55.98-.204.399 2.767 1.598c1.14-1.366 1.917-3.375 2.293-4.507-1.045 2.173-1.82 3.443-2.398 3.93l-2.458-1.42z" fill="#000"/><path d="M24.027 51.87c-.824 1.615-1.64 3.304-2.397 3.93l2.76 1.595c.78-.617 1.593-2.379 2.398-3.93l-2.76-1.595z" fill="#37474F"/><path d="M24.027 51.87c-.317.694-.632 1.387-.991 2.067-.179.34-.365.678-.57 1.007a4.256 4.256 0 0 1-.76.927v-.154l1.387.789 1.373.806-.129.01c.286-.253.535-.544.737-.867.219-.318.416-.646.606-.979.38-.667.74-1.345 1.123-2.012-.32.692-.634 1.387-.99 2.067-.176.342-.362.68-.57 1.011-.209.345-.468.657-.77.925l-.058.05-.07-.038-1.387-.79-1.374-.806-.114-.065.105-.09c.282-.256.53-.549.735-.871.218-.316.418-.644.61-.977l1.107-2.01z" fill="#263238"/><path opacity=".2" d="m24.7 57.57-.205.399 2.766 1.598c1.14-1.366 1.92-3.374 2.295-4.507-1.056 2.177-1.816 3.447-2.401 3.935L24.7 57.57z" fill="#000"/><path d="M26.79 53.47c-.825 1.615-1.64 3.304-2.4 3.929l2.763 1.596c.777-.617 1.59-2.379 2.398-3.931L26.79 53.47z" fill="#37474F"/><path d="M26.79 53.47c-.317.693-.633 1.387-.992 2.067-.178.34-.365.678-.57 1.007a4.32 4.32 0 0 1-.76.927l-.01-.154 1.388.789 1.375.805-.129.01c.286-.252.534-.544.737-.867.217-.317.415-.646.606-.978.38-.667.74-1.345 1.123-2.012-.323.691-.636 1.387-.99 2.067-.178.342-.363.68-.57 1.01-.21.345-.469.657-.77.926l-.06.05-.068-.038-1.387-.79-1.376-.806-.112-.067.104-.087c.283-.257.53-.55.736-.872.218-.316.416-.645.608-.977l1.117-2.01z" fill="#263238"/><path opacity=".2" d="m27.459 59.168-.203.399 2.764 1.598c1.14-1.366 1.919-3.375 2.295-4.507-1.047 2.174-1.82 3.443-2.4 3.931l-2.456-1.421z" fill="#000"/><path d="M29.555 55.064c-.823 1.615-1.64 3.304-2.398 3.93l2.76 1.595c.78-.617 1.593-2.379 2.4-3.931l-2.762-1.594z" fill="#37474F"/><path d="M29.555 55.064c-.318.693-.633 1.387-.99 2.067-.179.34-.367.678-.57 1.007a4.32 4.32 0 0 1-.76.927l-.01-.154 1.387.789 1.374.805-.13.01a3.96 3.96 0 0 0 .74-.866c.216-.318.414-.646.604-.979.38-.667.739-1.345 1.125-2.012-.323.692-.637 1.387-.992 2.067-.177.342-.361.68-.57 1.011-.21.345-.469.657-.77.925l-.058.05-.07-.038-1.386-.79-1.375-.806-.113-.067.103-.087c.284-.257.531-.55.737-.872.217-.316.416-.644.608-.977l1.116-2.01z" fill="#263238"/><path opacity=".2" d="m30.223 60.762-.203.399 2.766 1.598c1.13-1.366 1.917-3.374 2.294-4.507-1.045 2.174-1.82 3.443-2.398 3.93l-2.459-1.42z" fill="#000"/><path d="M32.319 56.658c-.825 1.615-1.64 3.304-2.398 3.93l2.759 1.593c.779-.615 1.592-2.377 2.398-3.929l-2.759-1.594z" fill="#37474F"/><path d="M32.319 56.658c-.317.694-.633 1.387-.992 2.067-.178.34-.365.678-.57 1.007a4.254 4.254 0 0 1-.76.927v-.155l1.387.79 1.374.806-.13.01c.287-.253.535-.544.738-.867.218-.318.416-.646.606-.979.38-.667.74-1.345 1.123-2.012-.321.692-.635 1.387-.99 2.067-.177.342-.363.68-.57 1.011a4.129 4.129 0 0 1-.76.925l-.059.05-.07-.038-1.387-.79-1.374-.806-.114-.067.105-.087c.282-.257.53-.55.735-.872.218-.316.418-.644.61-.977l1.098-2.01z" fill="#263238"/><path opacity=".2" d="m32.988 62.356-.203.4 2.764 1.597c1.14-1.366 1.919-3.374 2.295-4.507-1.045 2.174-1.82 3.443-2.398 3.93l-2.458-1.42z" fill="#000"/><path d="M35.084 58.252c-.825 1.615-1.644 3.308-2.404 3.93l2.763 1.593c.779-.615 1.59-2.377 2.397-3.929l-2.757-1.594z" fill="#37474F"/><path d="M35.084 58.252c-.318.694-.633 1.387-.992 2.067-.179.34-.365.677-.57 1.007a4.267 4.267 0 0 1-.76.928V62.1l1.387.788 1.375.804-.129.011a4 4 0 0 0 .737-.866c.217-.318.415-.646.606-.979.38-.667.74-1.345 1.123-2.012-.323.692-.634 1.387-.99 2.067-.178.342-.363.68-.57 1.011a4.18 4.18 0 0 1-.77.925l-.06.05-.068-.038-1.387-.79-1.374-.806-.114-.067.105-.087c.282-.257.53-.55.735-.872.218-.316.416-.644.61-.977l1.105-2.01z" fill="#263238"/><path opacity=".2" d="m35.754 63.95-.203.4 2.764 1.597c1.14-1.366 1.92-3.376 2.296-4.507-1.045 2.174-1.82 3.441-2.398 3.93l-2.459-1.42z" fill="#000"/><path d="M37.85 59.85c-.825 1.615-1.64 3.304-2.4 3.93l2.763 1.593c.779-.617 1.59-2.379 2.398-3.929L37.85 59.85z" fill="#37474F"/><path d="M37.85 59.85c-.317.694-.633 1.387-.992 2.067-.178.34-.365.677-.57 1.007a4.312 4.312 0 0 1-.76.927v-.155l1.387.788 1.376.806-.13.011a4.05 4.05 0 0 0 .738-.866c.216-.318.414-.646.606-.979.38-.669.739-1.345 1.123-2.012-.323.692-.637 1.385-.99 2.067-.179.34-.363.68-.57 1.011a4.18 4.18 0 0 1-.77.925l-.06.05-.069-.04-1.387-.789-1.374-.805-.114-.067.105-.087c.282-.257.53-.55.735-.872.219-.316.416-.644.608-.977l1.108-2.01z" fill="#263238"/><path opacity=".2" d="m9.827 44.61-.204.397 1.576.925c1.132-1.366 1.911-3.372 2.291-4.512-1.047 2.174-1.82 3.443-2.4 3.931l-1.263-.74z" fill="#000"/><path d="M11.922 40.504c-.822 1.617-1.64 3.306-2.397 3.931l2.76 1.594c.78-.617 1.593-2.378 2.4-3.93l-2.763-1.595z" fill="#37474F"/><path d="M11.922 40.504c-.317.694-.632 1.387-.99 2.067-.178.34-.366.679-.57 1.01a4.36 4.36 0 0 1-.76.925v-.154l1.388.788 1.36.806-.13.011c.288-.252.537-.545.74-.868.216-.316.414-.646.604-.979.38-.666.741-1.343 1.125-2.012-.323.692-.637 1.387-.992 2.07-.177.34-.36.678-.57 1.008a3.991 3.991 0 0 1-.76.926l-.059.05-.07-.039-1.385-.788-1.376-.806-.112-.067.103-.089c.283-.256.531-.548.737-.87.216-.317.416-.646.608-.977l1.11-2.012z" fill="#263238"/><path opacity=".2" d="m11.21 45.442-.19.4 2.766 1.597c1.13-1.366 1.918-3.374 2.294-4.507-1.055 2.174-1.83 3.443-2.4 3.931l-2.47-1.42z" fill="#000"/><path d="M13.31 41.338c-.825 1.615-1.64 3.304-2.398 3.931l2.768 1.595c.779-.618 1.592-2.38 2.398-3.932l-2.768-1.594z" fill="#37474F"/><path d="M13.31 41.338c-.318.694-.633 1.387-.992 2.068-.179.34-.365.678-.57 1.007a4.31 4.31 0 0 1-.76.927v-.154l1.362.794 1.376.806h-.13a4 4 0 0 0 .738-.867c.218-.315.414-.646.606-.978.38-.667.739-1.346 1.123-2.012-.321.691-.635 1.387-.99 2.067-.179.342-.363.68-.57 1.01a4.045 4.045 0 0 1-.762.924l-.06.051-.07-.04-1.386-.788-1.374-.808-.114-.064.104-.09c.283-.256.53-.55.736-.872.218-.315.418-.644.61-.976l1.123-2.005z" fill="#263238"/><path opacity=".2" d="m13.978 47.036-.205.4 2.767 1.597c1.14-1.366 1.919-3.374 2.295-4.507-1.047 2.174-1.82 3.443-2.398 3.932l-2.459-1.422z" fill="#000"/><path d="M16.074 42.94c-.825 1.607-1.634 3.297-2.394 3.924l2.757 1.586c.777-.617 1.59-2.379 2.398-3.931l-2.761-1.579z" fill="#37474F"/><path d="M16.074 42.94c-.317.694-.633 1.387-.992 2.067-.178.34-.365.678-.57 1.007a4.32 4.32 0 0 1-.76.927v-.154l1.387.789 1.376.806-.13.01c.279-.257.52-.551.715-.875.217-.315.414-.646.606-.978.38-.667.74-1.346 1.123-2.013-.323.692-.637 1.387-.99 2.068-.178.342-.363.68-.57 1.01a4.134 4.134 0 0 1-.76.926l-.06.051-.07-.04-1.386-.79-1.376-.806-.112-.064.103-.09a4.23 4.23 0 0 0 .737-.872c.218-.315.416-.644.608-.976l1.121-2.003z" fill="#263238"/><path opacity=".2" d="m16.74 48.64-.21.39 2.766 1.597c1.14-1.366 1.92-3.374 2.296-4.506-1.047 2.173-1.82 3.442-2.4 3.93L16.74 48.64z" fill="#000"/><path d="M18.837 44.526c-.823 1.615-1.64 3.305-2.398 3.932l2.76 1.594c.78-.618 1.593-2.38 2.4-3.931l-2.762-1.595z" fill="#37474F"/><path opacity=".15" d="M18.837 44.526c-.823 1.615-1.64 3.305-2.398 3.932l2.76 1.594c.78-.618 1.593-2.38 2.4-3.931l-2.762-1.595z" fill="#000"/><path d="M18.837 44.526c-.318.694-.633 1.387-.99 2.068-.179.34-.367.678-.57 1.007a4.32 4.32 0 0 1-.76.927v-.154l1.387.788 1.373.806-.129.01c.287-.253.535-.544.74-.867.216-.315.413-.646.603-.978.38-.667.74-1.346 1.123-2.012-.32.691-.634 1.387-.99 2.067-.176.342-.36.68-.57 1.01a4.038 4.038 0 0 1-.76.926l-.058.05-.07-.039-1.388-.79-1.373-.806-.113-.064.103-.09c.272-.258.51-.551.705-.872.218-.315.418-.644.61-.976l1.127-2.01z" fill="#263238"/><path opacity=".2" d="m19.505 50.225-.203.399 2.767 1.597c1.13-1.366 1.917-3.374 2.293-4.506-1.045 2.173-1.82 3.442-2.398 3.93l-2.459-1.42z" fill="#000"/><path d="M21.601 46.12c-.825 1.616-1.64 3.305-2.398 3.93l2.761 1.596c.779-.618 1.592-2.379 2.398-3.931l-2.76-1.594z" fill="#37474F"/><path d="M21.601 46.12c-.317.694-.633 1.388-.992 2.068-.178.34-.365.678-.57 1.007a4.256 4.256 0 0 1-.76.927v-.154l1.385.789 1.376.805-.13.01c.287-.252.535-.544.738-.867.218-.317.416-.646.606-.978.38-.667.74-1.345 1.123-2.012-.321.691-.635 1.387-.99 2.067-.177.342-.363.68-.57 1.01a4.087 4.087 0 0 1-.777.926l-.059.05-.07-.039-1.391-.79-1.374-.806-.114-.066.105-.087c.283-.257.53-.55.735-.873.219-.315.418-.644.61-.976l1.12-2.01z" fill="#263238"/><path opacity=".2" d="m22.27 51.819-.205.399 2.766 1.598c1.14-1.367 1.92-3.375 2.295-4.507-1.047 2.173-1.82 3.443-2.398 3.93l-2.458-1.42z" fill="#000"/><path d="M24.366 47.715c-.825 1.615-1.64 3.304-2.4 3.929l2.762 1.596c.778-.618 1.59-2.379 2.398-3.931l-2.76-1.594z" fill="#37474F"/><path d="M24.366 47.715c-.318.693-.633 1.387-.992 2.067-.179.34-.365.678-.57 1.007a4.318 4.318 0 0 1-.76.927v-.154l1.387.789 1.375.805-.129.01a4 4 0 0 0 .737-.867c.217-.317.415-.646.606-.978.38-.667.74-1.345 1.123-2.012-.323.691-.636 1.387-.99 2.067-.178.342-.362.68-.57 1.01-.21.345-.47.656-.769.926l-.06.05-.07-.038-1.386-.79-1.376-.806-.112-.067.105-.087c.283-.257.53-.55.735-.872.218-.316.416-.645.608-.977l1.108-2.01z" fill="#263238"/><path opacity=".2" d="m25.032 53.413-.203.399 2.767 1.598c1.14-1.366 1.919-3.375 2.295-4.507-1.047 2.174-1.82 3.443-2.4 3.931l-2.459-1.421z" fill="#000"/><path d="M27.128 49.309c-.823 1.615-1.64 3.304-2.398 3.929l2.761 1.596c.78-.617 1.592-2.379 2.4-3.931l-2.763-1.594z" fill="#37474F"/><path d="M27.128 49.309c-.317.693-.633 1.387-.99 2.067-.178.34-.366.678-.57 1.007a4.323 4.323 0 0 1-.76.927l-.01-.154 1.388.789 1.373.805h-.129a3.96 3.96 0 0 0 .74-.866c.216-.317.414-.646.604-.978.38-.667.739-1.346 1.124-2.013-.323.692-.636 1.387-.991 2.068-.177.342-.361.68-.57 1.01a4.079 4.079 0 0 1-.76.926l-.06.05-.07-.039-1.387-.79-1.373-.806-.112-.066.102-.088c.284-.256.532-.55.737-.872.217-.315.416-.644.608-.977l1.106-2z" fill="#263238"/><path opacity=".2" d="m27.797 55.007-.203.399L30.36 57c1.14-1.366 1.917-3.374 2.293-4.507-1.045 2.174-1.82 3.443-2.397 3.93l-2.459-1.416z" fill="#000"/><path d="M29.893 50.903c-.825 1.615-1.64 3.304-2.398 3.93l2.76 1.597c.78-.616 1.593-2.377 2.398-3.93l-2.76-1.597z" fill="#37474F"/><path d="M29.893 50.903c-.318.693-.633 1.387-.992 2.067-.179.34-.365.677-.57 1.007a4.256 4.256 0 0 1-.76.927l-.01-.156 1.387.79 1.374.805-.13.011c.287-.252.535-.544.738-.866.219-.318.416-.646.606-.979.38-.667.74-1.345 1.123-2.012-.321.692-.634 1.387-.99 2.067-.177.342-.363.68-.57 1.011-.21.344-.469.656-.77.925l-.058.05-.07-.038-1.387-.79-1.38-.812-.114-.066.105-.088c.282-.257.53-.55.735-.872.218-.315.418-.644.61-.977l1.123-2.004z" fill="#263238"/><path opacity=".2" d="m30.561 56.601-.205.399 2.767 1.598c1.14-1.366 1.919-3.374 2.295-4.507-1.045 2.174-1.82 3.443-2.398 3.93l-2.459-1.42z" fill="#000"/><path d="M32.657 52.497c-.824 1.615-1.64 3.304-2.4 3.93l2.763 1.593c.78-.615 1.59-2.377 2.398-3.929l-2.76-1.594z" fill="#37474F"/><path d="M32.657 52.497c-.317.694-.632 1.387-.992 2.067-.178.34-.364.677-.57 1.007a4.27 4.27 0 0 1-.76.927l-.01-.155 1.388.788 1.376.806-.13.011c.286-.252.534-.544.737-.866.217-.318.415-.646.607-.979.38-.667.739-1.345 1.123-2.012-.324.692-.637 1.387-.99 2.067-.179.34-.363.68-.57 1.011a4.18 4.18 0 0 1-.76.925l-.061.05-.069-.04-1.387-.789-1.373-.805-.114-.067.104-.087c.283-.257.53-.55.736-.872.218-.316.416-.644.607-.977l1.108-2.01z" fill="#263238"/><path opacity=".2" d="m33.324 58.195-.203.4 2.766 1.597c1.14-1.366 1.92-3.374 2.295-4.507-1.047 2.174-1.82 3.443-2.4 3.93l-2.458-1.42z" fill="#000"/><path d="M35.42 54.091c-.823 1.615-1.64 3.304-2.398 3.93l2.76 1.593c.78-.615 1.593-2.377 2.4-3.929l-2.762-1.594z" fill="#37474F"/><path d="M35.42 54.091c-.318.694-.633 1.387-.99 2.067-.179.34-.367.677-.57 1.007a4.37 4.37 0 0 1-.76.928v-.156l1.387.788 1.374.806-.13.011c.287-.252.536-.544.74-.866.216-.318.414-.646.604-.979.38-.667.74-1.345 1.124-2.012-.322.692-.636 1.385-.991 2.067-.177.34-.361.68-.57 1.011-.21.345-.469.657-.77.925l-.059.05-.07-.04-1.385-.788-1.376-.806-.112-.067.103-.087c.283-.257.531-.55.737-.872.217-.316.416-.644.608-.977l1.106-2.01z" fill="#263238"/><path opacity=".2" d="m36.089 59.79-.204.398 2.767 1.598c1.13-1.366 1.917-3.374 2.293-4.507-1.045 2.174-1.82 3.443-2.398 3.93l-2.458-1.42z" fill="#000"/><path d="M38.19 55.685c-.825 1.615-1.64 3.304-2.398 3.93l2.76 1.593c.78-.617 1.593-2.376 2.399-3.929l-2.761-1.594z" fill="#37474F"/><path d="M38.19 55.685c-.317.694-.633 1.387-.992 2.067-.178.34-.365.677-.57 1.007a4.302 4.302 0 0 1-.76.928l-.01-.156 1.388.788 1.373.806-.129.011c.286-.252.534-.544.737-.866.219-.317.417-.646.607-.979.38-.666.739-1.345 1.122-2.012-.32.692-.634 1.385-.99 2.067-.176.34-.362.68-.57 1.011a4.13 4.13 0 0 1-.76.926l-.058.049-.07-.04-1.388-.788-1.4-.806-.114-.066.105-.088c.282-.257.53-.55.735-.872.218-.315.418-.644.61-.977l1.134-2.01z" fill="#263238"/><path opacity=".2" d="m11.59 41.333-.203.397 2.766 1.6c1.14-1.368 1.92-3.377 2.295-4.51-1.058 2.176-1.818 3.444-2.405 3.93l-2.453-1.417z" fill="#000"/><path d="M13.68 37.229c-.825 1.615-1.64 3.304-2.398 3.929l2.76 1.592c.78-.617 1.593-2.379 2.399-3.93L13.68 37.23z" fill="#37474F"/><path d="M13.68 37.229c-.317.691-.633 1.387-.99 2.065-.19.34-.367.678-.57 1.009a4.37 4.37 0 0 1-.76.927v-.156l1.387.789 1.374.805-.13.012c.287-.253.535-.545.74-.867.216-.317.414-.646.604-.978.38-.669.739-1.345 1.123-2.012-.321.691-.635 1.385-.99 2.067-.177.34-.361.678-.57 1.01a4.029 4.029 0 0 1-.76.924l-.059.051-.07-.04-1.387-.788-1.374-.806-.112-.066.103-.087c.282-.257.53-.55.735-.873.218-.315.418-.644.61-.976l1.096-2.01z" fill="#263238"/><path opacity=".2" d="m14.349 42.927-.204.393 2.765 1.602c1.13-1.366 1.917-3.375 2.293-4.507-1.045 2.175-1.82 3.443-2.398 3.931l-2.456-1.42z" fill="#000"/><path d="M16.445 38.82c-.825 1.618-1.64 3.307-2.398 3.932l2.76 1.594c.78-.617 1.593-2.379 2.398-3.93l-2.76-1.595z" fill="#37474F"/><path d="M16.445 38.82c-.318.694-.633 1.39-.992 2.068-.179.34-.365.678-.57 1.009a4.36 4.36 0 0 1-.76.927v-.156l1.385.789 1.36.813-.129.011a3.99 3.99 0 0 0 .741-.874c.218-.317.416-.646.606-.978.38-.669.74-1.345 1.123-2.012-.321.691-.635 1.385-.99 2.067-.177.34-.363.678-.57 1.009a4.043 4.043 0 0 1-.77.925l-.058.051-.07-.04-1.388-.788-1.373-.805-.114-.067.104-.087c.283-.257.53-.55.736-.873.218-.315.418-.644.61-.976l1.119-2.012z" fill="#263238"/><path opacity=".2" d="m17.113 44.52-.203.398 2.766 1.598c1.14-1.366 1.92-3.375 2.296-4.507-1.047 2.175-1.82 3.443-2.398 3.931l-2.46-1.42z" fill="#000"/><path d="M19.209 40.415c-.825 1.617-1.64 3.306-2.4 3.931l2.761 1.594c.777-.617 1.59-2.379 2.398-3.93l-2.759-1.595z" fill="#37474F"/><path d="M19.209 40.415c-.317.693-.633 1.387-.992 2.067-.178.34-.365.678-.57 1.009a4.36 4.36 0 0 1-.76.925v-.154l1.387.789 1.376.805-.13.012c.286-.253.534-.544.738-.867.216-.317.414-.645.606-.98.38-.667.739-1.343 1.123-2.01-.323.691-.637 1.385-.99 2.067-.179.34-.363.678-.57 1.009a4.094 4.094 0 0 1-.76.925l-.06.052-.07-.04-1.386-.789-1.376-.805-.112-.067.103-.087c.275-.258.515-.552.714-.872.218-.318.416-.645.608-.977l1.121-2.012z" fill="#263238"/><path opacity=".2" d="m19.876 46.115-.203.397 2.766 1.598c1.14-1.366 1.919-3.374 2.295-4.507-1.047 2.174-1.82 3.443-2.4 3.931l-2.458-1.42z" fill="#000"/><path d="M21.972 42.009c-.823 1.617-1.64 3.306-2.398 3.931l2.76 1.594c.78-.617 1.593-2.379 2.4-3.929l-2.762-1.596z" fill="#37474F"/><path d="M21.972 42.009c-.318.694-.633 1.387-.99 2.067-.179.34-.367.678-.57 1.01a4.36 4.36 0 0 1-.76.924v-.154l1.387.789 1.373.806-.129.011c.287-.252.535-.544.74-.866.216-.318.413-.646.604-.98.38-.668.739-1.344 1.124-2.011-.323.692-.636 1.385-.992 2.067-.176.34-.36.678-.57 1.01a3.99 3.99 0 0 1-.76.924l-.058.052-.07-.04-1.386-.789-1.375-.805-.113-.067.103-.087c.283-.257.531-.55.737-.872.217-.318.416-.644.608-.977l1.097-2.012z" fill="#263238"/><path opacity=".2" d="m22.64 47.709-.203.397 2.766 1.598c1.131-1.366 1.918-3.374 2.294-4.507-1.045 2.174-1.82 3.443-2.398 3.931L22.64 47.71z" fill="#000"/><path d="M24.736 43.603c-.825 1.617-1.64 3.306-2.398 3.931l2.761 1.594c.779-.617 1.592-2.379 2.398-3.93l-2.76-1.595z" fill="#37474F"/><path d="M24.736 43.603c-.317.694-.633 1.387-.992 2.067-.178.34-.364.679-.57 1.01a4.295 4.295 0 0 1-.76.925v-.154l1.387.788 1.374.806-.13.011a3.99 3.99 0 0 0 .738-.866c.218-.318.416-.646.606-.98.38-.668.74-1.344 1.123-2.01-.321.69-.635 1.384-.99 2.066-.177.34-.363.679-.57 1.01a4.045 4.045 0 0 1-.76.924l-.059.052-.07-.04-1.387-.789-1.374-.805-.114-.067.105-.089c.283-.256.53-.549.735-.87.219-.317.418-.644.61-.977l1.098-2.012z" fill="#263238"/><path opacity=".2" d="m25.405 49.303-.205.397 2.766 1.6c1.14-1.366 1.92-3.374 2.295-4.507-1.045 2.174-1.82 3.443-2.398 3.931l-2.458-1.42z" fill="#000"/><path d="M27.5 45.197c-.824 1.617-1.64 3.306-2.4 3.931l2.763 1.602c.778-.617 1.59-2.379 2.398-3.931l-2.76-1.602z" fill="#37474F"/><path d="M27.5 45.197c-.317.694-.632 1.387-.991 2.067-.179.34-.365.679-.57 1.01a4.305 4.305 0 0 1-.76.925v-.154l1.387.788 1.375.806-.129.011c.286-.253.534-.545.737-.868.217-.315.415-.646.607-.979.38-.666.739-1.343 1.122-2.012-.323.694-.636 1.387-.99 2.07-.178.34-.362.678-.57 1.008-.209.345-.468.657-.769.926l-.06.05-.07-.039-1.386-.788-1.391-.808-.114-.066.104-.09c.283-.256.53-.548.736-.87.218-.317.416-.646.608-.977l1.125-2.01z" fill="#263238"/><path opacity=".2" d="m28.168 50.897-.204.403 2.767 1.598c1.14-1.366 1.919-3.375 2.295-4.507-1.047 2.174-1.82 3.443-2.4 3.931l-2.459-1.425z" fill="#000"/><path d="M30.263 46.791c-.823 1.617-1.64 3.306-2.398 3.931l2.761 1.594c.78-.617 1.592-2.378 2.4-3.93l-2.763-1.595z" fill="#37474F"/><path d="M30.263 46.791c-.317.694-.633 1.387-.99 2.068-.178.34-.366.678-.57 1.008a4.36 4.36 0 0 1-.76.926l-.01-.154 1.388.788 1.373.806-.129.011c.287-.252.536-.544.74-.868.216-.315.414-.646.604-.978.38-.667.739-1.344 1.124-2.013-.323.694-.636 1.387-.991 2.07-.177.34-.361.678-.57 1.008a3.991 3.991 0 0 1-.76.926l-.06.051-.07-.04-1.385-.788-1.375-.806-.112-.066.102-.09c.284-.256.532-.548.737-.87.217-.317.416-.646.608-.977l1.106-2.012z" fill="#263238"/><path opacity=".2" d="m30.932 52.491-.203.397 2.766 1.598c1.14-1.366 1.917-3.374 2.293-4.506-1.045 2.173-1.82 3.442-2.397 3.93l-2.459-1.419z" fill="#000"/><path d="M33.028 48.385c-.825 1.617-1.64 3.306-2.398 3.931l2.76 1.595c.78-.618 1.593-2.38 2.398-3.931l-2.76-1.595z" fill="#37474F"/><path d="M33.028 48.385c-.318.694-.633 1.387-.992 2.068-.179.34-.365.678-.57 1.008a4.292 4.292 0 0 1-.76.926l-.01-.154 1.387.788 1.374.806-.13.011a3.96 3.96 0 0 0 .738-.868c.219-.315.416-.646.606-.978.38-.667.74-1.344 1.123-2.012-.321.693-.634 1.387-.99 2.069-.177.34-.363.678-.57 1.008a4.045 4.045 0 0 1-.77.926l-.058.051-.07-.04-1.387-.788-1.374-.806-.114-.066.104-.09a4.27 4.27 0 0 0 .736-.87c.218-.317.418-.646.61-.977l1.117-2.012z" fill="#263238"/><path opacity=".2" d="m33.697 54.085-.204.398 2.767 1.597c1.13-1.366 1.917-3.374 2.293-4.506-1.045 2.173-1.82 3.442-2.398 3.93l-2.459-1.419z" fill="#000"/><path d="M35.792 49.98c-.824 1.616-1.64 3.306-2.4 3.93l2.763 1.595c.78-.618 1.59-2.38 2.398-3.931l-2.76-1.594z" fill="#37474F"/><path d="M35.792 49.98c-.317.693-.633 1.387-.992 2.067-.178.34-.364.678-.57 1.009a4.305 4.305 0 0 1-.76.925l-.01-.154 1.388.788 1.376.806-.13.011c.286-.252.534-.545.737-.868.217-.315.415-.646.607-.978.38-.667.739-1.344 1.122-2.012-.323.693-.634 1.387-.99 2.069-.178.34-.362.678-.57 1.009a4.045 4.045 0 0 1-.76.925l-.06.051-.069-.04-1.387-.788-1.373-.806-.114-.066.104-.09c.283-.255.53-.548.736-.87.218-.317.416-.646.61-.976l1.105-2.012z" fill="#263238"/><path opacity=".2" d="m36.46 55.68-.204.397 2.766 1.598c1.14-1.367 1.92-3.375 2.295-4.507-1.047 2.173-1.82 3.443-2.4 3.93L36.46 55.68z" fill="#000"/><path d="M38.555 51.574c-.823 1.617-1.64 3.306-2.398 3.93l2.76 1.595c.78-.618 1.593-2.379 2.4-3.931l-2.762-1.594z" fill="#37474F"/><path d="M38.555 51.574c-.318.693-.633 1.387-.99 2.067-.179.34-.365.678-.57 1.009-.21.342-.465.653-.76.925v-.154l1.387.789 1.374.805-.13.012c.287-.253.536-.545.74-.869.216-.315.414-.646.604-.978.38-.667.74-1.343 1.124-2.012-.323.691-.636 1.387-.991 2.069-.177.34-.361.678-.57 1.009a3.987 3.987 0 0 1-.77.925l-.059.051-.07-.04-1.385-.788-1.389-.806-.112-.066.102-.09c.284-.255.532-.548.738-.87.216-.317.416-.646.608-.976l1.119-2.012z" fill="#263238"/><path opacity=".2" d="m39.225 57.274-.203.397 2.767 1.598c1.14-1.366 1.919-3.375 2.295-4.507-1.047 2.173-1.82 3.443-2.4 3.93l-2.459-1.418z" fill="#000"/><path d="M41.321 53.168c-.822 1.615-1.64 3.304-2.398 3.93l2.761 1.595c.78-.618 1.592-2.379 2.4-3.931l-2.763-1.594z" fill="#37474F"/><path d="M41.321 53.168c-.317.693-.633 1.387-.99 2.067-.178.34-.364.678-.57 1.007a4.318 4.318 0 0 1-.76.927v-.154l1.387.789 1.374.805h-.13c.288-.25.537-.543.74-.866.217-.316.414-.646.604-.979.38-.667.741-1.343 1.125-2.012-.323.692-.637 1.387-.992 2.067-.177.342-.36.68-.57 1.011a3.99 3.99 0 0 1-.77.926l-.058.05-.07-.039-1.386-.789-1.392-.788-.112-.066.102-.09c.283-.256.531-.549.737-.87.217-.317.416-.646.608-.977l1.123-2.02z" fill="#263238"/><path opacity=".2" d="m13.384 37.43-.204.397 1.33.781c1.14-1.368 2.166-3.23 2.542-4.37-1.046 2.174-1.82 3.443-2.4 3.931l-1.268-.739z" fill="#000"/><path d="M15.48 33.33c-.825 1.617-1.64 3.306-2.399 3.93l2.761 1.595c.78-.617 1.592-2.379 2.398-3.931l-2.76-1.594z" fill="#37474F"/><path d="M15.48 33.33c-.318.693-.633 1.387-.99 2.067-.19.34-.367.678-.57 1.009a4.295 4.295 0 0 1-.76.925v-.154l1.386.789 1.374.805-.13.012c.287-.253.536-.545.74-.869.217-.315.414-.645.604-.978.38-.667.74-1.343 1.123-2.012-.321.691-.635 1.387-.99 2.069-.177.34-.36.678-.57 1.009a3.991 3.991 0 0 1-.77.925l-.058.051-.07-.04-1.387-.788-1.374-.806-.114-.066.104-.09a4.27 4.27 0 0 0 .736-.87c.218-.317.418-.645.61-.976l1.105-2.012z" fill="#263238"/><path opacity=".2" d="m14.63 38.165-.215.405 2.767 1.6c1.14-1.366 1.919-3.377 2.295-4.509-1.047 2.168-1.82 3.435-2.398 3.924l-2.449-1.42z" fill="#000"/><path d="M16.72 34.061c-.825 1.615-1.64 3.304-2.4 3.93l2.763 1.594c.777-.618 1.59-2.38 2.398-3.93l-2.761-1.594z" fill="#37474F"/><path d="M16.72 34.061c-.317.692-.633 1.387-.992 2.066-.178.34-.365.678-.57 1.008a4.37 4.37 0 0 1-.76.928v-.156l1.387.788 1.376.806-.131.011c.286-.252.535-.544.739-.866.216-.317.414-.646.606-.979.38-.668.739-1.345 1.123-2.012-.323.692-.637 1.386-.99 2.068-.179.34-.363.68-.57 1.01a4.131 4.131 0 0 1-.76.924l-.06.051-.07-.04-1.386-.788-1.412-.806-.112-.066.103-.088c.285-.255.535-.548.742-.87.217-.315.416-.644.608-.977l1.129-2.012z" fill="#263238"/><path opacity=".2" d="m17.383 39.76-.203.397 2.77 1.6c1.14-1.369 1.919-3.377 2.295-4.51-1.047 2.176-1.82 3.443-2.4 3.932l-2.462-1.42z" fill="#000"/><path d="M19.479 35.655c-.825 1.615-1.64 3.304-2.398 3.93l2.76 1.594c.78-.618 1.593-2.38 2.398-3.93l-2.76-1.594z" fill="#37474F"/><path d="M19.479 35.655c-.317.692-.633 1.387-.99 2.066-.19.34-.367.678-.57 1.009a4.37 4.37 0 0 1-.76.927V39.5l1.387.788 1.374.806-.13.011c.286-.252.535-.544.74-.866.216-.317.414-.646.604-.978.38-.67.739-1.346 1.123-2.013-.322.692-.635 1.386-.99 2.068-.177.34-.361.68-.57 1.01a4.029 4.029 0 0 1-.76.924l-.06.051-.07-.04-1.413-.792-1.374-.806-.112-.066.103-.087c.282-.258.53-.55.735-.873.219-.315.418-.644.61-.976l1.123-2.007z" fill="#263238"/><path opacity=".2" d="m20.14 41.353-.19.398 2.766 1.6c1.14-1.369 1.918-3.377 2.294-4.51-1.045 2.176-1.82 3.444-2.398 3.932l-2.472-1.42z" fill="#000"/><path d="M22.243 37.25c-.824 1.614-1.64 3.304-2.397 3.929l2.764 1.594c.779-.618 1.592-2.379 2.398-3.93l-2.765-1.594z" fill="#37474F"/><path d="M22.243 37.25c-.317.691-.632 1.386-.991 2.065-.18.34-.365.678-.57 1.009a4.36 4.36 0 0 1-.76.927v-.156l1.385.789 1.375.805-.129.012a3.99 3.99 0 0 0 .737-.867c.219-.317.414-.646.606-.978.38-.67.74-1.346 1.123-2.012-.32.691-.634 1.385-.99 2.067-.176.34-.363.68-.57 1.01a4.08 4.08 0 0 1-.76.924l-.059.051-.07-.04-1.387-.788-1.374-.806-.114-.066.105-.088c.282-.257.53-.55.735-.872.219-.315.418-.644.61-.976l1.098-2.01z" fill="#263238"/><path opacity=".2" d="m22.912 42.94-.205.397 2.766 1.6c1.14-1.368 1.92-3.376 2.296-4.509-1.047 2.176-1.82 3.443-2.398 3.931l-2.459-1.419z" fill="#000"/><path d="M25.008 38.844c-.825 1.615-1.64 3.304-2.4 3.929l2.763 1.594c.777-.618 1.59-2.379 2.398-3.93l-2.761-1.593z" fill="#37474F"/><path opacity=".15" d="M25.008 38.844c-.825 1.615-1.64 3.304-2.4 3.929l2.763 1.594c.777-.618 1.59-2.379 2.398-3.93l-2.761-1.593z" fill="#000"/><path d="M25.008 38.844c-.317.691-.633 1.387-.992 2.065-.179.34-.365.678-.57 1.009a4.37 4.37 0 0 1-.76.927v-.156l1.387.789 1.376.805-.13.012c.286-.253.534-.545.738-.867.216-.317.414-.646.606-.978.38-.669.739-1.345 1.123-2.012-.323.691-.637 1.385-.99 2.067-.179.34-.363.678-.57 1.01-.21.344-.47.655-.77.924l-.06.051-.069-.04-1.387-.788-1.376-.806-.112-.066.103-.087c.284-.257.531-.55.737-.873.219-.315.416-.644.608-.976l1.108-2.01z" fill="#263238"/><path opacity=".2" d="m25.675 44.542-.204.397 2.767 1.6c1.14-1.368 1.919-3.377 2.295-4.51-1.047 2.176-1.82 3.444-2.4 3.932l-2.458-1.42z" fill="#000"/><path d="M27.77 40.438c-.822 1.615-1.64 3.304-2.397 3.929l2.76 1.594c.78-.617 1.593-2.379 2.4-3.93l-2.763-1.593z" fill="#37474F"/><path d="M27.77 40.438c-.317.691-.632 1.387-.99 2.065-.178.34-.366.678-.57 1.009a4.37 4.37 0 0 1-.76.927v-.156l1.387.789 1.374.805-.129.012c.28-.251.523-.54.722-.859.217-.317.414-.646.604-.979.38-.668.74-1.345 1.125-2.012-.323.692-.637 1.386-.992 2.068-.177.34-.36.678-.57 1.01a4.029 4.029 0 0 1-.76.924l-.059.051-.07-.04-1.387-.788-1.383-.804-.112-.066.102-.088c.283-.257.531-.55.738-.872.216-.315.416-.644.608-.977l1.122-2.02z" fill="#263238"/><path opacity=".2" d="m28.44 46.136-.204.397 2.766 1.598c1.14-1.366 1.917-3.375 2.294-4.507-1.045 2.175-1.82 3.443-2.398 3.931l-2.459-1.42z" fill="#000"/><path d="M30.535 42.03c-.825 1.617-1.64 3.306-2.398 3.931l2.76 1.594c.78-.617 1.593-2.379 2.399-3.93l-2.761-1.595z" fill="#37474F"/><path d="M30.535 42.03c-.317.693-.633 1.389-.992 2.067-.178.34-.365.678-.57 1.009a4.302 4.302 0 0 1-.76.927l-.01-.156 1.388.789 1.373.806-.129.01a3.99 3.99 0 0 0 .737-.865c.219-.318.416-.646.606-.979.38-.669.74-1.345 1.123-2.012-.32.692-.634 1.385-.99 2.067-.176.34-.363.678-.57 1.01-.21.345-.468.656-.77.924l-.058.052-.07-.04-1.387-.789-1.374-.805-.114-.067.105-.087c.282-.257.53-.55.735-.872.218-.316.418-.645.61-.977l1.117-2.012z" fill="#263238"/><path opacity=".2" d="m31.204 47.73-.206.397 2.767 1.598c1.14-1.366 1.919-3.375 2.295-4.507-1.045 2.176-1.82 3.443-2.398 3.931l-2.458-1.42z" fill="#000"/><path d="M33.3 43.624c-.825 1.617-1.64 3.306-2.4 3.931l2.762 1.594c.777-.617 1.59-2.379 2.398-3.929l-2.76-1.596z" fill="#37474F"/><path d="M33.3 43.624c-.318.694-.633 1.387-.992 2.067-.179.34-.365.678-.57 1.01a4.36 4.36 0 0 1-.76.924l-.01-.154 1.387.789 1.376.806-.13.011c.286-.253.534-.544.738-.866.216-.318.414-.646.606-.98.38-.668.739-1.344 1.123-2.011-.323.692-.637 1.385-.99 2.067-.179.34-.363.678-.57 1.01-.21.344-.469.656-.77.924l-.06.052-.069-.04-1.387-.789-1.374-.805-.114-.067.105-.087c.282-.257.53-.55.735-.872.219-.318.416-.644.608-.977l1.117-2.012z" fill="#263238"/><path opacity=".2" d="m33.966 49.324-.203.397 2.766 1.598c1.14-1.366 1.92-3.374 2.296-4.507-1.047 2.174-1.82 3.443-2.4 3.931l-2.459-1.419z" fill="#000"/><path d="M36.062 45.22c-.823 1.617-1.64 3.306-2.398 3.931l2.76 1.594c.78-.617 1.593-2.379 2.4-3.929l-2.762-1.596z" fill="#37474F"/><path d="M36.062 45.22c-.317.694-.633 1.387-.99 2.067-.178.34-.367.678-.57 1.01a4.36 4.36 0 0 1-.76.924l-.01-.153 1.388.788 1.373.806-.129.011c.287-.252.535-.544.74-.866.216-.318.413-.646.603-.98.38-.668.74-1.344 1.125-2.011-.323.692-.636 1.385-.992 2.067-.176.34-.36.678-.57 1.01a3.991 3.991 0 0 1-.77.924l-.058.052-.07-.04-1.385-.789-1.376-.805-.112-.067.102-.087c.284-.257.531-.55.738-.872.216-.318.416-.644.608-.977l1.115-2.012z" fill="#263238"/><path opacity=".2" d="m36.73 50.92-.202.397 2.766 1.598c1.13-1.366 1.917-3.374 2.293-4.507-1.045 2.174-1.82 3.443-2.398 3.931l-2.458-1.419z" fill="#000"/><path d="M38.827 46.812c-.825 1.617-1.64 3.306-2.398 3.931l2.76 1.594c.78-.617 1.593-2.378 2.398-3.93l-2.76-1.595z" fill="#37474F"/><path d="M38.827 46.812c-.318.694-.633 1.387-.992 2.067-.179.34-.365.679-.57 1.01a4.295 4.295 0 0 1-.76.925v-.154l1.387.788 1.373.806-.129.011c.286-.252.534-.544.737-.866.219-.318.416-.646.607-.98.38-.667.739-1.344 1.122-2.013-.32.694-.634 1.387-.99 2.07-.176.34-.362.678-.57 1.008a4.045 4.045 0 0 1-.76.926l-.058.05-.07-.039-1.388-.788-1.373-.806-.114-.067.104-.089c.283-.256.53-.548.735-.87.219-.317.418-.644.61-.977l1.099-2.012z" fill="#263238"/><path opacity=".2" d="m39.495 52.512-.203.397 2.764 1.598c1.14-1.366 1.52-2.926 1.887-4.058-1.047 2.175-1.411 2.994-1.99 3.483l-2.458-1.42z" fill="#000"/><path d="M41.591 48.406c-.825 1.617-1.64 3.306-2.4 3.931l2.763 1.594c.779-.617 1.182-1.93 1.99-3.48l-2.353-2.045z" fill="#37474F"/><path d="M41.591 48.406c-.317.694-.633 1.387-.992 2.068-.178.34-.365.678-.57 1.008a4.303 4.303 0 0 1-.76.926v-.154l1.387.788 1.376.806-.13.011c.253-.216.468-.473.637-.76a9.72 9.72 0 0 0 .486-.874c.297-.596.595-1.199.935-1.78-.279.606-.524 1.222-.798 1.83-.138.306-.28.61-.452.906a3.06 3.06 0 0 1-.67.817l-.061.051-.069-.04-1.387-.788-1.383-.8-.114-.066.104-.09c.283-.256.53-.548.736-.87.218-.317.416-.646.61-.977l1.115-2.012z" fill="#263238"/><path opacity=".2" d="m26.41 40.417-.19.397 2.766 1.598c1.13-1.366 1.918-3.375 2.294-4.507-1.045 2.174-1.82 3.443-2.398 3.931l-2.472-1.42zM15.36 34.042l-.204.4 2.767 1.597c1.14-1.366 1.917-3.374 2.293-4.507-1.045 2.174-1.82 3.443-2.398 3.932l-2.458-1.422z" fill="#000"/><path d="M17.455 29.938c-.824 1.615-1.64 3.304-2.397 3.93l2.76 1.596c.78-.618 1.592-2.38 2.398-3.932l-2.76-1.594z" fill="#37474F"/><path d="M17.455 29.938c-.317.694-.632 1.387-.99 2.067-.19.34-.366.679-.57 1.008a4.256 4.256 0 0 1-.76.927l-.01-.154 1.388.788 1.374.806h-.13c.287-.252.536-.544.74-.867.216-.317.414-.645.604-.978.38-.667.739-1.345 1.123-2.012-.322.692-.635 1.387-.99 2.067-.177.342-.361.68-.57 1.01a4.079 4.079 0 0 1-.76.926l-.06.05-.07-.038-1.387-.79-1.373-.806-.114-.067.104-.087c.283-.257.53-.55.736-.872.218-.316.418-.644.61-.977l1.105-2z" fill="#263238"/><path opacity=".2" d="m18.124 35.636-.203.4 2.766 1.597c1.14-1.366 1.917-3.374 2.293-4.507-1.044 2.174-1.82 3.443-2.397 3.93l-2.459-1.42z" fill="#000"/><path d="M20.22 31.54c-.825 1.615-1.64 3.304-2.398 3.93l2.76 1.58c.78-.616 1.591-2.377 2.398-3.93l-2.76-1.58z" fill="#37474F"/><path d="M20.22 31.54c-.317.694-.633 1.387-.992 2.067-.179.34-.365.677-.57 1.007a4.267 4.267 0 0 1-.76.927v-.155l1.387.79 1.376.804-.13.011c.286-.252.534-.544.738-.866.216-.318.414-.646.606-.979.38-.667.739-1.345 1.123-2.012-.323.692-.635 1.387-.99 2.067-.179.342-.363.68-.57 1.011a4.13 4.13 0 0 1-.76.925l-.06.05-.07-.038-1.386-.79-1.374-.806-.114-.067.104-.087c.283-.257.53-.55.736-.872.218-.316.418-.644.61-.977l1.096-2.01z" fill="#263238"/><path opacity=".2" d="m20.887 37.24-.204.399 2.767 1.598c1.14-1.366 1.919-3.375 2.295-4.507-1.047 2.174-1.82 3.443-2.398 3.93l-2.46-1.42z" fill="#000"/><path d="M22.99 33.127c-.823 1.614-1.64 3.304-2.398 3.929l2.763 1.594c.777-.616 1.59-2.377 2.398-3.93l-2.763-1.593z" fill="#37474F"/><path d="M22.99 33.127c-.317.693-.63 1.386-.99 2.067-.178.34-.365.676-.57 1.007a4.318 4.318 0 0 1-.76.927v-.156l1.387.79 1.374.804-.13.012c.287-.252.536-.544.74-.867.216-.317.414-.646.604-.978.38-.667.74-1.345 1.125-2.012-.323.691-.637 1.387-.992 2.067-.177.34-.361.68-.57 1.01-.21.345-.47.656-.77.926l-.06.05-.07-.04-1.386-.79-1.402-.805-.112-.066.102-.088a4.23 4.23 0 0 0 .738-.872c.216-.315.416-.644.608-.976l1.134-2.01z" fill="#263238"/><path opacity=".2" d="m23.651 38.825-.203.399 2.772 1.598c1.14-1.367 1.919-3.375 2.295-4.507-1.047 2.173-1.82 3.443-2.4 3.929l-2.464-1.42z" fill="#000"/><path d="M25.747 34.72c-.825 1.616-1.64 3.305-2.398 3.93l2.76 1.594c.78-.616 1.593-2.377 2.399-3.93l-2.761-1.593z" fill="#37474F"/><path d="M25.747 34.72c-.317.694-.633 1.388-.99 2.068-.19.34-.367.676-.57 1.007a4.302 4.302 0 0 1-.76.927l-.01-.156 1.387.789 1.374.805-.129.012c.286-.253.535-.545.74-.867.216-.317.413-.646.603-.978.38-.667.74-1.345 1.123-2.012-.32.691-.634 1.385-.99 2.067-.176.34-.36.68-.57 1.01-.209.345-.468.657-.77.926l-.058.05-.07-.04-1.387-.789-1.374-.806-.114-.066.104-.087c.283-.257.53-.55.736-.873.218-.315.418-.644.61-.976l1.115-2.01z" fill="#263238"/><path d="M28.5 36.29c-.79 1.604-1.571 3.281-2.32 3.899l2.812 1.602c.76-.61 1.545-2.36 2.32-3.9L28.5 36.29z" fill="#37474F"/><path d="M28.5 36.29c-.304.69-.604 1.377-.95 2.052-.173.338-.352.673-.555 1.001-.203.34-.453.65-.745.918l-.013-.154 1.412.792 1.4.808-.13.011c.282-.252.525-.545.721-.868.21-.315.4-.642.585-.97.363-.664.713-1.33 1.083-1.998-.308.686-.606 1.376-.95 2.052-.169.338-.348.675-.549 1.003-.204.343-.46.652-.76.916l-.057.05-.072-.04-1.412-.79-1.389-.793-.116-.066.103-.088a4.16 4.16 0 0 0 .72-.864c.211-.314.405-.639.59-.968L28.5 36.29z" fill="#263238"/><path opacity=".2" d="m29.18 42.013-.205.399 2.766 1.598c1.14-1.366 1.92-3.375 2.296-4.507-1.047 2.173-1.82 3.443-2.398 3.93l-2.459-1.42z" fill="#000"/><path d="M31.276 37.909c-.825 1.611-1.636 3.304-2.396 3.929l2.763 1.594c.777-.617 1.59-2.377 2.397-3.93l-2.764-1.593z" fill="#37474F"/><path opacity=".15" d="M31.276 37.909c-.825 1.611-1.636 3.304-2.396 3.929l2.763 1.594c.777-.617 1.59-2.377 2.397-3.93l-2.764-1.593z" fill="#000"/><path d="M31.274 37.909c-.315.693-.63 1.387-.99 2.067-.178.34-.365.676-.57 1.007a4.37 4.37 0 0 1-.76.927v-.156l1.387.789 1.376.806-.131.01c.286-.251.535-.543.739-.866.216-.317.414-.646.606-.978.38-.669.739-1.345 1.123-2.012-.323.691-.637 1.385-.99 2.067-.179.34-.363.68-.57 1.01a4.18 4.18 0 0 1-.77.926l-.06.05-.069-.04-1.387-.789-1.375-.805-.113-.067.103-.087c.284-.257.532-.55.737-.872.217-.316.416-.645.608-.977l1.106-2.01z" fill="#263238"/><path opacity=".2" d="m31.943 43.607-.204.399 2.767 1.594c1.14-1.366 1.919-3.374 2.295-4.507-1.047 2.174-1.82 3.443-2.4 3.93l-2.458-1.416z" fill="#000"/><path d="M34.038 39.503c-.824 1.615-1.64 3.304-2.397 3.93l2.76 1.597c.78-.617 1.593-2.377 2.398-3.93l-2.76-1.597z" fill="#37474F"/><path d="M34.038 39.503c-.317.693-.632 1.387-.99 2.067-.18.34-.366.676-.57 1.007a4.37 4.37 0 0 1-.76.927l-.009-.155 1.387.788 1.374.806-.13.011c.286-.253.535-.544.74-.866.216-.318.414-.646.604-.979.38-.669.739-1.345 1.123-2.012-.321.692-.635 1.385-.99 2.067-.177.34-.361.68-.57 1.011-.21.345-.469.657-.77.925l-.058.05-.07-.04-1.388-.789-1.381-.811-.114-.066.104-.088c.283-.257.53-.55.736-.872.218-.315.418-.644.61-.977l1.123-2.004z" fill="#263238"/><path opacity=".2" d="m34.707 45.201-.203.399 2.766 1.598c1.14-1.366 1.917-3.374 2.294-4.507-1.045 2.174-1.82 3.443-2.398 3.93l-2.459-1.42z" fill="#000"/><path d="M36.803 41.097c-.825 1.615-1.64 3.304-2.398 3.93l2.76 1.593c.78-.617 1.593-2.378 2.399-3.929l-2.761-1.594z" fill="#37474F"/><path d="M36.803 41.097c-.317.694-.633 1.387-.992 2.067-.178.34-.365.677-.57 1.007a4.302 4.302 0 0 1-.76.927v-.155l1.385.788 1.376.806-.13.011a3.99 3.99 0 0 0 .738-.866c.218-.318.416-.646.606-.979.38-.669.74-1.345 1.123-2.012-.321.692-.635 1.385-.99 2.067-.177.34-.363.68-.57 1.011a4.13 4.13 0 0 1-.77.925l-.058.05-.07-.04-1.388-.789-1.373-.805-.114-.067.104-.087c.283-.257.53-.55.735-.872.219-.316.418-.644.61-.977l1.108-2.01z" fill="#263238"/><path opacity=".2" d="m37.472 46.795-.205.4 2.766 1.597c1.14-1.366 1.919-3.376 2.295-4.507-1.047 2.174-1.82 3.441-2.398 3.93l-2.458-1.42z" fill="#000"/><path d="M39.568 42.691c-.825 1.615-1.64 3.304-2.4 3.93l2.762 1.593c.778-.617 1.59-2.378 2.398-3.929l-2.76-1.594z" fill="#37474F"/><path d="M39.568 42.691c-.318.694-.633 1.387-.992 2.067-.179.338-.365.677-.57 1.007a4.37 4.37 0 0 1-.76.928l-.01-.156 1.387.788 1.376.806-.13.011c.286-.252.534-.544.738-.866.216-.318.414-.646.606-.979.38-.668.739-1.345 1.123-2.012-.323.692-.637 1.385-.99 2.067-.179.34-.363.68-.57 1.011a4.181 4.181 0 0 1-.76.925l-.06.05-.07-.04-1.386-.788-1.376-.806-.112-.067.103-.087c.283-.256.531-.55.737-.872.218-.316.416-.644.608-.977l1.108-2.01z" fill="#263238"/><path opacity=".2" d="m40.234 48.39-.203.396 2.767 1.6c1.14-1.366 1.919-3.376 2.295-4.507-1.047 2.174-1.82 3.441-2.4 3.93l-2.459-1.42z" fill="#000"/><path d="M42.33 44.285c-.823 1.615-1.64 3.304-2.398 3.93l2.761 1.593c.779-.617 1.592-2.378 2.4-3.929l-2.763-1.594z" fill="#37474F"/><path d="M42.33 44.285c-.317.694-.633 1.387-.99 2.067-.178.339-.367.677-.57 1.007a4.37 4.37 0 0 1-.76.928v-.156l1.387.788 1.374.806-.13.011c.287-.252.536-.543.74-.866.216-.317.414-.646.604-.979.38-.668.74-1.345 1.125-2.012-.323.692-.637 1.385-.992 2.068-.177.34-.361.68-.57 1.01-.21.345-.469.657-.77.926l-.058.049-.07-.04-1.386-.788-1.375-.806-.113-.067.103-.087c.283-.257.531-.55.737-.872.217-.315.416-.644.608-.977l1.106-2.01z" fill="#263238"/><path opacity=".2" d="m42.999 49.983-.203.397 2.766 1.6c1.13-1.366 1.917-3.376 2.293-4.508-1.045 2.175-1.82 3.442-2.397 3.93l-2.46-1.419z" fill="#000"/><path d="M45.095 45.88c-.825 1.614-1.64 3.303-2.398 3.928l2.76 1.595c.78-.618 1.593-2.38 2.398-3.93l-2.76-1.594z" fill="#37474F"/><path opacity=".15" d="M45.095 45.88c-.825 1.614-1.64 3.303-2.398 3.928l2.76 1.595c.78-.618 1.593-2.38 2.398-3.93l-2.76-1.594z" fill="#000"/><path d="M45.095 45.88c-.318.693-.633 1.386-.992 2.066-.179.339-.365.677-.57 1.008a4.302 4.302 0 0 1-.76.927l-.01-.156 1.387.788 1.374.806-.13.011a3.99 3.99 0 0 0 .738-.866c.218-.317.416-.646.606-.978.38-.67.74-1.346 1.123-2.013-.321.692-.635 1.386-.99 2.068-.177.34-.363.68-.57 1.01a4.128 4.128 0 0 1-.76.926l-.059.05-.07-.04-1.387-.79-1.374-.805-.114-.066.105-.088c.282-.257.53-.55.735-.872.218-.315.418-.644.61-.977l1.108-2.01z" fill="#263238"/><path opacity=".2" d="m16.745 30.675-.204.4 1.575.925c1.14-1.366 1.92-3.375 2.296-4.507-1.047 2.174-1.82 3.443-2.4 3.93l-1.267-.747z" fill="#000"/><path d="M18.84 26.572c-.822 1.614-1.64 3.304-2.397 3.93l2.76 1.595c.78-.618 1.593-2.38 2.4-3.931L18.84 26.57z" fill="#37474F"/><path d="M18.84 26.572c-.317.693-.632 1.387-.99 2.067-.178.34-.366.678-.57 1.007a4.323 4.323 0 0 1-.76.927v-.154l1.387.788 1.374.806h-.129c.28-.249.523-.536.722-.853.217-.315.414-.646.604-.979.38-.666.74-1.345 1.125-2.012-.323.692-.637 1.387-.992 2.068-.177.342-.36.68-.57 1.01a3.99 3.99 0 0 1-.76.926l-.059.051-.07-.04-1.385-.788-1.385-.806-.112-.067.102-.089c.284-.256.532-.55.738-.872.216-.315.416-.644.608-.977l1.122-2.014z" fill="#263238"/><path opacity=".2" d="m18.26 31.563-.21.397 2.766 1.598c1.14-1.366 1.918-3.375 2.294-4.507-1.045 2.174-1.82 3.443-2.398 3.931l-2.451-1.42z" fill="#000"/><path d="M20.357 27.457c-.825 1.617-1.64 3.306-2.398 3.931l2.76 1.594c.78-.617 1.593-2.379 2.398-3.93l-2.76-1.595z" fill="#37474F"/><path d="M20.357 27.457c-.318.693-.633 1.387-.992 2.067-.179.34-.365.678-.57 1.009a4.35 4.35 0 0 1-.76.925v-.154l1.385.789 1.375.805-.129.012a3.99 3.99 0 0 0 .738-.866c.218-.318.414-.646.606-.98.38-.668.739-1.344 1.122-2.011-.32.691-.634 1.385-.99 2.067-.178.34-.362.678-.57 1.009a4.045 4.045 0 0 1-.76.925l-.058.052-.07-.04-1.388-.789-1.373-.805-.114-.067.104-.09c.273-.257.51-.55.707-.87.218-.317.418-.643.61-.976l1.127-2.012z" fill="#263238"/><path opacity=".2" d="m21.025 33.157-.205.397 2.767 1.596c1.14-1.366 1.919-3.374 2.295-4.507-1.047 2.174-1.82 3.443-2.398 3.931l-2.459-1.417z" fill="#000"/><path d="M23.121 29.051c-.824 1.617-1.64 3.306-2.4 3.931l2.763 1.598c.777-.617 1.59-2.379 2.398-3.931l-2.76-1.598z" fill="#37474F"/><path d="M23.121 29.051c-.317.694-.633 1.387-.992 2.067-.178.34-.364.679-.57 1.01-.21.341-.465.652-.76.924l-.01-.154 1.388.789 1.375.806-.129.011c.286-.253.534-.544.737-.866.217-.318.415-.646.607-.98.38-.668.739-1.344 1.122-2.013-.323.694-.636 1.387-.99 2.07-.178.34-.362.677-.57 1.008a4.094 4.094 0 0 1-.76.925l-.06.052-.069-.04-1.387-.789-1.392-.811-.113-.067.103-.089c.284-.255.532-.548.737-.87.219-.317.416-.646.608-.977l1.125-2.006z" fill="#263238"/><path opacity=".2" d="m23.788 34.751-.203.399 2.766 1.598c1.14-1.366 1.92-3.374 2.295-4.507-1.047 2.174-1.82 3.443-2.4 3.931l-2.458-1.421z" fill="#000"/><path d="M25.884 30.645c-.823 1.617-1.64 3.306-2.398 3.931l2.76 1.594c.78-.617 1.593-2.379 2.4-3.93l-2.762-1.595z" fill="#37474F"/><path d="M25.884 30.645c-.318.694-.633 1.387-.99 2.067-.179.34-.367.679-.57 1.01a4.36 4.36 0 0 1-.76.925v-.154l1.387.788 1.373.806-.129.011c.287-.252.536-.545.74-.868.216-.316.414-.646.604-.979.38-.667.739-1.343 1.124-2.012-.323.694-.636 1.387-.991 2.07-.177.34-.361.678-.57 1.008a3.991 3.991 0 0 1-.77.925l-.059.052-.07-.04-1.387-.789-1.374-.805-.112-.067.103-.089c.283-.255.53-.548.735-.87.219-.318.418-.646.61-.977l1.106-2.012z" fill="#263238"/><path opacity=".2" d="m26.552 36.345-.203.397 2.767 1.598c1.13-1.366 1.917-3.374 2.293-4.507-1.045 2.174-1.82 3.443-2.398 3.931l-2.459-1.419z" fill="#000"/><path d="M28.648 32.24c-.824 1.616-1.64 3.305-2.398 3.93l2.761 1.594c.78-.617 1.592-2.378 2.398-3.93l-2.76-1.595z" fill="#37474F"/><path d="M28.648 32.24c-.317.693-.633 1.386-.992 2.066-.178.34-.364.679-.57 1.01a4.295 4.295 0 0 1-.76.925l-.01-.154 1.386.788 1.376.806-.13.011a3.96 3.96 0 0 0 .738-.868c.218-.316.416-.646.606-.979.38-.666.739-1.343 1.123-2.012-.322.694-.635 1.387-.99 2.07-.177.34-.363.678-.57 1.008a4.045 4.045 0 0 1-.76.926l-.06.05-.07-.039-1.387-.788-1.373-.806-.114-.067.104-.089c.283-.256.53-.548.736-.87.218-.317.418-.646.61-.977l1.107-2.012z" fill="#263238"/><path opacity=".2" d="m29.317 37.94-.205.396 2.766 1.598c1.14-1.366 1.92-3.374 2.295-4.507-1.047 2.174-1.82 3.443-2.397 3.931l-2.459-1.419z" fill="#000"/><path d="M31.413 33.833c-.825 1.617-1.64 3.306-2.4 3.931l2.763 1.594c.777-.617 1.59-2.378 2.397-3.93l-2.76-1.595z" fill="#37474F"/><path d="M31.413 33.833c-.318.694-.633 1.387-.992 2.068-.179.34-.365.678-.57 1.008a4.36 4.36 0 0 1-.76.926v-.154l1.387.788 1.375.806-.129.011c.286-.253.534-.545.738-.868.216-.315.414-.646.606-.978.38-.667.739-1.344 1.123-2.013-.324.694-.637 1.387-.99 2.07-.179.34-.363.678-.57 1.008-.21.345-.47.657-.77.926l-.06.051-.07-.04-1.386-.788-1.376-.806-.112-.066.105-.09c.283-.256.53-.548.735-.87.219-.317.416-.646.608-.977l1.108-2.012z" fill="#263238"/><path opacity=".2" d="m32.08 39.533-.204.397 2.767 1.598c1.14-1.366 1.919-3.374 2.295-4.506-1.047 2.173-1.82 3.442-2.4 3.93l-2.458-1.419z" fill="#000"/><path d="M34.175 35.427c-.822 1.617-1.64 3.306-2.397 3.931l2.76 1.595c.78-.618 1.592-2.38 2.4-3.931l-2.763-1.595z" fill="#37474F"/><path d="M34.175 35.427c-.317.694-.632 1.387-.99 2.068-.178.34-.366.678-.57 1.009-.21.341-.465.653-.76.925l-.01-.154 1.388.788 1.374.806-.13.011a3.97 3.97 0 0 0 .74-.868c.216-.315.414-.646.604-.978.38-.667.739-1.344 1.125-2.012-.323.691-.637 1.386-.992 2.069-.177.34-.361.678-.57 1.008a3.991 3.991 0 0 1-.77.926l-.059.051-.07-.04-1.385-.788-1.376-.806-.112-.066.103-.09a4.28 4.28 0 0 0 .737-.87c.217-.317.416-.646.608-.976l1.115-2.013z" fill="#263238"/><path opacity=".2" d="m34.844 41.127-.203.398 2.766 1.605c1.14-1.366 1.917-3.374 2.294-4.507-1.045 2.174-1.82 3.443-2.398 3.931l-2.459-1.427z" fill="#000"/><path d="M36.94 37.022c-.825 1.616-1.64 3.306-2.398 3.93l2.76 1.595c.78-.618 1.593-2.38 2.398-3.931l-2.76-1.594z" fill="#37474F"/><path d="M36.94 37.022c-.317.693-.633 1.386-.992 2.067-.179.34-.365.678-.57 1.009a4.295 4.295 0 0 1-.76.925v-.154l1.387.788 1.374.806-.13.011a3.96 3.96 0 0 0 .738-.868c.218-.315.416-.646.606-.978.38-.667.739-1.344 1.123-2.012-.321.691-.635 1.387-.99 2.069-.177.34-.363.678-.57 1.009a4.045 4.045 0 0 1-.77.925l-.059.051-.07-.04-1.387-.788-1.389-.802-.114-.066.105-.09c.282-.256.53-.548.735-.87.218-.317.418-.646.61-.977l1.123-2.015z" fill="#263238"/><path opacity=".2" d="m37.609 42.721-.206.398 2.767 1.598c1.14-1.367 1.919-3.375 2.295-4.507-1.045 2.173-1.82 3.443-2.398 3.93l-2.458-1.419z" fill="#000"/><path d="M39.71 38.616c-.825 1.617-1.64 3.306-2.4 3.93l2.763 1.595c.779-.618 1.59-2.379 2.398-3.931l-2.761-1.594z" fill="#37474F"/><path d="M39.71 38.616c-.317.693-.633 1.387-.992 2.067-.178.34-.365.678-.57 1.009a4.305 4.305 0 0 1-.76.925l-.01-.154 1.388.789 1.375.805-.129.012c.286-.253.534-.546.737-.869.217-.315.414-.646.606-.978.38-.667.74-1.343 1.123-2.012-.323.691-.636 1.387-.99 2.069-.178.34-.362.678-.57 1.009a4.094 4.094 0 0 1-.76.925l-.06.051-.069-.04-1.387-.788-1.402-.806-.114-.066.105-.09c.282-.255.53-.548.735-.87.218-.317.416-.646.608-.976l1.136-2.012z" fill="#263238"/><path opacity=".2" d="m40.371 44.316-.203.397 2.772 1.598c1.14-1.367 1.919-3.375 2.295-4.507-1.047 2.173-1.82 3.443-2.4 3.93l-2.464-1.418z" fill="#000"/><path d="M42.467 40.21c-.823 1.617-1.64 3.306-2.398 3.93l2.76 1.595c.78-.618 1.593-2.379 2.4-3.931l-2.762-1.594z" fill="#37474F"/><path d="M42.467 40.21c-.317.693-.633 1.387-.99 2.067-.179.34-.365.678-.57 1.009-.21.342-.465.653-.76.925v-.154l1.387.789 1.374.805-.13.012c.287-.253.536-.545.74-.869.216-.315.414-.646.604-.978.38-.667.74-1.343 1.125-2.012-.323.691-.637 1.387-.992 2.069-.177.34-.361.678-.57 1.009a3.987 3.987 0 0 1-.77.925l-.059.051-.07-.04-1.402-.788-1.376-.806-.112-.066.103-.09c.283-.255.531-.548.737-.87.217-.317.416-.646.608-.976l1.123-2.012z" fill="#263238"/><path opacity=".2" d="m43.13 45.91-.19.397 2.766 1.598c1.14-1.366 1.917-3.375 2.294-4.507-1.045 2.173-1.82 3.443-2.398 3.931l-2.472-1.42z" fill="#000"/><path d="M45.231 41.8c-.824 1.615-1.64 3.306-2.397 3.931L45.6 47.33c.779-.617 1.592-2.379 2.398-3.931L45.23 41.8z" fill="#37474F"/><path d="M45.231 41.8c-.317.694-.632 1.387-.991 2.067-.179.34-.365.678-.57 1.007a4.256 4.256 0 0 1-.76.927l-.01-.154 1.387.789 1.374.806-.13.011a3.96 3.96 0 0 0 .738-.868c.218-.316.416-.646.606-.979.38-.667.739-1.343 1.123-2.012-.321.692-.635 1.387-.99 2.07-.177.34-.363.678-.57 1.008a4.045 4.045 0 0 1-.76.925l-.059.052-.07-.04-1.387-.789-1.374-.805-.114-.067.105-.09c.282-.255.53-.548.735-.87.218-.317.418-.645.61-.976L45.23 41.8z" fill="#263238"/><path opacity=".2" d="m18.785 27.083-.203.399 2.766 1.598c1.14-1.367 1.918-3.375 2.294-4.507-1.045 2.173-1.82 3.442-2.398 3.93l-2.459-1.42z" fill="#000"/><path d="M20.881 22.979c-.825 1.615-1.64 3.304-2.398 3.93l2.76 1.591c.78-.617 1.593-2.379 2.399-3.931l-2.761-1.59z" fill="#37474F"/><path d="M20.881 22.979c-.317.693-.633 1.387-.992 2.067-.178.34-.365.678-.57 1.007a4.256 4.256 0 0 1-.76.927l-.01-.154 1.388.789 1.373.805h-.129c.287-.252.535-.544.74-.866.216-.317.413-.646.604-.979.38-.667.739-1.345 1.122-2.012-.32.692-.634 1.387-.99 2.067-.176.342-.36.68-.57 1.011a4.088 4.088 0 0 1-.76.926l-.058.049-.07-.038-1.388-.79-1.381-.797-.114-.064.105-.09c.282-.256.53-.55.735-.872.218-.315.418-.644.61-.976l1.115-2.01z" fill="#263238"/><path opacity=".2" d="m21.55 28.677-.204.399 2.767 1.598c1.14-1.366 1.917-3.375 2.293-4.507-1.045 2.173-1.82 3.443-2.398 3.93l-2.458-1.42z" fill="#000"/><path d="M23.645 24.573c-.824 1.615-1.64 3.304-2.397 3.929l2.76 1.596c.78-.618 1.59-2.379 2.398-3.931l-2.76-1.594z" fill="#37474F"/><path d="M23.645 24.573c-.317.693-.632 1.387-.991 2.067-.179.34-.365.678-.57 1.007a4.267 4.267 0 0 1-.76.927v-.154l1.387.789 1.375.805-.146.006c.286-.252.534-.544.737-.866.217-.318.414-.646.606-.979.38-.667.74-1.345 1.123-2.012-.323.692-.634 1.387-.99 2.067-.178.342-.363.68-.57 1.011-.21.345-.468.657-.77.925l-.058.05-.07-.038-1.387-.79-1.374-.806-.114-.067.104-.087c.283-.257.53-.55.736-.872.218-.316.416-.644.61-.977l1.122-2.006z" fill="#263238"/><path opacity=".2" d="m24.32 30.27-.203.4 2.766 1.598c1.14-1.366 1.92-3.375 2.295-4.507-1.058 2.174-1.818 3.443-2.407 3.931l-2.451-1.421z" fill="#000"/><path d="M26.41 26.167c-.823 1.615-1.64 3.304-2.398 3.929l2.76 1.596c.78-.617 1.593-2.379 2.4-3.931l-2.762-1.594z" fill="#37474F"/><path d="M26.41 26.167c-.317.693-.633 1.387-.99 2.067-.179.34-.365.678-.57 1.007a4.32 4.32 0 0 1-.76.927v-.154l1.387.789 1.374.805h-.13c.287-.251.536-.543.74-.866.216-.317.414-.646.604-.979.38-.666.74-1.345 1.125-2.012-.323.692-.637 1.387-.992 2.068-.177.342-.361.68-.57 1.01a4.121 4.121 0 0 1-.76.926l-.06.05-.071-.039-1.385-.79-1.376-.806-.112-.066.076-.084a4.23 4.23 0 0 0 .737-.872c.217-.316.416-.644.608-.977l1.125-2.004z" fill="#263238"/><path opacity=".2" d="m27.077 31.865-.203.399 2.766 1.598c1.14-1.366 1.919-3.375 2.293-4.507-1.045 2.174-1.82 3.443-2.398 3.931l-2.458-1.421z" fill="#000"/><path d="M29.173 27.76c-.825 1.616-1.64 3.305-2.398 3.93l2.76 1.596c.78-.617 1.593-2.379 2.398-3.931l-2.76-1.594z" fill="#37474F"/><path opacity=".15" d="M29.173 27.76c-.825 1.616-1.64 3.305-2.398 3.93l2.76 1.596c.78-.617 1.593-2.379 2.398-3.931l-2.76-1.594z" fill="#000"/><path d="M29.173 27.76c-.318.694-.633 1.388-.99 2.068-.19.34-.367.678-.57 1.007a4.254 4.254 0 0 1-.76.927v-.154l1.387.789 1.373.804-.129.011a4.01 4.01 0 0 0 .74-.866c.216-.318.413-.646.604-.979.38-.667.739-1.345 1.122-2.012-.32.692-.634 1.387-.99 2.067-.176.342-.36.68-.57 1.011-.209.345-.468.657-.769.925l-.059.05-.07-.038-1.387-.79-1.374-.806-.114-.067.105-.087c.282-.257.53-.55.735-.872.218-.316.418-.644.61-.977l1.106-2.01z" fill="#263238"/><path opacity=".2" d="m29.841 33.459-.201.399 2.766 1.598c1.13-1.366 1.918-3.375 2.294-4.507-1.047 2.174-1.83 3.441-2.4 3.93l-2.459-1.42z" fill="#000"/><path d="M31.937 29.355c-.825 1.615-1.64 3.304-2.398 3.93l2.761 1.593c.779-.615 1.592-2.377 2.398-3.929l-2.76-1.594z" fill="#37474F"/><path d="M31.937 29.355c-.317.694-.633 1.387-.992 2.067-.178.34-.364.677-.57 1.007a4.267 4.267 0 0 1-.76.927v-.155l1.385.79 1.376.804-.13.011c.286-.252.535-.544.738-.866.217-.318.414-.646.606-.979.38-.667.74-1.345 1.123-2.012-.321.692-.635 1.387-.99 2.067-.178.342-.363.68-.57 1.011a4.13 4.13 0 0 1-.76.925l-.059.05-.07-.038-1.387-.79-1.374-.806-.114-.067.105-.087c.283-.257.53-.55.735-.872.219-.316.418-.644.61-.977l1.098-2.01z" fill="#263238"/><path opacity=".2" d="m32.604 35.053-.203.4 2.766 1.597c1.14-1.366 1.92-3.374 2.295-4.507-1.047 2.174-1.82 3.443-2.398 3.93l-2.46-1.42z" fill="#000"/><path d="M34.702 30.95c-.825 1.614-1.64 3.303-2.4 3.928l2.763 1.602c.777-.616 1.59-2.377 2.397-3.93l-2.76-1.6z" fill="#37474F"/><path d="M34.7 30.95c-.316.693-.631 1.386-.99 2.066-.179.34-.365.677-.57 1.007a4.32 4.32 0 0 1-.76.927v-.155l1.387.79 1.373.804-.129.011c.287-.252.536-.544.74-.866.216-.317.414-.646.604-.979.38-.667.74-1.345 1.124-2.012-.323.692-.636 1.387-.991 2.067-.177.34-.361.68-.57 1.011a4.18 4.18 0 0 1-.77.925l-.06.05-.07-.04-1.386-.788-1.39-.808-.113-.066.103-.088c.284-.256.532-.55.737-.872.216-.315.416-.644.608-.977L34.7 30.95z" fill="#263238"/><path opacity=".2" d="m35.368 36.647-.203.4 2.767 1.597c1.14-1.366 1.919-3.374 2.295-4.507-1.047 2.174-1.82 3.443-2.4 3.93l-2.459-1.42z" fill="#000"/><path d="M37.464 32.543c-.824 1.615-1.64 3.304-2.398 3.93l2.761 1.593c.78-.617 1.592-2.376 2.398-3.929l-2.76-1.594z" fill="#37474F"/><path d="M37.464 32.543c-.317.694-.633 1.387-.99 2.067-.18.34-.366.677-.57 1.007a4.302 4.302 0 0 1-.76.928l-.01-.156 1.388.788 1.373.806-.129.011c.286-.252.535-.544.74-.866.216-.317.414-.646.604-.979.38-.666.739-1.345 1.123-2.012-.322.692-.635 1.385-.99 2.068-.177.34-.361.68-.57 1.01-.21.345-.469.657-.77.926l-.059.049-.07-.04-1.387-.788-1.374-.806-.114-.066.105-.088c.282-.257.53-.55.735-.872.219-.315.418-.644.61-.977l1.115-2.01z" fill="#263238"/><path opacity=".2" d="m38.133 38.241-.203.4 2.766 1.597c1.13-1.366 1.917-3.374 2.293-4.507-1.045 2.174-1.82 3.443-2.397 3.93l-2.459-1.42z" fill="#000"/><path d="M40.229 34.137c-.825 1.615-1.64 3.304-2.398 3.93l2.76 1.594c.78-.618 1.593-2.377 2.398-3.93l-2.76-1.594z" fill="#37474F"/><path d="M40.229 34.137c-.318.694-.633 1.387-.992 2.068-.179.34-.365.676-.57 1.007a4.36 4.36 0 0 1-.76.927v-.156l1.385.788 1.368.806-.13.011a3.99 3.99 0 0 0 .738-.866c.218-.317.414-.646.606-.979.38-.666.74-1.345 1.123-2.012-.321.692-.635 1.386-.99 2.068-.177.34-.363.68-.57 1.01a4.13 4.13 0 0 1-.77.926l-.058.05-.07-.04-1.399-.795-1.374-.806-.114-.066.105-.088c.282-.257.53-.55.735-.872.219-.315.418-.644.61-.976l1.127-2.005z" fill="#263238"/><path opacity=".2" d="m40.898 39.835-.206.4 2.767 1.597c1.14-1.366 1.919-3.374 2.295-4.507-1.047 2.174-1.82 3.443-2.398 3.93l-2.459-1.42z" fill="#000"/><path d="M42.993 35.731c-.824 1.615-1.64 3.304-2.4 3.93l2.763 1.594c.777-.618 1.59-2.38 2.398-3.93l-2.76-1.594z" fill="#37474F"/><path d="M42.993 35.731c-.317.694-.633 1.387-.992 2.068-.178.34-.364.676-.57 1.007a4.37 4.37 0 0 1-.76.927l-.01-.156 1.388.788 1.376.806-.13.011c.286-.252.534-.544.737-.866.217-.317.415-.646.607-.978.38-.67.739-1.346 1.122-2.013-.323.692-.636 1.386-.99 2.068-.178.34-.362.68-.57 1.01a4.181 4.181 0 0 1-.76.926l-.06.05-.069-.04-1.387-.79-1.375-.805-.112-.066.102-.088c.284-.256.532-.55.738-.872.218-.315.416-.644.608-.976l1.107-2.01z" fill="#263238"/><path opacity=".2" d="m43.66 41.43-.203.398 2.766 1.598c1.14-1.366 1.51-2.926 1.885-4.058-1.045 2.174-1.41 2.994-1.99 3.48L43.66 41.43z" fill="#000"/><path d="M45.756 37.325c-.823 1.615-1.64 3.305-2.398 3.93l2.76 1.594c.78-.618 1.184-1.929 1.99-3.481l-2.352-2.043z" fill="#37474F"/><path d="M45.756 37.325c-.318.694-.633 1.387-.99 2.068-.19.34-.367.676-.57 1.007a4.37 4.37 0 0 1-.76.927v-.156l1.387.789 1.374.805-.13.012c.254-.216.469-.473.637-.76a9.55 9.55 0 0 0 .486-.873c.299-.596.595-1.2.935-1.782-.277.606-.524 1.222-.798 1.832-.135.309-.285.61-.45.904-.176.31-.403.587-.673.82l-.059.049-.07-.04-1.387-.789-1.374-.805-.114-.067.105-.087c.282-.258.53-.551.737-.872.217-.316.416-.645.608-.977l1.106-2.005z" fill="#263238"/><path opacity=".2" d="m46.425 43.024-.204.399 2.767 1.607c1.13-1.366 1.508-2.926 1.885-4.058-1.045 2.173-1.412 2.992-1.99 3.48l-2.458-1.428z" fill="#000"/><path d="M48.112 39.368c-.825 1.615-1.231 2.85-1.99 3.48l2.761 1.595c.78-.618 1.182-1.929 1.99-3.48l-2.761-1.595z" fill="#37474F"/><path d="M48.112 39.368c-.274.608-.523 1.222-.8 1.83-.136.308-.289.61-.456.902a3.26 3.26 0 0 1-.663.821l-.01-.156 1.385.789 1.376.805-.13.012c.254-.216.47-.473.637-.76.179-.28.335-.57.487-.872.298-.599.594-1.201.934-1.783-.279.606-.524 1.222-.797 1.832a10.56 10.56 0 0 1-.453.904c-.174.31-.401.587-.67.82l-.061.049-.069-.04-1.387-.789-1.373-.792-.114-.066.104-.088c.25-.219.464-.475.635-.76.178-.28.336-.57.488-.87.302-.604.6-1.205.937-1.788z" fill="#263238"/><path opacity=".2" d="m20.507 23.721-.213.409 1.204.7c1.131-1.369 1.918-3.377 2.294-4.51-1.045 2.176-1.82 3.443-2.398 3.932l-.887-.53z" fill="#000"/><path d="M22.464 19.534c-.825 1.617-1.64 3.306-2.398 3.931l2.76 1.594c.78-.617 1.593-2.379 2.398-3.931l-2.76-1.594z" fill="#37474F"/><path d="M22.464 19.534c-.318.693-.633 1.387-.99 2.067-.19.34-.367.678-.57 1.009a4.295 4.295 0 0 1-.76.925v-.154l1.387.789 1.373.805-.129.012c.287-.253.536-.545.74-.868.216-.316.414-.646.604-.979.38-.667.739-1.343 1.122-2.012-.32.692-.634 1.387-.99 2.07-.176.34-.36.677-.57 1.008a3.993 3.993 0 0 1-.76.925l-.058.052-.07-.04-1.388-.789-1.373-.805-.114-.067.104-.09a4.27 4.27 0 0 0 .736-.87c.218-.317.418-.645.61-.976l1.096-2.012z" fill="#263238"/><path opacity=".2" d="m21.645 24.388-.203.4 2.766 1.597c1.14-1.366 1.919-3.374 2.295-4.507-1.047 2.174-1.82 3.443-2.4 3.932l-2.458-1.422z" fill="#000"/><path d="M23.75 20.284c-.823 1.615-1.64 3.305-2.398 3.93l2.76 1.596c.78-.618 1.593-2.38 2.4-3.931l-2.762-1.595z" fill="#37474F"/><path d="M23.75 20.284c-.317.694-.633 1.387-.99 2.068-.18.34-.367.678-.57 1.007a4.318 4.318 0 0 1-.76.927v-.154l1.387.788 1.374.806h-.13c.288-.252.536-.543.74-.866.216-.318.414-.646.604-.979.38-.667.739-1.345 1.125-2.012-.323.692-.637 1.387-.992 2.067-.177.342-.361.68-.57 1.011a4.034 4.034 0 0 1-.77.925l-.058.05-.07-.038-1.388-.79-1.402-.797-.112-.066.102-.088c.284-.256.532-.55.738-.872.216-.315.416-.644.608-.976l1.134-2.01z" fill="#263238"/><path opacity=".2" d="m24.41 25.983-.204.398 2.774 1.598c1.13-1.366 1.917-3.374 2.293-4.506-1.045 2.173-1.82 3.442-2.398 3.93l-2.466-1.42z" fill="#000"/><path d="M26.505 21.878c-.825 1.616-1.64 3.305-2.398 3.93l2.76 1.596c.78-.618 1.593-2.38 2.399-3.931l-2.761-1.595z" fill="#37474F"/><path d="M26.505 21.878c-.317.694-.633 1.387-.992 2.068-.178.34-.365.678-.57 1.007a4.256 4.256 0 0 1-.76.927v-.154l1.385.789 1.376.805-.13.01c.287-.252.535-.544.738-.867.218-.317.416-.646.606-.978.38-.667.74-1.345 1.123-2.012-.321.691-.635 1.387-.99 2.067-.177.342-.363.68-.57 1.01a4.13 4.13 0 0 1-.76.926l-.059.05-.07-.039-1.387-.79-1.374-.806-.114-.066.105-.088c.282-.256.53-.55.735-.872.218-.315.418-.644.61-.976l1.098-2.01z" fill="#263238"/><path opacity=".2" d="m27.17 27.577-.205.399 2.766 1.598c1.14-1.367 1.92-3.375 2.295-4.507-1.047 2.173-1.82 3.442-2.397 3.93l-2.459-1.42z" fill="#000"/><path d="M29.27 23.473c-.825 1.615-1.64 3.304-2.4 3.929l2.762 1.596c.777-.618 1.59-2.379 2.398-3.931l-2.76-1.594z" fill="#37474F"/><path d="M29.27 23.473c-.318.693-.633 1.387-.992 2.067-.179.34-.365.676-.57 1.007a4.32 4.32 0 0 1-.76.927v-.156l1.387.79 1.375.806h-.129c.286-.252.534-.544.737-.866.217-.317.415-.646.606-.979.38-.667.74-1.345 1.123-2.012-.323.692-.636 1.387-.99 2.067-.178.342-.362.68-.57 1.011a4.18 4.18 0 0 1-.77.925l-.06.05-.068-.038-1.387-.79-1.376-.806-.112-.067.105-.087c.282-.257.53-.55.735-.872.218-.316.416-.644.608-.977l1.108-2z" fill="#263238"/><path opacity=".2" d="m29.936 29.17-.203.4 2.766 1.59c1.14-1.366 1.92-3.374 2.296-4.507-1.047 2.174-1.82 3.443-2.4 3.931l-2.459-1.413z" fill="#000"/><path d="M32.032 25.067c-.823 1.615-1.64 3.304-2.398 3.929l2.761 1.594c.779-.617 1.592-2.379 2.4-3.931l-2.763-1.592z" fill="#37474F"/><path d="M32.032 25.067c-.317.693-.633 1.387-.99 2.067-.178.34-.367.676-.57 1.007a4.318 4.318 0 0 1-.76.927l-.01-.154 1.388.789 1.373.803-.129.012c.287-.252.536-.544.74-.867.216-.317.413-.646.604-.978.38-.667.739-1.345 1.124-2.012-.323.691-.636 1.387-.992 2.067-.176.342-.36.68-.57 1.01a4.074 4.074 0 0 1-.76.926l-.058.05-.07-.038-1.386-.79-1.375-.806-.113-.067.103-.087c.284-.257.532-.55.737-.872.217-.316.416-.645.608-.977l1.106-2.01z" fill="#263238"/><path opacity=".2" d="m32.7 30.765-.21.395 2.766 1.598c1.14-1.366 1.917-3.375 2.294-4.507-1.045 2.174-1.82 3.443-2.398 3.93L32.7 30.764z" fill="#000"/><path d="M34.797 26.66c-.825 1.616-1.64 3.305-2.398 3.93l2.76 1.594c.78-.615 1.593-2.377 2.398-3.93l-2.76-1.593z" fill="#37474F"/><path d="M34.797 26.66c-.318.694-.633 1.388-.992 2.068-.179.34-.365.676-.57 1.007a4.259 4.259 0 0 1-.76.927v-.156l1.387.79 1.373.804-.129.012a3.99 3.99 0 0 0 .737-.867c.219-.317.417-.646.607-.978.38-.667.739-1.345 1.122-2.012-.32.692-.634 1.385-.99 2.067-.176.34-.362.68-.57 1.01a4.13 4.13 0 0 1-.769.926l-.059.05-.07-.04-1.387-.789-1.374-.805-.114-.067.105-.087c.276-.26.517-.556.716-.88.218-.315.418-.644.61-.977l1.127-2.002z" fill="#263238"/><path opacity=".2" d="m35.465 32.359-.203.399 2.765 1.598c1.14-1.366 1.919-3.375 2.295-4.507-1.045 2.174-1.82 3.443-2.398 3.93l-2.459-1.42z" fill="#000"/><path d="M37.561 28.255c-.825 1.615-1.64 3.304-2.4 3.93l2.763 1.593c.779-.617 1.59-2.377 2.398-3.929l-2.76-1.594z" fill="#37474F"/><path d="M37.561 28.255c-.317.693-.633 1.387-.992 2.067-.178.34-.364.677-.57 1.007a4.312 4.312 0 0 1-.76.927l-.01-.156 1.388.789 1.375.806-.129.011a4.05 4.05 0 0 0 .737-.866c.217-.318.415-.646.606-.979.38-.667.74-1.345 1.123-2.012-.323.692-.636 1.385-.99 2.067-.178.34-.362.68-.57 1.011a4.181 4.181 0 0 1-.76.925l-.06.05-.069-.04-1.387-.789-1.373-.805-.114-.067.104-.087c.283-.257.53-.55.735-.872.219-.316.416-.644.608-.977l1.108-2.01z" fill="#263238"/><path opacity=".2" d="m38.228 33.953-.203.399 2.766 1.598c1.14-1.366 1.92-3.375 2.295-4.507-1.047 2.174-1.82 3.443-2.4 3.93l-2.458-1.42z" fill="#000"/><path d="M40.324 29.849c-.823 1.615-1.64 3.304-2.398 3.93l2.76 1.593c.78-.617 1.593-2.377 2.4-3.929l-2.762-1.594z" fill="#37474F"/><path d="M40.324 29.849c-.318.694-.633 1.387-.99 2.067-.179.34-.365.677-.57 1.007a4.37 4.37 0 0 1-.76.927v-.155l1.387.788 1.373.806-.129.011c.287-.252.536-.544.74-.866.216-.318.414-.646.604-.979.38-.667.74-1.345 1.124-2.012-.323.692-.636 1.385-.991 2.067-.177.34-.361.68-.57 1.011-.21.345-.469.657-.77.925l-.059.05-.07-.04-1.385-.789-1.376-.805-.112-.067.103-.087c.283-.257.53-.55.737-.872.217-.316.416-.644.608-.977l1.106-2.01z" fill="#263238"/><path opacity=".2" d="m40.992 35.547-.203.4 2.767 1.597c1.13-1.366 1.917-3.374 2.293-4.507-1.045 2.174-1.82 3.443-2.398 3.93l-2.459-1.42z" fill="#000"/><path d="M43.088 31.443c-.824 1.615-1.64 3.304-2.398 3.93l2.761 1.593c.78-.617 1.592-2.377 2.398-3.929l-2.76-1.594z" fill="#37474F"/><path d="M43.088 31.443c-.317.694-.633 1.387-.992 2.067-.178.34-.364.677-.57 1.007a4.302 4.302 0 0 1-.76.927l-.01-.155 1.388.788 1.374.806-.13.011c.286-.252.535-.544.74-.866.216-.317.414-.646.604-.979.38-.669.739-1.345 1.123-2.012-.322.692-.635 1.385-.99 2.067-.177.34-.363.68-.57 1.011a4.13 4.13 0 0 1-.76.925l-.06.05-.07-.04-1.386-.788-1.374-.806-.114-.067.104-.087c.283-.257.53-.55.736-.872.218-.316.418-.644.61-.977l1.107-2.01z" fill="#263238"/><path opacity=".2" d="m43.757 37.141-.203.4 2.766 1.599c1.14-1.366 1.917-3.374 2.293-4.507-1.045 2.174-1.82 3.443-2.397 3.93l-2.459-1.422z" fill="#000"/><path d="M45.853 33.037c-.825 1.615-1.64 3.304-2.4 3.93l2.763 1.603c.779-.617 1.59-2.379 2.397-3.93l-2.76-1.603z" fill="#37474F"/><path d="M45.853 33.037c-.318.694-.633 1.387-.992 2.067-.179.34-.365.677-.57 1.007a4.312 4.312 0 0 1-.76.928v-.156l1.387.788 1.376.806-.13.011a4.05 4.05 0 0 0 .737-.866c.217-.317.415-.646.607-.979.38-.668.739-1.345 1.122-2.012-.323.692-.634 1.385-.99 2.068-.178.34-.362.68-.57 1.01a4.13 4.13 0 0 1-.769.926l-.059.049-.07-.04-1.387-.788-1.39-.806-.115-.066.105-.088c.282-.257.53-.55.735-.872.218-.315.416-.644.61-.977l1.123-2.01z" fill="#263238"/><path opacity=".2" d="m46.52 38.735-.204.4 2.767 1.597c1.14-1.366 1.919-3.376 2.295-4.507-1.047 2.174-1.82 3.441-2.4 3.93l-2.458-1.42z" fill="#000"/><path d="M48.615 34.631c-.822 1.615-1.64 3.304-2.398 3.93l2.761 1.594c.78-.618 1.592-2.38 2.4-3.93l-2.763-1.594z" fill="#37474F"/><path d="M48.615 34.631c-.317.694-.632 1.387-.99 2.068-.178.34-.364.676-.57 1.007a4.37 4.37 0 0 1-.76.927l-.01-.156 1.388.788 1.374.806-.13.011c.287-.252.536-.544.74-.866.216-.317.414-.646.604-.979.38-.668.74-1.345 1.124-2.012-.322.692-.636 1.386-.991 2.068-.177.34-.361.68-.57 1.01a4.118 4.118 0 0 1-.76.926l-.061.05-.07-.04-1.386-.79-1.375-.805-.112-.066.102-.088c.284-.256.532-.55.738-.872.216-.315.416-.644.608-.977l1.107-2.01zM69.808 45.473 24.495 19.315v-.8l45.313 26.16v.798z" fill="#263238"/><path d="M24.499 18.276c-.228-.127-.54-.106-.886.091a2.47 2.47 0 0 0-1.263 2.19l45.313 26.158c.76-1.74 1.425-2.595 2.147-2.28L24.499 18.276z" fill="#455A64"/><path opacity=".1" d="M68.626 44.96c.395-.51.78-.701 1.184-.525L24.499 18.276c-.228-.127-.54-.106-.886.091a2.626 2.626 0 0 0-.467.346l45.48 26.247z" fill="#fff"/><path d="M68.924 44.526a2.782 2.782 0 0 0-1.261 2.19l.38-.22a1.955 1.955 0 0 1 .883-1.53c.49-.284.886-.054.886.509l.38-.217c-.004-.81-.568-1.134-1.268-.732zM24.499 18.276a.93.93 0 0 0-.808.148 2.613 2.613 0 0 0-.621.57c-.18.224-.331.468-.452.728a3.054 3.054 0 0 0-.266.83c-.037-.303-.001-.61.104-.896.1-.29.249-.561.44-.8.192-.246.436-.446.713-.586.14-.07.294-.112.45-.121a.679.679 0 0 1 .44.127zM27.506 20.009a.926.926 0 0 0-.805.148 2.613 2.613 0 0 0-.622.57c-.179.224-.331.468-.454.728a3.114 3.114 0 0 0-.264.83 1.928 1.928 0 0 1 .103-.897c.1-.29.25-.56.443-.8.19-.245.433-.445.71-.585.141-.07.295-.112.452-.121.156-.01.31.035.437.127zM30.525 21.755a.93.93 0 0 0-.807.148 2.613 2.613 0 0 0-.621.57c-.18.224-.332.468-.453.728a3.054 3.054 0 0 0-.266.83c-.036-.303 0-.61.105-.897.1-.29.249-.56.44-.8a2.12 2.12 0 0 1 .711-.585c.141-.07.295-.112.453-.121a.679.679 0 0 1 .438.127zM33.526 23.488a.93.93 0 0 0-.808.148 2.567 2.567 0 0 0-.62.57c-.18.223-.332.468-.453.728a3.054 3.054 0 0 0-.267.83c-.036-.303 0-.61.105-.897.1-.29.249-.56.44-.8a2.09 2.09 0 0 1 .713-.585c.14-.07.294-.112.45-.122a.678.678 0 0 1 .44.128zM36.547 25.234a.924.924 0 0 0-.806.146 2.548 2.548 0 0 0-.621.57c-.18.223-.332.467-.454.726a3.144 3.144 0 0 0-.266.83c-.037-.302-.001-.609.104-.895.1-.29.249-.562.44-.801a2.15 2.15 0 0 1 .713-.586c.141-.07.295-.112.453-.121a.674.674 0 0 1 .437.13zM39.56 26.98a.94.94 0 0 0-.808.148 2.538 2.538 0 0 0-.619.57 3.61 3.61 0 0 0-.454.726 3.122 3.122 0 0 0-.266.83c-.037-.303 0-.61.104-.896.1-.29.25-.56.441-.8.193-.245.436-.444.713-.586.14-.07.294-.112.452-.121.156-.01.31.036.437.129zM42.579 28.717a.933.933 0 0 0-.806.148 2.546 2.546 0 0 0-.62.57c-.18.223-.333.466-.455.726a3.215 3.215 0 0 0-.266.83c-.037-.302 0-.61.104-.895.1-.29.25-.562.441-.802a2.15 2.15 0 0 1 .713-.585c.14-.07.295-.112.452-.122.156-.009.31.037.437.13zM45.568 30.444a.93.93 0 0 0-.808.148 2.53 2.53 0 0 0-.62.57c-.18.223-.332.466-.453.726a3.068 3.068 0 0 0-.266.832c-.037-.303-.001-.61.104-.897.1-.29.249-.56.441-.8.191-.246.435-.446.712-.587.14-.07.294-.112.45-.122a.692.692 0 0 1 .44.13zM48.593 32.19a.926.926 0 0 0-.806.148 2.573 2.573 0 0 0-.621.57c-.18.223-.331.467-.453.726a3.077 3.077 0 0 0-.266.83c-.036-.302 0-.609.105-.895.1-.29.249-.562.44-.802.192-.244.435-.444.711-.585.141-.07.295-.112.453-.121a.682.682 0 0 1 .437.129zM51.58 33.917a.93.93 0 0 0-.808.146 2.577 2.577 0 0 0-.62.57 3.61 3.61 0 0 0-.454.726 3.145 3.145 0 0 0-.266.83c-.036-.302 0-.609.105-.895.1-.29.248-.562.44-.801.193-.245.436-.444.713-.586.141-.07.295-.112.452-.121a.675.675 0 0 1 .437.13zM54.655 35.72a.928.928 0 0 0-.805.148 2.543 2.543 0 0 0-.622.57 3.725 3.725 0 0 0-.454.726 3.135 3.135 0 0 0-.266.832c-.036-.303 0-.61.105-.897.1-.29.249-.56.44-.8.194-.242.439-.44.717-.579.141-.07.295-.111.452-.122a.686.686 0 0 1 .433.122zM57.724 37.483a.932.932 0 0 0-.806.147 2.585 2.585 0 0 0-.621.57 3.61 3.61 0 0 0-.454.725 3.21 3.21 0 0 0-.266.83c-.036-.302 0-.608.104-.894.1-.291.25-.563.443-.802.191-.245.434-.444.71-.585.142-.07.295-.112.453-.122a.675.675 0 0 1 .437.131zM60.713 39.208a.932.932 0 0 0-.808.149 2.567 2.567 0 0 0-.62.57c-.18.223-.332.468-.453.727a3.054 3.054 0 0 0-.266.83c-.037-.302-.001-.61.104-.896.1-.29.249-.56.44-.8.193-.245.436-.445.713-.585.141-.071.295-.113.453-.122.156-.01.31.035.437.127zM63.74 40.955a.93.93 0 0 0-.808.148 2.613 2.613 0 0 0-.622.57c-.179.223-.33.468-.452.727a3.054 3.054 0 0 0-.266.83c-.036-.302 0-.61.105-.896.1-.29.249-.56.44-.8.191-.245.434-.445.711-.585.141-.07.295-.112.452-.122a.679.679 0 0 1 .44.128zM66.724 42.682a.928.928 0 0 0-.805.148 2.505 2.505 0 0 0-.622.57 3.72 3.72 0 0 0-.454.726 3.135 3.135 0 0 0-.266.832c-.036-.303 0-.61.105-.897.1-.29.249-.562.44-.802.193-.244.436-.444.713-.585.141-.07.295-.112.452-.122a.686.686 0 0 1 .437.13z" fill="#37474F"/><path d="M14.786 14.2a4.929 4.929 0 0 1 1.05 3.47l-.077.57a4.94 4.94 0 0 1-9.787-1.125l.051-.57a4.94 4.94 0 0 1 8.763-2.344z" fill="#fff"/><path d="M7.568 13.08a5.364 5.364 0 0 0 5.941 8.888l1.44.832a.311.311 0 0 0 .454-.361l-.498-1.592a5.364 5.364 0 0 0-7.337-7.767zm7.22 1.113a4.94 4.94 0 0 1 1.05 3.477l-.077.57a4.94 4.94 0 0 1-9.79-1.108l.05-.57a4.94 4.94 0 0 1 8.76-2.369h.007z" fill="#455A64"/><path d="M10.133 20.115a.778.778 0 0 1-.57-.245l-1.756-1.877a.778.778 0 0 1 1.14-1.06l1.14 1.218 2.702-3.42a.776.776 0 1 1 1.218.961l-3.266 4.129a.77.77 0 0 1-.57.292l-.038.002z" fill="#FF6F00"/></svg>