<svg width="93" height="93" fill="none" xmlns="http://www.w3.org/2000/svg"><path d="m5.928 21.822 1.512.872L37.661 5.245l-1.512-.872L5.928 21.822z" fill="#F5F5F5"/><path d="m5.928 21.822 1.512.872v27.918l-1.512-.874V21.822z" fill="#EBEBEB"/><path d="M37.661 5.245v27.919L7.44 50.612V22.694L37.661 5.245z" fill="#E0E0E0"/><path d="M36.906 6.555v26.172L8.196 49.303V23.131l28.71-16.576z" fill="#FAFAFA"/><path d="m36.906 32.727-.757-.435V6.99l.757-.435v26.172z" fill="#EBEBEB"/><path d="m36.906 32.727-.757-.435L8.195 48.43v.872l28.711-16.576z" fill="#F5F5F5"/><g opacity=".15" fill="#000"><path d="M17.183 24.44a.27.27 0 0 1-.105-.24v-4.264l.373-.218v.433c.081-.09.167-.204.262-.327.205-.289.442-.554.707-.79.217-.189.467-.336.738-.434.135-.044.26-.112.372-.199v-.502l.372-.214v3.443a.6.6 0 0 1-.056.245v.64l-1.674 9.893-.97.558-.02-8.024zm.271-1.724c1-.604 1.345-1.116 1.9-1.94l.163-.242v-.98a4.058 4.058 0 0 0-.268.333 4.833 4.833 0 0 1-.705.787c-.215.189-.463.338-.73.44-.13.042-.252.105-.36.187v1.415zM21.543 21.974c-.082-.022-.153-.106-.153-.262v-4.265l.372-.218v.441c.082-.09.167-.203.262-.326.205-.289.442-.554.707-.79.214-.19.461-.34.73-.44.134-.045.26-.113.371-.202v-.502l.372-.216v3.443c0 .086-.02.17-.056.248l-.457 1.002.348-.13-.668 8.143-2.383.895.555-6.821zm.223-1.748c1-.603 1.345-1.116 1.899-1.94l.163-.24v-.98c-.085.09-.172.206-.267.33a4.767 4.767 0 0 1-.705.79c-.216.189-.463.337-.731.438a1.27 1.27 0 0 0-.36.196v1.406zM17.547 41.908c-.104 0-.216-.086-.216-.272v-2.654l.105-.06v-.386a.664.664 0 0 1 .102-.348V33.75l-.02.013-.2-.344 1.561-.9a.638.638 0 0 1 .32-.094c.09 0 .177.023.255.067.223.13.351.423.351.804v2.888c0 .609-.32 1.27-.729 1.505l-1.185.687a.257.257 0 0 0-.06.16v.152l.107-.06v2.76a.586.586 0 0 1-.251.471.27.27 0 0 1-.14.049zm.283-3.964 1.049-.605c.283-.163.53-.706.53-1.162v-2.883a.558.558 0 0 0-.152-.46.127.127 0 0 0-.058-.014.274.274 0 0 0-.123.039l-1.246.721v4.364zM20.985 38.982a.244.244 0 0 1-.235-.236l-.074.042a.173.173 0 0 1-.093.027c-.106 0-.186-.093-.227-.255a.168.168 0 0 1-.052 0 .199.199 0 0 1-.173-.099.203.203 0 0 1 .072-.271l.136-.079c.026-.21.102-.465.244-.546l.163-.093v-.038a.663.663 0 0 1 .287-.539l.917-.53a.279.279 0 0 1 .141-.041c.12 0 .238.093.238.303v.335l.242-.138a.642.642 0 0 0 .208-.481V33.14a1.003 1.003 0 0 1 .408-.825l.234-.134a.714.714 0 0 1 .301-.449l.93-.543a.312.312 0 0 1 .155-.044.234.234 0 0 1 .203.113l.06-.033a.413.413 0 0 1 .207-.06c.062 0 .122.016.175.047a.53.53 0 0 1 .223.481v2.733a.325.325 0 0 0 .019.12l.655-.371v-1.254a.952.952 0 0 1 .405-.768.383.383 0 0 1 .186-.056c.155 0 .31.127.31.41v2.8a.951.951 0 0 1-.407.769.372.372 0 0 1-.186.055c-.154 0-.308-.126-.308-.409v-1.097l-.465.268a.411.411 0 0 1-.207.06.345.345 0 0 1-.176-.05.529.529 0 0 1-.224-.48v-2.73a.327.327 0 0 0-.018-.122l-.212.124a.722.722 0 0 1-.302.448l-.937.542a.298.298 0 0 1-.156.046.238.238 0 0 1-.201-.113l-.073.04a.643.643 0 0 0-.21.483v3.208a1 1 0 0 1-.407.824l-.44.255v.442a.668.668 0 0 1-.286.54l-.917.53a.3.3 0 0 1-.133.04zM25.906 21.684c-.333 0-.586-.33-.63-.82a2.802 2.802 0 0 1 .09-.971c.08-.326.175-.646.287-.962.05-.15.11-.301.168-.448.057-.147.12-.313.169-.463.09-.288.147-.585.169-.886.01-.372 0-.757 0-1.134v-.558a.684.684 0 0 1-.186-.51 1.235 1.235 0 0 1 .498-1.017.48.48 0 0 1 .239-.07c.07 0 .138.02.199.055a.628.628 0 0 1 .247.573 1.405 1.405 0 0 1-.186.679v.604l.683-.394a.216.216 0 0 1 .111-.034.196.196 0 0 1 .186.222.453.453 0 0 1-.204.372l-.776.446v.405c.012.232.068.458.166.668.048.09.102.177.163.259.062.084.119.172.17.264.121.201.219.416.291.64.095.282.127.58.093.876-.055.68-.435 1.42-.842 1.648l-.095-.16c.35-.214.677-.897.714-1.488a1.694 1.694 0 0 0-.1-.744 2.685 2.685 0 0 0-.285-.558 2.39 2.39 0 0 0-.162-.229 2.07 2.07 0 0 1-.2-.279 2.031 2.031 0 0 1-.22-.78c0-.137-.011-.27-.013-.405l-.171.099c0 .17 0 .346-.017.524a4.447 4.447 0 0 1-.212 1.01c-.06.175-.126.337-.186.493-.06.156-.113.28-.163.424-.115.3-.212.605-.293.915-.083.283-.119.578-.104.873.028.396.205.67.434.67a.395.395 0 0 0 .186-.053l.09.162a.596.596 0 0 1-.304.091l-.004-.01zm.579-5.57.158-.092v-.519a.504.504 0 0 1-.147.049c-.008.137-.011.561-.011.561zm-.093-1.003a.144.144 0 0 1 .06.04h.012a.877.877 0 0 0 .3-.673c0-.16-.049-.22-.062-.227a.112.112 0 0 0-.04.015.876.876 0 0 0-.3.674.438.438 0 0 0 .03.17zM26.299 25.78l-.83.48v-1.89l.83-.48v-.274l-.58.335v-.368l.235-.138v-.253l.345-.199v-.128l.688-.398v1.027l.87-.503v.456l.305-.177v.977l-.305.177v.455l-.87.503v4.499l-.688.398v-4.5zM30.96 32.515v-.72l-.158.091v.175l-.361.208a1.984 1.984 0 0 0-.458.428.865.865 0 0 1-.221.186.482.482 0 0 1-.242.072c-.204 0-.342-.169-.342-.418a1.08 1.08 0 0 1 .49-.861.475.475 0 0 1 .24-.073h.025a.846.846 0 0 0 .415-.093l.454-.262v.186l.158-.093v-1.088l-.437.251a.147.147 0 0 1-.22-.156.305.305 0 0 1 .127-.25l.53-.304v-.745l1.151-.665v.744l.247-.142v-.744l1.152-.666v.744l.21-.12v-.186l.36-.209c.175-.117.33-.261.458-.428a.87.87 0 0 1 .222-.186.487.487 0 0 1 .242-.072c.204 0 .342.17.342.42a1.078 1.078 0 0 1-.491.86.476.476 0 0 1-.24.072h-.017a.824.824 0 0 0-.415.095l-.454.26v-.175l-.21.123v1.088l.49-.282a.136.136 0 0 1 .074-.02c.069 0 .145.053.145.176a.299.299 0 0 1-.127.247l-.59.335v.818l-.743 2.175-.41.238v-2.561l-.247.141v2.565l-.372.214-.777-1.393zm1.151-1.844.247-.143V29.44l-.247.143v1.088zM9.17 29.31l.357-.207v-1.761l-.186.104v-1.283a3.58 3.58 0 0 0-.16-.977 1.639 1.639 0 0 1-.058-.448c0-.599.242-1.207.558-1.386a.371.371 0 0 1 .186-.054c.274 0 .458.345.458.858 0 .169-.019.337-.054.502a5.876 5.876 0 0 0-.164 1.174v1.177l-.186.102v1.758l.356-.204v4.184l-1.116.642.009-4.181zM10.94 28.287l.248-.142v-1.757l-.186.104v-1.285a3.535 3.535 0 0 0-.162-.977 1.617 1.617 0 0 1-.056-.446c0-.6.242-1.21.558-1.388a.371.371 0 0 1 .186-.052c.274 0 .458.344.458.858 0 .169-.02.337-.056.502a6 6 0 0 0-.162 1.172v1.177l-.186.104v1.758l.248-.142v4.186l-.893.515.004-4.187zM12.648 27.297l.186-.11V25.43l-.186.104V24.25a3.6 3.6 0 0 0-.162-.977 1.63 1.63 0 0 1-.056-.448c0-.599.242-1.207.558-1.386a.372.372 0 0 1 .186-.054c.276 0 .46.345.46.858 0 .17-.02.338-.056.504a5.985 5.985 0 0 0-.162 1.172v1.177l-.186.104v1.758l.186-.112v4.187l-.768.45v-4.185zM14.37 26.308l.138-.082v-1.758l-.186.105v-1.284a3.58 3.58 0 0 0-.16-.976 1.572 1.572 0 0 1-.058-.449c0-.599.242-1.207.558-1.385a.371.371 0 0 1 .186-.054c.274 0 .458.344.458.857 0 .17-.019.337-.056.502a5.988 5.988 0 0 0-.162 1.174v1.177l-.186.103v1.757l.138-.078v4.185l-.673.389.003-4.183zM28.973 20.82v-3.522l.357-.206v-1.767l-.186.102v-1.291a3.658 3.658 0 0 0-.16-.975 1.612 1.612 0 0 1-.057-.448c0-.17.02-.34.06-.506v-.039l1.028-.595.035.11c.045.145.066.296.063.448 0 .17-.02.339-.057.504-.09.384-.144.776-.162 1.17v1.179l-.186.104v1.764l.355-.205v3.627l-.119.625-.828.491-.143-.57zM30.744 19.798v-3.534l.247-.142v-1.757l-.186.104v-1.284a3.65 3.65 0 0 0-.16-.974 1.55 1.55 0 0 1-.057-.448c0-.171.02-.342.06-.508v-.04l1.033-.596.034.113c.04.146.06.297.058.449 0 .169-.02.338-.056.504-.09.384-.144.775-.162 1.17v1.181l-.186.102v1.76l.244-.142v3.627l-.118.623-.628.363-.123-.571zM32.459 18.808v-3.534l.186-.111v-1.756l-.186.104v-1.285a3.6 3.6 0 0 0-.162-.975 1.595 1.595 0 0 1-.058-.446c0-.171.02-.342.06-.508l.01-.04 1.04-.585.038.108c.043.145.064.296.061.448 0 .17-.02.339-.055.504a6.57 6.57 0 0 0-.164 1.172v1.179l-.186.104v1.758l.186-.11v3.616l-.121.625-.519.3-.13-.568zM34.176 17.817v-3.534l.135-.078v-1.756l-.186.102v-1.283a3.676 3.676 0 0 0-.16-.975 1.604 1.604 0 0 1-.057-.448c0-.171.02-.341.06-.508V9.3L35 8.701l.034.114c.041.145.06.296.058.448 0 .17-.02.338-.056.504-.09.384-.143.776-.162 1.17v1.179l-.186.104v1.758l.138-.08v3.627l-.121.625-.41.234-.12-.567zM9.17 45.667l-.06-.106.06-.034v-.476l-.06-.104.06-.035v-.477l-.06-.104.06-.035v-.474l-.06-.106.06-.034v-.476l-.06-.104.06-.036v-.476l-.06-.104.06-.035v-.474l-.06-.106.06-.034v-.476l-.06-.104.06-.036v-.476l-.06-.104.06-.035v-.475l-.06-.106.06-.033v-.476l-.06-.105.06-.035V38.9l-.06-.104.06-.035v-.475l-.06-.106.06-.033v-.476l-.06-.105.06-.035v-.476l-.06-.104.06-.036v-1.534l1.37-.792v11.014l-.05.025-1.32.762v-.723zM14.475 39.393l-.062-.104.062-.036v-.476l-.062-.104.062-.035v-.474l-.062-.107.062-.033v-.476l-.062-.104.062-.036v-.476l-.062-.104.062-.035v-.475l-.062-.106.062-.033v-.476l-.062-.105.062-.035v-.476l-.062-.104.062-.035v-.475l-.062-.106.062-.033v-.142l-2.578 1.488v-1.873l3.794-2.19v1.658l.154-.089v6.14l-1.37.79v-.723zM11.298 38.801l4.14 3.979-4.14 2.384v-6.363zm.892 4.537 1.23-.709-1.23-1.183v1.892zM29.13 28.209a.188.188 0 0 1-.13-.067.185.185 0 0 1-.042-.14v-.275a.407.407 0 0 1 .172-.326v-.303a.591.591 0 0 0-.036-.214l-.067-.096a.682.682 0 0 1-.069-.318v-1.598c-.02-.637.05-1.273.209-1.89.28-1.082.9-1.26.93-1.267l.34-.089-.251.246c-.623.613-.61 1.545-.426 1.893a.245.245 0 0 0 .242.129.505.505 0 0 0 .137-.02h.038c.083 0 .167.077.167.252v.24l2.392-1.39v-.2l2.03-1.172a.27.27 0 0 1 .133-.04c.114 0 .225.09.225.287v.469a.613.613 0 0 1-.266.5l-2.122 1.217v-.201l-2.394 1.382v.206a1.574 1.574 0 0 1-.096.462l-.16.42a1.4 1.4 0 0 0-.086.396v.208h.035c.082 0 .17.066.17.207v.275a.396.396 0 0 1-.175.328l-.804.465a.2.2 0 0 1-.098.027l.002-.003z"/></g><path d="m19.926 20.806-2.464 3.171v8.143l.794-.457 1.67-9.834v-1.023z" fill="#F5F5F5"/><path d="m18.146 31.462.11.2 1.67-9.833v-.852l-.16.091v.843l-1.62 9.55zM17.462 23.977v8.143l.148-.333v-8l-.148.19zM18.16 30.528a.579.579 0 0 1-.22.463c-.121.071-.218-.024-.218-.21a.574.574 0 0 1 .218-.463c.12-.07.22.024.22.21z" fill="#E0E0E0"/><path d="M19.796 17.767v.482c-.316.29-.578.199-1.127.67-.549.47-.815 1.035-1.116 1.256v-.481l-.186.11v4.21c0 .142.076.214.17.16l1.32-.762a.335.335 0 0 0 .122-.149l.964-2.115a.507.507 0 0 0 .048-.206v-3.283l-.195.108zm0 2.604c-.694 1.019-1.01 1.605-2.249 2.321v-1.61c.313-.284.575-.198 1.116-.665.541-.467.82-1.041 1.127-1.257l.006 1.21z" fill="#EBEBEB"/><path d="M17.547 21.081c.313-.282.575-.197 1.116-.664.541-.467.82-1.041 1.127-1.257v-.912c-.316.29-.578.2-1.127.67-.549.47-.814 1.036-1.116 1.257v.906z" fill="#E0E0E0"/><path opacity=".1" d="M17.547 21.081c.313-.282.575-.197 1.116-.664.541-.467.82-1.041 1.127-1.257v-.912c-.316.29-.578.2-1.127.67-.549.47-.814 1.036-1.116 1.257v.906z" fill="#000"/><path d="m23.47 27.643-2.192.82.648-7.932 2.19-.822-.646 7.934z" fill="#F5F5F5"/><path d="M22.36 27.028a.521.521 0 0 1-.245.431c-.119.045-.202-.076-.186-.27a.53.53 0 0 1 .246-.431c.119-.045.203.076.186.27zM22.145 20.447l-.22.084-.647 7.933.263-.59.604-7.427zM24.117 19.709l-.222.083-.604 7.427.178.424.648-7.934z" fill="#E0E0E0"/><path d="M24.108 15.278v.482c-.317.29-.58.197-1.128.67-.547.472-.814 1.035-1.116 1.257v-.482l-.186.108v4.213c0 .141.077.214.171.158l1.32-.76a.345.345 0 0 0 .122-.15l.963-2.114a.514.514 0 0 0 .049-.209v-3.28l-.195.107zm0 2.604c-.694 1.017-1.01 1.6-2.25 2.316V18.6c.313-.285.575-.197 1.117-.664.541-.467.82-1.042 1.127-1.257l.006 1.203z" fill="#EBEBEB"/><path d="M21.859 18.6c.312-.285.574-.197 1.116-.664.541-.467.82-1.042 1.127-1.257v-.912c-.316.29-.58.197-1.127.67-.547.472-.815 1.036-1.116 1.257v.906z" fill="#E0E0E0"/><path opacity=".1" d="M21.859 18.6c.312-.285.574-.197 1.116-.664.541-.467.82-1.042 1.127-1.257v-.912c-.316.29-.58.197-1.127.67-.547.472-.815 1.036-1.116 1.257v.906z" fill="#000"/><path d="M17.923 33.251h-.106v4.896h.106V33.25z" fill="#E0E0E0"/><path d="M17.925 38.941h-.21v-.592a.515.515 0 0 1 .21-.424l1.186-.684c.313-.186.577-.744.577-1.243v-2.89c0-.266-.074-.467-.199-.54a.273.273 0 0 0-.273.025l-1.488.853-.106-.185 1.488-.854a.467.467 0 0 1 .481-.024c.186.111.305.372.305.721v2.889c0 .578-.299 1.203-.682 1.425l-1.185.684a.321.321 0 0 0-.106.242l.002.597z" fill="#F0F0F0"/><path d="M17.826 41.597h-.013c-.111.065-.203 0-.203-.153V38.84l.42-.241v2.604a.492.492 0 0 1-.204.394z" fill="#E0E0E0"/><path d="M17.943 39.136a.334.334 0 0 1-.122.262c-.07.04-.125-.014-.125-.119a.323.323 0 0 1 .125-.262c.067-.04.122.013.122.12z" fill="#FAFAFA"/><path d="M20.49 38.288a.102.102 0 0 1-.091-.052.106.106 0 0 1 .037-.145l2.368-1.365a.716.716 0 0 0 .254-.558v-3.212a.915.915 0 0 1 .361-.745l1.892-1.091a.286.286 0 0 1 .29-.013.444.444 0 0 1 .186.401v2.733c0 .12.035.197.07.217a.08.08 0 0 0 .08-.013l.93-.54a.107.107 0 0 1 .081-.011.106.106 0 0 1 .057.166.104.104 0 0 1-.031.026l-.93.544a.281.281 0 0 1-.29.01.44.44 0 0 1-.186-.4v-2.732c0-.122-.036-.197-.071-.217-.035-.02-.045 0-.078.01l-1.892 1.093a.713.713 0 0 0-.257.558v3.208a.915.915 0 0 1-.36.744l-2.366 1.367a.109.109 0 0 1-.054.017z" fill="#F0F0F0"/><path d="M26.996 35.812c-.199.114-.359 0-.359-.273v-2.803a.862.862 0 0 1 .359-.688c.2-.116.36 0 .36.271v2.803a.864.864 0 0 1-.36.69zM24.894 31.878l-.94.542c-.152.087-.276 0-.276-.209v-.055a.665.665 0 0 1 .277-.529l.94-.54c.152-.09.274 0 .274.207v.056a.664.664 0 0 1-.275.528zM22.182 38.145l-.917.528c-.134.078-.24 0-.24-.186v-1.231a.573.573 0 0 1 .24-.46l.917-.53c.132-.076.24 0 .24.186v1.237a.579.579 0 0 1-.24.456z" fill="#E0E0E0"/><path d="M20.815 38.523c-.115.066-.21-.116-.21-.408s.095-.582.21-.649l.21-.12v1.056l-.21.12z" fill="#E0E0E0"/><path opacity=".1" d="m20.875 38.487.15-.085v-1.057l-.15.087v1.055z" fill="#000"/><path d="M22.3 37.113a.321.321 0 0 1-.121.258c-.07.04-.123-.013-.123-.117a.318.318 0 0 1 .123-.259c.067-.039.12.019.12.118zM27.119 33.852a.321.321 0 0 1-.123.26c-.067.04-.123-.015-.123-.119a.324.324 0 0 1 .123-.258c.069-.032.123.022.123.117z" fill="#FAFAFA"/><path d="M26.61 15.278a.293.293 0 0 1-.153-.04.542.542 0 0 1-.212-.49c0-.372.199-.79.452-.93a.34.34 0 0 1 .344-.017.538.538 0 0 1 .212.491 1.15 1.15 0 0 1-.452.93.382.382 0 0 1-.192.056zm.278-1.302a.187.187 0 0 0-.087.028.957.957 0 0 0-.346.753c0 .186.056.277.108.307a.134.134 0 0 0 .134-.015.953.953 0 0 0 .346-.744c0-.186-.056-.277-.108-.307a.08.08 0 0 0-.047-.031v.009z" fill="#F0F0F0"/><path d="M27.069 14.817c0 .591-.023 1.216-.01 1.778.013.245.072.485.175.707.095.186.233.333.335.526.119.196.214.405.285.623.09.27.12.555.09.837-.053.634-.401 1.358-.797 1.578.396-.242.721-.964.759-1.563a1.77 1.77 0 0 0-.106-.783 2.77 2.77 0 0 0-.294-.584c-.11-.186-.244-.309-.356-.506a1.95 1.95 0 0 1-.208-.744c-.028-.599-.02-1.185-.032-1.776a.218.218 0 0 1 .079-.171c.042-.026.08 0 .08.072v.006zM26.587 15.096c-.011.606 0 1.18-.032 1.813-.03.335-.1.665-.206.984-.114.326-.248.607-.357.915a9.038 9.038 0 0 0-.294.93c-.087.294-.122.6-.104.906.035.558.36.902.757.688-.397.237-.744-.085-.798-.658a2.79 2.79 0 0 1 .09-.941c.078-.32.173-.637.285-.947.103-.313.24-.62.335-.915.094-.295.153-.6.175-.908.013-.578 0-1.177 0-1.767a.212.212 0 0 1 .078-.167c.045-.026.08 0 .08.074l-.01-.007z" fill="#F0F0F0"/><path d="m27.412 15.606-.956.551.105.183.956-.552-.105-.182z" fill="#F0F0F0"/><path d="m27.883 15.656-.727.424v-.4l.727-.428c.088-.05.158 0 .158.108a.372.372 0 0 1-.158.296zM27.08 29.643l-.502.29v-7.2l.502-.29v7.2z" fill="#F0F0F0"/><path d="m27.95 24.64-2.202 1.272v-1.674l2.202-1.273v1.674z" fill="#EBEBEB"/><path d="m27.95 24.284-2.202 1.272v.356l2.202-1.273v-.355z" fill="#E0E0E0"/><path opacity=".1" d="m27.95 24.284-2.202 1.272v.356l2.202-1.273v-.355z" fill="#000"/><path d="m28.255 24.007-.305.177v-.761l.305-.179v.763z" fill="#E0E0E0"/><path opacity=".1" d="m28.052 24.124-.102.06v-.761l.102-.06v.761z" fill="#000"/><path d="M26.233 23.06v.253l-.236.138v.154l1.083-.627V22.571l-.847.49zM27.08 28.942l-.37.213v-.12l.37-.214v.12zM27.08 27.872l-.37.216v-.123l.37-.214v.121zM27.08 26.805l-.37.213v-.122l.37-.214v.123zM27.08 25.735l-.37.214v-.121l.37-.216v.123zM30.575 31.707a.208.208 0 0 1 .08-.167l3.569-2.065c.045-.026.08.01.08.077a.21.21 0 0 1-.08.167l-3.577 2.065c-.037.022-.072-.01-.072-.077z" fill="#E0E0E0"/><path d="m30.58 32.003.315-.186v-.593l-.315.186a.952.952 0 0 1-.481.106.398.398 0 0 0-.198.06.99.99 0 0 0-.444.78c0 .289.199.408.444.267a.796.796 0 0 0 .198-.17c.138-.172.3-.324.481-.45z" fill="#E0E0E0"/><path d="m30.58 32.003.315-.186v-.593l-.315.186a.952.952 0 0 1-.481.106.398.398 0 0 0-.198.06.99.99 0 0 0-.444.78c0 .289.199.408.444.267a.796.796 0 0 0 .198-.17c.138-.172.3-.324.481-.45z" fill="#000" opacity=".1"/><path d="M34.319 28c0-.067-.036-.1-.08-.076l-3.577 2.067a.205.205 0 0 0-.08.167c0 .067.035.1.08.074l3.577-2.064a.204.204 0 0 0 .08-.168z" fill="#E0E0E0"/><path d="m34.313 28.3-.312.186v-.595l.312-.186c.182-.126.344-.278.482-.45a.795.795 0 0 1 .197-.17c.246-.141.445-.022.445.268a.992.992 0 0 1-.445.78.398.398 0 0 1-.197.059.973.973 0 0 0-.482.108z" fill="#E0E0E0"/><path d="m34.313 28.3-.312.186v-.595l.312-.186c.182-.126.344-.278.482-.45a.795.795 0 0 1 .197-.17c.246-.141.445-.022.445.268a.992.992 0 0 1-.445.78.398.398 0 0 1-.197.059.973.973 0 0 0-.482.108z" fill="#000" opacity=".1"/><path d="M33.603 30.94v-3.392l-.966.557v5.1l.24-.14.726-2.126z" fill="#EBEBEB"/><path opacity=".1" d="M32.78 33.121v-5.098l-.143.082v5.1l.144-.084z" fill="#000"/><path d="M31.237 32.304v-3.39l.967-.558v5.1l-.242.137-.725-1.289z" fill="#EBEBEB"/><path opacity=".1" d="M32.059 33.538v-5.099l.145-.083v5.1l-.145.082z" fill="#000"/><path d="M31.69 31.201c-.048.028-.089-.009-.089-.085a.242.242 0 0 1 .09-.186c.048-.028.089.011.089.087a.238.238 0 0 1-.09.184zM33.166 30.35c-.05.027-.09 0-.09-.086a.23.23 0 0 1 .09-.186c.048-.03.089.01.089.086a.236.236 0 0 1-.09.186zM31.69 29.67c-.048.029-.089-.01-.089-.085a.241.241 0 0 1 .09-.186c.048-.028.089.011.089.086a.238.238 0 0 1-.09.186zM33.166 28.819c-.05.028-.09-.01-.09-.086a.23.23 0 0 1 .09-.186c.048-.03.089.01.089.086a.238.238 0 0 1-.09.186z" fill="#E0E0E0"/><path d="m10.02 29.395-.214.123V26.58l.214-.122v2.938z" fill="#F0F0F0"/><path d="M9.626 25.98v.717l.572-.331v-.717c.018-.401.073-.8.166-1.192.034-.159.051-.32.052-.483 0-.558-.225-.884-.504-.724-.28.16-.504.744-.504 1.302-.002.143.017.285.054.422.1.327.155.665.164 1.006z" fill="#E0E0E0"/><path d="M9.626 25.98v.717l.572-.331v-.717c.018-.401.073-.8.166-1.192.034-.159.051-.32.052-.483 0-.558-.225-.884-.504-.724-.28.16-.504.744-.504 1.302-.002.143.017.285.054.422.1.327.155.665.164 1.006z" fill="#000" opacity=".1"/><path d="m10.198 26.773-.572.33v-.406l.572-.331v.407z" fill="#EBEBEB"/><path d="m10.375 32.613-.926.536v-3.971l.926-.536v3.971z" fill="#F5F5F5"/><path d="m10.265 32.678.11-.065v-3.97l-.11.062v3.973zM9.449 33.149l.111-.063v-3.971l-.111.063v3.97z" fill="#E0E0E0"/><path d="m11.679 28.436-.212.124v-2.938l.212-.123v2.937z" fill="#F0F0F0"/><path d="M11.287 25.02v.719l.572-.331v-.718c.017-.402.072-.801.164-1.193.036-.158.054-.32.054-.481 0-.558-.225-.886-.504-.724-.28.162-.504.744-.504 1.302-.002.142.015.283.052.42.1.327.156.665.165 1.007z" fill="#E0E0E0"/><path d="M11.287 25.02v.719l.572-.331v-.718c.017-.402.072-.801.164-1.193.036-.158.054-.32.054-.481 0-.558-.225-.886-.504-.724-.28.162-.504.744-.504 1.302-.002.142.015.283.052.42.1.327.156.665.165 1.007z" fill="#000" opacity=".1"/><path d="m11.86 25.813-.573.331v-.405l.572-.331v.405z" fill="#EBEBEB"/><path d="m11.926 31.719-.707.407v-3.971l.707-.408v3.972z" fill="#F5F5F5"/><path d="m11.817 31.782.11-.063v-3.972l-.11.064v3.97zM11.22 32.126l.11-.063v-3.971l-.11.063v3.97z" fill="#E0E0E0"/><path d="m13.34 27.478-.214.122v-2.938l.214-.123v2.939z" fill="#F0F0F0"/><path d="M12.947 24.063v.716l.573-.331v-.716c.017-.402.072-.801.164-1.192a2.32 2.32 0 0 0 .054-.484c0-.558-.227-.884-.504-.724-.277.16-.504.744-.504 1.302-.002.143.015.285.052.423.1.326.156.665.165 1.006z" fill="#E0E0E0"/><path d="M12.947 24.063v.716l.573-.331v-.716c.017-.402.072-.801.164-1.192a2.32 2.32 0 0 0 .054-.484c0-.558-.227-.884-.504-.724-.277.16-.504.744-.504 1.302-.002.143.015.285.052.423.1.326.156.665.165 1.006z" fill="#000" opacity=".1"/><path d="m13.52 24.855-.572.331v-.407l.572-.331v.407z" fill="#EBEBEB"/><path d="m13.531 30.792-.597.344v-3.97l.598-.345v3.971z" fill="#F5F5F5"/><path d="m13.422 30.855.11-.063v-3.97l-.11.062v3.971zM12.934 31.136l.11-.063v-3.97l-.11.062v3.971z" fill="#E0E0E0"/><path d="m14.999 26.52-.212.123v-2.94l.212-.122v2.939z" fill="#F0F0F0"/><path d="M14.607 23.105v.716l.573-.331v-.716c.016-.404.072-.805.165-1.198.034-.159.052-.321.052-.484 0-.558-.225-.883-.504-.723-.279.16-.504.744-.504 1.302-.002.143.016.285.054.422.1.328.155.669.164 1.012z" fill="#E0E0E0"/><path d="M14.607 23.105v.716l.573-.331v-.716c.016-.404.072-.805.165-1.198.034-.159.052-.321.052-.484 0-.558-.225-.883-.504-.723-.279.16-.504.744-.504 1.302-.002.143.016.285.054.422.1.328.155.669.164 1.012z" fill="#000" opacity=".1"/><path d="m15.18 23.897-.573.331v-.407l.573-.331v.407z" fill="#EBEBEB"/><path d="m15.137 29.864-.488.281v-3.971l.488-.28v3.97z" fill="#F5F5F5"/><path d="m15.027 29.93.11-.066v-3.97l-.11.064v3.971zM14.65 30.145l.11-.063V26.11l-.11.063v3.971z" fill="#E0E0E0"/><path d="m29.823 17.372-.214.123v-2.939l.214-.122v2.938z" fill="#F0F0F0"/><path d="M30.221 11.952c0 .163-.019.325-.054.484-.092.39-.147.79-.165 1.19v.716l-.573.332v-.724a3.784 3.784 0 0 0-.164-1 1.476 1.476 0 0 1-.054-.423c0-.163.02-.326.058-.485l.895-.51c.04.136.06.278.057.42z" fill="#E0E0E0"/><path d="M30.221 11.952c0 .163-.019.325-.054.484-.092.39-.147.79-.165 1.19v.716l-.573.332v-.724a3.784 3.784 0 0 0-.164-1 1.476 1.476 0 0 1-.054-.423c0-.163.02-.326.058-.485l.895-.51c.04.136.06.278.057.42z" fill="#000" opacity=".1"/><path d="m30.004 14.75-.573.33v-.406l.573-.332v.408z" fill="#EBEBEB"/><path d="M30.178 16.621v3.467l-.11.565-.704.408-.112-.437v-3.467l.927-.536z" fill="#F5F5F5"/><path d="M30.178 16.621v3.467l-.11.565v-3.969l.11-.063zM29.364 17.091v3.97l-.112-.437v-3.467l.112-.066z" fill="#E0E0E0"/><path d="m31.484 16.415-.214.122V13.6l.214-.123v2.938z" fill="#F0F0F0"/><path d="M31.88 10.995c0 .162-.018.324-.053.483-.09.391-.146.79-.164 1.19v.724l-.573.33v-.723a3.77 3.77 0 0 0-.164-1 1.488 1.488 0 0 1-.054-.422c0-.164.02-.327.056-.486l.898-.519c.039.138.057.28.054.423z" fill="#E0E0E0"/><path d="M31.88 10.995c0 .162-.018.324-.053.483-.09.391-.146.79-.164 1.19v.724l-.573.33v-.723a3.77 3.77 0 0 0-.164-1 1.488 1.488 0 0 1-.054-.422c0-.164.02-.327.056-.486l.898-.519c.039.138.057.28.054.423z" fill="#000" opacity=".1"/><path d="m31.663 13.792-.573.33v-.406l.573-.331v.407z" fill="#EBEBEB"/><path d="M31.73 15.726v3.467l-.108.564-.488.28-.111-.436v-3.467l.707-.408z" fill="#F5F5F5"/><path d="M31.73 15.726v3.467l-.108.564v-3.968l.108-.063zM31.134 16.07v3.968l-.111-.437v-3.467l.111-.064z" fill="#E0E0E0"/><path d="m33.143 15.455-.212.123V12.64l.212-.125v2.939z" fill="#F0F0F0"/><path d="M33.541 10.044c0 .163-.018.326-.054.486-.092.39-.147.789-.165 1.19v.705l-.571.33v-.715a3.7 3.7 0 0 0-.166-1 1.542 1.542 0 0 1-.054-.421c.001-.164.02-.328.058-.488l.891-.515c.044.138.065.283.061.428z" fill="#E0E0E0"/><path d="M33.541 10.044c0 .163-.018.326-.054.486-.092.39-.147.789-.165 1.19v.705l-.571.33v-.715a3.7 3.7 0 0 0-.166-1 1.542 1.542 0 0 1-.054-.421c.001-.164.02-.328.058-.488l.891-.515c.044.138.065.283.061.428z" fill="#000" opacity=".1"/><path d="m33.324 12.832-.573.331v-.407l.573-.33v.406z" fill="#EBEBEB"/><path d="M33.335 14.798v3.467l-.11.566-.377.217-.11-.437v-3.467l.597-.346z" fill="#F5F5F5"/><path d="M33.335 14.798v3.467l-.11.566v-3.968l.11-.065zM32.848 15.08v3.968l-.11-.437v-3.467l.11-.063z" fill="#E0E0E0"/><path d="m34.804 14.497-.214.123v-2.94l.214-.122v2.939z" fill="#F0F0F0"/><path d="M35.2 9.077c0 .162-.018.325-.053.483-.09.391-.145.79-.164 1.19v.717l-.573.331v-.716a3.788 3.788 0 0 0-.164-1 1.487 1.487 0 0 1-.054-.423c0-.164.02-.327.058-.485l.904-.52c.036.138.051.28.046.423z" fill="#E0E0E0"/><path d="M35.2 9.077c0 .162-.018.325-.053.483-.09.391-.145.79-.164 1.19v.717l-.573.331v-.716a3.788 3.788 0 0 0-.164-1 1.487 1.487 0 0 1-.054-.423c0-.164.02-.327.058-.485l.904-.52c.036.138.051.28.046.423z" fill="#000" opacity=".1"/><path d="m34.985 11.874-.573.331v-.407l.573-.331v.407z" fill="#EBEBEB"/><path d="M34.942 13.872v3.467l-.112.565-.264.153-.111-.437v-3.467l.487-.281z" fill="#F5F5F5"/><path d="M34.942 13.872v3.467l-.112.565v-3.969l.112-.063zM34.566 14.09v3.967l-.111-.437v-3.467l.111-.064z" fill="#E0E0E0"/><path d="m10.634 45.36-1.185.682V35.25l1.185-.685V45.36z" fill="#F0F0F0"/><path d="m9.71 45.894-.261.148V35.25l.26-.15v10.795z" fill="#FAFAFA"/><path d="m10.634 45.36-.259.149V34.713l.259-.149V45.36zM10.209 35.647c.053-.173.021-.336-.071-.364-.093-.029-.21.088-.263.261-.053.173-.022.336.07.365.093.028.21-.09.264-.262zM9.993 45.083l-.57.328.054.092.569-.328-.053-.092zM9.996 44.464l-.569.328.053.092.569-.328-.053-.092zM9.995 43.85l-.568.327.053.092.568-.328-.053-.092zM9.995 43.232l-.569.328.053.092.569-.328-.053-.092zM9.995 42.618l-.569.328.053.092.569-.328-.053-.092zM9.994 42.003l-.568.328.053.092.568-.328-.053-.092zM9.994 41.388l-.569.328.053.092.569-.328-.053-.092zM9.996 40.775l-.569.328.053.091.569-.328-.053-.091zM9.992 40.16l-.569.329.053.092.569-.328-.053-.092zM9.995 39.542l-.57.328.054.092.569-.328-.053-.092zM9.995 38.929l-.569.328.053.092.569-.328-.053-.092zM9.994 38.314l-.569.328.053.091.57-.327-.054-.092zM9.994 37.699l-.57.328.054.091.569-.328-.053-.091zM9.996 37.083l-.57.328.054.092.569-.328-.053-.092zM9.995 36.468l-.569.328.053.092.569-.328-.053-.092z" fill="#E0E0E0"/><path d="M14.754 33.845v5.925l1.183-.684V33.16l-1.183.685z" fill="#F0F0F0"/><path d="M14.754 33.845v5.925l.258-.15v-5.924l-.258.149z" fill="#FAFAFA"/><path d="M15.678 33.31v5.925l.26-.149V33.16l-.26.15zM15.294 38.81l-.57.329.054.092.569-.328-.053-.092zM15.293 38.196l-.569.328.053.092.569-.328-.053-.092zM15.292 37.579l-.568.328.053.092.568-.328-.053-.092zM15.294 36.965l-.568.328.053.092.569-.328-.054-.092zM15.294 36.35l-.569.328.053.092.569-.328-.053-.092zM15.293 35.735l-.569.328.053.092.57-.328-.054-.092zM15.293 35.121l-.568.328.053.092.568-.328-.053-.092zM15.293 34.504l-.569.328.053.092.569-.328-.053-.092zM15.294 33.889l-.569.328.053.092.569-.328-.053-.092z" fill="#E0E0E0"/><path d="m12.176 33.675 3.608-2.083v1.657l-3.608 2.084v-1.658z" fill="#E0E0E0"/><path opacity=".1" d="m12.176 33.675 3.608-2.083v1.657l-3.608 2.084v-1.658z" fill="#000"/><path d="M15.462 32.606a.533.533 0 0 1-.2.426c-.112.065-.203-.023-.203-.186a.531.531 0 0 1 .202-.426c.11-.07.201.015.201.186zM11.577 38.833v5.993l3.887-2.245-3.887-3.748zm.699 2.217 1.488 1.42-1.488.851v-2.27z" fill="#F0F0F0"/><path d="m11.577 44.819.18-.382 3.527-2.036.18.172-3.887 2.246z" fill="#E0E0E0"/><path d="M11.757 44.437v-5.43l-.18-.174v5.986l.18-.382z" fill="#FAFAFA"/><path d="M33.303 23.323v-.644l-3.242 1.873v.644l3.242-1.873z" fill="#F0F0F0"/><path d="M30.095 26.843v-.327c.009-.146.04-.29.09-.428l.16-.422c.052-.137.083-.281.092-.428v-1.302c0-.104-.039-.17-.085-.158a.405.405 0 0 1-.49-.152c-.202-.387-.202-1.367.445-2.004 0 0-.59.157-.86 1.198a7.557 7.557 0 0 0-.208 2.136v1.322a.59.59 0 0 0 .054.266l.065.097a.591.591 0 0 1 .052.266v.586c0 .104.084.21.14.15l.446-.506a.512.512 0 0 0 .099-.294z" fill="#E0E0E0"/><path d="M30.3 27.203v-.276c0-.095-.058-.137-.129-.096l-.803.463a.31.31 0 0 0-.13.247v.275c0 .095.057.14.13.099l.803-.465a.31.31 0 0 0 .128-.247z" fill="#E0E0E0"/><path opacity=".1" d="M30.095 26.628v.245l-.685.396v-.247l.685-.394z" fill="#000"/><path d="M35.22 21.665v.469a.525.525 0 0 1-.22.42L33.017 23.7v-1.047L35 21.507c.122-.078.22-.004.22.158z" fill="#E0E0E0"/><path d="m72.85 30.011-6.662 29.306 6.83 3.944 6.662-29.305-6.83-3.945z" fill="#FF6F00"/><path opacity=".4" d="m72.85 30.011-6.662 29.306 6.83 3.944 6.662-29.305-6.83-3.945z" fill="#fff"/><path opacity=".05" d="M69.761 61.38c.326-1.425.67-2.874.895-3.473.335-.889.947-1.655 1.367-3.502 0 0-.24 2.018-.744 2.963-.32.597-.811 2.582-1.185 4.202l-.333-.19zM78.864 33.48c-.372 1.628-1.886 8.497-2.03 9.3-.416 2.353-.743 4.404-1.424 7.477 0 0 .413-1.37 1.023-4.488.286-1.464.528-2.818.66-3.523.132-.705 1.936-8.675 1.936-8.675l-.165-.091z" fill="#fff"/><path opacity=".1" d="m70.146 61.603.158-.7c.543-2.391.934-3.987 1.341-4.917.408-.93.876-2.942 1.07-3.854-.151 1.04-.36 2.072-.627 3.09-.491 1.96-.77 2.211-1.417 5.035l-.333 1.465-.192-.119zM78.472 33.259c-.39 1.709-1.688 7.425-1.894 8.33-.206.906-.312 3.258-.578 4.425.193-.682.334-1.377.422-2.08.163-1.25 1.975-9.46 2.232-10.573l-.182-.102z" fill="#000"/><path opacity=".05" d="M71.759 62.535c.387-1.702 1.248-5.47 1.572-6.882.41-1.812 1.262-4.715 1.793-7.27.5-2.378.78-4.217.824-4.465a40.69 40.69 0 0 1-.68 4.58c-.453 2.001-1.363 5.598-1.86 7.793-.332 1.468-.995 4.382-1.45 6.36l-.2-.116zM77.281 32.57c-.383 1.675-1.644 7.236-1.947 8.556-.303 1.321-.878 3.283-1.392 5.538a63.234 63.234 0 0 0-1.011 5.658c-.201 1.486-.558 3.05-.558 3.05.337-1.231.606-2.48.805-3.742a61.72 61.72 0 0 1 1.607-7.312c.684-2.29 2.705-11.63 2.705-11.63l-.209-.117zM69.689 61.34a3053.06 3053.06 0 0 1 2.367-10.627c.577-2.513 1.379-5.766 1.379-5.766s-1.098 5.38-2.307 10.7c-.645 2.822-1.028 4.51-1.317 5.767l-.122-.075z" fill="#fff"/><path opacity=".1" d="M76.656 32.21s-2.641 11.615-3.387 14.889c-.746 3.274-1.412 7.016-1.412 7.016s.724-2.658 1.643-6.68l3.428-15.065-.272-.157v-.003zM72.24 62.812c.508-2.232 1.303-5.747 1.602-7.023.42-1.847 1.58-6.592 1.86-7.717 0 0-.956 4.778-2.385 11.044l-.874 3.817-.203-.12zM71.484 62.375c.422-1.86 1.015-4.45 1.28-5.61.4-1.76 1.517-5.766 1.928-7.577.411-1.812 2.946-13.846 3.462-16.112l-.237-.135c-.32 1.406-3.296 12.614-3.917 15.343-.621 2.728-.882 5.743-1.268 7.44l-1.488 6.51.24.141zm2.068-9.923c-.116-.067.284-2.472.649-4.073.32-1.41 1.083-4.14 1.189-4.08.106.062-.462 2.833-.798 4.312-.337 1.479-.925 3.908-1.04 3.841z" fill="#000"/><path opacity=".05" d="M70.585 61.856c.324-1.425.668-2.877.87-3.487.302-.906.808-1.732 1.228-3.579 0 0-.294 1.98-.73 2.976-.274.625-.76 2.604-1.13 4.233l-.238-.143zM68.82 60.831c.627-2.695 1.391-5.926 1.546-6.474.645-2.312 1.24-4.278 1.97-7.45 0 0-.246 1.526-1.052 4.65-.372 1.47-.744 2.79-.93 3.505-.115.431-.8 3.403-1.365 5.866l-.169-.097z" fill="#fff"/><path opacity=".1" d="m73.401 30.34-.627 2.768c-.558 2.476-.907 4.157-.99 5.325-.081 1.168-.533 3.263-.76 4.19.32-1.023.582-2.064.785-3.117.43-2.08.314-2.57.978-5.492l.808-3.56-.194-.114zM68.405 60.599c.536-2.357 1.116-4.916 1.263-5.547.212-.93 1.084-2.905 1.36-4.12a14.15 14.15 0 0 1-.523 2.078c-.264.81-1.213 4.749-1.906 7.697l-.194-.108z" fill="#000"/><path opacity=".05" d="m74.805 32.197-1.87 8.249c-.425 1.87-.964 5.076-1.602 7.672-.638 2.597-1.21 4.45-1.21 4.45a37.196 37.196 0 0 0 1.368-4.394c.47-2.074 1.246-5.89 1.761-8.165l1.959-8.633-.076-.042-.33.863zM67.213 59.91c.53-2.32 1.116-4.869 1.32-5.786.31-1.382.674-3.534 1.2-5.874a59.544 59.544 0 0 1 1.544-5.58c.46-1.404.824-3.007.824-3.007a35.833 35.833 0 0 1-.915 3.83A66.691 66.691 0 0 0 69.423 51c-.27 1.663-1.265 6.012-1.972 9.038l-.238-.128zM72.953 30.082s-2.418 10.38-3.006 12.984c-.588 2.604-1.313 6.038-1.313 6.038s1.362-5.439 2.604-10.942c1.243-5.504 1.82-8.019 1.82-8.019l-.105-.061z" fill="#fff"/><path opacity=".1" d="m66.588 59.55 2.805-12.34c.766-3.392 1.79-7.068 1.79-7.068s-.535 2.88-1.476 7.044l-2.846 12.52-.273-.156zM75.497 31.542s-1.674 7.408-2.114 9.32c-.441 1.912-1.488 6.907-1.728 8.104 0 0 1.222-4.813 2.693-11.303l1.354-5.998-.205-.123zM68.108 60.426c1.07-4.464 2.897-11.941 3.229-13.401.42-1.873 1.207-6.24 1.621-8.065.415-1.825 1.78-7.855 1.78-7.855l-.232-.129s-1.596 7.02-1.99 8.783c-.395 1.764-1.438 4.435-2.082 7.264-.476 2.118-1.819 9.086-2.64 13.222l.314.18zm1.765-8.776c-.112-.065.424-3.039.755-4.499.372-1.657 1.055-3.993 1.17-3.927.115.068-.43 2.625-.778 4.152-.347 1.527-1.041 4.332-1.147 4.274z" fill="#000"/><path opacity=".05" d="M73.842 30.597c-.26 1.14-1.088 4.685-1.228 5.723-.14 1.038-.093 2.232-.528 4.137 0 0 .59-1.892.66-3.132.071-1.241 1.338-6.6 1.338-6.6l-.242-.128z" fill="#fff"/><path d="m74.713 29.341-1.862.67 6.83 3.945 1.861-.67-6.83-3.945z" fill="#FF6F00"/><path opacity=".6" d="m74.713 29.341-1.862.67 6.83 3.945 1.861-.67-6.83-3.945z" fill="#fff"/><path opacity=".1" d="m77.917 32.94 1.65-.518-1.413.654-.237-.135zM78.472 33.259l.864-.23-.686.332-.178-.102zM76.656 32.21l1.62-.499-1.348.655-.272-.156zM74.506 30.976l1.661-.502-1.428.633-.233-.13z" fill="#000"/><path opacity=".05" d="m72.953 30.084 1.185-.396-1.072.46M73.842 30.597l1.799-.586-1.555.714-.244-.128zM78.868 33.486l1.795-.592-1.63.688-.165-.096z" fill="#fff"/><path d="m73.018 63.26 1.862-.67 6.662-29.303-1.862.67-6.662 29.303z" fill="#FF6F00"/><path opacity=".3" d="m73.018 63.26 1.862-.67 6.662-29.303-1.862.67-6.662 29.303z" fill="#fff"/><path opacity=".1" d="m73.018 63.26 1.862-.67 6.662-29.303-1.862.67-6.662 29.303z" fill="#000"/><path opacity=".1" d="m73.496 63.09.318-.116c.298-.96.538-1.577.884-2.963.308-1.173.55-2.362.723-3.562-.227 1.068-.794 3.443-1.302 4.749-.24.62-.447 1.25-.623 1.891z" fill="#000"/><path opacity=".05" d="M75.118 59.853c.39-1.44.704-2.9.94-4.373a74.047 74.047 0 0 1 1.89-8.59c.745-2.563 2.702-11.477 3.13-13.438l-.319.115c-.53 2.338-1.87 8.263-2.211 9.743-.36 1.574-1.066 4.023-1.674 6.696a67.377 67.377 0 0 0-1.14 6.404 45.78 45.78 0 0 1-.616 3.443z" fill="#fff"/><path opacity=".1" d="M74.324 59.215c.033-.125.9-3.361 1.968-8.028.295-1.28 3.403-14.958 3.965-17.44l-.385.139c-.513 2.25-3.125 13.74-3.919 17.229-.868 3.813-1.607 7.974-1.63 8.1zM75.998 57.66l.703-3.09c.141-.93.372-2.205.616-3.24.212-.93.598-2.418.93-3.534l2.377-10.458c-1.24 4.806-3.086 11.904-3.587 14.12-.519 2.236-.777 4.415-1.04 6.202z" fill="#000"/><path opacity=".05" d="m74.264 62.812.31-.111.058-.15c.527-1.301.83-3.297.865-3.533a26.104 26.104 0 0 1-1.233 3.794z" fill="#fff"/><path d="m77.214 65.585 9.652-44.347-3.194-1.9-9.653 44.35 3.195 1.897z" fill="#FF6F00"/><path opacity=".5" d="m77.214 65.585 9.652-44.347-3.194-1.9-9.653 44.35 3.195 1.897z" fill="#fff"/><path d="m83.672 19.338 1.76-.844 3.193 1.897-1.76.847-3.193-1.9z" fill="#FF6F00"/><path opacity=".6" d="m83.672 19.338 1.76-.844 3.193 1.897-1.76.847-3.193-1.9z" fill="#fff"/><path d="m77.214 65.585 1.758-.844 9.653-44.35-1.76.847-9.65 44.347z" fill="#FF6F00"/><path opacity=".4" d="m77.214 65.585 1.758-.844 9.653-44.35-1.76.847-9.65 44.347z" fill="#fff"/><path opacity=".1" d="m77.214 65.585 1.758-.844 9.653-44.35-1.76.847-9.65 44.347z" fill="#000"/><path opacity=".05" d="M74.214 63.798c.337-1.546.692-3.117.917-3.774.333-.973.93-1.836 1.362-3.839 0 0-.272 2.172-.769 3.22-.314.66-.82 2.816-1.209 4.573l-.301-.18zM86.118 20.791c-.385 1.765-2.105 9.858-2.258 10.74-.445 2.546-1.616 8.537-2.33 11.87 0 0 .418-1.488 1.061-4.87.304-1.584 1.382-6.825 1.524-7.59.141-.764 2.156-10.059 2.156-10.059l-.153-.09z" fill="#fff"/><path opacity=".1" d="m74.562 64.01.165-.757c.558-2.604.973-4.32 1.371-5.362.398-1.042 1.89-7.812 2.09-8.798 0 0-1.152 5.816-1.658 7.951-.506 2.136-.774 2.418-1.445 5.48l-.346 1.592-.177-.106zM85.746 20.573c-.405 1.86-1.893 8.709-2.11 9.691-.215.982-1.19 7.282-1.467 8.556 0 0 1.083-4.687 1.267-6.034.184-1.346 2.211-10.901 2.474-12.108l-.164-.105z" fill="#000"/><path opacity=".05" d="M76.052 64.895c.401-1.847 1.302-5.935 1.63-7.473.429-1.964 3.063-13.253 3.619-16.022.522-2.576 1.651-8.34 1.696-8.608-.032.314-1.116 6.686-1.564 8.721-.473 2.171-3.175 14.205-3.698 16.588-.346 1.592-1.036 4.754-1.507 6.9l-.176-.106zM84.65 19.92c-.396 1.821-1.848 8.503-2.163 9.944-.314 1.442-1.72 7.349-2.254 9.795-.534 2.446-1.624 8.039-1.847 9.642-.223 1.603-1.585 7.903-1.585 7.903s1.43-6.168 1.842-8.66c.41-2.492 1.748-8.954 2.442-11.452.694-2.498 3.768-17.052 3.768-17.052l-.203-.12zM74.14 63.76a7603.91 7603.91 0 0 1 3.467-16.13c.597-2.726 2.19-9.792 2.19-9.792s-2.92 13.95-4.177 19.725c-.67 3.062-1.068 4.894-1.367 6.265l-.113-.067z" fill="#fff"/><path opacity=".1" d="M84.072 19.578s-3.707 17.03-4.483 20.583c-.775 3.553-3.253 15.725-3.253 15.725s2.51-11.02 3.464-15.38l4.523-20.779-.251-.149zM76.496 65.16c.527-2.418 1.356-6.237 1.663-7.627.435-2.005 3.4-15.283 3.696-16.507 0 0-2.775 13.303-4.26 20.101l-.905 4.142-.194-.11zM75.797 64.745a6164.18 6164.18 0 0 1 1.328-6.086c.416-1.91 3.326-14.402 3.751-16.368.426-1.966 4.046-19.437 4.582-21.894l-.22-.13c-.33 1.525-4.343 18.144-4.988 21.105-.646 2.961-2.729 14.322-3.13 16.182l-1.543 7.068.22.123zm3.162-15.358c-.106-.063 1.09-6.183 1.47-7.922.332-1.529 1.115-4.501 1.208-4.444.093.058-.498 3.06-.848 4.665s-1.715 7.764-1.823 7.7h-.007z" fill="#000"/><path opacity=".05" d="M74.967 64.252c.337-1.548.692-3.123.897-3.79.303-.99.796-1.907 1.233-3.907 0 0-.322 2.14-.753 3.227-.272.689-.772 2.848-1.157 4.606l-.22-.136z" fill="#fff"/><path opacity=".1" d="m85.238 20.272 1.557-.67-1.34.8-.217-.13zM85.752 20.573l.814-.303-.65.402-.164-.099zM84.074 19.578l1.529-.645-1.278.794-.251-.149z" fill="#000"/><path opacity=".05" d="m86.116 20.791 1.697-.757-1.544.848-.153-.09z" fill="#fff"/><path opacity=".1" d="m77.666 65.37.3-.145c.3-1.048.54-1.725.896-3.231.567-2.418.744-3.707.76-3.858-.237 1.157-.823 3.735-1.329 5.167a24.057 24.057 0 0 0-.627 2.067z" fill="#000"/><path opacity=".05" d="M79.26 61.795c.03-.116 1.544-6.644 1.983-9.341.454-2.79 1.879-9.698 2.738-12.834.763-2.79 3.76-16.887 4.205-19.013l-.3.145c-.557 2.537-2.086 9.614-2.44 11.221-.371 1.708-1.913 8.155-2.544 11.047-.63 2.892-2.753 13.312-2.987 15.051-.225 1.678-.63 3.605-.655 3.724z" fill="#fff"/><path opacity=".1" d="M78.531 61.17c.033-.136 2.69-11.781 3.798-16.844.305-1.392 4.5-20.66 5.084-23.353l-.372.175-5.026 23.12c-.904 4.139-3.462 16.764-3.484 16.902zM80.134 59.4l1.732-7.956c.154-1.006 1.174-5.908 1.42-7.03.22-1.017.617-2.623.95-3.85l3.433-15.774c-1.274 5.227-4.13 17.38-4.65 19.774-.535 2.425-2.598 12.897-2.885 14.835z" fill="#000"/><path opacity=".05" d="m78.392 65.02.293-.141c.019-.058.038-.11.058-.162.523-1.43.852-3.584.891-3.849a33.332 33.332 0 0 1-1.242 4.152z" fill="#fff"/><path d="M84.93 70.178 86.1 31.58l-3.296-2.02-1.17 38.597 3.294 2.02z" fill="#FF6F00"/><path opacity=".4" d="M84.93 70.178 86.1 31.58l-3.296-2.02-1.17 38.597 3.294 2.02z" fill="#fff"/><path d="m82.805 29.561 1.485-.803 3.294 2.018-1.483.805-3.296-2.02z" fill="#FF6F00"/><path opacity=".5" d="m82.805 29.561 1.485-.803 3.294 2.018-1.483.805-3.296-2.02z" fill="#fff"/><path d="m84.93 70.178 1.484-.806 1.17-38.596-1.483.805-1.171 38.597z" fill="#FF6F00"/><path opacity=".3" d="m84.93 70.178 1.484-.806 1.17-38.596-1.483.805-1.171 38.597z" fill="#fff"/><path opacity=".05" d="M81.84 68.279c.04-1.559.097-3.142.186-3.802.138-.977.536-1.834.588-3.854 0 0 .13 2.197-.147 3.244-.175.66-.268 2.833-.318 4.603l-.309-.191zM85.326 31.107c-.047 1.78-.222 3.844-.209 4.728.034 2.567 0 8.61-.078 11.97 0 0 .127-1.502.13-4.908 0-1.598.084-6.882.08-7.654-.003-.772.235-4.04.235-4.04l-.158-.096z" fill="#fff"/><path opacity=".1" d="m82.195 68.502.02-.763c.07-2.617.144-4.356.332-5.394.188-1.038.383-7.866.396-8.863 0 0-.05 5.865-.145 8.015-.095 2.15-.292 2.43-.372 5.517l-.043 1.603-.188-.115zM84.95 30.876c-.05 1.87-.229 2.677-.255 3.666-.026.99.173 7.35.14 8.629 0 0 .186-4.721.115-6.083-.07-1.361.138-4.891.171-6.108l-.171-.104z" fill="#000"/><path opacity=".05" d="M83.732 69.443c.048-1.86.16-5.982.2-7.531.053-1.98.514-13.353.544-16.145.033-2.604.07-8.409.065-8.68.026.32.132 6.75.08 8.8-.058 2.188-.454 14.321-.521 16.713-.041 1.605-.125 4.791-.186 6.955l-.182-.112zM83.815 30.18c-.048 1.836-.223 2.47-.26 3.923-.037 1.453-.307 7.403-.372 9.867-.065 2.465-.097 8.106-.02 9.726.076 1.62-.084 7.969-.084 7.969s.243-6.215.186-8.73c-.058-2.514.048-9.03.255-11.543.206-2.512.502-11.083.502-11.083l-.207-.129zM81.762 68.236c.069-3.25.33-14.209.383-16.256.076-2.75.314-9.87.314-9.87s-.26 14.07-.413 19.884l-.169 6.313-.115-.071z" fill="#fff"/><path opacity=".1" d="M83.22 29.816s-.45 11.065-.545 14.638c-.095 3.573-.257 15.853-.257 15.853s.393-11.1.512-15.498c.035-1.302.558-14.842.558-14.842l-.26-.159-.008.008zM84.19 69.724c.064-2.444.165-6.285.206-7.68.052-2.02.472-15.4.53-16.632 0 0-.24 13.409-.422 20.26l-.114 4.175-.2-.123zM83.47 69.281c.051-2.033.13-4.866.163-6.138.05-1.925.558-14.508.608-16.483.05-1.975.34-13.496.406-15.974l-.225-.137c-.04 1.538-.845 12.175-.93 15.16-.086 2.986-.017 14.45-.065 16.31-.034 1.277-.129 4.801-.186 7.12l.228.142zm.245-15.48c-.112-.07-.075-6.24-.028-7.998.039-1.542.238-4.535.34-4.464.103.07.075 3.087.032 4.703-.043 1.617-.234 7.825-.344 7.758z" fill="#000"/><path opacity=".05" d="M82.614 68.759c.04-1.56.095-3.147.167-3.819.108-.995.402-1.91.456-3.93 0 0 .076 2.16-.132 3.25-.132.69-.216 2.865-.264 4.636l-.227-.137z" fill="#fff"/><path opacity=".1" d="m84.422 30.554 1.326-.632-1.101.77-.225-.138zM84.95 30.876l.703-.285-.532.39-.171-.105zM83.22 29.816l1.306-.608-1.045.768-.26-.16z" fill="#000"/><path opacity=".05" d="m85.326 31.107 1.44-.718-1.282.814-.158-.096z" fill="#fff"/><path opacity=".1" d="m85.31 69.971.254-.137c.095-1.053.199-1.734.266-3.252.1-2.432.037-3.736.028-3.889-.017 1.166-.11 3.763-.328 5.208a27.403 27.403 0 0 0-.22 2.07z" fill="#000"/><path opacity=".05" d="M86.163 66.402c0-.115.266-6.696.199-9.415-.067-2.81.04-9.78.286-12.94.218-2.81.525-10.92.558-13.061l-.253.136c-.067 2.557-.25 3.591-.294 5.208-.046 1.72-.344 8.213-.422 11.128-.078 2.915-.216 13.42-.128 15.178.095 1.696.056 3.638.054 3.766z" fill="#fff"/><path opacity=".1" d="M85.374 65.738c0-.138.428-11.869.567-16.972.04-1.403.549-14.72.618-17.436l-.307.167c-.065 2.461-.512 13.392-.612 17.202-.11 4.17-.266 16.9-.266 17.039zM86.553 63.984l.21-8.019c-.033-1.015.05-5.952.082-7.088.026-1.023.112-2.641.207-3.874l.414-9.797c-.264 5.262-.78 11.406-.844 13.818-.069 2.448-.143 13.009-.069 14.96z" fill="#000"/><path opacity=".05" d="m85.932 69.638.247-.134c0-.057.017-.111.025-.163.234-1.434.163-3.61.152-3.876a31.966 31.966 0 0 1-.424 4.173z" fill="#fff"/><path d="m39.7 71.857-9.164 6.613-2.508 1.81-1.188.684a.012.012 0 0 1-.006.001l-.005-.001a.438.438 0 0 1-.12.05l1.157-.833 2.593-1.87 7.783-5.617 1.458-.837z" fill="#263238"/><path d="m35.117 86.05-.054-.029s-.536-.307-.887-.51a1.386 1.386 0 0 1-.47-.503L23.664 64.276l1.458.84 9.572 19.74.599 1.23a.533.533 0 0 1-.175-.037z" fill="#37474F"/><path d="m36.473 85.51-.882.508a.517.517 0 0 1-.309.068l-.599-1.23-9.573-19.74 1.458-.84 10.06 20.726a.392.392 0 0 1-.155.508z" fill="#263238"/><path d="m31.239 77.752 1.458-.843 7.003-5.053-1.46.842-7.001 5.054z" fill="#000"/><path d="m30.46 78.315-2.594 1.87-1.156.833a.51.51 0 0 1-.398-.05s-.536-.305-.89-.51a.214.214 0 0 1-.018-.389l11.398-8.2 1.44.83-7.783 5.616z" fill="#37474F"/><path d="M28.319 80.07c-.16.115-.43.29-.601.388l-.878.506a.555.555 0 0 1-.13.054l1.156-.833 2.593-1.87.077.155-2.218 1.6z" fill="#000"/><path d="m66.144 56.59-9.165 6.61-2.507 1.81-1.189.687a.013.013 0 0 1-.01 0 .51.51 0 0 1-.12.05l1.159-.833 2.591-1.86 7.782-5.615 1.459-.849z" fill="#263238"/><path d="m61.566 70.782-.054-.028-.887-.511a1.365 1.365 0 0 1-.469-.502L50.097 49.009l1.459.84 9.571 19.741.599 1.228a.526.526 0 0 1-.16-.036z" fill="#37474F"/><path d="m62.916 70.243-.881.508a.502.502 0 0 1-.309.067l-.599-1.228-9.572-19.742 1.459-.84L63.07 69.75a.392.392 0 0 1-.155.493z" fill="#263238"/><path d="m57.682 62.485 1.46-.843 7.001-5.053-1.46.842-7 5.054z" fill="#000"/><path d="m56.903 63.054-2.591 1.86-1.157.833a.52.52 0 0 1-.398-.05s-.536-.307-.887-.51a.214.214 0 0 1-.02-.388l11.39-8.197 1.44.83-7.777 5.622z" fill="#37474F"/><path d="M54.764 64.8a8.268 8.268 0 0 1-.603.391l-.878.506a.652.652 0 0 1-.13.054l1.159-.837 2.591-1.86.076.154-2.215 1.593z" fill="#000"/><path d="m18.544 61.387 20.399 11.778 33.246-19.193-20.401-11.778-33.244 19.193z" fill="#455A64"/><path d="m29.877 66.184.755.438 8.31-4.8-.752-.436-8.313 4.798zM18.544 61.387v1.745l20.4 11.778-.001-1.745-20.399-11.778z" fill="#263238"/><path d="M72.189 53.972v1.744L38.945 74.91l-.002-1.745 33.246-19.193z" fill="#37474F"/><path d="M74.456 45.684 45.745 62.26l-10.578-6.107 28.711-16.576 10.578 6.107z" fill="#FF6F00"/><path opacity=".05" d="M71.199 43.803c-1.395.807-2.809 1.639-3.361 2.046-.82.606-1.402 1.391-3.212 2.435 0 0 2.06-.966 2.875-1.734.514-.485 2.442-1.64 4.025-2.561l-.327-.186zM44.932 61.791c1.594-.93 8.34-4.769 9.15-5.195 2.35-1.237 4.413-2.28 7.43-4.008 0 0-1.302.855-4.397 2.54-1.45.791-2.803 1.503-3.506 1.88-.703.375-8.511 4.878-8.511 4.878l-.166-.095z" fill="#fff"/><path opacity=".1" d="m71.582 44.026-.682.394c-2.346 1.355-3.888 2.28-4.744 2.965-.855.685-2.803 1.829-3.703 2.333 0 0 1.15-.54 3.058-1.687 1.908-1.148 2.063-1.464 4.836-3.066l1.436-.83-.2-.109zM44.536 61.566c1.674-.97 7.276-4.2 8.163-4.711.888-.512 3.348-1.501 4.5-2.164-.663.422-1.35.802-2.061 1.137-1.269.612-9.334 5.208-10.416 5.84l-.186-.102z" fill="#000"/><path opacity=".05" d="m73.197 44.956-6.747 3.906c-1.772 1.023-4.546 2.82-7.068 4.224-2.343 1.313-4.198 2.245-4.447 2.374.303-.134 2.79-1.241 4.626-2.301 1.96-1.133 5.45-3.24 7.598-4.485 1.438-.83 4.293-2.479 6.23-3.6l-.192-.118zM43.338 60.874l8.39-4.836c1.303-.753 3.163-1.962 5.374-3.238a84.411 84.411 0 0 1 5.649-2.976c1.508-.726 3.047-1.61 3.047-1.61s-1.373.89-3.687 2.08-5.002 2.664-7.183 4.092c-2.182 1.429-11.365 6.622-11.365 6.622l-.225-.134zM71.126 43.762c-2.918 1.674-8.593 4.912-10.429 5.972-2.46 1.425-5.641 3.319-5.641 3.319s5.322-2.943 10.531-5.952l5.655-3.268-.116-.07z" fill="#fff"/><path opacity=".1" d="m42.719 60.513 14.588-8.424c3.204-1.86 6.943-3.822 6.943-3.822s-2.56 1.6-6.495 3.878c-1.165.675-14.763 8.526-14.763 8.526l-.273-.158zM73.677 45.235c-2.19 1.263-5.63 3.252-6.883 3.977a699.34 699.34 0 0 0-7.518 4.453s4.732-2.604 10.87-6.138l3.737-2.162-.206-.13zM72.683 44.66l-6.376 3.687c-1.674.962-4.782 2.329-7.455 3.872-2.673 1.544-13.49 8.227-14.869 9.021l.237.136c2.22-1.28 14.097-7.927 15.862-8.95 1.765-1.023 5.62-3.456 7.345-4.453l5.485-3.175-.229-.138zm-13.256 7.907c-1.449.836-4.181 2.357-4.293 2.292-.111-.065 2.515-1.719 3.897-2.517 1.568-.906 3.978-2.148 4.092-2.081.113.067-2.253 1.471-3.696 2.306z" fill="#000"/><path opacity=".05" d="M72.023 44.28c-1.397.806-2.814 1.638-3.389 2.034-.85.59-1.536 1.302-3.348 2.355 0 0 2.001-.997 2.887-1.724.558-.46 2.498-1.61 4.092-2.528l-.242-.138zM38.117 57.855c1.733-1.002 9.073-5.191 9.951-5.656 2.548-1.352 4.784-2.494 8.065-4.377 0 0-1.427.93-4.786 2.766-1.575.863-3.04 1.64-3.803 2.046-.763.406-9.261 5.31-9.261 5.31l-.166-.089z" fill="#fff"/><path opacity=".1" d="M64.773 40.094c-1.74 1.021-2.643 1.596-3.39 2.178-.95.733-3.07 1.983-4.047 2.532 0 0 1.235-.596 3.32-1.84 1.914-1.148 1.918-1.346 4.308-2.76l-.191-.11zM37.72 57.627l8.884-5.129c.965-.557 3.618-1.651 4.864-2.371-.72.456-1.465.87-2.232 1.239-1.373.671-10.144 5.678-11.331 6.365l-.184-.105z" fill="#000"/><path opacity=".05" d="M66.382 41.022c-1.92 1.116-3.82 2.208-4.807 2.781-1.93 1.116-4.964 3.056-7.706 4.592-2.477 1.39-4.464 2.4-4.804 2.578.41-.186 3.026-1.376 4.987-2.507 2.135-1.233 5.937-3.534 8.277-4.877l4.248-2.453-.195-.114zM36.53 56.94l9.131-5.273c1.417-.818 3.458-2.13 5.861-3.517a103.26 103.26 0 0 1 6.125-3.259 70.306 70.306 0 0 0 3.303-1.758s-1.499.966-4.008 2.266c-2.51 1.3-5.426 2.91-7.812 4.464-2.386 1.553-12.382 7.21-12.382 7.21l-.218-.133zM64.3 39.82c-3.314 1.898-7.254 4.152-8.8 5.045-2.678 1.548-6.138 3.608-6.138 3.608s5.781-3.208 11.441-6.482L64.43 39.9l-.129-.078z" fill="#fff"/><path opacity=".1" d="m35.898 56.58 15.875-9.169c3.49-2.016 7.544-4.168 7.544-4.168s-2.79 1.735-7.079 4.215L36.177 56.73l-.273-.156-.006.005zM66.86 41.292l-4.95 2.862A787.141 787.141 0 0 0 53.726 49s5.134-2.835 11.819-6.696l1.534-.887-.22-.125zM65.87 40.734c-1.897 1.1-3.571 2.066-4.406 2.548-1.814 1.047-5.171 2.548-8.08 4.234-2.91 1.685-14.717 8.928-16.214 9.798l.236.136c2.419-1.395 15.318-8.638 17.248-9.752 1.93-1.114 6.127-3.748 8.013-4.836l3.44-1.989-.237-.139zm-11.904 7.13c-1.577.909-4.551 2.564-4.65 2.503-.099-.061 2.758-1.86 4.261-2.729 1.706-.984 4.317-2.343 4.434-2.276.118.067-2.484 1.582-4.052 2.494l.007.007z" fill="#000"/><path opacity=".05" d="M65.223 40.362a16.53 16.53 0 0 0-1.174.744c-.93.638-1.711 1.41-3.677 2.546 0 0 2.17-1.09 3.15-1.87a20.202 20.202 0 0 1 1.95-1.286l-.25-.134zM70.247 43.254c-2.634 1.537-5.789 3.387-6.315 3.72-2.22 1.405-4.092 2.634-7.193 4.436 0 0 1.533-.783 4.555-2.624 1.422-.869 2.697-1.674 3.378-2.096.419-.257 3.326-1.946 5.736-3.348l-.161-.088z" fill="#fff"/><path opacity=".1" d="m39.477 58.63 2.706-1.562c2.427-1.398 4.092-2.32 5.305-2.836 1.212-.515 3.275-1.674 4.177-2.215 0 0-.97.682-3.024 1.823-2.054 1.14-2.62 1.238-5.489 2.89l-3.488 2.01-.187-.11zM69.843 43.02l-5.433 3.14c-.913.528-2.684 1.98-3.873 2.669a19.027 19.027 0 0 0 2.019-1.213c.76-.52 4.601-2.79 7.48-4.477l-.193-.12z" fill="#000"/><path opacity=".05" d="m41.995 59.04 8.084-4.663c1.834-1.056 5.048-2.72 7.572-4.224 2.524-1.505 4.278-2.675 4.278-2.675a47.559 47.559 0 0 1-4.161 2.777c-2.031 1.172-5.807 3.26-8.035 4.544l-8.46 4.88-.074-.044.796-.595zM68.65 42.332l-5.667 3.277c-1.354.777-3.517 1.897-5.807 3.214a77.144 77.144 0 0 0-5.353 3.374c-1.315.904-2.892 1.814-2.892 1.814s1.596-.819 3.735-2.203c2.139-1.383 4.782-2.976 7.336-4.292 1.674-.854 5.928-3.319 8.885-5.047l-.236-.137zM39.028 58.37s10.148-5.914 12.699-7.386c2.55-1.47 5.952-3.366 5.952-3.366s-5.28 3.177-10.673 6.287l-7.859 4.532-.119-.066z" fill="#fff"/><path opacity=".1" d="m68.026 41.973-12.09 6.979c-3.326 1.913-6.86 4.145-6.86 4.145s2.866-1.53 6.95-3.883L68.3 42.129l-.275-.156zM41.564 59.844l9.13-5.268c1.875-1.08 6.799-3.84 7.985-4.494 0 0-4.666 2.826-11.026 6.494l-5.877 3.39-.212-.122zM69.23 42.666c-4.093 2.246-11.018 5.995-13.092 7.19-2.773 1.599-5.228 3.455-6.952 4.45L40.58 59.27l.227.138s5.905-3.404 7.696-4.44c1.791-1.036 6.138-3.337 7.981-4.392 1.43-.826 8.716-5.161 13.061-7.726l-.316-.182zm-12.49 7.52c-1.498.865-4.013 2.286-4.132 2.216-.119-.07 2.117-1.505 3.739-2.442 1.43-.826 4.399-2.396 4.51-2.331.112.065-2.62 1.693-4.118 2.558z" fill="#000"/><path opacity=".05" d="M39.92 58.886c1.115-.646 4.582-2.668 5.635-3.179 1.053-.511 2.338-.93 4.211-2.01 0 0-1.791 1.197-3.09 1.73-1.298.531-6.526 3.602-6.526 3.602l-.23-.143z" fill="#fff"/><path d="M35.167 56.153v1.745l10.578 6.106V62.26l-10.578-6.107z" fill="#FF6F00"/><path opacity=".1" d="M35.167 56.153v1.745l10.578 6.106V62.26l-10.578-6.107z" fill="#000"/><path opacity=".1" d="m43.983 61.24.08 1.518.157-1.38-.237-.138zM44.536 61.562l.09.78.088-.677-.178-.103zM42.72 60.513 42.81 62l.182-1.328-.271-.158zM40.58 59.269l.1 1.52.127-1.383-.227-.137zM37.72 57.627l.094 1.579.085-1.475-.178-.105zM35.904 56.58l.133 1.688.14-1.532-.273-.157z" fill="#000"/><path opacity=".05" d="m36.53 56.94.084 1.157.134-1.032-.218-.125zM39.028 58.37l.034 1.1.08-1.032M39.92 58.886l.064 1.66.164-1.517-.229-.143zM44.932 61.791l.058 1.661.108-1.566-.166-.095z" fill="#fff"/><path d="M74.456 45.684v1.744L45.745 64.004V62.26l28.71-16.576z" fill="#FF6F00"/><path opacity=".1" d="M74.456 45.684v1.744L45.745 64.004V62.26l28.71-16.576z" fill="#000"/><path opacity=".1" d="M74.454 46.128v.298c-.91.606-1.477 1.036-2.823 1.845-2.162 1.292-3.378 1.878-3.522 1.945 1.051-.591 3.367-1.956 4.567-2.864a27.48 27.48 0 0 1 1.778-1.224z" fill="#000"/><path opacity=".05" d="M71.623 48.67c-.102.066-1.797 1.146-4.304 2.43-2.591 1.326-5.688 3.026-8.439 4.81-2.446 1.583-11.21 6.566-13.137 7.66v-.298c2.291-1.323 8.097-4.669 9.547-5.51 1.54-.89 3.884-2.395 6.495-3.906a91.541 91.541 0 0 1 6.395-3.37 63.277 63.277 0 0 0 3.443-1.815z" fill="#fff"/><path opacity=".1" d="M70.64 48.28c-.122.074-3.241 2.01-7.813 4.65-1.254.727-14.653 8.463-17.086 9.858v-.348l16.878-9.746a263.863 263.863 0 0 1 8.02-4.414zM63.4 53.425c-2.161 1.248-9.036 5.451-13.688 8.288L59.957 55.8a94.49 94.49 0 0 1 3.42-2.1 67.37 67.37 0 0 1 3.222-1.735l3.028-1.749c-1.811.895-4.036 1.938-6.227 3.209z" fill="#000"/><path opacity=".05" d="M74.454 46.852v.292l-.136.102c-1.188.92-3.2 1.929-3.448 2.046a33.285 33.285 0 0 0 3.584-2.44z" fill="#fff"/><path d="M37.825 61.261c.106-.225.301-.327.39 0-.037-.852-.371-1.064-.643-1.13.072-.243.262-.421.415-.185-.186-.725-.57-.759-.876-.688.037-.246.21-.486.41-.346-.315-.545-.73-.4-1.044-.2 0-.23.139-.518.372-.487-.428-.33-.845-.016-1.146.302a.535.535 0 0 1 .32-.595c-.51-.093-.9.372-1.167.783a.586.586 0 0 1 .24-.663c-.558.151-.894.731-1.116 1.211-.107-.098-.102-.403.144-.684-.568.385-.828 1.041-.975 1.555-.13-.037-.175-.305.037-.66a3.225 3.225 0 0 0-.774 1.794c-.145.028-.238-.186-.07-.591a3.316 3.316 0 0 0-.523 1.912c-.15.09-.283-.052-.175-.482-.372.876-.327 1.488-.232 1.9-.145.144-.31.083-.268-.341-.251.93-.097 1.443.072 1.756-.13.186-.316.214-.34-.173-.067.558 0 .919.112 1.157l.124-.071 2.082-1.203 1.082-.625.508-.292 1.079-.623 1.916-1.107.43-.248c-.007-.558-.2-.824-.384-.976z" fill="#fff"/><path d="m37.758 61.423-.08-.067.08-.162a.621.621 0 0 1 .227-.283.241.241 0 0 1 .072-.03c-.111-.425-.344-.535-.528-.578l-.095-.022.052-.177a.733.733 0 0 1 .266-.405.541.541 0 0 0-.656-.265l-.106.025.026-.186a.885.885 0 0 1 .216-.477c-.186-.139-.404-.128-.677.03l-.067.041-.11.07v-.161a.944.944 0 0 1 .149-.512.618.618 0 0 0-.411.093 1.685 1.685 0 0 0-.372.307l-.105.11-.03-.143a.841.841 0 0 1 .05-.456c0-.018.016-.037.023-.056a.758.758 0 0 0-.186.078c-.24.16-.44.373-.582.624l-.091.141-.056-.112a.668.668 0 0 1-.015-.459v-.017a2.182 2.182 0 0 0-.69.954l-.074.166-.078-.07a.463.463 0 0 1-.091-.395v-.017a2.87 2.87 0 0 0-.575 1.144l-.05.177-.095-.026c-.097-.028-.158-.14-.164-.302v-.014a3.174 3.174 0 0 0-.419 1.253l-.024.186-.104.019c-.108.02-.186-.048-.225-.186a.14.14 0 0 1 0-.013c-.17.404-.25.841-.232 1.28v.167l-.112.065a.176.176 0 0 1-.266-.065 2.418 2.418 0 0 0-.033 1.216l.033.142-.106.106a.458.458 0 0 1-.091.072.17.17 0 0 1-.212 0c-.063.367-.003.744.17 1.073l.057.108-.093.14a.557.557 0 0 1-.168.167.197.197 0 0 1-.145.028c.003.212.055.42.155.608l2.081-1.203 1.082-.625.508-.292 1.08-.623 1.915-1.107v-.013a.538.538 0 0 1 .167-.17.199.199 0 0 1 .147-.025c-.01-.525-.193-.748-.342-.876z" fill="#F0F0F0"/><path d="M34.542 61.914c-.744.433-1.356 1.718-1.356 2.872 0 .116.007.232.02.347l1.083-.624.508-.293 1.079-.623c.014-.123.022-.247.022-.372 0-1.155-.606-1.739-1.356-1.307z" fill="#E0E0E0"/><path opacity=".1" d="M34.888 63.798a1.052 1.052 0 0 1-.091.413l-.508.292a.448.448 0 0 1-.093-.307.911.911 0 0 1 .346-.73c.192-.105.346.044.346.332z" fill="#000"/></svg>