<svg width="95" height="95" fill="none" xmlns="http://www.w3.org/2000/svg"><path d="m7.342 65.57 10.04-.045 10.039-.017 20.079-.032 20.08.032 10.039.017 10.04.046-10.04.046-10.04.017-20.079.032-20.08-.032-10.039-.017-10.04-.046z" fill="#263238"/><path d="M16.31 47.137c-.2.732-.333 1.482-.396 2.238.021.038.018.177 0 .139 0 .122-.19.1-.19-.02v-.236c-.437-.544-1.071-.888-1.584-1.359a2.97 2.97 0 0 1-.87-1.383c-.426-1.467-.027-3.021-.538-4.486-.443-1.262-1.233-2.358-1.9-3.502-.707-1.208-1.23-2.48-1.28-3.895-.043-1.085.087-2.529.913-3.342.874-.86 1.96-.215 2.63.553 1.944 2.23 2.85 5.05 3.207 7.93.19 1.597.409 3.202.36 4.811a12.83 12.83 0 0 1-.352 2.552z" fill="#FF6F00"/><path d="M15.924 49.97a27.587 27.587 0 0 0-.055-4.535c.024-1.222.121-2.438.074-3.662a21.71 21.71 0 0 0-.538-3.925c0-.015-.026-.011-.023 0a25.538 25.538 0 0 1 .409 5.909c-.013.226-.034.452-.048.678a24.175 24.175 0 0 0-3.632-9.617c-.027-.04-.097 0-.073.043a25.08 25.08 0 0 1 2.972 7.129c-.95-1.737-2.354-3.162-3.401-4.824 0-.01-.02 0-.015 0 .94 1.85 2.495 3.312 3.484 5.13.173.743.312 1.493.418 2.25.141 1.042.216 2.092.226 3.144-.57-1.064-1.16-2.09-1.626-3.207-.011-.03-.055-.01-.046.02.398 1.17.93 2.429 1.674 3.42 0 .742-.02 1.481-.06 2.22-.116 1.972-.453 3.92-.608 5.89 0 .01.005.02.012.028a.045.045 0 0 0 .059.007.046.046 0 0 0 .018-.026c.397-2.004.657-4.032.779-6.072z" fill="#263238"/><path d="M13.828 34.747c0-.015-.026 0-.023.01.361.995.57 2.006.825 3.026a.038.038 0 0 0 .042.026.038.038 0 0 0 .032-.037c-.104-1.035-.475-2.071-.876-3.025z" fill="#263238"/><path d="M22.979 38.923c-.24.587-.517 1.158-.829 1.71-.65 1.178-1.33 2.258-1.45 3.63-.053.613-.074 1.229-.26 1.818-.17.507-.414.986-.724 1.423-.703 1.026-1.582 1.9-2.234 2.971a12.475 12.475 0 0 0-1.484 3.58c-.017.068-.125.05-.108-.019v-.015a.02.02 0 0 1-.002-.008c0-.002 0-.005.002-.007-.103-2.942.133-5.907 1.03-8.725.395-1.24.871-2.452 1.424-3.63.481-1.021 1.082-2.004 1.925-2.768.547-.494 1.735-1.428 2.514-.932.37.239.342.604.196.972z" fill="#FF6F00"/><path d="M20.022 45.6c-.519.853-1.09 1.674-1.71 2.457-.285.38-.57.74-.859 1.113-.133.177-.285.352-.408.54.078-.308.154-.62.234-.928.38-1.485.742-2.986 1.309-4.415a29.83 29.83 0 0 1 2.042-4.003c.021-.035-.034-.06-.055-.027-.625 1.015-1.252 2.033-1.765 3.114-.29.601-.544 1.219-.76 1.85a28.52 28.52 0 0 1 1.003-3.955c0-.011-.013-.021-.017-.01a13.563 13.563 0 0 0-1.041 4.118c-.127.38-.245.765-.354 1.157a98.73 98.73 0 0 0-1.248 4.978 17.838 17.838 0 0 1 .283-3.272c0-.025-.032-.03-.038 0a10.35 10.35 0 0 0-.283 3.45c-.142.634-.281 1.267-.418 1.9-.289 1.355-.644 2.736-.813 4.112 0 .007.003.013.007.018.004.005.01.008.017.01.006 0 .013 0 .019-.004a.029.029 0 0 0 .012-.014c.201-.742.323-1.511.488-2.263a184.347 184.347 0 0 1 1.308-5.535c.19-.4.534-.76.798-1.09.288-.367.57-.736.86-1.11a16.205 16.205 0 0 0 1.414-2.191c.01-.011-.017-.023-.025 0z" fill="#263238"/><path d="M20.14 44.335a15.337 15.337 0 0 0-1.674 2.66c0 .011.013.024.021.013.57-.884 1.117-1.773 1.678-2.66.017-.011-.008-.029-.025-.013z" fill="#263238"/><path d="M7.623 41.713c.38.655.817 1.444.653 2.232-.104.5-.469.904-.535 1.414-.147 1.124.972 1.865 1.784 2.398 2.02 1.33 4.79 2.506 5.156 5.213.016.095.19.072.168-.023v-.017s.01 0 .01-.015a10.41 10.41 0 0 0-.037-4.134c-.302-1.397-.91-2.649-1.63-3.874-1.214-2.075-2.503-4.2-4.342-5.788-.507-.439-1.55-1.23-1.955-.237-.405.991.262 2.029.728 2.83z" fill="#FF6F00"/><path d="M9.473 46.11c1.33 1.449 3.468 2.262 4.621 3.887a16.283 16.283 0 0 0-3.553-6.677c-.043-.05.027-.12.074-.074a13.167 13.167 0 0 1 2.903 4.205 18.734 18.734 0 0 0-1.25-3.196c-.019-.04.036-.074.06-.036a12.149 12.149 0 0 1 1.352 3.596c1.52 3.675 1.655 7.992 1.33 11.868a.044.044 0 1 1-.087 0c.087-3.055.038-6.162-.694-9.147l-.047-.19c-1.254-1.748-3.375-2.56-4.739-4.22a.017.017 0 0 1 .03-.017z" fill="#263238"/><path d="M9.162 44.865c.703.644 1.394 1.303 2.1 1.95 0 0 0 .018-.01.012a10.26 10.26 0 0 1-2.132-1.92c-.023-.03.013-.067.042-.042zM9.052 42.07a22.088 22.088 0 0 0 2.103 2.894.013.013 0 0 1-.01.019c-.004 0-.007 0-.01-.002a10.184 10.184 0 0 1-2.124-2.898v-.009a.022.022 0 0 1 .04-.004z" fill="#263238"/><path d="M11.06 65.518h8.472L18.39 54.12h-6.025L11.06 65.519z" fill="#455A64"/><path d="M12.152 55.974h6.424l-.186-1.852h-6.025l-.213 1.852z" fill="#263238"/><path d="M11.326 54.678h7.94v-1.82h-7.94v1.82z" fill="#455A64"/><path d="M76.156 35.074a18.167 18.167 0 0 0-.424-2.985c-.21-.885-.51-1.788-1.066-2.52-.51-.666-1.242-1.198-2.09-1.303-.819-.098-1.588.266-2.2.781-.76.64-1.341 1.486-1.887 2.307a28.377 28.377 0 0 0-1.628 2.85.028.028 0 0 0 .05.026c.42-.832.907-1.63 1.455-2.386.5-.724 1.06-1.404 1.677-2.031.57-.55 1.277-1.062 2.09-1.087.814-.025 1.559.428 2.047 1.053.545.699.822 1.571 1.031 2.42.216.938.356 1.89.42 2.85.16 1.967.204 3.945.247 5.917.025 1.117.04 2.232.052 3.35 0 .57.01 1.13.013 1.696.004.566-.025 6.489.065 7.03.019.11.19.1.216 0a9.588 9.588 0 0 0 .076-1.548c0-.538.014-6.46.02-7 .009-1.043.014-2.09.01-3.127-.005-2.105-.03-4.205-.174-6.293z" fill="#263238"/><path d="M69.2 30.17c-.211.086.076-2.405-.906-2.725-1.387-.448-4.56.365-6.331 2.725a5.283 5.283 0 0 0-.76 1.588c.876-.423 3.77-1.763 4.495-1.352.661.38-3.486 1.675-4.763 2.511a9.617 9.617 0 0 0-.114 1.045c.739-.522 2.772-1.852 3.68-1.852 1.011 0-2.34 1.773-3.695 3.04.05 1.24.315 2.461.783 3.61.347-.657 1.111-1.936 2.099-2.626 1.368-.95 1.968.582.243 1.8-.92.65-1.582 1.185-2.002 1.546.389.745.907 1.415 1.531 1.978a5.632 5.632 0 0 1 2.252-1.539c.332-.116.88-.268 1.537-.488.116-.432.439-1.722.467-2.554.038-1.013 1.239-.45.75 1.35a13.73 13.73 0 0 1-.254.85c.351-.138 1.054-.406 1.467-.72.066-.589-.033-1.945-.274-3.23-.3-1.594.914-1.71 1.176.3.124.928-.053 1.887-.112 2.512 1.372-.8 2.51-2.424 2.51-2.424a6.092 6.092 0 0 0-.95-2.512c-.674-1.018.055-1.42.731-.5.38.513.6 1.374.724 2.035 1.452-4.833-.334-5.954-4.284-4.368zm-6.582 5.301c-.38-.543.922-1.539 1.201-1.2.361.432-.826 1.743-1.2 1.2zm8.651-2.221c-.524.38-1.028-.878-.688-1.094.34-.217 1.135.76.688 1.094z" fill="#FF6F00"/><path d="M70.066 32.532a15.765 15.765 0 0 0-.57-1.04 6.104 6.104 0 0 0-.651-.95c.057-.068.11-.138.169-.207.023-.028-.017-.066-.042-.04-.067.076-.13.154-.19.23a.06.06 0 0 0-.029.033c-.243.292-.473.593-.691.9a10.4 10.4 0 0 0-1.14.33c-.38.13-.77.265-1.14.425-.04.015-.021.08.019.062.38-.163.75-.323 1.14-.454.39-.13.737-.218 1.106-.323-.12.17-.238.342-.352.515a13.56 13.56 0 0 0-2.025.827c-.684.324-1.344.703-2 1.083-.035.02 0 .078.037.055a22.343 22.343 0 0 1 1.987-1.028c.635-.297 1.29-.542 1.93-.825-1.61 2.514-2.576 5.415-3.868 8.1-.017.038.044.07.06.032.394-.95.849-1.86 1.278-2.785l1.14-2.5c.112-.244.228-.487.346-.728-.07 1.343-.042 2.707-.262 4.035a.034.034 0 0 0 .018.04.035.035 0 0 0 .03 0 .034.034 0 0 0 .018-.039c.093-1.435.346-2.85.336-4.289v-.019c.273-.549.565-1.087.878-1.615.534 1.256 1.095 2.53 1.344 3.88 0 .042.076.023.064-.02-.363-1.352-.7-2.707-1.35-3.955.343-.57.724-1.116 1.14-1.636.178.334.408.65.611.97.203.318.395.624.57.95.397.679.735 1.391 1.009 2.129.013.04.08.019.063-.019-.32-.71-.631-1.429-.983-2.124zM80.628 36.068c-.87-.872-1.88-2.018-3.23-2.014-1.297 0-2.253 1.047-2.8 2.124-.57 1.127-.781 2.403-.95 3.644a44.178 44.178 0 0 0-.344 4.48c-.023.833-.021 1.667 0 2.499.02.832.042 7.081.19 7.908.025.134.241.14.249 0 .038-.7.011-6.795 0-7.496-.012-.701 0-1.381.032-2.07a52.22 52.22 0 0 1 .316-4.18c.144-1.213.256-2.46.619-3.63.329-1.056.94-2.263 2.012-2.726 1.46-.635 2.886.522 3.842 1.499.047.023.091-.006.064-.038z" fill="#263238"/><path d="M85.802 39c-1.573-.162-1.14-1.017.293-.64a6.51 6.51 0 0 1 2.133 1.023c.012-1.296-.15-2.612-.632-3.726-1.313-.328-2.508.25-3.734.825-1.225.576-2.046-.916-.604-1.632a4.572 4.572 0 0 1 3.891-.07 6.373 6.373 0 0 0-.351-.552 6.613 6.613 0 0 0-1.2-1.33c-1.073.088-1.667.75-1.985.95-.452.297-1.164-.053-.712-.695.351-.503 1.23-.733 1.955-.794-1.294-.76-2.584-.76-3.316-.431-1.267.57-.912 3.917-.912 3.917s-3.323-1.778-4.411-.38a4.1 4.1 0 0 0-.692 1.636c1.176-.433 2.622-.537 2.757.168.144.742-1.845.524-2.879.644-.123 1.49.225 3.23 1.41 4.46 1.011-1.941 3.255-3.42 3.576-2.346.321 1.074-2.09 1.344-3.08 2.793a6.48 6.48 0 0 0 1.383.772c.54-.808 1.439-1.921 1.87-1.583.431.338-.7 1.125-1.43 1.76 1.04.378 2.11.672 3.199.881.266-1.12.779-2.166 1.273-2.07.494.098-.464 1.268-.878 2.152 1.452.287 2.922.472 4.4.554.092-.022.696-1.791.968-3.99a6.37 6.37 0 0 0-2.28-.457c-1.112-.054-1.218-1.319.446-1.14a4.26 4.26 0 0 1 1.923.796c.017-.232.03-.47.04-.71a6.268 6.268 0 0 0-2.42-.786zm-.414-1.733c.169-.38 1.185-.244 1.087.22-.1.464-1.228.1-1.087-.22zm-8.322 3.142c-.06-.315.62-.604.714-.351.095.252-.629.773-.714.351zm4.784 2.594c-.54-.282.234-1.52.73-1.317.404.163-.188 1.6-.73 1.317z" fill="#FF6F00"/><path d="M86.933 45.041c-.747-1.248-1.486-2.504-2.269-3.73-.366-.57-.746-1.13-1.14-1.679.06-.011.12-.028.179-.042a10.802 10.802 0 0 1 .988-.154c.23-.024.437-.032.657-.036.234-.011.468 0 .7.036.028 0 .031-.038 0-.036-.233 0-.472-.02-.706-.024-.233-.004-.454 0-.68.017a8.192 8.192 0 0 0-.636.064c-.116.02-.232.038-.348.061-.069.015-.14.025-.21.046a38.096 38.096 0 0 0-1.257-1.636 14.977 14.977 0 0 1 4.087-1.304c.025 0 .015-.041-.01-.038-1.439.2-2.838.624-4.145 1.258l-.72-.874c-.272-.325-.57-.642-.804-.988a.019.019 0 0 0-.034.009c0 .005 0 .01.004.014.336.37.653.756.95 1.159-.534.372-1.042.78-1.52 1.22a35.186 35.186 0 0 0-1.463 1.378v.008a.019.019 0 0 0 .013.013l.008.001a.02.02 0 0 0 .009-.003 24.756 24.756 0 0 1 1.46-1.336c.503-.426 1.035-.806 1.542-1.22l.348.458.176.228s0 .011.012.017c.19.253.38.505.58.76a6.173 6.173 0 0 0-.57 1.041c-.168.353-.314.716-.45 1.083a15.773 15.773 0 0 0-.62 2.339c0 .025.03.036.036.011.159-.783.386-1.55.68-2.293.144-.38.31-.76.48-1.125.154-.338.343-.663.489-1.005.167.224.332.447.498.673.047.064.093.133.14.19 0 .015 0 .034.015.034.513.716 1.002 1.45 1.477 2.19a.654.654 0 0 0-.065.164 5.586 5.586 0 0 0-.217.826 6.282 6.282 0 0 0-.074.532 4.904 4.904 0 0 1-.044.614l.003.008a.019.019 0 0 0 .031 0 .02.02 0 0 0 .003-.017 1.886 1.886 0 0 1 .042-.57 6.67 6.67 0 0 1 .245-1.081c.024-.086.051-.17.081-.253.016-.044.037-.091.052-.137.221.348.441.698.659 1.049.43.7.855 1.4 1.284 2.09.017.057.075.026.054-.01zM75.854 55.24c-.014-.524-.137-6.44-.154-6.965a23.011 23.011 0 0 0-.57-4.605 4.408 4.408 0 0 0-1.233-2.269 2.01 2.01 0 0 0-1.21-.57 2.09 2.09 0 0 0-1.285.397c-.425.313-.791.7-1.081 1.14-.314.435-.596.892-.844 1.368-.01.02.02.03.03.013a6.968 6.968 0 0 1 1.823-2.042c.327-.27.727-.437 1.15-.479.432-.03.86.105 1.196.38.612.532.933 1.294 1.14 2.062.251.912.559 3.266.623 4.56.029.554.12 6.507.236 7.052a.092.092 0 1 0 .179-.041z" fill="#263238"/><path d="M72.595 41.963c-1.204-.022-2.481.876-2.481.876s.678-2.346-1.207-2.27c-1.12.045-2.52 1.22-2.8 3.053.433-.23 1.343-.67 2.063-.684.977-.017 1.043.747-.304.863a8.518 8.518 0 0 0-1.805.298 5.02 5.02 0 0 0 .226 1.693c.76-.456 2.035-.94 2.073-.312.029.468-1.298.506-1.951.67a7.83 7.83 0 0 0 1.125 2c.92-.134 1.827-.338 2.715-.612a5.202 5.202 0 0 0-.086-.982c-.16-.836.456-.851.536-.048.027.3.008.603-.057.897a7.997 7.997 0 0 0 1.742-.82 5.32 5.32 0 0 0-.38-1.855c-.24-.654.236-1.028.637-.278.258.485.154 1.395.068 1.9a2.89 2.89 0 0 0 .57-.581c1.285-1.788.519-3.781-.684-3.808zm-5.196.434c.043-.339.883-.274.841-.012-.041.262-.893.392-.841.012zm-.939 2.755c.082-.217.445-.19.428-.016-.017.175-.483.158-.428.016zm4.995 1.181c-.488.02-.327-.995-.042-1.035.24-.034.416 1.02.042 1.035z" fill="#FF6F00"/><path d="M71.02 46.425a7.464 7.464 0 0 1-.13-.38c.037.13.071.262.094.393a.019.019 0 0 0 .01.01.019.019 0 0 0 .015.001.02.02 0 0 0 .006-.004.018.018 0 0 0 .004-.006.018.018 0 0 0 .001-.014zM70.522 44.792c-.089-.26-.19-.516-.288-.773-.054-.135-.11-.271-.17-.404-.043-.12-.1-.234-.169-.34.059-.107.11-.216.154-.33 0-.01-.011-.018-.017-.01-.139.178-.262.37-.368.57-.052.089-.101.178-.154.267-.106.01-.212.027-.316.05-.114.02-.226.043-.338.07l-.336.078c-.11.026-.22.063-.335.08-.024 0-.015.045.01.036.115-.04.233-.072.353-.093.108-.023.217-.042.327-.057.11-.016.219-.03.329-.042l.249-.02a9.6 9.6 0 0 0-.135.238c0 .012-.014.025-.021.038a1.085 1.085 0 0 0-.27.03c-.097.02-.19.037-.29.06-.198.041-.394.089-.588.142-.408.114-.811.245-1.212.38-.023 0-.01.042.013.034.4-.134.806-.247 1.218-.338.19-.044.38-.087.58-.127l.29-.063c.076-.012.151-.028.225-.05-.208.38-.403.772-.582 1.17-.391.866-.72 1.755-1.054 2.642-.01.023.024.038.032.015.324-.882.699-1.745 1.123-2.584.076-.154.154-.306.23-.458 0 .03.013.061.019.093.019.105.038.21.055.316.036.209.072.42.103.63.09.431.14.87.152 1.31 0 .026.041.026.038 0-.035-.21-.035-.428-.048-.639-.013-.21-.03-.44-.055-.659a13.093 13.093 0 0 0-.087-.635l-.056-.313a.651.651 0 0 0-.058-.228c.11-.222.218-.445.33-.665.112-.22.211-.414.32-.62.045-.087.094-.174.142-.262.035.109.077.214.125.318l.146.355c.107.264.208.528.308.794.143.38.3.76.418 1.155-.116-.387-.213-.78-.342-1.16zM70.89 46.04c0-.03-.016-.06-.026-.09.006.03.017.06.027.09z" fill="#263238"/><path d="m80.266 53.47-.134 2.804-.34 8.056h-7.459l-.342-8.056-.133-2.804h8.407z" fill="#455A64"/><path d="m80.266 53.47-.134 2.804h-8.141l-.133-2.804h8.407z" fill="#263238"/><path d="M80.796 52.336h-9.468v2.268h9.468v-2.268zM74.246 64.33h-1.309v1.188h1.31V64.33z" fill="#455A64"/><path d="M74.246 64.33h-1.309v.595h1.31v-.595z" fill="#263238"/><path d="M79.188 64.33H77.88v1.188h1.31V64.33z" fill="#455A64"/><path d="M79.188 64.33H77.88v.595h1.31v-.595zM84.727 54.34c-.532-.523-1.22-1.153-2.033-.927-.76.21-1.06 1.047-1.197 1.744-.177.897-.314 1.803-.456 2.708-.143.904-.28 1.825-.41 2.741l-.221 1.549-.108.773c-.035.255-.076.507-.092.76 0 .082.124.093.143.015.099-.43.139-.878.201-1.315.063-.437.128-.88.19-1.318.128-.872.26-1.746.392-2.618.13-.872.268-1.745.406-2.617.118-.739.175-1.657.83-2.145a1.27 1.27 0 0 1 1.228-.11c.416.189.792.453 1.112.779.01.013.028-.002.015-.019z" fill="#263238"/><path d="M83.999 53.814s-1.089-.392-1.626.403c-.538.794.106 2.815 5.061 3.953a13.953 13.953 0 0 0-1.193-4.478c-1.062-2.318-2.954-1.442-2.242.122z" fill="#FF6F00"/><path d="M87.15 57.84a4.388 4.388 0 0 0-.25-.401l-.25-.38c-.065-.095-.13-.19-.19-.283a.45.45 0 0 0 .009-.07l.017-.13.04-.279c.013-.091.029-.19.047-.275.011-.1.033-.198.065-.293 0-.013-.02-.021-.023 0a.992.992 0 0 1-.043.163 7.655 7.655 0 0 0-.152.67c0 .045-.014.087-.02.128l-.271-.38c-.264-.347-.542-.68-.83-1.005a8.997 8.997 0 0 1 .127-1.548c0-.014-.017-.021-.021 0a5.276 5.276 0 0 0-.19 1.482c-.103-.116-.207-.23-.314-.344-.24-.26-.486-.515-.739-.76-.01-.01-.024 0-.015.015.418.45.813.918 1.201 1.395a8.463 8.463 0 0 0-.906.034 14.725 14.725 0 0 0-1.014.115.011.011 0 0 0-.005.01v.005l.005.004a.012.012 0 0 0 .005.002 9.327 9.327 0 0 1 1.007-.09c.323-.014.646 0 .969 0 .207.258.414.518.617.782h-.273c-.15 0-.302.014-.45.025a7.093 7.093 0 0 0-.924.14.012.012 0 0 0-.004.008c0 .003.001.006.004.008a.012.012 0 0 0 .008.004c.304-.035.61-.063.915-.075h.667a.302.302 0 0 0 .126-.011l.399.519c.104.138.209.279.31.42.1.14.199.3.315.435.02-.017.036-.029.03-.04z" fill="#263238"/><path d="M84.472 54.94a3.273 3.273 0 0 0-.528-.026c-.179 0-.355 0-.532.011a.012.012 0 0 0-.008.004.011.011 0 0 0 .008.019c.178-.013.359-.017.538-.013.178.003.347.019.52.013l.002-.008zM86.028 55.34c.021-.17.042-.34.078-.506 0-.017-.019-.02-.02 0-.027.167-.06.332-.084.5l-.035.25a1.095 1.095 0 0 0-.019.236c0 .015.025.017.029 0 .014-.078.022-.157.025-.236.007-.083.017-.165.026-.245zM79.249 63.515a51.805 51.805 0 0 0-.09-.935 75.825 75.825 0 0 0-.224-1.848c-.081-.614-.161-1.23-.26-1.84a4.63 4.63 0 0 0-.19-.836.789.789 0 0 0-.463-.52c-.584-.202-.977.403-1.213.83a.012.012 0 0 0 .01.017.012.012 0 0 0 .008-.002.013.013 0 0 0 .003-.004c.14-.203.53-.77.973-.744.297.017.536.228.678.969.356 1.85.677 5.603.715 5.848.019.13.112.123.112-.015.004-.308-.032-.614-.059-.92z" fill="#263238"/><path d="M76.969 58.14s.51-1.8-.617-.9c-1.876 1.498-1.942 4.75-1.942 4.75s3.334-1.937 3.748-3.214c.618-1.9-1.189-.636-1.189-.636z" fill="#FF6F00"/><path d="M77.6 59.02c-.26.053-.526.087-.79.125l-.38.053-.255.03c.249-.341.5-.683.737-1.031.01-.015-.011-.029-.023-.017a8.152 8.152 0 0 0-.556.642l-.149-.418a4.855 4.855 0 0 1-.157-.486.011.011 0 0 0-.017-.005.01.01 0 0 0-.004.005c.045.165.078.334.121.5.044.165.092.317.147.473-.122.157-.238.319-.352.484-.059-.163-.13-.321-.178-.484a.012.012 0 0 0-.004-.009.012.012 0 0 0-.008-.003.012.012 0 0 0-.008.003.012.012 0 0 0-.003.009c.06.19.093.38.148.556a11.376 11.376 0 0 0-.606.969.047.047 0 0 0-.029.05c-.21.364-.41.735-.61 1.107a.012.012 0 0 0 .005.016.012.012 0 0 0 .01.001.012.012 0 0 0 .006-.005c.19-.369.418-.728.646-1.08a.562.562 0 0 1 .109-.02l.115-.025c.087-.02.172-.04.257-.063.17-.042.336-.081.507-.11.016 0 0-.025 0-.02a8.2 8.2 0 0 1-.608.083c-.097.011-.19.024-.289.04h-.013a25.815 25.815 0 0 1 .735-1.064c.116-.017.23-.048.344-.069l.38-.076c.259-.051.515-.108.776-.152.017.01.011-.013-.004-.01z" fill="#263238"/><path d="m75.597 59.196-.045-.142c-.03-.099-.056-.2-.076-.302a.011.011 0 0 0-.017-.005.01.01 0 0 0-.004.005c.02.102.045.203.068.304.02.102.05.203.088.3.009.023.045.013.037-.011-.007-.025-.028-.097-.05-.149zM77.942 58.604c-.152.022-.306.032-.458.045a7.803 7.803 0 0 0-.46.06v.012c.152-.011.304-.022.458-.043.154-.021.304-.042.458-.053.017 0 .015-.025.002-.021zM81.7 61.237a70.572 70.572 0 0 0-.276-3.967 48.762 48.762 0 0 0-.233-1.969 13.773 13.773 0 0 0-.38-1.9 3.658 3.658 0 0 0-.631-1.341 1.448 1.448 0 0 0-1.283-.57c-.579.072-1.044.437-1.45.834-.451.447-.868.933-1.287 1.408-.107.122-.211.241-.316.365-.01.01 0 .026.017.015.41-.471.836-.93 1.283-1.368.412-.405.836-.847 1.408-1.015.265-.084.548-.09.817-.019.213.069.406.191.558.356.306.353.523.775.633 1.229.355 1.216.483 2.495.616 3.75a68.57 68.57 0 0 1 .288 3.844c.063 1.285.116 2.58.24 3.867.015.16.036.317.057.475.013.106.178.106.169 0-.107-1.332-.167-2.662-.23-3.994z" fill="#263238"/><path d="M77.376 52.472s.76-1.4-.14-1.85c-.898-.45-3.885 2.892-4.759 7.775 0 0 4.832-2.138 6.474-4.268 1.641-2.13-.219-2.601-1.575-1.657z" fill="#FF6F00"/><path d="M78.09 53.61c-.543 0-1.085-.04-1.628-.036.1-.117.203-.233.306-.35.151-.155.293-.32.423-.493a.014.014 0 0 0 0-.02.013.013 0 0 0-.01-.003.013.013 0 0 0-.009.004 3.992 3.992 0 0 0-.412.412 44.02 44.02 0 0 0-.407.435c-.207.224-.41.454-.613.682v-.904c0-.38 0-.749.028-1.121 0-.014-.023-.014-.023 0-.026.38-.064.748-.083 1.123-.01.19-.014.368-.015.553V54.338c-.033.036-.065.07-.095.106a34.84 34.84 0 0 0-1.249 1.52v-.085c0-.029-.013-.116-.019-.173a17.824 17.824 0 0 0-.106-.73c-.021-.115-.053-.262-.063-.393 0-.017-.026-.013-.023 0 .023.132.038.265.046.4.011.119.023.237.032.356l.034.36.018.172.011.086c.003.024.01.047.023.068-.069.092-.139.19-.207.27-.274.363-.542.73-.812 1.096 0 .012 0 .027.016.016.256-.333.518-.66.782-.983.2.01.403 0 .6-.01.198-.009.42 0 .63 0a.011.011 0 0 0 .008-.019.012.012 0 0 0-.008-.003h-.63c-.19 0-.38-.01-.57 0 .234-.285.472-.57.708-.847l.26-.308a1.3 1.3 0 0 0 .243 0h.821c.369 0 .737-.02 1.106-.02a.011.011 0 0 0 .008-.019.012.012 0 0 0-.008-.003c-.369 0-.74-.02-1.108-.03l-.536-.012H75.11a155.303 155.303 0 0 1 .62-.735c.19-.234.395-.468.596-.7l.082-.094c.57.019 1.126-.02 1.689 0 .004.01.004-.014-.006-.014zM77.807 54.572h-.131c-.014 0-.012.02 0 .02h.133c.013 0 .013-.02-.002-.02z" fill="#263238"/><path d="M76 56.204a7.196 7.196 0 0 0-1.07-.097c.356.034.71.053 1.064.11.006.01.016-.011.006-.013zM74.543 54.648c0-.03 0-.061-.012-.093 0-.069-.019-.139-.03-.21-.021-.132-.044-.263-.069-.396 0-.012-.024 0-.022 0 .017.136.032.273.043.41 0 .066.012.135.017.201a.54.54 0 0 0 .029.19.025.025 0 0 0 .046 0 .257.257 0 0 0-.002-.102zM81.654 50.673c-.172-.321-.393-.747-.824-.72-.355.023-.517.38-.593.688-.236.929-.253 1.91-.298 2.863-.097 2.014-.19 4.03-.19 6.048v1.677c0 .57 0 1.14.04 1.71 0 .011.004.022.012.03a.042.042 0 0 0 .059 0 .042.042 0 0 0 .012-.03c0-.488-.015-.976-.017-1.463-.002-.486 0-.95.01-1.428.015-.963.04-1.926.078-2.89.034-.95.077-1.916.117-2.873.021-.479.04-.95.063-1.435.023-.484.04-.927.093-1.389a8.8 8.8 0 0 1 .122-.77 1.08 1.08 0 0 1 .224-.518.487.487 0 0 1 .629-.045c.197.142.351.335.446.558.006.012.025 0 .017-.013z" fill="#263238"/><path d="M81.538 50.52s-.355-1.253.43-.626c1.307 1.043 1.353 3.312 1.353 3.312s-2.322-1.35-2.61-2.239c-.432-1.324.828-.448.828-.448z" fill="#FF6F00"/><path d="M82.84 52.277c-.02-.037-.044-.069-.067-.105a.675.675 0 0 0 0-.106v-.162l.012-.317c0-.015-.021-.013-.021 0 0 .104-.01.207-.013.311v.223c-.092-.14-.19-.281-.282-.418l-.087-.12a2.444 2.444 0 0 1 0-.408v-.437c0-.016-.02-.014-.02 0 0 .152-.014.304-.022.454a2.668 2.668 0 0 0 0 .325 22.612 22.612 0 0 0-.703-.892c-.01-.009-.026 0-.019.014.15.19.293.38.434.58-.274-.065-.552-.101-.829-.141-.015 0-.02.019 0 .02.295.044.582.118.872.19.113.159.223.317.33.474.046.064.088.129.132.19h-.011l-.092-.012-.19-.019-.402-.024c-.014 0-.014.022 0 .022.133 0 .264.014.395.027l.207.025.091.011h.027l.224.329c.13.19.247.403.38.589 0 .011.023 0 .017-.012a5.873 5.873 0 0 0-.363-.611z" fill="#263238"/><path d="M82.253 50.86v-.147a2.35 2.35 0 0 1 .01-.317.012.012 0 0 0-.004-.004.012.012 0 0 0-.005 0h-.006a.011.011 0 0 0-.005.015c0 .103-.011.203-.017.306v.222a.19.19 0 0 0 0 .072.01.01 0 0 0 .003.007.01.01 0 0 0 .016-.007.207.207 0 0 0 0-.068c.01-.019.008-.053.008-.08zM81.966 51.38a2.425 2.425 0 0 0-.262-.027c-.095 0-.19-.017-.287-.03a.011.011 0 0 0-.008.02.012.012 0 0 0 .008.003c.19.011.367.043.549.05.01 0 .011-.016 0-.016zM82.696 51.387v.265a.202.202 0 0 0 0 .075h.01a.079.079 0 0 0 0-.036v-.256a.141.141 0 0 1 0-.05c.024-.018-.026-.018-.01.002zM81.71 57.363c-.489-.367-.928-.895-1.585-.92-.542-.02-.922.38-1.14.842a4.939 4.939 0 0 0-.266.749c-.097.342-.19.687-.276 1.033a27.669 27.669 0 0 0-.611 3.22c-.062.395-.1.792-.114 1.19a.063.063 0 0 0 .096.046.063.063 0 0 0 .025-.033c.067-.325.093-.659.143-.988.05-.328.097-.659.154-.988.11-.658.237-1.313.38-1.964.14-.614.277-1.239.477-1.837.142-.428.37-.93.832-1.084.705-.235 1.345.361 1.862.75.013.001.034.001.023-.016z" fill="#263238"/><path d="M81.204 57.011s-.45-1.286.2-1.537c.976-.38 3.53 2.499 3.03 6.907a25.129 25.129 0 0 1-3.43-2.31c-1.457-1.224-1.831-2.82-1.189-3.23.642-.411 1.39.17 1.39.17z" fill="#FF6F00"/><path d="M84.14 61.437a3.326 3.326 0 0 0-.238-.445 17.227 17.227 0 0 0-.255-.45c-.169-.291-.338-.582-.51-.869-.03-.047-.06-.093-.086-.14 0-.017 0-.035.01-.052l.028-.127c.023-.095.04-.19.057-.289.036-.19.068-.38.12-.57 0-.013-.02-.019-.023 0-.04.19-.099.38-.156.559-.027.091-.057.18-.08.273-.01.03-.017.063-.025.094-.21-.344-.423-.686-.653-1.017a.483.483 0 0 0 .023-.14l.022-.19c.018-.145.035-.291.056-.436.037-.283.088-.565.153-.843 0-.014-.019-.017-.02 0-.07.277-.149.555-.2.836a7.923 7.923 0 0 0-.07.416l-.023.209v.063c-.072-.1-.142-.2-.217-.297a29.015 29.015 0 0 0-.695-.874c0-.011-.027 0-.017.012.403.516.774 1.057 1.11 1.62l.19.312h-.063l-.25-.023-.499-.044c-.332-.026-.665-.045-.997-.081-.014 0-.017.02 0 .02.336.04.67.094 1.005.141l.496.067c.125.026.252.04.38.04.13.21.262.423.391.636a.44.44 0 0 0-.087 0H81.9c-.016 0-.014.021 0 .021.216 0 .433.015.65.027l.307.017.154.011c.044.01.09.01.135 0 .112.18.224.361.334.542.11.18.206.332.31.497.1.176.212.345.336.504 0 0 .02-.017.014-.03z" fill="#263238"/><path d="M83.2 57.874c-.02.141-.05.28-.088.418a5.421 5.421 0 0 1-.126.43v.005l.004.004a.015.015 0 0 0 .01.004l.006-.002a.015.015 0 0 0 .004-.003 6.565 6.565 0 0 0 .12-.425c.035-.14.058-.287.092-.427-.002-.015-.021-.02-.023-.004zM81.75 58.735a.156.156 0 0 0-.109-.04l-.19-.027-.346-.042c-.241-.028-.482-.05-.722-.081-.015 0-.019.02 0 .023.226.026.453.06.679.09l.334.044.16.017a.58.58 0 0 1 .19.033.012.012 0 0 0 .005-.008.012.012 0 0 0-.002-.01zM83.195 60.673c-.112-.01-.228-.014-.342-.017H82.6a.652.652 0 0 1-.107 0c-.017 0-.019.024 0 .02a.584.584 0 0 1 .101 0h.09l.172.01c.114 0 .228.013.342.015.012-.004.023-.026-.002-.028zM83.89 60.179l.039-.19c.022-.128.047-.253.07-.38a.012.012 0 0 0-.003-.008.012.012 0 0 0-.008-.004.012.012 0 0 0-.008.004.012.012 0 0 0-.004.008c-.026.123-.055.247-.083.37l-.04.19-.02.086a.249.249 0 0 0-.009.09c0 .012.017.02.025 0a.433.433 0 0 0 .042-.166z" fill="#263238"/><path d="m77.21 62.983.137 1.564.468 5.274h4.13l.583-5.274.173-1.564h-5.49z" fill="#37474F"/><path d="m77.21 62.983.137 1.564h5.181l.173-1.564h-5.49z" fill="#263238"/><path d="M76.802 63.825h6.31v-1.268h-6.31v1.268zM11.371 78.077c.897-.227 1.82-.333 2.744-.314.823.042 2.677.401 3.242.504.564.102 1.314-.016 1.27.226-.043.241-2.703 1.05-3.856.883-1.154-.167-3.4-1.3-3.4-1.3z" fill="#37474F"/><path d="M15.185 72.833c0-.38-.014-.772-.02-1.16 0-1.282-.022-2.564-.052-3.849a280.972 280.972 0 0 0-.093-3.055s0-.01-.012-.013v-.834s-.011-.012-.023-.01c-.011.002-.02 0-.02.01v.849a185.474 185.474 0 0 0-.143 5.438v1.106a184.143 184.143 0 0 0-.02 3.547v.57c0 1.083.014 6.494.016 7.575 0 .06.084.088.173.091.09.004.213-.028.213-.095 0-1.193.011-6.716.011-7.91-.026-.755-.015-1.508-.03-2.26z" fill="#263238"/><path d="M13.273 65.856s-2.2-1.636-4.288-.53c-2.088 1.106-2.417 5.354-2.417 5.354s3.067.439 5-1.4c1.861-1.777 1.705-3.424 1.705-3.424z" fill="#FF6F00"/><path d="M13.87 65.957a2.64 2.64 0 0 0-1.275-.168 2.123 2.123 0 0 0-.27-.026l-.306-.023-.642-.046c-.433-.032-.87-.059-1.303-.102-.015 0-.017.026 0 .028.427.053.855.116 1.286.158.22.023.44.046.663.06l.162.018-.19.047c-.349.1-.686.237-1.005.407-.173.03-.346.078-.515.12a24.34 24.34 0 0 0-.815.205c-.534.139-1.063.296-1.595.45a.013.013 0 1 0 0 .027c.53-.13 1.063-.25 1.595-.38.256-.061.514-.122.773-.19l.207-.042a6.427 6.427 0 0 0-1.564 1.36 8.487 8.487 0 0 0-1.087 1.71c0 .016.014.03.023.016a8.315 8.315 0 0 1 1.317-1.727c0 .028-.02.058-.029.087-.041.13-.081.26-.123.38-.082.258-.163.519-.241.779 0 .017.02.023.026 0 .093-.25.19-.504.27-.76l.131-.38.067-.19a.54.54 0 0 1 .02-.059c.246-.239.507-.461.782-.665.364-.256.756-.47 1.168-.636l-.023.112c-.023.1-.043.201-.064.302-.044.207-.084.416-.126.625-.082.425-.133.857-.213 1.284a.013.013 0 0 0 .027 0c.099-.427.226-.85.321-1.278.048-.215.097-.43.14-.645.022-.1.043-.201.062-.302.01-.057.024-.112.032-.169.04-.015.078-.034.12-.05.57-.212 1.214-.368 1.83-.25a1.808 1.808 0 0 1 1.33 1.062c.018.048.094.017.083-.03a1.697 1.697 0 0 0-1.049-1.12z" fill="#263238"/><path d="M10.505 67.77c-.063.279-.125.558-.19.837-.07.267-.12.54-.154.813 0 .012.015.012.02 0a6.34 6.34 0 0 0 .19-.82c.052-.274.107-.55.16-.825.005-.015-.022-.023-.026-.006zM8.375 68.478c-.28.142-.55.304-.843.42a.015.015 0 0 0-.008.027.017.017 0 0 0 .006.003.015.015 0 0 0 .013-.004c.287-.13.567-.275.84-.435 0 0 0-.015-.008-.011z" fill="#263238"/><path d="M15.01 63.384s2.53-.923 2.964-3.051c.433-2.128-.844-4.334-.844-4.334s-2.449 1.451-2.964 3.068c-.514 1.617.844 4.317.844 4.317z" fill="#FF6F00"/><path d="M14.923 66.323c-.033-.302-.04-.608-.056-.912a16.78 16.78 0 0 1 .084-2.647c.042-.38.1-.748.167-1.119-.015-.045-.026-.093-.038-.138a11.725 11.725 0 0 1-.066-.245c-.044-.166-.086-.333-.127-.5-.094-.365-.171-.733-.268-1.098 0-.017.022-.029.026-.012.099.36.213.711.314 1.068l.148.526.05.19a19.89 19.89 0 0 1 .524-2.116l.09-.28v-.231l-.022-.34a7.82 7.82 0 0 0-.075-.672c0-.003.001-.005.003-.007a.016.016 0 0 1 .005-.005.016.016 0 0 1 .014 0 .016.016 0 0 1 .008.012v.007c.037.224.074.448.102.674.015.108.025.217.032.327v.055c.164-.48.348-.95.536-1.429 0-.017.03 0 .025.012a19.377 19.377 0 0 0-.819 2.901c.051-.045.105-.087.162-.125.174-.12.353-.232.533-.34.38-.227.76-.455 1.129-.692.015-.01.032.011.017.02-.348.244-.688.497-1.03.75-.16.12-.325.233-.488.349-.134.095-.26.2-.38.312-.015.076-.032.15-.046.224-.066.342-.121.686-.172 1.032l.23-.16c.174-.12.349-.238.528-.353.347-.228.695-.458 1.03-.705.013-.012.03.011.017.02-.339.255-.667.523-.996.787-.16.126-.323.25-.487.37l-.248.18a.538.538 0 0 1-.103.068 28.413 28.413 0 0 0-.264 3.218c-.01.329 0 .673 0 1.011.017.066-.084.084-.09.013z" fill="#263238"/><path d="M14.955 59.556c-.055-.254-.108-.51-.16-.77 0-.017.023-.02.027 0 .055.25.112.502.173.75.06.25.129.5.163.76a5.415 5.415 0 0 1-.203-.74zM16.363 58.854c.09-.106.19-.205.287-.304.053-.05.104-.102.155-.155l.078-.08a.378.378 0 0 0 .084-.091c.013-.021.038 0 .02.017a.543.543 0 0 0-.077.089l-.074.084c-.05.05-.097.104-.144.157a3.817 3.817 0 0 1-.303.304c-.019.012-.038-.007-.026-.02z" fill="#263238"/><path d="M16.198 70.608s.435 3.015 2.703 4.072c2.269 1.056 5.033 0 5.033 0s-1.087-6.527-7.736-4.072z" fill="#FF6F00"/><path d="M22.372 72.717a9.72 9.72 0 0 1-.625-.097l-.305-.059-.158-.03c-.061-.057-.122-.116-.19-.171a9.125 9.125 0 0 0-1.387-1.005 7.62 7.62 0 0 0-.832-.428h.043l.747.032c.498.023.996.034 1.493.067.017 0 .017-.027 0-.029-.5-.034-.995-.087-1.495-.13l-.724-.065-.38-.033-.095-.011a7.917 7.917 0 0 0-.391-.133 3.524 3.524 0 0 0-1.923-.106c-.57.146-1.14.518-1.288 1.12 0 .021.028.037.036.016.213-.504.771-.76 1.275-.861a3.061 3.061 0 0 1 1.028-.02c.023.154.06.307.114.455.062.213.125.426.19.637.127.423.27.843.395 1.269 0 .017.03 0 .027-.01-.107-.421-.19-.849-.297-1.275-.05-.207-.102-.416-.154-.623a3.9 3.9 0 0 0-.114-.43c.19.037.395.084.59.14.35.105.693.232 1.027.38.032.216.08.429.13.64.062.268.13.53.216.79a.014.014 0 0 0-.001.007l.002.006a.014.014 0 0 0 .005.004.014.014 0 0 0 .017-.004.015.015 0 0 0 .003-.006l-.001-.007v-.05c-.052-.246-.107-.491-.158-.738-.042-.19-.082-.397-.124-.597.282.127.559.266.827.42 0 .06.02.124.028.18a17.427 17.427 0 0 0 .2 1.004c.099.444.226.882.38 1.31a.017.017 0 0 0 0 .02c.005.004.01.009.013.015 0 .011.027 0 .023-.015-.105-.447-.224-.89-.323-1.34-.05-.224-.099-.446-.143-.672l-.064-.337c0-.032-.012-.066-.015-.102.304.18.6.377.883.589.489.368.94.781 1.351 1.235.017.019.05 0 .034-.027a8.195 8.195 0 0 0-.541-.66 7.833 7.833 0 0 0-.354-.356h.038c.107.017.213.034.32.047.21.029.42.05.63.072.027 0 .035-.026.017-.028z" fill="#263238"/><path d="M20.778 73.739c0-.027 0-.051-.011-.078a.465.465 0 0 1-.029-.099 13.325 13.325 0 0 1-.123-.61c0-.013-.025 0-.025 0 .015.27.073.537.173.789h.017l-.002-.002zM18.878 73.692v-.006a.012.012 0 0 0-.003-.005.011.011 0 0 0-.01-.003c-.063-.266-.125-.534-.19-.803l-.085-.424c-.014-.076-.029-.152-.042-.23a.63.63 0 0 0-.054-.196.013.013 0 0 0-.02.006 1.33 1.33 0 0 0 .057.405 14.092 14.092 0 0 0 .314 1.328c0 .017.03.013.03 0l.003-.072zM22.165 71.849c-.414-.058-.828-.118-1.244-.168-.017 0-.025.025 0 .027.412.06.828.112 1.242.167.012.002.02-.025.002-.026z" fill="#263238"/><path d="M11.371 78.077c-.258.08-.495 1.088-.328 1.613.167.524-.8 2.156-.998 2.827-.197.67-.053.859 0 .984.053.126-.484.355-.414.48.07.126.642.19.9.147.26-.043 1.629.612 2.982.775 2.242.272 4.657-.406 5.117-.57.15-.057.69.118.896.035.207-.084-.013-.456-.034-.582-.02-.125.145-.509.173-1.33.029-.82-1.425-2.578-1.357-2.846.069-.268.339-.973.32-1.113-.02-.141-2.328.672-3.857.57-1.53-.103-2.991-1.116-3.4-.99z" fill="#455A64"/><path d="M23.921 59.033a.38.38 0 0 1-.39-.287l-9.043-38.135a.57.57 0 0 1 .359-.633.417.417 0 0 1 .589.25L24.48 58.36a.57.57 0 0 1-.36.633.512.512 0 0 1-.199.04z" fill="#FF6F00"/><path opacity=".2" d="M23.921 59.033a.38.38 0 0 1-.39-.287l-9.043-38.135a.57.57 0 0 1 .359-.633.417.417 0 0 1 .589.25L24.48 58.36a.57.57 0 0 1-.36.633.512.512 0 0 1-.199.04z" fill="#000"/><path d="M18.926 57.965c-.046-.108 8.673 0 8.996 0 .323 0 1.252 6.688 1.36 7.458.11.77-2.24 2.876-3.23 2.876-1.996 0-4.905-1.14-5.7-2.107-.793-.967-1.339-8.023-1.426-8.227z" fill="#C7C7C7"/><path d="M24.468 61.866a2.389 2.389 0 0 1-.76-.922c-.46-.978-.678-2.327-.836-2.753-.017-.045-.104-.015-.093.036.19.808.236 1.547.424 2.35a1.988 1.988 0 0 0 1.166 1.418c.08.038.175-.08.1-.13zM25.11 60.095a14.915 14.915 0 0 0-.518-1.885c-.01-.024-.05 0-.048.02.105 1.164.661 2.314.492 3.531 0 .044.061.057.078.01.223-.608.13-1.114-.004-1.676z" fill="#A6A6A6"/><path d="M22.367 57.92c.161 0-.72-2.81-.728-2.993-.008-.182 2.197-.283 2.388-.1.192.182.728 3.11.81 3.11l-2.47-.017z" fill="#C7C7C7"/><path d="M31.663 68.922c-2.23.2-4.485.078-6.72.101-2.234.023-4.48.067-6.72-.08-.042 0-.042-.115 0-.115l.329-.021c.19-.396.435-.637.722-.713.09-.023.317.08.38.01.062-.07.041-.133.087-.293.289-1 .857-.95 1.395-.733-.293-1.298.311-1.997 1.039-2.28.838-.327 1.622-.054 1.942 1.305.357-.433.81-.532 1.212-.19.215.178.255.393.49.302.2-.105.43-.14.652-.1.245.077.458.23.61.438.13.167.247.526.38.608.163.1.304-.078.477.162.14.228.206.493.19.76.488-.274.885-.101 1.35.264.227.18.42-.036.66.044a.877.877 0 0 1 .435.38c.36.017.72.037 1.081.07.04.006.04.08.01.082z" fill="#FF6F00"/><path opacity=".3" d="M31.663 68.922c-2.23.2-4.485.078-6.72.101-2.234.023-4.48.067-6.72-.08-.042 0-.042-.115 0-.115l.329-.021c.19-.396.435-.637.722-.713.09-.023.317.08.38.01.062-.07.041-.133.087-.293.289-1 .857-.95 1.395-.733-.293-1.298.311-1.997 1.039-2.28.838-.327 1.622-.054 1.942 1.305.357-.433.81-.532 1.212-.19.215.178.255.393.49.302.2-.105.43-.14.652-.1.245.077.458.23.61.438.13.167.247.526.38.608.163.1.304-.078.477.162.14.228.206.493.19.76.488-.274.885-.101 1.35.264.227.18.42-.036.66.044a.877.877 0 0 1 .435.38c.36.017.72.037 1.081.07.04.006.04.08.01.082z" fill="#000"/><path d="m50.945 68.928.081 3.036L48.266 73l2.679-4.072z" fill="#FF6F00"/><path d="m56.935 75.044 1.129 4.157-7.847-6.929.785-.842 5.933 3.614z" fill="#FF6F00"/><path opacity=".2" d="m56.935 75.044 1.129 4.157-7.847-6.929.785-.842 5.933 3.614z" fill="#000"/><path d="M64.46 78.343s1.668.64 2.703-.053c3.23-2.151 2.008-11.123.468-11.076-1.541.048-4.097 5.066-4.097 5.066l.925 6.063zm.24-.804-.72-4.722s2.163-4.37 3.362-4.415c1.199-.046 1.98 7.421-.538 9.095-.806.538-2.103.042-2.103.042z" fill="#FF6F00"/><path d="m55.362 81.267 10.102.013-1.626-14.96-6.483.047-1.993 14.9zM63.838 66.32l1.036-1.09-8.286-.098.767 1.235 6.483-.047z" fill="#FF6F00"/><path opacity=".2" d="m63.838 66.32 1.036-1.09-8.286-.098.767 1.235 6.483-.047z" fill="#000"/><path d="M61.098 70.783c-3.397-.724-4.526 4.56-1.124 5.278 3.4.718 4.525-4.555 1.124-5.278z" fill="#fff"/><path d="M61.56 73.228a5.43 5.43 0 0 1-.996 1.643c-.045.052-.83-.972-1.062-1.485-.121-.272-.288-.873-.015-1.123.51-.472.93.697 1.075 1.345.082-.707.36-2.05 1.008-1.52.302.247.1.872-.01 1.14z" fill="#FF6F00"/><path d="M45.876 86.663c.068.025-.316-5.185-.327-5.38 0 0-4.37-.73-5.366-.486-.452.11-3.384 1.42-3.42 2.007-.047.745 1.788 2.147 3.435 2.945 1.427.69 5.554.87 5.678.914z" fill="#A6A6A6"/><path d="M47.768 84.516c.015 0-.046-1.106-.05-1.14 0 0-4.974-.57-5.187-.515-.096.025-.723.317-.73.444 0 .16.394.455.76.62.301.137 5.18.583 5.207.59z" fill="#DBDBDB"/><path d="M53.03 83.53c-1.916-.238-5.32-.162-5.32-.162l.048 1.15s3.5.648 5.073.86c1.574.213 2.115-1.613.2-1.848zm.08 1.33a.402.402 0 1 1 .47-.31.403.403 0 0 1-.47.317v-.007z" fill="#FF6F00"/></svg>