<svg width="503" height="500" viewBox="0 0 503 500" fill="none" xmlns="http://www.w3.org/2000/svg">
<g clip-path="url(#clip0_134_2837)">
<path d="M247.432 236.55L264.427 241.017C265.716 241.355 266.856 242.111 267.67 243.165C268.484 244.22 268.926 245.515 268.926 246.847V296.442H237.51V244.083C237.51 244.083 238.707 237.065 247.432 236.55Z" fill="#455A64"/>
<path d="M259.445 241.253H259.288L258.824 241.281C258.242 241.328 257.664 241.415 257.094 241.541C256.193 241.741 255.32 242.053 254.496 242.469C253.405 243.006 252.453 243.786 251.713 244.751C251.504 245.025 251.319 245.317 251.161 245.623C250.992 245.941 250.851 246.273 250.739 246.615C250.682 246.792 250.636 246.972 250.6 247.154C250.55 247.334 250.514 247.519 250.493 247.706C250.44 248.093 250.415 248.483 250.419 248.874C250.419 250.479 250.419 252.191 250.419 253.977C250.419 257.585 250.419 261.551 250.419 265.712C250.419 274.033 250.391 281.566 250.382 287.049C250.382 289.767 250.354 291.97 250.345 293.515C250.345 294.266 250.345 294.855 250.345 295.268C250.345 295.463 250.345 295.612 250.345 295.732C250.345 295.853 250.345 295.89 250.345 295.89C250.339 295.837 250.339 295.785 250.345 295.732C250.345 295.616 250.345 295.468 250.345 295.268C250.345 294.855 250.345 294.266 250.321 293.515C250.321 291.97 250.321 289.767 250.284 287.049C250.284 281.58 250.261 274.061 250.252 265.712C250.252 261.537 250.252 257.585 250.252 253.977C250.252 252.172 250.252 250.456 250.252 248.874C250.25 248.476 250.277 248.077 250.331 247.682C250.356 247.49 250.394 247.299 250.447 247.112C250.484 246.925 250.534 246.74 250.595 246.56C250.72 246.208 250.875 245.869 251.059 245.544C251.223 245.231 251.414 244.933 251.63 244.653C252.396 243.668 253.38 242.874 254.505 242.334C255.343 241.921 256.23 241.617 257.145 241.43C257.719 241.313 258.303 241.241 258.889 241.216H259.353C259.384 241.227 259.415 241.239 259.445 241.253Z" fill="#263238"/>
<path d="M65.3674 296.321L68.5355 303.246H83.4899L86.2637 296.321H65.3674Z" fill="#455A64"/>
<path opacity="0.3" d="M65.3674 296.321L66.5363 298.868H85.2432L86.2637 296.321H65.3674Z" fill="black"/>
<path d="M239.866 296.321L243.034 303.246H257.989L260.763 296.321H239.866Z" fill="#455A64"/>
<path opacity="0.3" d="M239.866 296.321L241.031 298.868H259.742L260.763 296.321H239.866Z" fill="black"/>
<path d="M83.4899 236.429L66.4945 240.892C65.2067 241.231 64.0673 241.987 63.2542 243.041C62.4411 244.096 62 245.39 61.9999 246.722V296.321H93.4162V243.958C93.4162 243.958 92.2195 236.94 83.4899 236.429Z" fill="#455A64"/>
<path d="M83.4899 224.94V236.429C83.4899 236.429 92.3911 239.166 93.4162 246.012V256.607L167.479 256.857V226.104C167.48 225.431 167.224 224.783 166.764 224.291C166.304 223.8 165.673 223.503 165.002 223.46C153.229 222.723 102.911 219.749 86.3193 221.758C85.5403 221.851 84.8223 222.226 84.301 222.812C83.7797 223.398 83.4911 224.155 83.4899 224.94Z" fill="#455A64"/>
<path d="M167.479 226.972V256.871L238.837 257.135C238.837 257.135 236.981 243.568 247.432 236.55L247.868 220C247.868 220 211.256 223.247 204.266 223.938C198.672 224.485 178.379 223.938 170.563 223.715C170.145 223.721 169.733 223.811 169.35 223.979C168.967 224.146 168.622 224.389 168.334 224.693C168.047 224.996 167.823 225.354 167.676 225.746C167.529 226.137 167.462 226.554 167.479 226.972Z" fill="#455A64"/>
<path d="M244.519 257.135C245.247 258.137 250.085 261.394 250.085 261.394H80.4146L93.4022 256.621L244.519 257.135Z" fill="#455A64"/>
<path d="M250.066 276.928H83.49V296.317H250.066V276.928Z" fill="#455A64"/>
<path d="M250.066 261.394H80.6095V276.928H250.066V261.394Z" fill="#455A64"/>
<path d="M250.066 276.928C250.066 276.585 250.051 271.407 250.02 261.394L250.066 261.44L80.6188 261.514L80.7394 261.394V276.928L80.6188 276.807L200.945 276.858L250.076 276.928L201.024 277.016L80.6095 277.067H80.4889V261.296H80.6188L250.066 261.366H250.136V261.417C250.093 271.417 250.07 276.588 250.066 276.928Z" fill="#263238"/>
<path d="M250.066 261.394L249.886 261.319L249.347 261.097L247.251 260.169L239.171 256.653L165.299 256.713L93.4024 256.658H93.4256L83.8147 260.155L81.2774 261.083L80.6234 261.31L80.4008 261.384L80.6188 261.296L81.2635 261.046L83.7915 260.118L93.3792 256.565L165.275 256.509L239.147 256.57H239.175L247.228 260.137L249.315 261.064L249.844 261.305L250.066 261.394Z" fill="#263238"/>
<path d="M167.479 256.871C167.518 256.974 167.542 257.082 167.548 257.191C167.581 257.432 167.622 257.734 167.673 258.119C167.771 258.912 167.933 260.016 168.035 261.421C168.035 263.114 168.035 265.132 168.058 267.345C168.058 271.798 168.026 275.601 167.98 277.086H167.896C167.892 276.842 167.906 276.599 167.938 276.357C167.973 276.598 167.987 276.842 167.98 277.086H167.896C167.85 275.597 167.817 271.793 167.817 267.345C167.817 265.151 167.817 263.114 167.84 261.421C167.757 260.086 167.622 258.931 167.562 258.151C167.53 257.78 167.506 257.479 167.488 257.224C167.472 257.107 167.468 256.989 167.479 256.871Z" fill="#263238"/>
<path d="M93.4162 256.607C93.4053 256.517 93.4053 256.427 93.4162 256.338C93.4162 256.134 93.4162 255.874 93.4162 255.568C93.4162 254.867 93.4162 253.907 93.4162 252.738C93.4162 251.569 93.4162 250.122 93.393 248.564C93.393 247.775 93.3605 246.949 93.3049 246.091C93.2492 245.233 93.2028 244.347 93.0637 243.457C92.8092 241.775 92.0637 240.207 90.9207 238.948C89.9106 237.995 88.6677 237.325 87.3166 237.005C86.4042 236.769 85.473 236.614 84.5335 236.541C83.8702 236.48 83.4991 236.467 83.4991 236.448C83.5885 236.437 83.6788 236.437 83.7682 236.448C83.9444 236.448 84.2042 236.448 84.5382 236.448C85.4864 236.49 86.428 236.627 87.3491 236.856C88.7377 237.163 90.0189 237.835 91.0598 238.804C92.249 240.093 93.0231 241.709 93.2817 243.443C93.4255 244.37 93.4718 245.242 93.5229 246.101C93.5739 246.959 93.5878 247.794 93.5971 248.582C93.5971 250.164 93.5971 251.588 93.5693 252.785C93.5414 253.981 93.5136 254.946 93.4904 255.609C93.4904 255.925 93.4626 256.18 93.4486 256.379C93.4463 256.456 93.4354 256.532 93.4162 256.607Z" fill="#263238"/>
<path d="M71.481 241.133C71.5317 241.126 71.5833 241.126 71.634 241.133H72.0979C72.6854 241.162 73.2699 241.235 73.8466 241.351C74.7597 241.537 75.6452 241.839 76.4812 242.251C77.6063 242.791 78.5907 243.585 79.3571 244.57C79.5739 244.85 79.7648 245.15 79.9276 245.465C80.1133 245.789 80.2686 246.129 80.3914 246.481C80.4556 246.661 80.5052 246.845 80.5399 247.033C80.5927 247.22 80.6315 247.411 80.6558 247.603C80.7118 247.998 80.7397 248.397 80.7393 248.796C80.7393 250.4 80.7393 252.112 80.7393 253.898C80.7393 257.507 80.7393 261.472 80.7393 265.638C80.7393 273.959 80.7115 281.492 80.7022 286.975C80.7022 289.693 80.6744 291.896 80.6651 293.436C80.6651 294.188 80.6651 294.777 80.6419 295.194C80.6419 295.384 80.6419 295.537 80.6419 295.658C80.648 295.709 80.648 295.76 80.6419 295.811C80.6358 295.76 80.6358 295.709 80.6419 295.658C80.6419 295.542 80.6419 295.389 80.6419 295.194C80.6419 294.777 80.6419 294.188 80.6187 293.436C80.6187 291.896 80.6187 289.693 80.5816 286.975C80.5816 281.506 80.5584 273.987 80.5445 265.638C80.5445 261.463 80.5445 257.507 80.5445 253.898C80.5445 252.098 80.5445 250.382 80.5445 248.796C80.5475 248.406 80.5242 248.017 80.4749 247.631C80.4517 247.443 80.4145 247.257 80.3636 247.075C80.3315 246.892 80.2849 246.712 80.2245 246.537C80.1132 246.195 79.9719 245.865 79.8024 245.549C79.6474 245.242 79.4642 244.95 79.255 244.677C78.5124 243.713 77.5608 242.932 76.4719 242.39C75.6484 241.977 74.7777 241.665 73.879 241.462C73.3073 241.337 72.7277 241.252 72.1443 241.207L71.6804 241.179C71.6122 241.173 71.5451 241.157 71.481 241.133Z" fill="#263238"/>
<path d="M62.2179 296.233C77.7707 296.233 234.514 296.321 250.076 296.321Z" fill="#455A64"/>
<path d="M250.066 296.321C250.066 296.386 208.014 296.419 156.147 296.395C104.279 296.372 62.2179 296.298 62.2179 296.233C62.2179 296.168 104.266 296.131 156.147 296.154C208.028 296.177 250.066 296.252 250.066 296.321Z" fill="#263238"/>
<path d="M100.16 267.739C100.055 267.452 100 267.149 99.9981 266.844C99.9394 266.113 99.9549 265.378 100.044 264.65C100.129 263.923 100.284 263.207 100.508 262.511C100.588 262.217 100.713 261.937 100.879 261.681C100.949 261.709 100.462 263.003 100.267 264.682C100.072 266.361 100.235 267.739 100.16 267.739Z" fill="#263238"/>
<path d="M102.818 270.401C102.653 270.003 102.538 269.585 102.475 269.158C102.268 268.144 102.128 267.116 102.058 266.083C101.987 265.048 101.987 264.01 102.058 262.975C102.068 262.545 102.125 262.117 102.229 261.7C102.262 262.126 102.262 262.554 102.229 262.98C102.229 263.773 102.229 264.863 102.289 266.065C102.35 267.266 102.512 268.347 102.633 269.131C102.723 269.549 102.785 269.974 102.818 270.401Z" fill="#263238"/>
<path d="M167.395 257.2C167.325 257.2 167.274 250.187 167.274 241.536C167.274 232.886 167.325 225.872 167.395 225.872C167.465 225.872 167.516 232.886 167.516 241.536C167.516 250.187 167.46 257.2 167.395 257.2Z" fill="#263238"/>
<path d="M95.9394 231.712C95.6529 232.032 95.3428 232.329 95.0117 232.603C94.4366 233.141 93.6619 233.911 92.8688 234.815C92.0756 235.72 91.4216 236.592 90.967 237.232C90.7389 237.595 90.4847 237.94 90.2063 238.266C90.3663 237.867 90.5734 237.489 90.8232 237.139C91.3806 236.266 92.0007 235.435 92.6786 234.653C93.3589 233.873 94.097 233.146 94.8865 232.477C95.2058 232.181 95.5593 231.924 95.9394 231.712Z" fill="#263238"/>
<path d="M94.2001 237.849C93.7518 238.099 93.2663 238.276 92.7621 238.373C92.2782 238.549 91.7694 238.648 91.2546 238.665C91.7048 238.415 92.1917 238.238 92.6972 238.141C93.181 237.97 93.6874 237.871 94.2001 237.849Z" fill="#263238"/>
<path d="M144.198 238.93C144.303 238.866 144.424 238.835 144.546 238.841C144.878 238.834 145.204 238.935 145.474 239.129C145.685 239.273 145.854 239.472 145.962 239.703C146.071 239.935 146.115 240.192 146.09 240.446C146.07 240.763 145.953 241.065 145.754 241.312C145.555 241.559 145.284 241.739 144.979 241.826C144.674 241.913 144.35 241.903 144.05 241.798C143.751 241.693 143.491 241.498 143.307 241.239C143.154 241.035 143.057 240.793 143.028 240.538C142.998 240.284 143.037 240.027 143.14 239.792C143.269 239.481 143.497 239.221 143.79 239.055C143.892 238.986 144.011 238.948 144.133 238.943C144.133 238.943 144.017 239.004 143.841 239.134C143.593 239.315 143.405 239.567 143.303 239.857C143.222 240.062 143.196 240.285 143.228 240.503C143.259 240.721 143.348 240.927 143.484 241.1C143.643 241.32 143.865 241.485 144.121 241.574C144.377 241.662 144.654 241.67 144.915 241.597C145.175 241.523 145.407 241.37 145.578 241.161C145.75 240.951 145.852 240.693 145.872 240.423C145.896 240.204 145.862 239.982 145.774 239.779C145.687 239.577 145.548 239.401 145.372 239.268C145.131 239.075 144.839 238.959 144.532 238.934C144.328 238.92 144.203 238.948 144.198 238.93Z" fill="#263238"/>
<path d="M149.375 238.16C148.661 238.212 147.964 238.405 147.324 238.725C146.72 239.114 146.195 239.614 145.78 240.2C145.812 239.98 145.902 239.772 146.04 239.597C146.337 239.15 146.736 238.78 147.204 238.517C147.668 238.25 148.19 238.099 148.725 238.076C148.945 238.044 149.17 238.073 149.375 238.16Z" fill="#263238"/>
<path d="M147.023 243.378C146.953 243.378 146.782 242.854 146.387 242.297C145.993 241.74 145.553 241.369 145.594 241.328C146.014 241.476 146.366 241.771 146.587 242.158C146.872 242.5 147.026 242.932 147.023 243.378Z" fill="#263238"/>
<path d="M143.386 240.089C143.345 240.089 143.275 239.871 143.076 239.556C142.817 239.149 142.466 238.808 142.052 238.561C141.638 238.314 141.172 238.167 140.691 238.132C140.32 238.132 140.084 238.155 140.075 238.132C140.261 238.021 140.475 237.968 140.691 237.979C141.213 237.969 141.728 238.105 142.175 238.374C142.623 238.642 142.987 239.031 143.224 239.495C143.334 239.674 143.39 239.88 143.386 240.089Z" fill="#263238"/>
<path d="M113.617 238.93C113.721 238.866 113.842 238.835 113.965 238.841C114.297 238.832 114.623 238.933 114.892 239.129C115.104 239.273 115.274 239.471 115.383 239.703C115.492 239.934 115.537 240.191 115.514 240.446C115.494 240.763 115.376 241.065 115.177 241.312C114.978 241.559 114.707 241.739 114.402 241.826C114.097 241.913 113.773 241.903 113.473 241.798C113.174 241.693 112.915 241.498 112.731 241.239C112.577 241.035 112.481 240.793 112.451 240.538C112.422 240.284 112.461 240.027 112.564 239.792C112.691 239.48 112.919 239.22 113.213 239.055C113.313 238.987 113.431 238.948 113.552 238.943C113.552 238.943 113.44 239.004 113.264 239.134C113.016 239.316 112.827 239.568 112.721 239.857C112.642 240.063 112.618 240.285 112.651 240.503C112.683 240.721 112.771 240.927 112.907 241.1C113.065 241.32 113.287 241.486 113.543 241.576C113.799 241.665 114.076 241.673 114.337 241.599C114.598 241.525 114.829 241.372 115 241.162C115.171 240.951 115.272 240.693 115.291 240.423C115.317 240.204 115.284 239.981 115.196 239.778C115.108 239.576 114.968 239.4 114.79 239.268C114.552 239.075 114.261 238.959 113.955 238.934C113.765 238.92 113.621 238.948 113.617 238.93Z" fill="#263238"/>
<path d="M118.793 238.16C118.072 238.175 117.366 238.37 116.738 238.726C116.111 239.082 115.582 239.589 115.199 240.2C115.171 240.2 115.236 239.941 115.458 239.597C115.756 239.15 116.155 238.78 116.623 238.517C117.087 238.25 117.609 238.099 118.144 238.076C118.364 238.044 118.589 238.073 118.793 238.16Z" fill="#263238"/>
<path d="M116.437 243.378C116.367 243.378 116.2 242.854 115.806 242.297C115.412 241.74 114.971 241.369 115.008 241.328C115.43 241.475 115.784 241.77 116.006 242.158C116.291 242.5 116.444 242.933 116.437 243.378Z" fill="#263238"/>
<path d="M112.8 240.089C112.763 240.089 112.689 239.871 112.494 239.556C112.234 239.149 111.882 238.809 111.468 238.562C111.053 238.315 110.587 238.168 110.105 238.132C109.734 238.132 109.502 238.155 109.493 238.132C109.679 238.021 109.894 237.968 110.11 237.979C110.632 237.968 111.146 238.105 111.594 238.374C112.042 238.642 112.405 239.03 112.643 239.495C112.837 239.834 112.838 240.084 112.8 240.089Z" fill="#263238"/>
<path d="M219.146 239.138C219.253 239.076 219.376 239.046 219.499 239.05C219.831 239.041 220.157 239.142 220.427 239.338C220.638 239.482 220.807 239.68 220.917 239.912C221.026 240.143 221.071 240.4 221.048 240.655C221.028 240.972 220.91 241.274 220.711 241.521C220.512 241.768 220.242 241.947 219.937 242.034C219.632 242.121 219.307 242.112 219.008 242.007C218.709 241.902 218.449 241.707 218.265 241.448C218.11 241.244 218.013 241.002 217.983 240.747C217.954 240.493 217.994 240.235 218.098 240.001C218.223 239.689 218.451 239.429 218.743 239.263C218.845 239.196 218.964 239.157 219.086 239.152C219.086 239.152 218.975 239.212 218.794 239.342C218.547 239.525 218.36 239.777 218.256 240.066C218.175 240.271 218.15 240.494 218.183 240.712C218.215 240.93 218.305 241.136 218.441 241.309C218.599 241.529 218.822 241.695 219.077 241.784C219.333 241.874 219.611 241.882 219.871 241.808C220.132 241.734 220.364 241.581 220.534 241.371C220.705 241.16 220.807 240.902 220.826 240.632C220.851 240.412 220.818 240.19 220.73 239.987C220.642 239.784 220.502 239.608 220.325 239.477C220.085 239.283 219.792 239.166 219.485 239.143C219.276 239.129 219.151 239.161 219.146 239.138Z" fill="#263238"/>
<path d="M224.328 238.368C223.607 238.386 222.901 238.582 222.274 238.938C221.647 239.294 221.118 239.799 220.733 240.409C220.705 240.409 220.77 240.149 220.993 239.806C221.288 239.359 221.686 238.989 222.152 238.725C222.619 238.461 223.142 238.31 223.678 238.285C223.898 238.256 224.122 238.285 224.328 238.368Z" fill="#263238"/>
<path d="M221.971 243.587C221.902 243.587 221.735 243.062 221.34 242.506C220.946 241.949 220.501 241.578 220.543 241.536C220.942 241.72 221.285 242.007 221.536 242.367C221.787 242.728 221.937 243.149 221.971 243.587Z" fill="#263238"/>
<path d="M218.335 240.298C218.298 240.298 218.223 240.085 218.029 239.769C217.769 239.361 217.418 239.02 217.003 238.772C216.588 238.525 216.121 238.378 215.64 238.34C215.269 238.317 215.037 238.34 215.027 238.34C215.214 238.23 215.429 238.178 215.644 238.192C216.166 238.181 216.68 238.318 217.127 238.585C217.575 238.852 217.939 239.24 218.177 239.704C218.349 240.047 218.363 240.293 218.335 240.298Z" fill="#263238"/>
<path d="M188.565 239.138C188.67 239.076 188.791 239.045 188.913 239.05C189.245 239.042 189.571 239.143 189.841 239.338C190.052 239.482 190.22 239.681 190.329 239.912C190.437 240.144 190.482 240.4 190.458 240.655C190.438 240.972 190.32 241.274 190.121 241.521C189.922 241.768 189.651 241.947 189.346 242.034C189.041 242.121 188.717 242.112 188.417 242.007C188.118 241.902 187.859 241.707 187.675 241.448C187.521 241.243 187.425 241.001 187.397 240.747C187.368 240.492 187.408 240.235 187.512 240.001C187.638 239.689 187.865 239.429 188.157 239.264C188.259 239.195 188.378 239.157 188.5 239.152C188.5 239.152 188.384 239.212 188.208 239.342C187.96 239.524 187.772 239.776 187.67 240.066C187.589 240.271 187.563 240.494 187.595 240.712C187.626 240.93 187.715 241.136 187.851 241.309C188.01 241.528 188.232 241.694 188.488 241.782C188.744 241.871 189.021 241.879 189.282 241.805C189.543 241.731 189.774 241.579 189.946 241.369C190.117 241.159 190.219 240.902 190.24 240.632C190.264 240.412 190.231 240.19 190.143 239.988C190.055 239.785 189.916 239.609 189.739 239.477C189.499 239.284 189.206 239.167 188.899 239.143C188.695 239.129 188.57 239.161 188.565 239.138Z" fill="#263238"/>
<path d="M193.746 238.368C193.03 238.421 192.332 238.615 191.691 238.939C191.087 239.325 190.562 239.824 190.147 240.409C190.18 240.189 190.27 239.982 190.406 239.806C190.703 239.362 191.1 238.993 191.565 238.729C192.029 238.464 192.549 238.312 193.083 238.285C193.307 238.255 193.536 238.283 193.746 238.368Z" fill="#263238"/>
<path d="M191.39 243.587C191.32 243.587 191.149 243.062 190.754 242.506C190.36 241.949 189.919 241.578 189.961 241.536C190.381 241.685 190.733 241.98 190.954 242.367C191.238 242.709 191.393 243.141 191.39 243.587Z" fill="#263238"/>
<path d="M187.753 240.298C187.712 240.298 187.642 240.085 187.443 239.769C187.186 239.36 186.837 239.019 186.422 238.772C186.007 238.525 185.54 238.378 185.058 238.341C184.687 238.317 184.451 238.341 184.442 238.341C184.628 238.231 184.843 238.18 185.058 238.192C185.581 238.181 186.096 238.316 186.544 238.584C186.993 238.851 187.357 239.239 187.596 239.704C187.702 239.884 187.757 240.089 187.753 240.298Z" fill="#263238"/>
<path d="M247.701 236.035C247.701 236.035 247.65 236.105 247.539 236.211L247.028 236.675C246.806 236.87 246.532 237.111 246.24 237.417C245.948 237.724 245.59 238.039 245.247 238.447L244.691 239.064C244.5 239.282 244.324 239.528 244.129 239.769C243.726 240.233 243.355 240.799 242.951 241.374C241.26 243.907 240.045 246.727 239.366 249.695C239.226 250.382 239.078 251.031 239.004 251.653C238.962 251.959 238.911 252.256 238.883 252.543C238.855 252.831 238.837 253.109 238.814 253.374C238.753 253.902 238.763 254.38 238.749 254.802C238.73 255.162 238.73 255.523 238.749 255.883V256.57C238.755 256.65 238.755 256.731 238.749 256.811C238.724 256.733 238.711 256.651 238.712 256.57C238.712 256.389 238.674 256.161 238.651 255.888C238.616 255.527 238.602 255.165 238.609 254.802C238.609 254.38 238.609 253.875 238.637 253.36C238.656 253.094 238.674 252.816 238.693 252.525C238.693 252.233 238.763 251.936 238.8 251.625C238.865 250.999 239.008 250.34 239.143 249.644C239.805 246.641 241.035 243.791 242.766 241.249C243.174 240.674 243.554 240.117 243.967 239.644C244.166 239.403 244.352 239.18 244.547 238.943L245.117 238.327C245.47 237.928 245.836 237.612 246.142 237.315C246.403 237.064 246.677 236.827 246.963 236.606L247.501 236.179C247.562 236.124 247.629 236.076 247.701 236.035Z" fill="#263238"/>
<path d="M244.602 227.245C244.561 227.245 244.667 226.781 244.602 226.058C244.505 225.113 244.09 224.229 243.425 223.55C242.761 222.871 241.885 222.437 240.943 222.319C240.219 222.217 239.764 222.319 239.755 222.268C239.853 222.218 239.961 222.188 240.071 222.18C240.365 222.133 240.664 222.122 240.961 222.148C241.96 222.227 242.896 222.665 243.596 223.382C244.296 224.098 244.713 225.044 244.769 226.044C244.79 226.34 244.773 226.638 244.718 226.93C244.702 227.042 244.662 227.149 244.602 227.245Z" fill="#263238"/>
<path d="M245.173 232.338C245.052 231.768 245.011 231.184 245.052 230.603C245.011 230.022 245.051 229.438 245.173 228.869C245.292 229.439 245.332 230.022 245.293 230.603C245.332 231.184 245.291 231.768 245.173 232.338Z" fill="#263238"/>
<path d="M206.386 239.908C206.168 239.456 205.975 238.991 205.811 238.517C205.36 237.405 204.842 236.32 204.262 235.27C203.677 234.23 203.033 233.225 202.332 232.259C202.019 231.875 201.729 231.473 201.465 231.053C201.465 231.053 201.581 231.137 201.757 231.327C201.933 231.517 202.179 231.791 202.467 232.157C203.215 233.099 203.887 234.1 204.475 235.149C205.061 236.201 205.562 237.297 205.973 238.429C206.126 238.865 206.238 239.222 206.303 239.472C206.354 239.612 206.383 239.759 206.386 239.908Z" fill="#263238"/>
<path d="M205.871 232.835C205.691 232.107 205.59 231.362 205.57 230.613C205.472 229.87 205.453 229.119 205.514 228.372C205.691 229.101 205.79 229.845 205.811 230.594C205.909 231.337 205.929 232.088 205.871 232.835Z" fill="#263238"/>
<g opacity="0.3">
<path d="M237.561 277.266C187.696 280.026 137.714 279.897 87.864 276.881L237.561 277.266Z" fill="black"/>
</g>
<g opacity="0.3">
<path d="M170.642 258.17C170.323 257.909 169.949 257.725 169.547 257.632C167.265 256.959 164.723 256.978 162.729 255.684C161.207 254.696 160.224 253.081 159.329 251.509C156.595 246.687 154.172 241.695 152.074 236.564L149.825 240.808C148.383 245.248 147.185 249.763 146.234 254.334C146.044 255.262 145.873 256.245 146.281 257.084C146.777 258.114 147.969 258.578 149.064 258.912C155.742 260.917 162.802 261.304 169.659 260.039C170.178 259.942 170.772 259.775 170.967 259.288C171.026 259.09 171.026 258.879 170.969 258.681C170.911 258.483 170.798 258.305 170.642 258.17Z" fill="black"/>
</g>
<path d="M178.453 259.71C168.494 261.032 159.106 260.531 150.52 257.488C148.632 247.167 149.704 238.725 152.738 229.555C161.305 229.133 170.688 229.977 180.675 231.777C181.645 241.145 180.892 250.612 178.453 259.71Z" fill="#FF6F00"/>
<path d="M176.329 240.534C176.184 240.739 176.021 240.93 175.842 241.105C175.684 241.286 175.48 241.504 175.234 241.74C174.988 241.977 174.715 242.265 174.385 242.547C173.635 243.231 172.849 243.874 172.029 244.472C171.022 245.201 169.972 245.867 168.884 246.467C167.789 247.058 166.66 247.583 165.503 248.039C164.556 248.403 163.59 248.712 162.608 248.967C161.773 249.19 161.087 249.338 160.609 249.431C160.365 249.486 160.117 249.518 159.867 249.528C160.103 249.446 160.345 249.382 160.59 249.338C161.054 249.232 161.736 249.06 162.566 248.819C163.397 248.577 164.361 248.248 165.419 247.831C167.72 246.92 169.901 245.731 171.913 244.292C172.841 243.628 173.643 242.988 174.288 242.436C174.622 242.158 174.9 241.889 175.151 241.657C175.401 241.425 175.614 241.226 175.791 241.054C175.954 240.865 176.134 240.691 176.329 240.534Z" fill="#263238"/>
<path d="M172.595 248.54C170.222 248.877 167.829 249.054 165.433 249.069C166.614 248.861 167.807 248.732 169.005 248.684C170.197 248.553 171.396 248.505 172.595 248.54Z" fill="#263238"/>
<path d="M166.778 230.242C166.811 230.302 163.137 232.278 158.573 234.653C154.008 237.028 150.288 238.902 150.256 238.827C150.223 238.753 153.897 236.796 158.461 234.416C163.026 232.037 166.746 230.167 166.778 230.242Z" fill="white"/>
<path d="M180.847 233.795C180.749 233.861 180.645 233.917 180.536 233.962L179.608 234.388L176.231 235.938C173.383 237.246 169.459 239.069 165.155 241.156C160.85 243.243 156.982 245.187 154.185 246.611L150.873 248.295L149.973 248.758C149.87 248.815 149.761 248.862 149.648 248.898C149.745 248.829 149.845 248.767 149.95 248.712L150.831 248.22C151.596 247.798 152.714 247.195 154.101 246.467C156.884 245.001 160.734 243.03 165.043 240.947C169.353 238.865 173.291 237.06 176.176 235.789C177.609 235.154 178.773 234.653 179.585 234.31L180.513 233.925C180.622 233.875 180.733 233.832 180.847 233.795Z" fill="white"/>
<path d="M179.682 247.566C179.594 247.621 179.503 247.67 179.409 247.715L178.611 248.095C177.915 248.424 176.899 248.879 175.633 249.422C173.11 250.512 169.575 251.917 165.6 253.276C161.625 254.635 157.965 255.67 155.303 256.352C153.967 256.695 152.886 256.955 152.134 257.117L151.267 257.302C151.167 257.331 151.065 257.348 150.961 257.353C151.056 257.311 151.156 257.278 151.258 257.256L152.111 257.029L155.256 256.189C157.909 255.466 161.551 254.399 165.521 253.044C169.492 251.69 173.026 250.312 175.568 249.264L178.574 248.007L179.39 247.668C179.483 247.623 179.581 247.588 179.682 247.566Z" fill="white"/>
<path d="M179.446 256.528C179.146 256.794 178.817 257.028 178.467 257.224C177.644 257.73 176.788 258.182 175.907 258.578C175.025 258.973 174.119 259.309 173.193 259.585C172.815 259.719 172.423 259.81 172.024 259.854C172.384 259.678 172.758 259.533 173.142 259.422C173.833 259.176 174.784 258.815 175.809 258.355C176.834 257.896 177.734 257.428 178.379 257.075C178.718 256.861 179.075 256.678 179.446 256.528Z" fill="white"/>
<path d="M150.479 257.627C150.483 257.531 150.499 257.436 150.525 257.344C150.571 257.14 150.627 256.88 150.697 256.551C150.859 255.865 151.077 254.867 151.327 253.633C151.977 250.413 152.46 247.162 152.775 243.893C153.076 240.625 153.211 237.345 153.178 234.064C153.178 232.807 153.136 231.786 153.104 231.081C153.104 230.752 153.104 230.483 153.104 230.269C153.096 230.175 153.096 230.081 153.104 229.987C153.129 230.079 153.143 230.174 153.146 230.269C153.164 230.48 153.187 230.749 153.215 231.077C153.271 231.782 153.327 232.802 153.359 234.059C153.538 240.641 152.915 247.221 151.504 253.652C151.23 254.886 150.989 255.874 150.799 256.556L150.581 257.34C150.559 257.439 150.525 257.536 150.479 257.627Z" fill="#263238"/>
<g opacity="0.3">
<path d="M175.457 241.49C170.943 246.217 165.874 247.951 160.841 249.204C163.704 249.89 166.717 249.552 169.357 248.248C171.996 246.944 174.096 244.756 175.29 242.065" fill="black"/>
</g>
<g opacity="0.3">
<path d="M152.96 231.29C151.754 235.367 151.592 239.542 150.979 243.753C150.367 247.965 149.875 252.465 150.72 256.519C152.784 248.531 154.013 239.472 152.96 231.29Z" fill="black"/>
</g>
<path d="M275.334 184.507V296.317C275.334 297.513 275.77 298.659 276.545 299.504C277.32 300.349 278.371 300.824 279.467 300.824H494.396C495.493 300.824 496.544 300.349 497.319 299.504C498.094 298.659 498.53 297.513 498.53 296.317L498.075 255.352C498.049 254.423 497.76 253.526 497.248 252.783L466.415 207.716C466.038 207.183 465.557 206.748 465.006 206.444C464.455 206.139 463.849 205.974 463.232 205.958L423.759 205.643V184.507C423.759 183.311 423.324 182.165 422.549 181.32C421.774 180.475 420.722 180 419.626 180H279.344C278.269 180.035 277.249 180.525 276.501 181.367C275.752 182.208 275.334 183.334 275.334 184.507Z" fill="#FF6F00"/>
<path d="M433.596 215.332V251.386C433.596 252.055 433.84 252.697 434.274 253.17C434.708 253.644 435.297 253.909 435.911 253.909L483.361 252.963C483.773 252.96 484.176 252.834 484.528 252.6C484.879 252.366 485.166 252.032 485.357 251.634C485.548 251.236 485.636 250.788 485.612 250.34C485.588 249.891 485.453 249.458 485.221 249.087L463.025 213.349C462.808 213.009 462.517 212.732 462.178 212.543C461.839 212.355 461.463 212.26 461.082 212.268L435.787 213.034C435.223 213.044 434.684 213.287 434.277 213.714C433.871 214.14 433.628 214.718 433.596 215.332Z" fill="#E0E0E0"/>
<path d="M499.274 299.067H274.425C272.553 299.067 271.036 300.721 271.036 302.762V303.168C271.036 305.209 272.553 306.863 274.425 306.863H499.274C501.145 306.863 502.663 305.209 502.663 303.168V302.762C502.663 300.721 501.145 299.067 499.274 299.067Z" fill="#FF6F00"/>
<path d="M449.634 260.76C449.634 261.391 446.327 261.931 442.318 261.931C438.308 261.931 434.96 261.391 434.96 260.76C434.96 260.129 438.267 259.633 442.318 259.633C446.368 259.633 449.634 260.174 449.634 260.76Z" fill="#263238"/>
<path d="M423.098 297.174C422.519 297.174 422.023 271.756 422.023 240.435C422.023 209.113 422.519 183.696 423.098 183.696C423.677 183.696 424.173 209.068 424.173 240.435C424.173 271.801 423.677 297.174 423.098 297.174Z" fill="#263238"/>
<path d="M499.108 298.976C499.108 299.652 449.055 300.148 387.511 300.148C325.967 300.148 275.913 299.652 275.913 298.976C275.913 298.3 325.925 297.805 387.511 297.805C449.096 297.805 499.108 298.345 499.108 298.976Z" fill="#263238"/>
<path d="M324.727 331.83C337.373 331.83 347.625 320.652 347.625 306.863C347.625 293.074 337.373 281.896 324.727 281.896C312.08 281.896 301.828 293.074 301.828 306.863C301.828 320.652 312.08 331.83 324.727 331.83Z" fill="#263238"/>
<path d="M324.727 321.555C332.168 321.555 338.201 314.977 338.201 306.863C338.201 298.749 332.168 292.171 324.727 292.171C317.285 292.171 311.252 298.749 311.252 306.863C311.252 314.977 317.285 321.555 324.727 321.555Z" fill="#E0E0E0"/>
<path d="M449.551 331.83C462.197 331.83 472.449 320.652 472.449 306.863C472.449 293.074 462.197 281.896 449.551 281.896C436.904 281.896 426.653 293.074 426.653 306.863C426.653 320.652 436.904 331.83 449.551 331.83Z" fill="#263238"/>
<path d="M449.551 321.555C456.992 321.555 463.025 314.977 463.025 306.863C463.025 298.749 456.992 292.171 449.551 292.171C442.109 292.171 436.076 298.749 436.076 306.863C436.076 314.977 442.109 321.555 449.551 321.555Z" fill="#E0E0E0"/>
<path d="M362.463 245.121C362.463 245.797 339.524 246.338 311.211 246.338C282.898 246.338 260 245.797 260 245.121C260 244.445 282.939 243.95 311.211 243.95C339.482 243.95 362.463 244.491 362.463 245.121Z" fill="#263238"/>
<path d="M366.1 236.243C350.869 237.806 335.536 237.806 320.304 236.243C335.536 234.681 350.869 234.681 366.1 236.243Z" fill="#263238"/>
<path d="M91.4837 243.32H-1V314.994H91.4837V243.32Z" fill="#FF6F00"/>
<path opacity="0.2" d="M91.4838 243.32H56.4572V314.994H91.4838V243.32Z" fill="black"/>
<path d="M89.0707 310.074C86.488 304.976 83.9164 299.864 81.3559 294.739L73.7573 279.304L66.2583 263.808C63.7679 258.642 61.3051 253.455 58.87 248.245C61.4527 253.34 64.0224 258.454 66.5793 263.586L74.1779 279.005L81.6769 294.501C84.1673 299.666 86.6319 304.857 89.0707 310.074Z" fill="#FF6F00"/>
<path d="M89.0707 248.256C86.6282 253.459 84.1636 258.646 81.6769 263.819L74.1779 279.315L66.5793 294.733C64.0335 299.862 61.4637 304.974 58.87 310.069C61.3051 304.867 63.7679 299.679 66.2583 294.506L73.7573 279.01L81.3559 263.586C83.9016 258.465 86.4733 253.355 89.0707 248.256Z" fill="#FF6F00"/>
<path d="M68.7211 252.064H79.358V243.32H68.7211V252.064Z" fill="#EBEBEB"/>
<path d="M18.4311 310.229H19.1782V299.72H18.4311V310.229Z" fill="#263238"/>
<path d="M16.6434 310.229H17.3905V299.72H16.6434V310.229Z" fill="#263238"/>
<path d="M14.8615 310.229H15.6086L15.6086 299.72H14.8615L14.8615 310.229Z" fill="#263238"/>
<path d="M13.0683 310.229H13.8154L13.8154 299.72H13.0683L13.0683 310.229Z" fill="#263238"/>
<path d="M11.2806 310.229H12.0277L12.0277 299.72H11.2806L11.2806 310.229Z" fill="#263238"/>
<path d="M9.49323 310.229H10.2404L10.2404 299.72H9.49323L9.49323 310.229Z" fill="#263238"/>
<path d="M7.7055 310.229H8.45264L8.45264 299.72H7.7055L7.7055 310.229Z" fill="#263238"/>
<path d="M5.91779 310.229H6.66492L6.66492 299.72H5.91779L5.91779 310.229Z" fill="#263238"/>
<path d="M4.13031 310.229H4.87744L4.87744 299.72H4.13031L4.13031 310.229Z" fill="#263238"/>
<path d="M26.4888 309.427L23.6221 310.224H30.3518L27.485 309.416V305.542C29.5382 305.276 30.3518 303.251 30.3518 299.709H23.6221C23.6221 303.24 24.4411 305.276 26.4888 305.542V309.427Z" fill="#263238"/>
<path d="M31.9178 305.083H33.6778V310.224H38.1771V305.083H39.9426L35.9247 299.72L31.9178 305.083Z" fill="#263238"/>
<path opacity="0.1" d="M-1 314.994V309.964L56.4571 300.65V314.994H-1Z" fill="black"/>
<path d="M86.6853 196.848H15.2319V243.32H86.6853V196.848Z" fill="#FF6F00"/>
<path opacity="0.2" d="M86.6799 196.848H64.847V243.32H86.6799V196.848Z" fill="black"/>
<path d="M85.1747 241.576C83.5587 238.119 81.9574 234.647 80.3709 231.161L75.6336 220.69L70.9571 210.175C69.4075 206.659 67.8726 203.135 66.3525 199.604C67.9686 203.065 69.5698 206.537 71.1563 210.02L75.8937 220.491L80.5702 231.006C82.1198 234.518 83.6546 238.042 85.1747 241.576Z" fill="#FF6F00"/>
<path d="M85.1748 199.604C83.6584 203.143 82.1235 206.666 80.5702 210.175L75.8938 220.69L71.1785 231.161C69.5957 234.647 67.9945 238.119 66.3748 241.576C67.8912 238.046 69.426 234.524 70.9793 231.011L75.6558 220.496L80.3931 210.031C81.9612 206.541 83.5551 203.065 85.1748 199.604Z" fill="#FF6F00"/>
<path d="M72.4955 202.36H79.1256V196.848H72.4955V202.36Z" fill="#EBEBEB"/>
<path d="M27.341 240.348H27.8059V233.795H27.341V240.348Z" fill="#263238"/>
<path d="M26.229 240.348H26.6938V233.795H26.229V240.348Z" fill="#263238"/>
<path d="M25.1164 240.348H25.5813V233.795H25.1164V240.348Z" fill="#263238"/>
<path d="M24.0039 240.348H24.4688V233.795H24.0039V240.348Z" fill="#263238"/>
<path d="M22.8859 240.348H23.3508V233.795H22.8859V240.348Z" fill="#263238"/>
<path d="M21.7679 240.348H22.2328V233.795H21.7679V240.348Z" fill="#263238"/>
<path d="M20.6612 240.348H21.1261V233.795H20.6612V240.348Z" fill="#263238"/>
<path d="M19.5433 240.348H20.0082V233.795H19.5433V240.348Z" fill="#263238"/>
<path d="M18.4254 240.348H18.8903V233.795H18.4254V240.348Z" fill="#263238"/>
<path d="M32.3663 239.85L30.5787 240.348H34.7737L32.9917 239.844V237.437C34.2701 237.265 34.7793 236.003 34.7793 233.801H30.5843C30.5843 236.014 31.0934 237.265 32.3719 237.437L32.3663 239.85Z" fill="#263238"/>
<path d="M35.7534 237.138H36.8492V240.342H39.6496V237.138H40.7509L38.2494 233.801L35.7534 237.138Z" fill="#263238"/>
<path opacity="0.1" d="M15.2319 243.32V240.182L64.8469 234.376V243.32H15.2319Z" fill="black"/>
<path d="M133.948 268.529H62.4949V315H133.948V268.529Z" fill="#FF6F00"/>
<path opacity="0.2" d="M133.949 268.529H112.116V315H133.949V268.529Z" fill="black"/>
<path d="M132.443 313.257C130.827 309.792 129.224 306.319 127.634 302.836L122.897 292.365L118.22 281.85C116.67 278.341 115.136 274.817 113.615 271.279C115.239 274.744 116.842 278.217 118.425 281.7L123.162 292.171L127.839 302.686C129.388 306.195 130.923 309.718 132.443 313.257Z" fill="#FF6F00"/>
<path d="M132.443 271.279C130.923 274.817 129.388 278.341 127.839 281.85L123.162 292.365L118.425 302.836C116.835 306.322 115.231 309.796 113.615 313.257C115.139 309.722 116.674 306.199 118.22 302.686L122.897 292.171L127.628 281.7C129.222 278.214 130.827 274.74 132.443 271.279Z" fill="#FF6F00"/>
<path d="M119.758 274.035H126.389V268.523H119.758V274.035Z" fill="#EBEBEB"/>
<path d="M74.6095 312.023H75.0743V305.47H74.6095V312.023Z" fill="#263238"/>
<path d="M73.4973 312.023H73.9622V305.47H73.4973V312.023Z" fill="#263238"/>
<path d="M72.3849 312.023H72.8497V305.47H72.3849V312.023Z" fill="#263238"/>
<path d="M71.2668 312.023H71.7317V305.47H71.2668V312.023Z" fill="#263238"/>
<path d="M70.1489 312.023H70.6138V305.47H70.1489V312.023Z" fill="#263238"/>
<path d="M69.0422 312.023H69.5071V305.47H69.0422V312.023Z" fill="#263238"/>
<path d="M67.9242 312.023H68.389V305.47H67.9242V312.023Z" fill="#263238"/>
<path d="M66.8062 312.023H67.2711V305.47H66.8062V312.023Z" fill="#263238"/>
<path d="M65.6937 312.023H66.1586V305.47H65.6937V312.023Z" fill="#263238"/>
<path d="M79.6347 311.525L77.8472 312.023H82.0422L80.2546 311.519V309.112C81.533 308.946 82.0422 307.684 82.0422 305.476H77.8472C77.8472 307.689 78.3563 308.946 79.6347 309.112V311.525Z" fill="#263238"/>
<path d="M83.0164 308.813H84.1121V312.023H86.918V308.813H88.0194L85.5179 305.476L83.0164 308.813Z" fill="#263238"/>
<path opacity="0.1" d="M62.4949 314.994V311.862L112.11 306.051V314.994H62.4949Z" fill="black"/>
<path d="M142.792 237.697H69.3741V268.523H142.792V237.697Z" fill="#FF6F00"/>
<path opacity="0.2" d="M142.792 237.697H116.161V268.529H142.792V237.697Z" fill="black"/>
<path d="M140.955 266.403C138.985 264.212 137.031 262.013 135.094 259.806L129.316 253.165L123.616 246.524C121.723 244.31 119.851 242.08 117.999 239.833C119.969 242.017 121.923 244.216 123.86 246.43L129.637 253.071L135.338 259.712C137.23 261.926 139.103 264.156 140.955 266.403Z" fill="#FF6F00"/>
<path d="M140.955 239.822C139.11 242.058 137.238 244.288 135.338 246.513L129.637 253.154L123.86 259.795C121.923 262.009 119.969 264.208 117.999 266.392C119.844 264.153 121.716 261.921 123.616 259.696L129.316 253.055L135.094 246.413C137.031 244.211 138.985 242.014 140.955 239.822Z" fill="#FF6F00"/>
<path d="M81.6214 264.904H82.0531V258.777H81.6214V264.904Z" fill="#263238"/>
<path d="M80.5758 264.904H81.0074V258.777H80.5758V264.904Z" fill="#263238"/>
<path d="M79.5351 264.904H79.9668V258.777H79.5351V264.904Z" fill="#263238"/>
<path d="M78.4946 264.904H78.9263V258.777H78.4946V264.904Z" fill="#263238"/>
<path d="M77.4488 264.904H77.8805V258.777H77.4488V264.904Z" fill="#263238"/>
<path d="M76.4083 264.904H76.84V258.777H76.4083V264.904Z" fill="#263238"/>
<path d="M75.3621 264.904H75.7938V258.777H75.3621V264.904Z" fill="#263238"/>
<path d="M74.322 264.904H74.7537V258.777H74.322V264.904Z" fill="#263238"/>
<path d="M73.2813 264.904H73.713V258.777H73.2813V264.904Z" fill="#263238"/>
<path d="M86.3147 264.433L84.6544 264.898H88.5782L86.9179 264.428V262.175C88.1134 262.02 88.5782 260.836 88.5782 258.777H84.6544C84.6544 260.83 85.1304 262.02 86.3147 262.175V264.433Z" fill="#263238"/>
<path d="M89.4805 261.898H90.5043V264.898H93.1276V261.898H94.157L91.8159 258.777L89.4805 261.898Z" fill="#263238"/>
<path opacity="0.1" d="M69.3795 268.528V264.699L116.161 257.62V268.523L69.3795 268.528Z" fill="black"/>
<path d="M150.701 229.988H124.07L116.161 237.697H142.798L150.701 229.988Z" fill="#FF6F00"/>
<path opacity="0.1" d="M150.701 229.988H124.07L116.161 237.697H142.798L150.701 229.988Z" fill="black"/>
<path d="M61.4713 229.988H88.1024L96.0109 237.697H69.3743L61.4713 229.988Z" fill="#FF6F00"/>
<path opacity="0.1" d="M61.4713 229.988H88.1024L96.0109 237.697H69.3743L61.4713 229.988Z" fill="black"/>
<path d="M74.5045 173.709H6.90857V196.97H74.5045V173.709Z" fill="#FF6F00"/>
<path opacity="0.2" d="M74.5045 173.709H47.8734V196.97H74.5045V173.709Z" fill="black"/>
<path d="M72.6669 194.845C70.6967 193.435 68.7431 192.017 66.8061 190.589L61.0283 186.316L55.3224 182.016C53.4297 180.585 51.5572 179.146 49.7051 177.699C51.6827 179.116 53.6381 180.535 55.5714 181.955L61.3437 186.233L67.0496 190.534C68.9644 191.961 70.8129 193.406 72.6669 194.845Z" fill="#FF6F00"/>
<path d="M72.6669 177.699C70.8221 179.142 68.9497 180.581 67.0496 182.016L61.3437 186.316L55.5714 190.589C53.6344 192.017 51.679 193.435 49.7051 194.845C51.5591 193.406 53.4297 191.961 55.3224 190.528L61.0283 186.233L66.8061 181.955C68.7394 180.535 70.693 179.116 72.6669 177.699Z" fill="#FF6F00"/>
<path d="M19.1505 193.345H19.5822V187.218H19.1505V193.345Z" fill="#263238"/>
<path d="M18.1098 193.345H18.5415V187.218H18.1098V193.345Z" fill="#263238"/>
<path d="M17.0638 193.345H17.4955V187.218H17.0638V193.345Z" fill="#263238"/>
<path d="M16.0235 193.345H16.4552V187.218H16.0235V193.345Z" fill="#263238"/>
<path d="M14.983 193.345H15.4147V187.218H14.983V193.345Z" fill="#263238"/>
<path d="M13.9369 193.345H14.3685V187.218H13.9369V193.345Z" fill="#263238"/>
<path d="M12.8967 193.345H13.3284V187.218H12.8967V193.345Z" fill="#263238"/>
<path d="M11.856 193.345H12.2877V187.218H11.856V193.345Z" fill="#263238"/>
<path d="M10.8104 193.345H11.2421V187.218H10.8104V193.345Z" fill="#263238"/>
<path d="M23.8491 192.88L22.1888 193.345H26.1127L24.4524 192.875V190.622C25.6533 190.462 26.1127 189.283 26.1127 187.218H22.1888C22.1888 189.277 22.6648 190.462 23.8491 190.622V192.88Z" fill="#263238"/>
<path d="M27.0145 190.345H28.0384V193.345H30.6616V190.345H31.691L29.35 187.218L27.0145 190.345Z" fill="#263238"/>
<path opacity="0.1" d="M6.90857 196.97V193.146L47.8735 186.062V196.97H6.90857Z" fill="black"/>
<path d="M82.413 166H55.7764L47.8734 173.709H74.5045L82.413 166Z" fill="#FF6F00"/>
<path opacity="0.1" d="M82.413 166H55.7764L47.8734 173.709H74.5045L82.413 166Z" fill="black"/>
<path d="M-1 166H25.6366L33.5396 173.709H6.90852L-1 166Z" fill="#FF6F00"/>
<path opacity="0.1" d="M-1 166H25.6366L33.5396 173.709H6.90852L-1 166Z" fill="black"/>
</g>
<defs>
<clipPath id="clip0_134_2837">
<rect width="503" height="500" fill="white"/>
</clipPath>
</defs>
</svg>
