<svg width="125" height="120" viewBox="0 0 125 120" fill="none" xmlns="http://www.w3.org/2000/svg">
<g clip-path="url(#clip0_1_3489)">
<path d="M2.73245 108.694C50.0124 108.547 103.064 108.547 150.352 108.694C103.072 108.842 50.0316 108.842 2.73245 108.694Z" fill="#263238"/>
<path d="M116.461 76.9056H36.6229V101.347H116.461V76.9056Z" fill="#FF6F00"/>
<path opacity="0.4" d="M116.461 76.9056H36.6229V101.347H116.461V76.9056Z" fill="black"/>
<path d="M106.194 101.347L106.374 103.567L106.796 108.694H108.728L109.151 103.567L109.331 101.347H106.194Z" fill="#FF6F00"/>
<path opacity="0.4" d="M106.194 101.347L106.374 103.567L106.796 108.694H108.728L109.151 103.567L109.331 101.347H106.194Z" fill="black"/>
<path opacity="0.4" d="M109.331 101.347H106.194L106.283 102.442L109.151 103.567L109.331 101.347Z" fill="black"/>
<path d="M43.7532 101.347L43.9332 103.567L44.3556 108.694H46.2876L46.71 103.567L46.89 101.347H43.7532Z" fill="#FF6F00"/>
<path opacity="0.4" d="M43.7532 101.347L43.9332 103.567L44.3556 108.694H46.2876L46.71 103.567L46.89 101.347H43.7532Z" fill="black"/>
<path opacity="0.4" d="M43.7532 101.347L43.9332 103.567L46.7796 102.71L46.89 101.347H43.7532Z" fill="black"/>
<g opacity="0.3">
<path d="M75.4741 79.224H39.0613V87.9552H75.4741V79.224Z" fill="black"/>
<path d="M114.023 90.0624H39.0613V98.7936H114.023V90.0624Z" fill="black"/>
<path d="M114.023 79.224H77.6101V87.9552H114.023V79.224Z" fill="black"/>
</g>
<path d="M43.1077 77.6112H3.00125V108.694H43.1077V77.6112Z" fill="#FF6F00"/>
<path opacity="0.2" d="M43.1076 77.6112H27.918V108.694H43.1076V77.6112Z" fill="black"/>
<path d="M42.0613 106.56C40.9413 104.349 39.8261 102.132 38.7157 99.9096L35.4205 93.216L32.1685 86.496C31.0885 84.256 30.0205 82.0064 28.9645 79.7472C30.0845 81.9568 31.1989 84.1744 32.3077 86.4L35.6029 93.0864L38.8549 99.8064C39.9349 102.046 41.0037 104.298 42.0613 106.56Z" fill="#FF6F00"/>
<path d="M42.0613 79.752C41.0021 82.008 39.9333 84.2576 38.8549 86.5008L35.6029 93.2208L32.3077 99.9072C31.2037 102.131 30.0893 104.348 28.9645 106.558C30.0205 104.302 31.0885 102.052 32.1685 99.8088L35.4205 93.0888L38.7157 86.4C39.8197 84.1792 40.9349 81.9632 42.0613 79.752Z" fill="#FF6F00"/>
<path d="M33.2364 81.4032H37.8492V77.6112H33.2364V81.4032Z" fill="#EBEBEB"/>
<path d="M11.4276 106.627H11.7516V102.07H11.4276V106.627Z" fill="#263238"/>
<path d="M10.6524 106.627H10.9764V102.07H10.6524V106.627Z" fill="#263238"/>
<path d="M9.87967 106.627H10.2037V102.07H9.87967V106.627Z" fill="#263238"/>
<path d="M9.10203 106.627H9.42603V102.07H9.10203V106.627Z" fill="#263238"/>
<path d="M8.32688 106.627H8.65088V102.07H8.32688V106.627Z" fill="#263238"/>
<path d="M7.55167 106.627H7.87567L7.87567 102.07H7.55167L7.55167 106.627Z" fill="#263238"/>
<path d="M6.77646 106.627H7.10046L7.10046 102.07H6.77646L6.77646 106.627Z" fill="#263238"/>
<path d="M6.00126 106.627H6.32526L6.32526 102.07H6.00126L6.00126 106.627Z" fill="#263238"/>
<path d="M5.22605 106.627H5.55005L5.55005 102.07H5.22605L5.22605 106.627Z" fill="#263238"/>
<path d="M14.922 106.279L13.6788 106.625H16.5972L15.354 106.274V104.594C16.2444 104.479 16.5972 103.601 16.5972 102.065H13.6788C13.6788 103.596 14.034 104.479 14.922 104.594V106.279Z" fill="#263238"/>
<path d="M17.2764 104.395H18.0396V106.625H19.9908V104.395H20.7564L19.014 102.07L17.2764 104.395Z" fill="#263238"/>
<path opacity="0.1" d="M3.00125 108.694V106.512L27.9181 102.473V108.694H3.00125Z" fill="black"/>
<path d="M41.0269 57.4584H10.0405V77.6112H41.0269V57.4584Z" fill="#FF6F00"/>
<path opacity="0.2" d="M41.0245 57.4584H31.5565V77.6112H41.0245V57.4584Z" fill="black"/>
<path d="M40.3716 76.8552C39.6708 75.356 38.9764 73.8504 38.2884 72.3384L36.234 67.7976L34.206 63.2376C33.534 61.7128 32.8684 60.1848 32.2092 58.6536C32.91 60.1544 33.6044 61.66 34.2924 63.1704L36.3468 67.7112L38.3748 72.2712C39.0468 73.7944 39.7124 75.3224 40.3716 76.8552Z" fill="#FF6F00"/>
<path d="M40.3717 58.6536C39.7141 60.188 39.0485 61.716 38.3749 63.2376L36.3469 67.7976L34.3021 72.3384C33.6157 73.8504 32.9213 75.356 32.2189 76.8552C32.8765 75.324 33.5421 73.7968 34.2157 72.2736L36.2437 67.7136L38.2981 63.1752C38.9781 61.6616 39.6693 60.1544 40.3717 58.6536Z" fill="#FF6F00"/>
<path d="M34.8733 59.8488H37.7485V57.4584H34.8733V59.8488Z" fill="#EBEBEB"/>
<path d="M15.2916 76.3224H15.4932V73.4808H15.2916V76.3224Z" fill="#263238"/>
<path d="M14.8093 76.3224H15.0109V73.4808H14.8093V76.3224Z" fill="#263238"/>
<path d="M14.3268 76.3224H14.5284V73.4808H14.3268V76.3224Z" fill="#263238"/>
<path d="M13.8444 76.3224H14.046V73.4808H13.8444V76.3224Z" fill="#263238"/>
<path d="M13.3597 76.3224H13.5613V73.4808H13.3597V76.3224Z" fill="#263238"/>
<path d="M12.8749 76.3224H13.0765V73.4808H12.8749V76.3224Z" fill="#263238"/>
<path d="M12.3948 76.3224H12.5964V73.4808H12.3948V76.3224Z" fill="#263238"/>
<path d="M11.91 76.3224H12.1116V73.4808H11.91V76.3224Z" fill="#263238"/>
<path d="M11.4252 76.3224H11.6268V73.4808H11.4252V76.3224Z" fill="#263238"/>
<path d="M17.4709 76.1064L16.6957 76.3224H18.5149L17.7421 76.104V75.06C18.2965 74.9856 18.5173 74.4384 18.5173 73.4832H16.6981C16.6981 74.4432 16.9189 74.9856 17.4733 75.06L17.4709 76.1064Z" fill="#263238"/>
<path d="M18.9396 74.9304H19.4148V76.32H20.6292V74.9304H21.1068L20.022 73.4832L18.9396 74.9304Z" fill="#263238"/>
<path opacity="0.1" d="M10.0405 77.6112V76.2504L31.5565 73.7328V77.6112H10.0405Z" fill="black"/>
<path d="M61.5228 88.5432H30.5364V108.696H61.5228V88.5432Z" fill="#FF6F00"/>
<path opacity="0.2" d="M61.5229 88.5432H52.0549V108.696H61.5229V88.5432Z" fill="black"/>
<path d="M60.8701 107.94C60.1693 106.438 59.4741 104.931 58.7845 103.421L56.7301 98.88L54.7021 94.32C54.0301 92.7984 53.3645 91.2704 52.7053 89.736C53.4093 91.2384 54.1045 92.7448 54.7909 94.2552L56.8453 98.796L58.8733 103.356C59.5453 104.878 60.2109 106.406 60.8701 107.94Z" fill="#FF6F00"/>
<path d="M60.8701 89.736C60.2109 91.2704 59.5453 92.7984 58.8733 94.32L56.8453 98.88L54.7909 103.421C54.1013 104.933 53.4061 106.439 52.7053 107.94C53.3661 106.407 54.0317 104.879 54.7021 103.356L56.7301 98.796L58.7821 94.2552C59.4733 92.7432 60.1693 91.2368 60.8701 89.736Z" fill="#FF6F00"/>
<path d="M55.3692 90.9312H58.2444V88.5408H55.3692V90.9312Z" fill="#EBEBEB"/>
<path d="M35.79 107.405H35.9916V104.563H35.79V107.405Z" fill="#263238"/>
<path d="M35.3077 107.405H35.5093V104.563H35.3077V107.405Z" fill="#263238"/>
<path d="M34.8253 107.405H35.0269V104.563H34.8253V107.405Z" fill="#263238"/>
<path d="M34.3405 107.405H34.5421V104.563H34.3405V107.405Z" fill="#263238"/>
<path d="M33.8556 107.405H34.0573V104.563H33.8556V107.405Z" fill="#263238"/>
<path d="M33.3757 107.405H33.5773V104.563H33.3757V107.405Z" fill="#263238"/>
<path d="M32.8909 107.405H33.0925V104.563H32.8909V107.405Z" fill="#263238"/>
<path d="M32.4061 107.405H32.6077V104.563H32.4061V107.405Z" fill="#263238"/>
<path d="M31.9236 107.405H32.1252V104.563H31.9236V107.405Z" fill="#263238"/>
<path d="M37.9692 107.189L37.194 107.405H39.0132L38.238 107.186V106.142C38.7924 106.07 39.0132 105.523 39.0132 104.566H37.194C37.194 105.526 37.4148 106.07 37.9692 106.142V107.189Z" fill="#263238"/>
<path d="M39.4357 106.013H39.9109V107.405H41.1277V106.013H41.6053L40.5205 104.566L39.4357 106.013Z" fill="#263238"/>
<path opacity="0.1" d="M30.5364 108.694V107.335L52.0524 104.815V108.694H30.5364Z" fill="black"/>
<path d="M65.358 75.1728H33.5197V88.5408H65.358V75.1728Z" fill="#FF6F00"/>
<path opacity="0.2" d="M65.3581 75.1728H53.8093V88.5432H65.3581V75.1728Z" fill="black"/>
<path d="M64.5613 87.6216C63.7069 86.6712 62.8597 85.7176 62.0197 84.7608L59.5141 81.8808L57.0421 79.0008C56.2213 78.0408 55.4093 77.0736 54.6061 76.0992C55.4605 77.0464 56.3077 78 57.1477 78.96L59.6533 81.84L62.1253 84.72C62.9461 85.68 63.7581 86.6472 64.5613 87.6216Z" fill="#FF6F00"/>
<path d="M64.5613 76.0944C63.7613 77.064 62.9493 78.0312 62.1253 78.996L59.6533 81.876L57.1477 84.756C56.3077 85.716 55.4605 86.6696 54.6061 87.6168C55.4061 86.6456 56.2181 85.6776 57.0421 84.7128L59.5141 81.8328L62.0197 78.9528C62.8597 77.9976 63.7069 77.0448 64.5613 76.0944Z" fill="#FF6F00"/>
<path d="M38.8309 86.9712H39.0181V84.3144H38.8309V86.9712Z" fill="#263238"/>
<path d="M38.3773 86.9712H38.5645V84.3144H38.3773V86.9712Z" fill="#263238"/>
<path d="M37.926 86.9712H38.1132V84.3144H37.926V86.9712Z" fill="#263238"/>
<path d="M37.4748 86.9712H37.662V84.3144H37.4748V86.9712Z" fill="#263238"/>
<path d="M37.0212 86.9712H37.2084V84.3144H37.0212V86.9712Z" fill="#263238"/>
<path d="M36.5701 86.9712H36.7573V84.3144H36.5701V86.9712Z" fill="#263238"/>
<path d="M36.1165 86.9712H36.3036V84.3144H36.1165V86.9712Z" fill="#263238"/>
<path d="M35.6653 86.9712H35.8525V84.3144H35.6653V86.9712Z" fill="#263238"/>
<path d="M35.214 86.9712H35.4012V84.3144H35.214V86.9712Z" fill="#263238"/>
<path d="M40.8661 86.7672L40.1461 86.9688H41.8477L41.1277 86.7648V85.788C41.6461 85.7208 41.8477 85.2072 41.8477 84.3144H40.1461C40.1461 85.2048 40.3525 85.7208 40.8661 85.788V86.7672Z" fill="#263238"/>
<path d="M42.2388 85.668H42.6828V86.9688H43.8204V85.668H44.2668L43.2516 84.3144L42.2388 85.668Z" fill="#263238"/>
<path opacity="0.1" d="M33.522 88.5432V86.8824L53.8092 83.8128V88.5408L33.522 88.5432Z" fill="black"/>
<path d="M68.7877 71.8296H57.2389L53.8093 75.1728H65.3605L68.7877 71.8296Z" fill="#FF6F00"/>
<path opacity="0.1" d="M68.7877 71.8296H57.2389L53.8093 75.1728H65.3605L68.7877 71.8296Z" fill="black"/>
<path d="M30.0925 71.8296H41.6413L45.0709 75.1728H33.5197L30.0925 71.8296Z" fill="#FF6F00"/>
<path opacity="0.1" d="M30.0925 71.8296H41.6413L45.0709 75.1728H33.5197L30.0925 71.8296Z" fill="black"/>
<path d="M35.7444 47.424H6.43085V57.5112H35.7444V47.424Z" fill="#FF6F00"/>
<path opacity="0.2" d="M35.7444 47.424H24.1956V57.5112H35.7444V47.424Z" fill="black"/>
<path d="M34.9477 56.5896C34.0933 55.9784 33.2461 55.3632 32.4061 54.744L29.9005 52.8912L27.4261 51.0264C26.6053 50.4056 25.7933 49.7816 24.9901 49.1544C25.8477 49.7688 26.6957 50.384 27.5341 51L30.0373 52.8552L32.5116 54.72C33.342 55.3392 34.1437 55.9656 34.9477 56.5896Z" fill="#FF6F00"/>
<path d="M34.9477 49.1544C34.1477 49.78 33.3356 50.404 32.5116 51.0264L30.0373 52.8912L27.5341 54.744C26.6941 55.3632 25.8461 55.9784 24.9901 56.5896C25.7941 55.9656 26.6053 55.3392 27.4261 54.7176L29.9005 52.8552L32.4061 51C33.2445 50.384 34.0917 49.7688 34.9477 49.1544Z" fill="#FF6F00"/>
<path d="M11.7397 55.9392H11.9269V53.2824H11.7397V55.9392Z" fill="#263238"/>
<path d="M11.2884 55.9392H11.4756V53.2824H11.2884V55.9392Z" fill="#263238"/>
<path d="M10.8348 55.9392H11.022V53.2824H10.8348V55.9392Z" fill="#263238"/>
<path d="M10.3837 55.9392H10.5709V53.2824H10.3837V55.9392Z" fill="#263238"/>
<path d="M9.93243 55.9392H10.1196V53.2824H9.93243V55.9392Z" fill="#263238"/>
<path d="M9.47888 55.9392H9.66608V53.2824H9.47888V55.9392Z" fill="#263238"/>
<path d="M9.02764 55.9392H9.21484V53.2824H9.02764V55.9392Z" fill="#263238"/>
<path d="M8.57647 55.9392H8.76367V53.2824H8.57647V55.9392Z" fill="#263238"/>
<path d="M8.12286 55.9392H8.31006V53.2824H8.12286V55.9392Z" fill="#263238"/>
<path d="M13.7773 55.7376L13.0573 55.9392H14.7589L14.0389 55.7352V54.7584C14.5597 54.6888 14.7589 54.1776 14.7589 53.2824H13.0573C13.0573 54.1752 13.2637 54.6888 13.7773 54.7584V55.7376Z" fill="#263238"/>
<path d="M15.15 54.6384H15.594V55.9392H16.7316V54.6384H17.178L16.1628 53.2824L15.15 54.6384Z" fill="#263238"/>
<path opacity="0.1" d="M6.43085 57.5112V55.8528L24.1956 52.7808V57.5112H6.43085Z" fill="black"/>
<path d="M39.174 44.0808H27.6228L24.1956 47.424H35.7444L39.174 44.0808Z" fill="#FF6F00"/>
<path opacity="0.1" d="M39.174 44.0808H27.6228L24.1956 47.424H35.7444L39.174 44.0808Z" fill="black"/>
<path d="M3.00125 44.0808H14.5525L17.9797 47.424H6.43085L3.00125 44.0808Z" fill="#FF6F00"/>
<path opacity="0.1" d="M3.00125 44.0808H14.5525L17.9797 47.424H6.43085L3.00125 44.0808Z" fill="black"/>
</g>
<path d="M111.347 54.4771C111.406 53.482 111.547 52.4935 111.768 51.5215C111.976 50.6473 112.272 49.7527 112.824 49.0291C113.328 48.3688 114.052 47.8443 114.892 47.7401C115.703 47.6416 116.464 48.0024 117.07 48.5139C117.814 49.1463 118.397 49.9833 118.93 50.7943C119.522 51.7028 120.061 52.6449 120.543 53.6159C120.558 53.6475 120.51 53.6754 120.493 53.6438C120.076 52.8194 119.594 52.0295 119.051 51.2816C118.558 50.5645 118.003 49.8923 117.392 49.2728C116.834 48.7297 116.129 48.2219 115.324 48.1958C114.519 48.1698 113.782 48.6199 113.298 49.2393C112.759 49.9294 112.484 50.7924 112.279 51.6331C112.067 52.5581 111.93 53.4985 111.868 54.4454C111.71 56.391 111.667 58.3514 111.623 60.3007C111.599 61.4056 111.582 62.5098 111.572 63.6134C111.572 64.1714 111.572 64.7294 111.559 65.2874C111.581 65.8277 111.559 66.3688 111.494 66.9056C111.476 67.0153 111.299 67.0042 111.28 66.9056C111.215 66.3969 111.19 65.8837 111.206 65.3711C111.198 64.8416 111.192 64.3109 111.187 63.7789C111.178 62.7485 111.172 61.7162 111.176 60.6857C111.182 58.6193 111.206 56.5417 111.347 54.4771Z" fill="#263238"/>
<path d="M114.128 53.0095C114.232 52.4515 114.418 51.741 114.733 51.3151C115.291 50.5488 115.904 50.8817 115.341 51.7298C114.922 52.3591 114.65 53.0742 114.545 53.8223C114.545 53.8223 115.491 55.1764 116.635 55.8423C116.585 55.3215 116.438 54.5217 116.54 53.7498C116.76 52.0758 117.772 52.1725 117.521 53.5006C117.32 54.5645 117.238 55.6954 117.292 56.1846C117.674 56.4319 118.084 56.6329 118.514 56.7835C118.449 56.5975 118.378 56.3575 118.302 56.0748C117.896 54.5775 118.895 54.1088 118.927 54.9588C118.992 55.6778 119.122 56.3894 119.316 57.0848C119.874 57.2708 120.318 57.3935 120.597 57.4921C121.317 57.7581 121.961 58.1977 122.47 58.7718C122.991 58.3017 123.424 57.7424 123.748 57.1201C123.398 56.8188 122.846 56.3761 122.074 55.8312C120.638 54.8175 121.144 53.5359 122.277 54.332C123.101 54.9067 123.737 55.9725 124.025 56.5193C124.419 55.5642 124.644 54.5477 124.689 53.5154C123.56 52.4571 120.77 50.9803 121.611 50.9803C122.368 50.9803 124.062 52.0963 124.684 52.5185C124.668 52.2292 124.637 51.9411 124.589 51.6554C123.527 50.9579 120.073 49.8754 120.623 49.5629C121.228 49.2207 123.636 50.3367 124.365 50.6901C124.228 50.2167 124.013 49.7696 123.727 49.3677C122.258 47.4016 119.611 46.7246 118.454 47.0984C117.638 47.3644 117.876 49.4383 117.71 49.3677C114.414 48.0452 112.921 48.9808 114.128 53.0095ZM122.18 52.7807C122.412 52.4999 123.491 53.3276 123.179 53.7814C122.866 54.2353 121.879 53.1434 122.18 52.7807ZM116.548 51.0119C116.831 51.1979 116.412 52.2414 115.975 51.9233C115.603 51.6555 116.261 50.8296 116.548 51.0119Z" fill="#FF6F00"/>
<path d="M116.977 51.3337C117.126 51.0398 117.281 50.7496 117.45 50.4669C117.606 50.1881 117.788 49.9247 117.993 49.6801L117.852 49.5072C117.833 49.4848 117.867 49.4514 117.887 49.4755C117.941 49.5369 117.993 49.602 118.047 49.6615C118.058 49.6676 118.066 49.6776 118.069 49.6894C118.274 49.9331 118.464 50.1823 118.646 50.4334C118.969 50.5065 119.288 50.5984 119.6 50.7087C119.922 50.8166 120.242 50.9282 120.554 51.0603C120.588 51.0751 120.571 51.1291 120.539 51.1142C120.229 50.9766 119.914 50.8445 119.593 50.7422C119.271 50.6399 118.979 50.5562 118.663 50.4725C118.763 50.6139 118.862 50.7571 118.957 50.9022C119.537 51.0851 120.101 51.3153 120.644 51.5904C121.213 51.8601 121.76 52.1744 122.308 52.4906C122.313 52.495 122.317 52.501 122.318 52.5077C122.319 52.5143 122.317 52.5211 122.313 52.5267C122.31 52.5323 122.304 52.5365 122.298 52.5384C122.291 52.5403 122.285 52.5398 122.278 52.5371C121.742 52.224 121.189 51.9384 120.623 51.6815C120.095 51.4341 119.548 51.2314 119.016 50.9952C120.357 53.0877 121.161 55.5038 122.236 57.7395C122.252 57.7711 122.2 57.799 122.187 57.7656C121.86 56.9825 121.481 56.218 121.123 55.4461C120.802 54.7542 120.489 54.0586 120.167 53.3648C120.074 53.1621 119.981 52.9612 119.879 52.7584C119.937 53.8744 119.914 55.0146 120.097 56.1195C120.098 56.1236 120.098 56.1279 120.097 56.1321C120.096 56.1363 120.094 56.1402 120.092 56.1436C120.089 56.147 120.086 56.1497 120.082 56.1516C120.078 56.1535 120.074 56.1545 120.07 56.1545C120.065 56.1545 120.061 56.1535 120.057 56.1516C120.054 56.1497 120.05 56.147 120.048 56.1436C120.045 56.1402 120.043 56.1363 120.042 56.1321C120.042 56.1279 120.042 56.1236 120.043 56.1195C119.965 54.9253 119.754 53.748 119.762 52.5464C119.762 52.5464 119.762 52.5464 119.762 52.5315C119.535 52.0758 119.291 51.6238 119.029 51.1867C118.585 52.2321 118.118 53.2941 117.913 54.4176C117.913 54.451 117.85 54.4362 117.859 54.4008C118.162 53.2755 118.441 52.1484 118.984 51.1068C118.7 50.6325 118.384 50.1777 118.04 49.7452C117.891 50.0242 117.699 50.2865 117.53 50.5525C117.361 50.8185 117.203 51.0733 117.048 51.3411C116.719 51.9071 116.438 52.5001 116.209 53.1137C116.198 53.1472 116.142 53.1304 116.157 53.097C116.425 52.5111 116.685 51.9121 116.977 51.3337Z" fill="#263238"/>
<path d="M106.405 53.8874C107.266 53.0244 108.265 51.8917 109.597 51.8935C110.88 51.8935 111.829 52.9295 112.368 53.9953C112.936 55.1113 113.14 56.3743 113.298 57.6019C113.486 59.0733 113.6 60.5533 113.639 62.0361C113.661 62.8601 113.659 63.6841 113.639 64.5062C113.641 65.3405 113.579 66.1738 113.453 66.9986C113.448 67.0275 113.433 67.0537 113.41 67.0725C113.388 67.0914 113.359 67.1018 113.33 67.1018C113.301 67.1018 113.272 67.0914 113.25 67.0725C113.227 67.0537 113.212 67.0275 113.207 66.9986C113.17 66.3067 113.207 65.6092 113.207 64.9154C113.207 64.2216 113.207 63.5501 113.174 62.8694C113.124 61.4893 113.023 60.1091 112.861 58.7365C112.72 57.5386 112.606 56.3054 112.248 55.1467C111.924 54.1032 111.317 52.9147 110.259 52.4478C108.814 51.8228 107.402 52.9667 106.455 53.9358C106.424 53.9395 106.381 53.9042 106.405 53.8874Z" fill="#263238"/>
<path d="M102.014 55.807C102.014 55.9837 102.031 56.1585 102.044 56.3278C102.458 56.0201 102.943 55.8195 103.453 55.7437C104.675 55.6154 104.597 56.5435 103.781 56.5826C103.207 56.5905 102.64 56.704 102.107 56.9174C102.306 58.5319 102.75 59.8283 102.817 59.845C103.901 59.7843 104.979 59.6482 106.044 59.4377C105.741 58.7904 105.049 57.9292 105.401 57.8604C105.752 57.7916 106.145 58.5561 106.331 59.3782C107.129 59.225 107.914 59.0091 108.678 58.7328C108.141 58.2678 107.311 57.6874 107.627 57.4419C107.943 57.1964 108.604 58.0092 109 58.6026C109.359 58.4589 109.7 58.2715 110.014 58.0446C109.29 56.9806 107.525 56.7649 107.756 55.9986C107.986 55.2322 109.636 56.2962 110.378 57.7209C111.249 56.817 111.494 55.541 111.412 54.4492C110.653 54.3599 109.195 54.5199 109.301 53.9749C109.407 53.4299 110.46 53.5359 111.323 53.8521C111.243 53.4203 111.071 53.011 110.817 52.6524C110.017 51.6276 107.579 52.9314 107.579 52.9314C107.579 52.9314 107.839 50.4799 106.909 50.0577C106.374 49.8141 105.421 49.8159 104.478 50.3739C105.012 50.4186 105.656 50.5878 105.912 50.9561C106.243 51.4267 105.726 51.6834 105.39 51.4657C105.157 51.3114 104.72 50.8278 103.933 50.7627C103.597 51.0464 103.302 51.3743 103.054 51.7373C102.961 51.8676 102.875 52.003 102.797 52.1428C103.247 51.9407 103.736 51.8406 104.229 51.8496C104.723 51.8586 105.208 51.9765 105.65 52.1949C106.708 52.7194 106.117 53.8168 105.207 53.3908C104.298 52.9649 103.431 52.5445 102.468 52.7863C102.128 53.6566 101.971 54.5871 102.005 55.5205C102.476 55.1784 103.007 54.9262 103.571 54.7765C104.622 54.4994 104.94 55.1281 103.785 55.2453C103.162 55.3111 102.56 55.5022 102.014 55.807ZM103.293 54.12C103.221 53.7796 103.967 53.681 104.09 53.9581C104.194 54.1944 103.364 54.4603 103.293 54.12ZM109.67 56.006C109.74 55.82 110.239 56.032 110.194 56.2627C110.133 56.5714 109.603 56.192 109.67 56.006ZM106.15 57.2001C106.522 57.055 107.08 57.959 106.684 58.1655C106.288 58.3719 105.853 57.3192 106.15 57.2001Z" fill="#FF6F00"/>
<path d="M102.957 59.6535C103.506 58.7383 104.047 57.8176 104.622 56.9174C104.889 56.4989 105.18 56.0878 105.46 55.6861L105.33 55.6545L105.113 55.6135C104.945 55.5838 104.774 55.5596 104.605 55.5429C104.436 55.5261 104.285 55.5168 104.123 55.515C103.951 55.5056 103.779 55.515 103.61 55.5429C103.589 55.5429 103.586 55.515 103.61 55.515C103.781 55.515 103.956 55.5001 104.127 55.4982C104.298 55.4964 104.46 55.4982 104.627 55.5094C104.795 55.5205 104.938 55.5336 105.092 55.5577C105.178 55.5708 105.263 55.5856 105.347 55.6024C105.399 55.6107 105.451 55.6218 105.501 55.6359C105.799 55.2267 106.109 54.8268 106.431 54.4362C105.483 53.9744 104.473 53.6518 103.433 53.4783C103.416 53.4783 103.422 53.4485 103.433 53.4522C104.489 53.6009 105.515 53.9147 106.474 54.3822C106.649 54.1665 106.825 53.9526 107.002 53.7405C107.201 53.5024 107.413 53.2681 107.592 53.0151C107.605 52.9984 107.629 53.0151 107.614 53.0319C107.367 53.2978 107.142 53.5899 106.919 53.8837C107.311 54.1569 107.683 54.4564 108.035 54.7803C108.407 55.102 108.754 55.4368 109.099 55.7791C109.112 55.7921 109.099 55.8126 109.08 55.7995C108.738 55.4592 108.384 55.1355 108.014 54.8286C107.644 54.5217 107.255 54.239 106.881 53.934C106.796 54.0456 106.712 54.159 106.627 54.2688L106.498 54.438V54.4492L106.072 55.0072C106.238 55.2475 106.379 55.5035 106.495 55.7716C106.617 56.0302 106.725 56.298 106.824 56.5659C107.019 57.1251 107.171 57.6984 107.279 58.2808C107.279 58.2994 107.257 58.3068 107.253 58.2901C107.137 57.7154 106.97 57.1522 106.755 56.6068C106.649 56.3278 106.528 56.0488 106.402 55.7828C106.275 55.5168 106.15 55.2955 106.044 55.0388L105.672 55.5298C105.639 55.5782 105.605 55.6284 105.57 55.6768C105.572 55.6789 105.573 55.6815 105.573 55.6843C105.574 55.687 105.573 55.6898 105.572 55.6923C105.571 55.6948 105.569 55.697 105.567 55.6985C105.564 55.7 105.562 55.7009 105.559 55.701C105.187 56.2273 104.824 56.7649 104.475 57.308C104.496 57.3451 104.513 57.3852 104.523 57.427C104.545 57.494 104.566 57.561 104.586 57.6279C104.625 57.7618 104.657 57.8978 104.681 58.0353C104.705 58.1636 104.724 58.2938 104.737 58.424C104.738 58.5727 104.749 58.7212 104.768 58.8685C104.768 58.8909 104.739 58.8909 104.742 58.8685C104.751 58.7301 104.741 58.5911 104.711 58.4556C104.692 58.3136 104.666 58.1727 104.633 58.0334C104.603 57.9088 104.569 57.7823 104.532 57.6614C104.514 57.5982 104.493 57.5368 104.473 57.4754C104.462 57.4438 104.445 57.4084 104.434 57.375C104.27 57.6298 104.11 57.8865 103.95 58.145C103.636 58.6584 103.323 59.1717 103.007 59.6832C102.983 59.7093 102.942 59.6869 102.957 59.6535Z" fill="#263238"/>
<path d="M111.405 66.6936C111.42 66.1746 111.502 65.652 111.557 65.1367C111.613 64.6215 111.673 64.0988 111.729 63.5799C111.835 62.5811 111.894 61.56 112.129 60.5797C112.303 59.7265 112.729 58.9448 113.351 58.3347C113.672 58.0136 114.094 57.8121 114.547 57.7637C115.002 57.7497 115.45 57.8878 115.819 58.1562C116.239 58.4654 116.601 58.8463 116.888 59.2815C117.198 59.7123 117.476 60.1649 117.722 60.6355C117.722 60.6541 117.703 60.6653 117.694 60.6486C117.231 59.8627 116.618 59.1757 115.889 58.6267C115.565 58.3611 115.17 58.1962 114.753 58.1524C114.549 58.1496 114.347 58.1872 114.157 58.2628C113.968 58.3385 113.796 58.4507 113.65 58.5932C113.045 59.1196 112.694 59.8952 112.486 60.6523C112.238 61.5544 112.158 62.5011 112.036 63.4255C111.961 63.9835 111.892 64.5248 111.82 65.0735C111.747 65.6222 111.701 66.1802 111.585 66.7177C111.581 66.7407 111.568 66.7611 111.549 66.7748C111.53 66.7885 111.507 66.7944 111.484 66.7913C111.461 66.7882 111.439 66.7763 111.425 66.7581C111.41 66.7399 111.403 66.7168 111.405 66.6936Z" fill="#263238"/>
<path d="M113.959 62.6629C114.116 62.8806 114.304 63.0747 114.517 63.2395C114.431 62.7336 114.331 61.8334 114.584 61.3535C114.982 60.6095 115.45 60.9815 115.214 61.6288C114.981 62.2129 114.855 62.8341 114.842 63.4627C115.382 63.8022 115.961 64.0751 116.566 64.2755C116.501 63.9846 116.482 63.6853 116.509 63.3883C116.589 62.5922 117.197 62.6071 117.039 63.4348C116.98 63.7557 116.952 64.0814 116.955 64.4076C117.834 64.678 118.733 64.8801 119.643 65.0121C120.109 64.41 120.485 63.7433 120.759 63.0331C120.112 62.8712 118.8 62.834 118.828 62.3709C118.865 61.7478 120.13 62.2277 120.874 62.6797C121.044 62.1386 121.12 61.5724 121.099 61.0057C120.516 60.8434 119.918 60.7442 119.314 60.7099C117.98 60.5946 118.045 59.8394 119.012 59.8562C119.725 59.8692 120.625 60.3063 121.058 60.5332C120.781 58.7197 119.397 57.5572 118.289 57.5126C116.429 57.4382 117.095 59.7595 117.095 59.7595C117.095 59.7595 115.832 58.8685 114.639 58.8927C113.447 58.9169 112.685 60.8885 113.959 62.6629ZM118.938 59.3149C118.897 59.0527 119.728 58.9913 119.773 59.3261C119.821 59.6962 118.981 59.5753 118.938 59.3093V59.3149ZM120.277 62.0361C120.26 61.865 120.619 61.8352 120.701 62.051C120.755 62.1849 120.292 62.1998 120.277 62.0305V62.0361ZM115.8 62.1961C116.081 62.2351 116.241 63.2395 115.757 63.2209C115.387 63.1986 115.562 62.1551 115.8 62.1905V62.1961Z" fill="#FF6F00"/>
<path d="M116.189 63.3065C116.235 63.18 116.276 63.0535 116.315 62.9252C116.28 63.0554 116.247 63.1856 116.224 63.3158C116.219 63.34 116.18 63.3307 116.189 63.3065Z" fill="#263238"/>
<path d="M116.682 61.6994C116.769 61.4428 116.868 61.188 116.966 60.935C117.02 60.7998 117.075 60.6659 117.134 60.5332C117.177 60.4152 117.233 60.3023 117.301 60.1966C117.242 60.0923 117.192 59.9834 117.151 59.8711C117.149 59.8689 117.149 59.8662 117.15 59.8638C117.15 59.8613 117.152 59.8593 117.154 59.858C117.156 59.8568 117.159 59.8565 117.162 59.8572C117.164 59.8579 117.166 59.8595 117.167 59.8618C117.304 60.0372 117.425 60.2239 117.53 60.4198C117.582 60.5072 117.63 60.5965 117.682 60.6857C117.788 60.6954 117.892 60.7115 117.995 60.7341C118.108 60.7546 118.218 60.7769 118.33 60.8029L118.663 60.8792C118.772 60.9052 118.882 60.9424 118.992 60.9592C118.995 60.9582 118.998 60.958 119.001 60.9585C119.003 60.9589 119.006 60.96 119.009 60.9618C119.011 60.9635 119.013 60.9658 119.014 60.9684C119.016 60.971 119.016 60.9739 119.016 60.9768C119.016 60.9798 119.016 60.9827 119.014 60.9853C119.013 60.9879 119.011 60.9902 119.009 60.9919C119.006 60.9936 119.003 60.9948 119.001 60.9952C118.998 60.9957 118.995 60.9954 118.992 60.9945C118.879 60.954 118.762 60.9235 118.644 60.9034C118.536 60.8792 118.43 60.8606 118.32 60.8457C118.211 60.8308 118.105 60.8159 117.995 60.8048L117.749 60.7862C117.792 60.8643 117.839 60.9406 117.883 61.0205C117.883 61.0317 117.896 61.0447 117.902 61.0577C117.992 61.0562 118.082 61.0668 118.17 61.0894C118.267 61.1061 118.356 61.1247 118.458 61.1452C118.644 61.1898 118.847 61.2344 119.038 61.2884C119.442 61.4018 119.84 61.5302 120.238 61.6604C120.26 61.6604 120.247 61.7013 120.225 61.6939C119.83 61.5604 119.427 61.4487 119.02 61.3591C118.834 61.3163 118.648 61.2716 118.447 61.2326L118.159 61.1712C118.083 61.1597 118.009 61.1436 117.935 61.1228C118.142 61.4948 118.335 61.8873 118.512 62.2798C118.899 63.1354 119.224 64.017 119.555 64.8949C119.565 64.9154 119.529 64.9303 119.522 64.9079C119.2 64.0351 118.827 63.1817 118.406 62.3523C118.332 62.1998 118.255 62.0491 118.179 61.8985C118.179 61.9282 118.166 61.9598 118.16 61.9915C118.14 62.0938 118.123 62.1979 118.105 62.3021C118.069 62.5104 118.034 62.7187 118.004 62.927C117.915 63.3556 117.864 63.7914 117.854 64.229C117.854 64.2551 117.813 64.2532 117.818 64.229C117.85 64.0226 117.85 63.8068 117.863 63.5985C117.876 63.3902 117.893 63.1633 117.919 62.9457C117.945 62.728 117.969 62.5271 118.004 62.3188C118.02 62.2147 118.039 62.1105 118.06 62.0063C118.065 61.9284 118.084 61.852 118.118 61.7813C118.008 61.5618 117.9 61.3423 117.79 61.1247C117.681 60.9071 117.582 60.7155 117.474 60.5109C117.43 60.4253 117.381 60.3379 117.333 60.2505C117.299 60.358 117.258 60.4631 117.21 60.5648L117.065 60.9182C116.959 61.1786 116.858 61.4409 116.76 61.7032C116.619 62.0752 116.462 62.4583 116.347 62.8471C116.457 62.4546 116.553 62.0714 116.682 61.6994Z" fill="#263238"/>
<path d="M109.152 65.6408L109.258 68.4159L109.526 75.5713H115.396L115.666 68.4159L115.77 65.6408H109.152Z" fill="#455A64"/>
<path d="M109.152 65.6408L109.223 67.4971L115.687 67.8691L115.77 65.6408H109.152Z" fill="#37474F"/>
<path d="M108.736 66.7624H116.187V64.5173H108.736V66.7624Z" fill="#455A64"/>
<path d="M114.922 75.5713H113.892V76.7468H114.922V75.5713Z" fill="#455A64"/>
<path d="M114.922 75.5713H113.892V76.1591H114.922V75.5713Z" fill="#37474F"/>
<path d="M111.031 75.5713H110.001V76.7468H111.031V75.5713Z" fill="#455A64"/>
<path d="M111.031 75.5713H110.001V76.1591H111.031V75.5713Z" fill="#37474F"/>
<defs>
<clipPath id="clip0_1_3489">
<rect width="120" height="120" fill="white"/>
</clipPath>
</defs>
</svg>
