<svg width="94" height="93" fill="none" xmlns="http://www.w3.org/2000/svg"><g clip-path="url(#a)"><path d="m46.022 43.998 3.161.831a1.122 1.122 0 0 1 .837 1.085v9.224h-5.843V45.4s.223-1.305 1.845-1.4z" fill="#455A64"/><path d="M48.257 44.873h-.03l-.086.005a2.396 2.396 0 0 0-.322.049c-.167.037-.33.095-.483.172-.203.1-.38.245-.517.425a1.178 1.178 0 0 0-.24.767l-.001.949v2.182c0 1.548-.005 2.95-.007 3.97 0 .505-.005.914-.007 1.202V55.036a.13.13 0 0 1 0-.03v-.086c0-.077 0-.187-.004-.326 0-.288 0-.697-.007-1.203 0-1.017-.004-2.416-.006-3.969V46.29c0-.073.005-.148.015-.221a.736.736 0 0 1 .021-.106.827.827 0 0 1 .028-.103c.023-.065.052-.129.086-.189.03-.058.066-.113.106-.166a1.5 1.5 0 0 1 .535-.43 2.024 2.024 0 0 1 .815-.209h.087a.171.171 0 0 1 .017.007z" fill="#263238"/><path d="m12.158 55.116.59 1.288h2.781l.516-1.288h-3.887z" fill="#455A64"/><path opacity=".3" d="m12.158 55.116.218.473h3.48l.19-.473h-3.888z" fill="#000"/><path d="m44.615 55.116.59 1.288h2.78l.517-1.288h-3.887z" fill="#455A64"/><path opacity=".3" d="m44.615 55.116.217.473h3.48l.19-.473h-3.887z" fill="#000"/><path d="m15.53 43.976-3.162.83a1.121 1.121 0 0 0-.836 1.084v9.226h5.843v-9.74s-.222-1.305-1.846-1.4z" fill="#455A64"/><path d="M15.53 41.839v2.137s1.655.509 1.845 1.782v1.97l13.776.047v-5.72a.492.492 0 0 0-.46-.491c-2.19-.138-11.55-.69-14.636-.317a.597.597 0 0 0-.526.592z" fill="#455A64"/><path d="M31.151 42.217v5.561l13.273.05s-.346-2.524 1.598-3.83l.081-3.078s-6.81.604-8.11.733c-1.04.101-4.815 0-6.268-.042a.584.584 0 0 0-.574.606z" fill="#455A64"/><path d="M45.48 47.827c.136.187 1.036.792 1.036.792H14.957l2.416-.888 28.107.096zM46.512 51.508H15.53v3.607h30.983v-3.607z" fill="#455A64"/><path d="M46.512 48.62H14.993v2.889h31.52v-2.89z" fill="#455A64"/><path d="m46.512 51.509-.008-2.89.008.009-31.517.014.023-.023v2.89l-.023-.023 22.38.01 9.14.013-9.124.016-22.398.01h-.022V48.6h.024l31.517.013h.013v.01l-.013 2.885z" fill="#263238"/><path d="m46.512 48.62-.033-.015-.1-.041-.39-.173-1.503-.654-13.74.012-13.373-.01h.004l-1.787.65-.472.172-.122.043-.042.013.041-.016.12-.047.47-.172 1.784-.661 13.372-.01 13.74.01h.006l1.497.664.389.173.098.045.041.016z" fill="#263238"/><path d="M31.151 47.778a.2.2 0 0 1 .013.06l.023.172c.018.148.049.353.067.614 0 .315 0 .69.005 1.102 0 .828-.006 1.536-.015 1.812h-.015c-.001-.045.002-.09.007-.136.007.045.01.09.008.136h-.015a78.802 78.802 0 0 1-.015-1.812c0-.408 0-.787.004-1.102-.015-.248-.04-.463-.052-.608l-.013-.172a.294.294 0 0 1-.002-.066zM17.375 47.729a.21.21 0 0 1 0-.05v-.67c0-.217 0-.486-.004-.776 0-.147-.006-.3-.016-.46-.01-.16-.02-.324-.045-.49a1.605 1.605 0 0 0-.399-.839 1.472 1.472 0 0 0-.67-.361 3.004 3.004 0 0 0-.518-.086c-.123-.012-.192-.014-.192-.018a.21.21 0 0 1 .05 0h.143c.176.008.352.034.523.076.258.057.497.182.69.363.221.24.365.54.413.862.027.173.036.335.045.495.01.16.012.315.014.461 0 .295 0 .56-.005.782-.005.222-.01.402-.015.525 0 .059-.005.107-.008.144a.194.194 0 0 1-.006.042zM13.296 44.85a.104.104 0 0 1 .028 0h.086a2.022 2.022 0 0 1 .815.208c.21.101.393.249.535.432.04.052.076.108.107.166.034.06.063.124.086.19a.661.661 0 0 1 .027.102c.01.035.018.07.022.106.01.074.016.148.015.222v3.133c0 1.547-.005 2.949-.006 3.968 0 .506-.006.916-.007 1.202 0 .14 0 .25-.005.327v.086a.123.123 0 0 1 0 .029.123.123 0 0 1 0-.029v-.086c0-.078 0-.187-.004-.327 0-.286 0-.696-.007-1.202 0-1.017-.004-2.415-.007-3.968v-3.133c0-.072-.004-.145-.013-.217a.719.719 0 0 0-.02-.103 1.135 1.135 0 0 0-.104-.284 1.037 1.037 0 0 0-.103-.162 1.494 1.494 0 0 0-.517-.425 2.118 2.118 0 0 0-.805-.22l-.086-.006a.147.147 0 0 1-.037-.008z" fill="#263238"/><path d="M11.572 55.1c2.893 0 32.048.016 34.942.016z" fill="#455A64"/><path d="M46.512 55.116c0 .012-7.821.018-17.469.014-9.647-.005-17.47-.019-17.47-.03 0-.013 7.82-.02 17.47-.015 9.65.004 17.47.018 17.47.03zM18.63 49.8a.493.493 0 0 1-.03-.167 2.064 2.064 0 0 1 .095-.806.537.537 0 0 1 .069-.154c.012.005-.078.246-.114.558-.037.312-.006.568-.02.568zM19.124 50.295a.977.977 0 0 1-.064-.232 4.324 4.324 0 0 1-.077-1.15c.002-.08.012-.16.032-.237.006.08.006.159 0 .238 0 .148 0 .35.01.574.012.224.042.425.065.57.017.078.028.157.034.237zM31.136 47.84c-.013 0-.023-1.305-.023-2.914 0-1.61.01-2.914.023-2.914.012 0 .022 1.305.022 2.914 0 1.609-.01 2.913-.023 2.913zM17.845 43.098a1.58 1.58 0 0 1-.173.166 5.677 5.677 0 0 0-.752.861c-.043.068-.09.132-.142.193.03-.075.069-.145.115-.21a3.836 3.836 0 0 1 .756-.867c.06-.055.125-.103.196-.143zM17.521 44.24a.9.9 0 0 1-.267.097.908.908 0 0 1-.28.055.907.907 0 0 1 .268-.098.967.967 0 0 1 .28-.054zM26.82 44.44a.114.114 0 0 1 .066-.015.284.284 0 0 1 .263.16c.02.043.028.09.024.138a.285.285 0 0 1-.518.148.269.269 0 0 1-.03-.27.28.28 0 0 1 .12-.137.123.123 0 0 1 .064-.02s-.022.01-.055.035a.283.283 0 0 0-.114.255c.006.04.023.078.048.11a.246.246 0 0 0 .444-.125.237.237 0 0 0-.093-.215.285.285 0 0 0-.156-.062c-.038-.003-.061.002-.062-.001z" fill="#263238"/><path d="M27.784 44.298c-.133.01-.263.045-.382.105-.112.072-.21.165-.287.274a.236.236 0 0 1 .048-.112.634.634 0 0 1 .5-.283c.04-.006.083 0 .12.016zM27.346 45.268c-.013 0-.045-.097-.118-.2-.073-.104-.155-.173-.148-.181a.345.345 0 0 1 .185.154.352.352 0 0 1 .081.227zM26.67 44.657c-.008 0-.02-.04-.058-.1a.576.576 0 0 0-.443-.265c-.07 0-.113.005-.115 0a.203.203 0 0 1 .115-.028.517.517 0 0 1 .47.282c.021.033.032.072.03.11zM21.133 44.44a.114.114 0 0 1 .064-.015.28.28 0 0 1 .173.053.266.266 0 0 1 .116.245.285.285 0 0 1-.518.148.269.269 0 0 1-.031-.27.276.276 0 0 1 .12-.137.12.12 0 0 1 .064-.02s-.021.01-.054.035a.29.29 0 0 0-.1.135.238.238 0 0 0 .034.23.245.245 0 0 0 .443-.125.234.234 0 0 0-.093-.215.282.282 0 0 0-.155-.062c-.036-.003-.062.002-.063-.001z" fill="#263238"/><path d="M22.096 44.298a.808.808 0 0 0-.67.38c-.004 0 .008-.049.05-.113a.634.634 0 0 1 .499-.283c.04-.006.082 0 .12.016zM21.657 45.268c-.013 0-.044-.097-.117-.2-.073-.104-.155-.173-.148-.181a.345.345 0 0 1 .185.154.345.345 0 0 1 .08.227zM20.98 44.657c-.006 0-.02-.04-.056-.1a.577.577 0 0 0-.444-.265c-.07 0-.113.005-.114 0a.204.204 0 0 1 .114-.028.517.517 0 0 1 .471.282c.037.063.037.11.03.11zM40.761 44.48a.123.123 0 0 1 .066-.017.282.282 0 0 1 .172.054.267.267 0 0 1 .116.245.285.285 0 0 1-.518.147.266.266 0 0 1-.03-.269.276.276 0 0 1 .12-.137.125.125 0 0 1 .063-.02s-.02.01-.054.035a.29.29 0 0 0-.1.134.235.235 0 0 0 .034.231.245.245 0 0 0 .444-.126.234.234 0 0 0-.094-.214.282.282 0 0 0-.156-.063c-.039-.002-.062.004-.063 0z" fill="#263238"/><path d="M41.725 44.337a.814.814 0 0 0-.669.38c-.005 0 .007-.05.049-.113a.63.63 0 0 1 .5-.283c.04-.005.082 0 .12.016zM41.287 45.307c-.013 0-.044-.097-.118-.201-.073-.104-.156-.172-.148-.18a.459.459 0 0 1 .266.381zM40.61 44.695c-.007 0-.02-.04-.057-.098a.576.576 0 0 0-.444-.266c-.069-.004-.112 0-.114 0a.2.2 0 0 1 .115-.027.519.519 0 0 1 .47.281c.033.064.035.11.03.11zM35.073 44.48a.118.118 0 0 1 .065-.017.284.284 0 0 1 .263.16c.02.044.029.091.024.139a.285.285 0 0 1-.517.147.267.267 0 0 1-.03-.269.276.276 0 0 1 .12-.137.122.122 0 0 1 .063-.02s-.022.01-.054.035a.284.284 0 0 0-.114.254c.005.04.022.08.047.111a.246.246 0 0 0 .445-.126.237.237 0 0 0-.094-.214.285.285 0 0 0-.156-.063c-.038-.002-.061.004-.062 0z" fill="#263238"/><path d="M36.037 44.337c-.133.01-.263.045-.382.106-.113.071-.21.164-.288.273a.24.24 0 0 1 .049-.112.639.639 0 0 1 .497-.283.243.243 0 0 1 .124.016zM35.599 45.307c-.013 0-.045-.097-.119-.201-.073-.104-.155-.172-.147-.18a.345.345 0 0 1 .184.154.35.35 0 0 1 .081.227zM34.922 44.695c-.008 0-.02-.04-.058-.098a.565.565 0 0 0-.443-.266c-.07-.004-.113 0-.115 0a.204.204 0 0 1 .115-.027.518.518 0 0 1 .472.28c.02.034.03.073.03.111zM46.072 43.903s-.01.013-.03.032l-.095.087a2.153 2.153 0 0 0-.146.138c-.055.057-.121.115-.185.191l-.104.115c-.035.04-.068.086-.104.131-.075.086-.144.192-.22.299-.314.47-.54.995-.666 1.547-.026.128-.053.249-.067.364-.008.057-.018.113-.023.166l-.013.154c-.01.099-.01.188-.012.266a1.984 1.984 0 0 0 0 .201v.128a.259.259 0 0 1 0 .045.148.148 0 0 1-.007-.045c0-.034-.007-.076-.01-.127a1.723 1.723 0 0 1-.009-.202c0-.078 0-.172.005-.268l.01-.155c0-.055.014-.11.02-.168.013-.116.04-.239.065-.368a4.492 4.492 0 0 1 .673-1.562c.076-.107.147-.21.224-.298l.108-.13.106-.115c.065-.075.133-.133.19-.188.049-.047.1-.091.153-.132l.1-.08a.208.208 0 0 1 .037-.026zM45.496 42.268c-.008 0 .012-.087 0-.221a.781.781 0 0 0-.68-.696c-.135-.019-.22 0-.222-.01a.154.154 0 0 1 .06-.016.77.77 0 0 1 .864.884.152.152 0 0 1-.022.059zM45.602 43.215a1.157 1.157 0 0 1-.022-.323c-.008-.108 0-.217.022-.322.022.106.03.214.023.322.007.108 0 .217-.023.323zM38.388 44.623a2.412 2.412 0 0 1-.107-.259 5.603 5.603 0 0 0-.288-.604 5.746 5.746 0 0 0-.36-.56 2.306 2.306 0 0 1-.16-.224s.021.016.054.05a4.147 4.147 0 0 1 .784 1.32c.029.083.05.15.061.196.01.026.015.053.016.08zM38.292 43.307a1.934 1.934 0 0 1-.056-.413 1.968 1.968 0 0 1-.01-.417c.032.136.051.274.055.414.018.138.022.277.011.416z" fill="#263238"/><path d="M44.186 51.572c-9.275.513-18.571.489-27.843-.072l27.843.072zM31.74 48.02a.5.5 0 0 0-.204-.1c-.425-.126-.898-.122-1.268-.363-.283-.184-.466-.484-.633-.776a24.228 24.228 0 0 1-1.35-2.78l-.418.79a23.922 23.922 0 0 0-.667 2.515c-.036.173-.068.355.008.512.093.191.314.278.518.34a8.168 8.168 0 0 0 3.83.21c.097-.019.208-.05.244-.14a.2.2 0 0 0-.06-.208z" fill="#000" opacity=".3"/><path d="M33.192 48.306c-1.852.246-3.598.153-5.195-.413-.351-1.92-.152-3.49.412-5.196 1.594-.078 3.339.079 5.197.413.18 1.743.04 3.504-.414 5.196z" fill="#FF6F00"/><path d="M32.797 44.74a.757.757 0 0 1-.09.105c-.03.034-.068.075-.114.119-.045.044-.096.097-.157.15a5.186 5.186 0 0 1-1.024.729 5.025 5.025 0 0 1-1.167.465 5.569 5.569 0 0 1-.372.086.774.774 0 0 1-.138.018.871.871 0 0 1 .135-.035 6.137 6.137 0 0 0 .898-.28c.428-.17.834-.391 1.208-.659.172-.123.322-.242.441-.345.063-.052.114-.102.161-.145l.12-.112a.78.78 0 0 1 .1-.097zM32.103 46.228a9.928 9.928 0 0 1-1.333.099c.22-.039.442-.063.665-.072.222-.024.445-.033.668-.027z" fill="#263238"/><path d="M31.02 42.825c.007.011-.677.379-1.526.82-.848.442-1.54.79-1.546.777-.006-.014.677-.378 1.526-.82.849-.443 1.54-.79 1.547-.777zM33.638 43.486a.303.303 0 0 1-.058.03l-.173.08-.628.288a108.878 108.878 0 0 0-4.1 1.986l-.617.313-.167.086c-.02.01-.04.02-.06.026a.474.474 0 0 1 .056-.035l.164-.091a67.72 67.72 0 0 1 5.348-2.587l.172-.072a.623.623 0 0 1 .063-.024zM33.42 46.047a.51.51 0 0 1-.05.028l-.148.07a26.273 26.273 0 0 1-4.335 1.536c-.25.064-.45.112-.59.143l-.161.034a.245.245 0 0 1-.057.01.284.284 0 0 1 .055-.018l.159-.043.585-.156a32.59 32.59 0 0 0 1.909-.585 32.607 32.607 0 0 0 1.869-.703l.559-.234.152-.063a.237.237 0 0 1 .054-.019zM33.377 47.714a1.04 1.04 0 0 1-.182.13 4.197 4.197 0 0 1-.981.439.96.96 0 0 1-.217.05c.066-.033.136-.06.207-.08a6.808 6.808 0 0 0 .974-.437c.064-.04.13-.074.199-.102z" fill="#fff"/><path d="M27.989 47.919c0-.018.004-.036.009-.053l.032-.148a18.401 18.401 0 0 0 .386-2.354 17.938 17.938 0 0 0 .061-2.383v-.15a.308.308 0 0 1 0-.053.212.212 0 0 1 .008.052l.013.15a15.088 15.088 0 0 1-.45 4.74l-.04.145a.216.216 0 0 1-.019.054z" fill="#263238"/><path d="M32.635 44.917c-.84.88-1.782 1.202-2.719 1.435a2.343 2.343 0 0 0 2.688-1.328M28.45 43.02c-.224.758-.254 1.535-.368 2.318-.114.783-.205 1.62-.048 2.374.384-1.485.612-3.17.417-4.692z" fill="#000" opacity=".3"/><path d="M51.212 34.318v20.797c0 .222.081.435.225.593.145.157.34.245.544.245h39.977c.204 0 .4-.088.543-.245a.878.878 0 0 0 .225-.593l-.084-7.62a.888.888 0 0 0-.154-.477l-5.735-8.383a.787.787 0 0 0-.262-.236.718.718 0 0 0-.33-.09l-7.342-.06v-3.93a.878.878 0 0 0-.225-.594.738.738 0 0 0-.544-.245H51.958a.74.74 0 0 0-.529.254.88.88 0 0 0-.217.584z" fill="#FF6F00"/><path d="M80.649 40.052v6.706c0 .124.045.244.126.332.08.088.19.137.304.137l8.826-.176a.397.397 0 0 0 .217-.068.447.447 0 0 0 .154-.18.496.496 0 0 0-.025-.473l-4.128-6.647a.445.445 0 0 0-.158-.15.402.402 0 0 0-.204-.051l-4.705.142a.398.398 0 0 0-.28.127.471.471 0 0 0-.127.3z" fill="#E0E0E0"/><path d="M92.865 55.626H51.043c-.348 0-.63.308-.63.688v.075c0 .38.282.688.63.688h41.822c.348 0 .63-.308.63-.688v-.075c0-.38-.282-.688-.63-.688z" fill="#FF6F00"/><path d="M83.632 48.501c0 .118-.615.218-1.361.218s-1.368-.1-1.368-.218c0-.117.615-.21 1.368-.21.754 0 1.36.101 1.36.21zM78.696 55.274c-.107 0-.2-4.727-.2-10.553 0-5.826.093-10.554.2-10.554.108 0 .2 4.72.2 10.554 0 5.834-.092 10.553-.2 10.553zM92.834 55.61c0 .125-9.31.218-20.757.218-11.447 0-20.757-.093-20.757-.219 0-.125 9.302-.217 20.757-.217 11.455 0 20.757.1 20.757.217z" fill="#263238"/><path d="M60.4 61.72c2.351 0 4.258-2.079 4.258-4.643 0-2.565-1.907-4.644-4.259-4.644-2.352 0-4.259 2.079-4.259 4.644 0 2.564 1.907 4.643 4.26 4.643z" fill="#263238"/><path d="M60.4 59.81c1.383 0 2.505-1.224 2.505-2.733 0-1.51-1.122-2.733-2.506-2.733-1.384 0-2.506 1.223-2.506 2.733 0 1.509 1.122 2.732 2.506 2.732z" fill="#E0E0E0"/><path d="M83.616 61.72c2.353 0 4.26-2.079 4.26-4.643 0-2.565-1.907-4.644-4.26-4.644-2.352 0-4.259 2.079-4.259 4.644 0 2.564 1.907 4.643 4.26 4.643z" fill="#263238"/><path d="M83.616 59.81c1.385 0 2.507-1.224 2.507-2.733 0-1.51-1.122-2.733-2.507-2.733-1.384 0-2.506 1.223-2.506 2.733 0 1.509 1.122 2.732 2.506 2.732z" fill="#E0E0E0"/><path d="M67.418 45.593c0 .125-4.267.226-9.533.226-5.266 0-9.525-.1-9.525-.226s4.267-.218 9.525-.218c5.259 0 9.533.1 9.533.218zM68.095 43.941c-2.833.29-5.685.29-8.518 0 2.833-.29 5.685-.29 8.518 0z" fill="#263238"/><path d="M17.016 45.257H-.186V58.59h17.202V45.257z" fill="#FF6F00"/><path opacity=".2" d="M17.016 45.257h-6.515V58.59h6.515V45.257z" fill="#000"/><path d="M16.567 57.674c-.48-.949-.959-1.9-1.435-2.853l-1.413-2.87-1.395-2.883c-.463-.96-.921-1.925-1.374-2.894.48.947.958 1.898 1.434 2.853l1.413 2.868 1.395 2.882c.463.96.921 1.926 1.375 2.897z" fill="#FF6F00"/><path d="M16.567 46.176c-.454.967-.913 1.932-1.375 2.894l-1.395 2.883-1.413 2.867c-.474.954-.952 1.905-1.434 2.853.453-.968.91-1.933 1.374-2.895l1.395-2.882 1.413-2.869c.474-.953.952-1.903 1.435-2.851z" fill="#FF6F00"/><path d="M12.782 46.884h1.979v-1.627h-1.979v1.627z" fill="#EBEBEB"/><path d="M3.428 57.703h.14v-1.955h-.14v1.955zM3.096 57.703h.139v-1.955h-.14v1.955zM2.764 57.703h.14v-1.955h-.14v1.955zM2.43 57.703h.14v-1.955h-.14v1.955zM2.098 57.703h.14v-1.955h-.14v1.955zM1.766 57.703h.139v-1.955h-.14v1.955zM1.433 57.703h.14v-1.955h-.14v1.955zM1.1 57.703h.14v-1.955H1.1v1.955zM.768 57.703h.14v-1.955h-.14v1.955zM4.927 57.553l-.533.149h1.251l-.533-.15v-.721c.382-.05.533-.426.533-1.085H4.394c0 .657.152 1.035.533 1.085v.722zM5.937 56.745h.327v.957h.837v-.957h.328l-.747-.997-.745.997z" fill="#263238"/><path opacity=".1" d="M-.186 58.589v-.936l10.687-1.732v2.668H-.186z" fill="#000"/><path d="M16.123 36.614H2.834v8.644h13.29v-8.644z" fill="#FF6F00"/><path opacity=".2" d="M16.122 36.614h-4.06v8.644h4.06v-8.644z" fill="#000"/><path d="M15.842 44.933c-.3-.643-.598-1.289-.893-1.937l-.881-1.948-.87-1.956c-.288-.654-.574-1.309-.856-1.966.3.644.598 1.29.893 1.938l.881 1.947.87 1.956c.288.653.574 1.309.856 1.966z" fill="#FF6F00"/><path d="M15.842 37.126c-.282.659-.567 1.314-.856 1.967l-.87 1.955-.877 1.948a177.92 177.92 0 0 1-.893 1.937c.282-.657.567-1.312.856-1.965l.87-1.956.881-1.946c.292-.65.588-1.296.89-1.94z" fill="#FF6F00"/><path d="M13.484 37.639h1.233v-1.025h-1.233v1.025z" fill="#EBEBEB"/><path d="M5.085 44.705h.087v-1.22h-.087v1.22zM4.879 44.705h.086v-1.22H4.88v1.22zM4.672 44.705h.086v-1.22h-.086v1.22zM4.465 44.705h.086v-1.22h-.086v1.22zM4.257 44.705h.086v-1.22h-.086v1.22zM4.049 44.705h.086v-1.22H4.05v1.22zM3.843 44.705h.086v-1.22h-.086v1.22zM3.635 44.705h.087v-1.22h-.087v1.22zM3.427 44.705h.087v-1.22h-.087v1.22zM6.02 44.612l-.332.093h.78l-.332-.094v-.448c.238-.032.333-.266.333-.676h-.78c0 .412.094.644.332.676v.45zM6.65 44.108h.204v.596h.52v-.596h.206l-.466-.621-.464.62z" fill="#263238"/><path opacity=".1" d="M2.833 45.257v-.583l9.229-1.08v1.663H2.833z" fill="#000"/><path d="M24.914 49.946h-13.29v8.644h13.29v-8.644z" fill="#FF6F00"/><path opacity=".2" d="M24.914 49.946h-4.06v8.644h4.06v-8.644z" fill="#000"/><path d="M24.634 58.266c-.3-.645-.598-1.29-.894-1.939l-.881-1.947-.87-1.956c-.288-.653-.574-1.308-.857-1.966.302.644.6 1.29.895 1.938l.881 1.948.87 1.956c.288.652.574 1.308.856 1.966z" fill="#FF6F00"/><path d="M24.634 50.458c-.282.658-.568 1.313-.856 1.966l-.87 1.956-.881 1.947c-.296.649-.594 1.295-.895 1.939.284-.658.57-1.313.857-1.966l.87-1.956.88-1.948c.296-.648.595-1.294.895-1.938z" fill="#FF6F00"/><path d="M22.275 50.97h1.233v-1.025h-1.233v1.026z" fill="#EBEBEB"/><path d="M13.877 58.036h.087v-1.219h-.087v1.22zM13.67 58.036h.087v-1.219h-.086v1.22zM13.464 58.036h.086v-1.219h-.086v1.22zM13.256 58.036h.086v-1.219h-.086v1.22zM13.048 58.036h.086v-1.219h-.086v1.22zM12.842 58.036h.086v-1.219h-.086v1.22zM12.634 58.036h.086v-1.219h-.086v1.22zM12.426 58.036h.086v-1.219h-.086v1.22zM12.219 58.036h.087v-1.219h-.087v1.22zM14.812 57.944l-.332.092h.78l-.333-.093v-.448c.238-.031.333-.266.333-.677h-.78c0 .412.094.646.332.677v.449zM15.441 57.44h.204v.596h.522v-.597h.205l-.466-.62-.465.62z" fill="#263238"/><path opacity=".1" d="M11.624 58.589v-.583l9.228-1.08v1.663h-9.228z" fill="#000"/><path d="M26.56 44.212H12.903v5.733h13.655v-5.733z" fill="#FF6F00"/><path opacity=".2" d="M26.56 44.212h-4.954v5.734h4.953v-5.734z" fill="#000"/><path d="M26.218 49.551c-.367-.408-.73-.817-1.09-1.227l-1.075-1.235-1.06-1.236c-.352-.411-.7-.826-1.045-1.244.366.406.73.815 1.09 1.227l1.075 1.235 1.06 1.236c.352.411.7.826 1.045 1.244z" fill="#FF6F00"/><path d="M26.218 44.607c-.343.416-.692.83-1.045 1.244l-1.06 1.236-1.075 1.235c-.36.412-.724.82-1.09 1.227.343-.417.691-.832 1.045-1.246l1.06-1.235 1.075-1.235c.36-.41.723-.819 1.09-1.226z" fill="#FF6F00"/><path d="M15.182 49.272h.08v-1.14h-.08v1.14zM14.987 49.272h.08v-1.14h-.08v1.14zM14.793 49.272h.08v-1.14h-.08v1.14zM14.6 49.272h.08v-1.14h-.08v1.14zM14.405 49.272h.08v-1.14h-.08v1.14zM14.212 49.272h.08v-1.14h-.08v1.14zM14.017 49.272h.08v-1.14h-.08v1.14zM13.824 49.272h.08v-1.14h-.08v1.14zM13.63 49.272h.08v-1.14h-.08v1.14zM16.055 49.184l-.31.087h.73l-.308-.087v-.42c.222-.028.309-.249.309-.632h-.73c0 .382.088.604.309.633v.42zM16.643 48.713h.19v.558h.489v-.558h.191l-.435-.58-.435.58z" fill="#263238"/><path opacity=".1" d="M12.905 49.946v-.712l8.701-1.317v2.028l-8.701.001z" fill="#000"/><path d="M28.03 42.778h-4.953l-1.471 1.434h4.954l1.47-1.434z" fill="#FF6F00"/><path opacity=".1" d="M28.03 42.778h-4.953l-1.471 1.434h4.954l1.47-1.434z" fill="#000"/><path d="M11.434 42.778h4.953l1.471 1.434h-4.954l-1.47-1.434z" fill="#FF6F00"/><path opacity=".1" d="M11.434 42.778h4.953l1.471 1.434h-4.954l-1.47-1.434z" fill="#000"/><path d="M13.858 32.31H1.285v4.326h12.573V32.31z" fill="#FF6F00"/><path opacity=".2" d="M13.858 32.31H8.904v4.326h4.954V32.31z" fill="#000"/><path d="M13.516 36.241c-.366-.262-.73-.526-1.09-.791l-1.075-.795-1.061-.8c-.352-.266-.7-.534-1.045-.803.368.264.732.527 1.091.792l1.074.795 1.061.8c.356.266.7.534 1.045.802z" fill="#FF6F00"/><path d="M13.516 33.052c-.343.268-.691.536-1.045.803l-1.061.8-1.074.794c-.36.266-.724.53-1.09.792.344-.268.692-.536 1.044-.803l1.061-.799 1.075-.795c.36-.265.723-.528 1.09-.792z" fill="#FF6F00"/><path d="M3.562 35.962h.08v-1.14h-.08v1.14zM3.368 35.962h.08v-1.14h-.08v1.14zM3.174 35.962h.08v-1.14h-.08v1.14zM2.98 35.962h.08v-1.14h-.08v1.14zM2.787 35.962h.08v-1.14h-.08v1.14zM2.592 35.962h.08v-1.14h-.08v1.14zM2.399 35.962h.08v-1.14H2.4v1.14zM2.205 35.962h.08v-1.14h-.08v1.14zM2.01 35.962h.081v-1.14h-.08v1.14zM4.436 35.876l-.309.086h.73l-.309-.087v-.42c.224-.03.309-.248.309-.632h-.73c0 .383.089.603.309.633v.42zM5.025 35.404h.19v.558h.488v-.558h.192l-.436-.581-.434.581z" fill="#263238"/><path opacity=".1" d="M1.285 36.636v-.71l7.62-1.319v2.03h-7.62z" fill="#000"/><path d="M15.329 30.876h-4.955l-1.47 1.434h4.954l1.47-1.434z" fill="#FF6F00"/><path opacity=".1" d="M15.329 30.876h-4.955l-1.47 1.434h4.954l1.47-1.434z" fill="#000"/><path d="M-.186 30.876h4.954l1.47 1.434H1.285l-1.471-1.434z" fill="#FF6F00"/><path opacity=".1" d="M-.186 30.876h4.954l1.47 1.434H1.285l-1.471-1.434z" fill="#000"/></g><defs><clipPath id="a"><path fill="#fff" d="M0 0h93.558v93H0z"/></clipPath></defs></svg>