<svg width="103" height="103" fill="none" xmlns="http://www.w3.org/2000/svg"><path d="M6.013 41.694 67.643 6.07l-2.65-1.603-58.98 34.052v3.176z" fill="#E0E0E0"/><path d="M6.013 41.694v53.488l61.574-35.547V6.145L6.013 41.695z" fill="#fff"/><path d="M52.802 26.906v1.25c0 .393.276.552.618.357l5.718-3.297a1.365 1.365 0 0 0 .619-1.07v-1.251c0-.394-.277-.552-.618-.357l-5.72 3.296a1.363 1.363 0 0 0-.617 1.072zM51.034 51.294v1.25c0 .394.276.555.618.357l5.719-3.296a1.363 1.363 0 0 0 .618-1.07v-1.25c0-.395-.276-.554-.618-.356l-5.719 3.296a1.368 1.368 0 0 0-.618 1.069z" fill="#F5F5F5"/><path d="M39.758 48.324v1.25c0 .393.278.552.618.356l5.72-3.296a1.369 1.369 0 0 0 .619-1.07v-1.251c0-.394-.276-.552-.618-.357l-5.721 3.296a1.37 1.37 0 0 0-.618 1.072zM50.773 38.572v1.25c0 .393.276.554.618.356l5.718-3.296a1.362 1.362 0 0 0 .618-1.069v-1.25c0-.394-.276-.554-.618-.357l-5.718 3.296a1.362 1.362 0 0 0-.618 1.07zM47.557 57.114v1.248c0 .395.276.554.618.358l5.719-3.296a1.368 1.368 0 0 0 .618-1.07v-1.251c0-.394-.276-.552-.618-.357l-5.719 3.296a1.363 1.363 0 0 0-.618 1.072z" fill="#EBEBEB"/><path d="m60.976 28.412-5.719 3.296a1.364 1.364 0 0 0-.618 1.07v1.25c0 .395.276.553.618.358l5.719-3.297a1.373 1.373 0 0 0 .618-1.07v-1.251c0-.394-.27-.546-.618-.357zM63.195 16.92l-5.721 3.303a1.365 1.365 0 0 0-.618 1.071v1.249c0 .395.276.554.618.358l5.719-3.296a1.366 1.366 0 0 0 .617-1.071v-1.257c.003-.385-.273-.552-.615-.356zM53.407 32.785 47.69 36.08a1.369 1.369 0 0 0-.618 1.071v1.25c0 .394.276.553.618.357l5.718-3.296a1.364 1.364 0 0 0 .619-1.071v-1.249c0-.389-.277-.554-.619-.358zM31.433 52.42l-5.72 3.297a1.366 1.366 0 0 0-.618 1.069v1.25c0 .394.278.554.618.357l5.72-3.296a1.365 1.365 0 0 0 .618-1.07v-1.25c-.002-.393-.278-.554-.618-.356zM35.405 46.731l-5.72 3.296a1.365 1.365 0 0 0-.618 1.07v1.25c0 .393.278.554.618.356l5.72-3.296a1.365 1.365 0 0 0 .618-1.07v-1.25c0-.393-.278-.554-.618-.356zM6.386 63.924v1.25c0 .394.276.554.618.357l5.719-3.296a1.365 1.365 0 0 0 .618-1.07v-1.25c0-.395-.276-.554-.618-.356l-5.719 3.296a1.366 1.366 0 0 0-.618 1.069zM38.174 31.4l-5.719 3.297a1.362 1.362 0 0 0-.618 1.069v1.25c0 .394.276.554.618.357l5.719-3.296a1.362 1.362 0 0 0 .618-1.07v-1.25c0-.394-.27-.554-.618-.356z" fill="#F5F5F5"/><path d="m20.167 48.703-5.72 3.295a1.367 1.367 0 0 0-.618 1.07v1.25c0 .394.278.554.618.357l5.72-3.296a1.37 1.37 0 0 0 .618-1.07v-1.25c0-.396-.278-.554-.618-.356zM34.268 37.467l-5.719 3.296a1.364 1.364 0 0 0-.617 1.072v1.25c0 .393.276.552.617.356l5.72-3.296a1.37 1.37 0 0 0 .617-1.07v-1.251c0-.394-.278-.552-.618-.357zM58.475 47.001v1.25c0 .394.276.555.618.357l5.719-3.296a1.363 1.363 0 0 0 .618-1.071v-1.249c0-.395-.276-.554-.618-.358l-5.719 3.296A1.374 1.374 0 0 0 58.475 47z" fill="#EBEBEB"/><path d="m62.706 53.723 3.688-2.13v2.678l-3.688 2.13c-.342.195-.618.037-.618-.357v-1.248a1.367 1.367 0 0 1 .618-1.073zM62.706 37.741l3.688-2.13v2.678l-3.688 2.128c-.342.206-.618.037-.618-.356v-1.25a1.36 1.36 0 0 1 .618-1.07zM62.706 24.592l3.688-2.128v2.678l-3.688 2.13c-.342.206-.618.037-.618-.356v-1.25a1.367 1.367 0 0 1 .618-1.074zM8.897 51.86l-2.884 1.665v2.678l2.884-1.665a1.362 1.362 0 0 0 .618-1.069v-1.25c0-.396-.276-.556-.618-.358zM46.103 26.823l-5.72 3.296a1.368 1.368 0 0 0-.619 1.07v1.25c0 .395.278.554.618.356l5.72-3.296a1.364 1.364 0 0 0 .619-1.069v-1.25c-.002-.4-.278-.555-.618-.357zM38.174 58.008l-5.719 3.295a1.365 1.365 0 0 0-.618 1.072v1.248c0 .396.276.554.618.358l5.719-3.296a1.366 1.366 0 0 0 .618-1.07v-1.251c0-.393-.27-.552-.618-.356z" fill="#F5F5F5"/><path d="m35.166 63.615-5.72 3.296a1.369 1.369 0 0 0-.618 1.071v1.248c0 .396.278.555.618.359l5.72-3.296a1.37 1.37 0 0 0 .618-1.071v-1.25c0-.394-.278-.553-.618-.357z" fill="#EBEBEB"/><path d="m46.103 53.43-5.727 3.302a1.373 1.373 0 0 0-.618 1.072v1.25c0 .393.278.554.618.356l5.72-3.296a1.367 1.367 0 0 0 .619-1.069v-1.25c.004-.402-.272-.56-.612-.365zM54.25 62.307v1.25c0 .394.276.554.618.357l5.719-3.296a1.362 1.362 0 0 0 .618-1.07v-1.25c0-.394-.276-.554-.618-.356l-5.719 3.296a1.362 1.362 0 0 0-.618 1.069zM27.314 67.962l-5.721 3.295a1.374 1.374 0 0 0-.618 1.072v1.25c0 .394.278.554.618.357l5.72-3.297a1.369 1.369 0 0 0 .619-1.069v-1.25c0-.396-.279-.546-.618-.358zM6.386 80.707v1.25c0 .396.276.554.618.357l5.719-3.296a1.362 1.362 0 0 0 .618-1.07v-1.25c0-.393-.276-.554-.618-.356l-5.719 3.296a1.37 1.37 0 0 0-.618 1.069zM16.649 65.83v1.25c0 .393.276.552.618.356l5.72-3.296a1.369 1.369 0 0 0 .619-1.071v-1.25c0-.394-.277-.553-.619-.357l-5.72 3.296a1.369 1.369 0 0 0-.618 1.071z" fill="#F5F5F5"/><path d="m18.802 60.123-5.719 3.296a1.367 1.367 0 0 0-.618 1.071v1.25c0 .394.276.555.618.357l5.719-3.296a1.365 1.365 0 0 0 .618-1.071v-1.248c0-.396-.276-.554-.618-.359z" fill="#EBEBEB"/><path d="m8.897 68.643-2.884 1.665v2.678l2.884-1.665a1.367 1.367 0 0 0 .618-1.07V69.01c0-.412-.276-.562-.618-.367z" fill="#F5F5F5"/><path d="m14.587 84.155-5.719 3.296a1.362 1.362 0 0 0-.618 1.07v1.25c0 .393.276.554.618.356l5.719-3.296a1.366 1.366 0 0 0 .618-1.07v-1.25c0-.395-.276-.554-.618-.356zM34.268 73.264 28.55 76.56a1.367 1.367 0 0 0-.617 1.071v1.267c0 .394.276.552.617.356l5.72-3.296a1.364 1.364 0 0 0 .617-1.07v-1.25c0-.411-.278-.57-.618-.374z" fill="#EBEBEB"/><path d="m46.103 64.567-5.72 3.296a1.366 1.366 0 0 0-.619 1.069v1.25c0 .394.278.554.618.356l5.72-3.295a1.364 1.364 0 0 0 .619-1.07v-1.25c-.002-.394-.278-.554-.618-.356zM13.829 46.437v1.25c0 .393.278.552.618.356l5.72-3.296a1.37 1.37 0 0 0 .618-1.07v-1.251c0-.394-.278-.552-.618-.357l-5.72 3.296a1.37 1.37 0 0 0-.618 1.072zM6.386 45.114v1.25c0 .394.276.555.618.357l5.719-3.296a1.362 1.362 0 0 0 .618-1.07v-1.25c0-.393-.276-.554-.618-.356L7.004 44.05a1.362 1.362 0 0 0-.618 1.063zM35.48 28.078v1.25c0 .394.275.554.617.357l5.719-3.296a1.363 1.363 0 0 0 .618-1.07v-1.25c0-.393-.276-.554-.618-.356l-5.719 3.296a1.362 1.362 0 0 0-.618 1.069z" fill="#F5F5F5"/><path d="m7.478 94.4-.09-.157 60.186-34.83-.078-53.111L6.013 41.797v-.208l61.664-35.6v.156l.08 53.37-.047.027L7.478 94.4z" fill="#E0E0E0"/><path d="m36.182 41.513-.159-.09-5.696 3.295V33.302l3.348-1.932v-5.356l-.159-.093L6.013 41.694v53.668l10.094-5.82v-16.14l3.348-1.932v-6.765l5.856-3.38v-6.826l10.875-6.279-.004-6.707z" fill="#FF6F00"/><path opacity=".7" d="m6.013 95.362 10.09-5.82v-16.14l3.348-1.932v-6.765l5.856-3.38v-6.826l10.875-6.28v-6.706l-5.855 3.385V33.302l3.348-1.932v-5.356L6.013 41.872v53.49z" fill="#fff"/><g opacity=".2" fill="#FF6F00"><path d="m35.405 46.731-1.967 1.152-1.955 1.168-.979.595-.488.292-.245.147a1.026 1.026 0 0 0-.206.156 1.294 1.294 0 0 0-.4.958v1.14l-.15-.087c.577-.342 1.162-.668 1.743-1 .58-.33 1.162-.663 1.749-.986l1.755-.976c.583-.326 1.17-.647 1.75-.979v.01-1.07a.662.662 0 0 0-.114-.503.311.311 0 0 0-.244-.089.578.578 0 0 0-.249.072zm0 0a.545.545 0 0 1 .252-.084.315.315 0 0 1 .247.086.668.668 0 0 1 .125.507v1.071c-.579.336-1.15.686-1.726 1.03l-1.722 1.03c-.573.346-1.15.684-1.728 1.03-.58.346-1.152.682-1.735 1.01l-.15.084v-1.311a1.298 1.298 0 0 1 .12-.588c.082-.184.2-.35.347-.488.076-.068.16-.126.25-.174l.249-.14.498-.276.995-.554 1.99-1.11 1.988-1.123zM20.785 42.42a.568.568 0 0 0-.08-.3.301.301 0 0 0-.264-.135.593.593 0 0 0-.292.095l-.272.16-1.084.635-2.16 1.287-2.157 1.29a1.27 1.27 0 0 0-.55.978v1.257a.457.457 0 0 0 .06.243.206.206 0 0 0 .18.097.508.508 0 0 0 .248-.08l.272-.157 1.094-.618 2.2-1.234 2.196-1.236a1.367 1.367 0 0 0 .601-1.03l.008-1.252zm0 0v1.258a1.267 1.267 0 0 1-.175.602c-.1.187-.245.346-.422.463l-2.159 1.29-2.16 1.29-1.084.634-.272.158a.709.709 0 0 1-.344.112.412.412 0 0 1-.35-.184.66.66 0 0 1-.097-.356v-1.259a1.462 1.462 0 0 1 .65-1.127l2.197-1.236 2.208-1.217 1.094-.618.272-.154a.595.595 0 0 1 .298-.095.31.31 0 0 1 .268.142c.052.09.078.193.076.297zM25.985 33.99a.568.568 0 0 0-.08-.3.303.303 0 0 0-.264-.137.574.574 0 0 0-.293.097l-.272.159-1.083.634-2.157 1.28-2.157 1.287a1.271 1.271 0 0 0-.55.979v1.256a.457.457 0 0 0 .06.243.206.206 0 0 0 .181.097.487.487 0 0 0 .247-.08l.272-.155 1.094-.618 2.194-1.226 2.196-1.236a1.368 1.368 0 0 0 .601-1.03l.01-1.25zm0 0v1.257a1.267 1.267 0 0 1-.175.601 1.291 1.291 0 0 1-.425.464l-2.159 1.29-2.16 1.289-1.084.624-.272.158a.709.709 0 0 1-.344.112.412.412 0 0 1-.35-.184.66.66 0 0 1-.097-.356v-1.259a1.464 1.464 0 0 1 .651-1.126l2.196-1.236 2.21-1.222 1.094-.618.272-.154a.596.596 0 0 1 .299-.095.311.311 0 0 1 .268.142.576.576 0 0 1 .076.313zM20.167 48.703l-2.17 1.268-2.16 1.29-1.08.651-.269.16a.959.959 0 0 0-.223.188c-.13.148-.23.321-.292.509a.972.972 0 0 0-.052.284v1.242a.474.474 0 0 0 .054.256.206.206 0 0 0 .173.109.477.477 0 0 0 .241-.072l2.186-1.236 2.196-1.236 1.098-.618a2.02 2.02 0 0 0 .515-.342c.144-.15.253-.329.321-.525.057-.201.078-.41.062-.618v-.944a.565.565 0 0 0-.064-.3.305.305 0 0 0-.251-.161.547.547 0 0 0-.285.095zm0 0a.543.543 0 0 1 .3-.087.312.312 0 0 1 .257.16c.048.095.07.2.066.306V50.025c.017.208-.002.417-.056.618-.067.203-.175.39-.317.548a2.032 2.032 0 0 1-.515.367l-1.08.645-2.159 1.289-2.17 1.269a.637.637 0 0 1-.357.095.411.411 0 0 1-.334-.206.68.68 0 0 1-.076-.355v-1.258c.007-.114.03-.226.066-.334a1.52 1.52 0 0 1 .342-.562c.078-.082.167-.151.265-.206l.274-.153 1.098-.618 2.196-1.226 2.2-1.236zM27.931 41.84v1.055a.787.787 0 0 0 .095.497.34.34 0 0 0 .445.047l.898-.552c.3-.185.598-.37.9-.55l-.047.082c-.012-.891 0-1.783.02-2.677l.114.063-1.47.791c-.124.068-.248.13-.367.206-.117.074-.22.167-.305.276a1.32 1.32 0 0 0-.282.763zm0 0c.012-.28.11-.55.283-.772a1.13 1.13 0 0 1 .3-.292l.355-.22 1.421-.878.11-.068v.134c.026.89.032 1.784.02 2.678v.055l-.047.027c-.307.172-.616.34-.927.505l-.934.5a.524.524 0 0 1-.274.052.32.32 0 0 1-.238-.14.857.857 0 0 1-.08-.524c.01-.354.007-.704.011-1.056zM19.45 64.705l2.044-1.236 2.072-1.236-.037.066v-.437a.465.465 0 0 0-.099-.348.278.278 0 0 0-.313-.027 1.44 1.44 0 0 0-.181.097l-.19.11-1.511.88c-1.006.59-2.015 1.173-3.029 1.75l-.758.434c-.13.062-.248.144-.35.245a1.38 1.38 0 0 0-.36.717c-.015.126 0 .284 0 .427v.873a.481.481 0 0 0 .092.359.295.295 0 0 0 .33.039c.243-.122.505-.28.756-.412l1.528-.851-.014.027.02-1.477zm0 0 .031 1.47v.017l-.016.01-1.5.898c-.257.149-.49.301-.764.443a.538.538 0 0 1-.245.046.386.386 0 0 1-.241-.108.635.635 0 0 1-.144-.461v-.873c-.008-.15-.008-.3 0-.45a1.513 1.513 0 0 1 .404-.822c.109-.109.235-.2.372-.271l.756-.44c1.006-.588 2.016-1.171 3.03-1.748l1.517-.87.19-.106c.066-.04.134-.077.205-.11a.55.55 0 0 1 .254-.043.394.394 0 0 1 .249.113.629.629 0 0 1 .14.47v.482l-.037.02-2.083 1.169-2.117 1.164zM25.095 56.792c0 .29 0 .581.03.871 0 .143.017.293.032.431a.319.319 0 0 0 .185.28l-.121.08a10.89 10.89 0 0 1 0-1.16c0-.193.022-.384.032-.578l.038-.579.037.01c-.14.187-.221.412-.233.645zm0 0c.014-.236.084-.465.206-.667l.033-.06v.072l.037.579c.01.194.029.385.035.579.014.387.014.772 0 1.16v.136l-.115-.058a.463.463 0 0 1-.233-.43c0-.155.016-.293.025-.44.004-.29.01-.58.012-.87zM19.42 61.73v-1.257a.519.519 0 0 0-.083-.292.298.298 0 0 0-.26-.13.617.617 0 0 0-.288.099l-.272.159-2.165 1.285-2.159 1.294-1.083.634a1.266 1.266 0 0 0-.544.974v1.257a.447.447 0 0 0 .062.245.207.207 0 0 0 .19.097.52.52 0 0 0 .25-.084l.275-.157 2.196-1.226 2.196-1.236 1.091-.618a1.29 1.29 0 0 0 .412-.455c.11-.178.172-.38.182-.589zm0 0a1.235 1.235 0 0 1-.171.6 1.278 1.278 0 0 1-.412.463l-1.084.636-2.159 1.29-2.159 1.288-.272.158a.687.687 0 0 1-.337.113.412.412 0 0 1-.349-.173.635.635 0 0 1-.098-.35v-1.258a1.37 1.37 0 0 1 .191-.647c.11-.199.267-.367.457-.49l1.094-.619 2.196-1.236 2.196-1.225.272-.157a.619.619 0 0 1 .3-.097.318.318 0 0 1 .279.14.557.557 0 0 1 .08.303l-.024 1.261zM7.004 82.314l2.171-1.27 2.155-1.289 1.086-.651.27-.16a.963.963 0 0 0 .222-.188c.131-.148.23-.321.293-.509a.972.972 0 0 0 .051-.284V76.72a.495.495 0 0 0-.054-.256.205.205 0 0 0-.175-.109.484.484 0 0 0-.251.07l-2.184 1.236-2.196 1.236-1.098.618a1.985 1.985 0 0 0-.515.342c-.144.15-.253.329-.32.525-.058.201-.079.41-.063.618v.933a.583.583 0 0 0 .062.301.31.31 0 0 0 .251.16.551.551 0 0 0 .295-.081zm0 0a.554.554 0 0 1-.299.086.312.312 0 0 1-.257-.16.618.618 0 0 1-.068-.306v-.933a1.784 1.784 0 0 1 .055-.618c.067-.202.174-.388.316-.548.152-.148.326-.272.517-.366l1.08-.645 2.158-1.308 2.171-1.27a.634.634 0 0 1 .355-.094.412.412 0 0 1 .333.206c.057.11.084.231.079.354v1.259a1.217 1.217 0 0 1-.064.334c-.073.21-.19.402-.344.562a1.13 1.13 0 0 1-.264.206l-.274.153-1.098.618-2.196 1.236-2.2 1.234zM7.004 46.727l2.171-1.269 2.155-1.29 1.08-.644.27-.161c.082-.051.157-.115.222-.188.131-.147.23-.32.292-.508a.972.972 0 0 0 .052-.285V41.14a.495.495 0 0 0-.054-.255.206.206 0 0 0-.175-.11.485.485 0 0 0-.24.073l-2.184 1.236-2.196 1.225-1.098.618a2.035 2.035 0 0 0-.517.342c-.143.15-.252.33-.32.526-.057.2-.078.41-.062.618v.937a.583.583 0 0 0 .062.3.311.311 0 0 0 .252.162.57.57 0 0 0 .29-.085zm0 0a.554.554 0 0 1-.299.087.322.322 0 0 1-.257-.161.618.618 0 0 1-.062-.303V45.407a1.784 1.784 0 0 1 .056-.618c.066-.203.174-.39.315-.548.152-.149.326-.273.517-.367l1.08-.645 2.152-1.3 2.17-1.269a.665.665 0 0 1 .356-.096.412.412 0 0 1 .333.206c.057.109.084.23.079.354v1.248a1.218 1.218 0 0 1-.064.334c-.073.21-.19.402-.344.562a1.13 1.13 0 0 1-.264.206l-.274.153-1.098.618-2.196 1.225-2.2 1.257zM14.587 84.155l-2.171 1.27-2.16 1.289-1.079.644-.27.161a.963.963 0 0 0-.222.188c-.131.147-.231.32-.293.508-.03.092-.047.188-.051.285v1.252a.494.494 0 0 0 .054.256.206.206 0 0 0 .175.109.485.485 0 0 0 .24-.072l2.184-1.236 2.196-1.226 1.098-.618c.189-.087.363-.202.517-.342.143-.15.252-.33.32-.525.056-.201.077-.41.061-.618v-.944a.582.582 0 0 0-.062-.3.307.307 0 0 0-.25-.161.55.55 0 0 0-.287.08zm0 0a.554.554 0 0 1 .299-.086.311.311 0 0 1 .257.16c.048.094.072.2.068.305v.944c.018.207-.001.416-.056.618a1.567 1.567 0 0 1-.315.548 2.035 2.035 0 0 1-.517.366l-1.08.645-2.158 1.29-2.165 1.283a.646.646 0 0 1-.357.095.412.412 0 0 1-.333-.206.703.703 0 0 1-.079-.355v-1.258c.006-.114.027-.226.064-.334.073-.21.19-.402.344-.562a1.13 1.13 0 0 1 .264-.206l.274-.153 1.098-.618 2.196-1.225 2.196-1.25zM8.897 71.321c.23-.15.41-.365.515-.618.053-.126.083-.26.09-.397v-.412l-.02-.824a.53.53 0 0 0-.099-.36.286.286 0 0 0-.325-.065c-.121.056-.238.121-.348.196l-.35.206-.707.427c-.471.282-.946.557-1.426.823l.052-.088c0 .894-.027 1.786-.05 2.678l-.078-.045 1.38-.754c.456-.248.915-.507 1.366-.767zm0 0a90.15 90.15 0 0 0-1.355.8l-1.341.824-.079.047v-.093c-.022-.892-.047-1.784-.047-2.678v-.057l.05-.03c.475-.277.951-.55 1.441-.823l.721-.398.363-.206a2.34 2.34 0 0 1 .381-.187.392.392 0 0 1 .429.11c.082.122.118.268.1.413l-.02.824v.412a1.208 1.208 0 0 1-.105.4 1.343 1.343 0 0 1-.538.642zM6.18 56.11l2.089-1.283.51-.31a1.14 1.14 0 0 0 .413-.38 1.3 1.3 0 0 0 .22-.52c.013-.095.017-.191.012-.288v-1.211a.32.32 0 0 0-.098-.206.248.248 0 0 0-.206-.04.798.798 0 0 0-.248.112l-.529.3c-.705.403-1.409.808-2.122 1.198l.035-.062c0 .437-.016.871-.033 1.316L6.18 56.11zm0 0-.045-1.314c-.017-.447-.025-.906-.033-1.362v-.039l.035-.023c.694-.422 1.396-.824 2.097-1.236l.525-.306c.093-.064.196-.113.305-.145a.437.437 0 0 1 .373.08.515.515 0 0 1 .167.332 2.82 2.82 0 0 1 0 .318V53.337c.002.107-.004.214-.019.32a1.482 1.482 0 0 1-.255.589 1.321 1.321 0 0 1-.486.412l-.544.299-2.12 1.153zM12.725 59.553l-2.17 1.269-2.158 1.29-1.08.644-.27.16a.964.964 0 0 0-.222.188c-.132.148-.231.32-.293.509a1.05 1.05 0 0 0-.053.284v1.253a.515.515 0 0 0 .053.255.206.206 0 0 0 .175.11.478.478 0 0 0 .241-.073l2.186-1.236 2.196-1.234 1.098-.618a2.02 2.02 0 0 0 .515-.342c.143-.15.253-.33.321-.525.057-.2.078-.41.062-.618v-.944a.582.582 0 0 0-.064-.3.305.305 0 0 0-.251-.161.56.56 0 0 0-.286.089zm0 0a.555.555 0 0 1 .298-.087.307.307 0 0 1 .258.16c.05.094.073.2.068.306V60.875c.018.208-.002.417-.058.618-.063.206-.17.395-.313.556a2.025 2.025 0 0 1-.515.367l-1.08.645-2.154 1.29-2.171 1.268a.64.64 0 0 1-.357.095.413.413 0 0 1-.334-.206.68.68 0 0 1-.076-.354v-1.259c.006-.114.029-.226.066-.334A1.52 1.52 0 0 1 6.7 63c.078-.081.167-.15.264-.206l.276-.152 1.098-.618 2.196-1.226 2.192-1.244z"/></g><path d="m27.15 85.593-6.66-.09-.057 5.438c0 .492.313.989.96 1.37 1.292.766 3.401.789 4.711.051.66-.37.99-.865.99-1.361l.057-5.408z" fill="#37474F"/><path d="M21.482 84.153c-1.308.737-1.323 1.955-.03 2.72 1.294.763 3.402.788 4.71.05 1.308-.737 1.323-1.954.029-2.718-1.294-.765-3.401-.79-4.71-.052z" fill="#455A64"/><path d="M26.864 85.57a.845.845 0 0 1-.047.262c-.152.37-.436.669-.797.84a4.92 4.92 0 0 1-4.42-.047 1.62 1.62 0 0 1-.773-.84.826.826 0 0 1-.048-.28c0-.413.305-.798.845-1.099a4.943 4.943 0 0 1 4.42.048c.53.315.825.71.82 1.116z" fill="#263238"/><path d="M26.817 85.832a1.61 1.61 0 0 1-.797.84 4.921 4.921 0 0 1-4.42-.047 1.62 1.62 0 0 1-.773-.84c.152-.37.436-.668.797-.839a4.905 4.905 0 0 1 4.42.047c.35.178.625.475.773.839z" fill="#FF6F00"/><path opacity=".6" d="M26.817 85.832a1.61 1.61 0 0 1-.797.84 4.921 4.921 0 0 1-4.42-.047 1.62 1.62 0 0 1-.773-.84c.152-.37.436-.668.797-.839a4.905 4.905 0 0 1 4.42.047c.35.178.625.475.773.839z" fill="#fff"/><path opacity=".35" d="M26.02 86.672c.105-.061.207-.13.303-.206-1.216.651-3.296.353-3.96-.135-.824-.6-.737-1.387.322-1.778a3.783 3.783 0 0 0-1.061.387c-.36.17-.645.47-.797.838.146.365.421.664.772.84a4.922 4.922 0 0 0 4.42.048v.006z" fill="#FF6F00"/><path d="M25.241 87.63c.144-.082.262-.014.26.155a.575.575 0 0 1-.268.451c-.146.082-.262.014-.26-.153a.575.575 0 0 1 .268-.453z" fill="#263238"/><path d="M20.479 86.458c-.365.721-1.094 2.44-.149 3.138.041.028.076.055.118.08v.348a4.624 4.624 0 0 1-.287-.192c-1.413-1.048.181-3.736.25-3.848a.134.134 0 0 1 .08-.061l-.012.535z" fill="#E0E0E0"/><path d="M25.365 88.001c-.041.085-1.07 2.06-2.763 2.447a2.45 2.45 0 0 1-.583.068 2.941 2.941 0 0 1-1.575-.494v-.348c.698.486 1.4.653 2.09.492 1.562-.364 2.56-2.282 2.57-2.3a.145.145 0 0 1 .148-.082c.02.002.04.01.057.02a.141.141 0 0 1 .074.143.14.14 0 0 1-.018.054z" fill="#E0E0E0"/><path d="m18.41 89.72-6.668-.09-.058 5.439c0 .492.316.989.96 1.37 1.294.766 3.401.789 4.711.051.66-.37.99-.865.99-1.361l.065-5.41z" fill="#37474F"/><path d="M12.741 88.281c-1.308.738-1.32 1.955-.029 2.72 1.292.764 3.401.788 4.71.051 1.308-.738 1.322-1.955.03-2.72-1.291-.763-3.403-.782-4.71-.05z" fill="#455A64"/><path d="M18.128 89.699a.846.846 0 0 1-.047.261c-.152.37-.437.67-.798.84a4.532 4.532 0 0 1-2.216.5 4.532 4.532 0 0 1-2.204-.547 1.621 1.621 0 0 1-.77-.84.825.825 0 0 1-.048-.28c0-.412.305-.798.844-1.098a4.428 4.428 0 0 1 2.213-.499 4.48 4.48 0 0 1 2.202.544c.534.317.824.713.824 1.119z" fill="#263238"/><path d="M18.076 89.96c-.152.37-.436.67-.797.84a4.532 4.532 0 0 1-2.216.5 4.531 4.531 0 0 1-2.205-.547 1.621 1.621 0 0 1-.77-.84c.151-.37.436-.669.797-.839a4.498 4.498 0 0 1 2.213-.494c.77-.01 1.528.177 2.206.542.35.176.625.474.773.838z" fill="#FF6F00"/><path opacity=".6" d="M18.076 89.96c-.152.37-.436.67-.797.84a4.532 4.532 0 0 1-2.216.5 4.531 4.531 0 0 1-2.205-.547 1.621 1.621 0 0 1-.77-.84c.151-.37.436-.669.797-.839a4.498 4.498 0 0 1 2.213-.494c.77-.01 1.528.177 2.206.542.35.176.625.474.773.838z" fill="#fff"/><path opacity=".35" d="M17.28 90.8c.105-.06.207-.129.302-.205-1.215.65-3.286.352-3.957-.136-.824-.6-.74-1.387.32-1.778-.371.075-.728.205-1.06.387-.361.17-.646.47-.797.839.147.364.42.663.77.84a4.531 4.531 0 0 0 2.205.546 4.532 4.532 0 0 0 2.216-.492z" fill="#FF6F00"/><path d="M16.5 91.759c.147-.083.262-.015.262.154a.585.585 0 0 1-.268.451c-.146.083-.263.015-.261-.154a.58.58 0 0 1 .268-.451z" fill="#263238"/><path d="M11.742 90.586c-.367.721-1.094 2.44-.148 3.138.039.029.076.055.115.08v.348a4.653 4.653 0 0 1-.286-.191c-1.414-1.049.181-3.737.251-3.85a.126.126 0 0 1 .078-.06l-.01.535z" fill="#E0E0E0"/><path d="M16.624 92.13c-.039.084-1.069 2.06-2.76 2.447a2.468 2.468 0 0 1-.585.068 2.941 2.941 0 0 1-1.576-.493v-.348c.698.486 1.403.653 2.09.492 1.562-.364 2.563-2.282 2.57-2.3a.145.145 0 0 1 .206-.062.14.14 0 0 1 .069.086.142.142 0 0 1-.014.11z" fill="#E0E0E0"/><path d="m32.38 93.808 3.013-1.726a.222.222 0 0 0 .095-.206.717.717 0 0 0-.322-.56.225.225 0 0 0-.228-.023l-3.008 1.724.45.791z" fill="#455A64"/><path d="m32.7 92.57.913.53-1.234.708-.455-.79.776-.448z" fill="#37474F"/><path d="m29.277 94.01.618-.354-.618-.355 1.258-.727a1.514 1.514 0 0 1 1.377 0l1.075.618a.504.504 0 0 1 .282.373v.756a.49.49 0 0 1-.282.375l-1.263.731-2.447-1.417z" fill="#37474F"/><path d="m32.989 93.196-1.075-.618a1.515 1.515 0 0 0-1.377 0l-1.258.728 2.445 1.413 1.259-.727c.389-.219.389-.575.006-.796z" fill="#455A64"/><path d="m31.728 94.719-2.45-1.417-1.839 1.058 2.45 1.42 1.84-1.061z" fill="#F0F0F0"/><path d="m31.728 94.719-1.84 1.06-.002.707 1.84-1.059.002-.708z" fill="#EBEBEB"/><path d="m32.274 94.404-2.45-1.418.252-.144 2.462 1.41-.264.152z" fill="#FF6F00"/><path d="M32.274 94.404v.708l.262-.152.002-.709-.264.153z" fill="#FF6F00"/><path opacity=".1" d="M32.274 94.404v.708l.262-.152.002-.709-.264.153z" fill="#000"/><path d="M30.449 96.163s.336-.43.156-.797l-.716.412v.706l.56-.321z" fill="#FF6F00"/><path opacity=".1" d="M30.449 96.163s.336-.43.156-.797l-.716.412v.706l.56-.321z" fill="#000"/><path d="M30.605 95.366a.881.881 0 0 0-.502-.674c-.334-.144-1.043.15-1.337-.33-.206-.337.02-.776.02-.776l-1.347.774 2.45 1.43.716-.424z" fill="#FF6F00"/><path d="m27.44 94.36-.003.709 2.45 1.417.002-.706-2.45-1.42z" fill="#FF6F00"/><path opacity=".15" d="m27.44 94.36-.003.709 2.45 1.417.002-.706-2.45-1.42z" fill="#000"/><path d="M63.675 68.769a1.59 1.59 0 0 0-.787-1.201.5.5 0 0 0-.528 0l-.504.28 1.126 1.687.499-.3a.457.457 0 0 0 .194-.466z" fill="#455A64"/><path d="M62.367 67.863a1.59 1.59 0 0 1 .786 1.2c.025.458-.284.662-.694.456a1.59 1.59 0 0 1-.787-1.201c-.024-.457.285-.661.695-.455z" fill="#37474F"/><path d="M62.163 68.565c-.01-.18.092-.268.232-.206a.584.584 0 0 1 .268.45c.01.178-.092.267-.233.205a.583.583 0 0 1-.267-.449z" fill="#263238"/><path d="M62.418 68.61a.154.154 0 0 1 .076.116c0 .045-.027.064-.066.045a.154.154 0 0 1-.076-.115c-.012-.046.017-.058.066-.046z" fill="#263238"/><path d="M63.773 68.765a1.69 1.69 0 0 0-.848-1.296.783.783 0 0 0-.352-.093.48.48 0 0 0-.27.077c-.031.018-.429.243-.507.292a.45.45 0 0 0-.085.07.631.631 0 0 0-.154.435l1.703.984.507-.292a.998.998 0 0 0 .006-.177z" fill="#E0E0E0"/><path d="m63.26 69.234-1.703-.982a.633.633 0 0 1 .154-.437.48.48 0 0 1 .355-.146.784.784 0 0 1 .352.093 1.69 1.69 0 0 1 .849 1.295.998.998 0 0 1-.006.177z" fill="#F5F5F5"/><path d="M62.99 34.608a.17.17 0 0 0-.102-.142.533.533 0 0 0-.493 0 .174.174 0 0 0-.103.142v32.96a.175.175 0 0 0 .103.142.532.532 0 0 0 .493 0 .17.17 0 0 0 .103-.142v-32.96z" fill="#37474F"/><path d="M62.395 34.464a.15.15 0 0 0-.073.23.15.15 0 0 0 .073.054.545.545 0 0 0 .493 0 .15.15 0 0 0 0-.284.534.534 0 0 0-.493 0zM62.81 63.732a.173.173 0 0 0-.176.017.545.545 0 0 0-.247.428.174.174 0 0 0 .072.159l15.39 8.885a.17.17 0 0 0 .173-.019.547.547 0 0 0 .248-.426.174.174 0 0 0-.072-.161l-15.389-8.883z" fill="#455A64"/><path d="M78.022 73.202a.17.17 0 0 1-.172.019.177.177 0 0 1-.075-.161.546.546 0 0 1 .247-.427.178.178 0 0 1 .176-.018.176.176 0 0 1 .072.16.547.547 0 0 1-.248.427zM62.81 51.706a.18.18 0 0 0-.176.018.546.546 0 0 0-.247.427.175.175 0 0 0 .072.16l7.484 4.327a.173.173 0 0 0 .175-.017.547.547 0 0 0 .248-.428.174.174 0 0 0-.073-.159l-7.484-4.328z" fill="#455A64"/><path d="M70.118 56.605a.174.174 0 0 1-.175.016.17.17 0 0 1-.072-.158.545.545 0 0 1 .247-.429.15.15 0 0 1 .248.142.546.546 0 0 1-.248.429zM62.81 57.68a.18.18 0 0 0-.176.019.546.546 0 0 0-.247.426.177.177 0 0 0 .072.16l7.484 4.327a.173.173 0 0 0 .175-.017.547.547 0 0 0 .248-.428.174.174 0 0 0-.073-.159L62.81 57.68z" fill="#455A64"/><path d="M70.118 62.577a.173.173 0 0 1-.175.016.17.17 0 0 1-.072-.159.545.545 0 0 1 .247-.428.15.15 0 0 1 .248.142.546.546 0 0 1-.248.429z" fill="#455A64"/><path d="M70.415 50.346a.174.174 0 0 0-.103-.142.532.532 0 0 0-.492 0 .174.174 0 0 0-.103.142v17.84a.175.175 0 0 0 .103.142.545.545 0 0 0 .492 0 .174.174 0 0 0 .103-.142v-17.84z" fill="#37474F"/><path d="M69.82 50.204a.15.15 0 0 0-.074.23.15.15 0 0 0 .074.055.545.545 0 0 0 .492 0 .15.15 0 0 0 .073-.23.15.15 0 0 0-.073-.055.533.533 0 0 0-.492 0z" fill="#455A64"/><path d="M62.81 45.732a.173.173 0 0 0-.176.017.546.546 0 0 0-.247.428.174.174 0 0 0 .072.159l15.39 8.884a.173.173 0 0 0 .173-.016.552.552 0 0 0 .248-.429.174.174 0 0 0-.072-.16l-15.389-8.883z" fill="#455A64"/><path d="M78.022 55.208a.152.152 0 0 1-.235-.053.152.152 0 0 1-.012-.091.547.547 0 0 1 .247-.427.18.18 0 0 1 .176-.018.175.175 0 0 1 .072.16.552.552 0 0 1-.248.429zM62.81 37.914a.173.173 0 0 0-.176.019.547.547 0 0 0-.247.426.179.179 0 0 0 .072.161l15.39 8.885a.175.175 0 0 0 .173-.019.546.546 0 0 0 .258-.418.17.17 0 0 0-.072-.16l-15.399-8.894z" fill="#455A64"/><path d="M78.022 47.38a.15.15 0 0 1-.247-.142.55.55 0 0 1 .247-.429.15.15 0 0 1 .248.145.547.547 0 0 1-.248.426zM79.063 77.662a1.59 1.59 0 0 0-.787-1.201.501.501 0 0 0-.527 0l-.499.266 1.127 1.687.496-.3a.462.462 0 0 0 .19-.452z" fill="#455A64"/><path d="M77.755 76.747a1.58 1.58 0 0 1 .787 1.201c.026.458-.285.662-.692.456a1.58 1.58 0 0 1-.787-1.201c-.019-.458.284-.662.692-.456z" fill="#37474F"/><path d="M77.55 77.456c0-.18.096-.268.234-.206a.578.578 0 0 1 .267.45c.01.178-.092.267-.23.205a.584.584 0 0 1-.27-.449z" fill="#263238"/><path d="M77.798 77.495a.153.153 0 0 1 .074.115c0 .046-.027.064-.066.044a.153.153 0 0 1-.076-.114c-.002-.045.029-.063.068-.045z" fill="#263238"/><path d="M79.162 77.65a1.68 1.68 0 0 0-.849-1.296.776.776 0 0 0-.35-.093.476.476 0 0 0-.27.076c-.031.019-.43.241-.507.293a.463.463 0 0 0-.086.07.63.63 0 0 0-.155.435l1.704.984.507-.292a.84.84 0 0 0 .006-.177z" fill="#E0E0E0"/><path d="m78.649 78.12-1.704-.983a.632.632 0 0 1 .155-.437.48.48 0 0 1 .354-.146.779.779 0 0 1 .352.092 1.679 1.679 0 0 1 .849 1.296.826.826 0 0 1-.006.177z" fill="#F5F5F5"/><path d="M78.379 43.49a.17.17 0 0 0-.101-.141.537.537 0 0 0-.495 0 .176.176 0 0 0-.103.142v32.96a.176.176 0 0 0 .103.142.538.538 0 0 0 .495 0 .171.171 0 0 0 .1-.142V43.49z" fill="#37474F"/><path d="M77.784 43.349a.15.15 0 0 0 0 .284.55.55 0 0 0 .494 0 .15.15 0 0 0 .073-.23.15.15 0 0 0-.073-.054.537.537 0 0 0-.495 0z" fill="#455A64"/><path d="M33.599 80.373a.175.175 0 0 0-.013.175.546.546 0 0 0 .38.317.175.175 0 0 0 .17-.045L62.83 46.35a.175.175 0 0 0 .012-.175.553.553 0 0 0-.379-.315.18.18 0 0 0-.17.043l-28.694 34.47z" fill="#F0F0F0"/><path d="M62.298 64.608a.171.171 0 0 0 .147-.095.551.551 0 0 0 .022-.494.18.18 0 0 0-.138-.11l-28.62-1.285a.172.172 0 0 0-.145.095.549.549 0 0 0-.023.494.18.18 0 0 0 .138.11l28.62 1.285z" fill="#F0F0F0"/><path d="m77.68 53.336-14.72-8.5-28.822 16.686v.98l14.684 8.471 28.852-16.657.006-.98z" fill="#FF6F00"/><path opacity=".3" d="M34.138 61.53v.979l14.69 8.464v-.978l-14.69-8.465z" fill="#000"/><path opacity=".3" d="m48.828 69.995 28.852-16.66-14.72-8.497L34.138 61.53l14.69 8.465z" fill="#fff"/><path d="M48.987 89.258a.175.175 0 0 0-.013.175.552.552 0 0 0 .38.317.175.175 0 0 0 .17-.045l28.694-34.468a.176.176 0 0 0 .013-.175.55.55 0 0 0-.38-.315.173.173 0 0 0-.17.043L48.986 89.258z" fill="#F0F0F0"/><path d="M77.687 73.493a.177.177 0 0 0 .148-.095.544.544 0 0 0 .02-.495.177.177 0 0 0-.137-.109l-28.62-1.285a.173.173 0 0 0-.146.094.55.55 0 0 0-.023.495.179.179 0 0 0 .138.11l28.62 1.285z" fill="#F0F0F0"/><path d="M33.607 54.572a.176.176 0 0 0-.072.16.552.552 0 0 0 .247.429.177.177 0 0 0 .175.016l28.685-16.554a.173.173 0 0 0 .073-.159.548.548 0 0 0-.248-.428.173.173 0 0 0-.175-.017L33.607 54.572z" fill="#455A64"/><path d="M33.784 55.16a.15.15 0 0 0 .247-.144.547.547 0 0 0-.247-.426.178.178 0 0 0-.175-.019.175.175 0 0 0-.072.161.552.552 0 0 0 .247.429z" fill="#455A64"/><path opacity=".1" d="M62.896 56.95c2.201 0 3.986-1.03 3.986-2.3 0-1.271-1.785-2.301-3.986-2.301-2.202 0-3.986 1.03-3.986 2.3 0 1.272 1.785 2.302 3.986 2.302z" fill="#000"/><path d="m66.299 48.931-6.66-.09-.058 5.44c0 .492.316.989.96 1.37 1.294.766 3.401.789 4.712.051.659-.372.988-.865.988-1.361l.058-5.41z" fill="#37474F"/><path d="M60.63 47.493c-1.308.738-1.32 1.955-.029 2.72 1.292.764 3.401.788 4.71.051 1.307-.738 1.322-1.955.028-2.72-1.294-.763-3.401-.782-4.71-.05z" fill="#455A64"/><path d="M66.013 48.91a.846.846 0 0 1-.048.262c-.152.37-.436.67-.797.84a4.943 4.943 0 0 1-4.42-.047 1.613 1.613 0 0 1-.771-.84.825.825 0 0 1-.047-.28c0-.412.302-.798.844-1.098a4.447 4.447 0 0 1 2.213-.5c.77-.01 1.53.178 2.208.545.531.317.822.713.818 1.119z" fill="#263238"/><path d="M65.965 49.172c-.152.37-.436.67-.797.84a4.945 4.945 0 0 1-4.42-.047 1.613 1.613 0 0 1-.771-.84c.15-.369.433-.668.793-.839a4.47 4.47 0 0 1 2.217-.494c.77-.008 1.53.182 2.208.55.348.176.621.47.77.83z" fill="#FF6F00"/><path opacity=".6" d="M65.965 49.172c-.152.37-.436.67-.797.84a4.945 4.945 0 0 1-4.42-.047 1.613 1.613 0 0 1-.771-.84c.15-.369.433-.668.793-.839a4.47 4.47 0 0 1 2.217-.494c.77-.008 1.53.182 2.208.55.348.176.621.47.77.83z" fill="#fff"/><path opacity=".35" d="M65.168 50.013c.105-.062.207-.131.303-.206-1.216.65-3.296.352-3.957-.136-.824-.6-.74-1.387.319-1.778-.372.076-.73.21-1.063.393-.362.17-.646.47-.797.839.146.364.42.663.77.84a4.945 4.945 0 0 0 4.421.048h.004z" fill="#FF6F00"/><path d="M64.39 50.97c.146-.082.261-.014.259.155a.575.575 0 0 1-.268.451c-.144.083-.261.015-.26-.154a.581.581 0 0 1 .268-.451z" fill="#263238"/><path d="M59.629 49.798c-.367.721-1.096 2.44-.149 3.138.04.029.075.055.116.08v.348a4.593 4.593 0 0 1-.286-.191c-1.414-1.049.18-3.737.249-3.85a.138.138 0 0 1 .08-.06l-.01.535z" fill="#E0E0E0"/><path d="M64.513 51.341c-.04.085-1.07 2.06-2.762 2.448a2.56 2.56 0 0 1-.583.068 2.941 2.941 0 0 1-1.576-.493v-.348c.698.486 1.403.653 2.09.492 1.562-.366 2.561-2.282 2.57-2.3a.146.146 0 0 1 .195-.062.143.143 0 0 1 .082.14.14.14 0 0 1-.016.055z" fill="#E0E0E0"/><path d="M34.814 85.428a1.58 1.58 0 0 0-.787-1.2.501.501 0 0 0-.527 0l-.503.28 1.127 1.689.498-.301a.457.457 0 0 0 .192-.468z" fill="#455A64"/><path d="M33.514 84.522a1.59 1.59 0 0 1 .787 1.2c.025.458-.286.66-.694.454a1.58 1.58 0 0 1-.787-1.201c-.027-.457.284-.66.694-.453z" fill="#37474F"/><path d="M33.31 85.222c0-.179.093-.268.23-.206a.58.58 0 0 1 .27.451c.011.18-.094.266-.232.206a.579.579 0 0 1-.268-.45z" fill="#263238"/><path d="M33.555 85.27a.156.156 0 0 1 .077.115c0 .043-.03.064-.068.043a.152.152 0 0 1-.075-.115c-.002-.043.027-.064.066-.043z" fill="#263238"/><path d="M34.92 85.422a1.684 1.684 0 0 0-.85-1.296.774.774 0 0 0-.35-.092.499.499 0 0 0-.27.076c-.03.02-.428.243-.507.292a.41.41 0 0 0-.084.072.618.618 0 0 0-.154.435l1.697.993.507-.295c.009-.06.012-.123.01-.185z" fill="#E0E0E0"/><path d="m34.402 85.902-1.704-.985a.634.634 0 0 1 .157-.434.471.471 0 0 1 .354-.149.755.755 0 0 1 .35.095 1.68 1.68 0 0 1 .85 1.296.84.84 0 0 1-.007.177z" fill="#F5F5F5"/><path d="M34.138 51.263a.175.175 0 0 0-.103-.142.55.55 0 0 0-.494 0 .172.172 0 0 0-.101.142v32.96a.17.17 0 0 0 .1.142.55.55 0 0 0 .495 0 .174.174 0 0 0 .103-.142v-32.96z" fill="#37474F"/><path d="M33.54 51.121a.15.15 0 0 0 0 .285.538.538 0 0 0 .495 0 .15.15 0 0 0 0-.285.55.55 0 0 0-.494 0zM33.957 80.39a.176.176 0 0 0-.175.016.553.553 0 0 0-.247.428.176.176 0 0 0 .072.161l15.388 8.883a.173.173 0 0 0 .175-.017.545.545 0 0 0 .247-.428.173.173 0 0 0-.072-.159L33.957 80.39z" fill="#455A64"/><path d="M49.17 89.861a.15.15 0 0 1-.247-.142.547.547 0 0 1 .247-.428.15.15 0 0 1 .247.142.545.545 0 0 1-.247.428zM33.957 68.359a.174.174 0 0 0-.175.017.553.553 0 0 0-.247.428.176.176 0 0 0 .072.16l7.484 4.327a.177.177 0 0 0 .175-.017.55.55 0 0 0 .245-.428.176.176 0 0 0-.072-.161l-7.482-4.326z" fill="#455A64"/><path d="M41.266 73.264a.177.177 0 0 1-.175.016.173.173 0 0 1-.072-.16.54.54 0 0 1 .247-.427.149.149 0 0 1 .245.142.551.551 0 0 1-.245.429zM33.957 74.331a.173.173 0 0 0-.175.016.547.547 0 0 0-.247.429.17.17 0 0 0 .072.159l7.484 4.326a.18.18 0 0 0 .175-.019.542.542 0 0 0 .245-.426.176.176 0 0 0-.072-.161l-7.482-4.324z" fill="#455A64"/><path d="M41.266 79.234a.178.178 0 0 1-.175.018.176.176 0 0 1-.072-.16.54.54 0 0 1 .247-.427.17.17 0 0 1 .173-.018.176.176 0 0 1 .072.16.544.544 0 0 1-.245.427z" fill="#455A64"/><path d="M41.563 67.004a.176.176 0 0 0-.103-.143.55.55 0 0 0-.495 0 .17.17 0 0 0-.1.143v17.845a.172.172 0 0 0 .1.142.55.55 0 0 0 .495 0 .176.176 0 0 0 .103-.142V67.004z" fill="#37474F"/><path d="M40.965 66.861a.17.17 0 0 0-.1.143.177.177 0 0 0 .1.144.55.55 0 0 0 .495 0 .179.179 0 0 0 .103-.144.176.176 0 0 0-.103-.143.55.55 0 0 0-.495 0z" fill="#455A64"/><path d="M33.957 62.387a.173.173 0 0 0-.175.019.545.545 0 0 0-.247.426.176.176 0 0 0 .072.16l15.388 8.884a.174.174 0 0 0 .175-.017.546.546 0 0 0 .247-.426.175.175 0 0 0-.072-.161l-15.388-8.885z" fill="#455A64"/><path d="M49.17 71.859a.15.15 0 0 1-.247-.142.55.55 0 0 1 .247-.429.173.173 0 0 1 .175-.016.175.175 0 0 1 .072.16.545.545 0 0 1-.247.427zM33.957 54.574a.174.174 0 0 0-.175.016.547.547 0 0 0-.247.428.17.17 0 0 0 .072.16l15.388 8.888a.173.173 0 0 0 .175-.017.551.551 0 0 0 .247-.428.179.179 0 0 0-.072-.16l-15.388-8.887z" fill="#455A64"/><path d="M49.17 64.045a.173.173 0 0 1-.175.017.176.176 0 0 1-.072-.16.546.546 0 0 1 .247-.427.15.15 0 0 1 .247.142.552.552 0 0 1-.247.428z" fill="#455A64"/><path d="M48.995 63.448a.179.179 0 0 0-.072.16.552.552 0 0 0 .247.43.174.174 0 0 0 .175.016l28.686-16.552a.175.175 0 0 0 .072-.161.552.552 0 0 0-.247-.429.172.172 0 0 0-.175-.016L48.994 63.448z" fill="#455A64"/><path d="M49.17 64.045a.174.174 0 0 0 .175.017.175.175 0 0 0 .072-.16.545.545 0 0 0-.247-.427.15.15 0 0 0-.247.142.552.552 0 0 0 .247.428zM50.21 94.313a1.59 1.59 0 0 0-.787-1.201.5.5 0 0 0-.527 0l-.502.28 1.126 1.69.497-.303a.46.46 0 0 0 .193-.466z" fill="#455A64"/><path d="M48.902 93.407a1.59 1.59 0 0 1 .787 1.2c.025.458-.284.66-.694.454a1.59 1.59 0 0 1-.787-1.201c-.025-.457.284-.662.694-.453z" fill="#37474F"/><path d="M48.698 94.107c-.01-.18.095-.268.233-.206a.585.585 0 0 1 .268.451c0 .18-.093.266-.233.196a.575.575 0 0 1-.268-.441z" fill="#263238"/><path d="M48.944 94.154a.15.15 0 0 1 .076.116c0 .043-.027.064-.066.043a.154.154 0 0 1-.076-.115c-.002-.044.026-.056.066-.044z" fill="#263238"/><path d="M50.31 94.307a1.694 1.694 0 0 0-.85-1.296.782.782 0 0 0-.352-.093.498.498 0 0 0-.27.077c-.03.02-.428.243-.504.292a.47.47 0 0 0-.087.072.618.618 0 0 0-.154.435l1.703.984.507-.294a.99.99 0 0 0 .006-.177z" fill="#E0E0E0"/><path d="m49.796 94.778-1.703-.984a.618.618 0 0 1 .154-.435.474.474 0 0 1 .355-.148.76.76 0 0 1 .352.095 1.69 1.69 0 0 1 .849 1.293c.003.06 0 .12-.007.18z" fill="#F5F5F5"/><path d="M49.526 60.152a.17.17 0 0 0-.1-.142.55.55 0 0 0-.495 0 .174.174 0 0 0-.103.142v32.96a.175.175 0 0 0 .103.142.55.55 0 0 0 .495 0 .17.17 0 0 0 .1-.142v-32.96z" fill="#37474F"/><path d="M48.931 60.006a.151.151 0 0 0-.073.23.15.15 0 0 0 .073.054.537.537 0 0 0 .495 0 .15.15 0 0 0 0-.284.551.551 0 0 0-.495 0z" fill="#455A64"/></svg>