<svg width="93" height="93" fill="none" xmlns="http://www.w3.org/2000/svg"><path d="m70.03 31.681 4.377 2.528v2.526l-4.376-2.526v-2.528z" fill="#E0E0E0" opacity=".4"/><path d="m64.929 28.748 4.376 2.526.002 2.528-4.378-2.528v-2.526z" fill="#E0E0E0" opacity=".2"/><path d="m67.644 27.236 4.107 2.372v2.215l-4.107-2.372v-2.215zm-.133-.233v2.526l4.376 2.528V29.53l-4.369-2.526h-.007zM63.23 44.843l4.377 2.526v2.527l-4.376-2.527v-2.526zM85.614 54.948l4.375 2.528.001 2.526-4.376-2.526v-2.528z" fill="#E0E0E0" opacity=".4"/><path d="m58.13 41.91 4.377 2.525v2.528l-4.376-2.528V41.91zM84.714 41.245l4.376 2.528.002 2.526-4.378-2.526v-2.528z" fill="#E0E0E0" opacity=".2"/><path d="m60.846 40.397 4.105 2.37v2.217l-4.105-2.371v-2.216zm-.136-.234v2.528l4.377 2.526V42.69l-4.377-2.528zM82.772 12.402l4.376 2.528.002 2.526-4.378-2.526v-2.527z" fill="#E0E0E0" opacity=".4"/><path d="m77.672 9.47 4.376 2.525v2.528l-4.376-2.528V9.47z" fill="#E0E0E0" opacity=".2"/><path d="m80.387 7.957 4.107 2.372v2.215l-4.107-2.372V7.957zm-.135-.232v2.526l4.378 2.527v-2.527l-4.378-2.526zM65.969 6.29l4.376 2.526v2.526L65.97 8.816V6.291zM68.978 40.795l4.377 2.526v2.528l-4.377-2.528v-2.526z" fill="#E0E0E0" opacity=".4"/><path d="M3.36 84.111a.093.093 0 0 1-.047-.173l46.842-27.046a.095.095 0 0 1 .128.035.093.093 0 0 1-.035.127L3.406 84.098a.087.087 0 0 1-.047.013z" fill="#E0E0E0"/><path d="m10.66 70.7-4.375 2.526-.002 2.528 4.377-2.528v-2.525z" fill="#E0E0E0" opacity=".4"/><path d="M12.921 66.333 8.547 68.86l-.002 2.526 4.376-2.526v-2.526z" fill="#E0E0E0" opacity=".2"/><path d="M7.918 69.378v2.215l-4.107 2.374V71.75l4.107-2.373zm.134-.233-4.377 2.528v2.528l4.377-2.528V69.145zM30.476 31.216 26.1 33.744v2.526l4.377-2.526v-2.528z" fill="#E0E0E0" opacity=".4"/><path d="m35.576 28.283-4.375 2.526-.001 2.528 4.376-2.528v-2.526z" fill="#E0E0E0" opacity=".2"/><path d="M32.862 26.771v2.215l-4.108 2.372v-2.216l4.107-2.371m.134-.233-4.377 2.526v2.528l4.377-2.528v-2.526zM33.322 54.01l-4.377 2.528v2.528l4.377-2.528v-2.527zM14.832 44.138l-4.377 2.526v2.527l4.377-2.527v-2.526z" fill="#E0E0E0" opacity=".4"/><path d="m38.422 51.078-4.377 2.525v2.528l4.377-2.526v-2.527zM17.583 45.966l-4.377 2.526-.002 2.528 4.379-2.528v-2.526z" fill="#E0E0E0" opacity=".2"/><path d="M35.712 49.565v2.216l-4.107 2.371v-2.215l4.107-2.372zm.136-.232-4.377 2.526v2.527l4.377-2.527v-2.526zM27.444 11.433l-4.376 2.526v2.528l4.376-2.528v-2.526zM9.324 13.459 4.95 15.985l-.001 2.528 4.376-2.528v-2.526z" fill="#E0E0E0" opacity=".4"/><path d="m32.544 8.5-4.376 2.526v2.528l4.376-2.528V8.5zM12.075 15.287 7.7 17.813v2.528l4.376-2.528v-2.526z" fill="#E0E0E0" opacity=".2"/><path d="M29.83 6.988v2.215l-4.108 2.372V9.358l4.107-2.37m.134-.234L25.588 9.28v2.526l4.377-2.526V6.754h-.002zM11.405 28.778l-4.374 2.528-.002 2.525 4.377-2.525v-2.528zM35.591 17.575l-4.377 2.526v2.528l4.377-2.528v-2.526zM35.591 42.501l-4.377 2.526v2.528l4.377-2.528V42.5z" fill="#E0E0E0" opacity=".4"/><path d="M8.775 33.394 4.4 35.922l-.002 2.526 4.378-2.526v-2.528z" fill="#E0E0E0" opacity=".2"/><path d="M11.272 35.407v2.215L7.165 39.99v-2.213l4.107-2.37zm.133-.234L7.032 37.7v2.526l4.376-2.526v-2.527h-.002z" fill="#E0E0E0" opacity=".4"/><path d="M17.797 78.78c-.93-.541-2.445-.541-3.378 0-.467.268-.7.625-.7.979 0 .353.233.708.7.978.93.54 2.444.54 3.378 0 .466-.27.7-.625.7-.98 0-.356-.234-.707-.7-.977zM16.452 62.57v-.864a2.433 2.433 0 0 0-1.215-2.106l-1.116-.65c0-.43-.152-.734-.398-.875l-.954-.558c-.246-.143-.584-.123-.96.093a2.995 2.995 0 0 0-1.354 2.345c0 .432.153.735.396.876l.958.558c.246.142.582.121.956-.093l.813.47a.34.34 0 0 1 .171.297v15.642a1.04 1.04 0 0 0-.543.633l3.253-1.879-.007-13.889z" fill="#000" opacity=".15"/><path d="m13.167 56.38.956.558-1.916 3.317-.956-.558c-.245-.142-.398-.445-.398-.876a2.99 2.99 0 0 1 1.354-2.346c.376-.217.714-.238.96-.095z" fill="#FF6F00"/><path d="m13.167 56.38.956.558-1.916 3.317-.956-.558c-.245-.142-.398-.445-.398-.876a2.99 2.99 0 0 1 1.354-2.346c.376-.217.714-.238.96-.095z" fill="#fff" opacity=".65"/><path d="M11.811 59.371a2.991 2.991 0 0 1 1.354-2.345c.744-.432 1.354-.082 1.354.78a2.995 2.995 0 0 1-1.354 2.346c-.748.432-1.354.082-1.354-.78z" fill="#FF6F00"/><path d="M11.811 59.371a2.991 2.991 0 0 1 1.354-2.345c.744-.432 1.354-.082 1.354.78a2.995 2.995 0 0 1-1.354 2.346c-.748.432-1.354.082-1.354-.78z" fill="#fff" opacity=".5"/><path d="M11.811 59.371a2.991 2.991 0 0 1 1.354-2.345c.744-.432 1.354-.082 1.354.78a2.995 2.995 0 0 1-1.354 2.346c-.748.432-1.354.082-1.354-.78z" fill="#000" opacity=".15"/><path d="M12.207 59.148a2.115 2.115 0 0 1 .958-1.66c.528-.304.958-.057.958.559a2.121 2.121 0 0 1-.958 1.659c-.528.294-.958.046-.958-.558z" fill="#000" opacity=".3"/><path d="M13.446 57.645a2.122 2.122 0 0 1-.958 1.66.98.98 0 0 1-.245.098 1.013 1.013 0 0 1-.036-.26 2.115 2.115 0 0 1 .958-1.66c.077-.043.16-.077.246-.1.023.085.034.173.035.262z" fill="#000" opacity=".3"/><path d="m12.488 59.764 2.1 1.21a.346.346 0 0 1 .17.296v18.762h2.707V60.913a2.433 2.433 0 0 0-1.214-2.105l-2.418-1.39a.671.671 0 0 0-.677.065 2.117 2.117 0 0 0-.949 1.665.67.67 0 0 0 .283.62l-.002-.004z" fill="#FF6F00"/><path d="m12.488 59.764 2.1 1.21a.346.346 0 0 1 .17.296v18.762h2.707V60.913a2.433 2.433 0 0 0-1.214-2.105l-2.418-1.39a.671.671 0 0 0-.677.065 2.117 2.117 0 0 0-.949 1.665.67.67 0 0 0 .283.62l-.002-.004z" fill="#fff" opacity=".8"/><path d="m12.488 59.764 2.1 1.21a.346.346 0 0 1 .17.296v18.762h1.004V61.87a2.43 2.43 0 0 0-1.215-2.105l-2.193-1.265a1.802 1.802 0 0 0-.147.638.67.67 0 0 0 .283.62l-.002.007z" fill="#FF6F00" opacity=".3"/><path d="M18.029 78.492v1.116c0 .286-.186.571-.558.787a2.988 2.988 0 0 1-2.716 0c-.372-.216-.558-.5-.558-.783v-1.116h.571a.538.538 0 0 0 .186.39 1.233 1.233 0 0 0 .21.164 2.117 2.117 0 0 0 1.92 0 1.232 1.232 0 0 0 .21-.164.56.56 0 0 0 .186-.39l.549-.004z" fill="#FF6F00"/><path d="M18.029 78.492v1.116c0 .286-.186.571-.558.787a2.988 2.988 0 0 1-2.716 0c-.372-.216-.558-.5-.558-.783v-1.116h.571a.538.538 0 0 0 .186.39 1.233 1.233 0 0 0 .21.164 2.117 2.117 0 0 0 1.92 0 1.232 1.232 0 0 0 .21-.164.56.56 0 0 0 .186-.39l.549-.004z" fill="#fff" opacity=".65"/><path d="M18.029 78.492c0 .283-.186.57-.558.785a3.01 3.01 0 0 1-2.716 0c-.372-.216-.558-.502-.558-.785 0-.283.186-.57.558-.785v.785a.537.537 0 0 0 .186.39 1.236 1.236 0 0 0 .21.164 2.117 2.117 0 0 0 1.92 0 1.241 1.241 0 0 0 .21-.163.56.56 0 0 0 .186-.391v-.785c.374.227.562.504.562.785z" fill="#FF6F00"/><path d="M18.029 78.492c0 .283-.186.57-.558.785a3.01 3.01 0 0 1-2.716 0c-.372-.216-.558-.502-.558-.785 0-.283.186-.57.558-.785v.785a.537.537 0 0 0 .186.39 1.236 1.236 0 0 0 .21.164 2.117 2.117 0 0 0 1.92 0 1.241 1.241 0 0 0 .21-.163.56.56 0 0 0 .186-.391v-.785c.374.227.562.504.562.785z" fill="#fff" opacity=".5"/><path d="M18.029 78.492c0 .283-.186.57-.558.785a3.01 3.01 0 0 1-2.716 0c-.372-.216-.558-.502-.558-.785 0-.283.186-.57.558-.785v.785a.537.537 0 0 0 .186.39 1.236 1.236 0 0 0 .21.164 2.117 2.117 0 0 0 1.92 0 1.241 1.241 0 0 0 .21-.163.56.56 0 0 0 .186-.391v-.785c.374.227.562.504.562.785zM13.894 81.007c-.93-.54-2.444-.54-3.378 0-.466.268-.699.625-.699.98s.233.707.701.976c.93.54 2.442.54 3.376 0 .469-.27.701-.624.701-.98 0-.355-.232-.701-.7-.976zM12.542 63.964a2.43 2.43 0 0 0-1.216-2.106l-1.117-.65c0-.43-.152-.734-.397-.875l-.955-.558c-.245-.143-.584-.123-.96.093a2.997 2.997 0 0 0-1.352 2.345c0 .432.151.735.397.876l.956.558c.245.142.582.121.956-.093l.818.47a.34.34 0 0 1 .171.297v15.642a1.044 1.044 0 0 0-.537.627l3.253-1.879V64.829l-.017-.864z" fill="#000" opacity=".15"/><path d="m9.257 58.638.956.558-1.916 3.317-.956-.558c-.245-.142-.396-.445-.396-.876A2.99 2.99 0 0 1 8.3 58.733c.374-.217.713-.238.958-.095z" fill="#FF6F00"/><path d="m9.257 58.638.956.558-1.916 3.317-.956-.558c-.245-.142-.396-.445-.396-.876A2.99 2.99 0 0 1 8.3 58.733c.374-.217.713-.238.958-.095z" fill="#fff" opacity=".65"/><path d="M7.901 61.63a2.994 2.994 0 0 1 1.354-2.346c.744-.432 1.354-.082 1.354.781a2.993 2.993 0 0 1-1.354 2.345c-.747.432-1.354.086-1.354-.78z" fill="#FF6F00"/><path d="M7.901 61.63a2.994 2.994 0 0 1 1.354-2.346c.744-.432 1.354-.082 1.354.781a2.993 2.993 0 0 1-1.354 2.345c-.747.432-1.354.086-1.354-.78z" fill="#fff" opacity=".5"/><path d="M7.901 61.63a2.994 2.994 0 0 1 1.354-2.346c.744-.432 1.354-.082 1.354.781a2.993 2.993 0 0 1-1.354 2.345c-.747.432-1.354.086-1.354-.78z" fill="#000" opacity=".15"/><path d="M8.3 61.4a2.115 2.115 0 0 1 .955-1.659c.529-.305.958-.057.958.558a2.12 2.12 0 0 1-.958 1.66c-.528.299-.956.051-.956-.559z" fill="#000" opacity=".3"/><path d="M9.536 59.903a2.115 2.115 0 0 1-.958 1.663 1.002 1.002 0 0 1-.243.099.93.93 0 0 1-.036-.26 2.115 2.115 0 0 1 .956-1.66c.078-.043.16-.077.246-.1.023.084.034.17.035.258z" fill="#000" opacity=".3"/><path d="m8.578 62.022 2.1 1.218a.343.343 0 0 1 .171.296v18.628h2.708V63.17a2.432 2.432 0 0 0-1.214-2.105l-2.407-1.39a.674.674 0 0 0-.679.065 2.115 2.115 0 0 0-.956 1.66.67.67 0 0 0 .281.619l-.004.002z" fill="#FF6F00"/><path d="m8.578 62.022 2.1 1.218a.343.343 0 0 1 .171.296v18.628h2.708V63.17a2.432 2.432 0 0 0-1.214-2.105l-2.407-1.39a.674.674 0 0 0-.679.065 2.115 2.115 0 0 0-.956 1.66.67.67 0 0 0 .281.619l-.004.002z" fill="#fff" opacity=".8"/><path d="m8.578 62.022 2.1 1.218a.343.343 0 0 1 .171.296v18.628h1.003V64.133a2.431 2.431 0 0 0-1.215-2.106l-2.19-1.264a1.761 1.761 0 0 0-.148.637.67.67 0 0 0 .281.62l-.002.002z" fill="#FF6F00" opacity=".3"/><path d="M14.12 80.752v1.116c0 .285-.187.57-.559.785a2.977 2.977 0 0 1-2.713 0c-.373-.216-.559-.5-.559-.783v-1.116h.57a.537.537 0 0 0 .186.39 1.108 1.108 0 0 0 .212.164 2.112 2.112 0 0 0 1.917 0 1.224 1.224 0 0 0 .212-.164.557.557 0 0 0 .186-.39l.547-.002z" fill="#FF6F00"/><path d="M14.12 80.752v1.116c0 .285-.187.57-.559.785a2.977 2.977 0 0 1-2.713 0c-.373-.216-.559-.5-.559-.783v-1.116h.57a.537.537 0 0 0 .186.39 1.108 1.108 0 0 0 .212.164 2.112 2.112 0 0 0 1.917 0 1.224 1.224 0 0 0 .212-.164.557.557 0 0 0 .186-.39l.547-.002z" fill="#fff" opacity=".65"/><path d="M14.12 80.752c0 .283-.187.57-.559.785a3.006 3.006 0 0 1-2.713 0c-.373-.216-.559-.502-.559-.785 0-.283.187-.57.559-.785v.789a.539.539 0 0 0 .185.39 1.114 1.114 0 0 0 .212.164 2.113 2.113 0 0 0 1.918 0 1.233 1.233 0 0 0 .212-.164.559.559 0 0 0 .186-.39v-.785c.372.212.558.498.558.78z" fill="#FF6F00"/><path d="M14.12 80.752c0 .283-.187.57-.559.785a3.006 3.006 0 0 1-2.713 0c-.373-.216-.559-.502-.559-.785 0-.283.187-.57.559-.785v.789a.539.539 0 0 0 .185.39 1.114 1.114 0 0 0 .212.164 2.113 2.113 0 0 0 1.918 0 1.233 1.233 0 0 0 .212-.164.559.559 0 0 0 .186-.39v-.785c.372.212.558.498.558.78z" fill="#fff" opacity=".5"/><path d="M14.12 80.752c0 .283-.187.57-.559.785a3.006 3.006 0 0 1-2.713 0c-.373-.216-.559-.502-.559-.785 0-.283.187-.57.559-.785v.789a.539.539 0 0 0 .185.39 1.114 1.114 0 0 0 .212.164 2.113 2.113 0 0 0 1.918 0 1.233 1.233 0 0 0 .212-.164.559.559 0 0 0 .186-.39v-.785c.372.212.558.498.558.78zM47.834 60.636l-1.003-.579c-.257-.15-.614-.13-1.006.097l-.04.028-.686-.398a.348.348 0 0 1-.174-.303V45.942c.387-.221.58-.517.58-.811v-1.14c0-.292-.186-.586-.58-.81V28.273c.387-.223.58-.517.58-.811v-1.14c0-.292-.186-.586-.58-.81V11.382a2.504 2.504 0 0 0-1.254-2.17l-1.148-.672c0-.446-.156-.759-.41-.904l-.986-.567c-.254-.147-.603-.126-.988.097a3.088 3.088 0 0 0-1.397 2.418c0 .446.156.759.41.904l.985.569c.253.145.6.125.986-.097l.831.486a.352.352 0 0 1 .177.305v13.764c-.387.221-.58.517-.58.809v1.142c0 .292.185.586.58.809v14.88c-.387.223-.58.517-.58.809v1.144c0 .29.185.586.58.809V59.82a2.507 2.507 0 0 0 1.254 2.17l1.019.59c0 .452.158.772.416.919l1.005.578c.256.149.612.128 1.004-.099a3.142 3.142 0 0 0 1.421-2.462c0-.424-.16-.742-.416-.88z" fill="#000" opacity=".15"/><path d="m41.536 5.889.986.569-1.974 3.419-.99-.577c-.252-.147-.409-.46-.409-.904a3.085 3.085 0 0 1 1.395-2.418c.389-.212.748-.236.992-.09z" fill="#FF6F00"/><path d="m41.536 5.889.986.569-1.974 3.419-.99-.577c-.252-.147-.409-.46-.409-.904a3.085 3.085 0 0 1 1.395-2.418c.389-.212.748-.236.992-.09z" fill="#fff" opacity=".65"/><path d="M40.137 8.973a3.09 3.09 0 0 1 1.397-2.418c.772-.445 1.397-.084 1.397.805a3.088 3.088 0 0 1-1.397 2.418c-.772.452-1.397.08-1.397-.805z" fill="#FF6F00"/><path d="M40.137 8.973a3.09 3.09 0 0 1 1.397-2.418c.772-.445 1.397-.084 1.397.805a3.088 3.088 0 0 1-1.397 2.418c-.772.452-1.397.08-1.397-.805z" fill="#fff" opacity=".5"/><path d="M40.137 8.973a3.09 3.09 0 0 1 1.397-2.418c.772-.445 1.397-.084 1.397.805a3.088 3.088 0 0 1-1.397 2.418c-.772.452-1.397.08-1.397-.805z" fill="#000" opacity=".15"/><path d="M40.548 8.742a2.183 2.183 0 0 1 .988-1.71c.545-.314.987-.059.987.57a2.182 2.182 0 0 1-.99 1.698c-.544.322-.985.067-.985-.558z" fill="#000" opacity=".3"/><path d="M41.824 7.194a2.185 2.185 0 0 1-.988 1.71c-.08.045-.164.08-.253.104a1.012 1.012 0 0 1-.035-.266 2.183 2.183 0 0 1 .988-1.71c.08-.045.164-.08.253-.104.022.087.034.177.035.266z" fill="#000" opacity=".3"/><path d="M46.147 59.775a.35.35 0 0 1-.177-.303V10.565a2.509 2.509 0 0 0-1.254-2.173l-2.483-1.434a.692.692 0 0 0-.7.07 2.183 2.183 0 0 0-.985 1.714.69.69 0 0 0 .292.64l2.165 1.25a.353.353 0 0 1 .175.305V59.84a2.51 2.51 0 0 0 1.252 2.17l2.485 1.435 1.396-2.418-2.166-1.252z" fill="#FF6F00"/><path d="M46.147 59.775a.35.35 0 0 1-.177-.303V10.565a2.509 2.509 0 0 0-1.254-2.173l-2.483-1.434a.692.692 0 0 0-.7.07 2.183 2.183 0 0 0-.985 1.714.69.69 0 0 0 .292.64l2.165 1.25a.353.353 0 0 1 .175.305V59.84a2.51 2.51 0 0 0 1.252 2.17l2.485 1.435 1.396-2.418-2.166-1.252z" fill="#fff" opacity=".8"/><path d="M44.212 60.463V11.557a2.509 2.509 0 0 0-1.246-2.173l-2.26-1.302a1.827 1.827 0 0 0-.158.66.69.69 0 0 0 .292.64l2.165 1.25a.353.353 0 0 1 .175.305V59.84a2.51 2.51 0 0 0 1.252 2.17l1.596.921.528-.915-2.165-1.25a.349.349 0 0 1-.179-.303z" fill="#FF6F00" opacity=".3"/><path d="m47.878 60.048 1.003.588-2.009 3.47-1.004-.578c-.257-.147-.415-.467-.415-.919a3.145 3.145 0 0 1 1.419-2.464c.392-.227.744-.253 1.006-.097z" fill="#FF6F00"/><path d="m47.878 60.048 1.003.588-2.009 3.47-1.004-.578c-.257-.147-.415-.467-.415-.919a3.145 3.145 0 0 1 1.419-2.464c.392-.227.744-.253 1.006-.097z" fill="#fff" opacity=".65"/><path d="M46.455 63.188a3.144 3.144 0 0 1 1.421-2.463c.785-.452 1.421-.085 1.421.82a3.141 3.141 0 0 1-1.42 2.463c-.785.452-1.422.086-1.422-.82z" fill="#FF6F00"/><path d="M46.455 63.188a3.144 3.144 0 0 1 1.421-2.463c.785-.452 1.421-.085 1.421.82a3.141 3.141 0 0 1-1.42 2.463c-.785.452-1.422.086-1.422-.82z" fill="#fff" opacity=".5"/><path d="M46.455 63.188a3.144 3.144 0 0 1 1.421-2.463c.785-.452 1.421-.085 1.421.82a3.141 3.141 0 0 1-1.42 2.463c-.785.452-1.422.086-1.422-.82z" fill="#000" opacity=".15"/><path d="M46.872 62.948a2.218 2.218 0 0 1 1.004-1.741c.558-.32 1.005-.061 1.005.58a2.22 2.22 0 0 1-1.005 1.74c-.556.321-1.004.06-1.004-.579z" fill="#000" opacity=".3"/><path d="M48.174 61.38a2.22 2.22 0 0 1-1.004 1.741c-.08.046-.167.081-.257.104a1.022 1.022 0 0 1-.037-.273 2.218 2.218 0 0 1 1.004-1.741c.08-.047.167-.082.257-.106.024.09.037.182.037.275z" fill="#000" opacity=".3"/><path d="M46.55 26.328v1.14c0 .294-.186.588-.58.811a3.085 3.085 0 0 1-2.801 0c-.389-.223-.58-.517-.58-.809v-1.142h.587a.557.557 0 0 0 .186.402l.047.045c.053.046.11.088.17.124a2.183 2.183 0 0 0 1.98 0 1.16 1.16 0 0 0 .171-.124l.047-.045a.56.56 0 0 0 .185-.402h.588z" fill="#FF6F00"/><path d="M46.55 26.328v1.14c0 .294-.186.588-.58.811a3.085 3.085 0 0 1-2.801 0c-.389-.223-.58-.517-.58-.809v-1.142h.587a.557.557 0 0 0 .186.402l.047.045c.053.046.11.088.17.124a2.183 2.183 0 0 0 1.98 0 1.16 1.16 0 0 0 .171-.124l.047-.045a.56.56 0 0 0 .185-.402h.588z" fill="#fff" opacity=".65"/><path d="M46.55 26.328c0 .292-.186.586-.58.81a3.109 3.109 0 0 1-2.801 0c-.389-.224-.58-.518-.58-.81 0-.292.185-.587.58-.809v.815a.559.559 0 0 0 .186.402l.046.044c.053.047.11.089.171.125a2.184 2.184 0 0 0 1.98 0 1.17 1.17 0 0 0 .17-.125l.047-.044a.557.557 0 0 0 .186-.402v-.815c.404.222.595.521.595.81z" fill="#FF6F00"/><path d="M46.55 26.328c0 .292-.186.586-.58.81a3.109 3.109 0 0 1-2.801 0c-.389-.224-.58-.518-.58-.81 0-.292.185-.587.58-.809v.815a.559.559 0 0 0 .186.402l.046.044c.053.047.11.089.171.125a2.184 2.184 0 0 0 1.98 0 1.17 1.17 0 0 0 .17-.125l.047-.044a.557.557 0 0 0 .186-.402v-.815c.404.222.595.521.595.81z" fill="#fff" opacity=".5"/><path d="M46.55 26.328c0 .292-.186.586-.58.81a3.109 3.109 0 0 1-2.801 0c-.389-.224-.58-.518-.58-.81 0-.292.185-.587.58-.809v.815a.559.559 0 0 0 .186.402l.046.044c.053.047.11.089.171.125a2.184 2.184 0 0 0 1.98 0 1.17 1.17 0 0 0 .17-.125l.047-.044a.557.557 0 0 0 .186-.402v-.815c.404.222.595.521.595.81z" fill="#000" opacity=".15"/><path d="M46.55 43.982v1.14c0 .295-.186.59-.58.81a3.085 3.085 0 0 1-2.801 0c-.389-.22-.58-.515-.58-.806v-1.144h.587a.558.558 0 0 0 .186.403l.047.045c.053.045.11.086.17.123a2.172 2.172 0 0 0 1.98 0c.06-.037.117-.078.171-.123l.047-.045a.57.57 0 0 0 .185-.403h.588z" fill="#FF6F00"/><path d="M46.55 43.982v1.14c0 .295-.186.59-.58.81a3.085 3.085 0 0 1-2.801 0c-.389-.22-.58-.515-.58-.806v-1.144h.587a.558.558 0 0 0 .186.403l.047.045c.053.045.11.086.17.123a2.172 2.172 0 0 0 1.98 0c.06-.037.117-.078.171-.123l.047-.045a.57.57 0 0 0 .185-.403h.588z" fill="#fff" opacity=".65"/><path d="M46.55 43.982c0 .292-.186.586-.58.809a3.109 3.109 0 0 1-2.801 0c-.389-.223-.575-.523-.575-.81 0-.286.186-.585.58-.809v.815a.558.558 0 0 0 .186.404l.047.044c.054.046.11.087.17.123a2.173 2.173 0 0 0 1.98 0c.06-.036.117-.077.171-.123l.047-.044a.573.573 0 0 0 .186-.404v-.809c.398.218.59.512.59.804z" fill="#FF6F00"/><path d="M46.55 43.982c0 .292-.186.586-.58.809a3.109 3.109 0 0 1-2.801 0c-.389-.223-.575-.523-.575-.81 0-.286.186-.585.58-.809v.815a.558.558 0 0 0 .186.404l.047.044c.054.046.11.087.17.123a2.173 2.173 0 0 0 1.98 0c.06-.036.117-.077.171-.123l.047-.044a.573.573 0 0 0 .186-.404v-.809c.398.218.59.512.59.804z" fill="#fff" opacity=".5"/><path d="M46.55 43.982c0 .292-.186.586-.58.809a3.109 3.109 0 0 1-2.801 0c-.389-.223-.575-.523-.575-.81 0-.286.186-.585.58-.809v.815a.558.558 0 0 0 .186.404l.047.044c.054.046.11.087.17.123a2.173 2.173 0 0 0 1.98 0c.06-.036.117-.077.171-.123l.047-.044a.573.573 0 0 0 .186-.404v-.809c.398.218.59.512.59.804zM43.297 63.24l-1-.577c-.257-.15-.614-.13-1.007.097-.015 0-.026.019-.039.026l-.686-.396a.35.35 0 0 1-.186-.303V48.546c.389-.223.58-.517.58-.811v-1.14c0-.292-.186-.586-.58-.81V30.894c.389-.224.58-.517.58-.811V28.94c0-.29-.186-.586-.58-.808V13.995a2.51 2.51 0 0 0-1.254-2.173l-1.138-.662c0-.446-.158-.759-.411-.906l-.984-.582c-.253-.147-.603-.126-.99.097a3.087 3.087 0 0 0-1.395 2.418c0 .446.157.759.408.904l.987.57c.253.146.601.125.986-.096l.831.485a.354.354 0 0 1 .175.305V28.12c-.394.235-.58.525-.58.82v1.145c0 .292.186.585.58.809v14.88c-.388.223-.58.517-.58.809v1.142c0 .292.186.588.58.809v13.904a2.51 2.51 0 0 0 1.252 2.17l1.021.59c0 .452.158.77.415.919l1.006.58c.257.149.612.126 1.005-.099a3.143 3.143 0 0 0 1.417-2.438c0-.454-.154-.772-.413-.919z" fill="#000" opacity=".15"/><path d="m37.001 8.502.986.558-1.976 3.43-.987-.57c-.253-.146-.41-.459-.41-.903a3.093 3.093 0 0 1 1.398-2.418c.386-.229.736-.246.989-.097z" fill="#FF6F00"/><path d="m37.001 8.502.986.558-1.976 3.43-.987-.57c-.253-.146-.41-.459-.41-.903a3.093 3.093 0 0 1 1.398-2.418c.386-.229.736-.246.989-.097z" fill="#fff" opacity=".65"/><path d="M35.602 11.586A3.081 3.081 0 0 1 37 9.168c.772-.446 1.397-.086 1.397.805a3.092 3.092 0 0 1-1.397 2.418c-.772.443-1.397.086-1.397-.805z" fill="#FF6F00"/><path d="M35.602 11.586A3.081 3.081 0 0 1 37 9.168c.772-.446 1.397-.086 1.397.805a3.092 3.092 0 0 1-1.397 2.418c-.772.443-1.397.086-1.397-.805z" fill="#fff" opacity=".5"/><path d="M35.602 11.586A3.081 3.081 0 0 1 37 9.168c.772-.446 1.397-.086 1.397.805a3.092 3.092 0 0 1-1.397 2.418c-.772.443-1.397.086-1.397-.805z" fill="#000" opacity=".15"/><path d="M36.011 11.346A2.183 2.183 0 0 1 37 9.636c.545-.316.988-.059.988.57a2.187 2.187 0 0 1-.988 1.711c-.543.318-.988.063-.988-.571z" fill="#000" opacity=".3"/><path d="M37.287 9.806a2.182 2.182 0 0 1-.985 1.711c-.08.045-.165.08-.253.104a1.001 1.001 0 0 1-.038-.271A2.183 2.183 0 0 1 37 9.64a.986.986 0 0 1 .253-.104c.023.088.035.179.035.27z" fill="#000" opacity=".3"/><path d="M41.61 62.388a.351.351 0 0 1-.175-.303V13.176a2.507 2.507 0 0 0-1.259-2.17l-2.483-1.434a.692.692 0 0 0-.7.068 2.184 2.184 0 0 0-.982 1.706.693.693 0 0 0 .29.64l2.166 1.25a.352.352 0 0 1 .175.303v48.918a2.506 2.506 0 0 0 1.253 2.17l2.485 1.435 1.397-2.418-2.167-1.256z" fill="#FF6F00"/><path d="M41.61 62.388a.351.351 0 0 1-.175-.303V13.176a2.507 2.507 0 0 0-1.259-2.17l-2.483-1.434a.692.692 0 0 0-.7.068 2.184 2.184 0 0 0-.982 1.706.693.693 0 0 0 .29.64l2.166 1.25a.352.352 0 0 1 .175.303v48.918a2.506 2.506 0 0 0 1.253 2.17l2.485 1.435 1.397-2.418-2.167-1.256z" fill="#fff" opacity=".8"/><path d="M39.678 63.076V14.173a2.506 2.506 0 0 0-1.254-2.17l-2.26-1.302c-.09.208-.143.431-.153.658a.693.693 0 0 0 .29.64l2.166 1.25a.352.352 0 0 1 .175.303V62.47a2.507 2.507 0 0 0 1.253 2.17l1.596.921.526-.915-2.165-1.25a.35.35 0 0 1-.174-.32z" fill="#FF6F00" opacity=".3"/><path d="m43.338 62.661 1.002.579-2.01 3.48-1.005-.58c-.256-.15-.416-.467-.416-.92a3.142 3.142 0 0 1 1.42-2.462c.4-.227.756-.247 1.009-.097z" fill="#FF6F00"/><path d="m43.338 62.661 1.002.579-2.01 3.48-1.005-.58c-.256-.15-.416-.467-.416-.92a3.142 3.142 0 0 1 1.42-2.462c.4-.227.756-.247 1.009-.097z" fill="#fff" opacity=".65"/><path d="M41.92 65.801a3.142 3.142 0 0 1 1.418-2.462c.785-.452 1.421-.086 1.421.82a3.15 3.15 0 0 1-1.421 2.462c-.781.453-1.42.086-1.417-.82z" fill="#FF6F00"/><path d="M41.92 65.801a3.142 3.142 0 0 1 1.418-2.462c.785-.452 1.421-.086 1.421.82a3.15 3.15 0 0 1-1.421 2.462c-.781.453-1.42.086-1.417-.82z" fill="#fff" opacity=".5"/><path d="M41.92 65.801a3.142 3.142 0 0 1 1.418-2.462c.785-.452 1.421-.086 1.421.82a3.15 3.15 0 0 1-1.421 2.462c-.781.453-1.42.086-1.417-.82z" fill="#000" opacity=".15"/><path d="M42.336 65.56a2.216 2.216 0 0 1 1.006-1.74c.558-.322 1.004-.061 1.004.579a2.22 2.22 0 0 1-1.004 1.74c-.562.32-1.006.062-1.006-.58z" fill="#000" opacity=".3"/><path d="M43.636 63.984a2.222 2.222 0 0 1-1.007 1.74c-.08.047-.167.082-.256.105a1.107 1.107 0 0 1-.037-.275 2.217 2.217 0 0 1 1.006-1.74c.08-.046.166-.082.256-.105.024.09.037.182.038.275z" fill="#000" opacity=".3"/><path d="M42.016 28.94v1.142c0 .294-.186.587-.58.81a3.085 3.085 0 0 1-2.802 0c-.389-.223-.582-.516-.582-.808V28.94h.59a.558.558 0 0 0 .185.403l.047.045c.054.046.11.088.171.125a2.183 2.183 0 0 0 1.98 0c.06-.037.117-.079.17-.125l.047-.045a.567.567 0 0 0 .186-.403h.588z" fill="#FF6F00"/><path d="M42.016 28.94v1.142c0 .294-.186.587-.58.81a3.085 3.085 0 0 1-2.802 0c-.389-.223-.582-.516-.582-.808V28.94h.59a.558.558 0 0 0 .185.403l.047.045c.054.046.11.088.171.125a2.183 2.183 0 0 0 1.98 0c.06-.037.117-.079.17-.125l.047-.045a.567.567 0 0 0 .186-.403h.588z" fill="#fff" opacity=".65"/><path d="M42.016 28.94c0 .292-.186.587-.58.809a3.097 3.097 0 0 1-2.802 0c-.389-.221-.582-.517-.582-.81 0-.291.186-.585.582-.808v.813a.558.558 0 0 0 .186.403l.047.045c.053.046.11.088.17.124a2.183 2.183 0 0 0 1.98 0c.06-.036.117-.078.17-.124l.047-.045a.567.567 0 0 0 .186-.404v-.809c.402.22.596.51.596.806z" fill="#FF6F00"/><path d="M42.016 28.94c0 .292-.186.587-.58.809a3.097 3.097 0 0 1-2.802 0c-.389-.221-.582-.517-.582-.81 0-.291.186-.585.582-.808v.813a.558.558 0 0 0 .186.403l.047.045c.053.046.11.088.17.124a2.183 2.183 0 0 0 1.98 0c.06-.036.117-.078.17-.124l.047-.045a.567.567 0 0 0 .186-.404v-.809c.402.22.596.51.596.806z" fill="#fff" opacity=".5"/><path d="M42.016 28.94c0 .292-.186.587-.58.809a3.097 3.097 0 0 1-2.802 0c-.389-.221-.582-.517-.582-.81 0-.291.186-.585.582-.808v.813a.558.558 0 0 0 .186.403l.047.045c.053.046.11.088.17.124a2.183 2.183 0 0 0 1.98 0c.06-.036.117-.078.17-.124l.047-.045a.567.567 0 0 0 .186-.404v-.809c.402.22.596.51.596.806z" fill="#000" opacity=".15"/><path d="M42.016 46.595v1.14c0 .294-.186.59-.58.811a3.085 3.085 0 0 1-2.802 0c-.389-.221-.582-.517-.582-.81v-1.141h.59a.558.558 0 0 0 .185.404l.047.044c.054.046.11.087.171.123a2.184 2.184 0 0 0 1.98 0c.06-.036.117-.077.17-.123l.047-.044a.57.57 0 0 0 .186-.404h.588z" fill="#FF6F00"/><path d="M42.016 46.595v1.14c0 .294-.186.59-.58.811a3.085 3.085 0 0 1-2.802 0c-.389-.221-.582-.517-.582-.81v-1.141h.59a.558.558 0 0 0 .185.404l.047.044c.054.046.11.087.171.123a2.184 2.184 0 0 0 1.98 0c.06-.036.117-.077.17-.123l.047-.044a.57.57 0 0 0 .186-.404h.588z" fill="#fff" opacity=".65"/><path d="M42.016 46.595c0 .292-.186.586-.58.809a3.108 3.108 0 0 1-2.802 0c-.389-.223-.582-.517-.582-.81 0-.291.186-.585.582-.808v.814a.558.558 0 0 0 .186.404l.047.045c.053.045.11.086.17.123a2.184 2.184 0 0 0 1.98 0 1.31 1.31 0 0 0 .17-.123l.047-.045a.572.572 0 0 0 .186-.404v-.809c.402.218.596.512.596.804z" fill="#FF6F00"/><path d="M42.016 46.595c0 .292-.186.586-.58.809a3.108 3.108 0 0 1-2.802 0c-.389-.223-.582-.517-.582-.81 0-.291.186-.585.582-.808v.814a.558.558 0 0 0 .186.404l.047.045c.053.045.11.086.17.123a2.184 2.184 0 0 0 1.98 0 1.31 1.31 0 0 0 .17-.123l.047-.045a.572.572 0 0 0 .186-.404v-.809c.402.218.596.512.596.804z" fill="#fff" opacity=".5"/><path d="M42.016 46.595c0 .292-.186.586-.58.809a3.108 3.108 0 0 1-2.802 0c-.389-.223-.582-.517-.582-.81 0-.291.186-.585.582-.808v.814a.558.558 0 0 0 .186.404l.047.045c.053.045.11.086.17.123a2.184 2.184 0 0 0 1.98 0 1.31 1.31 0 0 0 .17-.123l.047-.045a.572.572 0 0 0 .186-.404v-.809c.402.218.596.512.596.804z" fill="#000" opacity=".15"/><path d="M39.568 60.474a.643.643 0 0 0-.296-.508.206.206 0 0 0-.208-.02L25.296 67.89a.202.202 0 0 0-.086.186.654.654 0 0 0 .294.508.21.21 0 0 0 .209.02l13.764-7.947a.211.211 0 0 0 .09-.183z" fill="#FF6F00"/><path opacity=".8" d="M39.568 60.474a.643.643 0 0 0-.296-.508.206.206 0 0 0-.208-.02L25.296 67.89a.202.202 0 0 0-.086.186.654.654 0 0 0 .294.508.21.21 0 0 0 .209.02l13.764-7.947a.211.211 0 0 0 .09-.183z" fill="#fff"/><path opacity=".3" d="M25.506 68.591a.21.21 0 0 0 .209.02l13.763-7.947a.21.21 0 0 0 .086-.186.559.559 0 0 0-.061-.229l-14.168 8.184a.588.588 0 0 0 .171.158z" fill="#FF6F00"/><path d="M25.506 68.591c.164.093.296.017.296-.17a.652.652 0 0 0-.296-.509c-.163-.093-.296-.016-.294.171a.654.654 0 0 0 .294.508zM33.368 63.858c-.206.002-.41-.05-.59-.153-.405-.234-.637-.707-.637-1.302v-8.79h.948v8.796a.558.558 0 0 0 .164.476c.1.057.288.02.493-.097l1.116-.642a2.548 2.548 0 0 0 1.133-1.962v-8.796h.947v8.796a3.509 3.509 0 0 1-1.604 2.79l-1.114.638c-.259.155-.554.24-.856.245z" fill="#FF6F00"/><path d="M33.368 63.858c-.206.002-.41-.05-.59-.153-.405-.234-.637-.707-.637-1.302v-8.79h.948v8.796a.558.558 0 0 0 .164.476c.1.057.288.02.493-.097l1.116-.642a2.548 2.548 0 0 0 1.133-1.962v-8.796h.947v8.796a3.509 3.509 0 0 1-1.604 2.79l-1.114.638c-.259.155-.554.24-.856.245z" fill="#fff" opacity=".8"/><g opacity=".3" fill="#FF6F00"><path d="M32.14 54.597v.66l.95-.549v-.66l-.95.549zM36.934 51.829l-.947.547v.66l.947-.547v-.66z"/></g><g opacity=".15" fill="#000"><path d="M32.14 54.597v.66l.95-.549v-.66l-.95.549zM36.934 51.829l-.947.547v.66l.947-.547v-.66z"/></g><path d="M32.736 58.925a.652.652 0 0 0-.296-.51.205.205 0 0 0-.208-.018l-6.936 4.008a.202.202 0 0 0-.086.186.65.65 0 0 0 .294.508.207.207 0 0 0 .209.02l6.941-4.01a.204.204 0 0 0 .082-.184z" fill="#FF6F00"/><path opacity=".8" d="M32.736 58.925a.652.652 0 0 0-.296-.51.205.205 0 0 0-.208-.018l-6.936 4.008a.202.202 0 0 0-.086.186.65.65 0 0 0 .294.508.207.207 0 0 0 .209.02l6.941-4.01a.204.204 0 0 0 .082-.184z" fill="#fff"/><path opacity=".3" d="M25.506 63.102a.206.206 0 0 0 .209.02l6.941-4.01a.204.204 0 0 0 .086-.185.59.59 0 0 0-.06-.23L25.34 62.94c.043.066.1.121.167.163z" fill="#FF6F00"/><path d="M25.506 63.102c.164.095.296.019.296-.169a.65.65 0 0 0-.296-.508c-.163-.094-.296-.018-.294.17a.65.65 0 0 0 .294.507zM39.566 50.294a1.058 1.058 0 0 0-.484-.833.34.34 0 0 0-.34-.033l-13.392 7.74a.331.331 0 0 0-.14.31 1.066 1.066 0 0 0 .484.833.34.34 0 0 0 .34.033l13.392-7.739a.341.341 0 0 0 .14-.31z" fill="#FF6F00"/><path opacity=".8" d="M39.566 50.294a1.058 1.058 0 0 0-.484-.833.34.34 0 0 0-.34-.033l-13.392 7.74a.331.331 0 0 0-.14.31 1.066 1.066 0 0 0 .484.833.34.34 0 0 0 .34.033l13.392-7.739a.341.341 0 0 0 .14-.31z" fill="#fff"/><path opacity=".3" d="M25.696 58.311a.338.338 0 0 0 .34.033l13.392-7.739a.343.343 0 0 0 .14-.31.91.91 0 0 0-.099-.373l-14.048 8.11a.93.93 0 0 0 .275.279z" fill="#FF6F00"/><path d="M25.696 58.311c.266.153.482.028.482-.279a1.066 1.066 0 0 0-.484-.833c-.268-.153-.484-.028-.482.279a1.064 1.064 0 0 0 .484.833z" fill="#FF6F00"/><path d="M33.264 63.567a2.83 2.83 0 0 1 1.29-2.22c.354-.203.674-.222.907-.088l.658.372c.233.134.372.42.372.828a2.844 2.844 0 0 1-1.29 2.22c-.354.205-.674.224-.906.09l-.663-.383c-.226-.127-.368-.402-.368-.819z" fill="#37474F"/><path d="M35.202 64.687c-.708.41-1.283.078-1.283-.744a2.828 2.828 0 0 1 1.289-2.22c.712-.408 1.287-.077 1.285.743a2.847 2.847 0 0 1-1.29 2.221z" fill="#455A64"/><path d="M35.204 64.375c-.558.323-1.014.061-1.014-.584a2.231 2.231 0 0 1 1.018-1.753c.558-.321 1.016-.061 1.014.585a2.24 2.24 0 0 1-1.018 1.752z" fill="#FAFAFA"/><path d="m35.284 63.203-.078-1.005-.08 1.005h.158z" fill="#FF6F00"/><path d="M35.206 63.402c-.093.054-.17.01-.17-.097a.372.372 0 0 1 .17-.292c.093-.054.17-.011.17.097a.372.372 0 0 1-.17.292z" fill="#455A64"/><path d="M39.568 35.34a.836.836 0 0 0-.383-.658.269.269 0 0 0-.268-.026l-12.539 7.24a.268.268 0 0 0-.111.246.848.848 0 0 0 .381.657.26.26 0 0 0 .268.026l12.542-7.241a.27.27 0 0 0 .11-.244z" fill="#FF6F00"/><path opacity=".8" d="M39.568 35.34a.836.836 0 0 0-.383-.658.269.269 0 0 0-.268-.026l-12.539 7.24a.268.268 0 0 0-.111.246.848.848 0 0 0 .381.657.26.26 0 0 0 .268.026l12.542-7.241a.27.27 0 0 0 .11-.244z" fill="#fff"/><path opacity=".3" d="M26.648 42.802a.26.26 0 0 0 .268.026l12.542-7.24a.27.27 0 0 0 .11-.244.73.73 0 0 0-.078-.296l-13.06 7.546a.745.745 0 0 0 .218.208z" fill="#FF6F00"/><path d="M26.648 42.802c.21.121.372.025.372-.22a.835.835 0 0 0-.383-.656c-.21-.12-.372-.022-.372.22a.846.846 0 0 0 .383.656z" fill="#FF6F00"/><path d="M32.489 42.122c-.244 0-.483-.064-.694-.186-.495-.287-.768-.875-.768-1.656 0-1.53 1.078-3.4 2.405-4.166.677-.39 1.322-.448 1.819-.162.496.286.768.874.768 1.655 0 1.531-1.08 3.4-2.407 4.167a2.277 2.277 0 0 1-1.123.348zm1.116-5.688c-1.226.708-2.232 2.436-2.232 3.854 0 .647.208 1.116.587 1.343.38.226.897.161 1.457-.162 1.227-.709 2.232-2.439 2.232-3.854 0-.648-.209-1.116-.588-1.343-.38-.227-.897-.162-1.458.162h.002z" fill="#455A64"/><path d="m33.613 38.796-.18.313 1.636.944.18-.312-1.636-.945z" fill="#455A64"/><path d="m35.746 37.461-2.315 1.337.18.312 2.315-1.336-.18-.313z" fill="#455A64"/><path d="M33.703 36.277h-.36v2.673h.36v-2.673z" fill="#455A64"/><path d="m31.976 37.85-.18.312 1.636.945.18-.313-1.636-.944z" fill="#455A64"/><path d="m33.565 38.954-2.326 1.336.18.314 2.326-1.336-.18-.314z" fill="#455A64"/><path d="M33.703 38.95h-.36v2.673h.36V38.95z" fill="#455A64"/><path d="M33.523 38.258a.372.372 0 0 1 .6.346 1.328 1.328 0 0 1-.6 1.04.37.37 0 0 1-.601-.346 1.328 1.328 0 0 1 .6-1.04z" fill="#FF6F00"/><path opacity=".2" d="M33.523 38.258a.372.372 0 0 1 .6.346 1.328 1.328 0 0 1-.6 1.04.37.37 0 0 1-.601-.346 1.328 1.328 0 0 1 .6-1.04z" fill="#000"/><path d="M33.748 38.387a.372.372 0 0 1 .6.347 1.328 1.328 0 0 1-.6 1.04.429.429 0 0 1-.426.043.424.424 0 0 1-.175-.389 1.326 1.326 0 0 1 .6-1.041z" fill="#FF6F00"/><path d="M45.89 39.006a.547.547 0 0 0-.558.054 1.729 1.729 0 0 0-.783 1.356.546.546 0 0 0 .23.508l.173.098a.547.547 0 0 0 .559-.054 1.734 1.734 0 0 0 .782-1.356.557.557 0 0 0-.23-.506l-.173-.1z" fill="#37474F"/><path d="M44.56 40.295v.12a.548.548 0 0 0 .23.509l.174.098a.547.547 0 0 0 .558-.054c.033-.02.067-.042.1-.067l-1.062-.606z" fill="#263238"/><path d="M44.727 40.516c0 .5.35.702.784.452a1.734 1.734 0 0 0 .782-1.356c0-.5-.351-.7-.782-.452a1.728 1.728 0 0 0-.784 1.356z" fill="#455A64"/><path d="M46.152 40.953a.22.22 0 0 0 .225-.022.703.703 0 0 0 .318-.558.22.22 0 0 0-.093-.204l-.846-.484a.229.229 0 0 0-.225.022.705.705 0 0 0-.318.558.22.22 0 0 0 .093.205l.846.483z" fill="#455A64"/><path opacity=".1" d="m46.686 40.3-1.083-.624a.353.353 0 0 0-.145.083l1.213.7h.017a.487.487 0 0 0 0-.073.355.355 0 0 0-.002-.085z" fill="#fff"/><path d="M46.377 40.931a.534.534 0 0 0 .112-.087l-.664-.385c-.242-.14-.413-.209-.447-.398a.36.36 0 0 1 .175-.372l-.024.013a.706.706 0 0 0-.318.558.222.222 0 0 0 .093.204l.848.49a.22.22 0 0 0 .225-.023z" fill="#37474F"/><path d="M48 41.13a.259.259 0 0 0-.055-.17l-.017-.016-.014-.011c-.114-.065-.458-.504-.785-.694-.328-.19-.413 0-.523-.061a.222.222 0 0 0-.225.024.697.697 0 0 0-.318.558.219.219 0 0 0 .093.205c.11.063.212.362.519.54.307.18.673.146.785.211a.22.22 0 0 0 .225-.022.698.698 0 0 0 .318-.558l-.004-.006z" fill="#455A64"/><path opacity=".1" d="M47.78 41.138a.157.157 0 0 0 .163-.036.218.218 0 0 0-.046-.102.07.07 0 0 0-.017-.017l-.015-.01c-.113-.066-.448-.468-.785-.693a.66.66 0 0 0-.271-.119c-.052 0-.093.024-.13.028a.837.837 0 0 1 .544.372c.144.228.334.425.557.577z" fill="#fff"/><path d="M47.655 41.683c-.113-.095-.316-.105-.603-.218a.991.991 0 0 1-.569-.724c-.042-.292.019-.558.186-.558a.118.118 0 0 1-.061-.014.221.221 0 0 0-.225.024.699.699 0 0 0-.318.558.219.219 0 0 0 .093.204c.11.064.212.363.519.542.307.178.673.145.785.21a.213.213 0 0 0 .206-.011.04.04 0 0 0-.013-.013zM47.616 42.685a.269.269 0 0 0 .156.22.845.845 0 0 0 .76 0 .27.27 0 0 0 .155-.22v-.43a.268.268 0 0 0-.156-.219.84.84 0 0 0-.759 0 .268.268 0 0 0-.156.22v.43z" fill="#37474F"/><path d="M48.691 42.255a.269.269 0 0 0-.156-.219.84.84 0 0 0-.759 0 .23.23 0 0 0 0 .437.839.839 0 0 0 .759 0 .264.264 0 0 0 .156-.218z" fill="#455A64"/><path d="M48.605 42.222v-.275a1.062 1.062 0 0 0-.533-.93l-.16-.093a.219.219 0 0 0-.23.018.704.704 0 0 0-.319.558.22.22 0 0 0 .093.205l.115.067a.27.27 0 0 1 .136.232v.218a.221.221 0 0 0 .13.186.698.698 0 0 0 .636 0 .225.225 0 0 0 .133-.186z" fill="#455A64"/><path opacity=".1" d="M48.557 41.96a1.048 1.048 0 0 0-.523-.906l-.249-.143-.176.1.308.186a.93.93 0 0 1 .463.804v.452a.485.485 0 0 0 .095-.041.343.343 0 0 0 .084-.065l-.002-.387z" fill="#fff"/><path d="M47.912 40.931a.217.217 0 0 0-.21.019.764.764 0 0 0-.339.547.54.54 0 0 1 .04-.224.728.728 0 0 1 .113-.199.587.587 0 0 1 .186-.147.332.332 0 0 1 .111-.03c.036.001.07.013.099.034z" fill="#37474F"/><path d="M47.943 41.962c0-.255-.074-.322-.212-.4-.137-.078-.308-.23-.271-.372a.65.65 0 0 0-.097.32.22.22 0 0 0 .093.204l.115.067a.27.27 0 0 1 .136.233v.208a.221.221 0 0 0 .13.186.698.698 0 0 0 .636 0 .466.466 0 0 1-.413-.087.414.414 0 0 1-.117-.36z" fill="#37474F"/><path d="M47.837 42.408c.067.032.14.053.214.06.073.01.147.01.22 0a.557.557 0 0 0 .208-.07.225.225 0 0 0 .127-.167.17.17 0 0 1-.034.106.285.285 0 0 1-.084.08.57.57 0 0 1-.212.077.726.726 0 0 1-.229 0 .536.536 0 0 1-.21-.086z" fill="#37474F"/><path d="M48.118 39.06a.212.212 0 0 0-.212-.212.215.215 0 0 0-.104.026c-.186.11-.508.398-.591.448a.063.063 0 0 0-.022.054.186.186 0 0 0 .085.147.059.059 0 0 0 .06 0c.094-.048.496-.186.678-.284a.213.213 0 0 0 .106-.179z" fill="#FF6F00"/><path opacity=".25" d="M47.72 38.97a.033.033 0 0 0 0 .034c0 .011.023.015.052.015h.12a.267.267 0 0 0 .1-.017c.078-.037.013-.113-.058-.117a.247.247 0 0 0-.214.086z" fill="#fff"/><path opacity=".2" d="M47.845 39.231a4.56 4.56 0 0 0-.616.255.19.19 0 0 0 .041.035.06.06 0 0 0 .06 0c.094-.048.496-.186.678-.284a.214.214 0 0 0 .11-.186.206.206 0 0 0-.033-.112c.03.084-.006.221-.24.292z" fill="#000"/><path d="M47.184 39.374a.185.185 0 0 0 .086.147c.046.026.084 0 .084-.048a.185.185 0 0 0-.084-.147c-.047-.028-.086-.006-.086.048z" fill="#FF6F00"/><path opacity=".3" d="M47.184 39.374a.185.185 0 0 0 .086.147c.046.026.084 0 .084-.048a.185.185 0 0 0-.084-.147c-.047-.028-.086-.006-.086.048z" fill="#000"/><path d="M46.664 40.548a.212.212 0 0 0 .126.186.675.675 0 0 0 .612 0 .217.217 0 0 0 .127-.186v-.632a.214.214 0 0 0-.127-.177.67.67 0 0 0-.612 0 .21.21 0 0 0-.126.177v.632z" fill="#37474F"/><path d="M46.883 39.698a.464.464 0 0 0-.093.04.21.21 0 0 0-.126.178v.632a.213.213 0 0 0 .126.186c.03.017.06.03.093.04v-1.076z" fill="#263238"/><path d="M47.529 39.916a.214.214 0 0 0-.127-.177.67.67 0 0 0-.612 0 .185.185 0 0 0-.092.286.185.185 0 0 0 .092.067.68.68 0 0 0 .612 0 .22.22 0 0 0 .127-.186" fill="#455A64"/><path d="M46.813 39.871a.143.143 0 0 0 .081.115.443.443 0 0 0 .402 0 .141.141 0 0 0 .084-.115v-.498a.14.14 0 0 0-.084-.116.436.436 0 0 0-.402 0 .138.138 0 0 0-.081.116v.498z" fill="#37474F"/><path d="M46.883 39.265a.136.136 0 0 0-.07.108v.498a.136.136 0 0 0 .07.108v-.714z" fill="#263238"/><path d="M47.38 39.373a.14.14 0 0 0-.084-.116.436.436 0 0 0-.402 0 .123.123 0 0 0 0 .23.438.438 0 0 0 .402 0 .14.14 0 0 0 .084-.114z" fill="#455A64"/><path d="M46.969 39.694a.185.185 0 0 0-.086-.147.06.06 0 0 0-.06 0c-.094.049-.496.186-.678.287a.208.208 0 0 0-.108.186.212.212 0 0 0 .314.186c.186-.11.508-.398.592-.449a.063.063 0 0 0 .026-.063z" fill="#FF6F00"/><path opacity=".25" d="M46.089 39.96a.137.137 0 0 0 .032.11.106.106 0 0 0 .107.032.04.04 0 0 0 .034-.026.042.042 0 0 0 0-.034.29.29 0 0 0-.022-.026.166.166 0 0 1-.04-.095.14.14 0 0 0 0-.04c-.04-.06-.106.022-.111.08z" fill="#fff"/><path opacity=".2" d="M46.944 39.748a.063.063 0 0 0 .023-.054.175.175 0 0 0 0-.04c-.187.12-.366.253-.534.4-.186.161-.314.122-.372.059a.206.206 0 0 0 .186.111.217.217 0 0 0 .104-.026c.186-.11.508-.398.592-.448l.002-.002z" fill="#000"/><path d="M47.244 39.307a.24.24 0 0 0-.147-.052.22.22 0 0 0-.125.04l-.016.01c-.049.041-.043.097.02.133a.271.271 0 0 0 .251 0 .088.088 0 0 0 .052-.073.076.076 0 0 0-.035-.058z" fill="#FF6F00"/><path opacity=".25" d="m47.148 39.29.042.012a.146.146 0 0 0-.048-.024h-.017a.102.102 0 0 0 .023.013z" fill="#fff"/><path opacity=".2" d="m47.18 39.313-.066-.01v-.035h-.037v.036a.368.368 0 0 0-.066.01v.027a.372.372 0 0 1 .066 0v.056h.037v-.056a.375.375 0 0 1 .067 0v-.028z" fill="#000"/><path opacity=".2" d="M47.011 39.315a.374.374 0 0 1 .067-.011v.013a.253.253 0 0 0-.067.01v-.012zM47.182 39.313v.014a.26.26 0 0 0-.068-.01v-.013l.068.01zM47.115 39.268h-.038v.015h.038v-.015z" fill="#000"/><path d="M52.153 76.368c0-.668.442-1.337 1.326-1.847 1.767-1.02 4.631-1.02 6.396 0 .884.51 1.326 1.18 1.326 1.847v1.027c0 .667-.442 1.337-1.326 1.847-1.765 1.019-4.63 1.019-6.396 0-.884-.51-1.326-1.18-1.326-1.847v-1.027z" fill="#37474F"/><path d="M52.154 76.368c0 .668.441 1.335 1.325 1.847 1.767 1.02 4.631 1.02 6.396 0 .884-.512 1.325-1.18 1.325-1.847a1.78 1.78 0 0 0-.465-1.157v.878a1.523 1.523 0 0 1-.298.882c-.237.319-.541.583-.891.773-1.585.915-4.153.915-5.738 0-.792-.457-1.189-1.056-1.189-1.655v-.878a1.78 1.78 0 0 0-.465 1.157z" fill="#455A64"/><path d="M50.374 65.524a6.906 6.906 0 0 1 10.36 5.982v4.581c0 .6-.396 1.2-1.188 1.657-1.585.915-4.153.915-5.738 0-.792-.457-1.189-1.056-1.189-1.657V73.6l-12.815 7.401-4.064-7.029 14.634-8.448z" fill="#37474F"/><path opacity=".05" d="M36.934 73.842c.294.071.575.185.835.338a5.236 5.236 0 0 1 1.39 1.22l4.1-2.369 5.075-2.928c.582-.334 2.193-1.26 2.43-1.382 1.043-.543 2.231-1.011 3.356-1.1.888-.071 1.626.11 2.482.291.344.073.79.157 1.099-.065.363-.26.297-.801.099-1.147-.711-1.226-2.668-1.628-3.972-1.628a6.453 6.453 0 0 0-3.214.872l-13.68 7.898z" fill="#fff"/><path opacity=".15" d="M55.223 78.274a5.023 5.023 0 0 1-1.415-.53c-.792-.457-1.189-1.056-1.189-1.657V73.6l.95-.558a1.102 1.102 0 0 1 1.654.954v4.278z" fill="#000"/><path d="M40.64 79.145c0 1.828-1.286 2.57-2.87 1.655-1.586-.915-2.87-3.14-2.87-4.97 0-1.83 1.284-2.57 2.87-1.655 1.584.915 2.87 3.14 2.87 4.97z" fill="#263238"/><path d="M39.06 80.724c.696 0 1.116-.586 1.116-1.57 0-1.648-1.205-3.733-2.63-4.557a2.167 2.167 0 0 0-1.044-.327c-.695 0-1.116.586-1.116 1.57 0 1.648 1.206 3.733 2.63 4.557.315.196.674.309 1.044.327z" fill="#000"/><path d="m50.289 75.484.89-.515c.58-.333.93-1.05.93-2.07 0-2.046-1.431-4.52-3.197-5.54-.883-.51-1.683-.557-2.263-.224l-.887.513-.064.04-.057.038-.065.049-.058.048-.043.04c-.038.033-.073.07-.106.109-.028.03-.054.063-.082.097l-.035.052a1.97 1.97 0 0 0-.11.173l-.031.063c-.023.04-.041.085-.062.13l-.028.069-.026.069.761-.44c.277-.154.596-.22.911-.185.396.047.776.178 1.116.385 1.583.917 2.868 3.14 2.868 4.97 0 .915-.321 1.558-.84 1.86l-.76.439.073.01.073.01c.048.007.096.011.145.013h.337c.04 0 .083-.013.124-.022.05-.01.1-.022.15-.037l.053-.017.07-.026.075-.032.069-.037.069-.032z" fill="#455A64"/><path d="M50.289 75.484c.58-.334.93-1.05.93-2.072 0-2.046-1.432-4.52-3.197-5.539-.884-.51-1.684-.558-2.264-.225a1.789 1.789 0 0 0-.768.982l.76-.439c.277-.155.596-.22.912-.186.395.046.776.177 1.116.383 1.584.917 2.87 3.142 2.87 4.97 0 .915-.322 1.56-.84 1.86l-.76.44c.421.094.862.033 1.24-.174z" fill="#263238"/><path d="m43.797 79.236.89-.513c.578-.335.93-1.051.93-2.07 0-2.047-1.433-4.52-3.2-5.541-.883-.51-1.674-.558-2.261-.224l-.89.514-.063.039-.057.039a.732.732 0 0 0-.121.096l-.043.038a2 2 0 0 0-.108.11l-.08.098-.037.05a1.832 1.832 0 0 0-.201.368.452.452 0 0 0-.028.07.575.575 0 0 0-.026.068l.759-.439c.277-.155.597-.22.913-.186a2.77 2.77 0 0 1 1.116.385c1.585.915 2.868 3.14 2.868 4.97 0 .915-.32 1.559-.839 1.86l-.76.437.072.013h.075c.048 0 .096.011.143.013h.338l.125-.02c.052-.011.1-.023.149-.037l.054-.019a.61.61 0 0 0 .07-.026.529.529 0 0 0 .075-.032l.063-.03.074-.031z" fill="#455A64"/><path d="M43.797 79.236c.579-.333.93-1.05.93-2.07 0-2.046-1.432-4.52-3.199-5.541-.883-.51-1.683-.558-2.261-.223-.368.223-.641.572-.77.982l.76-.44c.277-.155.596-.22.912-.185.395.046.776.178 1.116.385 1.582.915 2.868 3.14 2.868 4.97 0 .915-.32 1.558-.84 1.86l-.76.439c.423.094.865.03 1.244-.177z" fill="#263238"/><path d="m19.076 16.327.904.52-4.637 8.032-.908-.513c-.593-.342-.96-1.077-.96-2.122 0-2.09 1.468-4.634 3.28-5.679.915-.536 1.728-.584 2.321-.238z" fill="#455A64"/><path d="M14.383 22.757c0-2.092 1.468-4.635 3.28-5.68 1.811-1.046 3.277-.198 3.277 1.893 0 2.09-1.468 4.633-3.27 5.679-1.802 1.045-3.287.199-3.287-1.892z" fill="#37474F"/><path d="M15.343 22.2c0-1.476 1.038-3.274 2.32-4.013 1.281-.738 2.317-.145 2.317 1.343s-1.038 3.272-2.31 4.01c-1.272.739-2.327.14-2.327-1.34z" fill="#37474F"/><path d="M18.341 18.578c0 1.488-1.037 3.277-2.319 4.015-.183.107-.38.189-.584.244a2.459 2.459 0 0 1-.086-.636c0-1.477 1.038-3.276 2.32-4.014a2.46 2.46 0 0 1 .591-.244c.055.207.081.42.078.635z" fill="#263238"/><path d="M27.924 55.594v11.561a2.232 2.232 0 0 0 1.116 1.935l7.648 4.415c-2.568-.312-5.354 2.437-8.104 4.684l-4.25-2.455a9.028 9.028 0 0 1-4.514-7.812V55.594h8.104z" fill="#455A64"/><path d="M19.82 55.593v9.181c.047.558.443 1.117 1.185 1.542 1.477.854 3.81.912 5.394.172.113-.052.225-.11.331-.172.772-.446 1.168-1.026 1.185-1.61v-9.114l-8.095.002z" fill="#455A64"/><path d="M21.446 67.959a7.335 7.335 0 0 0 3.634 6.333l5.1 2.976-1.596.93-4.25-2.455a9.028 9.028 0 0 1-4.514-7.812V55.594h1.626v12.365z" fill="#37474F"/><path opacity=".1" d="m31.806 73.494-5.009-2.892a3.322 3.322 0 0 1-1.661-2.88V55.595h2.79v11.561a2.233 2.233 0 0 0 1.116 1.935l3.549 2.046-.785 2.358z" fill="#fff"/><path d="M19.818 64.39v.385c.047.557.443 1.115 1.185 1.541 1.477.854 3.81.912 5.394.171.114-.051.225-.11.331-.17.772-.447 1.168-1.027 1.185-1.611v-.311.037c-.017.584-.413 1.166-1.185 1.613a3.988 3.988 0 0 1-.33.171c-1.593.744-3.925.68-5.395-.171-.744-.43-1.138-.982-1.185-1.544v-.011c.002-.034 0-.067 0-.1zM26.622 59.814a.244.244 0 1 0 .487.004.244.244 0 0 0-.487-.004zm-1.733.649a.244.244 0 0 0 .416.172.244.244 0 1 0-.416-.172zm-4.254-.65a.244.244 0 1 0 .487.004.244.244 0 0 0-.487-.003zm1.733.65a.244.244 0 0 0 .416.172.244.244 0 1 0-.416-.172z" fill="#263238"/><path d="m28.514 76.275 3.988 2.303a6.607 6.607 0 0 1 1.789-3.65l-3.534-2.046a7.012 7.012 0 0 1-2.243 3.393zm3.906-1.91a.242.242 0 1 1 .09.33.242.242 0 0 1-.083-.33h-.007zm-1.26 2.181a.243.243 0 0 1 .37-.059.242.242 0 0 1-.282.39.242.242 0 0 1-.08-.33h-.007z" fill="#455A64"/><path d="M31.588 76.788a.242.242 0 1 0-.42-.238.242.242 0 0 0 .42.238zM30.861 78.371a.244.244 0 1 0 .423.244.244.244 0 0 0-.423-.244zM25.121 74.817v.186c.008.196.036.391.084.582.021.09.049.177.084.262l.037.091c.026.059.055.116.087.171a1.517 1.517 0 0 0 .34.407.735.735 0 0 0 .088.07.915.915 0 0 0 .113.074l.744.428a3.11 3.11 0 0 0 1.23-.43c.203-.118.398-.25.582-.396a7.01 7.01 0 0 0 2.247-3.385c.153-.496.233-1.01.238-1.53a3.218 3.218 0 0 0-.24-1.279l-.744-.43c-.718-.416-1.817-.173-2.976.917a6.239 6.239 0 0 0-1.773 3.073 4.461 4.461 0 0 0-.141 1.188z" fill="#455A64"/><path d="m26.702 77.1 6.592 3.81c-.511-.303-.828-.941-.828-1.849 0-.162.01-.323.03-.483l-3.982-2.303a4.884 4.884 0 0 1-.582.396 3.11 3.11 0 0 1-1.23.43zm4.16 1.271a.246.246 0 0 1 .332-.09.243.243 0 1 1-.333.09z" fill="#37474F"/><path d="M30.861 78.371a.244.244 0 1 0 .423.244.244.244 0 0 0-.423-.244zM25.121 74.817v.186c.008.196.036.391.084.582.023.089.05.176.084.262.013.032.024.062.037.091.028.06.056.117.087.171l.049.079a1.533 1.533 0 0 0 .292.329.735.735 0 0 0 .087.069.915.915 0 0 0 .113.074l.744.428a3.11 3.11 0 0 0 1.23-.43c.203-.118.398-.25.582-.396l-.755-.437-2.481-1.425-.125-.073a4.44 4.44 0 0 0-.028.49z" fill="#37474F"/><path d="m26.933 70.68.108.061 3.004 1.736.716.41 3.534 2.047c.308-.325.66-.605 1.047-.832.79-.457 1.507-.5 2.025-.2l-6.604-3.815-.745-.43c-.717-.417-1.817-.173-2.976.917l-.11.106zm6.919 2.507a.242.242 0 1 1 .418.242.242.242 0 0 1-.418-.242z" fill="#455A64"/><g opacity=".1" fill="#fff"><path d="m26.933 70.68.108.061 3.004 1.736.716.41 3.534 2.047c.308-.325.66-.605 1.047-.832.79-.457 1.507-.5 2.025-.2l-6.604-3.815-.745-.43c-.717-.417-1.817-.173-2.976.917l-.11.106zm6.919 2.507a.242.242 0 1 1 .418.242.242.242 0 0 1-.418-.242z"/><path d="M33.852 73.187a.242.242 0 1 0 .42.24.242.242 0 0 0-.42-.24z"/></g><path d="M32.517 74.696a.242.242 0 1 0 .24-.42.242.242 0 0 0-.24.42zm1.428-1.178a.242.242 0 1 0 .24-.42.242.242 0 0 0-.24.42zm-2.697 3.36a.244.244 0 1 0 .248-.42.244.244 0 0 0-.248.42zm-.305 1.826a.243.243 0 0 0 .357-.274.244.244 0 0 0-.446-.059.246.246 0 0 0 .096.333h-.007zM24.885 74.679c0 .908.316 1.546.828 1.849l.236.136c-.515-.3-.835-.942-.835-1.86 0-.162.01-.324.03-.484a6.598 6.598 0 0 1 1.796-3.64c.309-.324.66-.604 1.046-.831.792-.458 1.508-.5 2.027-.201l-.236-.136c-.52-.3-1.235-.257-2.026.2a4.789 4.789 0 0 0-1.047.832 6.607 6.607 0 0 0-1.78 3.651c-.023.16-.036.322-.04.484z" fill="#263238"/><path d="m36.1 80.657 4.093 2.355a6.607 6.607 0 0 1 1.79-3.65l-3.632-2.09a7.009 7.009 0 0 1-2.25 3.385zm4.015-1.86a.242.242 0 0 1 .442.058.241.241 0 1 1-.442-.056v-.002zm-1.26 2.182a.241.241 0 1 1 0 .002v-.002z" fill="#455A64"/><path d="M39.276 81.222a.242.242 0 1 0-.421-.238.242.242 0 0 0 .42.239zM38.548 82.805a.243.243 0 1 0 .422.243.243.243 0 0 0-.422-.243zM32.708 79.199v.186c.008.196.036.391.084.582.021.09.049.177.084.262.013.032.024.062.037.091a1.659 1.659 0 0 0 .372.529l.056.05a.743.743 0 0 0 .087.069.912.912 0 0 0 .113.074l.744.428a3.109 3.109 0 0 0 1.23-.43c.203-.118.398-.25.582-.396a7.01 7.01 0 0 0 2.247-3.385c.153-.496.233-1.01.238-1.53a3.218 3.218 0 0 0-.24-1.279l-.744-.43c-.718-.416-1.817-.172-2.976.918a6.239 6.239 0 0 0-1.773 3.072 4.438 4.438 0 0 0-.141 1.189z" fill="#455A64"/><path d="m34.29 81.483 6.695 3.861c-.511-.303-.828-.94-.828-1.849 0-.161.01-.323.03-.483l-4.092-2.355a4.868 4.868 0 0 1-.582.396 3.11 3.11 0 0 1-1.224.43zm4.258 1.322a.246.246 0 0 1 .333-.089.243.243 0 1 1-.333.09z" fill="#37474F"/><path d="M38.548 82.805a.243.243 0 1 0 .422.243.243.243 0 0 0-.422-.243zM32.708 79.199v.186c.008.196.036.391.084.582.023.089.05.177.084.262.013.032.024.062.037.091.028.06.056.118.087.172l.048.078a1.517 1.517 0 0 0 .237.279l.056.05a.754.754 0 0 0 .087.069.935.935 0 0 0 .113.074l.744.428a3.11 3.11 0 0 0 1.23-.43c.203-.118.398-.25.582-.396l-.757-.424-2.485-1.434-.125-.073a4.447 4.447 0 0 0-.022.486z" fill="#37474F"/><path d="m34.52 75.064.108.061 3.004 1.736.716.41 3.63 2.091a4.786 4.786 0 0 1 1.047-.83c.791-.459 1.507-.501 2.026-.202l-6.705-3.867-.744-.43c-.718-.416-1.817-.172-2.976.918l-.106.113zm7.023 2.558a.243.243 0 0 1 .369-.061.241.241 0 1 1-.369.06z" fill="#455A64"/><g opacity=".1" fill="#fff"><path d="m34.52 75.064.108.061 3.004 1.736.716.41 3.63 2.091a4.786 4.786 0 0 1 1.047-.83c.791-.459 1.507-.501 2.026-.202l-6.705-3.867-.744-.43c-.718-.416-1.817-.172-2.976.918l-.106.113zm7.023 2.558a.243.243 0 0 1 .369-.061.241.241 0 1 1-.369.06z"/><path d="M41.543 77.621a.242.242 0 1 0 .42.24.242.242 0 0 0-.42-.24z"/></g><path d="M40.204 79.13a.242.242 0 1 0 .24-.42.242.242 0 0 0-.24.42zm1.428-1.177a.242.242 0 1 0 .24-.42.242.242 0 0 0-.24.42zm-2.69 3.359a.244.244 0 1 0 .249-.42.244.244 0 0 0-.248.42zm-.304 1.83a.243.243 0 0 0 .282-.394.243.243 0 1 0-.282.394zM32.472 79.061c0 .908.316 1.546.828 1.849l.236.136c-.515-.3-.835-.941-.835-1.86 0-.162.01-.323.03-.484a6.598 6.598 0 0 1 1.79-3.647 4.88 4.88 0 0 1 1.046-.832c.792-.457 1.508-.5 2.027-.2l-.236-.136c-.519-.3-1.235-.257-2.025.2a4.787 4.787 0 0 0-1.048.832 6.606 6.606 0 0 0-1.789 3.65 3.883 3.883 0 0 0-.024.492z" fill="#263238"/><path d="m45.36 77.66.902.521-4.637 8.032-.908-.523c-.591-.342-.96-1.077-.96-2.122 0-2.09 1.47-4.633 3.28-5.679.907-.526 1.73-.574 2.323-.228z" fill="#37474F"/><path d="M40.665 84.09c0-2.092 1.468-4.635 3.28-5.68 1.811-1.045 3.279-.197 3.279 1.894 0 2.09-1.47 4.633-3.28 5.678-1.81 1.046-3.279.2-3.279-1.891z" fill="#455A64"/><path d="M41.627 83.534c0-1.476 1.038-3.275 2.317-4.013 1.28-.739 2.318-.142 2.318 1.337 0 1.479-1.038 3.277-2.318 4.016-1.28.738-2.317.14-2.317-1.34z" fill="#37474F"/><path d="M44.623 79.911c0 1.479-1.038 3.278-2.317 4.016a2.47 2.47 0 0 1-.594.244 2.446 2.446 0 0 1-.085-.637c0-1.476 1.038-3.275 2.317-4.013.187-.107.386-.19.594-.244.056.207.085.42.085.634z" fill="#263238"/><path d="M19.262 56.514v-1.041h9.274v1.047c0 .684-.452 1.37-1.358 1.893-1.81 1.046-4.746 1.046-6.556 0-.906-.524-1.364-1.212-1.36-1.899z" fill="#37474F"/><path d="M27.177 57.364c-1.812 1.046-4.747 1.046-6.559 0-1.811-1.045-1.81-2.74 0-3.785s4.747-1.045 6.559 0c1.811 1.045 1.81 2.74 0 3.785z" fill="#455A64"/><path d="M26.215 56.81c-1.28.744-3.348.744-4.635 0s-1.282-1.94-.004-2.684c1.278-.744 3.348-.744 4.635 0s1.285 1.946.004 2.684z" fill="#37474F"/><path d="M21.576 56.027c1.28-.744 3.348-.744 4.637 0 .185.108.355.24.506.392a2.47 2.47 0 0 1-.508.391c-1.28.744-3.348.744-4.635 0a2.421 2.421 0 0 1-.508-.393 2.47 2.47 0 0 1 .508-.39z" fill="#263238"/><path d="M19.846 43.07V28.15a2.232 2.232 0 0 0-1.116-1.935l-2.14-1.235 4.041-7.031 2.79 1.618a9.03 9.03 0 0 1 4.516 7.823v15.68h-8.09z" fill="#455A64"/><path opacity=".1" d="M22.108 21.691a6.289 6.289 0 0 1 3.05 5.394V42.18l2.79-1.367V27.39a9.012 9.012 0 0 0-3.061-6.777 6.528 6.528 0 0 0-.458-.372 8.701 8.701 0 0 0-.993-.674l-2.79-1.618-.558 2.48 2.02 1.262z" fill="#fff"/><path d="M21.435 39.99V27.965a3.613 3.613 0 0 0-1.82-3.134l-1.454-.82-1.572.969 2.141 1.235a2.232 2.232 0 0 1 1.116 1.934V39.3l1.589.691z" fill="#37474F"/><path d="m18.395 24.152-.234-.141a6.618 6.618 0 0 1 1.784-3.657l.692.405a7.027 7.027 0 0 1-2.242 3.393zm-.308-4.362a.241.241 0 1 1 .416.243.241.241 0 0 1-.416-.243zm-1.256 2.186a.243.243 0 0 1 .369-.057.242.242 0 0 1-.281.39.244.244 0 0 1-.088-.333z" fill="#455A64"/><path d="M17.25 22.218a.242.242 0 1 0-.422-.238.242.242 0 0 0 .422.238zM16.524 23.808a.246.246 0 0 0 .18.364.24.24 0 0 0 .24-.12.244.244 0 1 0-.42-.244z" fill="#455A64"/><path d="M15.014 22.692v.186c.008.197.036.393.084.584.02.09.047.177.082.262.013.032.024.062.037.091a1.649 1.649 0 0 0 .28.438c.02.022.04.043.062.063a.15.15 0 0 0 .03.03l.056.05a.735.735 0 0 0 .087.069.77.77 0 0 0 .112.074l.743.43a3.09 3.09 0 0 0 1.228-.417c.203-.117.397-.25.58-.396a7.027 7.027 0 0 0 2.232-3.393 5.422 5.422 0 0 0 .237-1.53 3.217 3.217 0 0 0-.242-1.28l-.744-.43c-.716-.418-1.81-.186-2.96.915a6.262 6.262 0 0 0-1.768 3.079c-.053.228-.093.459-.12.692-.014.16-.02.322-.016.483z" fill="#455A64"/><path d="M16.524 23.808a.246.246 0 0 0 .18.364.24.24 0 0 0 .24-.12.244.244 0 1 0-.42-.244z" fill="#37474F"/><path d="M15.014 22.692v.186c.008.197.036.393.084.584.024.093.052.186.082.262.013.032.024.062.037.091a1.836 1.836 0 0 0 .136.251 1.517 1.517 0 0 0 .236.28l.056.05a.746.746 0 0 0 .087.069.788.788 0 0 0 .112.074l.743.43a3.09 3.09 0 0 0 1.228-.417c.203-.117.397-.25.58-.396l-.753-.44-2.477-1.435-.123-.073a4.44 4.44 0 0 0-.028.484z" fill="#37474F"/><g opacity=".1" fill="#fff"><path d="m20.631 17.949-.744-.43c-.716-.418-1.81-.186-2.96.915l-.109.114.108.061 2.995 1.74.714.41a5.422 5.422 0 0 0 .236-1.53 3.218 3.218 0 0 0-.24-1.28zm-.701.904a.242.242 0 1 1-.417-.245.242.242 0 0 1 .417.245z"/><path d="M19.51 18.611a.243.243 0 0 0 .273.355.243.243 0 0 0 .13-.383.244.244 0 0 0-.257-.087.24.24 0 0 0-.146.115z"/></g><path d="M18.174 20.122a.241.241 0 1 0 .243-.418.241.241 0 0 0-.243.418zm1.425-1.18a.242.242 0 0 0 .313-.36.244.244 0 0 0-.071-.062.244.244 0 0 0-.242.422zm-2.673 3.367a.243.243 0 1 0 .246-.42.243.243 0 0 0-.246.42zm-.305 1.828a.24.24 0 0 0 .331-.09.243.243 0 0 0-.274-.357.244.244 0 0 0-.057.447zM20.904 35.5a.243.243 0 0 0-.047.483.243.243 0 1 0 .047-.483zm1.734.65a.244.244 0 0 0-.172.415.243.243 0 1 0 .172-.416zm4.254-.65a.245.245 0 0 0-.241.29.243.243 0 1 0 .24-.29zm-1.734.65a.244.244 0 1 0-.004.487.244.244 0 0 0 .004-.488zM19.844 28.216v.383c.047.558.443 1.116 1.185 1.542.142.082.289.155.44.22 1.169.468 2.448.59 3.686.351.44-.08.868-.214 1.276-.4.113-.052.225-.11.33-.17.773-.447 1.169-1.027 1.186-1.611v-.311.037c-.017.584-.413 1.166-1.185 1.613-.106.061-.218.119-.331.17a5.435 5.435 0 0 1-1.276.399 6.56 6.56 0 0 1-3.687-.352 4.173 4.173 0 0 1-.439-.217c-.744-.43-1.138-.982-1.185-1.544v-.111.001zM23.003 19.322l-.238-.138-.049-.026a.403.403 0 0 0-.048-.026c-.51-.242-1.185-.175-1.927.255a4.07 4.07 0 0 0-.41.27 6.564 6.564 0 0 0-2.15 3.016c-.15.421-.247.858-.291 1.302-.012.125-.017.25-.017.372 0 .891.305 1.526.803 1.832l.03.02.238.137a.113.113 0 0 1-.031-.02c-.499-.308-.804-.942-.804-1.833 0-.124.005-.248.017-.372.043-.444.14-.882.292-1.302a6.568 6.568 0 0 1 2.148-3.017c.13-.099.267-.19.41-.271.743-.428 1.418-.495 1.928-.255l.045.024.054.032z" fill="#263238"/><path d="M19.846 46.26v9.064h8.104v-9.071c-.017.584-.413 1.166-1.185 1.612-.106.062-.217.12-.33.171a5.44 5.44 0 0 1-1.277.398 6.561 6.561 0 0 1-3.686-.351 4.193 4.193 0 0 1-.44-.218c-.743-.43-1.137-.982-1.184-1.544v-.06h-.002z" fill="#455A64"/><path d="M19.846 55.324c0 .599.396 1.198 1.187 1.655l.106.058.108.056.225.102c1.169.47 2.449.594 3.686.355l.218-.044a5.043 5.043 0 0 0 .63-.18l.2-.075.186-.078h.013c.06-.026.12-.056.186-.086.065-.03.12-.063.186-.097.79-.457 1.186-1.056 1.186-1.655v-9.082c-.017.584-.413 1.166-1.185 1.612-.106.062-.217.12-.33.171a5.438 5.438 0 0 1-1.277.398 6.56 6.56 0 0 1-3.686-.351 4.185 4.185 0 0 1-.44-.218c-.743-.43-1.137-.982-1.184-1.544v9.003h-.015z" fill="#455A64"/><path d="M19.846 55.324c0 .599.396 1.198 1.187 1.655l.106.058.108.056.225.102v-9.114a4.193 4.193 0 0 1-.44-.218c-.743-.43-1.137-.982-1.184-1.543v9.002l-.002.002z" fill="#37474F"/><path opacity=".1" d="M25.158 48.434v9.114l.218-.044a4.975 4.975 0 0 0 .63-.18l.2-.075.186-.078h.013c.06-.026.12-.056.186-.086.065-.03.12-.063.186-.096.79-.458 1.186-1.057 1.186-1.656v-9.08c-.017.584-.413 1.166-1.185 1.612-.106.062-.217.12-.33.171-.412.186-.845.32-1.29.398z" fill="#fff"/><path d="M19.844 46.21v.383c.047.558.443 1.116 1.185 1.542.142.082.289.155.44.22 1.169.468 2.448.59 3.686.351.44-.08.868-.215 1.276-.4.113-.052.225-.11.33-.171.773-.447 1.169-1.027 1.186-1.61v-.311.037c-.017.584-.413 1.166-1.185 1.612a3.958 3.958 0 0 1-.331.172 5.43 5.43 0 0 1-1.276.398 6.56 6.56 0 0 1-3.687-.352 4.193 4.193 0 0 1-.439-.218c-.744-.43-1.138-.982-1.185-1.543V46.21zM20.904 53.853a.244.244 0 1 0 0 .487.244.244 0 0 0 0-.487zm1.734.649a.244.244 0 1 0 .244.243.244.244 0 0 0-.244-.247v.004zm4.254-.65a.244.244 0 1 0-.004.488.244.244 0 0 0 .004-.487zm-1.734.646a.243.243 0 0 0-.175.415.245.245 0 0 0 .376-.036.244.244 0 0 0-.2-.379z" fill="#263238"/><path d="M19.846 37.157v9.064h8.104V37.15c-.017.584-.413 1.166-1.185 1.612a3.958 3.958 0 0 1-.33.172 5.43 5.43 0 0 1-1.277.398 6.56 6.56 0 0 1-3.686-.352 4.193 4.193 0 0 1-.44-.218c-.743-.43-1.137-.982-1.184-1.543v-.062h-.002z" fill="#455A64"/><path d="M19.846 46.221c0 .599.396 1.198 1.187 1.655l.106.058.108.056.225.102c1.169.471 2.449.594 3.686.355l.218-.044a4.908 4.908 0 0 0 .63-.18l.2-.075.186-.078h.013c.06-.026.12-.056.186-.086.065-.03.12-.063.186-.096.79-.458 1.186-1.057 1.186-1.656V37.15c-.017.584-.413 1.166-1.185 1.612a3.958 3.958 0 0 1-.33.172 5.429 5.429 0 0 1-1.277.398 6.56 6.56 0 0 1-3.686-.352 4.184 4.184 0 0 1-.44-.218c-.743-.43-1.137-.982-1.184-1.543v9.002h-.015z" fill="#455A64"/><path d="M19.846 46.221c0 .599.396 1.198 1.187 1.655l.106.058.108.056.225.102v-9.114a4.193 4.193 0 0 1-.44-.218c-.743-.43-1.137-.981-1.184-1.543v9.002l-.002.002z" fill="#37474F"/><path opacity=".1" d="M25.158 39.331v9.114l.218-.044a5.043 5.043 0 0 0 .63-.18l.2-.075.186-.078h.013c.06-.026.12-.056.186-.086.065-.03.12-.063.186-.096.79-.458 1.186-1.057 1.186-1.656v-9.08c-.017.584-.413 1.166-1.185 1.612a3.958 3.958 0 0 1-.33.172c-.412.185-.845.319-1.29.398z" fill="#fff"/><path d="M19.844 37.107v.389c.047.558.443 1.116 1.185 1.542.142.081.289.155.44.22 1.169.468 2.448.59 3.686.35.44-.08.868-.214 1.276-.4.113-.051.225-.109.33-.17.773-.447 1.169-1.027 1.186-1.611v-.311.038c-.017.583-.413 1.166-1.185 1.612a3.958 3.958 0 0 1-.331.171 5.435 5.435 0 0 1-1.276.398 6.56 6.56 0 0 1-3.687-.351 4.193 4.193 0 0 1-.439-.218c-.744-.43-1.138-.982-1.185-1.544V37.1v.007zM20.904 44.75a.243.243 0 0 0-.047.482.244.244 0 1 0 .047-.482zm1.734.649a.243.243 0 1 0 0 .487.243.243 0 0 0 0-.487zm4.254-.65a.244.244 0 1 0-.004.488.244.244 0 0 0 .004-.487zm-1.734.65a.243.243 0 0 0-.24.29.244.244 0 1 0 .24-.29z" fill="#263238"/><path d="M47.588 84.386a3.813 3.813 0 0 0-1.397-5.208l-.11-.063c-.677-.39-1.71-.162-2.79.863a5.863 5.863 0 0 0-1.673 2.89c-.348 1.451-.028 2.461.647 2.852l.111.063a3.812 3.812 0 0 0 5.208-1.395l.004-.002z" fill="#37474F"/><path d="M43.139 83.09c-.186 2.2.89 3.063 2.163 3.063a3.811 3.811 0 0 0 1.535-6.51c-1.453-1.066-3.479.86-3.698 3.447z" fill="#455A64"/><path opacity=".2" d="M47.255 80.674a2.009 2.009 0 0 0-1.218-.67.759.759 0 0 0-.701.24.152.152 0 0 0-.034.091c.005.031.019.06.041.082.197.234.532.285.818.39.23.092.446.211.646.356.253.19.462.432.612.71.039.07.102.222.23.25.129.028.14-.157.1-.343a3.102 3.102 0 0 0-.248-.706 2.047 2.047 0 0 0-.246-.4z" fill="#fff"/><path d="M46.59 85.543c.185.11.451.093.743-.074a2.322 2.322 0 0 0 1.051-1.82.745.745 0 0 0-.309-.678l-.524-.303c-.186-.11-.452-.093-.744.074a2.317 2.317 0 0 0-1.051 1.817.743.743 0 0 0 .309.681l.524.303z" fill="#37474F"/><path d="m47.224 83.116-.523-.301a1.765 1.765 0 0 0-.294.25l.525.302c.087-.094.185-.178.291-.251zm.385-.186-.52-.3a1.158 1.158 0 0 0-.197.073l.521.3a.887.887 0 0 1 .203-.075l-.007.002z" fill="#455A64"/><path d="M47.331 83.043a2.32 2.32 0 0 0-1.049 1.82c0 .334.118.57.307.68.19.11.452.093.744-.074a2.322 2.322 0 0 0 1.051-1.82.642.642 0 0 0-1.05-.606h-.003z" fill="#455A64"/><path opacity=".2" d="M48.074 82.97a.744.744 0 0 0-.744.073 2.35 2.35 0 0 0-1.044 1.687v.13c.01-.246.068-.489.17-.714.092-.226.217-.438.371-.628.154-.192.343-.352.558-.47a.605.605 0 0 1 .975.557c.002.244-.043.487-.132.714-.087.23-.207.446-.357.64-.144.201-.325.372-.534.504.037-.02.072-.044.108-.069a2.347 2.347 0 0 0 .94-1.748.745.745 0 0 0-.311-.675z" fill="#fff"/><path d="M46.906 85.326a1.139 1.139 0 1 0 1.138-1.974.22.22 0 0 0-.069-.026.612.612 0 0 0-.5.084 1.783 1.783 0 0 0-.806 1.395.603.603 0 0 0 .186.474.231.231 0 0 0 .05.047z" fill="#455A64"/><path d="M48.375 85.03a.954.954 0 0 1-1.386-.115c-.323-.423.069-1.21.727-1.598a.76.76 0 0 0-.241.093 1.783 1.783 0 0 0-.806 1.395.603.603 0 0 0 .244.52 1.135 1.135 0 0 0 1.462-.295z" fill="#37474F"/><path opacity=".2" d="M48.423 84.241a.101.101 0 0 1-.05.093c-.05 0-.095-.052-.119-.089a.831.831 0 0 0-.558-.348c-.086-.013-.186-.028-.218-.108a.17.17 0 0 1 .08-.186.516.516 0 0 1 .692.106.64.64 0 0 1 .123.224.863.863 0 0 1 .05.308z" fill="#fff"/><path d="M16.072 41.629a.559.559 0 0 0 .503 0 .186.186 0 0 0 .104-.145v-5.419a.172.172 0 0 0-.104-.143.558.558 0 0 0-.5 0 .174.174 0 0 0-.105.145v5.411a.186.186 0 0 0 .102.15z" fill="#FF6F00"/><path opacity=".8" d="M16.072 41.629a.559.559 0 0 0 .503 0 .186.186 0 0 0 .104-.145v-5.419a.172.172 0 0 0-.104-.143.558.558 0 0 0-.5 0 .174.174 0 0 0-.105.145v5.411a.186.186 0 0 0 .102.15z" fill="#fff"/><path opacity=".3" d="M16.072 35.92a.174.174 0 0 0-.104.145v5.413a.186.186 0 0 0 .104.145.46.46 0 0 0 .186.052v-5.808a.489.489 0 0 0-.186.053z" fill="#FF6F00"/><path d="M16.072 35.92a.153.153 0 0 0-.105.145.153.153 0 0 0 .105.146.558.558 0 0 0 .5 0c.14-.082.14-.213 0-.29a.558.558 0 0 0-.5 0z" fill="#FF6F00"/><path d="M21.044 33.772a1.057 1.057 0 0 0-.484-.833.34.34 0 0 0-.34-.034l-9 5.208a.335.335 0 0 0-.142.31 1.071 1.071 0 0 0 .484.834.34.34 0 0 0 .34.034l9.002-5.208a.334.334 0 0 0 .14-.311z" fill="#FF6F00"/><path opacity=".8" d="M21.044 33.772a1.057 1.057 0 0 0-.484-.833.34.34 0 0 0-.34-.034l-9 5.208a.335.335 0 0 0-.142.31 1.071 1.071 0 0 0 .484.834.34.34 0 0 0 .34.034l9.002-5.208a.334.334 0 0 0 .14-.311z" fill="#fff"/><path opacity=".3" d="M11.562 39.246a.34.34 0 0 0 .34.033l9.002-5.208a.334.334 0 0 0 .14-.308.945.945 0 0 0-.097-.372l-9.66 5.58c.071.11.165.203.275.275z" fill="#FF6F00"/><path d="M11.562 39.246c.266.154.482.03.482-.279a1.054 1.054 0 0 0-.484-.831c-.268-.155-.484-.03-.482.277a1.07 1.07 0 0 0 .484.833z" fill="#FF6F00"/><path d="M8.822 39.904c0-1.067.744-2.364 1.674-2.896.465-.264.882-.288 1.185-.113l.865.491c.303.175.489.547.487 1.079 0 1.066-.757 2.362-1.674 2.896-.461.268-.88.292-1.181.117l-.878-.495c-.292-.176-.478-.548-.478-1.079z" fill="#37474F"/><path d="M11.346 41.365c-.93.535-1.674.102-1.674-.966 0-1.067.744-2.366 1.674-2.896.93-.53 1.674-.1 1.674.965 0 1.066-.744 2.363-1.674 2.897z" fill="#455A64"/><path d="M11.346 40.96c-.73.42-1.32.08-1.32-.764a2.91 2.91 0 0 1 1.327-2.287c.733-.419 1.325-.078 1.321.764a2.934 2.934 0 0 1-1.328 2.286z" fill="#FAFAFA"/><path d="m11.458 39.43-.103-1.311-.104 1.311h.207z" fill="#FF6F00"/><path d="M11.355 39.689c-.123.07-.221.013-.221-.127a.485.485 0 0 1 .221-.372c.123-.07.222-.013.222.127a.493.493 0 0 1-.222.372z" fill="#455A64"/><path d="M14.915 40.987a2.733 2.733 0 0 1 1.247-2.147c.344-.197.652-.213.878-.085l.634.372c.225.128.372.405.372.8a2.756 2.756 0 0 1-1.247 2.144c-.342.2-.652.216-.875.088l-.64-.372c-.231-.123-.369-.408-.369-.8z" fill="#37474F"/><path d="M16.79 42.068c-.686.396-1.24.076-1.24-.716a2.734 2.734 0 0 1 1.246-2.147c.688-.392 1.242-.072 1.24.718a2.755 2.755 0 0 1-1.246 2.145z" fill="#455A64"/><path d="M16.79 41.766c-.541.313-.98.06-.98-.558a2.156 2.156 0 0 1 .984-1.692c.545-.313.982-.058.98.558a2.17 2.17 0 0 1-.984 1.692z" fill="#FAFAFA"/><path d="m16.868 40.634-.076-.971-.076.97h.152z" fill="#FF6F00"/><path d="M16.792 40.825c-.09.052-.164.011-.164-.093a.373.373 0 0 1 .164-.283c.091-.052.164-.009.164.095a.359.359 0 0 1-.164.281z" fill="#455A64"/></svg>