<svg version="1.1" xmlns="http://www.w3.org/2000/svg" viewBox="0 0 425.74161906989957 177.08881447316708" width="425.74161906989957" height="177.08881447316708" filter="invert(93%) hue-rotate(180deg)">
  <!-- svg-source:excalidraw -->
  
  <defs>
    <style class="style-fonts">
      @font-face {
        font-family: "Virgil";
        src: url("https://excalidraw.com/Virgil.woff2");
      }
      @font-face {
        font-family: "Cascadia";
        src: url("https://excalidraw.com/Cascadia.woff2");
      }
    </style>
  </defs>
  <g stroke-linecap="round" transform="translate(34.04413536179072 29.166907587359674) rotate(0 51.65786741138891 46.888765301175226)"><path d="M23.44 0 L85.37 0.37 L94.16 3.3 L97.45 5.86 L100.02 9.16 L101.85 13.19 L103.32 23.44 L102.95 75.83 L100.02 84.62 L97.45 87.92 L94.16 90.48 L90.13 92.31 L79.87 93.78 L17.95 93.41 L13.19 92.31 L9.16 90.48 L5.86 87.92 L3.3 84.62 L0.37 75.83 L0.37 17.95 L1.47 13.19 L3.3 9.16 L5.86 5.86 L9.16 3.3 L13.19 1.47 L23.44 0" stroke="none" stroke-width="0" fill="#0101ff"></path><path d="M23.44 0 M23.44 0 C36.22 0, 48.99 0, 79.87 0 M23.44 0 C36.82 0, 50.19 0, 79.87 0 M79.87 0 C95.5 0, 103.32 7.81, 103.32 23.44 M79.87 0 C95.5 0, 103.32 7.81, 103.32 23.44 M103.32 23.44 C103.32 40.71, 103.32 57.97, 103.32 70.33 M103.32 23.44 C103.32 41.74, 103.32 60.05, 103.32 70.33 M103.32 70.33 C103.32 85.96, 95.5 93.78, 79.87 93.78 M103.32 70.33 C103.32 85.96, 95.5 93.78, 79.87 93.78 M79.87 93.78 C61.36 93.78, 42.84 93.78, 23.44 93.78 M79.87 93.78 C68.07 93.78, 56.28 93.78, 23.44 93.78 M23.44 93.78 C7.81 93.78, 0 85.96, 0 70.33 M23.44 93.78 C7.81 93.78, 0 85.96, 0 70.33 M0 70.33 C0 60.28, 0 50.23, 0 23.44 M0 70.33 C0 52.54, 0 34.74, 0 23.44 M0 23.44 C0 7.81, 7.81 0, 23.44 0 M0 23.44 C0 7.81, 7.81 0, 23.44 0" stroke="#010101" stroke-width="2" fill="none"></path></g><g stroke-linecap="round" transform="translate(45.778778156373846 35.312108039875966) rotate(0 39.92322461680578 40.743564848658025)"><path d="M79.85 40.74 C79.85 42.68, 79.71 44.63, 79.44 46.54 C79.17 48.46, 78.76 50.37, 78.23 52.22 C77.7 54.08, 77.03 55.91, 76.24 57.67 C75.45 59.43, 74.53 61.15, 73.51 62.77 C72.48 64.4, 71.34 65.96, 70.1 67.42 C68.85 68.89, 67.5 70.27, 66.07 71.54 C64.64 72.8, 63.1 73.97, 61.51 75.02 C59.91 76.06, 58.23 77, 56.51 77.81 C54.79 78.61, 52.99 79.29, 51.17 79.84 C49.35 80.38, 47.48 80.8, 45.6 81.07 C43.73 81.35, 41.82 81.49, 39.92 81.49 C38.03 81.49, 36.12 81.35, 34.24 81.07 C32.37 80.8, 30.49 80.38, 28.68 79.84 C26.86 79.29, 25.06 78.61, 23.34 77.81 C21.62 77, 19.93 76.06, 18.34 75.02 C16.75 73.97, 15.21 72.8, 13.78 71.54 C12.35 70.27, 10.99 68.89, 9.75 67.42 C8.51 65.96, 7.36 64.4, 6.34 62.77 C5.31 61.15, 4.39 59.43, 3.61 57.67 C2.82 55.91, 2.15 54.08, 1.62 52.22 C1.08 50.37, 0.68 48.46, 0.41 46.54 C0.14 44.63, 0 42.68, 0 40.74 C0 38.81, 0.14 36.86, 0.41 34.95 C0.68 33.03, 1.08 31.12, 1.62 29.26 C2.15 27.41, 2.82 25.58, 3.61 23.82 C4.39 22.06, 5.31 20.34, 6.34 18.72 C7.36 17.09, 8.51 15.52, 9.75 14.06 C10.99 12.6, 12.35 11.22, 13.78 9.95 C15.21 8.69, 16.75 7.51, 18.34 6.47 C19.93 5.42, 21.62 4.48, 23.34 3.68 C25.06 2.88, 26.86 2.19, 28.68 1.65 C30.49 1.11, 32.37 0.69, 34.24 0.41 C36.12 0.14, 38.03 0, 39.92 0 C41.82 0, 43.73 0.14, 45.6 0.41 C47.48 0.69, 49.35 1.11, 51.17 1.65 C52.99 2.19, 54.79 2.88, 56.51 3.68 C58.23 4.48, 59.91 5.42, 61.51 6.47 C63.1 7.51, 64.64 8.69, 66.07 9.95 C67.5 11.22, 68.85 12.6, 70.1 14.06 C71.34 15.52, 72.48 17.09, 73.51 18.72 C74.53 20.34, 75.45 22.06, 76.24 23.82 C77.03 25.58, 77.7 27.41, 78.23 29.26 C78.76 31.12, 79.17 33.03, 79.44 34.95 C79.71 36.86, 79.78 39.78, 79.85 40.74 C79.91 41.71, 79.91 39.78, 79.85 40.74" stroke="none" stroke-width="0" fill="#228be6"></path><path d="M79.85 40.74 C79.85 42.68, 79.71 44.63, 79.44 46.54 C79.17 48.46, 78.76 50.37, 78.23 52.22 C77.7 54.08, 77.03 55.91, 76.24 57.67 C75.45 59.43, 74.53 61.15, 73.51 62.77 C72.48 64.4, 71.34 65.96, 70.1 67.42 C68.85 68.89, 67.5 70.27, 66.07 71.54 C64.64 72.8, 63.1 73.97, 61.51 75.02 C59.91 76.06, 58.23 77, 56.51 77.81 C54.79 78.61, 52.99 79.29, 51.17 79.84 C49.35 80.38, 47.48 80.8, 45.6 81.07 C43.73 81.35, 41.82 81.49, 39.92 81.49 C38.03 81.49, 36.12 81.35, 34.24 81.07 C32.37 80.8, 30.49 80.38, 28.68 79.84 C26.86 79.29, 25.06 78.61, 23.34 77.81 C21.62 77, 19.93 76.06, 18.34 75.02 C16.75 73.97, 15.21 72.8, 13.78 71.54 C12.35 70.27, 10.99 68.89, 9.75 67.42 C8.51 65.96, 7.36 64.4, 6.34 62.77 C5.31 61.15, 4.39 59.43, 3.61 57.67 C2.82 55.91, 2.15 54.08, 1.62 52.22 C1.08 50.37, 0.68 48.46, 0.41 46.54 C0.14 44.63, 0 42.68, 0 40.74 C0 38.81, 0.14 36.86, 0.41 34.95 C0.68 33.03, 1.08 31.12, 1.62 29.26 C2.15 27.41, 2.82 25.58, 3.61 23.82 C4.39 22.06, 5.31 20.34, 6.34 18.72 C7.36 17.09, 8.51 15.52, 9.75 14.06 C10.99 12.6, 12.35 11.22, 13.78 9.95 C15.21 8.69, 16.75 7.51, 18.34 6.47 C19.93 5.42, 21.62 4.48, 23.34 3.68 C25.06 2.88, 26.86 2.19, 28.68 1.65 C30.49 1.11, 32.37 0.69, 34.24 0.41 C36.12 0.14, 38.03 0, 39.92 0 C41.82 0, 43.73 0.14, 45.6 0.41 C47.48 0.69, 49.35 1.11, 51.17 1.65 C52.99 2.19, 54.79 2.88, 56.51 3.68 C58.23 4.48, 59.91 5.42, 61.51 6.47 C63.1 7.51, 64.64 8.69, 66.07 9.95 C67.5 11.22, 68.85 12.6, 70.1 14.06 C71.34 15.52, 72.48 17.09, 73.51 18.72 C74.53 20.34, 75.45 22.06, 76.24 23.82 C77.03 25.58, 77.7 27.41, 78.23 29.26 C78.76 31.12, 79.17 33.03, 79.44 34.95 C79.71 36.86, 79.78 39.78, 79.85 40.74 C79.91 41.71, 79.91 39.78, 79.85 40.74" stroke="#000000" stroke-width="1" fill="none"></path></g><g stroke-linecap="round" transform="translate(79.25687718648442 51.96827343824043) rotate(0 6.992019074594737 8.59019486307352)"><path d="M13.98 8.59 C13.98 9.09, 13.95 9.59, 13.88 10.08 C13.81 10.57, 13.7 11.06, 13.56 11.53 C13.42 12, 13.25 12.45, 13.05 12.89 C12.84 13.32, 12.61 13.73, 12.35 14.11 C12.09 14.49, 11.8 14.85, 11.49 15.17 C11.18 15.49, 10.84 15.78, 10.49 16.03 C10.14 16.28, 9.76 16.49, 9.38 16.66 C9 16.83, 8.6 16.96, 8.21 17.05 C7.81 17.14, 7.4 17.18, 6.99 17.18 C6.59 17.18, 6.18 17.14, 5.78 17.05 C5.38 16.96, 4.98 16.83, 4.6 16.66 C4.22 16.49, 3.85 16.28, 3.5 16.03 C3.15 15.78, 2.81 15.49, 2.5 15.17 C2.19 14.85, 1.9 14.49, 1.64 14.11 C1.38 13.73, 1.14 13.32, 0.94 12.89 C0.73 12.45, 0.56 12, 0.42 11.53 C0.28 11.06, 0.18 10.57, 0.11 10.08 C0.04 9.59, 0 9.09, 0 8.59 C0 8.09, 0.04 7.59, 0.11 7.1 C0.18 6.61, 0.28 6.12, 0.42 5.65 C0.56 5.18, 0.73 4.73, 0.94 4.3 C1.14 3.86, 1.38 3.45, 1.64 3.07 C1.9 2.69, 2.19 2.33, 2.5 2.01 C2.81 1.69, 3.15 1.4, 3.5 1.15 C3.85 0.9, 4.22 0.69, 4.6 0.52 C4.98 0.35, 5.38 0.22, 5.78 0.13 C6.18 0.04, 6.59 0, 6.99 0 C7.4 0, 7.81 0.04, 8.21 0.13 C8.6 0.22, 9 0.35, 9.38 0.52 C9.76 0.69, 10.14 0.9, 10.49 1.15 C10.84 1.4, 11.18 1.69, 11.49 2.01 C11.8 2.33, 12.09 2.69, 12.35 3.07 C12.61 3.45, 12.84 3.86, 13.05 4.3 C13.25 4.73, 13.42 5.18, 13.56 5.65 C13.7 6.12, 13.81 6.61, 13.88 7.1 C13.95 7.59, 13.97 8.34, 13.98 8.59 C14 8.84, 14 8.34, 13.98 8.59" stroke="none" stroke-width="0" fill="#000"></path><path d="M13.98 8.59 C13.98 9.09, 13.95 9.59, 13.88 10.08 C13.81 10.57, 13.7 11.06, 13.56 11.53 C13.42 12, 13.25 12.45, 13.05 12.89 C12.84 13.32, 12.61 13.73, 12.35 14.11 C12.09 14.49, 11.8 14.85, 11.49 15.17 C11.18 15.49, 10.84 15.78, 10.49 16.03 C10.14 16.28, 9.76 16.49, 9.38 16.66 C9 16.83, 8.6 16.96, 8.21 17.05 C7.81 17.14, 7.4 17.18, 6.99 17.18 C6.59 17.18, 6.18 17.14, 5.78 17.05 C5.38 16.96, 4.98 16.83, 4.6 16.66 C4.22 16.49, 3.85 16.28, 3.5 16.03 C3.15 15.78, 2.81 15.49, 2.5 15.17 C2.19 14.85, 1.9 14.49, 1.64 14.11 C1.38 13.73, 1.14 13.32, 0.94 12.89 C0.73 12.45, 0.56 12, 0.42 11.53 C0.28 11.06, 0.18 10.57, 0.11 10.08 C0.04 9.59, 0 9.09, 0 8.59 C0 8.09, 0.04 7.59, 0.11 7.1 C0.18 6.61, 0.28 6.12, 0.42 5.65 C0.56 5.18, 0.73 4.73, 0.94 4.3 C1.14 3.86, 1.38 3.45, 1.64 3.07 C1.9 2.69, 2.19 2.33, 2.5 2.01 C2.81 1.69, 3.15 1.4, 3.5 1.15 C3.85 0.9, 4.22 0.69, 4.6 0.52 C4.98 0.35, 5.38 0.22, 5.78 0.13 C6.18 0.04, 6.59 0, 6.99 0 C7.4 0, 7.81 0.04, 8.21 0.13 C8.6 0.22, 9 0.35, 9.38 0.52 C9.76 0.69, 10.14 0.9, 10.49 1.15 C10.84 1.4, 11.18 1.69, 11.49 2.01 C11.8 2.33, 12.09 2.69, 12.35 3.07 C12.61 3.45, 12.84 3.86, 13.05 4.3 C13.25 4.73, 13.42 5.18, 13.56 5.65 C13.7 6.12, 13.81 6.61, 13.88 7.1 C13.95 7.59, 13.97 8.34, 13.98 8.59 C14 8.84, 14 8.34, 13.98 8.59" stroke="#000000" stroke-width="1" fill="none"></path></g><g stroke-linecap="round"><g transform="translate(107.25041963078274 97.60641095114443) rotate(0 -21.055727630088313 -11.167049859166582)" fill-rule="evenodd"><path d="M0 0 L-8.54 -12.53 L-14.24 -19.38 L-19.81 -22.52 L-26.63 -20.02 L-34.61 -13.89 L-40.66 -6.98 L-42.01 -4.13 L-41.72 -2.17 L-34.78 -0.3 L0 0" stroke="none" stroke-width="0" fill="#000" fill-rule="evenodd"></path><path d="M0 0 C-3.3 -3.75, -12.86 -22.16, -19.81 -22.52 C-26.76 -22.88, -45.02 -5.92, -41.72 -2.17 C-38.41 1.59, -6.95 -0.36, 0 0 M0 0 C-3.3 -3.75, -12.86 -22.16, -19.81 -22.52 C-26.76 -22.88, -45.02 -5.92, -41.72 -2.17 C-38.41 1.59, -6.95 -0.36, 0 0" stroke="#000000" stroke-width="1" fill="none"></path></g></g><mask></mask><g stroke-linecap="round" transform="translate(51.24771303538728 40.78104291888849) rotate(0 35.00118322569233 35.47440194320279)"><path d="M70 35.47 C70 37.32, 69.86 39.2, 69.57 41.02 C69.29 42.85, 68.85 44.68, 68.29 46.44 C67.73 48.2, 67.02 49.93, 66.19 51.58 C65.36 53.23, 64.39 54.83, 63.32 56.33 C62.24 57.82, 61.04 59.25, 59.75 60.56 C58.46 61.87, 57.05 63.09, 55.57 64.17 C54.1 65.26, 52.52 66.24, 50.89 67.08 C49.27 67.92, 47.55 68.64, 45.82 69.21 C44.08 69.78, 42.28 70.22, 40.48 70.51 C38.67 70.8, 36.83 70.95, 35 70.95 C33.18 70.95, 31.33 70.8, 29.53 70.51 C27.72 70.22, 25.92 69.78, 24.19 69.21 C22.45 68.64, 20.74 67.92, 19.11 67.08 C17.48 66.24, 15.9 65.26, 14.43 64.17 C12.95 63.09, 11.54 61.87, 10.25 60.56 C8.96 59.25, 7.76 57.82, 6.68 56.33 C5.61 54.83, 4.64 53.23, 3.81 51.58 C2.99 49.93, 2.28 48.2, 1.71 46.44 C1.15 44.68, 0.72 42.85, 0.43 41.02 C0.15 39.2, 0 37.32, 0 35.47 C0 33.62, 0.15 31.75, 0.43 29.92 C0.72 28.1, 1.15 26.27, 1.71 24.51 C2.28 22.75, 2.99 21.02, 3.81 19.37 C4.64 17.72, 5.61 16.12, 6.68 14.62 C7.76 13.13, 8.96 11.7, 10.25 10.39 C11.54 9.08, 12.95 7.86, 14.43 6.78 C15.9 5.69, 17.48 4.71, 19.11 3.87 C20.74 3.03, 22.45 2.31, 24.19 1.74 C25.92 1.16, 27.72 0.73, 29.53 0.44 C31.33 0.15, 33.18 0, 35 0 C36.83 0, 38.67 0.15, 40.48 0.44 C42.28 0.73, 44.08 1.16, 45.82 1.74 C47.55 2.31, 49.27 3.03, 50.89 3.87 C52.52 4.71, 54.1 5.69, 55.57 6.78 C57.05 7.86, 58.46 9.08, 59.75 10.39 C61.04 11.7, 62.24 13.13, 63.32 14.62 C64.39 16.12, 65.36 17.72, 66.19 19.37 C67.02 21.02, 67.73 22.75, 68.29 24.51 C68.85 26.27, 69.29 28.1, 69.57 29.92 C69.86 31.75, 69.93 34.55, 70 35.47 C70.07 36.4, 70.07 34.55, 70 35.47" stroke="#000000" stroke-width="1" fill="none"></path></g><g stroke-linecap="round" transform="translate(289.2527510773707 29.166907587359674) rotate(0 51.65786741138891 46.888765301175226)"><path d="M23.44 0 L85.37 0.37 L94.16 3.3 L97.45 5.86 L100.02 9.16 L101.85 13.19 L103.32 23.44 L102.95 75.83 L100.02 84.62 L97.45 87.92 L94.16 90.48 L90.13 92.31 L79.87 93.78 L17.95 93.41 L13.19 92.31 L9.16 90.48 L5.86 87.92 L3.3 84.62 L0.37 75.83 L0.37 17.95 L1.47 13.19 L3.3 9.16 L5.86 5.86 L9.16 3.3 L13.19 1.47 L23.44 0" stroke="none" stroke-width="0" fill="#0101ff"></path><path d="M23.44 0 M23.44 0 C39.96 0, 56.48 0, 79.87 0 M23.44 0 C39.92 0, 56.39 0, 79.87 0 M79.87 0 C95.5 0, 103.32 7.81, 103.32 23.44 M79.87 0 C95.5 0, 103.32 7.81, 103.32 23.44 M103.32 23.44 C103.32 37.3, 103.32 51.16, 103.32 70.33 M103.32 23.44 C103.32 34.35, 103.32 45.25, 103.32 70.33 M103.32 70.33 C103.32 85.96, 95.5 93.78, 79.87 93.78 M103.32 70.33 C103.32 85.96, 95.5 93.78, 79.87 93.78 M79.87 93.78 C61.89 93.78, 43.9 93.78, 23.44 93.78 M79.87 93.78 C64.05 93.78, 48.24 93.78, 23.44 93.78 M23.44 93.78 C7.81 93.78, 0 85.96, 0 70.33 M23.44 93.78 C7.81 93.78, 0 85.96, 0 70.33 M0 70.33 C0 59.63, 0 48.92, 0 23.44 M0 70.33 C0 60.76, 0 51.19, 0 23.44 M0 23.44 C0 7.81, 7.81 0, 23.44 0 M0 23.44 C0 7.81, 7.81 0, 23.44 0" stroke="#010101" stroke-width="2" fill="none"></path></g><g stroke-linecap="round" transform="translate(300.9873938719538 35.312108039875966) rotate(0 39.92322461680578 40.743564848658025)"><path d="M79.85 40.74 C79.85 42.68, 79.71 44.63, 79.44 46.54 C79.17 48.46, 78.76 50.37, 78.23 52.22 C77.7 54.08, 77.03 55.91, 76.24 57.67 C75.45 59.43, 74.53 61.15, 73.51 62.77 C72.48 64.4, 71.34 65.96, 70.1 67.42 C68.85 68.89, 67.5 70.27, 66.07 71.54 C64.64 72.8, 63.1 73.97, 61.51 75.02 C59.91 76.06, 58.23 77, 56.51 77.81 C54.79 78.61, 52.99 79.29, 51.17 79.84 C49.35 80.38, 47.48 80.8, 45.6 81.07 C43.73 81.35, 41.82 81.49, 39.92 81.49 C38.03 81.49, 36.12 81.35, 34.24 81.07 C32.37 80.8, 30.49 80.38, 28.68 79.84 C26.86 79.29, 25.06 78.61, 23.34 77.81 C21.62 77, 19.93 76.06, 18.34 75.02 C16.75 73.97, 15.21 72.8, 13.78 71.54 C12.35 70.27, 10.99 68.89, 9.75 67.42 C8.51 65.96, 7.36 64.4, 6.34 62.77 C5.31 61.15, 4.39 59.43, 3.61 57.67 C2.82 55.91, 2.15 54.08, 1.62 52.22 C1.08 50.37, 0.68 48.46, 0.41 46.54 C0.14 44.63, 0 42.68, 0 40.74 C0 38.81, 0.14 36.86, 0.41 34.95 C0.68 33.03, 1.08 31.12, 1.62 29.26 C2.15 27.41, 2.82 25.58, 3.61 23.82 C4.39 22.06, 5.31 20.34, 6.34 18.72 C7.36 17.09, 8.51 15.52, 9.75 14.06 C10.99 12.6, 12.35 11.22, 13.78 9.95 C15.21 8.69, 16.75 7.51, 18.34 6.47 C19.93 5.42, 21.62 4.48, 23.34 3.68 C25.06 2.88, 26.86 2.19, 28.68 1.65 C30.49 1.11, 32.37 0.69, 34.24 0.41 C36.12 0.14, 38.03 0, 39.92 0 C41.82 0, 43.73 0.14, 45.6 0.41 C47.48 0.69, 49.35 1.11, 51.17 1.65 C52.99 2.19, 54.79 2.88, 56.51 3.68 C58.23 4.48, 59.91 5.42, 61.51 6.47 C63.1 7.51, 64.64 8.69, 66.07 9.95 C67.5 11.22, 68.85 12.6, 70.1 14.06 C71.34 15.52, 72.48 17.09, 73.51 18.72 C74.53 20.34, 75.45 22.06, 76.24 23.82 C77.03 25.58, 77.7 27.41, 78.23 29.26 C78.76 31.12, 79.17 33.03, 79.44 34.95 C79.71 36.86, 79.78 39.78, 79.85 40.74 C79.91 41.71, 79.91 39.78, 79.85 40.74" stroke="none" stroke-width="0" fill="#d9480f"></path><path d="M79.85 40.74 C79.85 42.68, 79.71 44.63, 79.44 46.54 C79.17 48.46, 78.76 50.37, 78.23 52.22 C77.7 54.08, 77.03 55.91, 76.24 57.67 C75.45 59.43, 74.53 61.15, 73.51 62.77 C72.48 64.4, 71.34 65.96, 70.1 67.42 C68.85 68.89, 67.5 70.27, 66.07 71.54 C64.64 72.8, 63.1 73.97, 61.51 75.02 C59.91 76.06, 58.23 77, 56.51 77.81 C54.79 78.61, 52.99 79.29, 51.17 79.84 C49.35 80.38, 47.48 80.8, 45.6 81.07 C43.73 81.35, 41.82 81.49, 39.92 81.49 C38.03 81.49, 36.12 81.35, 34.24 81.07 C32.37 80.8, 30.49 80.38, 28.68 79.84 C26.86 79.29, 25.06 78.61, 23.34 77.81 C21.62 77, 19.93 76.06, 18.34 75.02 C16.75 73.97, 15.21 72.8, 13.78 71.54 C12.35 70.27, 10.99 68.89, 9.75 67.42 C8.51 65.96, 7.36 64.4, 6.34 62.77 C5.31 61.15, 4.39 59.43, 3.61 57.67 C2.82 55.91, 2.15 54.08, 1.62 52.22 C1.08 50.37, 0.68 48.46, 0.41 46.54 C0.14 44.63, 0 42.68, 0 40.74 C0 38.81, 0.14 36.86, 0.41 34.95 C0.68 33.03, 1.08 31.12, 1.62 29.26 C2.15 27.41, 2.82 25.58, 3.61 23.82 C4.39 22.06, 5.31 20.34, 6.34 18.72 C7.36 17.09, 8.51 15.52, 9.75 14.06 C10.99 12.6, 12.35 11.22, 13.78 9.95 C15.21 8.69, 16.75 7.51, 18.34 6.47 C19.93 5.42, 21.62 4.48, 23.34 3.68 C25.06 2.88, 26.86 2.19, 28.68 1.65 C30.49 1.11, 32.37 0.69, 34.24 0.41 C36.12 0.14, 38.03 0, 39.92 0 C41.82 0, 43.73 0.14, 45.6 0.41 C47.48 0.69, 49.35 1.11, 51.17 1.65 C52.99 2.19, 54.79 2.88, 56.51 3.68 C58.23 4.48, 59.91 5.42, 61.51 6.47 C63.1 7.51, 64.64 8.69, 66.07 9.95 C67.5 11.22, 68.85 12.6, 70.1 14.06 C71.34 15.52, 72.48 17.09, 73.51 18.72 C74.53 20.34, 75.45 22.06, 76.24 23.82 C77.03 25.58, 77.7 27.41, 78.23 29.26 C78.76 31.12, 79.17 33.03, 79.44 34.95 C79.71 36.86, 79.78 39.78, 79.85 40.74 C79.91 41.71, 79.91 39.78, 79.85 40.74" stroke="#000000" stroke-width="1" fill="none"></path></g><g stroke-linecap="round" transform="translate(334.4654929020635 51.96827343823861) rotate(0 6.992019074594737 8.59019486307352)"><path d="M13.98 8.59 C13.98 9.09, 13.95 9.59, 13.88 10.08 C13.81 10.57, 13.7 11.06, 13.56 11.53 C13.42 12, 13.25 12.45, 13.05 12.89 C12.84 13.32, 12.61 13.73, 12.35 14.11 C12.09 14.49, 11.8 14.85, 11.49 15.17 C11.18 15.49, 10.84 15.78, 10.49 16.03 C10.14 16.28, 9.76 16.49, 9.38 16.66 C9 16.83, 8.6 16.96, 8.21 17.05 C7.81 17.14, 7.4 17.18, 6.99 17.18 C6.59 17.18, 6.18 17.14, 5.78 17.05 C5.38 16.96, 4.98 16.83, 4.6 16.66 C4.22 16.49, 3.85 16.28, 3.5 16.03 C3.15 15.78, 2.81 15.49, 2.5 15.17 C2.19 14.85, 1.9 14.49, 1.64 14.11 C1.38 13.73, 1.14 13.32, 0.94 12.89 C0.73 12.45, 0.56 12, 0.42 11.53 C0.28 11.06, 0.18 10.57, 0.11 10.08 C0.04 9.59, 0 9.09, 0 8.59 C0 8.09, 0.04 7.59, 0.11 7.1 C0.18 6.61, 0.28 6.12, 0.42 5.65 C0.56 5.18, 0.73 4.73, 0.94 4.3 C1.14 3.86, 1.38 3.45, 1.64 3.07 C1.9 2.69, 2.19 2.33, 2.5 2.01 C2.81 1.69, 3.15 1.4, 3.5 1.15 C3.85 0.9, 4.22 0.69, 4.6 0.52 C4.98 0.35, 5.38 0.22, 5.78 0.13 C6.18 0.04, 6.59 0, 6.99 0 C7.4 0, 7.81 0.04, 8.21 0.13 C8.6 0.22, 9 0.35, 9.38 0.52 C9.76 0.69, 10.14 0.9, 10.49 1.15 C10.84 1.4, 11.18 1.69, 11.49 2.01 C11.8 2.33, 12.09 2.69, 12.35 3.07 C12.61 3.45, 12.84 3.86, 13.05 4.3 C13.25 4.73, 13.42 5.18, 13.56 5.65 C13.7 6.12, 13.81 6.61, 13.88 7.1 C13.95 7.59, 13.97 8.34, 13.98 8.59 C14 8.84, 14 8.34, 13.98 8.59" stroke="none" stroke-width="0" fill="#000"></path><path d="M13.98 8.59 C13.98 9.09, 13.95 9.59, 13.88 10.08 C13.81 10.57, 13.7 11.06, 13.56 11.53 C13.42 12, 13.25 12.45, 13.05 12.89 C12.84 13.32, 12.61 13.73, 12.35 14.11 C12.09 14.49, 11.8 14.85, 11.49 15.17 C11.18 15.49, 10.84 15.78, 10.49 16.03 C10.14 16.28, 9.76 16.49, 9.38 16.66 C9 16.83, 8.6 16.96, 8.21 17.05 C7.81 17.14, 7.4 17.18, 6.99 17.18 C6.59 17.18, 6.18 17.14, 5.78 17.05 C5.38 16.96, 4.98 16.83, 4.6 16.66 C4.22 16.49, 3.85 16.28, 3.5 16.03 C3.15 15.78, 2.81 15.49, 2.5 15.17 C2.19 14.85, 1.9 14.49, 1.64 14.11 C1.38 13.73, 1.14 13.32, 0.94 12.89 C0.73 12.45, 0.56 12, 0.42 11.53 C0.28 11.06, 0.18 10.57, 0.11 10.08 C0.04 9.59, 0 9.09, 0 8.59 C0 8.09, 0.04 7.59, 0.11 7.1 C0.18 6.61, 0.28 6.12, 0.42 5.65 C0.56 5.18, 0.73 4.73, 0.94 4.3 C1.14 3.86, 1.38 3.45, 1.64 3.07 C1.9 2.69, 2.19 2.33, 2.5 2.01 C2.81 1.69, 3.15 1.4, 3.5 1.15 C3.85 0.9, 4.22 0.69, 4.6 0.52 C4.98 0.35, 5.38 0.22, 5.78 0.13 C6.18 0.04, 6.59 0, 6.99 0 C7.4 0, 7.81 0.04, 8.21 0.13 C8.6 0.22, 9 0.35, 9.38 0.52 C9.76 0.69, 10.14 0.9, 10.49 1.15 C10.84 1.4, 11.18 1.69, 11.49 2.01 C11.8 2.33, 12.09 2.69, 12.35 3.07 C12.61 3.45, 12.84 3.86, 13.05 4.3 C13.25 4.73, 13.42 5.18, 13.56 5.65 C13.7 6.12, 13.81 6.61, 13.88 7.1 C13.95 7.59, 13.97 8.34, 13.98 8.59 C14 8.84, 14 8.34, 13.98 8.59" stroke="#000000" stroke-width="1" fill="none"></path></g><g stroke-linecap="round"><g transform="translate(362.4590353463627 97.60641095114079) rotate(0 -21.055727630088313 -11.167049859166582)" fill-rule="evenodd"><path d="M0 0 L-8.54 -12.53 L-14.24 -19.38 L-19.81 -22.52 L-26.63 -20.02 L-34.61 -13.89 L-40.66 -6.98 L-42.01 -4.13 L-41.72 -2.17 L-34.78 -0.3 L0 0" stroke="none" stroke-width="0" fill="#000" fill-rule="evenodd"></path><path d="M0 0 C-3.3 -3.75, -12.86 -22.16, -19.81 -22.52 C-26.76 -22.88, -45.02 -5.92, -41.72 -2.17 C-38.41 1.59, -6.95 -0.36, 0 0 M0 0 C-3.3 -3.75, -12.86 -22.16, -19.81 -22.52 C-26.76 -22.88, -45.02 -5.92, -41.72 -2.17 C-38.41 1.59, -6.95 -0.36, 0 0" stroke="#000000" stroke-width="1" fill="none"></path></g></g><mask></mask><g stroke-linecap="round" transform="translate(306.45632875096726 40.78104291888667) rotate(0 35.00118322569233 35.47440194320279)"><path d="M70 35.47 C70 37.32, 69.86 39.2, 69.57 41.02 C69.29 42.85, 68.85 44.68, 68.29 46.44 C67.73 48.2, 67.02 49.93, 66.19 51.58 C65.36 53.23, 64.39 54.83, 63.32 56.33 C62.24 57.82, 61.04 59.25, 59.75 60.56 C58.46 61.87, 57.05 63.09, 55.57 64.17 C54.1 65.26, 52.52 66.24, 50.89 67.08 C49.27 67.92, 47.55 68.64, 45.82 69.21 C44.08 69.78, 42.28 70.22, 40.48 70.51 C38.67 70.8, 36.83 70.95, 35 70.95 C33.18 70.95, 31.33 70.8, 29.53 70.51 C27.72 70.22, 25.92 69.78, 24.19 69.21 C22.45 68.64, 20.74 67.92, 19.11 67.08 C17.48 66.24, 15.9 65.26, 14.43 64.17 C12.95 63.09, 11.54 61.87, 10.25 60.56 C8.96 59.25, 7.76 57.82, 6.68 56.33 C5.61 54.83, 4.64 53.23, 3.81 51.58 C2.99 49.93, 2.28 48.2, 1.71 46.44 C1.15 44.68, 0.72 42.85, 0.43 41.02 C0.15 39.2, 0 37.32, 0 35.47 C0 33.62, 0.15 31.75, 0.43 29.92 C0.72 28.1, 1.15 26.27, 1.71 24.51 C2.28 22.75, 2.99 21.02, 3.81 19.37 C4.64 17.72, 5.61 16.12, 6.68 14.62 C7.76 13.13, 8.96 11.7, 10.25 10.39 C11.54 9.08, 12.95 7.86, 14.43 6.78 C15.9 5.69, 17.48 4.71, 19.11 3.87 C20.74 3.03, 22.45 2.31, 24.19 1.74 C25.92 1.16, 27.72 0.73, 29.53 0.44 C31.33 0.15, 33.18 0, 35 0 C36.83 0, 38.67 0.15, 40.48 0.44 C42.28 0.73, 44.08 1.16, 45.82 1.74 C47.55 2.31, 49.27 3.03, 50.89 3.87 C52.52 4.71, 54.1 5.69, 55.57 6.78 C57.05 7.86, 58.46 9.08, 59.75 10.39 C61.04 11.7, 62.24 13.13, 63.32 14.62 C64.39 16.12, 65.36 17.72, 66.19 19.37 C67.02 21.02, 67.73 22.75, 68.29 24.51 C68.85 26.27, 69.29 28.1, 69.57 29.92 C69.86 31.75, 69.93 34.55, 70 35.47 C70.07 36.4, 70.07 34.55, 70 35.47" stroke="#000000" stroke-width="1" fill="none"></path></g><g stroke-linecap="round"><g transform="translate(141.0031999161465 63.01895093618987) rotate(0 71.63269340416218 -0.6632656796682568)"><path d="M0 0 C23.88 -0.22, 119.39 -1.11, 143.27 -1.33 M0 0 C23.88 -0.22, 119.39 -1.11, 143.27 -1.33" stroke="#000000" stroke-width="4" fill="none"></path></g><g transform="translate(141.0031999161465 63.01895093618987) rotate(0 71.63269340416218 -0.6632656796682568)"><path d="M115.17 9.19 C121.26 6.92, 127.34 4.64, 143.27 -1.33 M115.17 9.19 C124.98 5.52, 134.79 1.85, 143.27 -1.33" stroke="#000000" stroke-width="4" fill="none"></path></g><g transform="translate(141.0031999161465 63.01895093618987) rotate(0 71.63269340416218 -0.6632656796682568)"><path d="M114.98 -11.33 C121.11 -9.16, 127.23 -6.99, 143.27 -1.33 M114.98 -11.33 C124.86 -7.83, 134.73 -4.34, 143.27 -1.33" stroke="#000000" stroke-width="4" fill="none"></path></g></g><mask></mask><g stroke-linecap="round"><g transform="translate(289.5839934043497 102.32784205176722) rotate(0 -75.45867618147804 0.7356890477985871)"><path d="M0 0 C-25.15 0.25, -125.76 1.23, -150.92 1.47 M0 0 C-25.15 0.25, -125.76 1.23, -150.92 1.47" stroke="#000000" stroke-width="4" fill="none"></path></g><g transform="translate(289.5839934043497 102.32784205176722) rotate(0 -75.45867618147804 0.7356890477985871)"><path d="M-122.83 -9.06 C-132.72 -5.35, -142.62 -1.64, -150.92 1.47 M-122.83 -9.06 C-130.14 -6.32, -137.45 -3.58, -150.92 1.47" stroke="#000000" stroke-width="4" fill="none"></path></g><g transform="translate(289.5839934043497 102.32784205176722) rotate(0 -75.45867618147804 0.7356890477985871)"><path d="M-122.63 11.46 C-132.59 7.94, -142.56 4.42, -150.92 1.47 M-122.63 11.46 C-129.99 8.86, -137.36 6.26, -150.92 1.47" stroke="#000000" stroke-width="4" fill="none"></path></g></g><mask></mask><g transform="translate(364.74161906989957 10) rotate(0 25.5 7.5)"><text x="25.5" y="12" font-family="Helvetica, Segoe UI Emoji" font-size="13.384431493983705px" fill="#d9480f" text-anchor="middle" style="white-space: pre;" direction="ltr">wch kho</text></g><g transform="translate(10 10.122041694952713) rotate(0 41 7.5)"><text x="41" y="12" font-family="Helvetica, Segoe UI Emoji" font-size="13.154825539218802px" fill="#1864ab" text-anchor="middle" style="white-space: pre;" direction="ltr">chhal t7sbhali</text></g><g transform="translate(251.14417402618437 128.70428626185276) rotate(0 22.749519718564898 6.3983024208464485)"><text x="22.74951971856485" y="10.79660484169273" font-family="Helvetica, Segoe UI Emoji" font-size="11.374759859282426px" fill="#d9480f" text-anchor="middle" style="white-space: pre;" direction="ltr">1800 DA</text></g><g transform="translate(109.01122754679182 134.8444319924365) rotate(0 23.57175720236546 7.1913835532641315)"><text x="23.571757202365557" y="11.382767106528137" font-family="Helvetica, Segoe UI Emoji" font-size="12.784681872469456px" fill="#1864ab" text-anchor="middle" style="white-space: pre;" direction="ltr">lah yrb7</text></g><g stroke-linecap="round"><g transform="translate(203.29329976574718 33.57165454680944) rotate(0 3.07780038493911 -7.325325460693421)"><path d="M-0.83 -1.27 C3.15 -5.77, 4.57 -10.22, 6.99 -15.35 M0 0.7 C2.32 -5.33, 4.19 -8.94, 6.39 -13.98" stroke="#d9480f" stroke-width="1" fill="none"></path></g></g><mask></mask><g stroke-linecap="round"><g transform="translate(210.26775933233148 19.51625625325505) rotate(0 2.009751629522725 6.861492445817021)"><path d="M-1.12 0.38 C0.82 2.22, 2.63 5.72, 3.93 13.62 M0.62 0.1 C1.01 4.54, 3.69 9.05, 5.14 12.66" stroke="#d9480f" stroke-width="1" fill="none"></path></g></g><mask></mask><g stroke-linecap="round"><g transform="translate(214.739931516644 32.45361150073222) rotate(0 -6.026403209961245 -5.1001792224788005)"><path d="M0.4 -0.36 C-5.3 -3.21, -9.27 -8.15, -11.43 -8.17 M0.11 -0.66 C-2.85 -1.53, -5.73 -3.49, -12.45 -9.84" stroke="#d9480f" stroke-width="1" fill="none"></path></g></g><mask></mask><g stroke-linecap="round"><g transform="translate(202.44145800978367 23.50926713210538) rotate(0 7.320950035615624 -0.9723053302559492)"><path d="M-0.35 -0.68 C4.01 -0.19, 6.25 0.1, 15.27 -1.67 M-0.63 -0.27 C4.64 -0.74, 8.97 -0.92, 13.66 -0.83" stroke="#d9480f" stroke-width="1" fill="none"></path></g></g><mask></mask><g stroke-linecap="round"><g transform="translate(216.65657673849273 22.870385391490345) rotate(0 -7.31885358943282 5.600268638749185)"><path d="M-0.79 0.51 C-2.87 1.28, -5.25 5.67, -14.32 10.54 M-0.32 0.39 C-5.66 4.38, -10.72 7.23, -13.35 10.81" stroke="#d9480f" stroke-width="1" fill="none"></path></g></g><mask></mask><g stroke-linecap="round"><g transform="translate(150.58555616491867 33.57165454680944) rotate(0 3.829769157553528 -7.464807113356983)"><path d="M0.49 -0.04 C1.35 -4.25, 5.63 -10.69, 7.03 -12.98 M0.37 -0.64 C2.73 -5.17, 3.75 -9.4, 7.29 -14.89" stroke="#d9480f" stroke-width="1" fill="none"></path></g></g><mask></mask><g stroke-linecap="round"><g transform="translate(157.56001573150206 19.51625625325505) rotate(0 2.7313742501605702 6.336446753031851)"><path d="M-0.03 -0.86 C1.62 4.52, 1.41 7.3, 6.02 13.46 M-0.56 0.34 C0.37 2.09, 1.63 5.83, 4.34 13.53" stroke="#d9480f" stroke-width="1" fill="none"></path></g></g><mask></mask><g stroke-linecap="round"><g transform="translate(162.03218791581548 32.45361150073222) rotate(0 -5.620881185891449 -5.014860977335957)"><path d="M-0.91 0.39 C-2.08 -3.54, -6 -3.3, -11.61 -10.42 M0.36 -0.63 C-3.88 -2.85, -6 -5.35, -11.53 -9.76" stroke="#d9480f" stroke-width="1" fill="none"></path></g></g><mask></mask><g stroke-linecap="round"><g transform="translate(149.73371440895517 23.50926713210538) rotate(0 6.565473611688958 -0.12231720929048606)"><path d="M0.37 0.9 C3.56 -0.07, 10.77 -0.02, 13.11 -1.02 M-0.61 -0.71 C4.63 0, 9.5 -0.12, 13.74 -1.14" stroke="#d9480f" stroke-width="1" fill="none"></path></g></g><mask></mask><g stroke-linecap="round"><g transform="translate(163.9488331376633 22.870385391490345) rotate(0 -6.3326175669035365 4.966595175009388)"><path d="M1.04 -1.38 C-3.92 4.63, -7.53 4.84, -13.57 11.32 M-0.82 -0.41 C-2.53 1.67, -5.32 3.8, -13.71 10.4" stroke="#d9480f" stroke-width="1" fill="none"></path></g></g><mask></mask><g stroke-linecap="round"><g transform="translate(168.1548040318612 33.57165454680944) rotate(0 3.2222021370535003 -7.694660836010371)"><path d="M-1.33 0 C3.04 -3.25, 1.92 -7.52, 7.77 -15.65 M-0.39 0.26 C2.06 -4.63, 4.32 -10.7, 6.9 -14.89" stroke="#d9480f" stroke-width="1" fill="none"></path></g></g><mask></mask><g stroke-linecap="round"><g transform="translate(175.1292635984455 19.51625625325505) rotate(0 2.1701409523334405 6.744408756151643)"><path d="M0 1.23 C1.85 3.12, 2.67 9.34, 3.67 13.94 M0.23 -0.46 C1.18 2.26, 1.28 5.62, 4.34 12.87" stroke="#d9480f" stroke-width="1" fill="none"></path></g></g><mask></mask><g stroke-linecap="round"><g transform="translate(179.60143578275802 32.45361150073222) rotate(0 -5.462571927082536 -5.03746443682121)"><path d="M1.3 0.21 C-5.52 -3.87, -7.8 -7.79, -11.09 -10.37 M-0.48 0.29 C-2.99 -2.48, -4.84 -4.1, -12.23 -9.42" stroke="#d9480f" stroke-width="1" fill="none"></path></g></g><mask></mask><g stroke-linecap="round"><g transform="translate(167.3029622758977 23.50926713210538) rotate(0 7.136649567256882 -0.9902608078173216)"><path d="M0.21 -1.27 C2.58 0.44, 5.09 0.37, 13.16 -1.9 M0.28 -0.64 C2.94 -0.15, 6.75 -0.54, 14.07 -0.43" stroke="#d9480f" stroke-width="1" fill="none"></path></g></g><mask></mask><g stroke-linecap="round"><g transform="translate(181.51808100460676 22.870385391490345) rotate(0 -7.661189802411172 5.127560478221312)"><path d="M-1.47 -0.63 C-3.01 1.85, -6.85 4.93, -14.59 9.72 M-0.74 -0.77 C-4.51 3.02, -9.13 6.7, -12.87 11.03" stroke="#d9480f" stroke-width="1" fill="none"></path></g></g><mask></mask><g stroke-linecap="round"><g transform="translate(220.06394545692 33.57165454680944) rotate(0 3.3765358992714027 -6.700375466081823)"><path d="M-0.61 0.74 C1.43 -4.73, 4.07 -12.66, 6.24 -13.85 M-0.74 -0.13 C1.09 -3.76, 2.91 -6.64, 7.49 -14.14" stroke="#d9480f" stroke-width="1" fill="none"></path></g></g><mask></mask><g stroke-linecap="round"><g transform="translate(227.0384050235043 19.51625625325505) rotate(0 2.5669901238029524 6.081305594331752)"><path d="M0.66 -1.12 C2.08 2.99, 1.5 7.66, 5.25 12.35 M-0.12 -0.45 C1.12 4.24, 3.19 9.44, 4.99 13.29" stroke="#d9480f" stroke-width="1" fill="none"></path></g></g><mask></mask><g stroke-linecap="round"><g transform="translate(231.51057720781682 32.45361150073222) rotate(0 -6.629602062051617 -4.036828866065662)"><path d="M-1.19 0.73 C-3.73 -3.35, -5.71 -3.32, -12.78 -8.52 M-0.48 -0.41 C-2.74 -1.89, -4.48 -3.66, -11.79 -8.8" stroke="#d9480f" stroke-width="1" fill="none"></path></g></g><mask></mask><g stroke-linecap="round"><g transform="translate(219.2121037009565 23.50926713210538) rotate(0 7.270578741615736 -0.8520810139962123)"><path d="M0.7 -1.22 C2.35 -0.72, 8 -1.07, 14.94 -1.75 M-0.4 -0.31 C3.04 0.41, 6.17 -0.08, 14.67 -0.77" stroke="#d9480f" stroke-width="1" fill="none"></path></g></g><mask></mask><g stroke-linecap="round"><g transform="translate(233.42722242966465 22.870385391490345) rotate(0 -7.38442163458285 4.767803018723498)"><path d="M-1.41 -1.65 C-5.39 4.26, -10.13 8.02, -14.41 9 M-0.36 0.06 C-3.25 3.16, -7.37 6.25, -13.28 11.18" stroke="#d9480f" stroke-width="1" fill="none"></path></g></g><mask></mask><g stroke-linecap="round"><g transform="translate(185.72405189880465 33.57165454680944) rotate(0 3.031599934176029 -7.316850831322881)"><path d="M-1.58 -0.79 C2 -4.14, 3.65 -7.69, 5.55 -14.64 M0.06 0.47 C1.97 -3.33, 3.72 -7.09, 7.64 -15.1" stroke="#d9480f" stroke-width="1" fill="none"></path></g></g><mask></mask><g stroke-linecap="round"><g transform="translate(192.69851146538804 19.51625625325505) rotate(0 1.9330936660617226 6.3850554952232415)"><path d="M-0.69 0.46 C0.65 5.22, 1.98 7.99, 4.56 12.36 M0.41 0.2 C1.15 3.53, 2 7.03, 4.15 12.57" stroke="#d9480f" stroke-width="1" fill="none"></path></g></g><mask></mask><g stroke-linecap="round"><g transform="translate(197.17068364970146 32.45361150073222) rotate(0 -6.1429915598228035 -4.947212827045405)"><path d="M0.48 -0.96 C-1.87 -3.34, -6.38 -4.22, -12.77 -9.92 M0.21 0.03 C-2.74 -2.58, -5.51 -5.29, -12.55 -9.23" stroke="#d9480f" stroke-width="1" fill="none"></path></g></g><mask></mask><g stroke-linecap="round"><g transform="translate(184.87221014284114 23.50926713210538) rotate(0 6.662378260328751 -0.29374736083445896)"><path d="M-0.93 0.56 C1.62 -1.47, 5.55 -1.16, 13.58 -1.09 M0.03 0.29 C4.13 0.36, 8.19 -1.04, 14.25 -0.2" stroke="#d9480f" stroke-width="1" fill="none"></path></g></g><mask></mask><g stroke-linecap="round"><g transform="translate(199.0873288715493 22.870385391490345) rotate(0 -6.499599061863137 4.84266040667535)"><path d="M0.65 -1.47 C-4.75 2.29, -7.52 4.29, -13.65 10.67 M0.34 -0.34 C-3.96 3.03, -10.05 7.42, -12.61 11.16" stroke="#d9480f" stroke-width="1" fill="none"></path></g></g><mask></mask><g stroke-linecap="round"><g transform="translate(359.1470789648138 165.9802668473203) rotate(0 3.5505358764312405 -7.657532811564124)"><path d="M0.68 0.05 C1.64 -4.19, 2.4 -8.87, 5.92 -15.49 M0.42 0.17 C2.4 -4.95, 4.53 -10.05, 6.68 -13.75" stroke="#1864ab" stroke-width="1" fill="none"></path></g></g><mask></mask><g stroke-linecap="round"><g transform="translate(366.12153853139716 151.92486855376774) rotate(0 2.6924204835399905 6.703640368480592)"><path d="M0.04 -0.32 C0.76 1.87, 1.26 5.45, 3.81 13.73 M0.15 -0.03 C1.2 2.96, 2.08 6.05, 5.34 12.9" stroke="#1864ab" stroke-width="1" fill="none"></path></g></g><mask></mask><g stroke-linecap="round"><g transform="translate(370.5937107157097 164.8622238012431) rotate(0 -6.112817530022767 -5.0364566837643)"><path d="M-0.34 -0.31 C-3.97 -2.94, -6.09 -4.91, -11.32 -9.99 M-0.03 -0.08 C-4.92 -3.92, -9.66 -6.55, -12.2 -8.46" stroke="#1864ab" stroke-width="1" fill="none"></path></g></g><mask></mask><g stroke-linecap="round"><g transform="translate(358.29523720884936 155.91787943261443) rotate(0 7.347832236067916 -0.2512033869506922)"><path d="M-0.3 -1.36 C3.96 -1.12, 8.85 0.18, 13.52 0.86 M-0.08 -0.21 C4.7 -0.47, 10.69 -0.7, 14.99 0.02" stroke="#1864ab" stroke-width="1" fill="none"></path></g></g><mask></mask><g stroke-linecap="round"><g transform="translate(372.5103559375584 155.27899769200303) rotate(0 -6.304027190643865 5.1420888040884165)"><path d="M-1.58 -1.13 C-5.1 2.01, -7.31 5.37, -11.38 11.41 M-0.25 -0.41 C-4.52 4.03, -8.75 7.48, -12.36 11.03" stroke="#1864ab" stroke-width="1" fill="none"></path></g></g><mask></mask><g stroke-linecap="round"><g transform="translate(306.43933536398436 165.9802668473203) rotate(0 3.3904656788267857 -7.38858865245129)"><path d="M-1.08 -1.1 C0.86 -3.39, 2.98 -6.41, 7.86 -14.03 M-0.4 -0.34 C2.72 -4.65, 4.87 -7.95, 7.5 -14.43" stroke="#1864ab" stroke-width="1" fill="none"></path></g></g><mask></mask><g stroke-linecap="round"><g transform="translate(313.41379493056775 151.92486855376774) rotate(0 2.0624823332609594 6.11236983091203)"><path d="M-0.97 -0.98 C1.68 2.9, 3.87 8.17, 5.1 13.21 M-0.3 0.55 C0.99 4.46, 3.22 8.09, 4.74 13.12" stroke="#1864ab" stroke-width="1" fill="none"></path></g></g><mask></mask><g stroke-linecap="round"><g transform="translate(317.88596711488026 164.8622238012431) rotate(0 -5.691930320469055 -4.3876209084382936)"><path d="M-1.04 0.5 C-3.25 -0.56, -4.01 -3.49, -11.87 -9.27 M0.58 -0.38 C-2.51 -1.99, -5.91 -5.02, -11.97 -8.59" stroke="#1864ab" stroke-width="1" fill="none"></path></g></g><mask></mask><g stroke-linecap="round"><g transform="translate(305.58749360801994 155.91787943261443) rotate(0 7.25216985553925 -0.14515937628402753)"><path d="M0.48 -0.85 C4.68 0.74, 7 -0.17, 14.21 -0.91 M-0.37 0.62 C4.1 0.19, 7.15 -0.5, 14.87 -0.75" stroke="#1864ab" stroke-width="1" fill="none"></path></g></g><mask></mask><g stroke-linecap="round"><g transform="translate(319.802612336729 155.27899769200303) rotate(0 -6.359121193678675 5.324415569541998)"><path d="M-0.99 1.56 C-2.19 2.84, -6.11 4.72, -13.43 9.71 M0.72 0.58 C-2.75 2.58, -6.73 5.93, -13.25 10.07" stroke="#1864ab" stroke-width="1" fill="none"></path></g></g><mask></mask><g stroke-linecap="round"><g transform="translate(324.0085832309269 165.9802668473203) rotate(0 3.5652808414979518 -7.1140469758456675)"><path d="M1.49 0.83 C1.92 -3.33, 3.01 -7.06, 6.23 -15.06 M0.55 0.47 C2.67 -5.66, 5.94 -11.24, 6.58 -14.6" stroke="#1864ab" stroke-width="1" fill="none"></path></g></g><mask></mask><g stroke-linecap="round"><g transform="translate(330.9830427975121 151.92486855376774) rotate(0 2.501246290509698 7.153794525317608)"><path d="M0.74 0.31 C1.47 4.22, 2.7 8.1, 4.19 14.36 M0.41 -0.05 C1.17 3.75, 2.24 6.17, 4.59 13.82" stroke="#1864ab" stroke-width="1" fill="none"></path></g></g><mask></mask><g stroke-linecap="round"><g transform="translate(335.4552149818246 164.8622238012431) rotate(0 -5.447237042753386 -4.958355260537246)"><path d="M0.32 -0.05 C-3.1 -2.57, -6.51 -4.96, -10.65 -9.86 M-0.05 -0.15 C-4.11 -3.73, -9.61 -7.17, -11.22 -8.67" stroke="#1864ab" stroke-width="1" fill="none"></path></g></g><mask></mask><g stroke-linecap="round"><g transform="translate(323.1567414749643 155.91787943261443) rotate(0 7.324440358753691 0.0796492683211909)"><path d="M-0.05 -0.16 C5.22 -0.93, 10.68 0.72, 13.64 0.76 M-0.14 0.5 C5.03 -0.57, 10.41 0.24, 14.79 -0.6" stroke="#1864ab" stroke-width="1" fill="none"></path></g></g><mask></mask><g stroke-linecap="round"><g transform="translate(337.37186020367335 155.27899769200303) rotate(0 -6.249642076699729 5.600075226271656)"><path d="M-0.19 -0.5 C-5.36 2.99, -7.78 6.57, -11.5 11.7 M0.57 -0.32 C-5.12 3.52, -8.61 8.02, -13.07 11.24" stroke="#1864ab" stroke-width="1" fill="none"></path></g></g><mask></mask><g stroke-linecap="round"><g transform="translate(375.9177246559866 165.9802668473203) rotate(0 3.8295837133950954 -7.740115678120674)"><path d="M-0.48 -0.79 C1.58 -3.37, 3.71 -7.87, 8.14 -13.44 M-0.3 -0.45 C1.86 -3.61, 4.61 -8.59, 7.7 -15.03" stroke="#1864ab" stroke-width="1" fill="none"></path></g></g><mask></mask><g stroke-linecap="round"><g transform="translate(382.89218422257 151.92486855376774) rotate(0 2.4590218702510356 6.273950711467478)"><path d="M-0.7 -0.61 C2.51 3.23, 4.04 8.85, 5.62 13.15 M-0.4 -0.2 C2 4.14, 2.66 8.04, 4.22 12.91" stroke="#1864ab" stroke-width="1" fill="none"></path></g></g><mask></mask><g stroke-linecap="round"><g transform="translate(387.3643564068825 164.8622238012431) rotate(0 -6.202236148454631 -4.215916791207746)"><path d="M-0.64 1.17 C-4.14 -1.41, -5.76 -4.44, -11.93 -9.4 M-0.21 0.6 C-3.89 -3.55, -8.06 -7.39, -12.19 -9.6" stroke="#1864ab" stroke-width="1" fill="none"></path></g></g><mask></mask><g stroke-linecap="round"><g transform="translate(375.0658829000222 155.91787943261443) rotate(0 7.334581661307766 -0.24677423090633965)"><path d="M1.12 -0.73 C5.12 0.93, 8.61 -0.3, 14.09 0.51 M0.58 0.42 C3.65 0.52, 6.95 -0.57, 13.9 -1" stroke="#1864ab" stroke-width="1" fill="none"></path></g></g><mask></mask><g stroke-linecap="round"><g transform="translate(389.28100162873125 155.27899769200303) rotate(0 -6.532016452287735 5.139034147111488)"><path d="M-0.85 1.43 C-2.13 3.72, -6.65 5.05, -11.79 9.91 M0.48 -0.14 C-2.48 1.99, -6.75 4.69, -13.55 10.41" stroke="#1864ab" stroke-width="1" fill="none"></path></g></g><mask></mask><g stroke-linecap="round"><g transform="translate(341.5778310978694 165.9802668473203) rotate(0 3.3875368693611563 -7.084557045713154)"><path d="M1.37 1.11 C2.63 -3.78, 3.18 -6.25, 6.42 -15.28 M-0.13 0.67 C1.14 -4.34, 3.17 -8.43, 6.91 -13.74" stroke="#1864ab" stroke-width="1" fill="none"></path></g></g><mask></mask><g stroke-linecap="round"><g transform="translate(348.5522906644528 151.92486855376774) rotate(0 2.9701161500238413 6.177381375211553)"><path d="M0.98 0.82 C1.64 4.69, 4.53 9.45, 4 12.85 M0.59 -0.58 C1.55 4.59, 3.21 9.99, 5.35 12.93" stroke="#1864ab" stroke-width="1" fill="none"></path></g></g><mask></mask><g stroke-linecap="round"><g transform="translate(353.02446284876714 164.8622238012431) rotate(0 -5.686465303481327 -4.6176995461428305)"><path d="M0.87 -0.11 C-3.32 -1.16, -6.53 -5.3, -12.25 -7.9 M-0.61 -0.37 C-4.71 -3.71, -8.56 -5.83, -12.16 -9.13" stroke="#1864ab" stroke-width="1" fill="none"></path></g></g><mask></mask><g stroke-linecap="round"><g transform="translate(340.7259893419068 155.91787943261443) rotate(0 7.587672826530252 -0.16259460802211834)"><path d="M-0.11 -0.29 C6.53 -0.81, 10.28 -0.87, 15.53 0.35 M-0.36 -0.48 C3.55 -0.13, 8.72 -0.49, 14.35 -0.68" stroke="#1864ab" stroke-width="1" fill="none"></path></g></g><mask></mask><g stroke-linecap="round"><g transform="translate(354.94110807061406 155.27899769200303) rotate(0 -6.75023635324942 5.056844547457331)"><path d="M-0.33 1.15 C-5.35 2.94, -9.97 9.12, -11.97 10.27 M-0.55 -0.61 C-5.18 4.64, -10.4 8, -13.17 10.72" stroke="#1864ab" stroke-width="1" fill="none"></path></g></g><mask></mask></svg>