<svg xmlns="http://www.w3.org/2000/svg" xmlns:xlink="http://www.w3.org/1999/xlink" viewBox="0 0 500 500"><defs><clipPath id="freepik--clip-path--inject-242"><path d="M144.71,242.63s16,47.24,19.13,68S100,386.92,100,386.92l-7.26-7.73s48.83-54.3,48.83-63.64-16.61-52-16.61-52S123,246.35,144.71,242.63Z" style="fill:#fff;opacity:0.2;isolation:isolate"></path></clipPath></defs><g id="freepik--background-complete--inject-242"><rect y="382.4" width="500" height="0.25" style="fill:#ebebeb"></rect><rect x="416.78" y="398.49" width="33.12" height="0.25" style="fill:#ebebeb"></rect><rect x="322.53" y="401.21" width="8.69" height="0.25" style="fill:#ebebeb"></rect><rect x="396.59" y="389.21" width="19.19" height="0.25" style="fill:#ebebeb"></rect><rect x="52.46" y="390.89" width="43.19" height="0.25" style="fill:#ebebeb"></rect><rect x="104.56" y="390.89" width="6.33" height="0.25" style="fill:#ebebeb"></rect><rect x="131.47" y="395.11" width="93.68" height="0.25" style="fill:#ebebeb"></rect><path d="M237,337.8H43.91a5.71,5.71,0,0,1-5.7-5.71V60.66A5.71,5.71,0,0,1,43.91,55H237a5.71,5.71,0,0,1,5.71,5.71V332.09A5.71,5.71,0,0,1,237,337.8ZM43.91,55.2a5.46,5.46,0,0,0-5.45,5.46V332.09a5.46,5.46,0,0,0,5.45,5.46H237a5.47,5.47,0,0,0,5.46-5.46V60.66A5.47,5.47,0,0,0,237,55.2Z" style="fill:#ebebeb"></path><path d="M453.31,337.8H260.21a5.72,5.72,0,0,1-5.71-5.71V60.66A5.72,5.72,0,0,1,260.21,55h193.1A5.71,5.71,0,0,1,459,60.66V332.09A5.71,5.71,0,0,1,453.31,337.8ZM260.21,55.2a5.47,5.47,0,0,0-5.46,5.46V332.09a5.47,5.47,0,0,0,5.46,5.46h193.1a5.47,5.47,0,0,0,5.46-5.46V60.66a5.47,5.47,0,0,0-5.46-5.46Z" style="fill:#ebebeb"></path><polygon points="57.43 376.57 436.82 376.57 436.82 241.16 449.52 241.16 449.52 236.91 441.84 236.91 423.24 208.93 412.62 208.93 412.62 208.89 353.3 208.89 336.38 174.68 250.06 174.68 250.06 161.96 260.37 161.96 260.37 156.87 249.36 156.87 233.25 126.83 190.41 126.83 169.55 156.87 158.87 156.87 158.87 161.96 169.18 161.96 169.18 208.89 138.61 208.89 125.19 237.8 101.25 237.8 101.25 227.66 82.25 227.66 82.25 237.8 77.61 237.8 77.61 184.59 75.31 184.59 75.31 237.8 64.95 237.8 50.26 271.95 44.38 271.95 44.38 277.19 57.43 277.19 57.43 376.57" style="fill:#f0f0f0"></polygon><circle cx="117.46" cy="105.02" r="27.79" style="fill:#fafafa"></circle><path d="M103.05,104.71a4.84,4.84,0,0,0-6.22-4.63A10.21,10.21,0,0,0,86.71,88.37a10.62,10.62,0,0,0-1.89.18,8.93,8.93,0,0,0-16.57,4.52H68.1a8.24,8.24,0,1,0,0,16.48H98.35A4.82,4.82,0,0,0,103.05,104.71Z" style="fill:#f5f5f5"></path><path d="M351,127.09a4.83,4.83,0,0,0-4.83-4.83,4.92,4.92,0,0,0-1.39.2,10.21,10.21,0,0,0-10.12-11.71,9.74,9.74,0,0,0-1.88.18,8.94,8.94,0,0,0-16.58,4.51H316a8.24,8.24,0,0,0,0,16.48h30.25A4.82,4.82,0,0,0,351,127.09Z" style="fill:#f5f5f5"></path><path d="M214.72,95.84a4.83,4.83,0,0,1,6.21-4.63A10.28,10.28,0,0,1,231.05,79.5a9.77,9.77,0,0,1,1.89.18,8.94,8.94,0,0,1,16.58,4.52h.15a8.24,8.24,0,0,1,0,16.48H219.41A4.82,4.82,0,0,1,214.72,95.84Z" style="fill:#f5f5f5"></path><path d="M438.46,190.06a4.83,4.83,0,0,0-4.83-4.83,4.59,4.59,0,0,0-1.39.21,10.45,10.45,0,0,0,.11-1.49,10.23,10.23,0,0,0-10.23-10.23,10.6,10.6,0,0,0-1.88.18,8.94,8.94,0,0,0-16.58,4.52h-.15a8.24,8.24,0,0,0,0,16.48h30.26A4.82,4.82,0,0,0,438.46,190.06Z" style="fill:#f5f5f5"></path><path d="M163.65,119.18a3,3,0,0,0-3-3,2.71,2.71,0,0,0-.86.13,7.14,7.14,0,0,0,.07-.93A6.36,6.36,0,0,0,153.5,109a6.45,6.45,0,0,0-1.17.11A5.56,5.56,0,0,0,142,111.94h-.09a5.13,5.13,0,1,0,0,10.25h18.81A3,3,0,0,0,163.65,119.18Z" style="fill:#f5f5f5"></path><path d="M175.87,171.68a3,3,0,0,1,3-3,3.16,3.16,0,0,1,.87.13,5.62,5.62,0,0,1-.07-.92,6.36,6.36,0,0,1,6.36-6.36,6.45,6.45,0,0,1,1.17.11,5.56,5.56,0,0,1,10.31,2.81h.09a5.13,5.13,0,0,1,0,10.25H178.79A3,3,0,0,1,175.87,171.68Z" style="fill:#f5f5f5"></path><path d="M401,105.53a3,3,0,0,1,3.86-2.88,7,7,0,0,1-.06-.92,6.35,6.35,0,0,1,6.35-6.36,6.56,6.56,0,0,1,1.18.11,5.55,5.55,0,0,1,10.3,2.81h.1a5.13,5.13,0,0,1,0,10.25H404A3,3,0,0,1,401,105.53Z" style="fill:#f5f5f5"></path></g><g id="freepik--Shadow--inject-242"><ellipse id="freepik--path--inject-242" cx="250" cy="416.24" rx="193.89" ry="11.32" style="fill:#f5f5f5"></ellipse></g><g id="freepik--Road--inject-242"><path d="M46.55,338.24h406.9a4.94,4.94,0,0,1,4.94,4.94V382.1a0,0,0,0,1,0,0H41.61a0,0,0,0,1,0,0V343.18A4.94,4.94,0,0,1,46.55,338.24Z" style="fill:#e0e0e0"></path><polygon points="284.15 341.55 282.56 340 244.09 340 242.28 341.55 284.15 341.55" style="fill:#f0f0f0"></polygon><polygon points="241.35 342.34 237.2 345.9 288.64 345.9 284.97 342.34 241.35 342.34" style="fill:#f0f0f0"></polygon><polygon points="236.28 346.69 228.43 353.42 296.39 353.42 289.46 346.69 236.28 346.69" style="fill:#f0f0f0"></polygon><polygon points="298.43 355.4 226.12 355.4 212.72 366.87 310.25 366.87 298.43 355.4" style="fill:#f0f0f0"></polygon><polygon points="313.51 370.03 209.03 370.03 196.1 381.11 324.93 381.11 313.51 370.03" style="fill:#f0f0f0"></polygon></g><g id="freepik--Line--inject-242"><path d="M273.37,382.37h-1.15v-7.5h1.15Zm0-12.19h-1.15v-7.5h1.15Zm0-12.19h-1.15v-7.5h1.15Zm0-12.18h-1.15V338.3h1.15Zm0-12.19h-1.15v-7.51h1.15Zm0-12.19h-1.15v-7.5h1.15Zm0-12.19h-1.15v-7.5h1.15Zm0-12.19h-1.15v-7.5h1.15Zm0-12.19h-1.15v-7.5h1.15Zm0-12.19h-1.15v-7.5h1.15Zm0-12.19h-1.15V253h1.15Zm0-12.19h-1.15v-7.5h1.15Zm0-12.19h-1.15v-7.5h1.15Zm0-12.19h-1.15v-7.5h1.15Zm0-12.19h-1.15v-7.5h1.15Zm0-12.19h-1.15V192h1.15Zm0-12.19h-1.15v-7.5h1.15Zm0-12.19h-1.15v-7.5h1.15Zm0-12.19h-1.15v-7.5h1.15Zm0-12.19h-1.15v-7.5h1.15Zm0-12.18h-1.15v-7.51h1.15Zm0-12.19h-1.15v-7.51h1.15Zm0-12.19h-1.15v-7.5h1.15Zm0-12.19h-1.15v-7.5h1.15Z" style="fill:#263238"></path><g style="opacity:0.7000000000000001;isolation:isolate"><path d="M273.37,382.37h-1.15v-7.5h1.15Zm0-12.19h-1.15v-7.5h1.15Zm0-12.19h-1.15v-7.5h1.15Zm0-12.18h-1.15V338.3h1.15Zm0-12.19h-1.15v-7.51h1.15Zm0-12.19h-1.15v-7.5h1.15Zm0-12.19h-1.15v-7.5h1.15Zm0-12.19h-1.15v-7.5h1.15Zm0-12.19h-1.15v-7.5h1.15Zm0-12.19h-1.15v-7.5h1.15Zm0-12.19h-1.15V253h1.15Zm0-12.19h-1.15v-7.5h1.15Zm0-12.19h-1.15v-7.5h1.15Zm0-12.19h-1.15v-7.5h1.15Zm0-12.19h-1.15v-7.5h1.15Zm0-12.19h-1.15V192h1.15Zm0-12.19h-1.15v-7.5h1.15Zm0-12.19h-1.15v-7.5h1.15Zm0-12.19h-1.15v-7.5h1.15Zm0-12.19h-1.15v-7.5h1.15Zm0-12.18h-1.15v-7.51h1.15Zm0-12.19h-1.15v-7.51h1.15Zm0-12.19h-1.15v-7.5h1.15Zm0-12.19h-1.15v-7.5h1.15Z" style="fill:#fff"></path></g></g><g id="freepik--house-1--inject-242"><rect x="149.1" y="256.34" width="120.46" height="82.53" style="fill:#263238"></rect><rect x="149.1" y="256.34" width="120.46" height="82.53" style="fill:#fff;opacity:0.8;isolation:isolate"></rect><rect x="149.1" y="256.34" width="92.74" height="82.53" style="opacity:0.05"></rect><rect x="250.49" y="277.81" width="19.07" height="61.06" style="fill:#263238"></rect><rect x="250.49" y="277.81" width="19.07" height="61.06" style="fill:#fff;opacity:0.1;isolation:isolate"></rect><rect x="199.93" y="296.57" width="10.63" height="17.5" style="fill:#263238"></rect><rect x="199.93" y="277.81" width="10.63" height="17.5" style="fill:#263238"></rect><rect x="211.82" y="296.57" width="10.92" height="17.5" style="fill:#263238"></rect><rect x="211.82" y="277.81" width="10.92" height="17.5" style="fill:#263238"></rect><rect x="199.93" y="296.57" width="10.63" height="17.5" style="fill:#fff;opacity:0.5;isolation:isolate"></rect><rect x="199.93" y="277.81" width="10.63" height="17.5" style="fill:#fff;opacity:0.5;isolation:isolate"></rect><rect x="211.82" y="296.57" width="10.92" height="17.5" style="fill:#fff;opacity:0.5;isolation:isolate"></rect><rect x="211.82" y="277.81" width="10.92" height="17.5" style="fill:#fff;opacity:0.5;isolation:isolate"></rect><polygon points="199.94 277.81 199.94 286.47 202.25 277.81 199.94 277.81" style="fill:#fff;opacity:0.30000000000000004"></polygon><polygon points="199.94 296.57 199.94 303.22 201.71 296.57 199.94 296.57" style="fill:#fff;opacity:0.30000000000000004"></polygon><polygon points="206.74 277.81 202.06 295.31 200.22 295.31 204.9 277.81 206.74 277.81" style="fill:#fff;opacity:0.30000000000000004"></polygon><polygon points="222.74 296.57 220.23 296.57 215.55 314.08 221.1 314.08 222.74 307.99 222.74 296.57" style="fill:#fff;opacity:0.30000000000000004"></polygon><polygon points="222.74 287.24 220.57 295.31 222.74 295.31 222.74 287.24" style="fill:#fff;opacity:0.30000000000000004"></polygon><rect x="162.75" y="296.57" width="10.63" height="17.5" style="fill:#263238"></rect><rect x="162.75" y="277.81" width="10.63" height="17.5" style="fill:#263238"></rect><rect x="174.64" y="296.57" width="10.92" height="17.5" style="fill:#263238"></rect><rect x="174.64" y="277.81" width="10.92" height="17.5" style="fill:#263238"></rect><rect x="162.75" y="296.57" width="10.63" height="17.5" style="fill:#fff;opacity:0.5;isolation:isolate"></rect><rect x="162.75" y="277.81" width="10.63" height="17.5" style="fill:#fff;opacity:0.5;isolation:isolate"></rect><rect x="174.64" y="296.57" width="10.92" height="17.5" style="fill:#fff;opacity:0.5;isolation:isolate"></rect><rect x="174.64" y="277.81" width="10.92" height="17.5" style="fill:#fff;opacity:0.5;isolation:isolate"></rect><polygon points="162.75 277.81 162.75 286.47 165.07 277.81 162.75 277.81" style="fill:#fff;opacity:0.30000000000000004"></polygon><polygon points="162.75 296.57 162.75 303.22 164.53 296.57 162.75 296.57" style="fill:#fff;opacity:0.30000000000000004"></polygon><polygon points="169.56 277.81 164.88 295.31 163.03 295.31 167.72 277.81 169.56 277.81" style="fill:#fff;opacity:0.30000000000000004"></polygon><polygon points="185.55 296.57 183.05 296.57 178.36 314.08 183.92 314.08 185.55 307.99 185.55 296.57" style="fill:#fff;opacity:0.30000000000000004"></polygon><polygon points="185.55 287.24 183.39 295.31 185.55 295.31 185.55 287.24" style="fill:#fff;opacity:0.30000000000000004"></polygon><rect x="159.34" y="271.99" width="27.21" height="3.43" style="fill:#263238"></rect><rect x="183.12" y="271.99" width="3.43" height="3.43" style="fill:#fff;opacity:0.4;isolation:isolate"></rect><rect x="196.52" y="271.99" width="27.21" height="3.43" style="fill:#263238"></rect><rect x="220.3" y="271.99" width="3.43" height="3.43" style="fill:#fff;opacity:0.4;isolation:isolate"></rect><rect x="160.57" y="197.47" width="108.99" height="56.16" style="fill:#263238"></rect><rect x="160.57" y="197.47" width="108.99" height="56.16" style="fill:#fff;opacity:0.8;isolation:isolate"></rect><rect x="160.57" y="197.47" width="80.03" height="56.16" style="opacity:0.05"></rect><polygon points="269.56 178.42 269.56 197.47 153.95 197.47 158.55 193.86 178.22 178.42 269.56 178.42" style="fill:#263238"></polygon><polygon points="269.56 178.42 269.56 195.89 241.65 195.89 241.53 193.86 240.6 178.42 269.56 178.42" style="fill:#fff;opacity:0.4;isolation:isolate"></polygon><rect x="151.75" y="193.86" width="117.81" height="5.35" style="fill:#263238"></rect><rect x="151.75" y="193.86" width="117.81" height="5.35" style="fill:#fff;opacity:0.4;isolation:isolate"></rect><rect x="242.21" y="193.86" width="27.35" height="5.35" style="fill:#fff;opacity:0.4;isolation:isolate"></rect><rect x="206.66" y="231.24" width="10.63" height="17.5" style="fill:#263238"></rect><rect x="206.66" y="212.48" width="10.63" height="17.5" style="fill:#263238"></rect><rect x="218.54" y="231.24" width="10.92" height="17.5" style="fill:#263238"></rect><rect x="218.54" y="212.48" width="10.92" height="17.5" style="fill:#263238"></rect><rect x="206.66" y="231.24" width="10.63" height="17.5" style="fill:#fff;opacity:0.5;isolation:isolate"></rect><rect x="206.66" y="212.48" width="10.63" height="17.5" style="fill:#fff;opacity:0.5;isolation:isolate"></rect><rect x="218.54" y="231.24" width="10.92" height="17.5" style="fill:#fff;opacity:0.5;isolation:isolate"></rect><rect x="218.54" y="212.48" width="10.92" height="17.5" style="fill:#fff;opacity:0.5;isolation:isolate"></rect><polygon points="206.66 212.48 206.66 221.14 208.98 212.48 206.66 212.48" style="fill:#fff;opacity:0.30000000000000004"></polygon><polygon points="206.66 231.24 206.66 237.89 208.44 231.24 206.66 231.24" style="fill:#fff;opacity:0.30000000000000004"></polygon><polygon points="213.47 212.48 208.78 229.98 206.94 229.98 211.63 212.48 213.47 212.48" style="fill:#fff;opacity:0.30000000000000004"></polygon><polygon points="229.46 231.24 226.96 231.24 222.27 248.75 227.83 248.75 229.46 242.66 229.46 231.24" style="fill:#fff;opacity:0.30000000000000004"></polygon><polygon points="229.46 221.91 227.3 229.98 229.46 229.98 229.46 221.91" style="fill:#fff;opacity:0.30000000000000004"></polygon><rect x="169.48" y="231.24" width="10.63" height="17.5" style="fill:#263238"></rect><rect x="169.48" y="212.48" width="10.63" height="17.5" style="fill:#263238"></rect><rect x="181.36" y="231.24" width="10.92" height="17.5" style="fill:#263238"></rect><rect x="181.36" y="212.48" width="10.92" height="17.5" style="fill:#263238"></rect><rect x="169.48" y="231.24" width="10.63" height="17.5" style="fill:#fff;opacity:0.5;isolation:isolate"></rect><rect x="169.48" y="212.48" width="10.63" height="17.5" style="fill:#fff;opacity:0.5;isolation:isolate"></rect><rect x="181.36" y="231.24" width="10.92" height="17.5" style="fill:#fff;opacity:0.5;isolation:isolate"></rect><rect x="181.36" y="212.48" width="10.92" height="17.5" style="fill:#fff;opacity:0.5;isolation:isolate"></rect><polygon points="169.48 212.48 169.48 221.14 171.79 212.48 169.48 212.48" style="fill:#fff;opacity:0.30000000000000004"></polygon><polygon points="169.48 231.24 169.48 237.89 171.26 231.24 169.48 231.24" style="fill:#fff;opacity:0.30000000000000004"></polygon><polygon points="176.28 212.48 171.6 229.98 169.76 229.98 174.44 212.48 176.28 212.48" style="fill:#fff;opacity:0.30000000000000004"></polygon><polygon points="192.28 231.24 189.77 231.24 185.09 248.75 190.65 248.75 192.28 242.66 192.28 231.24" style="fill:#fff;opacity:0.30000000000000004"></polygon><polygon points="192.28 221.91 190.12 229.98 192.28 229.98 192.28 221.91" style="fill:#fff;opacity:0.30000000000000004"></polygon><rect x="166.06" y="206.66" width="27.21" height="3.43" style="fill:#263238"></rect><rect x="189.85" y="206.66" width="3.43" height="3.43" style="fill:#fff;opacity:0.4;isolation:isolate"></rect><rect x="203.25" y="206.66" width="27.21" height="3.43" style="fill:#263238"></rect><rect x="227.03" y="206.66" width="3.43" height="3.43" style="fill:#fff;opacity:0.4;isolation:isolate"></rect><rect x="250.35" y="231.24" width="10.63" height="17.5" style="fill:#263238"></rect><rect x="250.35" y="212.48" width="10.63" height="17.5" style="fill:#263238"></rect><rect x="262.23" y="231.24" width="7.33" height="17.51" style="fill:#263238"></rect><rect x="262.23" y="212.48" width="7.33" height="17.5" style="fill:#263238"></rect><rect x="250.35" y="231.24" width="10.63" height="17.5" style="fill:#fff;opacity:0.5;isolation:isolate"></rect><rect x="250.35" y="212.48" width="10.63" height="17.5" style="fill:#fff;opacity:0.5;isolation:isolate"></rect><rect x="262.23" y="231.24" width="7.33" height="17.51" style="fill:#fff;opacity:0.5;isolation:isolate"></rect><rect x="262.23" y="212.48" width="7.33" height="17.5" style="fill:#fff;opacity:0.5;isolation:isolate"></rect><polygon points="250.35 212.48 250.35 221.14 252.67 212.48 250.35 212.48" style="fill:#fff;opacity:0.30000000000000004"></polygon><polygon points="250.35 231.24 250.35 237.89 252.13 231.24 250.35 231.24" style="fill:#fff;opacity:0.30000000000000004"></polygon><polygon points="257.16 212.48 252.47 229.98 250.63 229.98 255.32 212.48 257.16 212.48" style="fill:#fff;opacity:0.30000000000000004"></polygon><polygon points="269.56 235.31 269.56 248.75 265.96 248.75 269.56 235.31" style="fill:#fff;opacity:0.30000000000000004"></polygon><rect x="248.8" y="206.66" width="20.76" height="3.43" style="fill:#263238"></rect><rect x="248.8" y="206.66" width="3.43" height="3.43" transform="translate(501.03 416.75) rotate(180)" style="fill:#fff;opacity:0.4;isolation:isolate"></rect><polygon points="269.56 253.71 269.56 264.49 136.29 264.49 140.88 261.06 150.73 253.71 269.56 253.71" style="fill:#263238"></polygon><polygon points="269.56 253.71 269.56 262.98 241.65 262.98 241.53 261.06 241.23 256.34 241.06 253.71 269.56 253.71" style="fill:#fff;opacity:0.4;isolation:isolate"></polygon><rect x="134.09" y="261.06" width="135.47" height="5.08" style="fill:#263238"></rect><rect x="134.09" y="261.06" width="135.47" height="5.08" style="fill:#fff;opacity:0.4;isolation:isolate"></rect><rect x="242.21" y="261.06" width="27.35" height="5.08" style="fill:#fff;opacity:0.4;isolation:isolate"></rect><polygon points="269.56 337 269.56 338.87 141.92 338.87 144.6 337 269.56 337" style="fill:#263238"></polygon><path d="M234.25,124H180.7a3.68,3.68,0,0,0-3.68,3.68v16.31a3.68,3.68,0,0,0,3.68,3.68h23.85l2.93,10,2.92-10h23.85a3.68,3.68,0,0,0,3.68-3.68V127.63A3.68,3.68,0,0,0,234.25,124Z" style="fill:#E05823"></path><path d="M192.1,137c0,1.29-1,2-2.87,2h-3.57v-7.49H189c1.72,0,2.68.73,2.68,1.93a1.77,1.77,0,0,1-1,1.67A1.82,1.82,0,0,1,192.1,137Zm-5.37-4.6v2.4h2.19c1.09,0,1.71-.41,1.71-1.2s-.62-1.2-1.71-1.2Zm4.29,4.52c0-.87-.65-1.25-1.83-1.25h-2.46v2.49h2.46C190.37,138.13,191,137.75,191,136.89Z" style="fill:#fff"></path><path d="M199.19,138.06V139h-5.44v-7.49H199v.93h-4.22v2.3h3.76v.91h-3.76v2.41Z" style="fill:#fff"></path><path d="M202,132.44v2.61h3.75V136H202v3h-1.07v-7.49h5.28v.93Z" style="fill:#fff"></path><path d="M207,135.25a4,4,0,1,1,4,3.83A3.81,3.81,0,0,1,207,135.25Zm6.89,0a2.91,2.91,0,1,0-2.9,2.88A2.81,2.81,0,0,0,213.9,135.25Z" style="fill:#fff"></path><path d="M221.61,139,220,136.7l-.47,0h-1.85V139H216.6v-7.49h2.92c1.95,0,3.13,1,3.13,2.61a2.36,2.36,0,0,1-1.65,2.36l1.77,2.52Zm0-4.88c0-1.07-.72-1.68-2.09-1.68h-1.82v3.37h1.82C220.86,135.81,221.58,135.19,221.58,134.12Z" style="fill:#fff"></path><path d="M229.81,138.06V139h-5.43v-7.49h5.28v.93h-4.21v2.3h3.75v.91h-3.75v2.41Z" style="fill:#fff"></path></g><g id="freepik--house-2--inject-242"><rect x="414.85" y="183.75" width="2.82" height="75.44" style="fill:#E05823"></rect><rect x="275.94" y="246.17" width="53.83" height="92.7" style="fill:#E05823"></rect><rect x="275.94" y="246.17" width="53.83" height="92.7" style="fill:#fff;opacity:0.8;isolation:isolate"></rect><rect x="326.42" y="261.78" width="61.87" height="77.09" style="fill:#E05823"></rect><rect x="326.43" y="261.77" width="61.87" height="77.09" style="fill:#fff;opacity:0.4;isolation:isolate"></rect><polygon points="388.3 261.77 388.3 291.55 352.53 306.9 352.53 338.87 326.43 338.87 326.43 261.77 388.3 261.77" style="opacity:0.1"></polygon><rect x="408.97" y="265.28" width="4.7" height="73.59" style="fill:#E05823"></rect><rect x="398.04" y="265.28" width="4.7" height="73.59" style="fill:#E05823"></rect><rect x="387.1" y="265.28" width="4.7" height="73.59" style="fill:#E05823"></rect><rect x="376.17" y="265.28" width="4.7" height="73.59" style="fill:#E05823"></rect><rect x="365.23" y="265.28" width="4.7" height="73.59" style="fill:#E05823"></rect><path d="M354.18,236.83V239h7.76v2.1h-7.76v.57h7.76v2.16h-7.76v.56h7.76v2.16h-7.76v.56h7.76v2.16h-7.76v.57h7.76V252h-7.76v.56h7.76v2.16h-7.76v.57h7.76v2.16h-7.76V258h7.76v1.19h1.64V258h21.88v1.19h1.64V258H409v1.19h1.65V239h3.06v-2.16Zm9.4,2.16h21.88v2.1H363.58Zm0,2.67h21.88v2.16H363.58Zm0,2.72h21.88v2.16H363.58Zm0,2.72h21.88v2.16H363.58Zm0,2.73h21.88V252H363.58Zm0,2.72h21.88v2.16H363.58Zm0,4.89v-2.16h21.88v2.16ZM387.1,239H409v2.1H387.1Zm0,2.67H409v2.16H387.1Zm0,2.72H409v2.16H387.1Zm0,2.72H409v2.16H387.1Zm0,2.73H409V252H387.1Zm0,2.72H409v2.16H387.1Zm0,4.89v-2.16H409v2.16Z" style="fill:#E05823"></path><g style="opacity:0.2;isolation:isolate"><path d="M354.18,236.83V239h7.76v2.1h-7.76v.57h7.76v2.16h-7.76v.56h7.76v2.16h-7.76v.56h7.76v2.16h-7.76v.57h7.76V252h-7.76v.56h7.76v2.16h-7.76v.57h7.76v2.16h-7.76V258h7.76v1.19h1.64V258h21.88v1.19h1.64V258H409v1.19h1.65V239h3.06v-2.16Zm9.4,2.16h21.88v2.1H363.58Zm0,2.67h21.88v2.16H363.58Zm0,2.72h21.88v2.16H363.58Zm0,2.72h21.88v2.16H363.58Zm0,2.73h21.88V252H363.58Zm0,2.72h21.88v2.16H363.58Zm0,4.89v-2.16h21.88v2.16ZM387.1,239H409v2.1H387.1Zm0,2.67H409v2.16H387.1Zm0,2.72H409v2.16H387.1Zm0,2.72H409v2.16H387.1Zm0,2.73H409V252H387.1Zm0,2.72H409v2.16H387.1Zm0,4.89v-2.16H409v2.16Z"></path></g><rect x="275.94" y="183.75" width="80.59" height="74.86" style="fill:#E05823"></rect><rect x="275.94" y="183.75" width="80.59" height="74.86" style="fill:#fff;opacity:0.8;isolation:isolate"></rect><rect x="275.94" y="194.4" width="73.43" height="64.21" style="fill:#E05823"></rect><path d="M275.94,194.4v4.91h68.58v55.13H275.94v4.17h73.43V194.4Z" style="fill:#fff;opacity:0.1;isolation:isolate"></path><rect x="275.94" y="199.31" width="63.42" height="54.38" style="fill:#E05823"></rect><rect x="275.94" y="199.31" width="63.42" height="54.38" style="fill:#fff;opacity:0.5;isolation:isolate"></rect><polygon points="339.36 199.31 339.36 229.31 332.83 253.69 320.31 253.69 334.87 199.31 339.36 199.31" style="fill:#fff;opacity:0.30000000000000004"></polygon><polygon points="331.33 199.31 316.77 253.69 314.95 253.69 329.51 199.31 331.33 199.31" style="fill:#fff;opacity:0.30000000000000004"></polygon><polygon points="331.33 307.83 331.33 277.81 337.71 277.81 337.71 272.58 290.58 272.58 290.58 313.15 337.71 313.15 337.71 307.83 331.33 307.83" style="fill:#E05823"></polygon><rect x="300.12" y="277.81" width="32.57" height="30.03"></rect><rect x="300.12" y="277.81" width="32.57" height="30.03" style="fill:#E05823"></rect><rect x="300.12" y="277.81" width="32.57" height="30.03" style="fill:#fff;opacity:0.5;isolation:isolate"></rect><polygon points="322.26 277.81 314.23 307.83 301.71 307.83 309.74 277.81 322.26 277.81" style="fill:#fff;opacity:0.30000000000000004"></polygon><polygon points="329.7 277.81 321.67 307.83 318.06 307.83 326.1 277.81 329.7 277.81" style="fill:#fff;opacity:0.30000000000000004"></polygon><rect x="290.58" y="272.58" width="4.45" height="40.57" style="opacity:0.1"></rect><rect x="276.69" y="265.35" width="11.76" height="73.52" style="fill:#E05823"></rect><rect x="276.69" y="265.35" width="11.76" height="73.52" style="fill:#fff;opacity:0.30000000000000004;isolation:isolate"></rect><rect x="282.57" y="265.35" width="5.88" height="73.52" style="fill:#fff;opacity:0.2;isolation:isolate"></rect><rect x="365.36" y="265.35" width="11.76" height="73.52" style="fill:#E05823"></rect><rect x="365.36" y="265.35" width="11.76" height="73.52" style="fill:#fff;opacity:0.30000000000000004;isolation:isolate"></rect><rect x="371.24" y="265.35" width="5.88" height="73.52" style="fill:#fff;opacity:0.2;isolation:isolate"></rect><rect x="275.94" y="258.61" width="148.14" height="7.63" style="fill:#E05823"></rect><rect x="275.94" y="258.61" width="148.14" height="7.63" style="fill:#fff;opacity:0.30000000000000004;isolation:isolate"></rect><rect x="282.57" y="258.61" width="94.55" height="7.63" style="fill:#fff;opacity:0.2;isolation:isolate"></rect><rect x="275.94" y="178.35" width="144.57" height="7.63" style="fill:#E05823"></rect><rect x="275.94" y="178.35" width="144.57" height="7.63" style="fill:#fff;opacity:0.30000000000000004;isolation:isolate"></rect><rect x="282.57" y="178.35" width="137.94" height="7.63" style="fill:#fff;opacity:0.2;isolation:isolate"></rect><polygon points="431.68 338.87 275.94 338.87 275.94 337 429 337 431.68 338.87" style="fill:#E05823"></polygon><path d="M375,124H321.49a3.68,3.68,0,0,0-3.68,3.68v16.31a3.68,3.68,0,0,0,3.68,3.68h23.85l2.93,10,2.92-10H375a3.68,3.68,0,0,0,3.68-3.68V127.63A3.68,3.68,0,0,0,375,124Z" style="fill:#E05823"></path><path d="M336.22,137.12h-4l-.83,1.88h-1.1l3.39-7.49h1.06l3.4,7.49H337Zm-.38-.85-1.61-3.67-1.62,3.67Z" style="fill:#fff"></path><path d="M340.34,132.44v2.61h3.76V136h-3.76v3h-1.07v-7.49h5.29v.93Z" style="fill:#fff"></path><path d="M347.6,132.44H345v-.93h6.19v.93h-2.57V139H347.6Z" style="fill:#fff"></path><path d="M357.83,138.06V139h-5.44v-7.49h5.29v.93h-4.22v2.3h3.76v.91h-3.76v2.41Z" style="fill:#fff"></path><path d="M364.56,139,363,136.7l-.47,0h-1.85V139h-1.07v-7.49h2.92c1.94,0,3.12,1,3.12,2.61a2.36,2.36,0,0,1-1.65,2.36l1.78,2.52Zm0-4.88c0-1.07-.72-1.68-2.08-1.68h-1.82v3.37h1.82C363.81,135.81,364.53,135.19,364.53,134.12Z" style="fill:#fff"></path></g><g id="freepik--plant-1--inject-242"><path d="M88,327s-5.13-4.28-9.52,0-5.25,30.76-5.25,30.76" style="fill:none;stroke:#E05823;stroke-miterlimit:10"></path><path d="M72.86,362.84s3-31.09-8.35-44.15" style="fill:none;stroke:#E05823;stroke-miterlimit:10"></path><path d="M74,359.56s-2.33-35.39,6.21-43.24" style="fill:none;stroke:#E05823;stroke-miterlimit:10"></path><path d="M72.86,359.56s-.19-23.38-6.54-27-9.58,8.22-9.58,8.22" style="fill:none;stroke:#E05823;stroke-miterlimit:10"></path><path d="M75.37,359.56s-1-17.95,3.88-24.37,10.09,2.75,10.09,2.75" style="fill:none;stroke:#E05823;stroke-miterlimit:10"></path><path d="M73.66,362s3.18-42-2.08-49.1" style="fill:none;stroke:#E05823;stroke-miterlimit:10"></path><path d="M60.89,336s3.16,1.16,2.22,3.92-10.94,7.28-10.94,7.28-4.19-3.84-.34-10.08S60.8,334,60.89,336Z" style="fill:#E05823"></path><path d="M60.89,336s3.16,1.16,2.22,3.92-10.94,7.28-10.94,7.28-4.19-3.84-.34-10.08S60.8,334,60.89,336Z" style="fill:#fff;opacity:0.2;isolation:isolate"></path><path d="M74.64,330.71s-3.37-.14-3.56,2.76,7.3,10.93,7.3,10.93,5.34-1.93,4.2-9.17S75.48,328.92,74.64,330.71Z" style="fill:#E05823"></path><path d="M74.64,330.71s-3.37-.14-3.56,2.76,7.3,10.93,7.3,10.93,5.34-1.93,4.2-9.17S75.48,328.92,74.64,330.71Z" style="fill:#fff;opacity:0.2;isolation:isolate"></path><path d="M77.49,316.81s-2.24-.24-2.06-1.61,8.73-4.89,13.77.81c0,0-3.23,5.54-7.9,5.62S77.49,316.81,77.49,316.81Z" style="fill:#E05823"></path><path d="M77.49,316.81s-2.24-.24-2.06-1.61,8.73-4.89,13.77.81c0,0-3.23,5.54-7.9,5.62S77.49,316.81,77.49,316.81Z" style="fill:#fff;opacity:0.2;isolation:isolate"></path><path d="M73.31,313.49s2,1,2.6-.27-4.82-8.77-12.11-6.61c0,0-.2,6.42,3.73,8.95S73.31,313.49,73.31,313.49Z" style="fill:#E05823"></path><path d="M73.31,313.49s2,1,2.6-.27-4.82-8.77-12.11-6.61c0,0-.2,6.42,3.73,8.95S73.31,313.49,73.31,313.49Z" style="fill:#fff;opacity:0.2;isolation:isolate"></path><path d="M83.94,334.84s-1.55-1.25.12-1.86,9.88-.44,10,7.69c0,0-9.56,1.59-10.74-1.51S83.94,334.84,83.94,334.84Z" style="fill:#E05823"></path><path d="M83.94,334.84s-1.55-1.25.12-1.86,9.88-.44,10,7.69c0,0-9.56,1.59-10.74-1.51S83.94,334.84,83.94,334.84Z" style="fill:#fff;opacity:0.2;isolation:isolate"></path><path d="M64.45,316.61s1.55-1.25-.12-1.87-9.88-.43-10,7.7c0,0,9.56,1.59,10.74-1.51S64.45,316.61,64.45,316.61Z" style="fill:#E05823"></path><path d="M64.45,316.61s1.55-1.25-.12-1.87-9.88-.43-10,7.7c0,0,9.56,1.59,10.74-1.51S64.45,316.61,64.45,316.61Z" style="fill:#fff;opacity:0.2;isolation:isolate"></path><path d="M69.5,323.16s.14-1.53-1.09-.93-5.51,5.21-1.07,9.59c0,0,6-4.42,4.89-6.72S69.5,323.16,69.5,323.16Z" style="fill:#E05823"></path><path d="M69.5,323.16s.14-1.53-1.09-.93-5.51,5.21-1.07,9.59c0,0,6-4.42,4.89-6.72S69.5,323.16,69.5,323.16Z" style="fill:#fff;opacity:0.2;isolation:isolate"></path><path d="M85.33,325.32s-.93-1.21.43-1.36,7.44,1.47,6,7.54c0,0-7.41-.55-7.73-3.08S85.33,325.32,85.33,325.32Z" style="fill:#E05823"></path><path d="M85.33,325.32s-.93-1.21.43-1.36,7.44,1.47,6,7.54c0,0-7.41-.55-7.73-3.08S85.33,325.32,85.33,325.32Z" style="fill:#fff;opacity:0.2;isolation:isolate"></path><polygon points="60.3 382.1 85.72 382.1 88.46 354.27 57.56 354.27 60.3 382.1" style="fill:#E05823"></polygon><polygon points="60.3 382.1 85.72 382.1 88.46 354.27 57.56 354.27 60.3 382.1" style="fill:#fff;opacity:0.5;isolation:isolate"></polygon><rect x="56.2" y="351.2" width="33.62" height="6.14" transform="translate(146.02 708.54) rotate(180)" style="fill:#E05823"></rect><rect x="56.2" y="351.2" width="33.62" height="6.14" transform="translate(146.02 708.54) rotate(180)" style="fill:#fff;opacity:0.2;isolation:isolate"></rect></g><g id="freepik--plant-2--inject-242"><path d="M429.2,358.89s4.56-10-.65-19.78S421.82,327,425.15,325s4.85,7.85,4.85,7.85a22.15,22.15,0,0,0,.48-13.89c-2.31-7.1-3.76-18.67-.6-19.91s.6,14.43,3.34,19.77a45.79,45.79,0,0,0,2.69-11.65c.38-5.7-.22-14.81,2.28-17.15s4.09-.72,1.64,11.87a131.68,131.68,0,0,0-2.43,22.82s5.41-16.51,9.05-17,3.63,4.86.52,9.5-9.12,12.95-10.1,17.23c0,0,5.95-12.43,11.29-8.62s-4.65,11.31-9.11,14-7.55,19.71-7.55,19.71Z" style="fill:#E05823"></path><path d="M429.2,358.89s4.56-10-.65-19.78S421.82,327,425.15,325s4.85,7.85,4.85,7.85a22.15,22.15,0,0,0,.48-13.89c-2.31-7.1-3.76-18.67-.6-19.91s.6,14.43,3.34,19.77a45.79,45.79,0,0,0,2.69-11.65c.38-5.7-.22-14.81,2.28-17.15s4.09-.72,1.64,11.87a131.68,131.68,0,0,0-2.43,22.82s5.41-16.51,9.05-17,3.63,4.86.52,9.5-9.12,12.95-10.1,17.23c0,0,5.95-12.43,11.29-8.62s-4.65,11.31-9.11,14-7.55,19.71-7.55,19.71Z" style="fill:#fff;opacity:0.6000000000000001;isolation:isolate"></path><path d="M432.8,363s-4.44-10,.89-19.77,6.87-12,3.57-14.09-4.94,7.79-4.94,7.79A22.19,22.19,0,0,1,432,323c2.4-7.07,4-18.61.84-19.9s-.78,14.42-3.58,19.72a46.1,46.1,0,0,1-2.54-11.69c-.31-5.71.39-14.81-2.08-17.18s-4.09-.79-1.78,11.84A132,132,0,0,1,425,328.65s-5.22-16.6-8.85-17.13-3.69,4.81-.63,9.49,8.95,13.09,9.89,17.38c0,0-5.8-12.52-11.19-8.79s4.51,11.39,8.94,14.17,7.32,19.82,7.32,19.82Z" style="fill:#E05823"></path><path d="M432.8,363s-4.44-10,.89-19.77,6.87-12,3.57-14.09-4.94,7.79-4.94,7.79A22.19,22.19,0,0,1,432,323c2.4-7.07,4-18.61.84-19.9s-.78,14.42-3.58,19.72a46.1,46.1,0,0,1-2.54-11.69c-.31-5.71.39-14.81-2.08-17.18s-4.09-.79-1.78,11.84A132,132,0,0,1,425,328.65s-5.22-16.6-8.85-17.13-3.69,4.81-.63,9.49,8.95,13.09,9.89,17.38c0,0-5.8-12.52-11.19-8.79s4.51,11.39,8.94,14.17,7.32,19.82,7.32,19.82Z" style="fill:#fff;opacity:0.7000000000000001;isolation:isolate"></path><polygon points="412.3 355.82 449.02 355.82 446.05 382.1 415.27 382.1 412.3 355.82" style="fill:#E05823"></polygon></g><g id="freepik--Bubble--inject-242"><path d="M105.42,117.15c0-6.18-6.2-11.2-13.86-11.2s-13.86,5-13.86,11.2c0,5.43,4.77,9.95,11.11,11a15.15,15.15,0,0,0,6.84,7s-2.48-1.91-2.25-6.91C100.18,127.52,105.42,122.83,105.42,117.15Z" style="fill:#E05823"></path><path d="M105.42,117.15c0-6.18-6.2-11.2-13.86-11.2s-13.86,5-13.86,11.2c0,5.43,4.77,9.95,11.11,11a15.15,15.15,0,0,0,6.84,7s-2.48-1.91-2.25-6.91C100.18,127.52,105.42,122.83,105.42,117.15Z" style="fill:#fff;opacity:0.8;isolation:isolate"></path><path d="M86,112.34c1.79-2.21,4.49-.92,5.71,1.14,1.7-1.68,4.64-2.24,5.81.36,2,4.37-3.65,7.45-6.27,8.6l-.74.33c-.18-.14-.39-.3-.64-.51C87.62,120.48,83,116.07,86,112.34Z" style="fill:#E05823"></path></g></svg>