<svg version="1.1" xmlns="http://www.w3.org/2000/svg" viewBox="0 0 348 247.26456481520836" width="348" height="247.26456481520836" filter="invert(93%) hue-rotate(180deg)">
  <!-- svg-source:excalidraw -->
  
  <defs>
    <style class="style-fonts">
      @font-face {
        font-family: "Virgil";
        src: url("https://excalidraw.com/Virgil.woff2");
      }
      @font-face {
        font-family: "Cascadia";
        src: url("https://excalidraw.com/Cascadia.woff2");
      }
    </style>
  </defs>
  <g stroke-linecap="round" transform="translate(149.91107639379698 51.16080895571031) rotate(0 24.221683577115527 23.168566899849793)"><path d="M48.44 23.17 C48.44 24.51, 48.32 25.87, 48.08 27.19 C47.83 28.51, 47.46 29.83, 46.98 31.09 C46.5 32.35, 45.9 33.59, 45.2 34.75 C44.5 35.91, 43.68 37.03, 42.78 38.06 C41.88 39.09, 40.87 40.05, 39.79 40.92 C38.72 41.78, 37.55 42.56, 36.33 43.23 C35.12 43.9, 33.82 44.48, 32.51 44.94 C31.19 45.4, 29.81 45.75, 28.43 45.99 C27.05 46.22, 25.62 46.34, 24.22 46.34 C22.82 46.34, 21.4 46.22, 20.02 45.99 C18.63 45.75, 17.25 45.4, 15.94 44.94 C14.62 44.48, 13.33 43.9, 12.11 43.23 C10.9 42.56, 9.73 41.78, 8.65 40.92 C7.58 40.05, 6.57 39.09, 5.67 38.06 C4.77 37.03, 3.95 35.91, 3.25 34.75 C2.54 33.59, 1.94 32.35, 1.46 31.09 C0.98 29.83, 0.61 28.51, 0.37 27.19 C0.12 25.87, 0 24.51, 0 23.17 C0 21.83, 0.12 20.47, 0.37 19.15 C0.61 17.82, 0.98 16.5, 1.46 15.24 C1.94 13.98, 2.54 12.75, 3.25 11.58 C3.95 10.42, 4.77 9.3, 5.67 8.28 C6.57 7.25, 7.58 6.28, 8.65 5.42 C9.73 4.56, 10.9 3.77, 12.11 3.1 C13.33 2.43, 14.62 1.86, 15.94 1.4 C17.25 0.94, 18.63 0.58, 20.02 0.35 C21.4 0.12, 22.82 0, 24.22 0 C25.62 0, 27.05 0.12, 28.43 0.35 C29.81 0.58, 31.19 0.94, 32.51 1.4 C33.82 1.86, 35.12 2.43, 36.33 3.1 C37.55 3.77, 38.72 4.56, 39.79 5.42 C40.87 6.28, 41.88 7.25, 42.78 8.28 C43.68 9.3, 44.5 10.42, 45.2 11.58 C45.9 12.75, 46.5 13.98, 46.98 15.24 C47.46 16.5, 47.83 17.82, 48.08 19.15 C48.32 20.47, 48.38 22.5, 48.44 23.17 C48.5 23.84, 48.5 22.5, 48.44 23.17" stroke="none" stroke-width="0" fill="#d9480f"></path><path d="M48.44 23.17 C48.44 24.51, 48.32 25.87, 48.08 27.19 C47.83 28.51, 47.46 29.83, 46.98 31.09 C46.5 32.35, 45.9 33.59, 45.2 34.75 C44.5 35.91, 43.68 37.03, 42.78 38.06 C41.88 39.09, 40.87 40.05, 39.79 40.92 C38.72 41.78, 37.55 42.56, 36.33 43.23 C35.12 43.9, 33.82 44.48, 32.51 44.94 C31.19 45.4, 29.81 45.75, 28.43 45.99 C27.05 46.22, 25.62 46.34, 24.22 46.34 C22.82 46.34, 21.4 46.22, 20.02 45.99 C18.63 45.75, 17.25 45.4, 15.94 44.94 C14.62 44.48, 13.33 43.9, 12.11 43.23 C10.9 42.56, 9.73 41.78, 8.65 40.92 C7.58 40.05, 6.57 39.09, 5.67 38.06 C4.77 37.03, 3.95 35.91, 3.25 34.75 C2.54 33.59, 1.94 32.35, 1.46 31.09 C0.98 29.83, 0.61 28.51, 0.37 27.19 C0.12 25.87, 0 24.51, 0 23.17 C0 21.83, 0.12 20.47, 0.37 19.15 C0.61 17.82, 0.98 16.5, 1.46 15.24 C1.94 13.98, 2.54 12.75, 3.25 11.58 C3.95 10.42, 4.77 9.3, 5.67 8.28 C6.57 7.25, 7.58 6.28, 8.65 5.42 C9.73 4.56, 10.9 3.77, 12.11 3.1 C13.33 2.43, 14.62 1.86, 15.94 1.4 C17.25 0.94, 18.63 0.58, 20.02 0.35 C21.4 0.12, 22.82 0, 24.22 0 C25.62 0, 27.05 0.12, 28.43 0.35 C29.81 0.58, 31.19 0.94, 32.51 1.4 C33.82 1.86, 35.12 2.43, 36.33 3.1 C37.55 3.77, 38.72 4.56, 39.79 5.42 C40.87 6.28, 41.88 7.25, 42.78 8.28 C43.68 9.3, 44.5 10.42, 45.2 11.58 C45.9 12.75, 46.5 13.98, 46.98 15.24 C47.46 16.5, 47.83 17.82, 48.08 19.15 C48.32 20.47, 48.38 22.5, 48.44 23.17 C48.5 23.84, 48.5 22.5, 48.44 23.17" stroke="#d9480f" stroke-width="1" fill="none"></path></g><g stroke-linecap="round"><g transform="translate(158.03894177901384 76.58053152841057) rotate(9.77322648717944 4.808746815203904 5.770496178244684)"><path d="M0 0 C1.6 1.92, 8.01 9.62, 9.62 11.54 M0 0 C1.6 1.92, 8.01 9.62, 9.62 11.54" stroke="#000000" stroke-width="4" fill="none"></path></g></g><mask></mask><g stroke-linecap="round"><g transform="translate(168.49376241595382 90.49540133086884) rotate(9.77322648717944 8.896181608127335 -14.66667778637202)"><path d="M0 0 C2.97 -4.89, 14.83 -24.44, 17.79 -29.33 M0 0 C2.97 -4.89, 14.83 -24.44, 17.79 -29.33" stroke="#000000" stroke-width="4" fill="none"></path></g></g><mask></mask><g stroke-linecap="round"><g transform="translate(158.56952379672293 73.50020814781055) rotate(9.77322648717944 4.808746815203904 5.770496178244684)"><path d="M0 0 C1.6 1.92, 8.01 9.62, 9.62 11.54 M0 0 C1.6 1.92, 8.01 9.62, 9.62 11.54" stroke="#000000" stroke-width="4" fill="none"></path></g></g><mask></mask><g stroke-linecap="round"><g transform="translate(169.02434443366292 87.41507795027246) rotate(9.77322648717944 8.896181608127335 -14.66667778637202)"><path d="M0 0 C2.97 -4.89, 14.83 -24.44, 17.79 -29.33 M0 0 C2.97 -4.89, 14.83 -24.44, 17.79 -29.33" stroke="#000000" stroke-width="4" fill="none"></path></g></g><mask></mask><g stroke-linecap="round" transform="translate(110.50545834319564 66.83220060356871) rotate(30.379126011373103 15.710490175750238 0.4763983241873575)"><path d="M0.24 0 L31.18 0 L31.42 0.71 L0.24 0.95 L0.24 0" stroke="none" stroke-width="0" fill="#d9480f"></path><path d="M0.24 0 M0.24 0 C7.1 0, 13.96 0, 31.18 0 M0.24 0 C12.02 0, 23.8 0, 31.18 0 M31.18 0 C31.34 0, 31.42 0.08, 31.42 0.24 M31.18 0 C31.34 0, 31.42 0.08, 31.42 0.24 M31.42 0.24 C31.42 0.34, 31.42 0.45, 31.42 0.71 M31.42 0.24 C31.42 0.37, 31.42 0.49, 31.42 0.71 M31.42 0.71 C31.42 0.87, 31.34 0.95, 31.18 0.95 M31.42 0.71 C31.42 0.87, 31.34 0.95, 31.18 0.95 M31.18 0.95 C21.91 0.95, 12.63 0.95, 0.24 0.95 M31.18 0.95 C24.29 0.95, 17.4 0.95, 0.24 0.95 M0.24 0.95 C0.08 0.95, 0 0.87, 0 0.71 M0.24 0.95 C0.08 0.95, 0 0.87, 0 0.71 M0 0.71 C0 0.56, 0 0.41, 0 0.24 M0 0.71 C0 0.52, 0 0.34, 0 0.24 M0 0.24 C0 0.08, 0.08 0, 0.24 0 M0 0.24 C0 0.08, 0.08 0, 0.24 0" stroke="#d9480f" stroke-width="4" fill="none"></path></g><g stroke-linecap="round" transform="translate(120.33194771854323 28.426996970823893) rotate(59.34933204294352 9.569909170835672 0.442843236729459)"><path d="M0.22 0 L18.92 0 L19.14 0.66 L0.22 0.89 L0.22 0" stroke="none" stroke-width="0" fill="#d9480f"></path><path d="M0.22 0 M0.22 0 C6.03 0, 11.83 0, 18.92 0 M0.22 0 C4.81 0, 9.4 0, 18.92 0 M18.92 0 C19.07 0, 19.14 0.07, 19.14 0.22 M18.92 0 C19.07 0, 19.14 0.07, 19.14 0.22 M19.14 0.22 C19.14 0.32, 19.14 0.42, 19.14 0.66 M19.14 0.22 C19.14 0.34, 19.14 0.46, 19.14 0.66 M19.14 0.66 C19.14 0.81, 19.07 0.89, 18.92 0.89 M19.14 0.66 C19.14 0.81, 19.07 0.89, 18.92 0.89 M18.92 0.89 C13.46 0.89, 8.01 0.89, 0.22 0.89 M18.92 0.89 C14.69 0.89, 10.46 0.89, 0.22 0.89 M0.22 0.89 C0.07 0.89, 0 0.81, 0 0.66 M0.22 0.89 C0.07 0.89, 0 0.81, 0 0.66 M0 0.66 C0 0.53, 0 0.4, 0 0.22 M0 0.66 C0 0.52, 0 0.38, 0 0.22 M0 0.22 C0 0.07, 0.07 0, 0.22 0 M0 0.22 C0 0.07, 0.07 0, 0.22 0" stroke="#d9480f" stroke-width="4" fill="none"></path></g><g stroke-linecap="round" transform="translate(204.75940095849182 65.25252558766988) rotate(154.65382405805022 15.710490175750238 0.4763983241873575)"><path d="M0.24 0 L31.18 0 L31.42 0.71 L0.24 0.95 L0.24 0" stroke="none" stroke-width="0" fill="#d9480f"></path><path d="M0.24 0 M0.24 0 C9.31 0, 18.39 0, 31.18 0 M0.24 0 C10.8 0, 21.37 0, 31.18 0 M31.18 0 C31.34 0, 31.42 0.08, 31.42 0.24 M31.18 0 C31.34 0, 31.42 0.08, 31.42 0.24 M31.42 0.24 C31.42 0.43, 31.42 0.62, 31.42 0.71 M31.42 0.24 C31.42 0.38, 31.42 0.53, 31.42 0.71 M31.42 0.71 C31.42 0.87, 31.34 0.95, 31.18 0.95 M31.42 0.71 C31.42 0.87, 31.34 0.95, 31.18 0.95 M31.18 0.95 C22.57 0.95, 13.96 0.95, 0.24 0.95 M31.18 0.95 C20.81 0.95, 10.45 0.95, 0.24 0.95 M0.24 0.95 C0.08 0.95, 0 0.87, 0 0.71 M0.24 0.95 C0.08 0.95, 0 0.87, 0 0.71 M0 0.71 C0 0.61, 0 0.51, 0 0.24 M0 0.71 C0 0.57, 0 0.42, 0 0.24 M0 0.24 C0 0.08, 0.08 0, 0.24 0 M0 0.24 C0 0.08, 0.08 0, 0.24 0" stroke="#d9480f" stroke-width="4" fill="none"></path></g><g stroke-linecap="round" transform="translate(155.2629171269964 25.23409185156379) rotate(90.00000000000391 15.710490175750238 0.4763983241873575)"><path d="M0.24 0 L31.18 0 L31.42 0.71 L0.24 0.95 L0.24 0" stroke="none" stroke-width="0" fill="#d9480f"></path><path d="M0.24 0 M0.24 0 C7.62 0, 15 0, 31.18 0 M0.24 0 C9.33 0, 18.42 0, 31.18 0 M31.18 0 C31.34 0, 31.42 0.08, 31.42 0.24 M31.18 0 C31.34 0, 31.42 0.08, 31.42 0.24 M31.42 0.24 C31.42 0.38, 31.42 0.52, 31.42 0.71 M31.42 0.24 C31.42 0.34, 31.42 0.44, 31.42 0.71 M31.42 0.71 C31.42 0.87, 31.34 0.95, 31.18 0.95 M31.42 0.71 C31.42 0.87, 31.34 0.95, 31.18 0.95 M31.18 0.95 C24.45 0.95, 17.72 0.95, 0.24 0.95 M31.18 0.95 C19.71 0.95, 8.23 0.95, 0.24 0.95 M0.24 0.95 C0.08 0.95, 0 0.87, 0 0.71 M0.24 0.95 C0.08 0.95, 0 0.87, 0 0.71 M0 0.71 C0 0.57, 0 0.42, 0 0.24 M0 0.71 C0 0.61, 0 0.5, 0 0.24 M0 0.24 C0 0.08, 0.08 0, 0.24 0 M0 0.24 C0 0.08, 0.08 0, 0.24 0" stroke="#d9480f" stroke-width="4" fill="none"></path></g><g stroke-linecap="round" transform="translate(198.02582224811886 45.83728594503373) rotate(309.8055710922674 8.226993743035564 0.40897943740583287)"><path d="M0.2 0 L16.25 0 L16.45 0.61 L0.2 0.82 L0.2 0" stroke="none" stroke-width="0" fill="#d9480f"></path><path d="M0.2 0 M0.2 0 C3.44 0, 6.67 0, 16.25 0 M0.2 0 C4.51 0, 8.82 0, 16.25 0 M16.25 0 C16.39 0, 16.45 0.07, 16.45 0.2 M16.25 0 C16.39 0, 16.45 0.07, 16.45 0.2 M16.45 0.2 C16.45 0.29, 16.45 0.37, 16.45 0.61 M16.45 0.2 C16.45 0.3, 16.45 0.39, 16.45 0.61 M16.45 0.61 C16.45 0.75, 16.39 0.82, 16.25 0.82 M16.45 0.61 C16.45 0.75, 16.39 0.82, 16.25 0.82 M16.25 0.82 C11.3 0.82, 6.34 0.82, 0.2 0.82 M16.25 0.82 C12.78 0.82, 9.31 0.82, 0.2 0.82 M0.2 0.82 C0.07 0.82, 0 0.75, 0 0.61 M0.2 0.82 C0.07 0.82, 0 0.75, 0 0.61 M0 0.61 C0 0.52, 0 0.43, 0 0.2 M0 0.61 C0 0.46, 0 0.31, 0 0.2 M0 0.2 C0 0.07, 0.07 0, 0.2 0 M0 0.2 C0 0.07, 0.07 0, 0.2 0" stroke="#d9480f" stroke-width="4" fill="none"></path></g><g stroke-linecap="round" transform="translate(188.02121381409233 26.354627415612413) rotate(296.56505117707525 8.226993743035564 0.40897943740583287)"><path d="M0.2 0 L16.25 0 L16.45 0.61 L0.2 0.82 L0.2 0" stroke="none" stroke-width="0" fill="#d9480f"></path><path d="M0.2 0 M0.2 0 C6.18 0, 12.15 0, 16.25 0 M0.2 0 C5.79 0, 11.38 0, 16.25 0 M16.25 0 C16.39 0, 16.45 0.07, 16.45 0.2 M16.25 0 C16.39 0, 16.45 0.07, 16.45 0.2 M16.45 0.2 C16.45 0.34, 16.45 0.48, 16.45 0.61 M16.45 0.2 C16.45 0.33, 16.45 0.46, 16.45 0.61 M16.45 0.61 C16.45 0.75, 16.39 0.82, 16.25 0.82 M16.45 0.61 C16.45 0.75, 16.39 0.82, 16.25 0.82 M16.25 0.82 C12.34 0.82, 8.43 0.82, 0.2 0.82 M16.25 0.82 C12.61 0.82, 8.97 0.82, 0.2 0.82 M0.2 0.82 C0.07 0.82, 0 0.75, 0 0.61 M0.2 0.82 C0.07 0.82, 0 0.75, 0 0.61 M0 0.61 C0 0.47, 0 0.33, 0 0.2 M0 0.61 C0 0.51, 0 0.41, 0 0.2 M0 0.2 C0 0.07, 0.07 0, 0.2 0 M0 0.2 C0 0.07, 0.07 0, 0.2 0" stroke="#d9480f" stroke-width="4" fill="none"></path></g><g stroke-linecap="round" transform="translate(220.6678308093342 40.04514422007014) rotate(313.02506598912106 8.226993743035564 0.40897943740583287)"><path d="M0.2 0 L16.25 0 L16.45 0.61 L0.2 0.82 L0.2 0" stroke="none" stroke-width="0" fill="#d9480f"></path><path d="M0.2 0 M0.2 0 C5.86 0, 11.52 0, 16.25 0 M0.2 0 C5.68 0, 11.15 0, 16.25 0 M16.25 0 C16.39 0, 16.45 0.07, 16.45 0.2 M16.25 0 C16.39 0, 16.45 0.07, 16.45 0.2 M16.45 0.2 C16.45 0.36, 16.45 0.51, 16.45 0.61 M16.45 0.2 C16.45 0.32, 16.45 0.43, 16.45 0.61 M16.45 0.61 C16.45 0.75, 16.39 0.82, 16.25 0.82 M16.45 0.61 C16.45 0.75, 16.39 0.82, 16.25 0.82 M16.25 0.82 C11.47 0.82, 6.69 0.82, 0.2 0.82 M16.25 0.82 C10.07 0.82, 3.89 0.82, 0.2 0.82 M0.2 0.82 C0.07 0.82, 0 0.75, 0 0.61 M0.2 0.82 C0.07 0.82, 0 0.75, 0 0.61 M0 0.61 C0 0.46, 0 0.31, 0 0.2 M0 0.61 C0 0.49, 0 0.37, 0 0.2 M0 0.2 C0 0.07, 0.07 0, 0.2 0 M0 0.2 C0 0.07, 0.07 0, 0.2 0" stroke="#d9480f" stroke-width="4" fill="none"></path></g><g stroke-linecap="round" transform="translate(119.56862979181096 48.47007763819602) rotate(227.7263109939075 8.226993743035564 0.40897943740583287)"><path d="M0.2 0 L16.25 0 L16.45 0.61 L0.2 0.82 L0.2 0" stroke="none" stroke-width="0" fill="#d9480f"></path><path d="M0.2 0 M0.2 0 C6.31 0, 12.42 0, 16.25 0 M0.2 0 C5.32 0, 10.43 0, 16.25 0 M16.25 0 C16.39 0, 16.45 0.07, 16.45 0.2 M16.25 0 C16.39 0, 16.45 0.07, 16.45 0.2 M16.45 0.2 C16.45 0.31, 16.45 0.42, 16.45 0.61 M16.45 0.2 C16.45 0.35, 16.45 0.49, 16.45 0.61 M16.45 0.61 C16.45 0.75, 16.39 0.82, 16.25 0.82 M16.45 0.61 C16.45 0.75, 16.39 0.82, 16.25 0.82 M16.25 0.82 C12.68 0.82, 9.1 0.82, 0.2 0.82 M16.25 0.82 C10.97 0.82, 5.69 0.82, 0.2 0.82 M0.2 0.82 C0.07 0.82, 0 0.75, 0 0.61 M0.2 0.82 C0.07 0.82, 0 0.75, 0 0.61 M0 0.61 C0 0.45, 0 0.29, 0 0.2 M0 0.61 C0 0.45, 0 0.3, 0 0.2 M0 0.2 C0 0.07, 0.07 0, 0.2 0 M0 0.2 C0 0.07, 0.07 0, 0.2 0" stroke="#d9480f" stroke-width="4" fill="none"></path></g><g stroke-linecap="round" transform="translate(148.00278007798988 35.832677511005386) rotate(66.61477894278454 8.226993743035564 0.40897943740583287)"><path d="M0.2 0 L16.25 0 L16.45 0.61 L0.2 0.82 L0.2 0" stroke="none" stroke-width="0" fill="#d9480f"></path><path d="M0.2 0 M0.2 0 C4.14 0, 8.08 0, 16.25 0 M0.2 0 C3.91 0, 7.62 0, 16.25 0 M16.25 0 C16.39 0, 16.45 0.07, 16.45 0.2 M16.25 0 C16.39 0, 16.45 0.07, 16.45 0.2 M16.45 0.2 C16.45 0.31, 16.45 0.42, 16.45 0.61 M16.45 0.2 C16.45 0.29, 16.45 0.38, 16.45 0.61 M16.45 0.61 C16.45 0.75, 16.39 0.82, 16.25 0.82 M16.45 0.61 C16.45 0.75, 16.39 0.82, 16.25 0.82 M16.25 0.82 C12.62 0.82, 8.99 0.82, 0.2 0.82 M16.25 0.82 C10.28 0.82, 4.31 0.82, 0.2 0.82 M0.2 0.82 C0.07 0.82, 0 0.75, 0 0.61 M0.2 0.82 C0.07 0.82, 0 0.75, 0 0.61 M0 0.61 C0 0.48, 0 0.35, 0 0.2 M0 0.61 C0 0.46, 0 0.3, 0 0.2 M0 0.2 C0 0.07, 0.07 0, 0.2 0 M0 0.2 C0 0.07, 0.07 0, 0.2 0" stroke="#d9480f" stroke-width="4" fill="none"></path></g><g stroke-linecap="round" transform="translate(205.42037547740983 82.44339795092856) rotate(204.92935145596965 15.710490175750238 0.4763983241873575)"><path d="M0.24 0 L31.18 0 L31.42 0.71 L0.24 0.95 L0.24 0" stroke="none" stroke-width="0" fill="#d9480f"></path><path d="M0.24 0 M0.24 0 C10.8 0, 21.37 0, 31.18 0 M0.24 0 C9.35 0, 18.46 0, 31.18 0 M31.18 0 C31.34 0, 31.42 0.08, 31.42 0.24 M31.18 0 C31.34 0, 31.42 0.08, 31.42 0.24 M31.42 0.24 C31.42 0.38, 31.42 0.53, 31.42 0.71 M31.42 0.24 C31.42 0.37, 31.42 0.49, 31.42 0.71 M31.42 0.71 C31.42 0.87, 31.34 0.95, 31.18 0.95 M31.42 0.71 C31.42 0.87, 31.34 0.95, 31.18 0.95 M31.18 0.95 C20.81 0.95, 10.45 0.95, 0.24 0.95 M31.18 0.95 C19.59 0.95, 8 0.95, 0.24 0.95 M0.24 0.95 C0.08 0.95, 0 0.87, 0 0.71 M0.24 0.95 C0.08 0.95, 0 0.87, 0 0.71 M0 0.71 C0 0.57, 0 0.42, 0 0.24 M0 0.71 C0 0.54, 0 0.36, 0 0.24 M0 0.24 C0 0.08, 0.08 0, 0.24 0 M0 0.24 C0 0.08, 0.08 0, 0.24 0" stroke="#d9480f" stroke-width="4" fill="none"></path></g><g stroke-linecap="round" transform="translate(211.54235910794705 121.0920245338948) rotate(233.89955748754 9.569909170835672 0.442843236729459)"><path d="M0.22 0 L18.92 0 L19.14 0.66 L0.22 0.89 L0.22 0" stroke="none" stroke-width="0" fill="#d9480f"></path><path d="M0.22 0 M0.22 0 C5.71 0, 11.21 0, 18.92 0 M0.22 0 C6.41 0, 12.59 0, 18.92 0 M18.92 0 C19.07 0, 19.14 0.07, 19.14 0.22 M18.92 0 C19.07 0, 19.14 0.07, 19.14 0.22 M19.14 0.22 C19.14 0.32, 19.14 0.41, 19.14 0.66 M19.14 0.22 C19.14 0.31, 19.14 0.4, 19.14 0.66 M19.14 0.66 C19.14 0.81, 19.07 0.89, 18.92 0.89 M19.14 0.66 C19.14 0.81, 19.07 0.89, 18.92 0.89 M18.92 0.89 C11.99 0.89, 5.05 0.89, 0.22 0.89 M18.92 0.89 C12.41 0.89, 5.91 0.89, 0.22 0.89 M0.22 0.89 C0.07 0.89, 0 0.81, 0 0.66 M0.22 0.89 C0.07 0.89, 0 0.81, 0 0.66 M0 0.66 C0 0.56, 0 0.46, 0 0.22 M0 0.66 C0 0.53, 0 0.4, 0 0.22 M0 0.22 C0 0.07, 0.07 0, 0.22 0 M0 0.22 C0 0.07, 0.07 0, 0.22 0" stroke="#d9480f" stroke-width="4" fill="none"></path></g><g stroke-linecap="round" transform="translate(111.74250302195651 92.96752660381571) rotate(329.2040495026467 15.710490175750238 0.4763983241873575)"><path d="M0.24 0 L31.18 0 L31.42 0.71 L0.24 0.95 L0.24 0" stroke="none" stroke-width="0" fill="#d9480f"></path><path d="M0.24 0 M0.24 0 C8.55 0, 16.86 0, 31.18 0 M0.24 0 C11.64 0, 23.04 0, 31.18 0 M31.18 0 C31.34 0, 31.42 0.08, 31.42 0.24 M31.18 0 C31.34 0, 31.42 0.08, 31.42 0.24 M31.42 0.24 C31.42 0.35, 31.42 0.46, 31.42 0.71 M31.42 0.24 C31.42 0.34, 31.42 0.44, 31.42 0.71 M31.42 0.71 C31.42 0.87, 31.34 0.95, 31.18 0.95 M31.42 0.71 C31.42 0.87, 31.34 0.95, 31.18 0.95 M31.18 0.95 C24.49 0.95, 17.8 0.95, 0.24 0.95 M31.18 0.95 C23.65 0.95, 16.11 0.95, 0.24 0.95 M0.24 0.95 C0.08 0.95, 0 0.87, 0 0.71 M0.24 0.95 C0.08 0.95, 0 0.87, 0 0.71 M0 0.71 C0 0.54, 0 0.36, 0 0.24 M0 0.71 C0 0.55, 0 0.39, 0 0.24 M0 0.24 C0 0.08, 0.08 0, 0.24 0 M0 0.24 C0 0.08, 0.08 0, 0.24 0" stroke="#d9480f" stroke-width="4" fill="none"></path></g><g stroke-linecap="round" transform="translate(164.81593133676142 128.10423329760488) rotate(264.55022544460047 15.710490175750238 0.4763983241873575)"><path d="M0.24 0 L31.18 0 L31.42 0.71 L0.24 0.95 L0.24 0" stroke="none" stroke-width="0" fill="#d9480f"></path><path d="M0.24 0 M0.24 0 C11.02 0, 21.8 0, 31.18 0 M0.24 0 C8.98 0, 17.72 0, 31.18 0 M31.18 0 C31.34 0, 31.42 0.08, 31.42 0.24 M31.18 0 C31.34 0, 31.42 0.08, 31.42 0.24 M31.42 0.24 C31.42 0.38, 31.42 0.53, 31.42 0.71 M31.42 0.24 C31.42 0.38, 31.42 0.52, 31.42 0.71 M31.42 0.71 C31.42 0.87, 31.34 0.95, 31.18 0.95 M31.42 0.71 C31.42 0.87, 31.34 0.95, 31.18 0.95 M31.18 0.95 C24.16 0.95, 17.15 0.95, 0.24 0.95 M31.18 0.95 C23.43 0.95, 15.68 0.95, 0.24 0.95 M0.24 0.95 C0.08 0.95, 0 0.87, 0 0.71 M0.24 0.95 C0.08 0.95, 0 0.87, 0 0.71 M0 0.71 C0 0.6, 0 0.48, 0 0.24 M0 0.71 C0 0.58, 0 0.45, 0 0.24 M0 0.24 C0 0.08, 0.08 0, 0.24 0 M0 0.24 C0 0.08, 0.08 0, 0.24 0" stroke="#d9480f" stroke-width="4" fill="none"></path></g><g stroke-linecap="round" transform="translate(135.2291405536871 111.07929873373178) rotate(484.355796536864 8.226993743035564 0.40897943740583287)"><path d="M0.2 0 L16.25 0 L16.45 0.61 L0.2 0.82 L0.2 0" stroke="none" stroke-width="0" fill="#d9480f"></path><path d="M0.2 0 M0.2 0 C5.68 0, 11.15 0, 16.25 0 M0.2 0 C5.93 0, 11.66 0, 16.25 0 M16.25 0 C16.39 0, 16.45 0.07, 16.45 0.2 M16.25 0 C16.39 0, 16.45 0.07, 16.45 0.2 M16.45 0.2 C16.45 0.32, 16.45 0.43, 16.45 0.61 M16.45 0.2 C16.45 0.29, 16.45 0.38, 16.45 0.61 M16.45 0.61 C16.45 0.75, 16.39 0.82, 16.25 0.82 M16.45 0.61 C16.45 0.75, 16.39 0.82, 16.25 0.82 M16.25 0.82 C10.07 0.82, 3.89 0.82, 0.2 0.82 M16.25 0.82 C11.08 0.82, 5.91 0.82, 0.2 0.82 M0.2 0.82 C0.07 0.82, 0 0.75, 0 0.61 M0.2 0.82 C0.07 0.82, 0 0.75, 0 0.61 M0 0.61 C0 0.49, 0 0.37, 0 0.2 M0 0.61 C0 0.49, 0 0.37, 0 0.2 M0 0.2 C0 0.07, 0.07 0, 0.2 0 M0 0.2 C0 0.07, 0.07 0, 0.2 0" stroke="#d9480f" stroke-width="4" fill="none"></path></g><g stroke-linecap="round" transform="translate(147.0388559914354 129.52372321842813) rotate(471.11527662167174 8.226993743035564 0.40897943740583287)"><path d="M0.2 0 L16.25 0 L16.45 0.61 L0.2 0.82 L0.2 0" stroke="none" stroke-width="0" fill="#d9480f"></path><path d="M0.2 0 M0.2 0 C5.32 0, 10.43 0, 16.25 0 M0.2 0 C3.5 0, 6.79 0, 16.25 0 M16.25 0 C16.39 0, 16.45 0.07, 16.45 0.2 M16.25 0 C16.39 0, 16.45 0.07, 16.45 0.2 M16.45 0.2 C16.45 0.35, 16.45 0.49, 16.45 0.61 M16.45 0.2 C16.45 0.33, 16.45 0.46, 16.45 0.61 M16.45 0.61 C16.45 0.75, 16.39 0.82, 16.25 0.82 M16.45 0.61 C16.45 0.75, 16.39 0.82, 16.25 0.82 M16.25 0.82 C10.97 0.82, 5.69 0.82, 0.2 0.82 M16.25 0.82 C12.81 0.82, 9.38 0.82, 0.2 0.82 M0.2 0.82 C0.07 0.82, 0 0.75, 0 0.61 M0.2 0.82 C0.07 0.82, 0 0.75, 0 0.61 M0 0.61 C0 0.45, 0 0.3, 0 0.2 M0 0.61 C0 0.5, 0 0.39, 0 0.2 M0 0.2 C0 0.07, 0.07 0, 0.2 0 M0 0.2 C0 0.07, 0.07 0, 0.2 0" stroke="#d9480f" stroke-width="4" fill="none"></path></g><g stroke-linecap="round" transform="translate(113.23957558147231 118.99564194137383) rotate(487.57529143371744 8.226993743035564 0.40897943740583287)"><path d="M0.2 0 L16.25 0 L16.45 0.61 L0.2 0.82 L0.2 0" stroke="none" stroke-width="0" fill="#d9480f"></path><path d="M0.2 0 M0.2 0 C3.91 0, 7.62 0, 16.25 0 M0.2 0 C3.79 0, 7.37 0, 16.25 0 M16.25 0 C16.39 0, 16.45 0.07, 16.45 0.2 M16.25 0 C16.39 0, 16.45 0.07, 16.45 0.2 M16.45 0.2 C16.45 0.29, 16.45 0.38, 16.45 0.61 M16.45 0.2 C16.45 0.33, 16.45 0.45, 16.45 0.61 M16.45 0.61 C16.45 0.75, 16.39 0.82, 16.25 0.82 M16.45 0.61 C16.45 0.75, 16.39 0.82, 16.25 0.82 M16.25 0.82 C10.28 0.82, 4.31 0.82, 0.2 0.82 M16.25 0.82 C11.05 0.82, 5.85 0.82, 0.2 0.82 M0.2 0.82 C0.07 0.82, 0 0.75, 0 0.61 M0.2 0.82 C0.07 0.82, 0 0.75, 0 0.61 M0 0.61 C0 0.46, 0 0.3, 0 0.2 M0 0.61 C0 0.45, 0 0.29, 0 0.2 M0 0.2 C0 0.07, 0.07 0, 0.2 0 M0 0.2 C0 0.07, 0.07 0, 0.2 0" stroke="#d9480f" stroke-width="4" fill="none"></path></g><g stroke-linecap="round" transform="translate(213.08164896897142 101.00708082138044) rotate(402.27653643850397 8.226993743035564 0.40897943740583287)"><path d="M0.2 0 L16.25 0 L16.45 0.61 L0.2 0.82 L0.2 0" stroke="none" stroke-width="0" fill="#d9480f"></path><path d="M0.2 0 M0.2 0 C4.93 0, 9.65 0, 16.25 0 M0.2 0 C3.79 0, 7.38 0, 16.25 0 M16.25 0 C16.39 0, 16.45 0.07, 16.45 0.2 M16.25 0 C16.39 0, 16.45 0.07, 16.45 0.2 M16.45 0.2 C16.45 0.31, 16.45 0.42, 16.45 0.61 M16.45 0.2 C16.45 0.32, 16.45 0.44, 16.45 0.61 M16.45 0.61 C16.45 0.75, 16.39 0.82, 16.25 0.82 M16.45 0.61 C16.45 0.75, 16.39 0.82, 16.25 0.82 M16.25 0.82 C10.24 0.82, 4.23 0.82, 0.2 0.82 M16.25 0.82 C11.48 0.82, 6.72 0.82, 0.2 0.82 M0.2 0.82 C0.07 0.82, 0 0.75, 0 0.61 M0.2 0.82 C0.07 0.82, 0 0.75, 0 0.61 M0 0.61 C0 0.46, 0 0.31, 0 0.2 M0 0.61 C0 0.46, 0 0.31, 0 0.2 M0 0.2 C0 0.07, 0.07 0, 0.2 0 M0 0.2 C0 0.07, 0.07 0, 0.2 0" stroke="#d9480f" stroke-width="4" fill="none"></path></g><g stroke-linecap="round" transform="translate(185.97623948004184 116.28783868573555) rotate(241.16500438738098 8.226993743035564 0.40897943740583287)"><path d="M0.2 0 L16.25 0 L16.45 0.61 L0.2 0.82 L0.2 0" stroke="none" stroke-width="0" fill="#d9480f"></path><path d="M0.2 0 M0.2 0 C5.51 0, 10.82 0, 16.25 0 M0.2 0 C6.6 0, 12.99 0, 16.25 0 M16.25 0 C16.39 0, 16.45 0.07, 16.45 0.2 M16.25 0 C16.39 0, 16.45 0.07, 16.45 0.2 M16.45 0.2 C16.45 0.29, 16.45 0.37, 16.45 0.61 M16.45 0.2 C16.45 0.32, 16.45 0.43, 16.45 0.61 M16.45 0.61 C16.45 0.75, 16.39 0.82, 16.25 0.82 M16.45 0.61 C16.45 0.75, 16.39 0.82, 16.25 0.82 M16.25 0.82 C10.67 0.82, 5.09 0.82, 0.2 0.82 M16.25 0.82 C12.85 0.82, 9.45 0.82, 0.2 0.82 M0.2 0.82 C0.07 0.82, 0 0.75, 0 0.61 M0.2 0.82 C0.07 0.82, 0 0.75, 0 0.61 M0 0.61 C0 0.49, 0 0.37, 0 0.2 M0 0.61 C0 0.46, 0 0.31, 0 0.2 M0 0.2 C0 0.07, 0.07 0, 0.2 0 M0 0.2 C0 0.07, 0.07 0, 0.2 0" stroke="#d9480f" stroke-width="4" fill="none"></path></g><g transform="translate(10 177.26456481520836) rotate(0 164 30)"><text x="164" y="15" font-family="Helvetica, Segoe UI Emoji" font-size="17.048412011899753px" fill="#aaaaaa" text-anchor="middle" style="white-space: pre;" direction="ltr"></text><text x="164" y="35" font-family="Helvetica, Segoe UI Emoji" font-size="17.048412011899753px" fill="#aaaaaa" text-anchor="middle" style="white-space: pre;" direction="ltr">now you wiat for the provider to </text><text x="164" y="55" font-family="Helvetica, Segoe UI Emoji" font-size="17.048412011899753px" fill="#aaaaaa" text-anchor="middle" style="white-space: pre;" direction="ltr">accept your demande So you can call him .</text></g><g transform="translate(80.90895648976039 160.71054432785786) rotate(0 52.5 16)"><text x="52.5" y="25" font-family="Helvetica, Segoe UI Emoji" font-size="28px" fill="#aaaaaa" text-anchor="middle" style="white-space: pre;" direction="ltr">You are </text></g><g transform="translate(182.09104351024143 160.71054432785786) rotate(0 42.5 16)"><text x="42.5" y="25" font-family="Helvetica, Segoe UI Emoji" font-size="28px" fill="#d9480f" text-anchor="middle" style="white-space: pre;" direction="ltr">Done !</text></g></svg>