<svg width="139" height="150" viewBox="0 0 139 150" fill="none" xmlns="http://www.w3.org/2000/svg">
<path d="M64.873 110.232V100.383L52.687 93.345L53.905 103.899L64.873 110.232Z" fill="#263238"/>
<path d="M64.873 110.232L83.152 99.678L84.37 89.124L64.873 100.383V110.232Z" fill="#37474F"/>
<path d="M51.925 91.236C51.934 91.1393 51.9684 91.0467 52.0248 90.9677C52.0812 90.8886 52.1575 90.8259 52.2461 90.786L71.404 79.725C71.6457 79.6022 71.913 79.5382 72.184 79.5382C72.4551 79.5382 72.7224 79.6022 72.964 79.725L84.811 86.565C84.8997 86.6046 84.9763 86.6673 85.0327 86.7464C85.0891 86.8255 85.1234 86.9182 85.132 87.015V89.829C85.1239 89.9263 85.0899 90.0197 85.0334 90.0993C84.977 90.179 84.9002 90.2421 84.811 90.282L65.653 101.34C65.4114 101.463 65.1441 101.527 64.873 101.527C64.602 101.527 64.3347 101.463 64.093 101.34L52.2461 94.5C52.1577 94.4598 52.0815 94.3971 52.0252 94.3181C51.9688 94.2391 51.9343 94.1466 51.925 94.05V91.236Z" fill="#FF6F00"/>
<path opacity="0.2" d="M52.246 90.786L64.873 83.496V101.529C64.6011 101.534 64.3324 101.469 64.093 101.34L52.246 94.5C52.1577 94.4598 52.0815 94.3971 52.0251 94.3181C51.9687 94.2391 51.9342 94.1466 51.925 94.05V91.233C51.9344 91.1368 51.9691 91.0449 52.0254 90.9664C52.0818 90.8879 52.1579 90.8257 52.246 90.786Z" fill="black"/>
<path opacity="0.1" d="M64.873 83.496L71.404 79.725C71.6457 79.6022 71.9129 79.5382 72.184 79.5382C72.4551 79.5382 72.7223 79.6022 72.964 79.725L84.811 86.565C84.8997 86.6046 84.9762 86.6673 85.0326 86.7464C85.0891 86.8255 85.1234 86.9182 85.132 87.015V89.829C85.1239 89.9263 85.0898 90.0197 85.0334 90.0993C84.9769 90.179 84.9001 90.2421 84.811 90.282L65.653 101.34C65.4136 101.469 65.1449 101.534 64.873 101.529V83.496Z" fill="black"/>
<path d="M64.093 98.526L52.246 91.686C51.817 91.437 51.817 91.035 52.246 90.786L71.404 79.725C71.6457 79.6022 71.9129 79.5382 72.184 79.5382C72.4551 79.5382 72.7223 79.6022 72.964 79.725L84.811 86.565C85.24 86.814 85.24 87.216 84.811 87.465L65.653 98.526C65.4113 98.6488 65.1441 98.7128 64.873 98.7128C64.6019 98.7128 64.3347 98.6488 64.093 98.526Z" fill="#FF6F00"/>
<path opacity="0.2" d="M81.325 87.366C81.661 87.561 81.643 87.885 81.283 88.092L67.96 95.787C67.7665 95.8893 67.5515 95.9446 67.3325 95.9482C67.1136 95.9519 66.8969 95.9038 66.7 95.808C66.364 95.616 66.382 95.289 66.742 95.082L80.065 87.39C80.2583 87.2872 80.4732 87.2314 80.6921 87.2272C80.9111 87.2231 81.1279 87.2706 81.325 87.366Z" fill="black"/>
<path opacity="0.2" d="M67.96 95.787C67.7664 95.8893 67.5514 95.9446 67.3325 95.9482C67.1135 95.9519 66.8968 95.9038 66.7 95.808L66.634 95.763C66.6677 95.7349 66.7039 95.7098 66.742 95.688L80.065 87.996C80.2583 87.8932 80.4732 87.8374 80.6921 87.8332C80.911 87.8291 81.1279 87.8766 81.325 87.972L81.391 88.02C81.3571 88.0471 81.321 88.0712 81.283 88.092L67.96 95.787Z" fill="black"/>
<path opacity="0.2" d="M71.575 81.738C71.914 81.93 71.896 82.257 71.536 82.464L58.21 90.156C58.0172 90.2588 57.8028 90.3145 57.5844 90.3187C57.3659 90.3229 57.1496 90.2754 56.953 90.18C56.617 89.985 56.635 89.661 56.992 89.454L70.318 81.759C70.511 81.6567 70.7255 81.6014 70.944 81.5978C71.1624 81.5941 71.3786 81.6422 71.575 81.738Z" fill="black"/>
<path opacity="0.2" d="M58.21 90.156C58.0172 90.2588 57.8029 90.3146 57.5844 90.3187C57.366 90.3229 57.1496 90.2754 56.953 90.18C56.9293 90.1665 56.9072 90.1504 56.887 90.132C56.9203 90.1056 56.9554 90.0816 56.992 90.06L70.318 82.368C70.5106 82.2645 70.725 82.2083 70.9436 82.2042C71.1622 82.2 71.3786 82.2479 71.575 82.344C71.598 82.3576 71.62 82.3726 71.641 82.389C71.6083 82.4171 71.5732 82.4422 71.536 82.464L58.21 90.156Z" fill="black"/>
<path opacity="0.2" d="M59.386 90.9C59.05 91.095 59.068 91.419 59.428 91.626L64.228 94.392C64.4208 94.4948 64.6352 94.5505 64.8536 94.5547C65.0721 94.5589 65.2884 94.5113 65.485 94.416C65.821 94.221 65.803 93.897 65.446 93.69L60.646 90.924C60.4527 90.8212 60.2378 90.7654 60.0189 90.7612C59.7999 90.7571 59.5831 90.8046 59.386 90.9Z" fill="black"/>
<path opacity="0.2" d="M64.225 94.377C64.4178 94.4798 64.6322 94.5355 64.8506 94.5397C65.0691 94.5439 65.2854 94.4963 65.482 94.401C65.5049 94.3874 65.527 94.3724 65.548 94.356C65.5153 94.3279 65.4802 94.3028 65.443 94.281L60.643 91.515C60.4497 91.4122 60.2348 91.3564 60.0159 91.3522C59.7969 91.3481 59.5801 91.3956 59.383 91.491C59.3608 91.5053 59.3397 91.5213 59.32 91.539C59.3524 91.5666 59.3876 91.5908 59.425 91.611L64.225 94.377Z" fill="black"/>
<path opacity="0.2" d="M56.953 92.292C56.617 92.484 56.635 92.811 56.992 93.018L61.792 95.784C61.9853 95.8868 62.2002 95.9426 62.4191 95.9467C62.638 95.9509 62.8549 95.9034 63.052 95.808C63.388 95.613 63.37 95.286 63.01 95.079L58.21 92.313C58.0169 92.2107 57.8024 92.1554 57.584 92.1518C57.3655 92.1481 57.1493 92.1962 56.953 92.292Z" fill="black"/>
<path opacity="0.2" d="M61.789 95.784C61.9823 95.8868 62.1972 95.9426 62.4161 95.9467C62.635 95.9509 62.8519 95.9034 63.049 95.808C63.073 95.793 63.091 95.775 63.112 95.76C63.0793 95.7319 63.0441 95.7068 63.007 95.685L58.207 92.919C58.0139 92.8167 57.7994 92.7614 57.581 92.7578C57.3625 92.7541 57.1463 92.8022 56.95 92.898C56.9264 92.9105 56.9042 92.9256 56.884 92.943C56.9167 92.9711 56.9518 92.9962 56.989 93.018L61.789 95.784Z" fill="black"/>
<path opacity="0.2" d="M74.011 82.443C73.675 82.638 73.69 82.962 74.05 83.169L78.85 85.935C79.0428 86.0378 79.2572 86.0935 79.4756 86.0977C79.6941 86.1019 79.9104 86.0544 80.107 85.959C80.446 85.764 80.428 85.44 80.068 85.233L75.268 82.467C75.0752 82.3642 74.8608 82.3084 74.6424 82.3043C74.4239 82.3001 74.2076 82.3476 74.011 82.443Z" fill="black"/>
<path opacity="0.2" d="M78.847 85.935C79.0403 86.0378 79.2552 86.0936 79.4741 86.0977C79.6931 86.1019 79.9099 86.0544 80.107 85.959C80.1293 85.9447 80.1503 85.9286 80.17 85.911C80.1372 85.8839 80.1021 85.8598 80.065 85.839L75.265 83.073C75.0722 82.9702 74.8578 82.9144 74.6394 82.9103C74.4209 82.9061 74.2046 82.9536 74.008 83.049C73.9851 83.0626 73.963 83.0776 73.942 83.094C73.9747 83.1221 74.0098 83.1472 74.047 83.169L78.847 85.935Z" fill="black"/>
<path opacity="0.2" d="M71.575 83.847C71.239 84.042 71.257 84.369 71.614 84.576L76.414 87.342C76.6076 87.4439 76.8224 87.4991 77.0411 87.5033C77.2599 87.5075 77.4766 87.4605 77.674 87.366C78.01 87.171 77.992 86.844 77.632 86.637L72.832 83.871C72.6387 83.7696 72.4245 83.7146 72.2063 83.7104C71.9881 83.7063 71.772 83.753 71.575 83.847Z" fill="black"/>
<path opacity="0.2" d="M76.411 87.342C76.6046 87.4439 76.8194 87.4991 77.0381 87.5033C77.2569 87.5075 77.4736 87.4604 77.671 87.366L77.737 87.318C77.7032 87.2899 77.6671 87.2648 77.629 87.243L72.829 84.477C72.6354 84.3751 72.4206 84.3198 72.2018 84.3157C71.9831 84.3115 71.7664 84.3585 71.569 84.453L71.503 84.501C71.5362 84.5284 71.5713 84.5534 71.608 84.576L76.411 87.342Z" fill="black"/>
<path d="M63.655 88.515V91.236L64.873 91.941L66.091 91.236V89.172C66.1034 88.9468 66.1685 88.7277 66.281 88.5323C66.3936 88.3369 66.5505 88.1707 66.739 88.047L69.739 86.31L70.309 85.983C70.666 85.776 70.957 85.944 70.957 86.358V88.422L72.175 87.717V84.996C72.1782 84.942 72.1782 84.8879 72.175 84.834C72.1724 84.7926 72.1664 84.7514 72.157 84.711C72.1486 84.6641 72.1366 84.618 72.121 84.573C72.1088 84.5373 72.0948 84.5022 72.079 84.468C72.0625 84.4336 72.0434 84.4005 72.022 84.369C72.0025 84.3382 71.9804 84.3091 71.956 84.282C71.9333 84.2557 71.9082 84.2316 71.881 84.21C71.8549 84.1892 71.8268 84.1711 71.797 84.156L71.758 84.135L70.585 83.457C70.4385 83.3884 70.2762 83.3605 70.1152 83.3763C69.9541 83.3922 69.8004 83.4511 69.67 83.547L64.957 86.268C64.5784 86.5135 64.2631 86.845 64.0368 87.2355C63.8106 87.626 63.6797 88.0644 63.655 88.515Z" fill="#455A64"/>
<path d="M69.745 86.31V87.714L70.963 88.419V86.355C70.963 85.941 70.663 85.773 70.315 85.98L69.745 86.31Z" fill="#263238"/>
<path d="M64.873 89.217V91.941L66.091 91.236V89.172C66.1034 88.9468 66.1685 88.7277 66.281 88.5323C66.3936 88.3369 66.5504 88.1707 66.739 88.047L69.739 86.313L70.309 85.986C70.666 85.779 70.957 85.947 70.957 86.361V88.425L72.175 87.723V84.999C72.1781 84.945 72.1781 84.8909 72.175 84.837C72.1724 84.7956 72.1664 84.7544 72.157 84.714C72.1485 84.6671 72.1365 84.621 72.121 84.576C72.1088 84.5403 72.0948 84.5052 72.079 84.471C72.0624 84.4366 72.0434 84.4035 72.022 84.372C72.0024 84.3412 71.9803 84.3121 71.956 84.285C71.9333 84.2587 71.9081 84.2346 71.881 84.213C71.8548 84.1922 71.8267 84.1742 71.797 84.159L71.758 84.138C71.6147 84.0845 71.4605 84.0669 71.3088 84.0867C71.1571 84.1066 71.0126 84.1633 70.888 84.252L66.175 86.973C65.7974 87.2189 65.4828 87.5501 65.2567 87.9399C65.0305 88.3297 64.8991 88.7671 64.873 89.217Z" fill="#37474F"/>
<path d="M70.966 101.085L70.516 100.827L69.295 101.529L69.748 101.79L70.966 101.085Z" fill="#455A64"/>
<path d="M69.748 101.79L69.298 107.679L69.295 101.529L69.748 101.79Z" fill="#263238"/>
<path d="M70.966 101.085L70.516 106.974L70.663 106.905L70.966 101.085Z" fill="#37474F"/>
<path d="M60.766 102.234L61.216 101.973L62.434 102.675L61.984 102.936L60.766 102.234Z" fill="#455A64"/>
<path d="M60.766 102.234L61.216 108.12L61.069 108.051L60.766 102.234Z" fill="black"/>
<path d="M55.891 99.417L56.344 99.159L57.562 99.861L57.109 100.122L55.891 99.417Z" fill="#455A64"/>
<path d="M62.434 108.825L61.984 102.936L62.434 102.675V108.825Z" fill="#37474F"/>
<path d="M57.562 99.861V106.011L57.109 100.122L57.562 99.861Z" fill="#37474F"/>
<path d="M55.891 99.417L56.341 105.306L56.194 105.237L55.891 99.417Z" fill="black"/>
<path d="M79.495 96.162L79.045 95.901L77.827 96.603L78.277 96.864L79.495 96.162Z" fill="#455A64"/>
<path d="M78.277 96.864L77.827 102.753V96.603L78.277 96.864Z" fill="#263238"/>
<path d="M79.495 96.162L79.045 102.051L79.195 101.979L79.495 96.162Z" fill="#37474F"/>
<path d="M68.641 100.086L68.644 98.679L71.08 97.272L71.488 97.506L71.485 98.913L69.046 100.32L68.641 100.086Z" fill="#37474F"/>
<path d="M71.488 97.506L71.485 98.913L69.046 100.32L69.052 98.913L71.488 97.506Z" fill="#455A64"/>
<path d="M69.052 98.913L68.644 98.679L68.641 100.086L69.046 100.32L69.052 98.913Z" fill="#263238"/>
<path d="M77.236 95.127L77.242 93.72L79.678 92.313L80.086 92.547L80.08 93.954L77.644 95.361L77.236 95.127Z" fill="#37474F"/>
<path d="M80.086 92.547L80.08 93.954L77.644 95.361L77.647 93.954L80.086 92.547Z" fill="#455A64"/>
<path d="M77.647 93.954L77.242 93.72L77.236 95.127L77.644 95.361L77.647 93.954Z" fill="#263238"/>
<path d="M63.217 116.028C63.052 116.121 62.743 116.118 62.644 116.229V116.634L64.528 116.361L65.239 116.778L64.969 117.345L63.067 117.216V117.621C63.1073 117.651 63.1494 117.679 63.193 117.705C63.6431 117.933 64.1405 118.051 64.645 118.051C65.1495 118.051 65.6469 117.933 66.097 117.705C66.2629 117.63 66.406 117.513 66.5114 117.365C66.6169 117.217 66.6809 117.043 66.697 116.862V116.457L66.586 116.475C66.585 116.468 66.585 116.461 66.586 116.454L73.714 112.338C74.4387 112.499 75.1967 112.403 75.859 112.068C76.1152 111.942 76.3184 111.73 76.432 111.468V111.06L74.548 111.741L73.837 111.324L74.107 110.757L76.009 110.481V110.073C76.009 110.073 73.786 109.926 72.976 110.373C72.7707 110.481 72.5978 110.641 72.475 110.838L72.367 110.799V111.201C72.3658 111.351 72.4086 111.498 72.49 111.624L65.362 115.74C64.6352 115.585 63.8771 115.687 63.217 116.028Z" fill="#37474F"/>
<path d="M73.714 112.35V111.945L66.586 116.061V116.466L73.714 112.35Z" fill="#37474F"/>
<path d="M72.49 111.237L65.362 115.353C64.6376 115.193 63.88 115.287 63.217 115.62C62.9607 115.745 62.7576 115.958 62.644 116.22L64.528 115.947L65.239 116.364L64.969 116.928L63.067 117.207C63.1073 117.237 63.1494 117.265 63.193 117.291C63.6431 117.519 64.1405 117.637 64.645 117.637C65.1495 117.637 65.6469 117.519 66.097 117.291C66.697 116.955 66.853 116.463 66.586 116.04L73.714 111.924C74.4388 112.083 75.1963 111.988 75.859 111.654C76.1152 111.528 76.3184 111.316 76.432 111.054L74.548 111.33L73.837 110.913L74.107 110.346L76.009 110.067L75.883 109.986C75.4329 109.758 74.9355 109.64 74.431 109.64C73.9265 109.64 73.4291 109.758 72.979 109.986C72.4 110.322 72.223 110.814 72.49 111.237Z" fill="#455A64"/>
<path d="M73.987 111.012L73.837 110.925L74.107 110.358L76.009 110.079V110.487L74.107 110.763L73.987 111.012Z" fill="#263238"/>
<path d="M65.089 116.688L65.239 116.373L64.528 115.953L62.644 116.229V116.637L64.528 116.361L65.089 116.688Z" fill="#263238"/>
<path d="M67.579 122.016L69.079 124.596L74.107 121.695C74.2234 121.623 74.3168 121.519 74.3763 121.396C74.4358 121.273 74.4589 121.135 74.443 120.999C74.4233 120.633 74.3174 120.276 74.1339 119.959C73.9504 119.641 73.6945 119.372 73.387 119.172C73.2807 119.095 73.1557 119.047 73.0248 119.034C72.894 119.022 72.7621 119.044 72.643 119.1L67.579 122.016Z" fill="#FF6F00"/>
<path d="M67.279 122.55C67.258 122.943 66.703 123.027 66.703 123.027L67.756 124.854C67.756 124.854 68.107 124.422 68.458 124.593C68.977 124.818 69.382 124.539 69.382 123.918C69.3619 123.552 69.2557 123.197 69.0722 122.88C68.8888 122.563 68.6331 122.294 68.326 122.094C67.786 121.779 67.342 121.989 67.279 122.55Z" fill="#FF6F00"/>
<path opacity="0.05" d="M67.279 122.55C67.258 122.943 66.703 123.027 66.703 123.027L67.756 124.854C67.756 124.854 68.107 124.422 68.458 124.593C68.977 124.818 69.382 124.539 69.382 123.918C69.3619 123.552 69.2557 123.197 69.0722 122.88C68.8888 122.563 68.6331 122.294 68.326 122.094C67.786 121.779 67.342 121.989 67.279 122.55Z" fill="black"/>
<path opacity="0.05" d="M66.952 122.949C66.8715 122.985 66.7869 123.012 66.7 123.027L67.753 124.854C67.8111 124.788 67.8765 124.729 67.948 124.677C67.9179 124.334 67.8132 124.001 67.6411 123.703C67.4691 123.404 67.2339 123.147 66.952 122.949Z" fill="black"/>
<path d="M65.602 123.156L65.689 123.309C65.659 123.415 65.6439 123.525 65.644 123.636C65.6641 124.002 65.7703 124.358 65.9537 124.676C66.1372 124.993 66.3928 125.263 66.7 125.463C66.7932 125.519 66.8943 125.56 67 125.586L67.087 125.739L67.438 125.538C67.5441 125.461 67.6278 125.357 67.6805 125.237C67.7332 125.116 67.753 124.984 67.738 124.854C67.7184 124.488 67.6128 124.132 67.4299 123.815C67.2469 123.497 66.9917 123.227 66.685 123.027C66.5782 122.95 66.4526 122.902 66.3213 122.889C66.19 122.877 66.0576 122.899 65.938 122.955L65.602 123.156Z" fill="#FF6F00"/>
<path d="M67.402 125.058C67.3824 124.692 67.2768 124.336 67.0939 124.019C66.9109 123.701 66.6557 123.431 66.349 123.231C65.767 122.895 65.293 123.168 65.293 123.831C65.3136 124.197 65.4199 124.553 65.6033 124.87C65.7868 125.188 66.0422 125.457 66.349 125.658C66.931 126 67.402 125.73 67.402 125.058Z" fill="#FF6F00"/>
<path opacity="0.15" d="M67.402 125.058C67.3824 124.692 67.2768 124.336 67.0939 124.019C66.9109 123.701 66.6557 123.431 66.349 123.231C65.767 122.895 65.293 123.168 65.293 123.831C65.3136 124.197 65.4199 124.553 65.6033 124.87C65.7868 125.188 66.0422 125.457 66.349 125.658C66.931 126 67.402 125.73 67.402 125.058Z" fill="black"/>
<path opacity="0.15" d="M65.938 125.331C66.0161 125.418 66.1036 125.497 66.199 125.565L66.445 124.863L66.145 124.644L65.938 125.331Z" fill="black"/>
<path opacity="0.2" d="M73.573 120.276C73.6087 120.343 73.6174 120.422 73.5973 120.495C73.5773 120.569 73.5299 120.632 73.465 120.672L69.865 122.745C69.7977 122.782 69.7188 122.791 69.6446 122.772C69.5704 122.752 69.5064 122.705 69.466 122.64C69.4303 122.573 69.4216 122.494 69.4417 122.421C69.4617 122.347 69.509 122.284 69.574 122.244L73.174 120.171C73.2413 120.134 73.3202 120.124 73.3944 120.144C73.4686 120.164 73.5325 120.211 73.573 120.276Z" fill="black"/>
<path opacity="0.2" d="M72.925 119.505C72.9527 119.519 72.9761 119.54 72.9924 119.567C73.0087 119.593 73.0173 119.624 73.0173 119.655C73.0173 119.686 73.0087 119.717 72.9924 119.743C72.9761 119.77 72.9527 119.791 72.925 119.805L69.265 121.905C69.1971 121.938 69.1214 121.951 69.0465 121.942C68.9717 121.934 68.9008 121.904 68.842 121.857C68.8142 121.843 68.7909 121.822 68.7746 121.795C68.7583 121.769 68.7496 121.738 68.7496 121.707C68.7496 121.676 68.7583 121.645 68.7746 121.619C68.7909 121.592 68.8142 121.571 68.842 121.557L72.499 119.457C72.5672 119.424 72.6435 119.41 72.719 119.419C72.7944 119.427 72.8659 119.457 72.925 119.505Z" fill="black"/>
<path opacity="0.2" d="M73.918 121.224C73.917 121.194 73.908 121.164 73.8919 121.139C73.8758 121.113 73.8532 121.092 73.8263 121.078C73.7994 121.064 73.7693 121.057 73.7391 121.059C73.7088 121.06 73.6794 121.069 73.654 121.086L69.994 123.186C69.9318 123.228 69.8829 123.288 69.8526 123.356C69.8224 123.425 69.8121 123.501 69.823 123.576C69.824 123.606 69.833 123.636 69.8491 123.661C69.8652 123.687 69.8878 123.708 69.9147 123.722C69.9416 123.736 69.9717 123.743 70.0019 123.741C70.0322 123.74 70.0616 123.73 70.087 123.714L73.747 121.614C73.8089 121.571 73.8577 121.512 73.8879 121.443C73.9181 121.374 73.9285 121.298 73.918 121.224Z" fill="black"/>
<path d="M57.1 129.315V130.017L58.858 129.447C59.0315 129.119 59.2704 128.83 59.56 128.598L66.238 124.743L66.442 124.158L66.238 124.041L59.56 127.896C59.4499 127.952 59.327 127.978 59.2037 127.971C59.0805 127.964 58.9612 127.925 58.858 127.857L57.1 129.315Z" fill="#455A64"/>
<path d="M57.3069 129.435V130.137L59.0649 129.567C59.2377 129.238 59.4767 128.949 59.7669 128.718L66.4449 124.863V124.158L59.7669 128.013C59.6572 128.07 59.5344 128.096 59.4111 128.09C59.2878 128.083 59.1684 128.044 59.0649 127.977L57.3069 129.435Z" fill="#37474F"/>
<path d="M57.307 130.137L57.103 130.017V129.315L57.307 129.435V130.137Z" fill="#263238"/>
<path d="M57.103 129.315L57.307 129.435L59.065 127.977L58.861 127.857L57.103 129.315Z" fill="#455A64"/>
<path d="M96.469 116.85L93.7 115.908C93.463 113.256 93.805 106.83 98.116 103.059C102.493 99.231 105.349 101.685 105.265 103.359C105.175 105.186 101.248 106.899 99.265 109.359C97.099 112.035 96.424 113.865 96.469 116.85Z" fill="#FF6F00"/>
<path opacity="0.5" d="M96.469 116.85L93.7 115.908C93.463 113.256 93.805 106.83 98.116 103.059C102.493 99.231 105.349 101.685 105.265 103.359C105.175 105.186 101.248 106.899 99.265 109.359C97.099 112.035 96.424 113.865 96.469 116.85Z" fill="white"/>
<path d="M94.6001 116.361C94.5608 116.36 94.5234 116.344 94.4959 116.316C94.4684 116.288 94.4531 116.25 94.4531 116.211C94.4921 109.077 99.7901 102.834 102.43 102.429C102.45 102.426 102.47 102.427 102.489 102.432C102.509 102.437 102.527 102.445 102.543 102.457C102.559 102.469 102.572 102.484 102.583 102.501C102.593 102.518 102.6 102.537 102.603 102.557C102.606 102.576 102.605 102.596 102.6 102.616C102.595 102.635 102.586 102.653 102.575 102.669C102.563 102.685 102.548 102.699 102.531 102.709C102.514 102.719 102.495 102.726 102.475 102.729C99.8891 103.125 94.7891 109.476 94.7531 116.214C94.7527 116.234 94.7484 116.253 94.7405 116.271C94.7326 116.289 94.7212 116.306 94.707 116.319C94.6928 116.333 94.676 116.344 94.6577 116.351C94.6393 116.358 94.6198 116.361 94.6001 116.361Z" fill="white"/>
<path d="M103.048 110.454C100.648 109.665 95.4281 112.29 94.4171 116.154L96.4691 116.847C98.1261 115.493 100.132 114.635 102.256 114.372C105.637 114.033 105.439 111.243 103.048 110.454Z" fill="#FF6F00"/>
<path opacity="0.65" d="M103.048 110.454C100.648 109.665 95.4281 112.29 94.4171 116.154L96.4691 116.847C98.1261 115.493 100.132 114.635 102.256 114.372C105.637 114.033 105.439 111.243 103.048 110.454Z" fill="white"/>
<path d="M95.3531 116.676C95.3292 116.677 95.3055 116.672 95.2841 116.661C95.249 116.642 95.2229 116.61 95.2111 116.572C95.1993 116.534 95.2029 116.493 95.2211 116.457C97.2761 112.488 101.737 111.315 103.552 111.801C103.571 111.806 103.589 111.815 103.605 111.826C103.62 111.838 103.633 111.853 103.643 111.87C103.653 111.887 103.659 111.906 103.662 111.926C103.664 111.945 103.662 111.965 103.657 111.984C103.646 112.022 103.622 112.055 103.587 112.075C103.553 112.095 103.513 112.101 103.474 112.092C101.74 111.627 97.4741 112.767 95.4881 116.592C95.476 116.617 95.4568 116.639 95.4329 116.654C95.409 116.669 95.3813 116.676 95.3531 116.676Z" fill="white"/>
<path d="M93.037 72.384V116.748C93.0503 116.896 93.103 117.037 93.1895 117.157C93.2761 117.278 93.3933 117.372 93.529 117.432C93.8964 117.62 94.303 117.718 94.7155 117.718C95.1281 117.718 95.5347 117.62 95.902 117.432C96.0374 117.372 96.1543 117.277 96.2408 117.157C96.3272 117.037 96.3801 116.895 96.394 116.748V72.384H93.037Z" fill="#455A64"/>
<path d="M93.037 80.7L96.394 78.762V72.384H93.037V80.7Z" fill="#37474F"/>
<path d="M88.348 79.986L111.502 66.618V25.179L88.348 38.547V79.986Z" fill="#FF6F00"/>
<path d="M111.502 25.179L101.083 19.164L77.929 32.532L88.348 38.547L111.502 25.179Z" fill="#FF6F00"/>
<path opacity="0.2" d="M111.502 25.179L101.083 19.164L77.929 32.532L88.348 38.547L111.502 25.179Z" fill="white"/>
<path d="M77.929 32.532V73.971L88.348 79.986V38.547L77.929 32.532Z" fill="#FF6F00"/>
<path opacity="0.2" d="M77.929 32.532V73.971L88.348 79.986V38.547L77.929 32.532Z" fill="black"/>
<path d="M103.111 35.952L94.525 58.287L99.925 53.919L95.725 69.711L105.325 45.699L99.925 49.911L103.111 35.952Z" fill="#FAFAFA"/>
<path d="M90.1 38.88C90.418 38.697 90.679 38.847 90.679 39.216C90.6679 39.4167 90.6097 39.612 90.5091 39.7861C90.4085 39.9602 90.2684 40.1081 90.1 40.218C89.779 40.404 89.521 40.254 89.521 39.885C89.5319 39.6838 89.59 39.488 89.6906 39.3134C89.7911 39.1388 89.9314 38.9903 90.1 38.88Z" fill="#37474F"/>
<path d="M90.1 76.314C90.418 76.128 90.679 76.278 90.679 76.647C90.6679 76.8477 90.6097 77.043 90.5091 77.2171C90.4085 77.3912 90.2684 77.5391 90.1 77.649C89.779 77.835 89.521 77.685 89.521 77.316C89.5314 77.1151 89.5893 76.9195 89.6899 76.7453C89.7906 76.5712 89.9311 76.4233 90.1 76.314Z" fill="#37474F"/>
<path d="M109.765 27.519C110.086 27.333 110.344 27.483 110.344 27.852C110.334 28.0529 110.276 28.2485 110.175 28.4227C110.074 28.5969 109.934 28.7447 109.765 28.854C109.447 29.04 109.189 28.89 109.189 28.521C109.2 28.3205 109.257 28.1253 109.357 27.9512C109.457 27.7771 109.597 27.629 109.765 27.519Z" fill="#37474F"/>
<path d="M109.765 64.95C110.086 64.764 110.344 64.914 110.344 65.283C110.334 65.4839 110.276 65.6795 110.175 65.8537C110.074 66.0279 109.934 66.1757 109.765 66.285C109.447 66.471 109.189 66.321 109.189 65.952C109.2 65.7515 109.257 65.5563 109.357 65.3822C109.457 65.2081 109.597 65.06 109.765 64.95Z" fill="#37474F"/>
<path d="M111.502 25.179V54.588L124.237 47.235V5.79602L101.083 19.164L111.502 25.179Z" fill="#FF6F00"/>
<path d="M124.237 5.79601L101.083 19.164L99.925 18.495L123.079 5.12701L124.237 5.79601Z" fill="#FF6F00"/>
<path opacity="0.2" d="M124.237 5.79601L101.083 19.164L99.925 18.495L123.079 5.12701L124.237 5.79601Z" fill="white"/>
<path d="M99.925 19.833V18.495L101.083 19.164L99.925 19.833Z" fill="#FF6F00"/>
<path opacity="0.2" d="M99.925 19.833V18.495L101.083 19.164L99.925 19.833Z" fill="black"/>
<path opacity="0.2" d="M101.083 19.164L115.993 23.256V51.996L111.502 54.588V25.179L101.083 19.164Z" fill="black"/>
</svg>
