<svg version="1.1" xmlns="http://www.w3.org/2000/svg" viewBox="0 0 390.08013785150524 183.84375000000273" width="390.08013785150524" height="183.84375000000273" filter="invert(93%) hue-rotate(180deg)">
  <!-- svg-source:excalidraw -->
  
  <defs>
    <style class="style-fonts">
      @font-face {
        font-family: "Virgil";
        src: url("https://excalidraw.com/Virgil.woff2");
      }
      @font-face {
        font-family: "Cascadia";
        src: url("https://excalidraw.com/Cascadia.woff2");
      }
    </style>
  </defs>
  <g stroke-linecap="round" transform="translate(10 10) rotate(0 185.04006892575262 81.92187500000136)"><path d="M32 0 M32 0 C118.29 0, 204.58 0, 338.08 0 M32 0 C110.77 0, 189.54 0, 338.08 0 M338.08 0 C359.41 0, 370.08 10.67, 370.08 32 M338.08 0 C359.41 0, 370.08 10.67, 370.08 32 M370.08 32 C370.08 63.05, 370.08 94.1, 370.08 131.84 M370.08 32 C370.08 53.71, 370.08 75.42, 370.08 131.84 M370.08 131.84 C370.08 153.18, 359.41 163.84, 338.08 163.84 M370.08 131.84 C370.08 153.18, 359.41 163.84, 338.08 163.84 M338.08 163.84 C266.08 163.84, 194.08 163.84, 32 163.84 M338.08 163.84 C255.65 163.84, 173.23 163.84, 32 163.84 M32 163.84 C10.67 163.84, 0 153.18, 0 131.84 M32 163.84 C10.67 163.84, 0 153.18, 0 131.84 M0 131.84 C0 94.12, 0 56.4, 0 32 M0 131.84 C0 96.02, 0 60.19, 0 32 M0 32 C0 10.67, 10.67 0, 32 0 M0 32 C0 10.67, 10.67 0, 32 0" stroke="#d9480f" stroke-width="4" fill="none"></path></g><g stroke-linecap="round" transform="translate(18.8685853850302 48.54626738540537) rotate(0 172.7987016881475 42.625802347421086)"><path d="M21.31 0 M21.31 0 C95.87 0, 170.44 0, 324.28 0 M21.31 0 C108.02 0, 194.72 0, 324.28 0 M324.28 0 C338.49 0, 345.6 7.1, 345.6 21.31 M324.28 0 C338.49 0, 345.6 7.1, 345.6 21.31 M345.6 21.31 C345.6 36.42, 345.6 51.53, 345.6 63.94 M345.6 21.31 C345.6 32.09, 345.6 42.87, 345.6 63.94 M345.6 63.94 C345.6 78.15, 338.49 85.25, 324.28 85.25 M345.6 63.94 C345.6 78.15, 338.49 85.25, 324.28 85.25 M324.28 85.25 C226.99 85.25, 129.7 85.25, 21.31 85.25 M324.28 85.25 C233.7 85.25, 143.13 85.25, 21.31 85.25 M21.31 85.25 C7.1 85.25, 0 78.15, 0 63.94 M21.31 85.25 C7.1 85.25, 0 78.15, 0 63.94 M0 63.94 C0 48.49, 0 33.04, 0 21.31 M0 63.94 C0 54.37, 0 44.8, 0 21.31 M0 21.31 C0 7.1, 7.1 0, 21.31 0 M0 21.31 C0 7.1, 7.1 0, 21.31 0" stroke="transparent" stroke-width="4" fill="none"></path></g><g stroke-linecap="round" transform="translate(297.1554677416525 96.9972871119935) rotate(0 27.974171486057003 15.985240849175625)"><path d="M7.99 0 L47.96 0 L51.45 0.5 L53.95 2 L55.45 4.5 L55.95 7.99 L55.95 23.98 L55.45 27.47 L53.95 29.97 L51.45 31.47 L47.96 31.97 L7.99 31.97 L4.5 31.47 L2 29.97 L0.5 27.47 L0 23.98 L0.5 4.5 L2 2 L4.5 0.5 L7.99 0" stroke="none" stroke-width="0" fill="#d9480f"></path><path d="M7.99 0 M7.99 0 C18.75 0, 29.5 0, 47.96 0 M7.99 0 C19.69 0, 31.39 0, 47.96 0 M47.96 0 C53.28 0, 55.95 2.66, 55.95 7.99 M47.96 0 C53.28 0, 55.95 2.66, 55.95 7.99 M55.95 7.99 C55.95 12.85, 55.95 17.71, 55.95 23.98 M55.95 7.99 C55.95 12.41, 55.95 16.82, 55.95 23.98 M55.95 23.98 C55.95 29.31, 53.28 31.97, 47.96 31.97 M55.95 23.98 C55.95 29.31, 53.28 31.97, 47.96 31.97 M47.96 31.97 C33.94 31.97, 19.93 31.97, 7.99 31.97 M47.96 31.97 C34.85 31.97, 21.74 31.97, 7.99 31.97 M7.99 31.97 C2.66 31.97, 0 29.31, 0 23.98 M7.99 31.97 C2.66 31.97, 0 29.31, 0 23.98 M0 23.98 C0 18.82, 0 13.67, 0 7.99 M0 23.98 C0 20.14, 0 16.29, 0 7.99 M0 7.99 C0 2.66, 2.66 0, 7.99 0 M0 7.99 C0 2.66, 2.66 0, 7.99 0" stroke="transparent" stroke-width="4" fill="none"></path></g><g stroke-linecap="round" transform="translate(332.8025548353153 96.9972871119935) rotate(0 16.784502891634247 15.98524084917517)"><path d="M33.57 15.99 C33.57 16.91, 33.48 17.85, 33.31 18.76 C33.15 19.67, 32.89 20.58, 32.56 21.45 C32.22 22.32, 31.81 23.18, 31.32 23.98 C30.83 24.78, 30.27 25.55, 29.64 26.26 C29.02 26.97, 28.32 27.64, 27.57 28.23 C26.83 28.83, 26.02 29.37, 25.18 29.83 C24.34 30.29, 23.44 30.69, 22.53 31.01 C21.61 31.32, 20.66 31.57, 19.7 31.73 C18.74 31.89, 17.76 31.97, 16.78 31.97 C15.81 31.97, 14.83 31.89, 13.87 31.73 C12.91 31.57, 11.96 31.32, 11.04 31.01 C10.13 30.69, 9.23 30.29, 8.39 29.83 C7.55 29.37, 6.74 28.83, 6 28.23 C5.25 27.64, 4.55 26.97, 3.93 26.26 C3.3 25.55, 2.73 24.78, 2.25 23.98 C1.76 23.18, 1.34 22.32, 1.01 21.45 C0.68 20.58, 0.42 19.67, 0.25 18.76 C0.09 17.85, 0 16.91, 0 15.99 C0 15.06, 0.09 14.12, 0.25 13.21 C0.42 12.3, 0.68 11.39, 1.01 10.52 C1.34 9.65, 1.76 8.79, 2.25 7.99 C2.73 7.19, 3.3 6.42, 3.93 5.71 C4.55 5, 5.25 4.33, 6 3.74 C6.74 3.15, 7.55 2.6, 8.39 2.14 C9.23 1.68, 10.13 1.28, 11.04 0.96 C11.96 0.65, 12.91 0.4, 13.87 0.24 C14.83 0.08, 15.81 0, 16.78 0 C17.76 0, 18.74 0.08, 19.7 0.24 C20.66 0.4, 21.61 0.65, 22.53 0.96 C23.44 1.28, 24.34 1.68, 25.18 2.14 C26.02 2.6, 26.83 3.15, 27.57 3.74 C28.32 4.33, 29.02 5, 29.64 5.71 C30.27 6.42, 30.83 7.19, 31.32 7.99 C31.81 8.79, 32.22 9.65, 32.56 10.52 C32.89 11.39, 33.15 12.3, 33.31 13.21 C33.48 14.12, 33.53 15.52, 33.57 15.99 C33.61 16.45, 33.61 15.52, 33.57 15.99" stroke="none" stroke-width="0" fill="#d9480f"></path><path d="M33.57 15.99 C33.57 16.91, 33.48 17.85, 33.31 18.76 C33.15 19.67, 32.89 20.58, 32.56 21.45 C32.22 22.32, 31.81 23.18, 31.32 23.98 C30.83 24.78, 30.27 25.55, 29.64 26.26 C29.02 26.97, 28.32 27.64, 27.57 28.23 C26.83 28.83, 26.02 29.37, 25.18 29.83 C24.34 30.29, 23.44 30.69, 22.53 31.01 C21.61 31.32, 20.66 31.57, 19.7 31.73 C18.74 31.89, 17.76 31.97, 16.78 31.97 C15.81 31.97, 14.83 31.89, 13.87 31.73 C12.91 31.57, 11.96 31.32, 11.04 31.01 C10.13 30.69, 9.23 30.29, 8.39 29.83 C7.55 29.37, 6.74 28.83, 6 28.23 C5.25 27.64, 4.55 26.97, 3.93 26.26 C3.3 25.55, 2.73 24.78, 2.25 23.98 C1.76 23.18, 1.34 22.32, 1.01 21.45 C0.68 20.58, 0.42 19.67, 0.25 18.76 C0.09 17.85, 0 16.91, 0 15.99 C0 15.06, 0.09 14.12, 0.25 13.21 C0.42 12.3, 0.68 11.39, 1.01 10.52 C1.34 9.65, 1.76 8.79, 2.25 7.99 C2.73 7.19, 3.3 6.42, 3.93 5.71 C4.55 5, 5.25 4.33, 6 3.74 C6.74 3.15, 7.55 2.6, 8.39 2.14 C9.23 1.68, 10.13 1.28, 11.04 0.96 C11.96 0.65, 12.91 0.4, 13.87 0.24 C14.83 0.08, 15.81 0, 16.78 0 C17.76 0, 18.74 0.08, 19.7 0.24 C20.66 0.4, 21.61 0.65, 22.53 0.96 C23.44 1.28, 24.34 1.68, 25.18 2.14 C26.02 2.6, 26.83 3.15, 27.57 3.74 C28.32 4.33, 29.02 5, 29.64 5.71 C30.27 6.42, 30.83 7.19, 31.32 7.99 C31.81 8.79, 32.22 9.65, 32.56 10.52 C32.89 11.39, 33.15 12.3, 33.31 13.21 C33.48 14.12, 33.53 15.52, 33.57 15.99 C33.61 16.45, 33.61 15.52, 33.57 15.99" stroke="transparent" stroke-width="4" fill="none"></path></g><g stroke-linecap="round" transform="translate(285.32638951326135 96.9972871119935) rotate(0 16.784502891634247 15.98524084917517)"><path d="M33.57 15.99 C33.57 16.91, 33.48 17.85, 33.31 18.76 C33.15 19.67, 32.89 20.58, 32.56 21.45 C32.22 22.32, 31.81 23.18, 31.32 23.98 C30.83 24.78, 30.27 25.55, 29.64 26.26 C29.02 26.97, 28.32 27.64, 27.57 28.23 C26.83 28.83, 26.02 29.37, 25.18 29.83 C24.34 30.29, 23.44 30.69, 22.53 31.01 C21.61 31.32, 20.66 31.57, 19.7 31.73 C18.74 31.89, 17.76 31.97, 16.78 31.97 C15.81 31.97, 14.83 31.89, 13.87 31.73 C12.91 31.57, 11.96 31.32, 11.04 31.01 C10.13 30.69, 9.23 30.29, 8.39 29.83 C7.55 29.37, 6.74 28.83, 6 28.23 C5.25 27.64, 4.55 26.97, 3.93 26.26 C3.3 25.55, 2.73 24.78, 2.25 23.98 C1.76 23.18, 1.34 22.32, 1.01 21.45 C0.68 20.58, 0.42 19.67, 0.25 18.76 C0.09 17.85, 0 16.91, 0 15.99 C0 15.06, 0.09 14.12, 0.25 13.21 C0.42 12.3, 0.68 11.39, 1.01 10.52 C1.34 9.65, 1.76 8.79, 2.25 7.99 C2.73 7.19, 3.3 6.42, 3.93 5.71 C4.55 5, 5.25 4.33, 6 3.74 C6.74 3.15, 7.55 2.6, 8.39 2.14 C9.23 1.68, 10.13 1.28, 11.04 0.96 C11.96 0.65, 12.91 0.4, 13.87 0.24 C14.83 0.08, 15.81 0, 16.78 0 C17.76 0, 18.74 0.08, 19.7 0.24 C20.66 0.4, 21.61 0.65, 22.53 0.96 C23.44 1.28, 24.34 1.68, 25.18 2.14 C26.02 2.6, 26.83 3.15, 27.57 3.74 C28.32 4.33, 29.02 5, 29.64 5.71 C30.27 6.42, 30.83 7.19, 31.32 7.99 C31.81 8.79, 32.22 9.65, 32.56 10.52 C32.89 11.39, 33.15 12.3, 33.31 13.21 C33.48 14.12, 33.53 15.52, 33.57 15.99 C33.61 16.45, 33.61 15.52, 33.57 15.99" stroke="none" stroke-width="0" fill="#d9480f"></path><path d="M33.57 15.99 C33.57 16.91, 33.48 17.85, 33.31 18.76 C33.15 19.67, 32.89 20.58, 32.56 21.45 C32.22 22.32, 31.81 23.18, 31.32 23.98 C30.83 24.78, 30.27 25.55, 29.64 26.26 C29.02 26.97, 28.32 27.64, 27.57 28.23 C26.83 28.83, 26.02 29.37, 25.18 29.83 C24.34 30.29, 23.44 30.69, 22.53 31.01 C21.61 31.32, 20.66 31.57, 19.7 31.73 C18.74 31.89, 17.76 31.97, 16.78 31.97 C15.81 31.97, 14.83 31.89, 13.87 31.73 C12.91 31.57, 11.96 31.32, 11.04 31.01 C10.13 30.69, 9.23 30.29, 8.39 29.83 C7.55 29.37, 6.74 28.83, 6 28.23 C5.25 27.64, 4.55 26.97, 3.93 26.26 C3.3 25.55, 2.73 24.78, 2.25 23.98 C1.76 23.18, 1.34 22.32, 1.01 21.45 C0.68 20.58, 0.42 19.67, 0.25 18.76 C0.09 17.85, 0 16.91, 0 15.99 C0 15.06, 0.09 14.12, 0.25 13.21 C0.42 12.3, 0.68 11.39, 1.01 10.52 C1.34 9.65, 1.76 8.79, 2.25 7.99 C2.73 7.19, 3.3 6.42, 3.93 5.71 C4.55 5, 5.25 4.33, 6 3.74 C6.74 3.15, 7.55 2.6, 8.39 2.14 C9.23 1.68, 10.13 1.28, 11.04 0.96 C11.96 0.65, 12.91 0.4, 13.87 0.24 C14.83 0.08, 15.81 0, 16.78 0 C17.76 0, 18.74 0.08, 19.7 0.24 C20.66 0.4, 21.61 0.65, 22.53 0.96 C23.44 1.28, 24.34 1.68, 25.18 2.14 C26.02 2.6, 26.83 3.15, 27.57 3.74 C28.32 4.33, 29.02 5, 29.64 5.71 C30.27 6.42, 30.83 7.19, 31.32 7.99 C31.81 8.79, 32.22 9.65, 32.56 10.52 C32.89 11.39, 33.15 12.3, 33.31 13.21 C33.48 14.12, 33.53 15.52, 33.57 15.99 C33.61 16.45, 33.61 15.52, 33.57 15.99" stroke="transparent" stroke-width="4" fill="none"></path></g><g transform="translate(295.3578974334532 106.68523312666002) rotate(0 31.100303649902344 6.599999999999909)"><text x="31.100303649902344" y="0" font-family="Helvetica, Segoe UI Emoji" font-size="11.195190816906605px" fill="#000000" text-anchor="middle" style="white-space: pre;" direction="ltr" dominant-baseline="text-before-edge">Request Pro</text></g><g stroke-linecap="round" transform="translate(342.1502264988567 45.58542363778906) rotate(0 10.273935623439684 10.273935623439684)"><path d="M20.55 10.27 C20.55 10.87, 20.5 11.47, 20.39 12.06 C20.29 12.64, 20.13 13.23, 19.93 13.79 C19.72 14.35, 19.47 14.9, 19.17 15.41 C18.87 15.93, 18.53 16.42, 18.14 16.88 C17.76 17.33, 17.33 17.76, 16.88 18.14 C16.42 18.53, 15.93 18.87, 15.41 19.17 C14.9 19.47, 14.35 19.72, 13.79 19.93 C13.23 20.13, 12.64 20.29, 12.06 20.39 C11.47 20.5, 10.87 20.55, 10.27 20.55 C9.68 20.55, 9.08 20.5, 8.49 20.39 C7.9 20.29, 7.32 20.13, 6.76 19.93 C6.2 19.72, 5.65 19.47, 5.14 19.17 C4.62 18.87, 4.13 18.53, 3.67 18.14 C3.21 17.76, 2.79 17.33, 2.4 16.88 C2.02 16.42, 1.67 15.93, 1.38 15.41 C1.08 14.9, 0.82 14.35, 0.62 13.79 C0.42 13.23, 0.26 12.64, 0.16 12.06 C0.05 11.47, 0 10.87, 0 10.27 C0 9.68, 0.05 9.08, 0.16 8.49 C0.26 7.9, 0.42 7.32, 0.62 6.76 C0.82 6.2, 1.08 5.65, 1.38 5.14 C1.67 4.62, 2.02 4.13, 2.4 3.67 C2.79 3.21, 3.21 2.79, 3.67 2.4 C4.13 2.02, 4.62 1.67, 5.14 1.38 C5.65 1.08, 6.2 0.82, 6.76 0.62 C7.32 0.42, 7.9 0.26, 8.49 0.16 C9.08 0.05, 9.68 0, 10.27 0 C10.87 0, 11.47 0.05, 12.06 0.16 C12.64 0.26, 13.23 0.42, 13.79 0.62 C14.35 0.82, 14.9 1.08, 15.41 1.38 C15.93 1.67, 16.42 2.02, 16.88 2.4 C17.33 2.79, 17.76 3.21, 18.14 3.67 C18.53 4.13, 18.87 4.62, 19.17 5.14 C19.47 5.65, 19.72 6.2, 19.93 6.76 C20.13 7.32, 20.29 7.9, 20.39 8.49 C20.5 9.08, 20.52 9.98, 20.55 10.27 C20.57 10.57, 20.57 9.98, 20.55 10.27" stroke="none" stroke-width="0" fill="#2b8a3e"></path><path d="M20.55 10.27 C20.55 10.87, 20.5 11.47, 20.39 12.06 C20.29 12.64, 20.13 13.23, 19.93 13.79 C19.72 14.35, 19.47 14.9, 19.17 15.41 C18.87 15.93, 18.53 16.42, 18.14 16.88 C17.76 17.33, 17.33 17.76, 16.88 18.14 C16.42 18.53, 15.93 18.87, 15.41 19.17 C14.9 19.47, 14.35 19.72, 13.79 19.93 C13.23 20.13, 12.64 20.29, 12.06 20.39 C11.47 20.5, 10.87 20.55, 10.27 20.55 C9.68 20.55, 9.08 20.5, 8.49 20.39 C7.9 20.29, 7.32 20.13, 6.76 19.93 C6.2 19.72, 5.65 19.47, 5.14 19.17 C4.62 18.87, 4.13 18.53, 3.67 18.14 C3.21 17.76, 2.79 17.33, 2.4 16.88 C2.02 16.42, 1.67 15.93, 1.38 15.41 C1.08 14.9, 0.82 14.35, 0.62 13.79 C0.42 13.23, 0.26 12.64, 0.16 12.06 C0.05 11.47, 0 10.87, 0 10.27 C0 9.68, 0.05 9.08, 0.16 8.49 C0.26 7.9, 0.42 7.32, 0.62 6.76 C0.82 6.2, 1.08 5.65, 1.38 5.14 C1.67 4.62, 2.02 4.13, 2.4 3.67 C2.79 3.21, 3.21 2.79, 3.67 2.4 C4.13 2.02, 4.62 1.67, 5.14 1.38 C5.65 1.08, 6.2 0.82, 6.76 0.62 C7.32 0.42, 7.9 0.26, 8.49 0.16 C9.08 0.05, 9.68 0, 10.27 0 C10.87 0, 11.47 0.05, 12.06 0.16 C12.64 0.26, 13.23 0.42, 13.79 0.62 C14.35 0.82, 14.9 1.08, 15.41 1.38 C15.93 1.67, 16.42 2.02, 16.88 2.4 C17.33 2.79, 17.76 3.21, 18.14 3.67 C18.53 4.13, 18.87 4.62, 19.17 5.14 C19.47 5.65, 19.72 6.2, 19.93 6.76 C20.13 7.32, 20.29 7.9, 20.39 8.49 C20.5 9.08, 20.52 9.98, 20.55 10.27 C20.57 10.57, 20.57 9.98, 20.55 10.27" stroke="#2b8a3e" stroke-width="2" fill="none"></path></g><g stroke-linecap="round" transform="translate(66.77588911332805 62.24889215832809) rotate(0 81.58713583319968 9.669586469120077)"><path d="M4.83 0 L158.34 0 L161.97 1.21 L162.87 2.72 L163.17 14.5 L161.97 18.13 L158.34 19.34 L4.83 19.34 L1.21 18.13 L0 14.5 L0.3 2.72 L1.21 1.21 L4.83 0" stroke="none" stroke-width="0" fill="#0101ff"></path><path d="M4.83 0 M4.83 0 C65.92 0, 127.01 0, 158.34 0 M4.83 0 C53.15 0, 101.46 0, 158.34 0 M158.34 0 C161.56 0, 163.17 1.61, 163.17 4.83 M158.34 0 C161.56 0, 163.17 1.61, 163.17 4.83 M163.17 4.83 C163.17 7.79, 163.17 10.75, 163.17 14.5 M163.17 4.83 C163.17 8.65, 163.17 12.46, 163.17 14.5 M163.17 14.5 C163.17 17.73, 161.56 19.34, 158.34 19.34 M163.17 14.5 C163.17 17.73, 161.56 19.34, 158.34 19.34 M158.34 19.34 C117.32 19.34, 76.3 19.34, 4.83 19.34 M158.34 19.34 C107.32 19.34, 56.3 19.34, 4.83 19.34 M4.83 19.34 C1.61 19.34, 0 17.73, 0 14.5 M4.83 19.34 C1.61 19.34, 0 17.73, 0 14.5 M0 14.5 C0 10.83, 0 7.15, 0 4.83 M0 14.5 C0 11.92, 0 9.34, 0 4.83 M0 4.83 C0 1.61, 1.61 0, 4.83 0 M0 4.83 C0 1.61, 1.61 0, 4.83 0" stroke="#010101" stroke-width="2" fill="none"></path></g><g stroke-linecap="round" transform="translate(26.28449577388801 54.99670230649281) rotate(0 18.734823783919637 17.526125475280423)"><path d="M8.76 0 L28.71 0 L32.54 0.55 L35.28 2.19 L36.92 4.93 L37.47 8.76 L37.47 26.29 L36.92 30.12 L35.28 32.86 L32.54 34.5 L28.71 35.05 L8.76 35.05 L4.93 34.5 L2.19 32.86 L0.55 30.12 L0 26.29 L0.55 4.93 L2.19 2.19 L4.93 0.55 L8.76 0" stroke="none" stroke-width="0" fill="#0101ff"></path><path d="M8.76 0 M8.76 0 C14.6 0, 20.44 0, 28.71 0 M8.76 0 C14.87 0, 20.97 0, 28.71 0 M28.71 0 C34.55 0, 37.47 2.92, 37.47 8.76 M28.71 0 C34.55 0, 37.47 2.92, 37.47 8.76 M37.47 8.76 C37.47 13.6, 37.47 18.44, 37.47 26.29 M37.47 8.76 C37.47 13.45, 37.47 18.13, 37.47 26.29 M37.47 26.29 C37.47 32.13, 34.55 35.05, 28.71 35.05 M37.47 26.29 C37.47 32.13, 34.55 35.05, 28.71 35.05 M28.71 35.05 C22.16 35.05, 15.62 35.05, 8.76 35.05 M28.71 35.05 C21.12 35.05, 13.54 35.05, 8.76 35.05 M8.76 35.05 C2.92 35.05, 0 32.13, 0 26.29 M8.76 35.05 C2.92 35.05, 0 32.13, 0 26.29 M0 26.29 C0 22.08, 0 17.86, 0 8.76 M0 26.29 C0 21.79, 0 17.29, 0 8.76 M0 8.76 C0 2.92, 2.92 0, 8.76 0 M0 8.76 C0 2.92, 2.92 0, 8.76 0" stroke="#010101" stroke-width="2" fill="none"></path></g><g stroke-linecap="round" transform="translate(33.53668562573057 110.59682450393302) rotate(0 33.23920348759975 7.856539006160347)"><path d="M3.93 0 L64.27 0.25 L66.23 2.21 L66.23 13.5 L65.5 14.73 L62.55 15.71 L2.21 15.47 L0.25 13.5 L0 3.93 L0.98 0.98 L3.93 0" stroke="none" stroke-width="0" fill="#0101ff"></path><path d="M3.93 0 M3.93 0 C26.97 0, 50.01 0, 62.55 0 M3.93 0 C21.47 0, 39.01 0, 62.55 0 M62.55 0 C65.17 0, 66.48 1.31, 66.48 3.93 M62.55 0 C65.17 0, 66.48 1.31, 66.48 3.93 M66.48 3.93 C66.48 6.32, 66.48 8.72, 66.48 11.78 M66.48 3.93 C66.48 5.89, 66.48 7.86, 66.48 11.78 M66.48 11.78 C66.48 14.4, 65.17 15.71, 62.55 15.71 M66.48 11.78 C66.48 14.4, 65.17 15.71, 62.55 15.71 M62.55 15.71 C48.53 15.71, 34.52 15.71, 3.93 15.71 M62.55 15.71 C41.17 15.71, 19.79 15.71, 3.93 15.71 M3.93 15.71 C1.31 15.71, 0 14.4, 0 11.78 M3.93 15.71 C1.31 15.71, 0 14.4, 0 11.78 M0 11.78 C0 9.22, 0 6.65, 0 3.93 M0 11.78 C0 9.77, 0 7.76, 0 3.93 M0 3.93 C0 1.31, 1.31 0, 3.93 0 M0 3.93 C0 1.31, 1.31 0, 3.93 0" stroke="#010101" stroke-width="2" fill="none"></path></g><g stroke-linecap="round" transform="translate(108.47598076141094 111.20117365825354) rotate(0 33.23920348759975 7.856539006160347)"><path d="M3.93 0 L64.27 0.25 L66.23 2.21 L66.23 13.5 L65.5 14.73 L62.55 15.71 L2.21 15.47 L0.25 13.5 L0 3.93 L0.98 0.98 L3.93 0" stroke="none" stroke-width="0" fill="#0101ff"></path><path d="M3.93 0 M3.93 0 C20.98 0, 38.02 0, 62.55 0 M3.93 0 C21.1 0, 38.27 0, 62.55 0 M62.55 0 C65.17 0, 66.48 1.31, 66.48 3.93 M62.55 0 C65.17 0, 66.48 1.31, 66.48 3.93 M66.48 3.93 C66.48 6.5, 66.48 9.08, 66.48 11.78 M66.48 3.93 C66.48 6.82, 66.48 9.71, 66.48 11.78 M66.48 11.78 C66.48 14.4, 65.17 15.71, 62.55 15.71 M66.48 11.78 C66.48 14.4, 65.17 15.71, 62.55 15.71 M62.55 15.71 C39.66 15.71, 16.77 15.71, 3.93 15.71 M62.55 15.71 C48.28 15.71, 34.01 15.71, 3.93 15.71 M3.93 15.71 C1.31 15.71, 0 14.4, 0 11.78 M3.93 15.71 C1.31 15.71, 0 14.4, 0 11.78 M0 11.78 C0 10.12, 0 8.45, 0 3.93 M0 11.78 C0 9.21, 0 6.64, 0 3.93 M0 3.93 C0 1.31, 1.31 0, 3.93 0 M0 3.93 C0 1.31, 1.31 0, 3.93 0" stroke="#010101" stroke-width="2" fill="none"></path></g></svg>