<svg version="1.1" xmlns="http://www.w3.org/2000/svg" viewBox="0 0 390.08013785150524 183.84375000000273" width="390.08013785150524" height="183.84375000000273" filter="invert(93%) hue-rotate(180deg)">
  <!-- svg-source:excalidraw -->
  
  <defs>
    <style class="style-fonts">
      @font-face {
        font-family: "Virgil";
        src: url("https://excalidraw.com/Virgil.woff2");
      }
      @font-face {
        font-family: "Cascadia";
        src: url("https://excalidraw.com/Cascadia.woff2");
      }
    </style>
  </defs>
  <g stroke-linecap="round" transform="translate(10 10) rotate(0 185.04006892575262 81.92187500000136)"><path d="M32 0 M32 0 C141.32 0, 250.65 0, 338.08 0 M32 0 C110.6 0, 189.2 0, 338.08 0 M338.08 0 C359.41 0, 370.08 10.67, 370.08 32 M338.08 0 C359.41 0, 370.08 10.67, 370.08 32 M370.08 32 C370.08 68.15, 370.08 104.3, 370.08 131.84 M370.08 32 C370.08 71.77, 370.08 111.54, 370.08 131.84 M370.08 131.84 C370.08 153.18, 359.41 163.84, 338.08 163.84 M370.08 131.84 C370.08 153.18, 359.41 163.84, 338.08 163.84 M338.08 163.84 C220.62 163.84, 103.16 163.84, 32 163.84 M338.08 163.84 C216.27 163.84, 94.47 163.84, 32 163.84 M32 163.84 C10.67 163.84, 0 153.18, 0 131.84 M32 163.84 C10.67 163.84, 0 153.18, 0 131.84 M0 131.84 C0 102.61, 0 73.38, 0 32 M0 131.84 C0 101.29, 0 70.74, 0 32 M0 32 C0 10.67, 10.67 0, 32 0 M0 32 C0 10.67, 10.67 0, 32 0" stroke="#d9480f" stroke-width="4" fill="none"></path></g><g stroke-linecap="round" transform="translate(35.3911712406134 67.52388212714504) rotate(0 74.93929513567946 44.1174882653595)"><path d="M0 0 L149.88 0 L149.88 88.23 L0 88.23" stroke="none" stroke-width="0" fill="#0101ff"></path><path d="M0 0 C41.76 0, 83.52 0, 149.88 0 M0 0 C35.53 0, 71.07 0, 149.88 0 M149.88 0 C149.88 18.61, 149.88 37.23, 149.88 88.23 M149.88 0 C149.88 20.93, 149.88 41.86, 149.88 88.23 M149.88 88.23 C110.09 88.23, 70.31 88.23, 0 88.23 M149.88 88.23 C105.03 88.23, 60.17 88.23, 0 88.23 M0 88.23 C0 65.18, 0 42.13, 0 0 M0 88.23 C0 66.16, 0 44.09, 0 0" stroke="#343a40" stroke-width="2" fill="none"></path></g><g stroke-linecap="round" transform="translate(35.3911712406134 68.32967562028352) rotate(0 75.54364428999997 14.50437970368057)"><path d="M0 0 L151.09 0 L151.09 29.01 L0 29.01" stroke="none" stroke-width="0" fill="#0101ff"></path><path d="M0 0 C34.98 0, 69.95 0, 151.09 0 M0 0 C59.65 0, 119.31 0, 151.09 0 M151.09 0 C151.09 7.47, 151.09 14.93, 151.09 29.01 M151.09 0 C151.09 8.67, 151.09 17.34, 151.09 29.01 M151.09 29.01 C118.24 29.01, 85.38 29.01, 0 29.01 M151.09 29.01 C106.83 29.01, 62.57 29.01, 0 29.01 M0 29.01 C0 21.2, 0 13.38, 0 0 M0 29.01 C0 18.34, 0 7.66, 0 0" stroke="#343a40" stroke-width="2" fill="none"></path></g><g stroke-linecap="round" transform="translate(34.78682208629289 97.33843502764284) rotate(0 75.54364428999997 14.50437970368057)"><path d="M0 0 L151.09 0 L151.09 29.01 L0 29.01" stroke="none" stroke-width="0" fill="#0101ff"></path><path d="M0 0 C35.82 0, 71.63 0, 151.09 0 M0 0 C51.72 0, 103.45 0, 151.09 0 M151.09 0 C151.09 8.3, 151.09 16.6, 151.09 29.01 M151.09 0 C151.09 7.74, 151.09 15.47, 151.09 29.01 M151.09 29.01 C112.88 29.01, 74.68 29.01, 0 29.01 M151.09 29.01 C103.53 29.01, 55.98 29.01, 0 29.01 M0 29.01 C0 20.34, 0 11.66, 0 0 M0 29.01 C0 17.57, 0 6.14, 0 0" stroke="#343a40" stroke-width="2" fill="none"></path></g><g stroke-linecap="round" transform="translate(34.78682208629289 126.3471944350058) rotate(0 75.54364428999997 14.50437970368057)"><path d="M0 0 L151.09 0 L151.09 29.01 L0 29.01" stroke="none" stroke-width="0" fill="#0101ff"></path><path d="M0 0 C40.71 0, 81.41 0, 151.09 0 M0 0 C38.62 0, 77.23 0, 151.09 0 M151.09 0 C151.09 6.85, 151.09 13.7, 151.09 29.01 M151.09 0 C151.09 11.59, 151.09 23.18, 151.09 29.01 M151.09 29.01 C101.53 29.01, 51.98 29.01, 0 29.01 M151.09 29.01 C110.42 29.01, 69.76 29.01, 0 29.01 M0 29.01 C0 23.06, 0 17.1, 0 0 M0 29.01 C0 20.19, 0 11.38, 0 0" stroke="#343a40" stroke-width="2" fill="none"></path></g><g stroke-linecap="round" transform="translate(204.50820176237357 67.16613641468575) rotate(0 74.93929513567946 44.721837419680014)"><path d="M0 0 L149.88 0 L149.88 89.44 L0 89.44" stroke="none" stroke-width="0" fill="#0101ff"></path><path d="M0 0 C34.9 0, 69.8 0, 149.88 0 M0 0 C48.7 0, 97.39 0, 149.88 0 M149.88 0 C149.88 31.19, 149.88 62.38, 149.88 89.44 M149.88 0 C149.88 31.43, 149.88 62.85, 149.88 89.44 M149.88 89.44 C90.97 89.44, 32.07 89.44, 0 89.44 M149.88 89.44 C117.2 89.44, 84.52 89.44, 0 89.44 M0 89.44 C0 62.18, 0 34.93, 0 0 M0 89.44 C0 60.01, 0 30.58, 0 0" stroke="#343a40" stroke-width="2" fill="none"></path></g><g transform="translate(206.94499266748244 74.06616696404672) rotate(0 50.4002685546875 7.199999999999818)"><text x="50.4002685546875" y="0" font-family="Helvetica, Segoe UI Emoji" font-size="12.776804510293285px" fill="#fff" text-anchor="middle" style="white-space: pre;" direction="ltr" dominant-baseline="text-before-edge">add description ...</text></g><g stroke-linecap="round" transform="translate(33.275949200491596 27.23393874595422) rotate(0 77.35669175296016 16.00483277647527)"><path d="M8 0 L150.21 0.5 L152.71 2 L154.21 4.5 L154.71 8 L154.21 27.51 L152.71 30.01 L150.21 31.51 L146.71 32.01 L4.5 31.51 L2 30.01 L0.5 27.51 L0 8 L0.5 4.5 L2 2 L4.5 0.5 L8 0" stroke="none" stroke-width="0" fill="#0101ff"></path><path d="M8 0 M8 0 C63.4 0, 118.79 0, 146.71 0 M8 0 C53.5 0, 98.99 0, 146.71 0 M146.71 0 C152.05 0, 154.71 2.67, 154.71 8 M146.71 0 C152.05 0, 154.71 2.67, 154.71 8 M154.71 8 C154.71 11.62, 154.71 15.24, 154.71 24.01 M154.71 8 C154.71 11.29, 154.71 14.57, 154.71 24.01 M154.71 24.01 C154.71 29.34, 152.05 32.01, 146.71 32.01 M154.71 24.01 C154.71 29.34, 152.05 32.01, 146.71 32.01 M146.71 32.01 C105.65 32.01, 64.59 32.01, 8 32.01 M146.71 32.01 C106.72 32.01, 66.74 32.01, 8 32.01 M8 32.01 C2.67 32.01, 0 29.34, 0 24.01 M8 32.01 C2.67 32.01, 0 29.34, 0 24.01 M0 24.01 C0 20.6, 0 17.19, 0 8 M0 24.01 C0 20.03, 0 16.05, 0 8 M0 8 C0 2.67, 2.67 0, 8 0 M0 8 C0 2.67, 2.67 0, 8 0" stroke="#000000" stroke-width="2" fill="none"></path></g><g stroke-linecap="round"><g transform="translate(161.77308318453106 39.29801308241076) rotate(0 4.6022517525880176 4.909068536093855)"><path d="M0 0 C1.53 1.64, 7.67 8.18, 9.2 9.82 M0 0 C1.53 1.64, 7.67 8.18, 9.2 9.82" stroke="#495057" stroke-width="2" fill="none"></path></g></g><mask></mask><g stroke-linecap="round"><g transform="translate(171.18213121204462 48.91160563226367) rotate(0 4.193162707913643 -5.011340797262619)"><path d="M0 0 C1.4 -1.67, 6.99 -8.35, 8.39 -10.02 M0 0 C1.4 -1.67, 6.99 -8.35, 8.39 -10.02" stroke="#495057" stroke-width="2" fill="none"></path></g></g><mask></mask><g transform="translate(38.98637268571201 34.536866330065095) rotate(0 55.56385040283203 8.400000000000091)"><text x="55.56385040283203" y="0" font-family="Helvetica, Segoe UI Emoji" font-size="14.925601503431059px" fill="#fff" text-anchor="middle" style="white-space: pre;" direction="ltr" dominant-baseline="text-before-edge">Choose Urgency</text></g><g stroke-linecap="round" transform="translate(202.0908051450915 27.800382767050905) rotate(0 77.35669175296016 16.00483277647527)"><path d="M8 0 L150.21 0.5 L152.71 2 L154.21 4.5 L154.71 8 L154.21 27.51 L152.71 30.01 L150.21 31.51 L146.71 32.01 L4.5 31.51 L2 30.01 L0.5 27.51 L0 8 L0.5 4.5 L2 2 L4.5 0.5 L8 0" stroke="none" stroke-width="0" fill="#0101ff"></path><path d="M8 0 M8 0 C44.82 0, 81.64 0, 146.71 0 M8 0 C56.46 0, 104.92 0, 146.71 0 M146.71 0 C152.05 0, 154.71 2.67, 154.71 8 M146.71 0 C152.05 0, 154.71 2.67, 154.71 8 M154.71 8 C154.71 12.18, 154.71 16.36, 154.71 24.01 M154.71 8 C154.71 12.37, 154.71 16.75, 154.71 24.01 M154.71 24.01 C154.71 29.34, 152.05 32.01, 146.71 32.01 M154.71 24.01 C154.71 29.34, 152.05 32.01, 146.71 32.01 M146.71 32.01 C94.33 32.01, 41.96 32.01, 8 32.01 M146.71 32.01 C113.31 32.01, 79.91 32.01, 8 32.01 M8 32.01 C2.67 32.01, 0 29.34, 0 24.01 M8 32.01 C2.67 32.01, 0 29.34, 0 24.01 M0 24.01 C0 18.99, 0 13.98, 0 8 M0 24.01 C0 19.79, 0 15.58, 0 8 M0 8 C0 2.67, 2.67 0, 8 0 M0 8 C0 2.67, 2.67 0, 8 0" stroke="#000000" stroke-width="2" fill="none"></path></g><g transform="translate(211.1189477838925 34.38781892624684) rotate(0 45.36328125 9.599999999999909)"><text x="45.36328125" y="0" font-family="Helvetica, Segoe UI Emoji" font-size="16px" fill="#fff" text-anchor="middle" style="white-space: pre;" direction="ltr" dominant-baseline="text-before-edge">Select Photo</text></g><g stroke-linecap="round"><g transform="translate(333.06899203513785 44.18362870785859) rotate(0 6.348052978515625 -0.09881591796875)"><path d="M0 0 C2.12 -0.03, 10.58 -0.16, 12.7 -0.2 M0 0 C2.12 -0.03, 10.58 -0.16, 12.7 -0.2" stroke="#fff" stroke-width="1" fill="none"></path></g></g><mask></mask><g stroke-linecap="round"><g transform="translate(339.56679476951285 38.57474198910859) rotate(0 -0.025177001953125 5.63134765625)"><path d="M0 0 C-0.01 1.88, -0.04 9.39, -0.05 11.26 M0 0 C-0.01 1.88, -0.04 9.39, -0.05 11.26" stroke="#fff" stroke-width="1" fill="none"></path></g></g><mask></mask></svg>