<svg width="54" height="52" viewBox="0 0 54 52" fill="none" xmlns="http://www.w3.org/2000/svg">
<path d="M26.2571 51.3704C40.2063 51.3704 51.5143 40.0946 51.5143 26.1852C51.5143 12.2758 40.2063 1 26.2571 1C12.308 1 1 12.2758 1 26.1852C1 40.0946 12.308 51.3704 26.2571 51.3704Z" stroke="#263238" stroke-linecap="round" stroke-linejoin="round"/>
<path d="M26.2571 51.3704C40.2063 51.3704 51.5143 40.0946 51.5143 26.1852C51.5143 12.2758 40.2063 1 26.2571 1C12.308 1 1 12.2758 1 26.1852C1 40.0946 12.308 51.3704 26.2571 51.3704Z" fill="#999999"/>
<path d="M28.2571 51.3704C42.2063 51.3704 53.5143 40.0946 53.5143 26.1852C53.5143 12.2758 42.2063 1 28.2571 1C14.308 1 3 12.2758 3 26.1852C3 40.0946 14.308 51.3704 28.2571 51.3704Z" fill="white"/>
<mask id="mask0_300_8823" style="mask-type:luminance" maskUnits="userSpaceOnUse" x="3" y="1" width="51" height="51">
<path d="M28.2571 51.3704C42.2063 51.3704 53.5143 40.0946 53.5143 26.1852C53.5143 12.2758 42.2063 1 28.2571 1C14.308 1 3 12.2758 3 26.1852C3 40.0946 14.308 51.3704 28.2571 51.3704Z" fill="white"/>
</mask>
<g mask="url(#mask0_300_8823)">
<path d="M11.9214 54.7536L11.5 51.4345C10.9857 47.4102 20.6786 42.3675 20.6786 42.3675L30.3 43.8276L35.4429 40.2236C45.7143 42.3604 44.2357 44.4117 44.4786 47.2607C44.6143 48.8276 44.9 50.5798 44.9 50.5798L11.9214 54.7536Z" fill="#FF7B46" stroke="#263238" stroke-linecap="round" stroke-linejoin="round"/>
<path d="M23.3786 28.6782C23.3786 28.6782 25.5214 33.493 22.2071 41.3492L30.2857 43.6212L33.55 39.9104L31.6286 31.3207L23.3786 28.6782Z" fill="white"/>
<mask id="mask1_300_8823" style="mask-type:luminance" maskUnits="userSpaceOnUse" x="22" y="28" width="12" height="16">
<path d="M23.3786 28.6782C23.3786 28.6782 25.5214 33.493 22.2071 41.3492L30.2857 43.6212L33.55 39.9104L31.6286 31.3207L23.3786 28.6782Z" fill="white"/>
</mask>
<g mask="url(#mask1_300_8823)">
<path d="M23.0357 29.4616C23.0357 29.4616 25.4286 38.322 33.75 38.0087C42.0714 37.6953 25.7286 27.681 25.7286 27.681L23.7143 27.5386L23.0357 29.4616Z" fill="#263238"/>
</g>
<path d="M23.3786 28.6782C23.3786 28.6782 25.5214 33.493 22.2071 41.3492L30.2857 43.6212L33.55 39.9104L31.6286 31.3207L23.3786 28.6782Z" stroke="#263238" stroke-linecap="round" stroke-linejoin="round"/>
<path d="M23.3786 28.6783C23.3786 28.6783 20 28.3364 18.7357 17.8877C17.7071 9.41188 22.8643 3.70675 29.6643 3.80646C36.95 3.92042 41.4572 12.1754 45.8 12.6811C45.8 12.6811 41.5143 14.5045 39.8572 13.429C39.8572 13.429 43.2572 16.278 40.1929 17.7025C37.1286 19.127 23.3786 28.6783 23.3786 28.6783Z" fill="#263238" stroke="#263238" stroke-miterlimit="10"/>
<path d="M39.9571 15.5798L40.8 22.2109C40.8 22.2109 42.2286 26.7123 40.9857 30.1667C39.7429 33.6211 38.3357 37.5171 34.2286 36.6624C30.1214 35.8077 26.65 35.6938 23.4143 28.6781L24.3 25.5371C24.3 25.5371 21.9571 25.5869 21.5643 21.4274C21.1714 17.2679 25.2286 19.832 25.2286 19.832C26.3358 17.8619 26.9071 15.6373 26.8857 13.379C26.8286 9.67527 33.6286 15.5585 37.6429 14.4972L34.6214 11.2778C34.6214 11.2778 39.0429 13.3505 39.9571 15.5798Z" fill="white" stroke="#263238" stroke-linecap="round" stroke-linejoin="round"/>
<path d="M36.2357 22.375L38.2857 25.1884C38.3587 25.2858 38.4075 25.399 38.4281 25.5188C38.4488 25.6386 38.4406 25.7616 38.4044 25.8776C38.3681 25.9937 38.3048 26.0995 38.2196 26.1865C38.1344 26.2734 38.0298 26.339 37.9143 26.3778L35.8714 27.0901" stroke="#263238" stroke-linecap="round" stroke-linejoin="round"/>
<path d="M30.4286 29.3052C30.4286 29.3052 32.3 30.9932 35.8929 30.0174" stroke="#263238" stroke-linecap="round" stroke-linejoin="round"/>
<path d="M31.5071 22.0684C31.5071 22.7807 31.2928 23.3719 30.9786 23.379C30.6643 23.3861 30.4 22.8163 30.3786 22.104C30.3571 21.3918 30.5929 20.8006 30.9 20.7864C31.2071 20.7721 31.4857 21.3491 31.5071 22.0684Z" fill="#263238"/>
<path d="M38.4 21.8404C38.4 22.5527 38.1857 23.1438 37.8714 23.151C37.5571 23.1581 37.2929 22.5883 37.2714 21.876C37.25 21.1638 37.4786 20.5726 37.7929 20.5655C38.1071 20.5584 38.3786 21.1282 38.4 21.8404Z" fill="#263238"/>
<path d="M29.1357 20.4159C29.1357 20.4159 30.4929 18.0797 33.5 19.2122" stroke="#263238" stroke-linecap="round" stroke-linejoin="round"/>
<path d="M37.1 19.0983C37.1 19.0983 38.65 17.7308 40.0214 19.8604" stroke="#263238" stroke-linecap="round" stroke-linejoin="round"/>
<path d="M38.0214 10.3237C38.5056 10.7245 39.0326 11.0708 39.5929 11.3565" stroke="#7F7F7F" stroke-linecap="round" stroke-linejoin="round"/>
<path d="M22.5857 16.6841C22.5857 16.6841 21.8143 9.12715 26.9143 6.63427C30.6857 4.78954 34.7071 7.78812 37.3572 9.81803" stroke="#7F7F7F" stroke-linecap="round" stroke-linejoin="round"/>
<path d="M28.8357 9.42627C30.0786 9.42627 31.7857 10.2097 34.0571 12.8807" stroke="#7F7F7F" stroke-linecap="round" stroke-linejoin="round"/>
<path d="M26.1786 11.328C26.4043 10.831 26.7416 10.3923 27.1643 10.0459" stroke="#7F7F7F" stroke-linecap="round" stroke-linejoin="round"/>
<path d="M19.1572 42.9021L21.6214 40.5944L30 42.9733L33.8572 39.0488L36.55 40.0104L33.9857 45.5659L30.3 44.2411L27.6357 47.1898L19.1572 42.9021Z" fill="#FF7B46"/>
<mask id="mask2_300_8823" style="mask-type:luminance" maskUnits="userSpaceOnUse" x="19" y="39" width="18" height="9">
<path d="M19.1572 42.9021L21.6214 40.5944L30 42.9733L33.8572 39.0488L36.55 40.0104L33.9857 45.5659L30.3 44.2411L27.6357 47.1898L19.1572 42.9021Z" fill="white"/>
</mask>
<g mask="url(#mask2_300_8823)">
<path opacity="0.5" d="M19.1572 42.9021L21.6214 40.5944L30 42.9733L33.8572 39.0488L36.55 40.0104L33.9857 45.5659L30.3 44.2411L27.6357 47.1898L19.1572 42.9021Z" fill="white"/>
</g>
<path d="M19.1572 42.9021L21.6214 40.5944L30 42.9733L33.8572 39.0488L36.55 40.0104L33.9857 45.5659L30.3 44.2411L27.6357 47.1898L19.1572 42.9021Z" stroke="#263238" stroke-linecap="round" stroke-linejoin="round"/>
</g>
</svg>
