<svg width="250" height="250" viewBox="0 0 250 250" fill="none" xmlns="http://www.w3.org/2000/svg">
<path d="M102.464 28.4902H86.9143C84.0519 28.4902 81.3066 29.6241 79.2826 31.6424C77.2585 33.6607 76.1214 36.3981 76.1214 39.2523V210.748C76.1214 213.602 77.2585 216.34 79.2826 218.358C81.3066 220.376 84.0519 221.51 86.9143 221.51H102.464V28.4902Z" fill="#D2D2D2" stroke="#263238" stroke-linecap="round" stroke-linejoin="round"/>
<path d="M78.2857 57.5288H76.2857C75.1811 57.5288 74.2857 58.4217 74.2857 59.5231V72.1513C74.2857 73.2527 75.1811 74.1456 76.2857 74.1456H78.2857C79.3903 74.1456 80.2857 73.2527 80.2857 72.1513V59.5231C80.2857 58.4217 79.3903 57.5288 78.2857 57.5288Z" fill="#263238" stroke="#263238" stroke-linecap="round" stroke-linejoin="round"/>
<path d="M78.2857 59.5231C78.2857 58.9942 78.075 58.4869 77.6999 58.1129C77.3249 57.7389 76.8162 57.5288 76.2857 57.5288C75.7553 57.5288 75.2466 57.7389 74.8715 58.1129C74.4964 58.4869 74.2857 58.9942 74.2857 59.5231V72.1513C74.2857 72.6802 74.4964 73.1875 74.8715 73.5615C75.2466 73.9355 75.7553 74.1456 76.2857 74.1456C76.8162 74.1456 77.3249 73.9355 77.6999 73.5615C78.075 73.1875 78.2857 72.6802 78.2857 72.1513V59.5231Z" fill="#FF7B46" stroke="#263238" stroke-linecap="round" stroke-linejoin="round"/>
<path d="M78.2857 78.1343H76.2857C75.1811 78.1343 74.2857 79.0272 74.2857 80.1286V83.64C74.2857 84.7414 75.1811 85.6343 76.2857 85.6343H78.2857C79.3903 85.6343 80.2857 84.7414 80.2857 83.64V80.1286C80.2857 79.0272 79.3903 78.1343 78.2857 78.1343Z" fill="#263238" stroke="#263238" stroke-linecap="round" stroke-linejoin="round"/>
<path d="M78.2857 80.1286C78.2857 79.5997 78.075 79.0924 77.6999 78.7184C77.3249 78.3444 76.8162 78.1343 76.2857 78.1343C75.7553 78.1343 75.2466 78.3444 74.8715 78.7184C74.4964 79.0924 74.2857 79.5997 74.2857 80.1286V83.64C74.2857 84.1689 74.4964 84.6762 74.8715 85.0502C75.2466 85.4242 75.7553 85.6343 76.2857 85.6343C76.8162 85.6343 77.3249 85.4242 77.6999 85.0502C78.075 84.6762 78.2857 84.1689 78.2857 83.64V80.1286Z" fill="#FF7B46" stroke="#263238" stroke-linecap="round" stroke-linejoin="round"/>
<path d="M163.186 28.4902H91.2C85.2393 28.4902 80.4072 33.3086 80.4072 39.2523V210.748C80.4072 216.692 85.2393 221.51 91.2 221.51H163.186C169.146 221.51 173.979 216.692 173.979 210.748V39.2523C173.979 33.3086 169.146 28.4902 163.186 28.4902Z" fill="#FF7B46"/>
<mask id="mask0_294_8695" style="mask-type:luminance" maskUnits="userSpaceOnUse" x="80" y="28" width="94" height="194">
<path d="M163.186 28.4902H91.2C85.2393 28.4902 80.4072 33.3086 80.4072 39.2523V210.748C80.4072 216.692 85.2393 221.51 91.2 221.51H163.186C169.146 221.51 173.979 216.692 173.979 210.748V39.2523C173.979 33.3086 169.146 28.4902 163.186 28.4902Z" fill="white"/>
</mask>
<g mask="url(#mask0_294_8695)">
<path opacity="0.5" d="M163.186 28.4902H91.2C85.2393 28.4902 80.4072 33.3086 80.4072 39.2523V210.748C80.4072 216.692 85.2393 221.51 91.2 221.51H163.186C169.146 221.51 173.979 216.692 173.979 210.748V39.2523C173.979 33.3086 169.146 28.4902 163.186 28.4902Z" fill="white"/>
<path opacity="0.3" d="M67.1286 211.539H29.1929L157.843 34.9004H195.779L67.1286 211.539Z" fill="white"/>
<path opacity="0.3" d="M82.9571 211.539H74.5714L203.229 34.9004H211.614L82.9571 211.539Z" fill="white"/>
</g>
<path d="M163.186 28.4902H91.2C85.2393 28.4902 80.4072 33.3086 80.4072 39.2523V210.748C80.4072 216.692 85.2393 221.51 91.2 221.51H163.186C169.146 221.51 173.979 216.692 173.979 210.748V39.2523C173.979 33.3086 169.146 28.4902 163.186 28.4902Z" stroke="#263238" stroke-linecap="round" stroke-linejoin="round"/>
<path d="M163.179 28.4902H91.2C88.3376 28.4902 85.5924 29.6241 83.5683 31.6424C81.5443 33.6607 80.4072 36.3981 80.4072 39.2523V41.3107H173.979V39.2523C173.977 36.3974 172.838 33.66 170.813 31.642C168.788 29.6239 166.042 28.4902 163.179 28.4902Z" fill="#263238" stroke="#263238" stroke-linecap="round" stroke-linejoin="round"/>
<path d="M129.807 36.6951C130.061 36.7272 130.318 36.705 130.562 36.6302C130.806 36.5554 131.032 36.4295 131.224 36.2611C131.415 36.0927 131.569 35.8855 131.674 35.6533C131.779 35.4211 131.833 35.1693 131.833 34.9145C131.833 34.6597 131.779 34.4079 131.674 34.1757C131.569 33.9435 131.415 33.7363 131.224 33.5679C131.032 33.3995 130.806 33.2737 130.562 33.1988C130.318 33.124 130.061 33.1018 129.807 33.1339H118.379C118.125 33.1018 117.868 33.124 117.624 33.1988C117.379 33.2737 117.154 33.3995 116.962 33.5679C116.77 33.7363 116.617 33.9435 116.512 34.1757C116.407 34.4079 116.352 34.6597 116.352 34.9145C116.352 35.1693 116.407 35.4211 116.512 35.6533C116.617 35.8855 116.77 36.0927 116.962 36.2611C117.154 36.4295 117.379 36.5554 117.624 36.6302C117.868 36.705 118.125 36.7272 118.379 36.6951H129.807Z" fill="#999999" stroke="#263238" stroke-linecap="round" stroke-linejoin="round"/>
<path d="M135.979 36.6952C136.973 36.6952 137.779 35.8916 137.779 34.9003C137.779 33.9091 136.973 33.1055 135.979 33.1055C134.984 33.1055 134.179 33.9091 134.179 34.9003C134.179 35.8916 134.984 36.6952 135.979 36.6952Z" fill="#999999" stroke="#263238" stroke-linecap="round" stroke-linejoin="round"/>
<path d="M80.4072 203.704V210.748C80.4072 213.603 81.5443 216.34 83.5683 218.358C85.5924 220.377 88.3376 221.51 91.2 221.51H163.179C166.042 221.51 168.788 220.377 170.813 218.359C172.838 216.341 173.977 213.603 173.979 210.748V203.704H80.4072Z" fill="#263238" stroke="#263238" stroke-linecap="round" stroke-linejoin="round"/>
<path d="M127.193 217.984C130.171 217.984 132.586 215.577 132.586 212.607C132.586 209.637 130.171 207.229 127.193 207.229C124.214 207.229 121.8 209.637 121.8 212.607C121.8 215.577 124.214 217.984 127.193 217.984Z" fill="#999999" stroke="#263238" stroke-linecap="round" stroke-linejoin="round"/>
<path d="M125.764 100.755C139.713 100.755 151.021 89.4793 151.021 75.57C151.021 61.6606 139.713 50.3848 125.764 50.3848C111.815 50.3848 100.507 61.6606 100.507 75.57C100.507 89.4793 111.815 100.755 125.764 100.755Z" fill="#999999"/>
<path d="M127.193 99.3308C141.142 99.3308 152.45 88.055 152.45 74.1456C152.45 60.2362 141.142 48.9604 127.193 48.9604C113.244 48.9604 101.936 60.2362 101.936 74.1456C101.936 88.055 113.244 99.3308 127.193 99.3308Z" fill="white"/>
<mask id="mask1_294_8695" style="mask-type:luminance" maskUnits="userSpaceOnUse" x="101" y="48" width="52" height="52">
<path d="M127.193 99.3308C141.142 99.3308 152.45 88.055 152.45 74.1456C152.45 60.2362 141.142 48.9604 127.193 48.9604C113.244 48.9604 101.936 60.2362 101.936 74.1456C101.936 88.055 113.244 99.3308 127.193 99.3308Z" fill="white"/>
</mask>
<g mask="url(#mask1_294_8695)">
<path d="M110.857 102.714L110.436 99.3949C109.921 95.3707 119.614 90.328 119.614 90.328L129.236 91.7881L134.379 88.1841C144.65 90.3208 143.171 92.3721 143.414 95.2211C143.55 96.7881 143.836 98.5402 143.836 98.5402L110.857 102.714Z" fill="#FF7B46" stroke="#263238" stroke-linecap="round" stroke-linejoin="round"/>
<path d="M122.314 76.6387C122.314 76.6387 124.457 81.4535 121.143 89.3096L129.221 91.5817L132.486 87.8709L130.564 79.2811L122.314 76.6387Z" fill="white"/>
<mask id="mask2_294_8695" style="mask-type:luminance" maskUnits="userSpaceOnUse" x="121" y="76" width="12" height="16">
<path d="M122.314 76.6387C122.314 76.6387 124.457 81.4535 121.143 89.3096L129.221 91.5817L132.486 87.8709L130.564 79.2811L122.314 76.6387Z" fill="white"/>
</mask>
<g mask="url(#mask2_294_8695)">
<path d="M121.971 77.4221C121.971 77.4221 124.364 86.2825 132.686 85.9691C141.007 85.6557 124.664 75.6415 124.664 75.6415L122.65 75.499L121.971 77.4221Z" fill="#263238"/>
</g>
<path d="M122.314 76.6387C122.314 76.6387 124.457 81.4535 121.143 89.3096L129.221 91.5817L132.486 87.8709L130.564 79.2811L122.314 76.6387Z" stroke="#263238" stroke-linecap="round" stroke-linejoin="round"/>
<path d="M122.314 76.6387C122.314 76.6387 118.936 76.2968 117.671 65.8481C116.643 57.3723 121.8 51.6672 128.6 51.7669C135.886 51.8809 140.393 60.1359 144.736 60.6416C144.736 60.6416 140.45 62.4649 138.793 61.3894C138.793 61.3894 142.193 64.2384 139.129 65.6629C136.064 67.0874 122.314 76.6387 122.314 76.6387Z" fill="#263238" stroke="#263238" stroke-miterlimit="10"/>
<path d="M138.893 63.5403L139.736 70.1713C139.736 70.1713 141.164 74.6728 139.921 78.1272C138.679 81.5816 137.271 85.4776 133.164 84.6229C129.057 83.7682 125.586 83.6542 122.35 76.6386L123.236 73.4975C123.236 73.4975 120.893 73.5474 120.5 69.3879C120.107 65.2283 124.164 67.7924 124.164 67.7924C125.272 65.8223 125.843 63.5977 125.821 61.3394C125.764 57.6357 132.564 63.5189 136.579 62.4577L133.557 59.2383C133.557 59.2383 137.979 61.3109 138.893 63.5403Z" fill="white" stroke="#263238" stroke-linecap="round" stroke-linejoin="round"/>
<path d="M135.171 70.3354L137.221 73.1488C137.294 73.2462 137.343 73.3594 137.364 73.4792C137.384 73.599 137.376 73.722 137.34 73.8381C137.304 73.9541 137.241 74.06 137.155 74.1469C137.07 74.2339 136.966 74.2995 136.85 74.3383L134.807 75.0505" stroke="#263238" stroke-linecap="round" stroke-linejoin="round"/>
<path d="M129.364 77.2656C129.364 77.2656 131.236 78.9537 134.829 77.9779" stroke="#263238" stroke-linecap="round" stroke-linejoin="round"/>
<path d="M130.443 70.0289C130.443 70.7411 130.229 71.3323 129.914 71.3394C129.6 71.3466 129.336 70.7767 129.314 70.0645C129.293 69.3522 129.529 68.7611 129.836 68.7468C130.143 68.7326 130.421 69.3095 130.443 70.0289Z" fill="#263238"/>
<path d="M137.336 69.8009C137.336 70.5131 137.121 71.1043 136.807 71.1114C136.493 71.1185 136.229 70.5487 136.207 69.8365C136.186 69.1242 136.414 68.5331 136.729 68.5259C137.043 68.5188 137.314 69.0886 137.336 69.8009Z" fill="#263238"/>
<path d="M128.071 68.3764C128.071 68.3764 129.429 66.0402 132.436 67.1726" stroke="#263238" stroke-linecap="round" stroke-linejoin="round"/>
<path d="M136.036 67.0587C136.036 67.0587 137.586 65.6912 138.957 67.8208" stroke="#263238" stroke-linecap="round" stroke-linejoin="round"/>
<path d="M136.957 58.2842C137.441 58.6849 137.968 59.0312 138.529 59.3169" stroke="#7F7F7F" stroke-linecap="round" stroke-linejoin="round"/>
<path d="M121.521 64.6446C121.521 64.6446 120.75 57.0876 125.85 54.5947C129.621 52.75 133.643 55.7486 136.293 57.7785" stroke="#7F7F7F" stroke-linecap="round" stroke-linejoin="round"/>
<path d="M127.771 57.3867C129.014 57.3867 130.721 58.1702 132.993 60.8411" stroke="#7F7F7F" stroke-linecap="round" stroke-linejoin="round"/>
<path d="M125.114 59.2884C125.34 58.7914 125.677 58.3528 126.1 58.0063" stroke="#7F7F7F" stroke-linecap="round" stroke-linejoin="round"/>
<path d="M118.093 90.8626L120.557 88.5549L128.936 90.9338L132.793 87.0093L135.486 87.9708L132.921 93.5264L129.236 92.2016L126.571 95.1503L118.093 90.8626Z" fill="#FF7B46"/>
<mask id="mask3_294_8695" style="mask-type:luminance" maskUnits="userSpaceOnUse" x="118" y="87" width="18" height="9">
<path d="M118.093 90.8626L120.557 88.5549L128.936 90.9338L132.793 87.0093L135.486 87.9708L132.921 93.5264L129.236 92.2016L126.571 95.1503L118.093 90.8626Z" fill="white"/>
</mask>
<g mask="url(#mask3_294_8695)">
<path opacity="0.5" d="M118.093 90.8626L120.557 88.5549L128.936 90.9338L132.793 87.0093L135.486 87.9708L132.921 93.5264L129.236 92.2016L126.571 95.1503L118.093 90.8626Z" fill="white"/>
</g>
<path d="M118.093 90.8626L120.557 88.5549L128.936 90.9338L132.793 87.0093L135.486 87.9708L132.921 93.5264L129.236 92.2016L126.571 95.1503L118.093 90.8626Z" stroke="#263238" stroke-linecap="round" stroke-linejoin="round"/>
</g>
<path d="M127.193 99.3308C141.142 99.3308 152.45 88.055 152.45 74.1456C152.45 60.2362 141.142 48.9604 127.193 48.9604C113.244 48.9604 101.936 60.2362 101.936 74.1456C101.936 88.055 113.244 99.3308 127.193 99.3308Z" stroke="#263238" stroke-linecap="round" stroke-linejoin="round"/>
<path d="M145.293 85.6343H137.164C134.963 85.6343 133.179 87.4137 133.179 89.6086V97.7141C133.179 99.909 134.963 101.688 137.164 101.688H145.293C147.494 101.688 149.279 99.909 149.279 97.7141V89.6086C149.279 87.4137 147.494 85.6343 145.293 85.6343Z" fill="#FF7B46" stroke="#263238" stroke-linecap="round" stroke-linejoin="round"/>
<path d="M143.386 90.2635C143.273 90.0476 143.102 89.8669 142.893 89.7413C142.684 89.6156 142.444 89.5499 142.2 89.5513H140.264C140.02 89.5499 139.78 89.6156 139.571 89.7413C139.362 89.8669 139.191 90.0476 139.079 90.2635" stroke="#263238" stroke-linecap="round" stroke-linejoin="round"/>
<path d="M137.8 90.6626C137.45 90.6626 137.113 90.8014 136.866 91.0486C136.618 91.2957 136.479 91.6308 136.479 91.9803V96.4746C136.479 96.8241 136.618 97.1592 136.866 97.4063C137.113 97.6534 137.45 97.7923 137.8 97.7923H144.657C144.831 97.7932 145.004 97.7598 145.165 97.694C145.326 97.6282 145.473 97.5313 145.596 97.4088C145.72 97.2864 145.818 97.1408 145.884 96.9805C145.951 96.8202 145.986 96.6482 145.986 96.4746V91.9803C145.986 91.8066 145.951 91.6347 145.884 91.4744C145.818 91.3141 145.72 91.1685 145.596 91.046C145.473 90.9236 145.326 90.8267 145.165 90.7609C145.004 90.6951 144.831 90.6617 144.657 90.6626" stroke="#263238" stroke-linecap="round" stroke-linejoin="round"/>
<path d="M141.229 92.3721C140.86 92.3721 140.499 92.4813 140.192 92.6859C139.885 92.8905 139.646 93.1813 139.506 93.5213C139.365 93.8614 139.328 94.2356 139.401 94.5964C139.473 94.9572 139.651 95.2884 139.913 95.5481C140.174 95.8078 140.507 95.9843 140.869 96.0552C141.231 96.1261 141.606 96.0883 141.947 95.9465C142.288 95.8047 142.578 95.5653 142.782 95.2587C142.986 94.9521 143.094 94.5919 143.093 94.224C143.094 93.9799 143.046 93.7381 142.953 93.5125C142.859 93.287 142.722 93.0821 142.549 92.9099C142.375 92.7376 142.169 92.6014 141.943 92.5091C141.716 92.4168 141.473 92.3702 141.229 92.3721Z" stroke="#263238" stroke-linecap="round" stroke-linejoin="round"/>
<path d="M158.529 182.023H94.4286C90.9255 182.023 88.0857 184.855 88.0857 188.348V194.217C88.0857 197.71 90.9255 200.541 94.4286 200.541H158.529C162.032 200.541 164.871 197.71 164.871 194.217V188.348C164.871 184.855 162.032 182.023 158.529 182.023Z" fill="#999999"/>
<path d="M159.243 179.886H95.1429C91.6398 179.886 88.8 182.718 88.8 186.211V192.08C88.8 195.573 91.6398 198.405 95.1429 198.405H159.243C162.746 198.405 165.586 195.573 165.586 192.08V186.211C165.586 182.718 162.746 179.886 159.243 179.886Z" fill="#FF7B46" stroke="#263238" stroke-linecap="round" stroke-linejoin="round"/>
<path d="M96.8429 187.03C96.8415 186.642 96.9556 186.263 97.1709 185.94C97.3862 185.616 97.6929 185.364 98.0522 185.215C98.4114 185.066 98.8069 185.027 99.1886 185.102C99.5703 185.177 99.921 185.364 100.196 185.638C100.471 185.913 100.658 186.262 100.734 186.643C100.81 187.024 100.77 187.418 100.621 187.776C100.471 188.134 100.218 188.44 99.894 188.655C99.5699 188.87 99.1891 188.983 98.8 188.982M98.8 182.657C97.6369 182.657 96.5213 183.118 95.6989 183.938C94.8764 184.758 94.4143 185.871 94.4143 187.03C94.4143 188.733 96.5572 192.201 97.8715 194.11C97.9731 194.263 98.1111 194.388 98.2731 194.475C98.4351 194.562 98.6161 194.607 98.8 194.607C98.9839 194.607 99.1649 194.562 99.3269 194.475C99.489 194.388 99.6269 194.263 99.7286 194.11C101.036 192.201 103.179 188.747 103.179 187.03C103.179 185.872 102.718 184.761 101.897 183.941C101.076 183.121 99.9619 182.659 98.8 182.657Z" stroke="#263238" stroke-linecap="round" stroke-linejoin="round"/>
<path d="M150.686 183.96H114.479C114.217 183.96 113.958 184.012 113.716 184.112C113.474 184.212 113.254 184.358 113.069 184.542C112.884 184.727 112.738 184.946 112.637 185.187C112.537 185.428 112.486 185.687 112.486 185.948C112.486 186.209 112.537 186.467 112.637 186.708C112.738 186.949 112.884 187.168 113.069 187.353C113.254 187.537 113.474 187.684 113.716 187.784C113.958 187.883 114.217 187.935 114.479 187.935H150.686C151.214 187.935 151.721 187.725 152.095 187.353C152.469 186.98 152.679 186.475 152.679 185.948C152.679 185.421 152.469 184.915 152.095 184.542C151.721 184.17 151.214 183.96 150.686 183.96Z" fill="white" stroke="#263238" stroke-linecap="round" stroke-linejoin="round"/>
<path d="M140.143 190.349H114.479C113.95 190.349 113.443 190.558 113.069 190.931C112.696 191.304 112.486 191.809 112.486 192.336C112.486 192.863 112.696 193.369 113.069 193.741C113.443 194.114 113.95 194.323 114.479 194.323H140.143C140.671 194.323 141.178 194.114 141.552 193.741C141.926 193.369 142.136 192.863 142.136 192.336C142.136 191.809 141.926 191.304 141.552 190.931C141.178 190.558 140.671 190.349 140.143 190.349Z" fill="white" stroke="#263238" stroke-linecap="round" stroke-linejoin="round"/>
<path d="M152.95 190.349H145.614C145.086 190.349 144.579 190.558 144.205 190.931C143.831 191.304 143.621 191.809 143.621 192.336C143.621 192.863 143.831 193.369 144.205 193.741C144.579 194.114 145.086 194.323 145.614 194.323H152.95C153.479 194.323 153.985 194.114 154.359 193.741C154.733 193.369 154.943 192.863 154.943 192.336C154.943 191.809 154.733 191.304 154.359 190.931C153.985 190.558 153.479 190.349 152.95 190.349Z" fill="white" stroke="#263238" stroke-linecap="round" stroke-linejoin="round"/>
<path d="M168.529 158.875H104.429C100.926 158.875 98.0857 161.707 98.0857 165.2V171.069C98.0857 174.562 100.926 177.394 104.429 177.394H168.529C172.032 177.394 174.871 174.562 174.871 171.069V165.2C174.871 161.707 172.032 158.875 168.529 158.875Z" fill="#999999"/>
<path d="M169.243 156.738H105.143C101.64 156.738 98.8 159.57 98.8 163.063V168.932C98.8 172.425 101.64 175.257 105.143 175.257H169.243C172.746 175.257 175.586 172.425 175.586 168.932V163.063C175.586 159.57 172.746 156.738 169.243 156.738Z" fill="#FF7B46" stroke="#263238" stroke-linecap="round" stroke-linejoin="round"/>
<path d="M104.993 167.992V168.911C104.993 168.981 105.013 169.05 105.049 169.11C105.086 169.17 105.138 169.219 105.2 169.252L108.614 171.097C108.671 171.129 108.735 171.146 108.8 171.146C108.865 171.146 108.929 171.129 108.986 171.097L112.407 169.252C112.469 169.219 112.521 169.17 112.558 169.11C112.594 169.05 112.614 168.981 112.614 168.911V167.992" stroke="#263238" stroke-linecap="round" stroke-linejoin="round"/>
<path d="M114.314 169.516V165.499L115.293 164.972C115.361 164.941 115.419 164.891 115.46 164.827C115.5 164.764 115.522 164.691 115.522 164.616C115.522 164.541 115.5 164.467 115.46 164.404C115.419 164.341 115.361 164.291 115.293 164.26L108.986 160.855C108.929 160.823 108.865 160.807 108.8 160.807C108.735 160.807 108.671 160.823 108.614 160.855L102.314 164.26C102.246 164.291 102.188 164.341 102.147 164.404C102.107 164.467 102.085 164.541 102.085 164.616C102.085 164.691 102.107 164.764 102.147 164.827C102.188 164.891 102.246 164.941 102.314 164.972L108.614 168.369C108.671 168.401 108.735 168.418 108.8 168.418C108.865 168.418 108.929 168.401 108.986 168.369L112.614 166.418" stroke="#263238" stroke-linecap="round" stroke-linejoin="round"/>
<path d="M160.686 160.812H124.479C123.95 160.812 123.443 161.022 123.069 161.395C122.696 161.767 122.486 162.273 122.486 162.8C122.486 163.327 122.696 163.832 123.069 164.205C123.443 164.577 123.95 164.787 124.479 164.787H160.686C161.214 164.787 161.721 164.577 162.095 164.205C162.469 163.832 162.679 163.327 162.679 162.8C162.679 162.273 162.469 161.767 162.095 161.395C161.721 161.022 161.214 160.812 160.686 160.812Z" fill="white" stroke="#263238" stroke-linecap="round" stroke-linejoin="round"/>
<path d="M143.714 167.201H124.479C123.95 167.201 123.443 167.411 123.069 167.783C122.696 168.156 122.486 168.661 122.486 169.188C122.486 169.715 122.696 170.221 123.069 170.593C123.443 170.966 123.95 171.176 124.479 171.176H143.714C144.243 171.176 144.75 170.966 145.123 170.593C145.497 170.221 145.707 169.715 145.707 169.188C145.707 168.661 145.497 168.156 145.123 167.783C144.75 167.411 144.243 167.201 143.714 167.201Z" fill="white" stroke="#263238" stroke-linecap="round" stroke-linejoin="round"/>
<path d="M156.686 167.201H149.35C148.821 167.201 148.315 167.411 147.941 167.783C147.567 168.156 147.357 168.661 147.357 169.188C147.357 169.715 147.567 170.221 147.941 170.593C148.315 170.966 148.821 171.176 149.35 171.176H156.686C157.214 171.176 157.721 170.966 158.095 170.593C158.469 170.221 158.679 169.715 158.679 169.188C158.679 168.661 158.469 168.156 158.095 167.783C157.721 167.411 157.214 167.201 156.686 167.201Z" fill="white" stroke="#263238" stroke-linecap="round" stroke-linejoin="round"/>
<path d="M149.243 135.727H85.1429C81.6398 135.727 78.8 138.559 78.8 142.052V147.921C78.8 151.414 81.6398 154.246 85.1429 154.246H149.243C152.746 154.246 155.586 151.414 155.586 147.921V142.052C155.586 138.559 152.746 135.727 149.243 135.727Z" fill="#999999"/>
<path d="M149.957 133.59H85.8572C82.3541 133.59 79.5143 136.422 79.5143 139.915V145.784C79.5143 149.277 82.3541 152.108 85.8572 152.108H149.957C153.46 152.108 156.3 149.277 156.3 145.784V139.915C156.3 136.422 153.46 133.59 149.957 133.59Z" fill="#FF7B46" stroke="#263238" stroke-linecap="round" stroke-linejoin="round"/>
<path d="M89.8143 143.625H89.2143C88.8198 143.625 88.5 143.944 88.5 144.338V145.869C88.5 146.262 88.8198 146.581 89.2143 146.581H89.8143C90.2088 146.581 90.5286 146.262 90.5286 145.869V144.338C90.5286 143.944 90.2088 143.625 89.8143 143.625Z" stroke="#263238" stroke-linecap="round" stroke-linejoin="round"/>
<path d="M84.65 145.691C84.65 146.278 84.8841 146.842 85.3007 147.257C85.7173 147.673 86.2823 147.906 86.8714 147.906H92.1643C92.7535 147.906 93.3185 147.673 93.7351 147.257C94.1517 146.842 94.3857 146.278 94.3857 145.691" stroke="#263238" stroke-linecap="round" stroke-linejoin="round"/>
<path d="M85.9929 139.124H85.2786C84.9723 139.126 84.679 139.248 84.4624 139.464C84.2458 139.68 84.1233 139.973 84.1214 140.278V142.579C84.1205 142.876 84.1784 143.17 84.2917 143.445C84.4051 143.72 84.5718 143.969 84.7821 144.18C84.9925 144.39 85.2424 144.557 85.5176 144.671C85.7928 144.785 86.0878 144.844 86.3857 144.844H87.1M91.9643 144.844H92.6429C93.2453 144.844 93.823 144.605 94.249 144.18C94.675 143.756 94.9143 143.179 94.9143 142.579V140.314C94.9124 140.008 94.7899 139.716 94.5733 139.5C94.3567 139.284 94.0635 139.162 93.7572 139.16H93.0429M87.6429 139.16V138.889C87.6448 138.601 87.7607 138.326 87.9655 138.123C88.1702 137.92 88.4471 137.807 88.7357 137.807H90.3214C90.6063 137.812 90.8778 137.929 91.0779 138.131C91.278 138.333 91.3911 138.605 91.3929 138.889V139.146" stroke="#263238" stroke-linecap="round" stroke-linejoin="round"/>
<path d="M141.4 137.664H105.193C104.664 137.664 104.157 137.873 103.784 138.246C103.41 138.619 103.2 139.124 103.2 139.651C103.2 140.178 103.41 140.684 103.784 141.056C104.157 141.429 104.664 141.638 105.193 141.638H141.4C141.929 141.638 142.435 141.429 142.809 141.056C143.183 140.684 143.393 140.178 143.393 139.651C143.393 139.124 143.183 138.619 142.809 138.246C142.435 137.873 141.929 137.664 141.4 137.664Z" fill="white" stroke="#263238" stroke-linecap="round" stroke-linejoin="round"/>
<path d="M135.143 144.053H105.193C104.664 144.053 104.157 144.262 103.784 144.635C103.41 145.007 103.2 145.513 103.2 146.04C103.2 146.567 103.41 147.072 103.784 147.445C104.157 147.818 104.664 148.027 105.193 148.027H135.143C135.671 148.027 136.178 147.818 136.552 147.445C136.926 147.072 137.136 146.567 137.136 146.04C137.136 145.513 136.926 145.007 136.552 144.635C136.178 144.262 135.671 144.053 135.143 144.053Z" fill="white" stroke="#263238" stroke-linecap="round" stroke-linejoin="round"/>
</svg>
