<svg width="12" height="11" viewBox="0 0 12 11" fill="none" xmlns="http://www.w3.org/2000/svg">
<path d="M9.83232 1.6512C9.324 1.16531 8.71926 0.779275 8.05284 0.51527C7.38642 0.251265 6.67145 0.114492 5.94902 0.112809C5.22658 0.111126 4.51091 0.244566 3.84313 0.505463C3.17534 0.76636 2.5686 1.14957 2.05776 1.63308C1.54692 2.1166 1.14205 2.69088 0.866402 3.32294C0.590759 3.955 0.449777 4.63238 0.451555 5.31617C0.453333 5.99995 0.597836 6.67667 0.876764 7.30744C1.15569 7.93821 1.56354 8.5106 2.07689 8.99172C2.58521 9.47761 3.18996 9.86364 3.85638 10.1276C4.5228 10.3917 5.23776 10.5284 5.9602 10.5301C6.68263 10.5318 7.3983 10.3984 8.06609 10.1375C8.73387 9.87656 9.34061 9.49335 9.85146 9.00983C10.3623 8.52632 10.7672 7.95204 11.0428 7.31998C11.3185 6.68792 11.4594 6.01054 11.4577 5.32675C11.4559 4.64296 11.3114 3.96625 11.0325 3.33548C10.7535 2.70471 10.3457 2.13232 9.83232 1.6512ZM1.25405 5.32146C1.25388 4.92769 1.30904 4.53566 1.41808 4.15566C1.59778 4.52178 1.85876 4.83808 2.03625 5.21371C2.26565 5.69662 2.88162 5.56268 3.15361 5.98581C3.39501 6.36143 3.13721 6.83647 3.31789 7.22947C3.44911 7.51472 3.75857 7.57705 3.97205 7.7856C4.19019 7.99601 4.18553 8.28427 4.21883 8.55863C4.2564 8.88099 4.31734 9.20051 4.40122 9.51495C4.40122 9.51727 4.40122 9.51982 4.40318 9.52214C2.57119 8.91317 1.25405 7.26029 1.25405 5.32146ZM5.95461 9.77054C5.6921 9.77046 5.43005 9.74969 5.17118 9.70844C5.17387 9.64565 5.1751 9.58702 5.18171 9.54624C5.2412 9.1778 5.43608 8.81747 5.69901 8.54172C5.95877 8.26967 6.31474 8.08569 6.5341 7.77703C6.74905 7.47579 6.81344 7.07027 6.72481 6.71829C6.59432 6.1983 5.84787 6.02474 5.44538 5.74273C5.21402 5.58053 5.00813 5.3298 4.70431 5.30941C4.56427 5.30014 4.447 5.32864 4.30819 5.29481C4.18088 5.26353 4.08099 5.19865 3.94536 5.21556C3.69198 5.24708 3.53211 5.50336 3.25987 5.4686C3.00158 5.43593 2.73546 5.14975 2.6767 4.91687C2.6013 4.61748 2.85151 4.52039 3.11958 4.49374C3.23147 4.48262 3.35706 4.47057 3.46454 4.5095C3.60604 4.55909 3.67288 4.69025 3.79994 4.75652C4.03815 4.88026 4.08638 4.6826 4.0499 4.48239C3.99531 4.18254 3.93165 4.06042 4.21418 3.85396C4.41003 3.71168 4.57749 3.60879 4.54615 3.3532C4.52755 3.20305 4.44064 3.13515 4.52167 2.98569C4.58312 2.87191 4.7518 2.76926 4.86173 2.70136C5.14547 2.52618 6.07726 2.53916 5.69657 2.04883C5.58468 1.90493 5.3783 1.64772 5.18244 1.6125C4.93762 1.5687 4.82892 1.82731 4.65828 1.94131C4.48201 2.05926 4.13877 2.1932 3.96226 2.01083C3.72478 1.76544 4.11968 1.68503 4.20708 1.51355C4.24747 1.43361 4.20708 1.32261 4.13902 1.21811C4.22732 1.18288 4.31708 1.15021 4.40832 1.12009C4.4655 1.16006 4.53333 1.18413 4.60418 1.1896C4.76796 1.1998 4.92244 1.11592 5.06542 1.22158C5.22406 1.33744 5.33839 1.48389 5.54894 1.52004C5.75263 1.55503 5.96832 1.44264 6.01875 1.24522C6.04935 1.12518 6.01875 0.998432 5.98937 0.87446C6.905 0.879446 7.79891 1.13899 8.55999 1.62084C8.51102 1.60323 8.45251 1.60531 8.38029 1.63706C8.23168 1.70241 8.02114 1.86878 8.00376 2.03377C7.98393 2.221 8.27575 2.24742 8.41432 2.24742C8.62242 2.24742 8.83321 2.15936 8.76613 1.93181C8.73699 1.8331 8.69733 1.73045 8.63343 1.66834C8.78704 1.76923 8.93419 1.87864 9.07411 1.996C9.07191 1.99809 9.0697 1.99994 9.0675 2.00226C8.92648 2.14129 8.7627 2.25136 8.66624 2.42052C8.59818 2.53962 8.52155 2.59616 8.38372 2.62698C8.30782 2.6439 8.22116 2.65015 8.1575 2.69835C7.98025 2.83043 8.08112 3.1479 8.24907 3.24313C8.46132 3.3634 8.77616 3.30686 8.93628 3.13515C9.06138 3.00075 9.13507 2.76741 9.36006 2.76764C9.45911 2.76744 9.55427 2.80415 9.62496 2.86983C9.71799 2.96113 9.69963 3.0464 9.71946 3.16041C9.75447 3.36293 9.94322 3.2531 10.058 3.15091C10.1417 3.29189 10.2173 3.43709 10.2843 3.58585C10.1579 3.75802 10.0576 3.94572 9.75373 3.74505C9.57183 3.62478 9.45995 3.45029 9.23153 3.39607C9.032 3.34973 8.82758 3.39792 8.6305 3.43013C8.40649 3.46698 8.14085 3.4832 7.97095 3.64378C7.80667 3.79857 7.71976 4.00573 7.54496 4.16122C7.20686 4.46246 7.06413 4.79128 7.283 5.21718C7.49355 5.62664 7.93398 5.84886 8.40918 5.81966C8.87605 5.79024 9.36104 5.53395 9.34758 6.17605C9.34268 6.40337 9.39287 6.56071 9.46656 6.77181C9.53486 6.96646 9.53021 7.15508 9.54588 7.35599C9.56078 7.59125 9.59964 7.82459 9.66193 8.05278C9.22311 8.58754 8.66096 9.02031 8.01844 9.31802C7.37591 9.61573 6.66999 9.77051 5.95461 9.77054Z" fill="#A4A4A4"/>
</svg>
